<svg viewBox="0 0 330 200" xmlns="http://www.w3.org/2000/svg"><g><g><g><g><g><line x1="40" y1="177" x2="35" y2="177" style="visibility: inherit;" fill="rgb(0, 0, 0)" stroke="rgb(204, 204, 204)" stroke-width="1px"></line><line x1="40" y1="157.33333333333331" x2="35" y2="157.33333333333331" style="visibility: inherit;" fill="rgb(0, 0, 0)" stroke="rgb(204, 204, 204)" stroke-width="1px"></line><line x1="40" y1="137.66666666666666" x2="35" y2="137.66666666666666" style="visibility: inherit;" fill="rgb(0, 0, 0)" stroke="rgb(204, 204, 204)" stroke-width="1px"></line><line x1="40" y1="118" x2="35" y2="118" style="visibility: inherit;" fill="rgb(0, 0, 0)" stroke="rgb(204, 204, 204)" stroke-width="1px"></line><line x1="40" y1="98.33333333333333" x2="35" y2="98.33333333333333" style="visibility: inherit;" fill="rgb(0, 0, 0)" stroke="rgb(204, 204, 204)" stroke-width="1px"></line><line x1="40" y1="78.66666666666666" x2="35" y2="78.66666666666666" style="visibility: inherit;" fill="rgb(0, 0, 0)" stroke="rgb(204, 204, 204)" stroke-width="1px"></line><line x1="40" y1="58.99999999999997" x2="35" y2="58.99999999999997" style="visibility: inherit;" fill="rgb(0, 0, 0)" stroke="rgb(204, 204, 204)" stroke-width="1px"></line><line x1="40" y1="39.33333333333334" x2="35" y2="39.33333333333334" style="visibility: inherit;" fill="rgb(0, 0, 0)" stroke="rgb(204, 204, 204)" stroke-width="1px"></line><line x1="40" y1="19.66666666666663" x2="35" y2="19.66666666666663" style="visibility: inherit;" fill="rgb(0, 0, 0)" stroke="rgb(204, 204, 204)" stroke-width="1px"></line><line x1="40" y1="0" x2="35" y2="0" style="visibility: inherit;" fill="rgb(0, 0, 0)" stroke="rgb(204, 204, 204)" stroke-width="1px"></line></g><g transform="translate(30, 0)"><text x="0" y="177" dx="0em" dy="0.3em" style="text-anchor: end; visibility: hidden; font-family: &quot;Helvetica Neue&quot;, sans-serif; font-size: 12px; font-weight: 200;" fill="rgb(33, 33, 33)" stroke="none" stroke-width="1px">0.3</text><text x="0" y="157.33333333333331" dx="0em" dy="0.3em" style="text-anchor: end; visibility: inherit; font-family: &quot;Helvetica Neue&quot;, sans-serif; font-size: 12px; font-weight: 200;" fill="rgb(33, 33, 33)" stroke="none" stroke-width="1px">0.4</text><text x="0" y="137.66666666666666" dx="0em" dy="0.3em" style="text-anchor: end; visibility: hidden; font-family: &quot;Helvetica Neue&quot;, sans-serif; font-size: 12px; font-weight: 200;" fill="rgb(33, 33, 33)" stroke="none" stroke-width="1px">0.5</text><text x="0" y="118" dx="0em" dy="0.3em" style="text-anchor: end; visibility: inherit; font-family: &quot;Helvetica Neue&quot;, sans-serif; font-size: 12px; font-weight: 200;" fill="rgb(33, 33, 33)" stroke="none" stroke-width="1px">0.6</text><text x="0" y="98.33333333333333" dx="0em" dy="0.3em" style="text-anchor: end; visibility: hidden; font-family: &quot;Helvetica Neue&quot;, sans-serif; font-size: 12px; font-weight: 200;" fill="rgb(33, 33, 33)" stroke="none" stroke-width="1px">0.7</text><text x="0" y="78.66666666666666" dx="0em" dy="0.3em" style="text-anchor: end; visibility: inherit; font-family: &quot;Helvetica Neue&quot;, sans-serif; font-size: 12px; font-weight: 200;" fill="rgb(33, 33, 33)" stroke="none" stroke-width="1px">0.8</text><text x="0" y="58.99999999999997" dx="0em" dy="0.3em" style="text-anchor: end; visibility: hidden; font-family: &quot;Helvetica Neue&quot;, sans-serif; font-size: 12px; font-weight: 200;" fill="rgb(33, 33, 33)" stroke="none" stroke-width="1px">0.9</text><text x="0" y="39.33333333333334" dx="0em" dy="0.3em" style="text-anchor: end; visibility: inherit; font-family: &quot;Helvetica Neue&quot;, sans-serif; font-size: 12px; font-weight: 200;" fill="rgb(33, 33, 33)" stroke="none" stroke-width="1px">1</text><text x="0" y="19.66666666666663" dx="0em" dy="0.3em" style="text-anchor: end; visibility: hidden; font-family: &quot;Helvetica Neue&quot;, sans-serif; font-size: 12px; font-weight: 200;" fill="rgb(33, 33, 33)" stroke="none" stroke-width="1px">1.1</text><text x="0" y="0" dx="0em" dy="0.3em" style="text-anchor: end; visibility: hidden; font-family: &quot;Helvetica Neue&quot;, sans-serif; font-size: 12px; font-weight: 200;" fill="rgb(33, 33, 33)" stroke="none" stroke-width="1px">1.2</text></g><line x1="40" y1="0" x2="40" y2="177" fill="rgb(0, 0, 0)" stroke="rgb(204, 204, 204)" stroke-width="1px"></line></g></g><g transform="translate(40, 0)" clip-path="url(#clip_0)"><clipPath id="clip_0"><rect width="290" height="177"></rect></clipPath><g><g><g><line x1="0" y1="0" x2="0" y2="177" fill="rgb(0, 0, 0)" stroke="rgb(66, 66, 66)" stroke-width="1px" opacity="0.25"></line><line x1="24.166666666666664" y1="0" x2="24.166666666666664" y2="177" fill="rgb(0, 0, 0)" stroke="rgb(66, 66, 66)" stroke-width="1px" opacity="0.25"></line><line x1="48.33333333333333" y1="0" x2="48.33333333333333" y2="177" fill="rgb(0, 0, 0)" stroke="rgb(66, 66, 66)" stroke-width="1px" opacity="0.25"></line><line x1="72.5" y1="0" x2="72.5" y2="177" fill="rgb(0, 0, 0)" stroke="rgb(66, 66, 66)" stroke-width="1px" opacity="0.25"></line><line x1="96.66666666666666" y1="0" x2="96.66666666666666" y2="177" fill="rgb(0, 0, 0)" stroke="rgb(66, 66, 66)" stroke-width="1px" opacity="0.25"></line><line x1="120.83333333333334" y1="0" x2="120.83333333333334" y2="177" fill="rgb(0, 0, 0)" stroke="rgb(66, 66, 66)" stroke-width="1px" opacity="0.25"></line><line x1="145" y1="0" x2="145" y2="177" fill="rgb(0, 0, 0)" stroke="rgb(66, 66, 66)" stroke-width="1px" opacity="0.25"></line><line x1="169.16666666666669" y1="0" x2="169.16666666666669" y2="177" fill="rgb(0, 0, 0)" stroke="rgb(66, 66, 66)" stroke-width="1px" opacity="0.25"></line><line x1="193.33333333333331" y1="0" x2="193.33333333333331" y2="177" fill="rgb(0, 0, 0)" stroke="rgb(66, 66, 66)" stroke-width="1px" opacity="0.25"></line><line x1="217.5" y1="0" x2="217.5" y2="177" fill="rgb(0, 0, 0)" stroke="rgb(66, 66, 66)" stroke-width="1px" opacity="0.25"></line><line x1="241.66666666666669" y1="0" x2="241.66666666666669" y2="177" fill="rgb(0, 0, 0)" stroke="rgb(66, 66, 66)" stroke-width="1px" opacity="0.25"></line><line x1="265.8333333333333" y1="0" x2="265.8333333333333" y2="177" fill="rgb(0, 0, 0)" stroke="rgb(66, 66, 66)" stroke-width="1px" opacity="0.25"></line><line x1="290" y1="0" x2="290" y2="177" fill="rgb(0, 0, 0)" stroke="rgb(66, 66, 66)" stroke-width="1px" opacity="0.25"></line></g><g><line x1="0" y1="177" x2="290" y2="177" fill="rgb(0, 0, 0)" stroke="rgb(66, 66, 66)" stroke-width="1px" opacity="0.25"></line><line x1="0" y1="157.33333333333331" x2="290" y2="157.33333333333331" fill="rgb(0, 0, 0)" stroke="rgb(66, 66, 66)" stroke-width="1px" opacity="0.25"></line><line x1="0" y1="137.66666666666666" x2="290" y2="137.66666666666666" fill="rgb(0, 0, 0)" stroke="rgb(66, 66, 66)" stroke-width="1px" opacity="0.25"></line><line x1="0" y1="118" x2="290" y2="118" fill="rgb(0, 0, 0)" stroke="rgb(66, 66, 66)" stroke-width="1px" opacity="0.25"></line><line x1="0" y1="98.33333333333333" x2="290" y2="98.33333333333333" fill="rgb(0, 0, 0)" stroke="rgb(66, 66, 66)" stroke-width="1px" opacity="0.25"></line><line x1="0" y1="78.66666666666666" x2="290" y2="78.66666666666666" fill="rgb(0, 0, 0)" stroke="rgb(66, 66, 66)" stroke-width="1px" opacity="0.25"></line><line x1="0" y1="58.99999999999997" x2="290" y2="58.99999999999997" fill="rgb(0, 0, 0)" stroke="rgb(66, 66, 66)" stroke-width="1px" opacity="0.25"></line><line x1="0" y1="39.33333333333334" x2="290" y2="39.33333333333334" fill="rgb(0, 0, 0)" stroke="rgb(66, 66, 66)" stroke-width="1px" opacity="0.25"></line><line x1="0" y1="19.66666666666663" x2="290" y2="19.66666666666663" fill="rgb(0, 0, 0)" stroke="rgb(66, 66, 66)" stroke-width="1px" opacity="0.25"></line><line x1="0" y1="0" x2="290" y2="0" fill="rgb(0, 0, 0)" stroke="rgb(66, 66, 66)" stroke-width="1px" opacity="0.25"></line></g></g></g><g><g><line x1="0" y1="236" x2="290" y2="236" fill="rgb(0, 0, 0)" stroke="rgb(153, 153, 153)" stroke-width="1.5px"></line></g></g><g><g><line x1="24.166666666666664" y1="0" x2="24.166666666666664" y2="177" fill="rgb(0, 0, 0)" stroke="rgb(153, 153, 153)" stroke-width="1.5px"></line></g></g><g><g><g><g><g><path stroke="rgb(255, 112, 67)" stroke-width="2px" d="M24.171499999999998,10.508117437362671L25.060833333333335,69.51300649344921L25.1865,94.92591130165827L25.442666666666664,101.5617003697975L25.481333333333332,103.43743810655342L25.5345,103.40760254931416L25.998499999999996,97.46700023604296L26.114500000000003,95.05404018076266L26.3465,97.02337467140494L26.646166666666666,101.85349234014997L26.675166666666666,104.6065701327442L26.7525,106.5596858748119L27.153666666666666,106.96916073482114L27.917333333333332,102.6560033704903L27.999499999999998,100.37874141161309L28.038166666666665,99.25191924918381L28.221833333333333,99.3162927113408L28.5505,96.83468495334353L28.5795,95.41321360853458L28.729333333333333,93.01204589398299L28.913,91.6383369500241L28.995166666666666,90.89331803419081L29.439833333333336,91.7080117928444L29.961833333333335,90.7086166909555L30.1165,89.59079223393043L30.445166666666665,88.68713595212976L30.483833333333333,88.21003921718007L30.599833333333333,88.25669819135138L30.851166666666664,89.1158855624845L31.107333333333333,89.9745689781136L31.208833333333335,90.70657485608069L31.474666666666664,90.43087594232495L31.498833333333334,90.2041351876955L31.503666666666668,90.04438835812682L31.909666666666666,88.94288869255512L31.99666666666667,88.41623207713583L32.818333333333335,87.56247769136613L33.108333333333334,87.68858111551171L33.37416666666667,88.27661320092616L34.244166666666665,90.19733454159753L34.964333333333336,89.7805101632025L34.988499999999995,89.53265682996975L35.317166666666665,89.0260130571353L35.699,89.12519237244027L35.73283333333333,89.1616399576934L36.29833333333334,90.72867881609868L36.41916666666666,92.12591502286575L36.743,92.87975810301556L36.858999999999995,93.53135152459377L37.03783333333333,94.1422638166014L37.207,94.88779143103703L37.410000000000004,94.62190774843263L38.197833333333335,94.46311838486864L38.719833333333334,94.42396150663934L38.73916666666667,94.4309827325867L38.8165,94.41456900267558L38.83583333333333,94.45280073222771L39.03883333333333,94.63732859772796L39.10166666666667,94.83414756426625L39.7735,95.96865152022892L40.150499999999994,96.72673010052239L40.3245,96.70151841970878L40.401833333333336,96.6823964695092L40.691833333333335,96.68649044314758L41.107499999999995,96.74109207002165L41.30566666666667,96.81913843000633L41.47,96.89879791485095L41.484500000000004,96.95708736109826L41.55216666666667,96.96666595336652L41.653666666666666,96.97784754234664L41.706833333333336,96.97436282991238L41.76,96.91368421291628L41.847,96.80679351712456L41.90983333333333,96.72174192244924L42.27233333333333,96.78752549951345L42.2965,96.78893116592408L42.567166666666665,96.48391301321413L42.63483333333333,96.19622714651082L43.00216666666666,95.62647059360616L43.25833333333333,95.19548538605056L43.408166666666666,94.88441141811818L43.79483333333333,94.2798642498323L43.84316666666667,93.83467228703113L43.867333333333335,93.56184134180788L43.988166666666665,93.32131516910857L44.1235,93.04522265579661L44.254000000000005,92.83259844930784L44.379666666666665,92.67669359933426L44.727666666666664,92.38573398644382L44.81466666666667,92.22577351602706L45.153,92.06231929226394L45.18683333333333,91.91291738369272L45.501000000000005,91.54167504798296L45.56866666666667,91.29346892649485L46.013333333333335,90.86411628771553L46.076166666666666,90.60001526861626L46.1825,90.37666498773835L46.404833333333336,90.10975267382587L46.6175,89.89590801731026L46.65133333333333,89.77753231089477L47.1395,89.79640245335001L47.81616666666667,90.12562718329845L48.16416666666667,90.46714872323285L49.05833333333333,91.30571942052926L49.11633333333333,91.79984508666408L49.57066666666667,91.80223275848037L50.0975,91.79728377040907L50.440666666666665,91.85361019080887L51.42666666666667,92.21435826205814L51.52333333333333,92.41433031469744L51.7505,92.66337079471444L52.867,93.54169376690841L52.92016666666667,94.12904774347736L52.929833333333335,94.49421862284218L53.00716666666666,94.7838374983462L53.14733333333333,95.01779083874973L53.39866666666667,95.3502576458483L53.476,95.5940337563373L53.505,95.77612260886929L54.1285,96.02429861173371L54.59733333333333,96.34226245688602L54.98883333333333,96.83219719136083L55.216,97.30635709884359L55.332,97.6655894000685L55.38516666666667,97.91038750883078L56.37116666666667,98.59123347168844L56.40983333333333,99.0147924143017L56.75300000000001,99.32389105069285L56.767500000000005,99.52074425642276L56.9705,99.77122847969085L57.12516666666667,100.01042522232582L57.26533333333334,100.20492097481599L57.42966666666667,100.40536684638963L58.19333333333333,100.90139802404269L58.705666666666666,101.47040081088558L58.768499999999996,101.83928880730163L58.778166666666664,102.06317236605618L59.0585,102.45095154394706L59.16966666666667,102.75333828578391L59.25183333333334,102.98171089599529L59.2615,103.12474094138543L59.319500000000005,103.26874820176361L59.445166666666665,103.40520655185142L60.04933333333334,104.03114385845359L60.349000000000004,104.65984112883862L60.353833333333334,105.04362394928091L60.532666666666664,105.3062751761227L60.697,105.6228805345982L60.909666666666666,106.0493424234404L61.06916666666667,106.35037365144176L61.51383333333334,106.71166972271013L62.0165,107.29872500867491L62.47566666666667,107.88826334459092L62.52883333333334,108.27849411159261L63.10883333333334,108.8854187758138L63.22,109.30810040819865L63.244166666666665,109.57020098321571L63.47616666666667,109.8394791187024L63.751666666666665,110.06175317175246L63.89666666666666,110.23794131561353L64.7135,110.8129801417444L64.82466666666667,111.25767066866482L64.8295,111.52949741755123L64.83433333333333,111.69681347573315L64.94550000000001,111.85939197439659L64.95516666666667,111.96607304830574L65.07116666666667,112.04901077679331L65.65599999999999,112.43193842370233L66.02333333333333,112.96064512768737L66.15383333333334,113.40033380690824L66.45349999999999,113.7674012532052L67.96633333333334,115.01318358283538L68.25633333333333,116.01790003121673L68.31433333333334,116.6797865796533L68.324,117.08691055189252L68.72516666666667,117.3893788572789L68.8315,117.64004923005743L68.85566666666666,117.81159838696229L70.51350000000001,118.93285821672225L71.06933333333333,119.77107597269185L71.4995,120.5231231264923L71.62033333333333,121.07198835686768L71.688,121.45986715123607L71.76533333333333,121.75147292911343L72.07466666666666,121.94247711836893L72.12783333333333,122.09356395288069L72.35016666666667,122.33243214220062L72.55799999999999,122.56212725915664L73.0945,122.9615192334542L73.54883333333333,123.52043559873238L74.33183333333334,124.09964097375158L74.46233333333333,124.4562653511831L74.68466666666667,124.75595304628624L74.88283333333332,125.03262893315403L74.96983333333334,125.17458979262659L75.00366666666666,125.28147122049577L75.16316666666667,125.46174878746815L75.255,125.6427620582017L75.65616666666668,125.84689226541315L75.94133333333335,126.11625483111575L76.46816666666666,126.48884936854859L77.06266666666666,126.98675824415058L77.07716666666666,127.29222745027963L77.46866666666666,127.59628562724683L78.0245,128.0968857562309L78.15983333333334,128.44611353610549L78.20816666666667,128.69066221078987L78.39183333333332,128.94636142190748L78.5175,129.13551504574093L78.58516666666667,129.29471929368498L78.9235,129.4556426018305L78.938,129.55061173894967L79.01050000000001,129.58266234671453L79.07333333333334,129.59613943264114L79.20866666666667,129.669917155297L79.42616666666666,129.8132602188933L79.52766666666666,129.94020014289706L79.547,129.99758505791638L79.97716666666666,130.23868859591215L80.243,130.4145975397952L80.51366666666667,130.66271356067622L80.562,130.84144676916736L80.74083333333333,130.98427543556454L81.08883333333334,131.17398647576033L81.24833333333333,131.3611240314014L82.0555,131.754468532L82.15216666666666,131.95256548618914L82.44216666666667,132.15735241668804L82.65483333333333,132.3696137402299L83.29766666666667,132.62447106841265L85.39533333333333,133.20656974317464L85.55,133.6124427112053L85.85449999999999,133.84027743689876L85.93183333333333,133.96614691626624L86.09616666666666,134.08514407284017L86.391,134.18927087986643L86.53116666666666,134.2697101350874L87.087,134.46544893083473L87.15466666666666,134.59242473938565L87.19816666666668,134.68427114624876L87.34800000000001,134.75310339692692L88.276,134.93607782222904L88.59016666666666,135.17100918430933L89.17983333333333,135.40729331258245L89.43116666666667,135.58904602895166L89.60516666666666,135.73083086075377L89.75016666666667,135.84597635624004L89.99183333333333,135.93927243763522L90.10783333333333,136.04022600301693L90.20933333333333,136.147607418191L90.34466666666667,136.2706615680207L90.40750000000001,136.30808944823835L90.41716666666667,136.33247800264255L90.55733333333335,136.36378954804042L91.01166666666667,136.44844612453042L91.15666666666667,136.51257998728946L91.26783333333333,136.56159157147525L91.37899999999999,136.61509477252076L91.73183333333334,136.67264334651415L92.133,136.75282829776955L92.29249999999999,136.81078595583966L92.39883333333333,136.8633783658266L92.568,136.94207599957306L92.69366666666666,137.03202451387756L92.70816666666666,137.08013718795604L92.7855,137.11180875383909L92.80966666666667,137.1359788597609L93.061,137.13463713453126L93.89716666666666,137.24528722202328L94.43366666666667,137.36630294463365L95.07166666666666,137.51900111282663L95.178,137.6115320045439L95.20216666666666,137.66285163076844L95.207,137.6935027395415L95.40516666666667,137.75586355257397L95.7145,137.80794457114752L96.106,137.91842150400294L96.25583333333334,138.0150331162028L96.88416666666667,138.17599643285746L96.9615,138.30428778935874L97.1935,138.3451252608065L97.36749999999999,138.36910727591697L97.37233333333333,138.38275563898515L97.40133333333333,138.38813835094072L97.614,138.42595329508998L97.79766666666667,138.4174399850318L97.95233333333333,138.43128921653127L98.57583333333332,138.5036889676171L98.64833333333334,138.5598310449074L98.88033333333333,138.5773138017466L99.32983333333334,138.6745973156498L99.8035,138.7833707408074L100.01133333333333,138.8338436648824L100.31099999999999,138.92150547299255L100.48016666666666,138.98939540104152L100.6735,139.05972568660627L100.717,139.10935341797062L100.7605,139.13113782891702L101.181,139.2352270330334L101.54833333333333,139.33571690193878L101.587,139.41108094377557L101.72716666666666,139.46443695261024L102.2685,139.5159821655389L102.7615,139.59326374606508L103.21583333333334,139.68372944241494L103.4285,139.7185804083689L103.49616666666667,139.7508967340833L103.559,139.78047785088498L103.8055,139.82681942537474L103.84416666666667,139.86554012629418L103.96983333333333,139.8843931154392L104.03750000000001,139.8966755109617L104.69,139.90902924761704L105.31349999999999,139.96941197847644L105.42466666666667,140.03568339110603L105.42949999999999,140.07741792059653L105.76783333333334,140.1711017711364L105.792,140.2120825384102L105.93216666666667,140.22869752649714L105.97083333333333,140.24983313165654L106.53633333333333,140.32190643041858L106.54116666666667,140.36643282347637L106.91816666666666,140.4422625289781L107.00516666666667,140.50011325596313L107.05833333333332,140.52906806897246L107.18883333333333,140.55849142649447L107.46916666666667,140.6169763710817L107.59966666666666,140.6572743598652L108.07816666666666,140.72652753655308L108.55183333333333,140.8653787799529L108.58083333333333,140.95807435678552L109.32033333333334,141.0818729792065L109.649,141.19638055924733L110.2435,141.33341642835234L110.44166666666668,141.47070203196105L110.55283333333333,141.5503303883737L110.60116666666667,141.57872583935256L110.809,141.63254048706847L111.31166666666667,144.09999241599496L111.505,150.12512239318522L111.70316666666666,153.3179650495535L111.87716666666665,156.98008145034825L112.07050000000001,155.79100284461487L112.114,155.26705283413912L113.47216666666667,157.45642814531277L113.593,159.63838345305732L113.78633333333333,160.4848232894934L113.90716666666667,159.62410081007857L114.31316666666666,160.6152936175194L114.68050000000001,161.15854863850632L115.13000000000001,162.31227279819066L115.25566666666667,163.05289907326508L115.47316666666667,162.58348349970703L116,162.23782599911368L116.14500000000001,161.98518362608715L116.29,162.25663064499994L116.30933333333334,162.1648893112757L116.40116666666665,162.18878212103155L116.4785,161.98038573977692L116.52199999999999,161.93254828403798L116.62833333333333,161.88658128549898L116.64766666666667,161.91810934366927L116.77333333333334,162.11877258194772L116.85066666666665,162.15289009952517L117.13583333333332,162.31855704790735L117.305,162.57826363090504L117.34366666666666,162.8354357821375L117.53699999999999,162.03763708726345L117.86083333333333,162.18380051407684L117.9285,162.48374860417923L118.05900000000001,162.07633677084493L118.14116666666666,162.02001766538172L118.43116666666667,162.44709102417357L118.67766666666667,162.48450179162816L119.06433333333334,162.33664745050586L119.161,162.3305649635668L119.364,162.4005241479958L119.60566666666666,162.45634597658028L119.62016666666666,162.4631240732605L119.70233333333333,162.58479085567402L119.83766666666666,162.5888875583975L120.03099999999999,162.79791032434514L120.36449999999999,162.86937585966393L120.38383333333334,162.94222662148837L120.93483333333333,162.6947072344897L120.98316666666668,162.64275409367946L121.6695,162.71932137958566L122.21566666666666,162.87217801979597L122.41383333333333,163.05083121958225L122.83916666666666,163.37094134153634L123.08566666666667,163.65253255801423L123.21133333333333,163.8087006610852L124.58883333333333,164.04890147460827L124.64683333333333,164.21928682891524L124.70483333333333,164.32869674544332L124.816,164.40771074561755L124.845,164.43396283468692L125.14466666666667,164.31589526304256L125.27516666666666,164.21312097530753L125.41533333333334,164.2477101156385L125.773,164.31648495610185L126.59466666666667,164.59636791635927L126.73,164.90795382711914L126.83633333333334,164.89465892028983L126.8605,164.90270159867708L127.08766666666666,165.09201895928763L127.484,165.33101631643206L127.658,165.50118130907515L128.39266666666666,165.66969621061344L128.46516666666668,165.83486254143153L128.5473333333333,166.01875872886637L129.38833333333332,166.0859679508793L129.56716666666665,166.2613501784357L129.8475,166.45725343846198L130.181,165.806195804812L130.5773333333333,165.77925799846898L131.18633333333332,165.9715684407567L131.2685,166.0740907124846L131.457,166.1662460286718L132.11916666666667,166.2654343437732L132.37533333333334,166.32760828285896L132.62183333333334,166.37659972637584L132.81033333333335,166.44347764887226L133.54983333333334,166.60594480338384L133.72866666666667,166.7823580171825L133.76733333333334,166.82866396503616L134.20233333333334,166.77647367714027L134.2651666666667,166.7867336249243L134.39566666666667,166.76217027361537L134.43916666666667,166.76417632016745L134.46816666666666,166.78575790194594L134.51166666666666,166.75599098365262L134.763,166.78958211835675L134.821,166.84198001124332L134.83066666666667,166.8729592349005L134.84033333333332,166.89096300120386L134.91766666666666,166.9002671578441L135.27533333333332,166.96345511708142L135.32366666666667,167.03687223374934L135.43966666666668,166.93857457188818L135.65716666666665,166.9858651754144L135.71033333333332,166.94754698655308L135.78283333333334,166.9452786611396L135.84083333333334,166.95951997639008L135.952,166.79439264576396L136.02450000000002,166.6197265110856L136.155,166.4777977857458L136.26616666666666,166.37964292328363L136.64316666666667,166.2886943496911L136.93316666666666,166.33146908746053L137.10716666666667,166.2676392646584L137.547,166.30264761360206L137.9965,166.10870881663791L138.63933333333333,165.95962874762435L139.04533333333333,165.7658433318469L139.83316666666667,165.4323869824608L139.93949999999998,165.23227800608873L139.9685,165.12564631510497L140.17633333333333,165.03231713896227L140.58716666666666,164.92197295263549L140.795,164.74728642444893L141.3025,164.57833037301552L141.5635,164.40165068422547L141.95016666666666,164.2374653600541L142.303,163.94327469962164L142.3175,163.76125553626213L142.40933333333334,163.59386418289975L142.64616666666666,163.44976634597998L142.84916666666666,163.2413986214969L142.96516666666668,163.07646139198383L143.15366666666665,162.91814228535L143.2455,162.8456575352369L143.33733333333333,162.83357761770992L143.347,162.82952749612238L143.434,162.78170419463896L143.61766666666668,162.69686534044772L144.043,162.6145745398857L144.16866666666667,162.58713003887283L144.18316666666666,162.58060380355644L144.246,162.53451141835924L144.7245,162.33587529533114L145.20783333333335,151.46520358486774L145.2755,148.85664776661278L145.48333333333335,146.75543248473573L145.51233333333334,143.89967594833553L145.92316666666667,142.38138336911626L146.334,142.8321155884355L146.53216666666665,143.8382571962569L146.8415,144.54689378105166L147.01066666666668,144.7324870739136L147.09283333333332,144.72123538138987L147.50850000000003,145.86490332295014L147.90483333333333,145.99846110667494L148.17066666666668,146.4121968543075L148.22383333333335,146.64966086917374L148.69750000000002,147.6244914792374L149.089,148.5149278638201L149.72216666666665,148.77562058751408L149.76083333333332,148.61429768871042L150.017,148.66792850933933L150.29733333333334,148.8446024491934L150.44233333333335,148.87304305044103L150.51966666666667,148.62522683346643L150.568,148.38815605126445L150.6115,148.07919509897206L150.85316666666665,148.08261703465126L151.3075,147.8979043266003L151.49116666666666,147.42314782743603L151.61683333333335,147.1875390867687L151.64100000000002,147.10074090124945L151.7715,146.72239669459134L151.89233333333334,146.3648910858059L151.95033333333333,146.1524906916116L152.1388333333333,146.21186321354077L152.82516666666666,146.80039697513678L152.8445,147.2137250361385L152.92183333333332,147.57253930514307L153.0233333333333,147.93924178408733L153.18766666666667,148.14623985525262L153.21666666666667,148.21490572593385L153.3375,148.02350070497457L153.56466666666665,147.6548311934137L153.9755,147.72489918620965L154.76333333333332,147.78978195201307L154.81650000000002,147.88345215962897L155.6575,147.89783165204466L155.72516666666667,147.985380546339L155.77833333333334,148.1596993383294L155.87016666666665,148.16612382987296L155.98133333333334,148.2025523042231L156.01033333333334,148.2259543809622L156.56616666666667,148.12050373196578L156.69666666666666,147.9812708388168L156.84166666666667,148.03778616331408L157.05916666666667,148.1716955010636L157.13166666666666,148.16430243082107L157.3395,148.1410875492926L157.67783333333333,148.13394814572547L157.77933333333334,148.20048797433662L157.963,148.31598519666048L158.08383333333333,148.34935953249368L158.195,148.260053082485L159.5,148.09539154619713L159.79966666666667,147.89507293373788L160.1525,147.71767016850177L160.15733333333333,147.6178046898182L161.0515,147.4641707282942L161.38016666666667,147.4266019547988L161.63633333333334,147.42622745941136L161.79583333333332,147.49870648131798L161.81516666666667,147.5132399448516L162.0375,147.55567554923465L162.0665,147.54729478533608L162.19216666666668,147.58987271572477L162.29366666666667,147.7231187887112L162.60299999999998,147.7362801035515L162.99450000000002,147.8298665166063L163.65666666666667,147.68624783437429L163.7195,147.6012465052663L163.7775,147.58816717621835L163.90316666666666,147.63468970392435L164.1303333333333,147.74220665415697L164.46866666666668,147.77597640427297L164.4735,147.79262780232634L164.546,147.8547826394443L164.71516666666665,147.86456342846182L164.79733333333334,147.8806701122325L164.86983333333333,147.82718872340132L165.13566666666668,147.68558128264513L165.14533333333333,147.59251205674985L165.1695,147.5321668339899L165.445,147.4850509774564L165.58033333333333,147.4384900696205L165.73983333333334,147.44771304729346L165.78333333333333,147.48606209160545L166.12166666666667,147.54707504233713L166.19416666666666,147.61116679263708L166.27633333333333,147.58990871758817L166.62433333333334,147.24628876756563L166.73066666666665,146.97985272672338L167.36866666666668,146.3667809073124L167.47983333333335,145.88530235513014L167.71183333333335,145.40156569296497L167.73600000000002,145.08143431076036L168.1903333333333,144.6223062880553L168.2,144.33652327504063L168.22416666666666,144.12726563242856L168.30633333333336,143.92776242511144L168.42716666666666,143.70041745275262L168.61083333333335,143.4485463382999L168.9685,143.16196138554017L169.37449999999998,142.61312611238083L169.78533333333334,142.0627316514805L170.01733333333334,141.55700356245964L170.23,141.24555572558003L170.2976666666667,141.00195603781077L170.4185,140.70407987364013L170.58283333333335,140.41418741977938L170.66983333333334,140.2589254866246L170.67950000000002,140.1766981496535L170.95016666666666,140.06137956465017L171.35616666666667,139.8002905445381L171.41416666666666,139.60665813269716L172.43883333333335,139.08652771621448L172.898,138.62360993887683L173.03816666666668,138.3271177442811L173.1155,138.10536246887497L173.2605,137.91119419768444L173.275,137.79590297084047L173.31366666666668,137.74846362476146L173.68583333333333,137.52775751394788L174.72983333333335,137.22040979172442L174.87966666666665,136.92756568653775L175.2905,136.64563691177005L175.64816666666667,136.50049149726652L176.45533333333336,136.10820851962657L177.14166666666668,135.552661972687L177.15133333333333,135.2232305193615L177.83283333333333,134.91722526458932L178.04066666666665,134.67134884779475L178.31616666666667,134.44848177304758L179.51,134.04067664228415L179.57766666666666,133.7566255701534L179.80483333333333,133.5100425227256L180.09,133.35285087488717L180.18666666666667,133.18682386912482L180.1963333333333,133.0858900851264L180.44283333333334,132.96348792947856L180.74249999999998,132.91640293580807L181.00833333333333,132.75082816272487L181.62699999999998,132.5613485987356L181.888,132.37043938728394L182.05233333333334,132.25064229384395L182.091,132.17361562698287L182.09583333333333,132.125308378036L182.34716666666668,132.0620106678179L182.51149999999998,131.97593331859338L182.54049999999998,131.90757098511352L182.98033333333333,131.85370600252645L183.2026666666667,131.78820367671628L183.81166666666667,131.492363254334L183.88416666666666,131.30845396524992L183.918,131.20473380569413L183.94216666666665,131.1518701296079L184.005,131.0837191808836L184.02916666666667,131.04822553407848L184.2225,130.96169738697031L184.22733333333332,130.90856607393633L184.2853333333333,130.85122656605367L184.43033333333335,130.75809440482692L184.44966666666667,130.69845461131553L184.77833333333334,130.62756963937332L184.83633333333333,130.53042705278904L185.18916666666667,130.37570023191756L185.33416666666668,130.25413056802424L186.36366666666666,130.08369718745354L186.40233333333333,129.9539320792059L186.47,129.83527490647435L186.67783333333335,129.74893077106356L186.731,129.6782092723712L186.7455,129.63006998341072L186.85183333333333,129.58425010784936L187.02100000000002,129.5109101308056L187.4608333333333,129.40599266127754L187.9345,129.13223867080217L188.471,128.81110979196393L188.732,128.58361270274895L188.86733333333333,128.4573315595359L189.46183333333332,128.21865177639944L189.78083333333333,127.99808645539656L190.07083333333333,127.9308338659595L190.46716666666669,127.81138996864898L190.54933333333335,127.73159776877688L190.64116666666666,127.66285684953922L190.81516666666667,127.61846604695396L191.023,127.56794162641253L191.25016666666667,127.49881227046421L191.3855,127.43037348924183L191.4725,127.37160025003415L191.5305,127.32593632914342L191.96066666666667,127.19306119985015L192.13466666666665,127.1114089848993L192.27,127.04573924317346L192.49716666666666,126.97148012503615L192.60833333333335,126.89617954523143L192.70983333333334,126.82449285287129L192.73883333333333,126.79350786267796L192.80650000000003,126.77963390067664L193.3961666666667,126.74641147126027L193.48316666666668,126.69288205426494L193.72,126.60149203531876L193.76833333333335,126.52394030964136L193.8215,126.47536022549326L193.86983333333333,126.43254872412754L193.94233333333332,126.41331374795003L194.91383333333334,126.3683362254546L194.967,126.31031858021294L195.2086666666667,126.2564335530655L195.3875,126.19626454506258L195.8805,126.04892839587096L196.2285,125.95823383488076L196.4025,125.86879571372955L196.5233333333333,125.79968760864749L196.60066666666668,125.76068441742746L196.65383333333335,125.74606012110362L196.76983333333334,125.69866777343222L196.85683333333333,125.65738947122891L196.90033333333335,125.61042055445668L197.32083333333333,125.49785309408757L197.75099999999998,125.44527489368909L197.85250000000002,125.38312822038806L198.28266666666667,125.27835758599565L198.505,125.18941555066661L198.83366666666666,125.08845800743754L199.04633333333334,124.98500819158306L199.4185,124.92520304015326L199.4475,124.898158523387L200.12416666666667,124.81203440007347L200.37066666666666,124.72295658097732L200.5205,124.61980756306292L200.593,124.56563607961121L200.67033333333333,124.51491681800397L200.78633333333335,124.47817400335933L200.96033333333332,124.42951881432333L200.97966666666665,124.40130568073471L201.06183333333334,124.36136468565232L201.26966666666664,124.33237827807127L201.55966666666666,124.33294022673047L201.56449999999998,124.33268190578823L201.69016666666667,124.30423878723107L202.8695,124.27105717118813L203.11116666666666,124.21017191562791L203.18366666666665,124.18020053160433L203.38666666666668,124.1347407546773L203.41083333333333,124.10858084641703L203.84583333333333,124.09494332799994L204.76416666666665,124.06324130095848L205.06383333333332,124.04642386713311L205.06866666666664,124.03100212899062L205.14600000000002,124.02857612264482L205.31516666666667,124.0143010697305L205.43116666666668,124.00801953165967L205.48916666666668,124.01477249755008L205.50366666666667,124.02170326089983L205.89999999999998,123.96033904816386L205.92899999999997,123.91518834749267L206.02566666666667,123.87369363021496L206.5283333333333,123.81419741617626L206.59116666666668,123.77596768244297L206.66366666666667,123.7763383577517L207.16633333333334,123.72813381693271L207.234,123.69751371110385L207.32583333333332,123.6492124070619L207.50466666666668,123.59766864398485L207.98799999999997,123.49349709919709L208.40366666666668,123.39085251036258L208.58733333333336,123.32105549539907L208.6115,123.28471487581203L208.89666666666668,123.26706017942908L208.95466666666667,123.22485480641335L209.1335,123.1883626258473L209.18183333333334,123.15004679418209L209.57816666666668,123.07881790512762L210.02283333333332,122.96874798604227L210.25,122.85486988982584L210.34183333333334,122.78003952956811L210.453,122.73626664910685L210.5255,122.70659878035767L210.54966666666667,122.66866392799447L211.05233333333334,122.62519215092001L211.86916666666667,122.45229028788172L212.51683333333332,122.27594626224216L212.86966666666666,122.13736913368808L212.98566666666667,122.0529380983057L214.4163333333333,121.72669414357L214.59033333333332,121.49473540589604L214.6338333333333,121.33721719148988L214.6435,121.23852376518587L214.90449999999998,121.13648868627115L214.94316666666666,121.076505508185L215.1945,121.02300725350415L215.6585,120.95015708189985L215.96300000000002,120.89849929560295L217.24383333333333,120.64015399147513L217.33083333333332,120.49585156478153L217.33566666666664,120.40898877484202L217.413,120.36630985400635L217.6208333333333,120.27874339378809L217.732,120.21803545608283L218.02200000000002,120.11346692832802L218.24916666666667,120.029147499755L218.37,119.96976884640551L218.4715,119.952714382235L219.25933333333333,119.81138947325377L219.588,119.69147936533346L220.16316666666665,119.51896580078477L220.2115,119.40906200419826L220.24533333333332,119.33593164450504L220.34683333333334,119.26625979681756L220.62233333333333,119.2208087249991L221.09116666666665,119.08818790541471L221.33766666666665,118.95158902740306L221.46333333333334,118.86185081761573L221.52616666666668,118.81852040267881L221.61316666666667,118.78208935405948L221.99499999999998,118.72248509017311L222.6281666666667,118.79266819847236L222.7635,118.83446859613622L222.90366666666665,118.83142482019801L222.92783333333335,118.82313256329698L223.27583333333334,118.76344713886422L223.648,118.6798513173253L224.14583333333334,118.58238752519233L224.3295,118.51242613694157L224.33433333333332,118.47123703897645L224.60016666666667,118.40827154442061L224.64366666666666,118.37472163433463L225.00133333333335,118.32927163518247L225.18983333333333,118.27166914985642L225.91483333333335,118.14632120159902L226.05499999999998,118.0432463075378L226.17100000000002,117.95505444918027L226.287,117.8650876564619L226.5335,117.7490500062408L226.61083333333332,117.6720892896077L226.68816666666666,117.62114424962724L226.78483333333335,117.58699959591382L227.27783333333332,117.52028964008106L227.32616666666667,117.47885230806597L227.86749999999998,117.36036197916943L228.06083333333333,117.27522921905683L228.24450000000002,117.20424518791296L228.636,117.14122054859476L228.8535,117.07664621999548L228.88733333333334,117.03589946308146L229.15800000000002,117.01902398036962L229.24983333333333,117.02062562644707L229.74283333333335,116.97960690383252L229.77666666666667,116.95651956234853L229.90716666666665,116.91295829515347L230.5596666666667,116.80583956500305L230.95116666666667,116.72809712088355L231.09616666666668,116.68330376940716L231.25083333333333,116.60920585948875L231.28466666666665,116.556433696103L231.4006666666667,116.51730567130559L231.49733333333333,116.49124058433243L231.96133333333333,116.40119339832387L232.03383333333335,116.34758708760373L232.0435,116.314387054554L232.12083333333334,116.27990800419136L232.5606666666667,116.19346814719052L233.015,116.11106074671272L233.06333333333333,116.06562062593494L233.30016666666666,116.03416467801051L233.59016666666668,115.96752060907274L234.64383333333333,115.78443366760327L234.73083333333332,115.66528341655521L235.23350000000002,115.56011759530259L235.30116666666666,115.49340296163611L235.44616666666664,115.45835379187933L235.57183333333333,115.44070967490279L235.65883333333332,115.42499823841335L235.7313333333333,115.39724716031282L235.9585,115.36760826399166L236.37900000000002,115.31839054916443L236.54333333333332,115.28842385268693L236.54816666666667,115.2677102068453L236.76566666666668,115.23450082020295L237.02183333333335,115.18818137730958L237.05083333333334,115.15775455049157L237.10883333333334,115.12930947747714L237.23450000000003,115.11210645560556L237.24416666666667,115.10145641957203L237.4085,115.09819858229845L237.61633333333333,115.076930306097L237.76616666666666,115.07001639708287L237.9885,115.04049173178916L238.34133333333332,115.0086633474587L238.4186666666667,114.98481646245469L238.99866666666668,114.93649974901925L239.1195,114.89873210254977L239.28866666666667,114.84546707270744L239.61733333333333,114.80205307522337L239.95566666666667,114.75936377516737L240.2795,114.70637640439284L240.34716666666665,114.66560942977357L240.60333333333332,114.65048484235817L241.2655,114.64145697889614L241.28483333333332,114.63012287063134L241.2945,114.62296136047084L241.6376666666667,114.57560160850866L242.11616666666666,114.52514793333637L242.18866666666665,114.50681835327879L242.4255,114.46090706535779L242.48833333333332,114.43193955629229L242.49316666666664,114.41458718424536L242.63816666666668,114.38016859955884L243.08283333333335,114.37155385176716L243.50333333333333,114.33938632424898L243.6,114.31273830344017L243.90449999999998,114.30429861789784L244.26216666666667,114.31400483754778L244.28633333333335,114.31724029724302L244.33950000000002,114.31927535103462L244.9195,114.32357230087142L245.12249999999997,114.32879500965291L245.34483333333333,114.33559535372265L246.24383333333333,114.29071876860465L247.022,114.26042149935247L247.07999999999998,114.24459696495981L247.36033333333333,114.22548531304467L247.43283333333332,114.20428416814806L247.5391666666667,114.1887360752805L247.85333333333335,114.18329900549955L247.88233333333335,114.17724217999242L248.14816666666667,114.16627464708642L248.21583333333334,114.15947374910289L248.2545,114.146456169348L248.27866666666665,114.13945211207533L248.61216666666667,114.16277351321179L249.09066666666666,114.13749682709414L249.54983333333334,114.13119752290748L249.5885,114.12772271881244L249.7625,114.10215583155397L249.85433333333336,114.08087486451772L249.90266666666668,114.07209184820994L250.42466666666667,114.05050467087156L250.62766666666667,114.0430243092775L251.00466666666668,114.01991178659596L251.70066666666668,113.95740163764157L251.83599999999998,113.92172890766936L252.039,113.89309498785619L252.14049999999997,113.86913917731457L252.44016666666667,113.84534569345641L252.48850000000002,113.8251709685488L252.55133333333333,113.81612798446993L252.59,113.81054746036477L253.1265,113.81195368920613L253.31983333333335,113.82240966889174L253.38266666666667,113.83014619310444L253.52283333333332,113.8304508763139L253.56633333333332,113.82722016796973L253.90466666666669,113.83265738065344L254.70216666666667,113.8221671683111L254.72633333333332,113.82058069522289L254.8375,113.81910365471308L255.28699999999998,113.83220441529589L255.39333333333335,113.84366125696562L256.03616666666665,113.84394277036387L256.3165,113.8477268193177L256.3938333333333,113.84086796287765L256.83366666666666,113.82616511569859L256.94966666666664,113.81856720995768L257.14300000000003,113.82558535745858L257.21066666666667,113.84229216105412L257.2735,113.84417162613076L257.375,113.84326432313125L257.38466666666665,113.84328260917823L257.839,113.87014690378922L258.1483333333333,113.89512281024227L258.26916666666665,113.90753414871554L258.2885,113.91659862185871L258.73316666666665,113.92433486611856L258.83466666666664,113.91507402796276L258.9796666666667,113.9006836398764L259.2165,113.88776844249111L259.64666666666665,113.89530044499601L259.69016666666664,113.9028111638838L260.50216666666665,113.93002593172872L260.5215,113.9501012225148L260.5505,113.96857487713478L260.83566666666667,113.97843526734023L261.09183333333334,113.974818970361L261.10633333333334,113.97329626019716L261.28516666666667,113.97718875528923L261.5606666666667,113.98039169860812L261.6525,113.97828570059696L261.986,113.98175788949982L262.6288333333333,114.00353457747532L262.7545,114.02316035957315L262.86083333333335,114.04646583079008L263.0493333333333,114.05577897039278L263.1895,114.07743571007583L263.2378333333333,114.09299458148678L263.24266666666665,114.10257841596562L263.5423333333333,114.1133177048935L263.552,114.12294035158396L263.88550000000004,114.13713051280482L263.90000000000003,114.14460367402097L263.90483333333333,114.15006755058364L264.1223333333333,114.16871608653305L264.2335,114.18067887639188L264.3301666666667,114.18963833182164L264.886,114.19889641322162L265.08416666666665,114.2056703757294L265.3403333333333,114.22521749681519L265.408,114.238797884462L265.80916666666667,114.24935621099335L265.8333333333333,114.25887028024592" style="fill: none;" fill="none"></path></g></g></g></g><g opacity="0.2"><g><g><g><path stroke="rgb(255, 112, 67)" stroke-width="2px" d="M24.171499999999998,10.508117437362671L25.060833333333335,104.91593992710112L25.1865,119.32229991753894L25.442666666666664,109.36538831392923L25.481333333333332,105.88640129566193L25.5345,103.36632923285165L25.998499999999996,88.97184387842813L26.114500000000003,91.53592125574747L26.3465,99.92776052157083L26.646166666666666,109.02565415700276L26.675166666666666,108.71121660868326L26.7525,109.47873071829477L27.153666666666666,107.58203601837157L27.917333333333332,96.19471724828084L27.999499999999998,96.96552530924478L28.038166666666665,97.56248072783151L28.221833333333333,99.41282566388448L28.5505,93.11290339628854L28.5795,93.2812231381734L28.729333333333333,89.41051379839578L28.913,89.57784887154895L28.995166666666666,89.77581417560576L29.439833333333336,92.93003634611765L29.961833333333335,89.20953587690988L30.1165,87.91406349341074L30.445166666666665,87.33165538311005L30.483833333333333,87.49439533551534L30.599833333333333,88.32668658097585L30.851166666666664,90.40466582775116L31.107333333333333,91.26259362697601L31.208833333333335,91.80458343029021L31.474666666666664,90.0173276265462L31.498833333333334,89.86402408281961L31.503666666666668,89.80476812521616L31.909666666666666,87.29063924153645L31.99666666666667,87.62624716758727L32.818333333333335,86.28184612592061L33.108333333333334,87.87773625055947L33.37416666666667,89.15866132577258L34.244166666666665,93.07841654618579L34.964333333333336,89.15527359644571L34.988499999999995,89.16087683041889L35.317166666666665,88.2660473982493L35.699,89.2739613453547L35.73283333333333,89.21631133556366L36.29833333333334,93.0792371034622L36.41916666666666,94.22176933288574L36.743,94.01052272319792L36.858999999999995,94.50874165693918L37.03783333333333,95.05863225460051L37.207,96.00608285268147L37.410000000000004,94.22308222452799L38.197833333333335,94.22493433952332L38.719833333333334,94.36522618929544L38.73916666666667,94.44151457150777L38.8165,94.38994840780893L38.83583333333333,94.51014832655588L39.03883333333333,94.91412039597827L39.10166666666667,95.12937601407369L39.7735,97.67040745417276L40.150499999999994,97.86384797096252L40.3245,96.66370089848836L40.401833333333336,96.65371354420978L40.691833333333335,96.69263140360513L41.107499999999995,96.82299451033273L41.30566666666667,96.93620796998341L41.47,97.01828714211781L41.484500000000004,97.04452153046925L41.55216666666667,96.98103384176889L41.653666666666666,96.99461992581685L41.706833333333336,96.96913576126097L41.76,96.82266628742218L41.847,96.64645747343698L41.90983333333333,96.59416453043619L42.27233333333333,96.88620086510976L42.2965,96.79103966554005L42.567166666666665,96.02638578414916L42.63483333333333,95.76469834645589L43.00216666666666,94.77183576424916L43.25833333333333,94.5490075747172L43.408166666666666,94.41780046621957L43.79483333333333,93.37304349740346L43.84316666666667,93.16688434282938L43.867333333333335,93.15259492397307L43.988166666666665,92.9605259100596L44.1235,92.63108388582864L44.254000000000005,92.51366213957468L44.379666666666665,92.44283632437387L44.727666666666664,91.94929456710815L44.81466666666667,91.9858328104019L45.153,91.81713795661925L45.18683333333333,91.68881452083588L45.501000000000005,90.98481154441833L45.56866666666667,90.92115974426268L46.013333333333335,90.2200873295466L46.076166666666666,90.20386373996733L46.1825,90.04163956642151L46.404833333333336,89.70938420295714L46.6175,89.57514103253682L46.65133333333333,89.59996875127155L47.1395,89.82470766703287L47.81616666666667,90.61946427822113L48.16416666666667,90.97943103313446L49.05833333333333,92.56357546647388L49.11633333333333,92.54103358586627L49.57066666666667,91.80581426620483L50.0975,91.7898602883021L50.440666666666665,91.93809982140857L51.42666666666667,92.75548036893207L51.52333333333333,92.7142883936564L51.7505,93.03693151473998L52.867,94.85917822519937L52.92016666666667,95.01007870833078L52.929833333333335,95.04197494188944L53.00716666666666,95.21826581160227L53.14733333333333,95.36872084935504L53.39866666666667,95.84895785649616L53.476,95.95969792207082L53.505,96.04925588766733L54.1285,96.39656261603037L54.59733333333333,96.81920822461446L54.98883333333333,97.56709929307301L55.216,98.01759696006773L55.332,98.20443785190581L55.38516666666667,98.27758467197417L56.37116666666667,99.61250241597493L56.40983333333333,99.65013082822162L56.75300000000001,99.78753900527954L56.767500000000005,99.8160240650177L56.9705,100.14695481459299L57.12516666666667,100.36922033627826L57.26533333333334,100.49666460355121L57.42966666666667,100.70603565375009L58.19333333333333,101.64544479052225L58.705666666666666,102.32390499114989L58.768499999999996,102.39262080192564L58.778166666666664,102.39899770418802L59.0585,103.03262031078339L59.16966666666667,103.20691839853922L59.25183333333334,103.32426981131235L59.2615,103.33928600947061L59.319500000000005,103.48475909233092L59.445166666666665,103.60989407698312L60.04933333333334,104.97004981835683L60.349000000000004,105.60288703441618L60.353833333333334,105.61929817994435L60.532666666666664,105.70025201638538L60.697,106.09778857231139L60.909666666666666,106.68903525670369L61.06916666666667,106.8019204934438L61.51383333333334,107.25361382961272L62.0165,108.17930793762206L62.47566666666667,108.77257084846497L62.52883333333334,108.86384026209512L63.10883333333334,109.79580577214558L63.22,109.94212285677591L63.244166666666665,109.96335184574127L63.47616666666667,110.24339632193247L63.751666666666665,110.39516425132751L63.89666666666666,110.50222353140512L64.7135,111.67553838094075L64.82466666666667,111.92470645904541L64.8295,111.93723754088083L64.83433333333333,111.94778756300607L64.94550000000001,112.10325972239175L64.95516666666667,112.12609465916951L65.07116666666667,112.17341736952463L65.65599999999999,113.00632989406586L66.02333333333333,113.75370518366495L66.15383333333334,114.05986682573953L66.45349999999999,114.31800242265064L67.96633333333334,116.88185707728067L68.25633333333333,117.52497470378876L68.31433333333334,117.67261640230814L68.324,117.69759651025134L68.72516666666667,117.84308131535846L68.8315,118.01605478922525L68.85566666666666,118.06892212231953L70.51350000000001,120.6147479613622L71.06933333333333,121.02840260664621L71.4995,121.651193857193L71.62033333333333,121.89528620243073L71.688,122.0416853427887L71.76533333333333,122.18888159592944L72.07466666666666,122.2289834022522L72.12783333333333,122.32019420464832L72.35016666666667,122.69073442618051L72.55799999999999,122.90666993459064L73.0945,123.56060719490051L73.54883333333333,124.35881014664966L74.33183333333334,124.9684490362803L74.46233333333333,124.99120191733041L74.68466666666667,125.20548458894093L74.88283333333332,125.44764276345569L74.96983333333334,125.38753108183542L75.00366666666666,125.44179336229959L75.16316666666667,125.73216513792673L75.255,125.91428196430206L75.65616666666668,126.15308757623036L75.94133333333335,126.52029867966968L76.46816666666666,127.04774117469788L77.06266666666666,127.73362155755359L77.07716666666666,127.75043125947316L77.46866666666666,128.05237289269763L78.0245,128.84778594970703L78.15983333333334,128.96995520591736L78.20816666666667,129.05748522281647L78.39183333333332,129.32991023858386L78.5175,129.4192454814911L78.58516666666667,129.53352566560108L78.9235,129.69702756404877L78.938,129.6930654446284L79.01050000000001,129.63073825836182L79.07333333333334,129.61635506153107L79.20866666666667,129.7805837392807L79.42616666666666,130.0282748142878L79.52766666666666,130.13061002890268L79.547,130.08366243044534L79.97716666666666,130.60034390290576L80.243,130.6784609556198L80.51366666666667,131.03488759199777L80.562,131.10954658190408L80.74083333333333,131.1985184351603L81.08883333333334,131.45855303605396L81.24833333333333,131.64183036486307L82.0555,132.34448528289795L82.15216666666666,132.24971091747284L82.44216666666667,132.4645328124364L82.65483333333333,132.6880057255427L83.29766666666667,133.00675706068674L85.39533333333333,134.0797177553177L85.55,134.22125216325122L85.85449999999999,134.18202952543894L85.93183333333333,134.15495113531748L86.09616666666666,134.2636398077011L86.391,134.34546109040576L86.53116666666666,134.39036901791889L87.087,134.75905712445575L87.15466666666666,134.782888452212L87.19816666666668,134.82204075654346L87.34800000000001,134.85635177294412L88.276,135.2105394601822L88.59016666666666,135.5234062274297L89.17983333333333,135.76171950499216L89.43116666666667,135.86167510350543L89.60516666666666,135.9435081084569L89.75016666666667,136.01869459946948L89.99183333333333,136.07921655972797L90.10783333333333,136.19165635108948L90.20933333333333,136.30867954095203L90.34466666666667,136.4552427927653L90.40750000000001,136.36423126856485L90.41716666666667,136.36906083424884L90.55733333333335,136.41075686613718L91.01166666666667,136.57543098926544L91.15666666666667,136.608780781428L91.26783333333333,136.6351089477539L91.37899999999999,136.69534957408905L91.73183333333334,136.75896620750427L92.133,136.8731057246526L92.29249999999999,136.89772244294483L92.39883333333333,136.94226698080698L92.568,137.06012245019275L92.69366666666666,137.16694728533426L92.70816666666666,137.1523061990738L92.7855,137.15931610266367L92.80966666666667,137.17223401864368L93.061,137.1326245466868L93.89716666666666,137.4112623532613L94.43366666666667,137.5478265285492L95.07166666666666,137.74804836511612L95.178,137.75032834211984L95.20216666666666,137.73983107010523L95.207,137.73947940270105L95.40516666666667,137.84940477212268L95.7145,137.8860660990079L96.106,138.08413690328598L96.25583333333334,138.15995053450266L96.88416666666667,138.41744140783945L96.9615,138.49672482411066L97.1935,138.40638146797815L97.36749999999999,138.4050802985827L97.37233333333333,138.40322818358737L97.40133333333333,138.3962124188741L97.614,138.48267571131387L97.79766666666667,138.4046700199445L97.95233333333333,138.45206306378046L98.57583333333332,138.6122885942459L98.64833333333334,138.6440441608429L98.88033333333333,138.60353793700534L99.32983333333334,138.8205225865046L99.8035,138.94653087854385L100.01133333333333,138.90955305099487L100.31099999999999,139.05299818515778L100.48016666666666,139.09123029311496L100.6735,139.16522111495334L100.717,139.18379501501718L100.7605,139.16381444533664L101.181,139.39136083920795L101.54833333333333,139.48645170529682L101.587,139.52412700653076L101.72716666666666,139.54447096586227L102.2685,139.59329998493195L102.7615,139.70918611685434L103.21583333333334,139.81942798693973L103.4285,139.7708568572998L103.49616666666667,139.79937122265497L103.559,139.82484952608743L103.8055,139.89633178710938L103.84416666666667,139.92362117767334L103.96983333333333,139.91267259915668L104.03750000000001,139.91509910424548L104.69,139.9275598526001L105.31349999999999,140.0599860747655L105.42466666666667,140.13509051005045L105.42949999999999,140.1400197148323L105.76783333333334,140.3116275469462L105.792,140.27355368932086L105.93216666666667,140.25362000862756L105.97083333333333,140.28153653939563L106.53633333333333,140.43001637856165L106.54116666666667,140.43322241306305L106.91816666666666,140.55600708723068L107.00516666666667,140.5868893464406L107.05833333333332,140.57250028848648L107.18883333333333,140.60262646277744L107.46916666666667,140.7047037879626L107.59966666666666,140.71772134304047L108.07816666666666,140.83040730158487L108.55183333333333,141.07365564505258L108.58083333333333,141.09711772203445L109.32033333333334,141.26757091283798L109.649,141.36814192930856L110.2435,141.5389702320099L110.44166666666668,141.67663043737411L110.55283333333333,141.6697729229927L110.60116666666667,141.6213190158208L110.809,141.7132624586423L111.31166666666667,147.80117030938464L111.505,159.16281735897064L111.70316666666666,158.10722903410593L111.87716666666665,162.47325605154037L112.07050000000001,154.0073849360148L112.114,154.4811278184255L113.47216666666667,160.74049111207324L113.593,162.91131641467413L113.78633333333333,161.7544830441475L113.90716666666667,158.33301709095636L114.31316666666666,162.10208282868066L114.68050000000001,161.97343116998672L115.13000000000001,164.0428590377172L115.25566666666667,164.1638384858767L115.47316666666667,161.87936013936996L116,161.7193397482236L116.14500000000001,161.6062200665474L116.29,162.66380117336908L116.30933333333334,162.0272773106893L116.40116666666665,162.22462133566538L116.4785,161.667791167895L116.52199999999999,161.86079210042953L116.62833333333333,161.8176307876905L116.64766666666667,161.96540143092474L116.77333333333334,162.4197674393654L116.85066666666665,162.20406637589136L117.13583333333332,162.5670574704806L117.305,162.9678235054016L117.34366666666666,163.22119400898615L117.53699999999999,160.8409390449524L117.86083333333333,162.40304565429688L117.9285,162.93367073933283L118.05900000000001,161.4652190208435L118.14116666666666,161.9355390071869L118.43116666666667,163.0877010623614L118.67766666666667,162.54061794281006L119.06433333333334,162.11486593882242L119.161,162.3214412331581L119.364,162.50546292463937L119.60566666666666,162.54007871945697L119.62016666666666,162.4732912182808L119.70233333333333,162.76729102929434L119.83766666666666,162.5950326124827L120.03099999999999,163.1114444732666L120.36449999999999,162.97657416264215L120.38383333333334,163.051502764225L120.93483333333333,162.3234281539917L120.98316666666668,162.56482438246408L121.6695,162.83417230844498L122.21566666666666,163.10146298011145L122.41383333333333,163.3188110192617L122.83916666666666,163.85110652446747L123.08566666666667,164.0749193827311L123.21133333333333,164.04295281569162L124.58883333333333,164.40920269489288L124.64683333333333,164.47486486037573L124.70483333333333,164.49281162023544L124.816,164.52623174587885L124.845,164.47334096829096L125.14466666666667,164.13879390557608L125.27516666666666,164.058959543705L125.41533333333334,164.299593826135L125.773,164.41964721679688L126.59466666666667,165.0161923567454L126.73,165.3753326932589L126.83633333333334,164.87471656004587L126.8605,164.914765616258L127.08766666666666,165.37599500020346L127.484,165.68951235214868L127.658,165.75642879803976L128.39266666666666,165.9224685629209L128.46516666666668,166.0826120376587L128.5473333333333,166.29460301001868L129.38833333333332,166.18678178389868L129.56716666666665,166.5244235197703L129.8475,166.75110832850137L130.181,164.82960935433707L130.5773333333333,165.7388512889544L131.18633333333332,166.2600341041883L131.2685,166.2278741200765L131.457,166.30447900295258L132.11916666666667,166.41421681642532L132.37533333333334,166.42086919148764L132.62183333333334,166.45008689165115L132.81033333333335,166.54379453261694L133.54983333333334,166.84964553515115L133.72866666666667,167.04697783788046L133.76733333333334,166.89812288681665L134.20233333333334,166.69818824529648L134.2651666666667,166.80212354660034L134.39566666666667,166.72532524665198L134.43916666666667,166.76718538999557L134.46816666666666,166.8181302746137L134.51166666666666,166.71134060621262L134.763,166.83996882041296L134.821,166.9205768505732L134.83066666666667,166.91942807038626L134.84033333333332,166.91796865065893L134.91766666666666,166.91422339280447L135.27533333333332,167.05823705593744L135.32366666666667,167.14699790875116L135.43966666666668,166.79112807909647L135.65716666666665,167.05680108070374L135.71033333333332,166.89006970326105L135.78283333333334,166.9418761730194L135.84083333333334,166.9808819492658L135.952,166.54670164982477L136.02450000000002,166.35772730906805L136.155,166.2649046977361L136.26616666666666,166.23241062959036L136.64316666666667,166.1522714893023L136.93316666666666,166.39563119411469L137.10716666666667,166.17189453045526L137.547,166.35516013701758L137.9965,165.81780062119165L138.63933333333333,165.736008644104L139.04533333333333,165.47516520818075L139.83316666666667,164.93220245838165L139.93949999999998,164.9321145415306L139.9685,164.9656987786293L140.17633333333333,164.89232337474823L140.58716666666666,164.7564566731453L140.795,164.4852566321691L141.3025,164.3248962958654L141.5635,164.1366311510404L141.95016666666666,163.9911873737971L142.303,163.50198870897293L142.3175,163.4882267912229L142.40933333333334,163.34277715285617L142.64616666666666,163.23361959060034L142.84916666666666,162.92884703477222L142.96516666666668,162.82905554771423L143.15366666666665,162.68066362539926L143.2455,162.73693041006723L143.33733333333333,162.81545774141946L143.347,162.82345231374103L143.434,162.70996924241385L143.61766666666668,162.56960705916086L144.043,162.49113833904266L144.16866666666667,162.54596328735352L144.18316666666666,162.57081445058188L144.246,162.46537284056345L144.7245,162.03792111078897L145.20783333333335,135.15919601917267L145.2755,144.94381403923035L145.48333333333335,143.60360956192017L145.51233333333334,139.61604114373523L145.92316666666667,140.10394450028735L146.334,143.50821391741434L146.53216666666665,145.34746960798898L146.8415,145.6098486582438L147.01066666666668,145.01087701320648L147.09283333333332,144.7043578426043L147.50850000000003,147.58040523529053L147.90483333333333,146.19879778226215L148.17066666666668,147.03280047575632L148.22383333333335,147.00585689147312L148.69750000000002,149.08673739433289L149.089,149.85058244069415L149.72216666666665,149.166659673055L149.76083333333332,148.37231334050495L150.017,148.74837474028269L150.29733333333334,149.10961335897446L150.44233333333335,148.91570395231247L150.51966666666667,148.2535025080045L150.568,148.03254987796146L150.6115,147.61575367053348L150.85316666666665,148.0877499381701L151.3075,147.6208352645238L151.49116666666666,146.71101307868958L151.61683333333335,146.83412597576776L151.64100000000002,146.97054362297058L151.7715,146.15488038460413L151.89233333333334,145.82863267262775L151.95033333333333,145.83389010032016L152.1388333333333,146.3009219964345L152.82516666666666,147.68319761753082L152.8445,147.83371712764102L152.92183333333332,148.11076070864993L153.0233333333333,148.4892955025037L153.18766666666667,148.45673696200052L153.21666666666667,148.31790453195572L153.3375,147.73639317353565L153.56466666666665,147.10182692607242L153.9755,147.8300011754036L154.76333333333332,147.88710610071817L154.81650000000002,148.0239574710528L155.6575,147.91940089066821L155.72516666666667,148.1167038877805L155.77833333333334,148.42117752631503L155.87016666666665,148.17576056718826L155.98133333333334,148.25719501574832L156.01033333333334,148.26105749607086L156.56616666666667,147.96232775847116L156.69666666666666,147.77242149909335L156.84166666666667,148.12255915006L157.05916666666667,148.37255950768787L157.13166666666666,148.15321282545725L157.3395,148.1062652269999L157.67783333333333,148.12323904037476L157.77933333333334,148.30029771725336L157.963,148.48923103014627L158.08383333333333,148.39942103624344L158.195,148.12609340747196L159.5,147.84839924176532L159.79966666666667,147.59459501504898L160.1525,147.45156602064768L160.15733333333333,147.46800647179285L161.0515,147.23371978600818L161.38016666666667,147.37024879455566L161.63633333333334,147.4256657163302L161.79583333333332,147.60742501417795L161.81516666666667,147.53504014015198L162.0375,147.61932895580927L162.0665,147.53472363948822L162.19216666666668,147.65373961130777L162.29366666666667,147.9229878981908L162.60299999999998,147.756022075812L162.99450000000002,147.9702461361885L163.65666666666667,147.47081981102625L163.7195,147.4737445116043L163.7775,147.56854818264642L163.90316666666666,147.7044734954834L164.1303333333333,147.90348207950592L164.46866666666668,147.8266310294469L164.4735,147.81760489940643L164.546,147.94801489512125L164.71516666666665,147.87923461198807L164.79733333333334,147.90483013788858L164.86983333333333,147.7469666401545L165.13566666666668,147.4731701215108L165.14533333333333,147.45290821790695L165.1695,147.44164899984995L165.445,147.4143771926562L165.58033333333333,147.36864870786667L165.73983333333334,147.46154751380283L165.78333333333333,147.54358565807343L166.12166666666667,147.63859446843463L166.19416666666666,147.707304418087L166.27633333333333,147.5580216050148L166.62433333333334,146.73085884253183L166.73066666666665,146.58019866545993L167.36866666666668,145.44717317819595L167.47983333333335,145.16308452685672L167.71183333333335,144.6759606997172L167.73600000000002,144.60123723745346L168.1903333333333,143.9336142539978L168.2,143.9078487555186L168.22416666666666,143.81337916851044L168.30633333333336,143.62850761413574L168.42716666666666,143.35939999421436L168.61083333333335,143.07073966662088L168.9685,142.73208395640054L169.37449999999998,141.7898732026418L169.78533333333334,141.23713996013004L170.01733333333334,140.79841142892838L170.23,140.77838397026062L170.2976666666667,140.63655650615692L170.4185,140.2572656273842L170.58283333333335,139.97934873898822L170.66983333333334,140.02603258689243L170.67950000000002,140.0533571441968L170.95016666666666,139.88840168714523L171.35616666666667,139.40865701436996L171.41416666666666,139.3162095149358L172.43883333333335,138.30633209149042L172.898,137.92923327287036L173.03816666666668,137.88237945238748L173.1155,137.77272955576578L173.2605,137.61994179089862L173.275,137.62296613057453L173.31366666666668,137.67730460564295L173.68583333333333,137.19669834772745L174.72983333333335,136.75938820838928L174.87966666666665,136.48829952875772L175.2905,136.22274374961853L175.64816666666667,136.28277337551117L176.45533333333336,135.5197840531667L177.14166666666668,134.71934215227762L177.15133333333333,134.72908333937326L177.83283333333333,134.45821738243103L178.04066666666665,134.30253422260284L178.31616666666667,134.11418116092682L179.51,133.428968946139L179.57766666666666,133.33054896195728L179.80483333333333,133.14016795158386L180.09,133.11706340312958L180.18666666666667,132.93778336048126L180.1963333333333,132.93448940912882L180.44283333333334,132.77988469600677L180.74249999999998,132.8457754453023L181.00833333333333,132.50246600310007L181.62699999999998,132.27712925275165L181.888,132.0840755701065L182.05233333333334,132.07094665368396L182.091,132.05807562669116L182.09583333333333,132.05284750461578L182.34716666666668,131.96706410249072L182.51149999999998,131.84681729475656L182.54049999999998,131.8050274848938L182.98033333333333,131.77290852864581L183.2026666666667,131.68995018800098L183.81166666666667,131.0486026207606L183.88416666666666,131.03259003162384L183.918,131.04915356636047L183.94216666666665,131.07257461547852L184.005,130.98149275779724L184.02916666666667,130.99498506387073L184.2225,130.83190516630808L184.22733333333332,130.82886910438538L184.2853333333333,130.76521730422974L184.43033333333335,130.61839616298676L184.44966666666667,130.60899492104846L184.77833333333334,130.52124218146005L184.83633333333333,130.3847131729126L185.18916666666667,130.14361000061035L185.33416666666668,130.07177607218424L186.36366666666666,129.82804711659747L186.40233333333333,129.7592844168345L186.47,129.657289147377L186.67783333333335,129.6194145679474L186.731,129.57212702433267L186.7455,129.55786104996997L186.85183333333333,129.51552029450733L187.02100000000002,129.40090016523996L187.4608333333333,129.24861645698547L187.9345,128.7216076850891L188.471,128.32941647370654L188.732,128.24236706892648L188.86733333333333,128.26790984471637L189.46183333333332,127.86063210169473L189.78083333333333,127.66723847389221L190.07083333333333,127.8299549818039L190.46716666666669,127.6322241226832L190.54933333333335,127.6119094689687L190.64116666666666,127.55974547068277L190.81516666666667,127.55187984307607L191.023,127.49215499560037L191.25016666666667,127.39511823654175L191.3855,127.32771531740823L191.4725,127.28344039122263L191.5305,127.25744044780731L191.96066666666667,126.99374850591022L192.13466666666665,126.98893066247302L192.27,126.94723463058472L192.49716666666666,126.8600914478302L192.60833333333335,126.78322867552438L192.70983333333334,126.71696281433105L192.73883333333333,126.747030377388L192.80650000000003,126.75882295767465L193.3961666666667,126.69657782713571L193.48316666666668,126.61258792877197L193.72,126.4644070068995L193.76833333333335,126.40761272112528L193.8215,126.40249009927113L193.86983333333333,126.36833147207895L193.94233333333332,126.38446128368378L194.91383333333334,126.30086994171143L194.967,126.22329211235046L195.2086666666667,126.17560601234436L195.3875,126.10601103305817L195.8805,125.82792417208353L196.2285,125.82219199339548L196.4025,125.73463853200275L196.5233333333333,125.69602545102435L196.60066666666668,125.70217963059743L196.65383333333335,125.72412367661794L196.76983333333334,125.62757925192514L196.85683333333333,125.59547201792398L196.90033333333335,125.5399671792984L197.32083333333333,125.32900190353394L197.75099999999998,125.36640759309131L197.85250000000002,125.2899082104365L198.28266666666667,125.12120163440704L198.505,125.05600249767303L198.83366666666666,124.93702169259387L199.04633333333334,124.8298334678014L199.4185,124.83549531300862L199.4475,124.85759174823761L200.12416666666667,124.68284821510315L200.37066666666666,124.58933985233307L200.5205,124.4650840361913L200.593,124.48437885443369L200.67033333333333,124.43883792559305L200.78633333333335,124.4230597813924L200.96033333333332,124.35653603076935L200.97966666666665,124.35898598035175L201.06183333333334,124.30145319302876L201.26966666666664,124.28889866669972L201.55966666666666,124.33378314971924L201.56449999999998,124.33229442437488L201.69016666666667,124.26157410939534L202.8695,124.22128474712372L203.11116666666666,124.1188440322876L203.18366666666665,124.13524345556894L203.38666666666668,124.0665510892868L203.41083333333333,124.06934098402658L203.84583333333333,124.07448705037433L204.76416666666665,124.0156882603963L205.06383333333332,124.02119771639505L205.06866666666664,124.00786952177683L205.14600000000002,124.02493711312611L205.31516666666667,123.99288849035898L205.43116666666668,123.99859722455341L205.48916666666668,124.02490194638568L205.50366666666667,124.03209940592447L205.89999999999998,123.86829272905985L205.92899999999997,123.8474622964859L206.02566666666667,123.8114515542984L206.5283333333333,123.7249530951182L206.59116666666668,123.71862308184305L206.66366666666667,123.77689437071481L207.16633333333334,123.65582700570423L207.234,123.65158355236053L207.32583333333332,123.57676045099893L207.50466666666668,123.5203529993693L207.98799999999997,123.33723978201547L208.40366666666668,123.23688562711078L208.58733333333336,123.2163599729538L208.6115,123.23020394643147L208.89666666666668,123.24057813485462L208.95466666666667,123.16154674688974L209.1335,123.13362435499826L209.18183333333334,123.09257304668427L209.57816666666668,122.9719745715459L210.02283333333332,122.80364310741425L210.25,122.68405274550119L210.34183333333334,122.66779398918152L210.453,122.67060732841492L210.5255,122.66209697723389L210.54966666666667,122.61176164944966L211.05233333333334,122.55998448530832L211.86916666666667,122.19293749332428L212.51683333333332,122.01143022378284L212.86966666666666,121.92950344085693L212.98566666666667,121.92629154523212L214.4163333333333,121.23732821146646L214.59033333333332,121.14679729938507L214.6338333333333,121.10093986988068L214.6435,121.09048362572986L214.90449999999998,120.98343606789905L214.94316666666666,120.9865307410558L215.1945,120.94275987148285L215.6585,120.84088182449341L215.96300000000002,120.82101261615753L217.24383333333333,120.25263603528339L217.33083333333332,120.27939792474109L217.33566666666664,120.27869458993274L217.413,120.30229147275287L217.6208333333333,120.1473937034607L217.732,120.12697354952493L218.02200000000002,119.95661413669586L218.24916666666667,119.90266835689545L218.37,119.88070086638132L218.4715,119.92713268597919L219.25933333333333,119.59940210978189L219.588,119.51161420345306L220.16316666666665,119.26019545396167L220.2115,119.24420630931854L220.24533333333332,119.22623610496521L220.34683333333334,119.16175202528635L220.62233333333333,119.15263211727142L221.09116666666665,118.88925667603809L221.33766666666665,118.74669071038562L221.46333333333334,118.72724350293477L221.52616666666668,118.75352478027344L221.61316666666667,118.72744278113046L221.99499999999998,118.63307869434357L222.6281666666667,118.89794286092122L222.7635,118.89716919263202L222.90366666666665,118.82685915629068L222.92783333333335,118.81069417794545L223.27583333333334,118.67391900221506L223.648,118.55445758501688L224.14583333333334,118.43619183699289L224.3295,118.40748405456543L224.33433333333332,118.40945339202881L224.60016666666667,118.31382330258685L224.64366666666666,118.32439676920572L225.00133333333335,118.26109663645425L225.18983333333333,118.18526542186737L225.91483333333335,117.95829927921295L226.05499999999998,117.88863396644592L226.17100000000002,117.82276666164398L226.287,117.73013746738434L226.5335,117.57499353090921L226.61083333333332,117.55664821465808L226.68816666666666,117.54472668965656L226.78483333333335,117.53578261534372L227.27783333333332,117.42022470633188L227.32616666666667,117.41669631004333L227.86749999999998,117.18262648582458L228.06083333333333,117.14753007888794L228.24450000000002,117.0977691411972L228.636,117.0466835896174L228.8535,116.97978472709656L228.88733333333334,116.97477932771046L229.15800000000002,116.99371075630188L229.24983333333333,117.02302809556323L229.74283333333335,116.91807881991068L229.77666666666667,116.92188855012256L229.90716666666665,116.84761639436084L230.5596666666667,116.6451614697774L230.95116666666667,116.61148345470428L231.09616666666668,116.61611374219257L231.25083333333333,116.49805899461109L231.28466666666665,116.47727545102435L231.4006666666667,116.4586136341095L231.49733333333333,116.45214295387268L231.96133333333333,116.266122619311L232.03383333333335,116.26717762152353L232.0435,116.26458700497943L232.12083333333334,116.22818942864734L232.5606666666667,116.06380836168924L233.015,115.9874496459961L233.06333333333333,115.99746044476825L233.30016666666666,115.98698075612386L233.59016666666668,115.86755450566609L234.64383333333333,115.50980325539906L234.73083333333332,115.4865580399831L235.23350000000002,115.40236886342365L235.30116666666666,115.39333101113637L235.44616666666664,115.40578003724416L235.57183333333333,115.41424349943796L235.65883333333332,115.40143108367919L235.7313333333333,115.35562054316202L235.9585,115.32314991950987L236.37900000000002,115.24456397692362L236.54333333333332,115.24347380797067L236.54816666666667,115.23663973808287L236.76566666666668,115.18468674023944L237.02183333333335,115.11870221296945L237.05083333333334,115.11211431026459L237.10883333333334,115.08664186795552L237.23450000000003,115.08630192279814L237.24416666666667,115.08548136552174L237.4085,115.09331182638803L237.61633333333333,115.04502789179483L237.76616666666666,115.0596455335617L237.9885,114.99620473384856L238.34133333333332,114.96092077096301L238.4186666666667,114.94904613494872L238.99866666666668,114.86402467886606L239.1195,114.84208063284555L239.28866666666667,114.76556952794391L239.61733333333333,114.73693207899728L239.95566666666667,114.6953298250834L240.2795,114.62689534823099L240.34716666666665,114.60445896784464L240.60333333333332,114.62779796123503L241.2655,114.6279151837031L241.28483333333332,114.61312170823413L241.2945,114.6122190952301L241.6376666666667,114.50456198056537L242.11616666666666,114.449467420578L242.18866666666665,114.47932398319244L242.4255,114.39204013347626L242.48833333333332,114.38848829269409L242.49316666666664,114.38855862617493L242.63816666666668,114.32854072252908L243.08283333333335,114.35863173007965L243.50333333333333,114.29113503297168L243.6,114.27276627222696L243.90449999999998,114.29163908958435L244.26216666666667,114.3285641670227L244.28633333333335,114.32209348678589L244.33950000000002,114.32232793172199L244.9195,114.33001772562662L245.12249999999997,114.3366290728251L245.34483333333333,114.34579586982726L246.24383333333333,114.22340389092761L247.022,114.21497559547423L247.07999999999998,114.22086016337076L247.36033333333333,114.196817835172L247.43283333333332,114.17248245080312L247.5391666666667,114.1654139359792L247.85333333333335,114.17514340082803L247.88233333333335,114.16815694173177L248.14816666666667,114.14982334772745L248.21583333333334,114.14927240212758L248.2545,114.12692979971567L248.27866666666665,114.12894602616626L248.61216666666667,114.19775561491647L249.09066666666666,114.09958179791768L249.54983333333334,114.1217485666275L249.5885,114.12251051266986L249.7625,114.06380550066629L249.85433333333336,114.04895341396332L249.90266666666668,114.05891732374826L250.42466666666667,114.01812390486398L250.62766666666667,114.03180376688638L251.00466666666668,113.98524300257364L251.70066666666668,113.86363641420999L251.83599999999998,113.86821981271108L252.039,113.85014410813648L252.14049999999997,113.83320546150208L252.44016666666667,113.80965546766916L252.48850000000002,113.79490888118744L252.55133333333333,113.80256350835162L252.59,113.80217667420705L253.1265,113.81406303246814L253.31983333333335,113.8380936384201L253.38266666666667,113.84175097942352L253.52283333333332,113.83090790112811L253.56633333333332,113.82237410545349L253.90466666666669,113.84081319967905L254.70216666666667,113.80643184979755L254.72633333333332,113.81820098559061L254.8375,113.81688809394836L255.28699999999998,113.85185555617014L255.39333333333335,113.86084651947021L256.03616666666665,113.84436504046121L256.3165,113.8534028927485L256.3938333333333,113.83057967821756L256.83366666666666,113.80411084493L256.94966666666664,113.80717035134631L257.14300000000003,113.8361125787099L257.21066666666667,113.86735236644743L257.2735,113.84699082374571L257.375,113.84190336863199L257.38466666666665,113.84331003824869L257.839,113.91044334570566L258.1483333333333,113.93258666992188L258.26916666666665,113.92615115642548L258.2885,113.93019533157349L258.73316666666665,113.93593923250833L258.83466666666664,113.90118277072906L258.9796666666667,113.87909805774689L259.2165,113.86839564641315L259.64666666666665,113.90659844875334L259.69016666666664,113.91407724221546L260.50216666666665,113.97084808349608L260.5215,113.98021415869394L260.5505,113.99628535906473L260.83566666666667,113.99322585264841L261.09183333333334,113.96939452489217L261.10633333333334,113.97101219495136L261.28516666666667,113.98302749792734L261.5606666666667,113.98519611358641L261.6525,113.9751267035802L261.986,113.9869661728541L262.6288333333333,114.03619960943857L262.7545,114.05259903271991L262.86083333333335,114.08142403761545L263.0493333333333,114.06974867979685L263.1895,114.10992081960042L263.2378333333333,114.1163328886032L263.24266666666665,114.1169541676839L263.5423333333333,114.12942663828531L263.552,114.13737432161966L263.88550000000004,114.15841575463611L263.90000000000003,114.15581341584523L263.90483333333333,114.15826336542764L264.1223333333333,114.19668889045715L264.2335,114.1986230611801L264.3301666666667,114.20307751496632L264.886,114.21278353532155L265.08416666666665,114.21583131949106L265.3403333333333,114.2545381784439L265.408,114.25916846593219L265.80916666666667,114.26519370079039L265.8333333333333,114.27314138412476" style="fill: none;" fill="none"></path></g></g></g></g></g></g><g transform="translate(40, 177)" clip-path="url(#clip_1)"><clipPath id="clip_1"><rect width="290" height="23"></rect></clipPath><g><g><line x1="0" y1="0" x2="0" y2="5" style="visibility: inherit;" fill="rgb(0, 0, 0)" stroke="rgb(204, 204, 204)" stroke-width="1px"></line><line x1="24.166666666666664" y1="0" x2="24.166666666666664" y2="5" style="visibility: inherit;" fill="rgb(0, 0, 0)" stroke="rgb(204, 204, 204)" stroke-width="1px"></line><line x1="48.33333333333333" y1="0" x2="48.33333333333333" y2="5" style="visibility: inherit;" fill="rgb(0, 0, 0)" stroke="rgb(204, 204, 204)" stroke-width="1px"></line><line x1="72.5" y1="0" x2="72.5" y2="5" style="visibility: inherit;" fill="rgb(0, 0, 0)" stroke="rgb(204, 204, 204)" stroke-width="1px"></line><line x1="96.66666666666666" y1="0" x2="96.66666666666666" y2="5" style="visibility: inherit;" fill="rgb(0, 0, 0)" stroke="rgb(204, 204, 204)" stroke-width="1px"></line><line x1="120.83333333333334" y1="0" x2="120.83333333333334" y2="5" style="visibility: inherit;" fill="rgb(0, 0, 0)" stroke="rgb(204, 204, 204)" stroke-width="1px"></line><line x1="145" y1="0" x2="145" y2="5" style="visibility: inherit;" fill="rgb(0, 0, 0)" stroke="rgb(204, 204, 204)" stroke-width="1px"></line><line x1="169.16666666666669" y1="0" x2="169.16666666666669" y2="5" style="visibility: inherit;" fill="rgb(0, 0, 0)" stroke="rgb(204, 204, 204)" stroke-width="1px"></line><line x1="193.33333333333331" y1="0" x2="193.33333333333331" y2="5" style="visibility: inherit;" fill="rgb(0, 0, 0)" stroke="rgb(204, 204, 204)" stroke-width="1px"></line><line x1="217.5" y1="0" x2="217.5" y2="5" style="visibility: inherit;" fill="rgb(0, 0, 0)" stroke="rgb(204, 204, 204)" stroke-width="1px"></line><line x1="241.66666666666669" y1="0" x2="241.66666666666669" y2="5" style="visibility: inherit;" fill="rgb(0, 0, 0)" stroke="rgb(204, 204, 204)" stroke-width="1px"></line><line x1="265.8333333333333" y1="0" x2="265.8333333333333" y2="5" style="visibility: inherit;" fill="rgb(0, 0, 0)" stroke="rgb(204, 204, 204)" stroke-width="1px"></line><line x1="290" y1="0" x2="290" y2="5" style="visibility: inherit;" fill="rgb(0, 0, 0)" stroke="rgb(204, 204, 204)" stroke-width="1px"></line></g><g transform="translate(0, 8)"><text x="0" y="0" dx="0em" dy="0.95em" style="text-anchor: middle; visibility: hidden; font-family: &quot;Helvetica Neue&quot;, sans-serif; font-size: 12px; font-weight: 200;" fill="rgb(33, 33, 33)" stroke="none" stroke-width="1px">-5k</text><text x="24.166666666666664" y="0" dx="0em" dy="0.95em" style="text-anchor: middle; visibility: inherit; font-family: &quot;Helvetica Neue&quot;, sans-serif; font-size: 12px; font-weight: 200;" fill="rgb(33, 33, 33)" stroke="none" stroke-width="1px">0</text><text x="48.33333333333333" y="0" dx="0em" dy="0.95em" style="text-anchor: middle; visibility: hidden; font-family: &quot;Helvetica Neue&quot;, sans-serif; font-size: 12px; font-weight: 200;" fill="rgb(33, 33, 33)" stroke="none" stroke-width="1px">5k</text><text x="72.5" y="0" dx="0em" dy="0.95em" style="text-anchor: middle; visibility: inherit; font-family: &quot;Helvetica Neue&quot;, sans-serif; font-size: 12px; font-weight: 200;" fill="rgb(33, 33, 33)" stroke="none" stroke-width="1px">10k</text><text x="96.66666666666666" y="0" dx="0em" dy="0.95em" style="text-anchor: middle; visibility: hidden; font-family: &quot;Helvetica Neue&quot;, sans-serif; font-size: 12px; font-weight: 200;" fill="rgb(33, 33, 33)" stroke="none" stroke-width="1px">15k</text><text x="120.83333333333334" y="0" dx="0em" dy="0.95em" style="text-anchor: middle; visibility: inherit; font-family: &quot;Helvetica Neue&quot;, sans-serif; font-size: 12px; font-weight: 200;" fill="rgb(33, 33, 33)" stroke="none" stroke-width="1px">20k</text><text x="145" y="0" dx="0em" dy="0.95em" style="text-anchor: middle; visibility: hidden; font-family: &quot;Helvetica Neue&quot;, sans-serif; font-size: 12px; font-weight: 200;" fill="rgb(33, 33, 33)" stroke="none" stroke-width="1px">25k</text><text x="169.16666666666669" y="0" dx="0em" dy="0.95em" style="text-anchor: middle; visibility: inherit; font-family: &quot;Helvetica Neue&quot;, sans-serif; font-size: 12px; font-weight: 200;" fill="rgb(33, 33, 33)" stroke="none" stroke-width="1px">30k</text><text x="193.33333333333331" y="0" dx="0em" dy="0.95em" style="text-anchor: middle; visibility: hidden; font-family: &quot;Helvetica Neue&quot;, sans-serif; font-size: 12px; font-weight: 200;" fill="rgb(33, 33, 33)" stroke="none" stroke-width="1px">35k</text><text x="217.5" y="0" dx="0em" dy="0.95em" style="text-anchor: middle; visibility: inherit; font-family: &quot;Helvetica Neue&quot;, sans-serif; font-size: 12px; font-weight: 200;" fill="rgb(33, 33, 33)" stroke="none" stroke-width="1px">40k</text><text x="241.66666666666669" y="0" dx="0em" dy="0.95em" style="text-anchor: middle; visibility: hidden; font-family: &quot;Helvetica Neue&quot;, sans-serif; font-size: 12px; font-weight: 200;" fill="rgb(33, 33, 33)" stroke="none" stroke-width="1px">45k</text><text x="265.8333333333333" y="0" dx="0em" dy="0.95em" style="text-anchor: middle; visibility: inherit; font-family: &quot;Helvetica Neue&quot;, sans-serif; font-size: 12px; font-weight: 200;" fill="rgb(33, 33, 33)" stroke="none" stroke-width="1px">50k</text><text x="290" y="0" dx="0em" dy="0.95em" style="text-anchor: middle; visibility: hidden; font-family: &quot;Helvetica Neue&quot;, sans-serif; font-size: 12px; font-weight: 200;" fill="rgb(33, 33, 33)" stroke="none" stroke-width="1px">55k</text></g><line x1="0" y1="0" x2="290" y2="0" fill="rgb(0, 0, 0)" stroke="rgb(204, 204, 204)" stroke-width="1px"></line></g></g></g></g></svg>