<svg viewBox="0 0 330 200" xmlns="http://www.w3.org/2000/svg"><g><g><g><g><g><line x1="40" y1="177" x2="35" y2="177" style="visibility: inherit;" fill="rgb(0, 0, 0)" stroke="rgb(204, 204, 204)" stroke-width="1px"></line><line x1="40" y1="154.875" x2="35" y2="154.875" style="visibility: inherit;" fill="rgb(0, 0, 0)" stroke="rgb(204, 204, 204)" stroke-width="1px"></line><line x1="40" y1="132.75" x2="35" y2="132.75" style="visibility: inherit;" fill="rgb(0, 0, 0)" stroke="rgb(204, 204, 204)" stroke-width="1px"></line><line x1="40" y1="110.62500000000001" x2="35" y2="110.62500000000001" style="visibility: inherit;" fill="rgb(0, 0, 0)" stroke="rgb(204, 204, 204)" stroke-width="1px"></line><line x1="40" y1="88.49999999999999" x2="35" y2="88.49999999999999" style="visibility: inherit;" fill="rgb(0, 0, 0)" stroke="rgb(204, 204, 204)" stroke-width="1px"></line><line x1="40" y1="66.375" x2="35" y2="66.375" style="visibility: inherit;" fill="rgb(0, 0, 0)" stroke="rgb(204, 204, 204)" stroke-width="1px"></line><line x1="40" y1="44.25" x2="35" y2="44.25" style="visibility: inherit;" fill="rgb(0, 0, 0)" stroke="rgb(204, 204, 204)" stroke-width="1px"></line><line x1="40" y1="22.12499999999997" x2="35" y2="22.12499999999997" style="visibility: inherit;" fill="rgb(0, 0, 0)" stroke="rgb(204, 204, 204)" stroke-width="1px"></line><line x1="40" y1="0" x2="35" y2="0" style="visibility: inherit;" fill="rgb(0, 0, 0)" stroke="rgb(204, 204, 204)" stroke-width="1px"></line></g><g transform="translate(30, 0)"><text x="0" y="177" dx="0em" dy="0.3em" style="text-anchor: end; visibility: hidden; font-family: &quot;Helvetica Neue&quot;, sans-serif; font-size: 12px; font-weight: 200;" fill="rgb(33, 33, 33)" stroke="none" stroke-width="1px">0.4</text><text x="0" y="154.875" dx="0em" dy="0.3em" style="text-anchor: end; visibility: inherit; font-family: &quot;Helvetica Neue&quot;, sans-serif; font-size: 12px; font-weight: 200;" fill="rgb(33, 33, 33)" stroke="none" stroke-width="1px">0.5</text><text x="0" y="132.75" dx="0em" dy="0.3em" style="text-anchor: end; visibility: hidden; font-family: &quot;Helvetica Neue&quot;, sans-serif; font-size: 12px; font-weight: 200;" fill="rgb(33, 33, 33)" stroke="none" stroke-width="1px">0.6</text><text x="0" y="110.62500000000001" dx="0em" dy="0.3em" style="text-anchor: end; visibility: inherit; font-family: &quot;Helvetica Neue&quot;, sans-serif; font-size: 12px; font-weight: 200;" fill="rgb(33, 33, 33)" stroke="none" stroke-width="1px">0.7</text><text x="0" y="88.49999999999999" dx="0em" dy="0.3em" style="text-anchor: end; visibility: hidden; font-family: &quot;Helvetica Neue&quot;, sans-serif; font-size: 12px; font-weight: 200;" fill="rgb(33, 33, 33)" stroke="none" stroke-width="1px">0.8</text><text x="0" y="66.375" dx="0em" dy="0.3em" style="text-anchor: end; visibility: inherit; font-family: &quot;Helvetica Neue&quot;, sans-serif; font-size: 12px; font-weight: 200;" fill="rgb(33, 33, 33)" stroke="none" stroke-width="1px">0.9</text><text x="0" y="44.25" dx="0em" dy="0.3em" style="text-anchor: end; visibility: hidden; font-family: &quot;Helvetica Neue&quot;, sans-serif; font-size: 12px; font-weight: 200;" fill="rgb(33, 33, 33)" stroke="none" stroke-width="1px">1</text><text x="0" y="22.12499999999997" dx="0em" dy="0.3em" style="text-anchor: end; visibility: inherit; font-family: &quot;Helvetica Neue&quot;, sans-serif; font-size: 12px; font-weight: 200;" fill="rgb(33, 33, 33)" stroke="none" stroke-width="1px">1.1</text><text x="0" y="0" dx="0em" dy="0.3em" style="text-anchor: end; visibility: hidden; font-family: &quot;Helvetica Neue&quot;, sans-serif; font-size: 12px; font-weight: 200;" fill="rgb(33, 33, 33)" stroke="none" stroke-width="1px">1.2</text></g><line x1="40" y1="0" x2="40" y2="177" fill="rgb(0, 0, 0)" stroke="rgb(204, 204, 204)" stroke-width="1px"></line></g></g><g transform="translate(40, 0)" clip-path="url(#clip_0)"><clipPath id="clip_0"><rect width="290" height="177"></rect></clipPath><g><g><g><line x1="0" y1="0" x2="0" y2="177" fill="rgb(0, 0, 0)" stroke="rgb(66, 66, 66)" stroke-width="1px" opacity="0.25"></line><line x1="24.166666666666664" y1="0" x2="24.166666666666664" y2="177" fill="rgb(0, 0, 0)" stroke="rgb(66, 66, 66)" stroke-width="1px" opacity="0.25"></line><line x1="48.33333333333333" y1="0" x2="48.33333333333333" y2="177" fill="rgb(0, 0, 0)" stroke="rgb(66, 66, 66)" stroke-width="1px" opacity="0.25"></line><line x1="72.5" y1="0" x2="72.5" y2="177" fill="rgb(0, 0, 0)" stroke="rgb(66, 66, 66)" stroke-width="1px" opacity="0.25"></line><line x1="96.66666666666666" y1="0" x2="96.66666666666666" y2="177" fill="rgb(0, 0, 0)" stroke="rgb(66, 66, 66)" stroke-width="1px" opacity="0.25"></line><line x1="120.83333333333334" y1="0" x2="120.83333333333334" y2="177" fill="rgb(0, 0, 0)" stroke="rgb(66, 66, 66)" stroke-width="1px" opacity="0.25"></line><line x1="145" y1="0" x2="145" y2="177" fill="rgb(0, 0, 0)" stroke="rgb(66, 66, 66)" stroke-width="1px" opacity="0.25"></line><line x1="169.16666666666669" y1="0" x2="169.16666666666669" y2="177" fill="rgb(0, 0, 0)" stroke="rgb(66, 66, 66)" stroke-width="1px" opacity="0.25"></line><line x1="193.33333333333331" y1="0" x2="193.33333333333331" y2="177" fill="rgb(0, 0, 0)" stroke="rgb(66, 66, 66)" stroke-width="1px" opacity="0.25"></line><line x1="217.5" y1="0" x2="217.5" y2="177" fill="rgb(0, 0, 0)" stroke="rgb(66, 66, 66)" stroke-width="1px" opacity="0.25"></line><line x1="241.66666666666669" y1="0" x2="241.66666666666669" y2="177" fill="rgb(0, 0, 0)" stroke="rgb(66, 66, 66)" stroke-width="1px" opacity="0.25"></line><line x1="265.8333333333333" y1="0" x2="265.8333333333333" y2="177" fill="rgb(0, 0, 0)" stroke="rgb(66, 66, 66)" stroke-width="1px" opacity="0.25"></line><line x1="290" y1="0" x2="290" y2="177" fill="rgb(0, 0, 0)" stroke="rgb(66, 66, 66)" stroke-width="1px" opacity="0.25"></line></g><g><line x1="0" y1="177" x2="290" y2="177" fill="rgb(0, 0, 0)" stroke="rgb(66, 66, 66)" stroke-width="1px" opacity="0.25"></line><line x1="0" y1="154.875" x2="290" y2="154.875" fill="rgb(0, 0, 0)" stroke="rgb(66, 66, 66)" stroke-width="1px" opacity="0.25"></line><line x1="0" y1="132.75" x2="290" y2="132.75" fill="rgb(0, 0, 0)" stroke="rgb(66, 66, 66)" stroke-width="1px" opacity="0.25"></line><line x1="0" y1="110.62500000000001" x2="290" y2="110.62500000000001" fill="rgb(0, 0, 0)" stroke="rgb(66, 66, 66)" stroke-width="1px" opacity="0.25"></line><line x1="0" y1="88.49999999999999" x2="290" y2="88.49999999999999" fill="rgb(0, 0, 0)" stroke="rgb(66, 66, 66)" stroke-width="1px" opacity="0.25"></line><line x1="0" y1="66.375" x2="290" y2="66.375" fill="rgb(0, 0, 0)" stroke="rgb(66, 66, 66)" stroke-width="1px" opacity="0.25"></line><line x1="0" y1="44.25" x2="290" y2="44.25" fill="rgb(0, 0, 0)" stroke="rgb(66, 66, 66)" stroke-width="1px" opacity="0.25"></line><line x1="0" y1="22.12499999999997" x2="290" y2="22.12499999999997" fill="rgb(0, 0, 0)" stroke="rgb(66, 66, 66)" stroke-width="1px" opacity="0.25"></line><line x1="0" y1="0" x2="290" y2="0" fill="rgb(0, 0, 0)" stroke="rgb(66, 66, 66)" stroke-width="1px" opacity="0.25"></line></g></g></g><g><g><line x1="0" y1="265.5" x2="290" y2="265.5" fill="rgb(0, 0, 0)" stroke="rgb(153, 153, 153)" stroke-width="1.5px"></line></g></g><g><g><line x1="24.166666666666664" y1="0" x2="24.166666666666664" y2="177" fill="rgb(0, 0, 0)" stroke="rgb(153, 153, 153)" stroke-width="1.5px"></line></g></g><g><g><g><g><g><path stroke="rgb(255, 112, 67)" stroke-width="2px" d="M24.171499999999998,11.821632117033005L25.060833333333335,77.49186854995786L25.1865,105.81167292321216L25.442666666666664,113.17394999343465L25.481333333333332,115.24216739996743L25.5345,115.20484605384138L25.998499999999996,106.69342223512679L26.114500000000003,103.0107883719974L26.3465,104.72226930350548L26.646166666666666,109.88412400683387L26.675166666666666,112.84287337571037L26.7525,114.98560290562267L27.153666666666666,114.01497311355902L27.917333333333332,108.52421660038388L27.999499999999998,105.60030094262753L28.038166666666665,104.10306375435756L28.221833333333333,103.76323522738073L28.5505,100.85400592355364L28.5795,99.15767583772734L28.729333333333333,96.46587907672422L28.913,94.9564931466701L28.995166666666666,94.16467154150322L29.439833333333336,94.72877063469154L29.961833333333335,89.05658212843558L30.1165,85.24133306587566L30.445166666666665,83.01324365252815L30.483833333333333,81.79511195746231L30.599833333333333,81.51902437140009L30.851166666666664,82.13865256448308L31.107333333333333,82.77679107670967L31.208833333333335,83.414641787289L31.474666666666664,83.21819809880758L31.498833333333334,83.05553649964182L31.503666666666668,82.93609044866616L31.909666666666666,81.97832117172797L31.99666666666667,81.56564465748424L32.818333333333335,81.11496664952767L33.108333333333334,81.49046912852201L33.37416666666667,82.18733550503109L34.244166666666665,84.48563280051762L34.964333333333336,83.58045753374108L34.988499999999995,83.05602063829939L35.317166666666665,82.35256908572414L35.699,82.50297400499028L35.73283333333333,82.58798942056967L36.29833333333334,84.46816150610057L36.41916666666666,86.12924132510925L36.743,87.13934576969567L36.858999999999995,87.93901716746704L37.03783333333333,88.72199071692754L37.207,89.64049893765497L37.410000000000004,89.41586601822816L38.197833333333335,89.17700502329568L38.719833333333334,89.1886946264118L38.73916666666667,89.23903205413882L38.8165,89.25724968564073L38.83583333333333,89.33117972166276L39.03883333333333,89.55126946181618L39.10166666666667,89.75794361240008L39.7735,90.87693651441545L40.150499999999994,91.66766883089433L40.3245,91.63915701600486L40.401833333333336,91.6153981381212L40.691833333333335,91.65478439888682L41.107499999999995,91.56962432719067L41.30566666666667,91.61381608400815L41.47,91.6683994719629L41.484500000000004,91.71878386671807L41.55216666666667,91.67284861883797L41.653666666666666,91.63076536465452L41.706833333333336,91.6153269327209L41.76,91.53346917131697L41.847,91.40998213350267L41.90983333333333,91.32661644136604L42.27233333333333,91.39252594420729L42.2965,91.39858060067544L42.567166666666665,91.0766397117713L42.63483333333333,90.68559896344773L43.00216666666666,89.98589261409542L43.25833333333333,89.43007374427853L43.408166666666666,89.01612267865026L43.79483333333333,87.8827317832308L43.84316666666667,87.11596551408748L43.867333333333335,86.65872260850895L43.988166666666665,86.30431274725332L44.1235,85.91830886693796L44.254000000000005,85.62767388994692L44.379666666666665,85.40600242957589L44.727666666666664,85.08810514059734L44.81466666666667,84.86019376425192L45.153,84.61388495867398L45.18683333333333,84.42061852994527L45.501000000000005,84.03958409180025L45.56866666666667,83.77147469609845L46.013333333333335,83.29323274308365L46.076166666666666,82.98121016868305L46.1825,82.61786927967282L46.404833333333336,82.24439434521801L46.6175,81.92782789059524L46.65133333333333,81.76069189064529L47.1395,81.74474189253347L47.81616666666667,82.07119537336644L48.16416666666667,82.1430097516955L49.05833333333333,82.97430635670311L49.11633333333333,83.46349434959582L49.57066666666667,83.440411531375L50.0975,83.41515199151405L50.440666666666665,83.46235744837982L51.42666666666667,83.8167766313795L51.52333333333333,84.00342761165165L51.7505,84.2366485040561L52.867,85.18425380833004L52.92016666666667,85.83559773950013L52.929833333333335,86.24345293395659L53.00716666666666,86.5644954607066L53.14733333333333,86.82770589978553L53.39866666666667,87.22175220841801L53.476,87.50524891730926L53.505,87.72356054375638L54.1285,88.00798704141421L54.59733333333333,88.35472808429027L54.98883333333333,88.89862738936203L55.216,89.4387104206625L55.332,89.83534439166448L55.38516666666667,90.1199031219486L56.37116666666667,90.88236272606873L56.40983333333333,91.36638761921897L56.75300000000001,91.71895801045997L56.767500000000005,91.94687387954296L56.9705,92.23312776452958L57.12516666666667,92.49615888694919L57.26533333333334,92.6934979432821L57.42966666666667,92.91433681690691L58.19333333333333,93.48014537479875L58.705666666666666,94.11557973019121L58.768499999999996,94.53409774656201L58.778166666666664,94.79032004210416L59.0585,95.24390614827314L59.16966666666667,95.60550617456339L59.25183333333334,95.88177841472566L59.2615,96.0564934525963L59.319500000000005,96.23580035651183L59.445166666666665,96.41488199880395L60.04933333333334,97.1978067007701L60.349000000000004,97.97678794545175L60.353833333333334,98.45261670996095L60.532666666666664,98.78170138507691L60.697,99.17524545138839L60.909666666666666,99.68927002397635L61.06916666666667,100.05991934804594L61.51383333333334,100.49484968822284L62.0165,101.12737439656904L62.47566666666667,101.75512596717267L62.52883333333334,102.17917288393252L63.10883333333334,102.81864519149347L63.22,103.27171607154777L63.244166666666665,103.55799102984767L63.47616666666667,103.83688092948736L63.751666666666665,104.07622932029808L63.89666666666666,104.28461549063351L64.7135,104.88506811487571L64.82466666666667,105.36228668467936L64.8295,105.65519576535664L64.83433333333333,105.83663822571063L64.94550000000001,105.9995725653149L64.95516666666667,106.10949206957683L65.07116666666667,106.20332748061098L65.65599999999999,106.63654409268902L66.02333333333333,107.2270431781972L66.15383333333334,107.71403553278233L66.45349999999999,108.12563609594693L67.96633333333334,109.57302015134445L68.25633333333333,110.74865667884798L68.31433333333334,111.53082693138867L68.324,112.00427524160831L68.72516666666667,112.37656351275139L68.8315,112.6850698789769L68.85566666666666,112.898205107499L70.51350000000001,114.16929191711475L71.06933333333333,115.17444681145507L71.4995,116.06530742655849L71.62033333333333,116.71448671108874L71.688,117.1727751510524L71.76533333333333,117.50738749010463L72.07466666666666,117.72854281129301L72.12783333333333,117.89781820572532L72.35016666666667,118.16181158302496L72.55799999999999,118.42056469487113L73.0945,118.89702781061507L73.54883333333333,119.53669012200939L74.33183333333334,120.21654222972458L74.46233333333333,120.64239908198871L74.68466666666667,120.97857866251681L74.88283333333332,121.29212192037234L74.96983333333334,121.4568268259676L75.00366666666666,121.58091707231473L75.16316666666667,121.78802719832582L75.255,122.00246431303694L75.65616666666668,122.24777817650245L75.94133333333335,122.55104352190259L76.46816666666666,122.98537508341172L77.06266666666666,123.51905606801807L77.07716666666666,123.84894957909285L77.46866666666666,124.21449916225252L78.0245,124.79490869439587L78.15983333333334,125.20793682454197L78.20816666666667,125.50203137468202L78.39183333333332,125.7681896678859L78.5175,125.97417286588274L78.58516666666667,126.15060784550622L78.9235,126.34055778462955L78.938,126.45479149865669L79.01050000000001,126.50141933111883L79.07333333333334,126.52988660662493L79.20866666666667,126.61947199898432L79.42616666666666,126.7935884368269L79.52766666666666,126.94147691558886L79.547,127.00061719078474L79.97716666666666,127.27580840860995L80.243,127.46443386361116L80.51366666666667,127.74246905735205L80.562,127.9337134748165L80.74083333333333,128.10044008430623L81.08883333333334,128.3182459469842L81.24833333333333,128.53331381655974L82.0555,128.98222065912034L82.15216666666666,129.20343556372137L82.44216666666667,129.4491816184986L82.65483333333333,129.6925078524392L83.29766666666667,129.9740186270023L85.39533333333333,130.53609804129272L85.55,130.93288473973078L85.85449999999999,131.14943471365808L85.93183333333333,131.2716737318852L86.09616666666666,131.39458642177692L86.391,131.4976367221648L86.53116666666666,131.5807673970684L87.087,131.77598290680794L87.15466666666666,131.89993807696672L87.19816666666668,131.97472790493592L87.34800000000001,132.0359490610005L88.276,132.23311066608676L88.59016666666666,132.4694782017532L89.17983333333333,132.72016440146342L89.43116666666667,132.90323371477828L89.60516666666666,133.03611655108872L89.75016666666667,133.15269748015848L89.99183333333333,133.25641665842323L90.10783333333333,133.37185720197076L90.20933333333333,133.48924017901248L90.34466666666667,133.6382307049932L90.40750000000001,133.6821544252218L90.41716666666667,133.7118319143284L90.55733333333335,133.75961629566123L91.01166666666667,133.85133385668144L91.15666666666667,133.92178325062955L91.26783333333333,133.9794400942681L91.37899999999999,134.01867621018636L91.73183333333334,134.0629222981581L92.133,134.1240054483681L92.29249999999999,134.1707622596901L92.39883333333333,134.209740894394L92.568,134.2917176230889L92.69366666666666,134.3780502882088L92.70816666666666,134.42493885198144L92.7855,134.454079517358L92.80966666666667,134.48017273463813L93.061,134.47711292575602L93.89716666666666,134.5829663912702L94.43366666666667,134.65490793825677L95.07166666666666,134.77160652066166L95.178,134.82756249061165L95.20216666666666,134.85914739341104L95.207,134.87848868590928L95.40516666666667,134.93371252788506L95.7145,134.954418907007L96.106,135.05530467000034L96.25583333333334,135.1380280993368L96.88416666666667,135.30514720332536L96.9615,135.44036561400839L97.1935,135.4805678495833L97.36749999999999,135.50925207549744L97.37233333333333,135.52616193541536L97.40133333333333,135.5236214497605L97.614,135.55229659670107L97.79766666666667,135.5124207901568L97.95233333333333,135.505406991697L98.57583333333332,135.55027214053672L98.64833333333334,135.58570509769558L98.88033333333333,135.56467510830186L99.32983333333334,135.65976229054226L99.8035,135.76119326795634L100.01133333333333,135.79879960564074L100.31099999999999,135.88974865166722L100.48016666666666,135.93895339303242L100.6735,135.9996146281542L100.717,136.04901954650768L100.7605,136.05179686617788L101.181,136.1352101044174L101.54833333333333,136.2420962915609L101.587,136.31667252575096L101.72716666666666,136.37936385390003L102.2685,136.40096899221444L102.7615,136.44798754662338L103.21583333333334,136.47278574711123L103.4285,136.45680057767652L103.49616666666667,136.46011215307487L103.559,136.45964621816978L103.8055,136.48747191616835L103.84416666666667,136.5130715536412L103.96983333333333,136.52095137043813L104.03750000000001,136.52349540593636L104.69,136.48348111511714L105.31349999999999,136.49829134703543L105.42466666666667,136.54259391046085L105.42949999999999,136.57189207921334L105.76783333333334,136.6678312698001L105.792,136.71075135344233L105.93216666666667,136.7284537367461L105.97083333333333,136.75561760142077L106.53633333333333,136.79458264276164L106.54116666666667,136.8199028716372L106.91816666666666,136.86385436927597L107.00516666666667,136.9037451212127L107.05833333333332,136.92664039519542L107.18883333333333,136.95170828334759L107.46916666666667,137.00610587377707L107.59966666666666,137.02687037813286L108.07816666666666,137.08607095377218L108.55183333333333,137.22506064114913L108.58083333333333,137.32193210684025L109.32033333333334,137.42586845733385L109.649,137.51359779583012L110.2435,137.64366201130505L110.44166666666668,137.7838718209741L110.55283333333333,137.84456610763533L110.60116666666667,137.8639760439662L110.809,137.91574373990701L111.31166666666667,138.26937128395085L111.505,144.13891804987338L111.70316666666666,148.87165149911732L111.87716666666665,151.4772973529368L112.07050000000001,146.13748888801751L112.114,142.9386730946971L113.47216666666667,146.72366980659203L113.593,149.8430636879637L113.78633333333333,151.52047410946096L113.90716666666667,151.08662079179885L114.31316666666666,152.57522816899183L114.68050000000001,153.23082192208028L115.13000000000001,154.51597945669687L115.25566666666667,155.5621552543604L115.47316666666667,154.66356001953864L116,154.20261019266002L116.14500000000001,154.05880704996795L116.29,154.36470641182547L116.30933333333334,154.30418181709462L116.40116666666665,154.33044451649198L116.4785,154.04055217012888L116.52199999999999,153.8698767191477L116.62833333333333,153.59434031047272L116.64766666666667,153.53623834012654L116.77333333333334,153.6825210378093L116.85066666666665,153.59542403969303L117.13583333333332,153.48398021670064L117.305,153.58206879384446L117.34366666666666,153.82907630972343L117.53699999999999,152.95819615705176L117.86083333333333,153.34058566321949L117.9285,153.82988751190913L118.05900000000001,153.59367816005954L118.14116666666666,153.74275335881L118.43116666666667,154.43553578086426L118.67766666666667,154.30250649587947L119.06433333333334,153.99533067307854L119.161,153.97025666333428L119.364,153.9952706914973L119.60566666666666,153.99807800780724L119.62016666666666,153.98950777608746L119.70233333333333,154.0781975338375L119.83766666666666,154.0531776994178L120.03099999999999,154.2948689371174L120.36449999999999,154.35199144541178L120.38383333333334,154.34149593149994L120.93483333333333,154.0308357598506L120.98316666666668,154.01028072965877L121.6695,154.0536201782986L122.21566666666666,154.2370776526907L122.41383333333333,154.46538623528355L122.83916666666666,154.93385571751995L123.08566666666667,155.20347217031718L123.21133333333333,155.44686756317856L124.58883333333333,155.78041297963287L124.64683333333333,155.90547682208435L124.70483333333333,155.95468867339264L124.816,156.06295587430935L124.845,156.12859403378093L125.14466666666667,156.036199240603L125.27516666666666,155.90737904829857L125.41533333333334,156.02680000795766L125.773,156.27113798340466L126.59466666666667,156.72290543365662L126.73,157.13465572385897L126.83633333333334,157.18986429565496L126.8605,157.25838740046828L127.08766666666666,157.55346403346067L127.484,157.87327555016043L127.658,158.06285464284042L128.39266666666666,158.23055754910243L128.46516666666668,158.39267273432213L128.5473333333333,158.61488575748325L129.38833333333332,158.69801129109692L129.56716666666665,158.93597240571398L129.8475,159.1929293264402L130.181,158.4985361867817L130.5773333333333,158.4422679587407L131.18633333333332,158.70707264806052L131.2685,158.89045525053274L131.457,159.01849106227831L132.11916666666667,159.216975404474L132.37533333333334,159.2990275196152L132.62183333333334,159.43834279012185L132.81033333333335,159.60547494013014L133.54983333333334,159.8768966890508L133.72866666666667,160.1596507398566L133.76733333333334,160.26818689216856L134.20233333333334,160.11641859119942L134.2651666666667,160.07350263658648L134.39566666666667,159.96659965612582L134.43916666666667,159.94205210088546L134.46816666666666,159.94835767435345L134.51166666666666,159.92474524848052L134.763,159.928077642157L134.821,159.99356711151262L134.83066666666667,160.00392999495304L134.84033333333332,160.0140222206428L134.91766666666666,160.04927474228825L135.27533333333332,160.14124855380228L135.32366666666667,160.22009126532657L135.43966666666668,160.13859167211405L135.65716666666665,160.1889438868353L135.71033333333332,160.14100065176422L135.78283333333334,160.1033173045202L135.84083333333334,160.09881377164626L135.952,159.87275977101388L136.02450000000002,159.67354502479114L136.155,159.49868658602165L136.26616666666666,159.38694829595045L136.64316666666667,159.32465546936962L136.93316666666666,159.40980245537264L137.10716666666667,159.36952745536985L137.547,159.3561313904525L137.9965,159.12164016408929L138.63933333333333,158.9321199258757L139.04533333333333,158.67821645144178L139.83316666666667,158.3090793246243L139.93949999999998,158.0835300150045L139.9685,157.97450954690743L140.17633333333333,157.82858213469487L140.58716666666666,157.7405693989104L140.795,157.56508873767294L141.3025,157.34068267861986L141.5635,157.06286733043183L141.95016666666666,156.79930254335397L142.303,156.44882885524748L142.3175,156.23756612783143L142.40933333333334,156.03236116436406L142.64616666666666,155.8675576863723L142.84916666666666,155.64554892885906L142.96516666666668,155.47812995259895L143.15366666666665,155.3174669530686L143.2455,155.25900175790167L143.33733333333333,155.18907855522738L143.347,155.15409556074206L143.434,155.0969112756447L143.61766666666668,155.027031304991L144.043,154.9258121982549L144.16866666666667,154.91405393691866L144.18316666666666,154.92309303886896L144.246,154.78376492146973L144.7245,154.54212871959402L145.20783333333335,145.47690811616536L145.2755,144.5836536876104L145.48333333333335,143.05350914548288L145.51233333333334,138.85887039870292L145.92316666666667,136.97815853458803L146.334,135.83929744423725L146.53216666666665,135.42265369928657L146.8415,135.41595096252428L147.01066666666668,135.04540572680276L147.09283333333332,134.54734320710446L147.50850000000003,136.16652609271017L147.90483333333333,136.76236008621578L148.17066666666668,137.36382446895433L148.22383333333335,137.6259232414388L148.69750000000002,138.82973414973162L149.089,140.0636545676931L149.72216666666665,140.40285277717973L149.76083333333332,140.30462524505654L150.017,140.45713754422783L150.29733333333334,140.24656086520744L150.44233333333335,140.18656394694085L150.51966666666667,139.93514489420556L150.568,139.4562141495246L150.6115,138.90409762247194L150.85316666666665,138.84108839383L151.3075,138.35628369420928L151.49116666666666,137.76129121166565L151.61683333333335,137.51565648068248L151.64100000000002,137.47048425644192L151.7715,137.00031164270374L151.89233333333334,136.65768787253936L151.95033333333333,136.39600859277868L152.1388333333333,136.48367713805092L152.82516666666666,137.25839562962088L152.8445,137.8182929739334L152.92183333333332,138.15817708879578L153.0233333333333,138.50287650293032L153.18766666666667,138.7561215237732L153.21666666666667,138.88494816279143L153.3375,138.60777922782736L153.56466666666665,138.22868392058274L153.9755,138.3680826555971L154.76333333333332,138.54704134650729L154.81650000000002,138.68599277727427L155.6575,138.693176650957L155.72516666666667,138.79658333298906L155.77833333333334,139.05025794409124L155.87016666666665,139.05592817844396L155.98133333333334,139.13305387366677L156.01033333333334,139.21008788030665L156.56616666666667,139.18579721141649L156.69666666666666,139.1379005651998L156.84166666666667,139.33332944758698L157.05916666666667,139.37873057632424L157.13166666666666,139.19474398558603L157.3395,139.0489039568023L157.67783333333333,139.02457874702907L157.77933333333334,139.082330397889L157.963,139.13007924087344L158.08383333333333,139.14600521998108L158.195,139.03413532779516L159.5,138.93077934149443L159.79966666666667,138.85285104133808L160.1525,138.68273792754485L160.15733333333333,138.5915682321243L161.0515,138.32126616272046L161.38016666666667,138.18320227165648L161.63633333333334,138.17654564678446L161.79583333333332,138.2525366646038L161.81516666666667,138.2782919586889L162.0375,138.37303382642222L162.0665,138.37156369976492L162.19216666666668,138.4560154777306L162.29366666666667,138.60444832453356L162.60299999999998,138.66711187725798L162.99450000000002,138.85956850865801L163.65666666666667,138.78128078114582L163.7195,138.750523528645L163.7775,138.75162364315366L163.90316666666666,138.78918241424185L164.1303333333333,138.895801353233L164.46866666666668,138.93960107432423L164.4735,138.96452522913586L164.546,139.0579929866789L164.71516666666665,139.10554922332753L164.79733333333334,139.14213263219827L164.86983333333333,139.11726167932886L165.13566666666668,138.98174180469357L165.14533333333333,138.8589366428938L165.1695,138.7932188125185L165.445,138.77085277508093L165.58033333333333,138.73686060947412L165.73983333333334,138.77356730486292L165.78333333333333,138.798265752705L166.12166666666667,138.92311100215437L166.19416666666666,139.02733666331005L166.27633333333333,139.020758865061L166.62433333333334,138.68786249624642L166.73066666666665,138.36349198858113L167.36866666666668,137.65716196084125L167.47983333333335,137.06817169776025L167.71183333333335,136.56287832135234L167.73600000000002,136.2375366990225L168.1903333333333,135.7073685231481L168.2,135.38217272774423L168.22416666666666,135.15578498492266L168.30633333333336,134.93976162105577L168.42716666666666,134.66079093950853L168.61083333333335,134.3616545792691L168.9685,133.96846096493434L169.37449999999998,133.31362451778432L169.78533333333334,132.67942781845676L170.01733333333334,132.08469159960714L170.23,131.74337422585467L170.2976666666667,131.44628693304048L170.4185,131.08566687489503L170.58283333333335,130.76171626439663L170.66983333333334,130.58236385459287L170.67950000000002,130.49114714309323L170.95016666666666,130.38440023210495L171.35616666666667,130.0980842193773L171.41416666666666,129.8722573984153L172.43883333333335,129.26225823572196L172.898,128.75400223976922L173.03816666666668,128.40766090540023L173.1155,128.1679106377836L173.2605,127.96920563717342L173.275,127.81294678413661L173.31366666666668,127.75852195479747L173.68583333333333,127.50487574373648L174.72983333333335,127.06469351312501L174.87966666666665,126.67375708377946L175.2905,126.2490205273425L175.64816666666667,126.02830791505548L176.45533333333336,125.53064913172946L177.14166666666668,124.82358338009966L177.15133333333333,124.40706654531746L177.83283333333333,123.98877281631823L178.04066666666665,123.6768121760237L178.31616666666667,123.40615874178097L179.51,122.86092747835448L179.57766666666666,122.48723674767095L179.80483333333333,122.1759951767497L180.09,121.95534773809749L180.18666666666667,121.76162144626997L180.1963333333333,121.64698927453648L180.44283333333334,121.52087587625678L180.74249999999998,121.44138345426856L181.00833333333333,121.2310963350924L181.62699999999998,120.98396805992078L181.888,120.74313047570199L182.05233333333334,120.59263023759252L182.091,120.4903663696368L182.09583333333333,120.42812712201594L182.34716666666668,120.3516218913145L182.51149999999998,120.18416139796658L182.54049999999998,120.07365203091672L182.98033333333333,120.00486188047631L183.2026666666667,119.94219762035314L183.81166666666667,119.57856645553173L183.88416666666666,119.3424790940813L183.918,119.21816563857388L183.94216666666665,119.14336656482692L184.005,119.07581512303159L184.02916666666667,119.03074774844052L184.2225,118.95614254893422L184.22733333333332,118.91141635430787L184.2853333333333,118.85453417451939L184.43033333333335,118.74330002994392L184.44966666666667,118.67788884598644L184.77833333333334,118.59742847417971L184.83633333333333,118.48842632374276L185.18916666666667,118.3220032966203L185.33416666666668,118.19704042768875L186.36366666666666,118.00470953521966L186.40233333333333,117.86895473204754L186.47,117.74271173121156L186.67783333333335,117.63986819888129L186.731,117.54887521806342L186.7455,117.4918001743733L186.85183333333333,117.44177759007093L187.02100000000002,117.33970211336299L187.4608333333333,117.19540177815728L187.9345,116.87345058341963L188.471,116.5014095164546L188.732,116.23538343651344L188.86733333333333,116.08964106764344L189.46183333333332,115.82172169283598L189.78083333333333,115.5421715438102L190.07083333333333,115.45203159211482L190.46716666666669,115.31051958774569L190.54933333333335,115.2177842687073L190.64116666666666,115.14475136581078L190.81516666666667,115.10637016047843L191.023,115.02396591275817L191.25016666666667,114.91261583429508L191.3855,114.79148372329433L191.4725,114.70644510577415L191.5305,114.64291488403256L191.96066666666667,114.49860022827491L192.13466666666665,114.40691577413384L192.27,114.34481548678102L192.49716666666666,114.28211921102535L192.60833333333335,114.20595166472631L192.70983333333334,114.13571178548358L192.73883333333333,114.1140349008609L192.80650000000003,114.10128724562938L193.3961666666667,114.05352219335924L193.48316666666668,113.99299682016783L193.72,113.87013976475961L193.76833333333335,113.7562985223613L193.8215,113.69815872324L193.86983333333333,113.64247547514731L193.94233333333332,113.61646636681256L194.91383333333334,113.58191833708584L194.967,113.50160299428642L195.2086666666667,113.41298610382282L195.3875,113.31064759142998L195.8805,113.13509851961018L196.2285,113.04778851430822L196.4025,112.92139938092953L196.5233333333333,112.83588625560239L196.60066666666668,112.78802296263001L196.65383333333335,112.76139389122736L196.76983333333334,112.70957802322633L196.85683333333333,112.66730020396189L196.90033333333335,112.62657268018884L197.32083333333333,112.47986668450454L197.75099999999998,112.3985107010771L197.85250000000002,112.32110127605016L198.28266666666667,112.18483273265966L198.505,112.06205312060243L198.83366666666666,111.93272871164635L199.04633333333334,111.79101630680655L199.4185,111.68811712642251L199.4475,111.64248222696624L200.12416666666667,111.54564521663093L200.37066666666666,111.42710720868531L200.5205,111.30506999714149L200.593,111.23968633665426L200.67033333333333,111.18162435086836L200.78633333333335,111.15512695188683L200.96033333333332,111.06929241582968L200.97966666666665,111.022897904904L201.06183333333334,110.97173509942967L201.26966666666664,110.92537063328909L201.55966666666666,110.9233678577452L201.56449999999998,110.92248269308261L201.69016666666667,110.88826537363917L202.8695,110.87149606486078L203.11116666666666,110.81918164098214L203.18366666666665,110.7911426186797L203.38666666666668,110.73000383736115L203.41083333333333,110.69934990621461L203.84583333333333,110.67020707498105L204.76416666666665,110.66116139394113L205.06383333333332,110.63947640122217L205.06866666666664,110.6213961199596L205.14600000000002,110.6174160156056L205.31516666666667,110.59785779198435L205.43116666666668,110.59708433079973L205.48916666666668,110.60901125507507L205.50366666666667,110.6221756472406L205.89999999999998,110.54606973136765L205.92899999999997,110.49655014875711L206.02566666666667,110.44942031266201L206.5283333333333,110.36482639290041L206.59116666666668,110.32304810987203L206.66366666666667,110.32863422933988L207.16633333333334,110.24654654683931L207.234,110.19066324843324L207.32583333333332,110.12438072570181L207.50466666666668,110.05740270500192L207.98799999999997,109.93949387958531L208.40366666666668,109.81881532961657L208.58733333333336,109.73921835955697L208.6115,109.68648056707812L208.89666666666668,109.67692963792105L208.95466666666667,109.62659886189235L209.1335,109.59217511241394L209.18183333333334,109.55377045050119L209.57816666666668,109.46063330635343L210.02283333333332,109.3244020513589L210.25,109.18228024672835L210.34183333333334,109.08751741904835L210.453,109.03021134650002L210.5255,108.99658730456407L210.54966666666667,108.94527448909984L211.05233333333334,108.87619021950665L211.86916666666667,108.6372115934998L212.51683333333332,108.40576338321628L212.86966666666666,108.21380674571193L212.98566666666667,108.09937126475809L214.4163333333333,107.70606469534778L214.59033333333332,107.43133579744664L214.6338333333333,107.25317905577282L214.6435,107.1295948757664L214.90449999999998,107.01243720256898L214.94316666666666,106.95001291515595L215.1945,106.86949842740395L215.6585,106.78390068155109L215.96300000000002,106.73227300847518L217.24383333333333,106.46433235767454L217.33083333333332,106.31398083903176L217.33566666666664,106.22423940383065L217.413,106.17915106107394L217.6208333333333,106.07576864534379L217.732,105.99706488593675L218.02200000000002,105.89525154080546L218.24916666666667,105.80171694068048L218.37,105.73354805533847L218.4715,105.70713190451123L219.25933333333333,105.5438984049252L219.588,105.39806120472497L220.16316666666665,105.19853347466794L220.2115,105.06632033542638L220.24533333333332,104.98416504595185L220.34683333333334,104.9021087785572L220.62233333333333,104.84930383563102L221.09116666666665,104.71060144543684L221.33766666666665,104.56473397994063L221.46333333333334,104.47463929524433L221.52616666666668,104.42221773785597L221.61316666666667,104.37812060190585L221.99499999999998,104.33189157887308L222.6281666666667,104.45532543208604L222.7635,104.53584235755446L222.90366666666665,104.56346919445897L222.92783333333335,104.56185705845778L223.27583333333334,104.5037825070931L223.648,104.4125162579485L224.14583333333334,104.31711254822422L224.3295,104.23135361258514L224.33433333333332,104.18149130454259L224.60016666666667,104.10876192993281L224.64366666666666,104.06564125625107L225.00133333333335,104.01288739566691L225.18983333333333,103.94857748582771L225.91483333333335,103.79385162135846L226.05499999999998,103.66871720994047L226.17100000000002,103.56158032086213L226.287,103.4645614687605L226.5335,103.3427440741064L226.61083333333332,103.26719020714772L226.68816666666666,103.21497927254683L226.78483333333335,103.16999570814518L227.27783333333332,103.07197754554596L227.32616666666667,103.01566700323013L227.86749999999998,102.87536237945312L228.06083333333333,102.78196943587156L228.24450000000002,102.7033144222861L228.636,102.6200245134333L228.8535,102.54861819817418L228.88733333333334,102.49232840582007L229.15800000000002,102.46146106150316L229.24983333333333,102.44529858485798L229.74283333333335,102.37596182379687L229.77666666666667,102.34074253054598L229.90716666666665,102.28304985292043L230.5596666666667,102.15892258362345L230.95116666666667,102.07105824396831L231.09616666666668,102.02567718056336L231.25083333333333,101.93861936704813L231.28466666666665,101.87241644964514L231.4006666666667,101.8283006149882L231.49733333333333,101.78943483819685L231.96133333333333,101.68614092940165L232.03383333333335,101.63438755556389L232.0435,101.58630779555111L232.12083333333334,101.54111268026035L232.5606666666667,101.4387739533329L233.015,101.3329181989517L233.06333333333333,101.26835501912154L233.30016666666666,101.22252222134422L233.59016666666668,101.13043003221603L234.64383333333333,100.91499373281152L234.73083333333332,100.77497620561215L235.23350000000002,100.64663449632224L235.30116666666666,100.56171695415435L235.44616666666664,100.51251245751536L235.57183333333333,100.49090755113694L235.65883333333332,100.47061761694393L235.7313333333333,100.4359351842239L235.9585,100.40488165310828L236.37900000000002,100.35519554431325L236.54333333333332,100.31891144046237L236.54816666666667,100.2946828229967L236.76566666666668,100.24549410484688L237.02183333333335,100.18714766348874L237.05083333333334,100.15287830022261L237.10883333333334,100.11398074380928L237.23450000000003,100.08136874051316L237.24416666666667,100.06266664034976L237.4085,100.05534361342703L237.61633333333333,100.01914675557683L237.76616666666666,99.99551908686202L237.9885,99.97061838814282L238.34133333333332,99.92830593650737L238.4186666666667,99.89968488374471L238.99866666666668,99.81974489545298L239.1195,99.76433258685753L239.28866666666667,99.6954841520386L239.61733333333333,99.62079482114297L239.95566666666667,99.55755033395278L240.2795,99.49120825708859L240.34716666666665,99.43450715053649L240.60333333333332,99.41504551713805L241.2655,99.394184742839L241.28483333333332,99.37739024428775L241.2945,99.36809424679427L241.6376666666667,99.30860076022712L242.11616666666666,99.24323800607065L242.18866666666665,99.21277159692966L242.4255,99.15047705913857L242.48833333333332,99.11284713593288L242.49316666666664,99.0908863583038L242.63816666666668,99.05185706250846L243.08283333333335,99.04380559225666L243.50333333333333,98.99628404557579L243.6,98.96105602848453L243.90449999999998,98.95152424256756L244.26216666666667,98.94606364655942L244.28633333333335,98.9427661889103L244.33950000000002,98.9383242841546L244.9195,98.91928023195173L245.12249999999997,98.90807007608356L245.34483333333333,98.91008995090449L246.24383333333333,98.85121949979379L247.022,98.78304446022936L247.07999999999998,98.74179656077163L247.36033333333333,98.69852725725612L247.43283333333332,98.66402543223644L247.5391666666667,98.6421691098019L247.85333333333335,98.62012472261218L247.88233333333335,98.60711964076296L248.14816666666667,98.5873686915966L248.21583333333334,98.57149856366706L248.2545,98.55639552520508L248.27866666666665,98.54287104276894L248.61216666666667,98.576181015182L249.09066666666666,98.55092850375682L249.54983333333334,98.53800832658116L249.5885,98.53501428025427L249.7625,98.50400484119334L249.85433333333336,98.4814007193713L249.90266666666668,98.47642596428801L250.42466666666667,98.45430864611392L250.62766666666667,98.44198248218969L251.00466666666668,98.40082671303438L251.70066666666668,98.32024978434376L251.83599999999998,98.26686071655351L252.039,98.23348214805839L252.14049999999997,98.20862309682796L252.44016666666667,98.18496169774788L252.48850000000002,98.16151248889601L252.55133333333333,98.1477489142265L252.59,98.14362637809789L253.1265,98.1406359053366L253.31983333333335,98.13782354454472L253.38266666666667,98.13543455159827L253.52283333333332,98.13825281474688L253.56633333333332,98.13259040721475L253.90466666666669,98.13039039020667L254.70216666666667,98.10064862039644L254.72633333333332,98.0907477251706L254.8375,98.0875871188651L255.28699999999998,98.09166734261578L255.39333333333335,98.08800701405563L256.03616666666665,98.06451559725974L256.3165,98.05368070401892L256.3938333333333,98.03681437133635L256.83366666666666,98.00286734675697L256.94966666666664,97.98513663754063L257.14300000000003,97.99040764537571L257.21066666666667,98.00230566839645L257.2735,97.99377242434187L257.375,97.98867885296444L257.38466666666665,97.9872843386227L257.839,98.00338569053972L258.1483333333333,98.02828073363878L258.26916666666665,98.04427803672182L258.2885,98.05775355170266L258.73316666666665,98.03997548145112L258.83466666666664,98.01825749112403L258.9796666666667,97.9972034051015L259.2165,97.97635248625242L259.64666666666665,97.96648999049643L259.69016666666664,97.96851665970313L260.50216666666665,97.98849587557689L260.5215,98.00671319316609L260.5505,98.02791403025856L260.83566666666667,98.02663992816488L261.09183333333334,98.01404361709524L261.10633333333334,98.008722435144L261.28516666666667,98.00444834870541L261.5606666666667,98.00030666853453L261.6525,98.0014508680431L261.986,97.98416015004683L262.6288333333333,97.9909400552247L262.7545,97.99501327334251L262.86083333333335,98.01006975566389L263.0493333333333,98.00968247529892L263.1895,98.03221705482618L263.2378333333333,98.04012519077193L263.24266666666665,98.0456402239545L263.5423333333333,98.05265230163002L263.552,98.06142770781554L263.88550000000004,98.06714660247825L263.90000000000003,98.0621484715978L263.90483333333333,98.06074792142151L264.1223333333333,98.08631957170627L264.2335,98.10044930933273L264.3301666666667,98.10259713863347L264.886,98.09444884142289L265.08416666666665,98.08533457923538L265.3403333333333,98.09077474480037L265.408,98.08868998292186L265.80916666666667,98.09210751058518L265.8333333333333,98.09130952120934" style="fill: none;" fill="none"></path></g></g></g></g><g opacity="0.2"><g><g><g><path stroke="rgb(255, 112, 67)" stroke-width="2px" d="M24.171499999999998,11.821632117033005L25.060833333333335,116.89401040971279L25.1865,132.99868512153625L25.442666666666664,121.83198782801628L25.481333333333332,117.94243204593658L25.5345,115.15321719646454L25.998499999999996,94.52194999158382L26.114500000000003,97.64147284626961L26.3465,107.24637123942375L26.646166666666666,117.54887665808201L26.675166666666666,117.25416179001331L26.7525,118.18803656101227L27.153666666666666,112.56219770014286L27.917333333333332,100.29883879423141L27.999499999999998,101.21786440908909L28.038166666666665,101.85826393961906L28.221833333333333,103.25363624095917L28.5505,96.49090062081814L28.5795,96.61343912780285L28.729333333333333,92.42842997610569L28.913,92.69249702990055L28.995166666666666,92.9769651889801L29.439833333333336,95.57490813732147L29.961833333333335,80.54836656153202L30.1165,79.51848658919334L30.445166666666665,79.67111903429031L30.483833333333333,79.96791753172874L30.599833333333333,81.1048934161663L30.851166666666664,83.06809428334236L31.107333333333333,83.73399849236012L31.208833333333335,84.37141764163971L31.474666666666664,82.9235326051712L31.498833333333334,82.81154412031174L31.503666666666668,82.75692138075829L31.909666666666666,80.54166729748249L31.99666666666667,80.94662989675999L32.818333333333335,80.43894964456558L33.108333333333334,82.0537228435278L33.37416666666667,83.2326350659132L34.244166666666665,87.93307873606682L34.964333333333336,82.22269463539124L34.988499999999995,82.26936529576778L35.317166666666665,81.29739175736904L35.699,82.72858138382435L35.73283333333333,82.7155125439167L36.29833333333334,87.28841963410378L36.41916666666666,88.6208610534668L36.743,88.65450243651867L36.858999999999995,89.13852426409721L37.03783333333333,89.89645104110241L37.207,91.01826126873493L37.410000000000004,89.07891663908958L38.197833333333335,88.8187135308981L38.719833333333334,89.20622903108597L38.73916666666667,89.31453819572926L38.8165,89.28457613289356L38.83583333333333,89.4420747756958L39.03883333333333,89.88140407204628L39.10166666666667,90.06795483827591L39.7735,92.55542586743832L40.150499999999994,92.85376730561256L40.3245,91.59638929367065L40.401833333333336,91.57975982129574L40.691833333333335,91.71386379003525L41.107499999999995,91.44188421964645L41.30566666666667,91.68010371923447L41.47,91.750274553895L41.484500000000004,91.79436045885086L41.55216666666667,91.60394574701786L41.653666666666666,91.56764048337936L41.706833333333336,91.59216928482056L41.76,91.41068252921104L41.847,91.22475157678127L41.90983333333333,91.20156790316105L42.27233333333333,91.49139019846916L42.2965,91.4076625853777L42.567166666666665,90.59372837841511L42.63483333333333,90.09903784096241L43.00216666666666,88.93633309006691L43.25833333333333,88.59634543955326L43.408166666666666,88.39519608020782L43.79483333333333,86.18264544010162L43.84316666666667,85.96581611037254L43.867333333333335,85.97285825014114L43.988166666666665,85.77269795536995L44.1235,85.33930304646492L44.254000000000005,85.19172142446041L44.379666666666665,85.0734952390194L44.727666666666664,84.61125920712948L44.81466666666667,84.51832669973373L45.153,84.24442175030708L45.18683333333333,84.13071888685226L45.501000000000005,83.46803243458271L45.56866666666667,83.36931060254574L46.013333333333335,82.57586981356144L46.076166666666666,82.51317630708218L46.1825,82.07285794615746L46.404833333333336,81.6841819435358L46.6175,81.45297820866108L46.65133333333333,81.50998789072037L47.1395,81.72081689536572L47.81616666666667,82.56087559461594L48.16416666666667,82.25073131918907L49.05833333333333,84.22125126421452L49.11633333333333,84.1972763389349L49.57066666666667,83.40578730404377L50.0975,83.37726268172264L50.440666666666665,83.53316563367844L51.42666666666667,84.34840540587902L51.52333333333333,84.28340408205986L51.7505,84.58647984266281L52.867,86.60566176474094L52.92016666666667,86.81261363625526L52.929833333333335,86.85523572564125L53.00716666666666,87.0460592508316L53.14733333333333,87.22252155840397L53.39866666666667,87.81282167136669L53.476,87.93049398064613L53.505,88.05102798342705L54.1285,88.43462678790092L54.59733333333333,88.8748396486044L54.98883333333333,89.7144763469696L55.216,90.24883496761322L55.332,90.43029534816742L55.38516666666667,90.5467412173748L56.37116666666667,92.02605213224888L56.40983333333333,92.09242495894432L56.75300000000001,92.24781359732151L56.767500000000005,92.28874768316746L56.9705,92.66250859200954L57.12516666666667,92.89070557057858L57.26533333333334,92.98950652778149L57.42966666666667,93.24559512734413L58.19333333333333,94.32885821163654L58.705666666666666,95.06873126327991L58.768499999999996,95.16187477111816L58.778166666666664,95.17465348541737L59.0585,95.92428530752659L59.16966666666667,96.1479062139988L59.25183333333334,96.2961867749691L59.2615,96.31856600940228L59.319500000000005,96.50476071238518L59.445166666666665,96.68350446224213L60.04933333333334,98.37219375371933L60.349000000000004,99.14525981247425L60.353833333333334,99.16635985672474L60.532666666666664,99.27532839775085L60.697,99.76556155085564L60.909666666666666,100.46030688285828L61.06916666666667,100.61589333415031L61.51383333333334,101.14724519848824L62.0165,102.07616145908833L62.47566666666667,102.69675332307816L62.52883333333334,102.8152432590723L63.10883333333334,103.77785365283489L63.22,103.95132239162922L63.244166666666665,103.98740346729755L63.47616666666667,104.25521577894688L63.751666666666665,104.43525190651417L63.89666666666666,104.59719474613667L64.7135,105.78574705123901L64.82466666666667,106.07811453938484L64.8295,106.09455938637257L64.83433333333333,106.10880191624165L64.94550000000001,106.24397407472134L64.95516666666667,106.2743713259697L65.07116666666667,106.34408059716225L65.65599999999999,107.28636901080608L66.02333333333333,108.11279180645943L66.15383333333334,108.44452406466007L66.45349999999999,108.74303694069386L67.96633333333334,111.7440962344408L68.25633333333333,112.51211147010326L68.31433333333334,112.70408231019974L68.324,112.71444770693779L68.72516666666667,112.93499591946602L68.8315,113.14782942831516L68.85566666666666,113.2179079502821L70.51350000000001,116.07592213153839L71.06933333333333,116.68217915296555L71.4995,117.4015983492136L71.62033333333333,117.68825563788414L71.688,117.86020781099796L71.76533333333333,118.00930599868298L72.07466666666666,118.06027579307556L72.12783333333333,118.15173129737377L72.35016666666667,118.55780164897442L72.55799999999999,118.80869436264038L73.0945,119.611722484231L73.54883333333333,120.49618358910084L74.33183333333334,121.23632039129734L74.46233333333333,121.28118436038494L74.68466666666667,121.48284803330898L74.88283333333332,121.76243680715561L74.96983333333334,121.7038841843605L75.00366666666666,121.7670524418354L75.16316666666667,122.09869238734245L75.255,122.32411998510361L75.65616666666668,122.61574897170067L75.94133333333335,123.00594154000282L76.46816666666666,123.63687242567539L77.06266666666666,124.3195775449276L77.07716666666666,124.34378984570503L77.46866666666666,124.76282353699207L78.0245,125.66552299261093L78.15983333333334,125.82747901976109L78.20816666666667,125.94317319989204L78.39183333333332,126.16742710769176L78.5175,126.28314766287804L78.58516666666667,126.4152603149414L78.9235,126.62548269331455L78.938,126.62614206969738L79.01050000000001,126.57136107981205L79.07333333333334,126.57258751988411L79.20866666666667,126.75385008752346L79.42616666666666,127.05476309359074L79.52766666666666,127.16330963373184L79.547,127.08932760357857L79.97716666666666,127.68859523534775L80.243,127.74737204611301L80.51366666666667,128.15952184796333L80.562,128.22058010101318L80.74083333333333,128.35052999854088L81.08883333333334,128.64495474100113L81.24833333333333,128.85591562092304L82.0555,129.65558092296124L82.15216666666666,129.53525792062283L82.44216666666667,129.81780070066452L82.65483333333333,130.05749720335007L83.29766666666667,130.39628478884697L85.39533333333333,131.3792171627283L85.55,131.52806478738785L85.85449999999999,131.4742596745491L85.93183333333333,131.45503225922585L86.09616666666666,131.5789554566145L86.391,131.65221217274666L86.53116666666666,131.70546340942383L87.087,132.06880617141724L87.15466666666666,132.08587083220482L87.19816666666668,132.0869126468897L87.34800000000001,132.12778079509735L88.276,132.52885307371616L88.59016666666666,132.82402950525284L89.17983333333333,133.09619370102882L89.43116666666667,133.17783768475056L89.60516666666666,133.2354408055544L89.75016666666667,133.32756887376308L89.99183333333333,133.41199542582035L90.10783333333333,133.54501801729202L90.20933333333333,133.66531464457512L90.34466666666667,133.8617164939642L90.40750000000001,133.7480400055647L90.41716666666667,133.75634814798832L90.55733333333335,133.83129286766052L91.01166666666667,133.98891019821167L91.15666666666667,134.02745734155178L91.26783333333333,134.06592535972595L91.37899999999999,134.07753038406372L91.73183333333334,134.1292914301157L92.133,134.21563017368317L92.29249999999999,134.24089747667313L92.39883333333333,134.26820884644985L92.568,134.4146827161312L92.69366666666666,134.50754928588867L92.70816666666666,134.49527169764042L92.7855,134.49779051542282L92.80966666666667,134.51931256055832L93.061,134.47252321243286L93.89716666666666,134.74174658954144L94.43366666666667,134.7628202587366L95.07166666666666,134.946654394269L95.178,134.9114964455366L95.20216666666666,134.9065247476101L95.207,134.90750062465668L95.40516666666667,135.01654829084873L95.7145,134.9854784756899L96.106,135.20663331449032L96.25583333333334,135.26211324334145L96.88416666666667,135.55582585930824L96.9615,135.64319323003292L97.1935,135.5408712029457L97.36749999999999,135.55227841436863L97.37233333333333,135.5515267252922L97.40133333333333,135.5198107212782L97.614,135.59530931711197L97.79766666666667,135.45260708034039L97.95233333333333,135.4948862940073L98.57583333333332,135.61756986379623L98.64833333333334,135.6388545334339L98.88033333333333,135.5331301242113L99.32983333333334,135.80239306390285L99.8035,135.91333973407745L100.01133333333333,135.85520911216736L100.31099999999999,136.02617222070694L100.48016666666666,136.01276050508022L100.6735,136.09060648083687L100.717,136.12312692403793L100.7605,136.0559628456831L101.181,136.26032996177673L101.54833333333333,136.40242557227612L101.587,136.4285368770361L101.72716666666666,136.4734008461237L102.2685,136.43337669968605L102.7615,136.51851537823677L103.21583333333334,136.50998304784298L103.4285,136.43282282352448L103.49616666666667,136.4650795161724L103.559,136.4589473158121L103.8055,136.52921046316624L103.84416666666667,136.5514710098505L103.96983333333333,136.5327710956335L104.03750000000001,136.5273114591837L104.69,136.42345967888832L105.31349999999999,136.5205066949129L105.42466666666667,136.60904775559902L105.42949999999999,136.61583933234215L105.76783333333334,136.81174005568027L105.792,136.77513147890568L105.93216666666667,136.75500731170177L105.97083333333333,136.79636339843273L106.53633333333333,136.85303020477295L106.54116666666667,136.85788321495056L106.91816666666666,136.9297816157341L107.00516666666667,136.96358124911785L107.05833333333332,136.9609833061695L107.18883333333333,136.9893101155758L107.46916666666667,137.08770225942135L107.59966666666666,137.05801713466644L108.07816666666666,137.17487181723118L108.55183333333333,137.4335451722145L108.58083333333333,137.467239305377L109.32033333333334,137.5817729830742L109.649,137.64519180357456L110.2435,137.83875833451748L110.44166666666668,137.99418653547764L110.55283333333333,137.93560753762722L110.60116666666667,137.8930909484625L110.809,137.99339528381824L111.31166666666667,138.7998126000166L111.505,152.94323819875717L111.70316666666666,155.97075167298317L111.87716666666665,155.38576613366604L112.07050000000001,138.12777619063854L112.114,138.1404494047165L113.47216666666667,152.40116487443447L113.593,154.5221545100212L113.78633333333333,154.03658974170685L113.90716666666667,150.4358408153057L114.31316666666666,154.80813923478127L114.68050000000001,154.214212551713L115.13000000000001,156.4437157586217L115.25566666666667,157.13141895085573L115.47316666666667,153.31566716730595L116,153.51118545234203L116.14500000000001,153.84310233592987L116.29,154.82355545461178L116.30933333333334,154.21339492499828L116.40116666666665,154.369838565588L116.4785,153.60571365058422L116.52199999999999,153.61386354267597L116.62833333333333,153.18103569746017L116.64766666666667,153.44908538460732L116.77333333333334,153.90194508433342L116.85066666666665,153.46477854251862L117.13583333333332,153.31681448221207L117.305,153.7292016595602L117.34366666666666,154.19958758354187L117.53699999999999,151.65187592804432L117.86083333333333,153.91416992247105L117.9285,154.56384028494358L118.05900000000001,153.23936413228512L118.14116666666666,153.9663661569357L118.43116666666667,155.47470941394567L118.67766666666667,154.1029625684023L119.06433333333334,153.5345669388771L119.161,153.93264564871788L119.364,154.03279173374176L119.60566666666666,154.00228898227215L119.62016666666666,153.9766524285078L119.70233333333333,154.2112321704626L119.83766666666666,154.01564794778824L120.03099999999999,154.65740579366684L120.36449999999999,154.43767520785332L120.38383333333334,154.32575266063213L120.93483333333333,153.56484550237656L120.98316666666668,153.979448184371L121.6695,154.11862935125828L122.21566666666666,154.5122638642788L122.41383333333333,154.80784910917282L122.83916666666666,155.63655994087458L123.08566666666667,155.60789684951305L123.21133333333333,155.8119606524706L124.58883333333333,156.28073110431433L124.64683333333333,156.09307258576155L124.70483333333333,156.02850645035505L124.816,156.22535667568445L124.845,156.22705127298832L125.14466666666667,155.8976070508361L125.27516666666666,155.71414875984192L125.41533333333334,156.20593144744635L125.773,156.63764494657516L126.59466666666667,157.40055660903454L126.73,157.75228115916252L126.83633333333334,157.27267715334892L126.8605,157.36117205768824L127.08766666666666,157.99607898294926L127.484,158.3529928252101L127.658,158.34722328186035L128.39266666666666,158.48211190849543L128.46516666666668,158.63584551215172L128.5473333333333,158.94820529222488L129.38833333333332,158.82269959151745L129.56716666666665,159.29291407763958L129.8475,159.57836470752954L130.181,157.45694647729397L130.5773333333333,158.3578656166792L131.18633333333332,159.10427968204021L131.2685,159.16552915424109L131.457,159.21054477989674L132.11916666666667,159.51470191776752L132.37533333333334,159.42210569232702L132.62183333333334,159.64731569588184L132.81033333333335,159.85617316514254L133.54983333333334,160.2840293124318L133.72866666666667,160.5837818160653L133.76733333333334,160.43099112063646L134.20233333333334,159.8887661397457L134.2651666666667,160.0091287046671L134.39566666666667,159.80624518543482L134.43916666666667,159.90523076802492L134.46816666666666,159.95781603455544L134.51166666666666,159.88932660967112L134.763,159.93307623267174L134.821,160.09180131554604L134.83066666666667,160.01947432011366L134.84033333333332,160.0291605591774L134.91766666666666,160.10215352475643L135.27533333333332,160.27920927107334L135.32366666666667,160.338355332613L135.43966666666668,160.01634228229523L135.65716666666665,160.26447220891714L135.71033333333332,160.06908579915762L135.78283333333334,160.0467922836542L135.84083333333334,160.09205847233534L135.952,159.5336787700653L136.02450000000002,159.37472290545702L136.155,159.2363989278674L136.26616666666666,159.21934086084366L136.64316666666667,159.2312162294984L136.93316666666666,159.5375229343772L137.10716666666667,159.30911495536566L137.547,159.33603729307652L137.9965,158.76990332454443L138.63933333333333,158.64783956855536L139.04533333333333,158.29736123979092L139.83316666666667,157.75537363439798L139.93949999999998,157.74520605057478L139.9685,157.81097884476185L140.17633333333333,157.60969101637602L140.58716666666666,157.60855029523373L140.795,157.3018677458167L141.3025,157.0040735900402L141.5635,156.64614430814981L141.95016666666666,156.40395536273718L142.303,155.9231183230877L142.3175,155.9206720367074L142.40933333333334,155.72455371916294L142.64616666666666,155.62035246938467L142.84916666666666,155.3125357925892L142.96516666666668,155.22700148820877L143.15366666666665,155.07647245377302L143.2455,155.1713039651513L143.33733333333333,155.08419375121593L143.347,155.10162106901407L143.434,155.01113484799862L143.61766666666668,154.92221134901047L144.043,154.7739835381508L144.16866666666667,154.89641654491425L144.18316666666666,154.9366516917944L144.246,154.57477274537086L144.7245,154.17967441678047L145.20783333333335,131.87907721102238L145.2755,143.24377204477787L145.48333333333335,140.7582923322916L145.51233333333334,132.56691227853298L145.92316666666667,134.15709073841572L146.334,134.13100580871105L146.53216666666665,134.79768808186054L146.8415,135.40589685738087L147.01066666666668,134.48958787322044L147.09283333333332,133.800249427557L147.50850000000003,138.59530042111874L147.90483333333333,137.6561110764742L148.17066666666668,138.2660210430622L148.22383333333335,138.01907140016556L148.69750000000002,140.6354505121708L149.089,141.9145351946354L149.72216666666665,140.91165009140968L149.76083333333332,140.15728394687176L150.017,140.68590599298477L150.29733333333334,139.93069584667683L150.44233333333335,140.09656856954098L150.51966666666667,139.55801631510258L150.568,138.73781803250313L150.6115,138.07592283189297L150.85316666666665,138.74657455086708L151.3075,137.62907664477825L151.49116666666666,136.8688024878502L151.61683333333335,137.14720438420773L151.64100000000002,137.40272592008114L151.7715,136.29505272209644L151.89233333333334,136.14375221729279L151.95033333333333,136.00348967313766L152.1388333333333,136.61517995595932L152.82516666666666,138.42047336697578L152.8445,138.65813899040222L152.92183333333332,138.66800326108932L153.0233333333333,139.01992562413216L153.18766666666667,139.1359890550375L153.21666666666667,139.07818812131882L153.3375,138.19202582538128L153.56466666666665,137.66004095971584L153.9755,138.57718075811863L154.76333333333332,138.81547938287258L154.81650000000002,138.89441992342472L155.6575,138.7039524614811L155.72516666666667,138.95169335603714L155.77833333333334,139.43076986074448L155.87016666666665,139.06443352997303L155.98133333333334,139.24874241650105L156.01033333333334,139.32563889026642L156.56616666666667,139.14936120808125L156.69666666666666,139.0660555958748L156.84166666666667,139.62647277116776L157.05916666666667,139.44683226943016L157.13166666666666,138.91876409947872L157.3395,138.83014391362667L157.67783333333333,138.98809093236923L157.77933333333334,139.1689578741789L157.963,139.2017025053501L158.08383333333333,139.1698941886425L158.195,138.86633048951626L159.5,138.77574536204338L159.79966666666667,138.73595859110355L160.1525,138.427568256855L160.15733333333333,138.45481368899345L161.0515,137.91581305861473L161.38016666666667,137.9761064350605L161.63633333333334,138.16656070947647L161.79583333333332,138.36652319133282L161.81516666666667,138.3169248998165L162.0375,138.5151466280222L162.0665,138.36935850977898L162.19216666666668,138.58269314467907L162.29366666666667,138.827097594738L162.60299999999998,138.7611072063446L162.99450000000002,139.1482534557581L163.65666666666667,138.6638491898775L163.7195,138.70438764989376L163.7775,138.7532738149166L163.90316666666666,138.8455205708742L164.1303333333333,139.0557297617197L164.46866666666668,139.00530065596104L164.4735,139.0019114613533L164.546,139.19819462299347L164.71516666666665,139.17688357830048L164.79733333333334,139.19700774550438L164.86983333333333,139.0799552500248L165.13566666666668,138.77846199274063L165.14533333333333,138.67472890019417L165.1695,138.69464206695557L165.445,138.73730371892452L165.58033333333333,138.68587236106396L165.73983333333334,138.82862734794617L165.78333333333333,138.83531342446804L166.12166666666667,139.11037887632847L166.19416666666666,139.1836751550436L166.27633333333333,139.01089216768742L166.62433333333334,138.18851794302464L166.73066666666665,137.8769362270832L167.36866666666668,136.59766691923141L167.47983333333335,136.18468630313873L167.71183333333335,135.80493825674057L167.73600000000002,135.74952426552773L168.1903333333333,134.91211625933647L168.2,134.8943790346384L168.22416666666666,134.81620337069035L168.30633333333336,134.6157265752554L168.42716666666666,134.2423349171877L168.61083333333335,133.9129500389099L168.9685,133.37867054343224L169.37449999999998,132.33136984705925L169.78533333333334,131.72813276946545L170.01733333333334,131.19258727133274L170.23,131.23139816522598L170.2976666666667,131.00065599381924L170.4185,130.5447367876768L170.58283333333335,130.27579034864902L170.66983333333334,130.31333523988724L170.67950000000002,130.3543220758438L170.95016666666666,130.22427986562252L171.35616666666667,129.6686102002859L171.41416666666666,129.53351716697216L172.43883333333335,128.34725949168205L172.898,127.99161824584007L173.03816666666668,127.88814890384674L173.1155,127.80828523635864L173.2605,127.67114813625813L173.275,127.57855850458145L173.31366666666668,127.67688471078873L173.68583333333333,127.124406427145L174.72983333333335,126.40442016720772L174.87966666666665,126.08735243976116L175.2905,125.61191569268703L175.64816666666667,125.69723899662495L176.45533333333336,124.78416095674038L177.14166666666668,123.76298475265503L177.15133333333333,123.78229129314423L177.83283333333333,123.36133222281933L178.04066666666665,123.2088712155819L178.31616666666667,123.00017859041691L179.51,122.04308058321476L179.57766666666666,121.92670065164566L179.80483333333333,121.70913282036781L180.09,121.62437658011913L180.18666666666667,121.47103200852871L180.1963333333333,121.4750410169363L180.44283333333334,121.3317057788372L180.74249999999998,121.3221448212862L181.00833333333333,120.9156656563282L181.62699999999998,120.61327564716339L181.888,120.38187409937382L182.05233333333334,120.36687988042831L182.091,120.33697056770325L182.09583333333333,120.3347682505846L182.34716666666668,120.23686404526234L182.51149999999998,119.93297065794468L182.54049999999998,119.90788798034191L182.98033333333333,119.90167665481567L183.2026666666667,119.84820123016834L183.81166666666667,119.03311970829964L183.88416666666666,118.98834805190563L183.918,119.03169545531273L183.94216666666665,119.03116795420647L184.005,118.97448796033859L184.02916666666667,118.96314668655396L184.2225,118.8442347496748L184.22733333333332,118.8443270623684L184.2853333333333,118.76921090483665L184.43033333333335,118.57644881308079L184.44966666666667,118.57977207005024L184.77833333333334,118.47673791646957L184.83633333333333,118.32492309808731L185.18916666666667,118.07236875593662L185.33416666666668,118.00959612429142L186.36366666666666,117.71621319651604L186.40233333333333,117.66532252728939L186.47,117.55334722995758L186.67783333333335,117.48560290038586L186.731,117.41238574683666L186.7455,117.40618760883808L186.85183333333333,117.36674371361732L187.02100000000002,117.18658889830112L187.4608333333333,116.97895127534866L187.9345,116.39052379131317L188.471,115.94334791600704L188.732,115.83634431660175L188.86733333333333,115.8710275143385L189.46183333333332,115.41984263062477L189.78083333333333,115.12284632027149L190.07083333333333,115.31682166457176L190.46716666666669,115.09825158119202L190.54933333333335,115.07868129014969L190.64116666666666,115.03520201146603L190.81516666666667,115.04879835247993L191.023,114.90035954117775L191.25016666666667,114.74559071660042L191.3855,114.60978555679321L191.4725,114.5788871794939L191.5305,114.54761955142021L191.96066666666667,114.28212824463844L192.13466666666665,114.26938909292221L192.27,114.2516650557518L192.49716666666666,114.18807479739189L192.60833333333335,114.09170034527779L192.70983333333334,114.03035196661949L192.73883333333333,114.08151957392693L192.80650000000003,114.0821657627821L193.3961666666667,113.981874614954L193.48316666666668,113.90220876038074L193.72,113.6858541816473L193.76833333333335,113.58553665876389L193.8215,113.61094902455807L193.86983333333333,113.55895060300827L193.94233333333332,113.57745270431042L194.91383333333334,113.53009629249573L194.967,113.38112998008728L195.2086666666667,113.28006076812744L195.3875,113.15713982284069L195.8805,112.8717749118805L196.2285,112.91682350635529L196.4025,112.73181568086147L196.5233333333333,112.7076165676117L196.60066666666668,112.71622802317142L196.65383333333335,112.72145028412342L196.76983333333334,112.63185422122478L196.85683333333333,112.60388347506523L196.90033333333335,112.56548139452934L197.32083333333333,112.25980769097805L197.75099999999998,112.27647672593594L197.85250000000002,112.20498713850975L198.28266666666667,111.98042991757393L198.505,111.87788370251656L198.83366666666666,111.73874209821224L199.04633333333334,111.57844769954681L199.4185,111.5337683558464L199.4475,111.57402987778187L200.12416666666667,111.400389701128L200.37066666666666,111.24930019676685L200.5205,111.12201417982578L200.593,111.14161084592342L200.67033333333333,111.09453137218952L200.78633333333335,111.11538085341454L200.96033333333332,110.94054061174393L200.97966666666665,110.95330613851547L201.06183333333334,110.89499089121819L201.26966666666664,110.85582393407822L201.55966666666666,110.9203636944294L201.56449999999998,110.92115494608879L201.69016666666667,110.83693939447403L202.8695,110.84634210169315L203.11116666666666,110.74071000516415L203.18366666666665,110.74908408522606L203.38666666666668,110.63829566538334L203.41083333333333,110.65336900949478L203.84583333333333,110.62649282813072L204.76416666666665,110.64759287238121L205.06383333333332,110.60694891214371L205.06866666666664,110.59427569806576L205.14600000000002,110.61144585907459L205.31516666666667,110.5685204565525L205.43116666666668,110.59592413902283L205.48916666666668,110.62690164148808L205.50366666666667,110.64192223548889L205.89999999999998,110.43191085755825L205.92899999999997,110.42227077484131L206.02566666666667,110.37872555851936L206.5283333333333,110.23793551325798L206.59116666666668,110.26038068532944L206.66366666666667,110.33701340854168L207.16633333333334,110.12341502308846L207.234,110.10683830082417L207.32583333333332,110.02495694160461L207.50466666666668,109.9569356739521L207.98799999999997,109.76263064146042L208.40366666666668,109.63779750466347L208.58733333333336,109.61982290446758L208.6115,109.6073738783598L208.89666666666668,109.66260324418545L208.95466666666667,109.55110269784927L209.1335,109.54053948819637L209.18183333333334,109.49616345763206L209.57816666666668,109.32092759013176L210.02283333333332,109.12005516886711L210.25,108.96909753978252L210.34183333333334,108.94537317752838L210.453,108.94425223767757L210.5255,108.94615124166012L210.54966666666667,108.86830526590347L211.05233333333334,108.77256381511688L211.86916666666667,108.27874365448952L212.51683333333332,108.05859106779099L212.86966666666666,107.92587178945541L212.98566666666667,107.92771804332733L214.4163333333333,107.1161048412323L214.59033333333332,107.0192424505949L214.6338333333333,106.9859439432621L214.6435,106.94421860575676L214.90449999999998,106.83670069277287L214.94316666666666,106.85637648403645L215.1945,106.74872669577599L215.6585,106.6555040627718L215.96300000000002,106.65483149886131L217.24383333333333,106.06242138147354L217.33083333333332,106.08845356106758L217.33566666666664,106.08962725102901L217.413,106.1115185469389L217.6208333333333,105.92069502174854L217.732,105.87900924682617L218.02200000000002,105.74253152310848L218.24916666666667,105.66141504049301L218.37,105.63129472732544L218.4715,105.66750767827034L219.25933333333333,105.29904815554619L219.588,105.17930540442467L220.16316666666665,104.8992418795824L220.2115,104.86800062656403L220.24533333333332,104.86093211174011L220.34683333333334,104.77902437746525L220.62233333333333,104.77009642124176L221.09116666666665,104.50254786014557L221.33766666666665,104.34593278169632L221.46333333333334,104.33949726819992L221.52616666666668,104.34358540177345L221.61316666666667,104.31197489798069L221.99499999999998,104.26254804432392L222.6281666666667,104.64047621190548L222.7635,104.6566177457571L222.90366666666665,104.60490944981575L222.92783333333335,104.55943885445595L223.27583333333334,104.41667068004608L223.648,104.27561688423157L224.14583333333334,104.17400698363781L224.3295,104.10271520912647L224.33433333333332,104.10669784247875L224.60016666666667,103.99966786801815L224.64366666666666,104.00096024572849L225.00133333333335,103.93375660479069L225.18983333333333,103.85211262106895L225.91483333333335,103.56176282465458L226.05499999999998,103.48101559281349L226.17100000000002,103.4008749872446L226.287,103.31903319060802L226.5335,103.16001798212528L226.61083333333332,103.15385940670967L226.68816666666666,103.13666287064552L226.78483333333335,103.1025203615427L227.27783333333332,102.92495030164719L227.32616666666667,102.9312011897564L227.86749999999998,102.66490544378757L228.06083333333333,102.64188002049923L228.24450000000002,102.58533190190792L228.636,102.49508965015411L228.8535,102.44150872528553L228.88733333333334,102.40789371728897L229.15800000000002,102.41516004502773L229.24983333333333,102.42105486989021L229.74283333333335,102.2719566822052L229.77666666666667,102.28791359066963L229.90716666666665,102.19651083648205L230.5596666666667,101.97273167967796L230.95116666666667,101.93926173448563L231.09616666666668,101.9576055854559L231.25083333333333,101.80803264677525L231.28466666666665,101.77311207354069L231.4006666666667,101.76212686300278L231.49733333333333,101.73113617300987L231.96133333333333,101.53120006620884L232.03383333333335,101.55675749480724L232.0435,101.51418815553188L232.12083333333334,101.47332000732422L232.5606666666667,101.28526586294174L233.015,101.17413456737995L233.06333333333333,101.1715102493763L233.30016666666666,101.15377302467823L233.59016666666668,100.99229174852371L234.64383333333333,100.59183928370476L234.73083333333332,100.56494991481304L235.23350000000002,100.45412193238735L235.30116666666666,100.43434064090252L235.44616666666664,100.43870571255684L235.57183333333333,100.45850019156933L235.65883333333332,100.44018271565437L235.7313333333333,100.38391153514385L235.9585,100.35830135643482L236.37900000000002,100.28066638112068L236.54333333333332,100.26448528468609L236.54816666666667,100.25833989679813L236.76566666666668,100.17171102762222L237.02183333333335,100.09962800145149L237.05083333333334,100.10147425532341L237.10883333333334,100.05563440918922L237.23450000000003,100.032450735569L237.24416666666667,100.03461349010468L237.4085,100.04435907304287L237.61633333333333,99.9648514688015L237.76616666666666,99.96007758378983L237.9885,99.93326734006405L238.34133333333332,99.86483725905418L238.4186666666667,99.85675330460072L238.99866666666668,99.69983491301537L239.1195,99.68121412396431L239.28866666666667,99.59221149981022L239.61733333333333,99.50876082479954L239.95566666666667,99.46268360316753L240.2795,99.3916951417923L240.34716666666665,99.34945549070835L240.60333333333332,99.38585306704044L241.2655,99.36289358139038L241.28483333333332,99.35219849646091L241.2945,99.35415025055408L241.6376666666667,99.21936053037643L242.11616666666666,99.14519387483597L242.18866666666665,99.1670719832182L242.4255,99.0570352524519L242.48833333333332,99.05640225112438L242.49316666666664,99.0579451918602L242.63816666666668,98.99331311881542L243.08283333333335,99.03172838687897L243.50333333333333,98.92500172555447L243.6,98.90821400284767L243.90449999999998,98.9372265636921L244.26216666666667,98.93787275254726L244.28633333333335,98.93782000243664L244.33950000000002,98.93166142702103L244.9195,98.89071415364742L245.12249999999997,98.89125484228134L245.34483333333333,98.91311976313591L246.24383333333333,98.76291382312775L247.022,98.68078190088272L247.07999999999998,98.67992471158504L247.36033333333333,98.63362330198288L247.43283333333332,98.61227269470692L247.5391666666667,98.60938462615013L247.85333333333335,98.58705814182758L247.88233333333335,98.58761201798916L248.14816666666667,98.55774226784706L248.21583333333334,98.54769337177277L248.2545,98.53374096751213L248.27866666666665,98.52258431911469L248.61216666666667,98.62614597380161L249.09066666666666,98.513049736619L249.54983333333334,98.51862806081772L249.5885,98.53052321076393L249.7625,98.45749068260193L249.85433333333336,98.44749453663826L249.90266666666668,98.46896383166313L250.42466666666667,98.4211326688528L250.62766666666667,98.42349323630333L251.00466666666668,98.33909305930138L251.70066666666668,98.19938439130783L251.83599999999998,98.18677711486816L252.039,98.18341429531574L252.14049999999997,98.17133451998234L252.44016666666667,98.14946959912777L252.48850000000002,98.12633867561817L252.55133333333333,98.12710355222225L252.59,98.13744257390499L253.1265,98.13615019619465L253.31983333333335,98.13360500335693L253.38266666666667,98.13185106217861L253.52283333333332,98.1424802094698L253.56633333333332,98.12409679591656L253.90466666666669,98.1270903646946L254.70216666666667,98.05603596568108L254.72633333333332,98.07589638233185L254.8375,98.08284620940685L255.28699999999998,98.09778767824173L255.39333333333335,98.08251652121544L256.03616666666665,98.02927847206593L256.3165,98.03742836415768L256.3938333333333,98.01151487231255L256.83366666666666,97.95194680988789L256.94966666666664,97.95854057371616L257.14300000000003,97.99831415712833L257.21066666666667,98.02015270292759L257.2735,97.98097255825996L257.375,97.98103849589825L257.38466666666665,97.98519256711006L257.839,98.02753771841526L258.1483333333333,98.06562329828739L258.26916666666665,98.06827399134636L258.2885,98.07796682417393L258.73316666666665,98.01330837607384L258.83466666666664,97.98568050563335L258.9796666666667,97.96562227606773L259.2165,97.94507610797882L259.64666666666665,97.95169624686241L259.69016666666664,97.97155666351318L260.50216666666665,98.01846469938755L260.5215,98.03403916954994L260.5505,98.05971528589725L260.83566666666667,98.02472877502441L261.09183333333334,97.99514915049076L261.10633333333334,98.00074066221714L261.28516666666667,97.99803721904755L261.5606666666667,97.99409414827824L261.6525,98.00316716730595L261.986,97.9582240730524L262.6288333333333,98.00110991299152L262.7545,98.00112310051918L262.86083333333335,98.032654479146L263.0493333333333,98.0091015547514L263.1895,98.06601892411709L263.2378333333333,98.05198739469051L263.24266666666665,98.05391277372837L263.5423333333333,98.06317041814327L263.552,98.07459081709385L263.88550000000004,98.07572494447231L263.90000000000003,98.05465127527714L263.90483333333333,98.05864709615707L264.1223333333333,98.12467704713345L264.2335,98.12164391577244L264.3301666666667,98.10581888258457L264.886,98.082226395607L265.08416666666665,98.0716631859541L265.3403333333333,98.09893499314785L265.408,98.0855628401041L265.80916666666667,98.09723380208015L265.8333333333333,98.09011253714561" style="fill: none;" fill="none"></path></g></g></g></g></g></g><g transform="translate(40, 177)" clip-path="url(#clip_1)"><clipPath id="clip_1"><rect width="290" height="23"></rect></clipPath><g><g><line x1="0" y1="0" x2="0" y2="5" style="visibility: inherit;" fill="rgb(0, 0, 0)" stroke="rgb(204, 204, 204)" stroke-width="1px"></line><line x1="24.166666666666664" y1="0" x2="24.166666666666664" y2="5" style="visibility: inherit;" fill="rgb(0, 0, 0)" stroke="rgb(204, 204, 204)" stroke-width="1px"></line><line x1="48.33333333333333" y1="0" x2="48.33333333333333" y2="5" style="visibility: inherit;" fill="rgb(0, 0, 0)" stroke="rgb(204, 204, 204)" stroke-width="1px"></line><line x1="72.5" y1="0" x2="72.5" y2="5" style="visibility: inherit;" fill="rgb(0, 0, 0)" stroke="rgb(204, 204, 204)" stroke-width="1px"></line><line x1="96.66666666666666" y1="0" x2="96.66666666666666" y2="5" style="visibility: inherit;" fill="rgb(0, 0, 0)" stroke="rgb(204, 204, 204)" stroke-width="1px"></line><line x1="120.83333333333334" y1="0" x2="120.83333333333334" y2="5" style="visibility: inherit;" fill="rgb(0, 0, 0)" stroke="rgb(204, 204, 204)" stroke-width="1px"></line><line x1="145" y1="0" x2="145" y2="5" style="visibility: inherit;" fill="rgb(0, 0, 0)" stroke="rgb(204, 204, 204)" stroke-width="1px"></line><line x1="169.16666666666669" y1="0" x2="169.16666666666669" y2="5" style="visibility: inherit;" fill="rgb(0, 0, 0)" stroke="rgb(204, 204, 204)" stroke-width="1px"></line><line x1="193.33333333333331" y1="0" x2="193.33333333333331" y2="5" style="visibility: inherit;" fill="rgb(0, 0, 0)" stroke="rgb(204, 204, 204)" stroke-width="1px"></line><line x1="217.5" y1="0" x2="217.5" y2="5" style="visibility: inherit;" fill="rgb(0, 0, 0)" stroke="rgb(204, 204, 204)" stroke-width="1px"></line><line x1="241.66666666666669" y1="0" x2="241.66666666666669" y2="5" style="visibility: inherit;" fill="rgb(0, 0, 0)" stroke="rgb(204, 204, 204)" stroke-width="1px"></line><line x1="265.8333333333333" y1="0" x2="265.8333333333333" y2="5" style="visibility: inherit;" fill="rgb(0, 0, 0)" stroke="rgb(204, 204, 204)" stroke-width="1px"></line><line x1="290" y1="0" x2="290" y2="5" style="visibility: inherit;" fill="rgb(0, 0, 0)" stroke="rgb(204, 204, 204)" stroke-width="1px"></line></g><g transform="translate(0, 8)"><text x="0" y="0" dx="0em" dy="0.95em" style="text-anchor: middle; visibility: hidden; font-family: &quot;Helvetica Neue&quot;, sans-serif; font-size: 12px; font-weight: 200;" fill="rgb(33, 33, 33)" stroke="none" stroke-width="1px">-5k</text><text x="24.166666666666664" y="0" dx="0em" dy="0.95em" style="text-anchor: middle; visibility: inherit; font-family: &quot;Helvetica Neue&quot;, sans-serif; font-size: 12px; font-weight: 200;" fill="rgb(33, 33, 33)" stroke="none" stroke-width="1px">0</text><text x="48.33333333333333" y="0" dx="0em" dy="0.95em" style="text-anchor: middle; visibility: hidden; font-family: &quot;Helvetica Neue&quot;, sans-serif; font-size: 12px; font-weight: 200;" fill="rgb(33, 33, 33)" stroke="none" stroke-width="1px">5k</text><text x="72.5" y="0" dx="0em" dy="0.95em" style="text-anchor: middle; visibility: inherit; font-family: &quot;Helvetica Neue&quot;, sans-serif; font-size: 12px; font-weight: 200;" fill="rgb(33, 33, 33)" stroke="none" stroke-width="1px">10k</text><text x="96.66666666666666" y="0" dx="0em" dy="0.95em" style="text-anchor: middle; visibility: hidden; font-family: &quot;Helvetica Neue&quot;, sans-serif; font-size: 12px; font-weight: 200;" fill="rgb(33, 33, 33)" stroke="none" stroke-width="1px">15k</text><text x="120.83333333333334" y="0" dx="0em" dy="0.95em" style="text-anchor: middle; visibility: inherit; font-family: &quot;Helvetica Neue&quot;, sans-serif; font-size: 12px; font-weight: 200;" fill="rgb(33, 33, 33)" stroke="none" stroke-width="1px">20k</text><text x="145" y="0" dx="0em" dy="0.95em" style="text-anchor: middle; visibility: hidden; font-family: &quot;Helvetica Neue&quot;, sans-serif; font-size: 12px; font-weight: 200;" fill="rgb(33, 33, 33)" stroke="none" stroke-width="1px">25k</text><text x="169.16666666666669" y="0" dx="0em" dy="0.95em" style="text-anchor: middle; visibility: inherit; font-family: &quot;Helvetica Neue&quot;, sans-serif; font-size: 12px; font-weight: 200;" fill="rgb(33, 33, 33)" stroke="none" stroke-width="1px">30k</text><text x="193.33333333333331" y="0" dx="0em" dy="0.95em" style="text-anchor: middle; visibility: hidden; font-family: &quot;Helvetica Neue&quot;, sans-serif; font-size: 12px; font-weight: 200;" fill="rgb(33, 33, 33)" stroke="none" stroke-width="1px">35k</text><text x="217.5" y="0" dx="0em" dy="0.95em" style="text-anchor: middle; visibility: inherit; font-family: &quot;Helvetica Neue&quot;, sans-serif; font-size: 12px; font-weight: 200;" fill="rgb(33, 33, 33)" stroke="none" stroke-width="1px">40k</text><text x="241.66666666666669" y="0" dx="0em" dy="0.95em" style="text-anchor: middle; visibility: hidden; font-family: &quot;Helvetica Neue&quot;, sans-serif; font-size: 12px; font-weight: 200;" fill="rgb(33, 33, 33)" stroke="none" stroke-width="1px">45k</text><text x="265.8333333333333" y="0" dx="0em" dy="0.95em" style="text-anchor: middle; visibility: inherit; font-family: &quot;Helvetica Neue&quot;, sans-serif; font-size: 12px; font-weight: 200;" fill="rgb(33, 33, 33)" stroke="none" stroke-width="1px">50k</text><text x="290" y="0" dx="0em" dy="0.95em" style="text-anchor: middle; visibility: hidden; font-family: &quot;Helvetica Neue&quot;, sans-serif; font-size: 12px; font-weight: 200;" fill="rgb(33, 33, 33)" stroke="none" stroke-width="1px">55k</text></g><line x1="0" y1="0" x2="290" y2="0" fill="rgb(0, 0, 0)" stroke="rgb(204, 204, 204)" stroke-width="1px"></line></g></g></g></g></svg>