<svg viewBox="0 0 330 200" xmlns="http://www.w3.org/2000/svg"><g><g><g><g><g><line x1="30" y1="177" x2="25" y2="177" style="visibility: inherit;" fill="rgb(0, 0, 0)" stroke="rgb(204, 204, 204)" stroke-width="1px"></line><line x1="30" y1="154.875" x2="25" y2="154.875" style="visibility: inherit;" fill="rgb(0, 0, 0)" stroke="rgb(204, 204, 204)" stroke-width="1px"></line><line x1="30" y1="132.75" x2="25" y2="132.75" style="visibility: inherit;" fill="rgb(0, 0, 0)" stroke="rgb(204, 204, 204)" stroke-width="1px"></line><line x1="30" y1="110.625" x2="25" y2="110.625" style="visibility: inherit;" fill="rgb(0, 0, 0)" stroke="rgb(204, 204, 204)" stroke-width="1px"></line><line x1="30" y1="88.5" x2="25" y2="88.5" style="visibility: inherit;" fill="rgb(0, 0, 0)" stroke="rgb(204, 204, 204)" stroke-width="1px"></line><line x1="30" y1="66.375" x2="25" y2="66.375" style="visibility: inherit;" fill="rgb(0, 0, 0)" stroke="rgb(204, 204, 204)" stroke-width="1px"></line><line x1="30" y1="44.25" x2="25" y2="44.25" style="visibility: inherit;" fill="rgb(0, 0, 0)" stroke="rgb(204, 204, 204)" stroke-width="1px"></line><line x1="30" y1="22.125" x2="25" y2="22.125" style="visibility: inherit;" fill="rgb(0, 0, 0)" stroke="rgb(204, 204, 204)" stroke-width="1px"></line><line x1="30" y1="0" x2="25" y2="0" style="visibility: inherit;" fill="rgb(0, 0, 0)" stroke="rgb(204, 204, 204)" stroke-width="1px"></line></g><g transform="translate(20, 0)"><text x="0" y="177" dx="0em" dy="0.3em" style="text-anchor: end; visibility: hidden; font-family: &quot;Helvetica Neue&quot;, sans-serif; font-size: 12px; font-weight: 200;" fill="rgb(33, 33, 33)" stroke="none" stroke-width="1px">-2</text><text x="0" y="154.875" dx="0em" dy="0.3em" style="text-anchor: end; visibility: inherit; font-family: &quot;Helvetica Neue&quot;, sans-serif; font-size: 12px; font-weight: 200;" fill="rgb(33, 33, 33)" stroke="none" stroke-width="1px">0</text><text x="0" y="132.75" dx="0em" dy="0.3em" style="text-anchor: end; visibility: hidden; font-family: &quot;Helvetica Neue&quot;, sans-serif; font-size: 12px; font-weight: 200;" fill="rgb(33, 33, 33)" stroke="none" stroke-width="1px">2</text><text x="0" y="110.625" dx="0em" dy="0.3em" style="text-anchor: end; visibility: inherit; font-family: &quot;Helvetica Neue&quot;, sans-serif; font-size: 12px; font-weight: 200;" fill="rgb(33, 33, 33)" stroke="none" stroke-width="1px">4</text><text x="0" y="88.5" dx="0em" dy="0.3em" style="text-anchor: end; visibility: hidden; font-family: &quot;Helvetica Neue&quot;, sans-serif; font-size: 12px; font-weight: 200;" fill="rgb(33, 33, 33)" stroke="none" stroke-width="1px">6</text><text x="0" y="66.375" dx="0em" dy="0.3em" style="text-anchor: end; visibility: inherit; font-family: &quot;Helvetica Neue&quot;, sans-serif; font-size: 12px; font-weight: 200;" fill="rgb(33, 33, 33)" stroke="none" stroke-width="1px">8</text><text x="0" y="44.25" dx="0em" dy="0.3em" style="text-anchor: end; visibility: hidden; font-family: &quot;Helvetica Neue&quot;, sans-serif; font-size: 12px; font-weight: 200;" fill="rgb(33, 33, 33)" stroke="none" stroke-width="1px">10</text><text x="0" y="22.125" dx="0em" dy="0.3em" style="text-anchor: end; visibility: inherit; font-family: &quot;Helvetica Neue&quot;, sans-serif; font-size: 12px; font-weight: 200;" fill="rgb(33, 33, 33)" stroke="none" stroke-width="1px">12</text><text x="0" y="0" dx="0em" dy="0.3em" style="text-anchor: end; visibility: hidden; font-family: &quot;Helvetica Neue&quot;, sans-serif; font-size: 12px; font-weight: 200;" fill="rgb(33, 33, 33)" stroke="none" stroke-width="1px">14</text></g><line x1="30" y1="0" x2="30" y2="177" fill="rgb(0, 0, 0)" stroke="rgb(204, 204, 204)" stroke-width="1px"></line></g></g><g transform="translate(30, 0)" clip-path="url(#clip_0)"><clipPath id="clip_0"><rect width="300" height="177"></rect></clipPath><g><g><g><line x1="0" y1="0" x2="0" y2="177" fill="rgb(0, 0, 0)" stroke="rgb(66, 66, 66)" stroke-width="1px" opacity="0.25"></line><line x1="25" y1="0" x2="25" y2="177" fill="rgb(0, 0, 0)" stroke="rgb(66, 66, 66)" stroke-width="1px" opacity="0.25"></line><line x1="50" y1="0" x2="50" y2="177" fill="rgb(0, 0, 0)" stroke="rgb(66, 66, 66)" stroke-width="1px" opacity="0.25"></line><line x1="75" y1="0" x2="75" y2="177" fill="rgb(0, 0, 0)" stroke="rgb(66, 66, 66)" stroke-width="1px" opacity="0.25"></line><line x1="100" y1="0" x2="100" y2="177" fill="rgb(0, 0, 0)" stroke="rgb(66, 66, 66)" stroke-width="1px" opacity="0.25"></line><line x1="125" y1="0" x2="125" y2="177" fill="rgb(0, 0, 0)" stroke="rgb(66, 66, 66)" stroke-width="1px" opacity="0.25"></line><line x1="150" y1="0" x2="150" y2="177" fill="rgb(0, 0, 0)" stroke="rgb(66, 66, 66)" stroke-width="1px" opacity="0.25"></line><line x1="175" y1="0" x2="175" y2="177" fill="rgb(0, 0, 0)" stroke="rgb(66, 66, 66)" stroke-width="1px" opacity="0.25"></line><line x1="200" y1="0" x2="200" y2="177" fill="rgb(0, 0, 0)" stroke="rgb(66, 66, 66)" stroke-width="1px" opacity="0.25"></line><line x1="225" y1="0" x2="225" y2="177" fill="rgb(0, 0, 0)" stroke="rgb(66, 66, 66)" stroke-width="1px" opacity="0.25"></line><line x1="250" y1="0" x2="250" y2="177" fill="rgb(0, 0, 0)" stroke="rgb(66, 66, 66)" stroke-width="1px" opacity="0.25"></line><line x1="275" y1="0" x2="275" y2="177" fill="rgb(0, 0, 0)" stroke="rgb(66, 66, 66)" stroke-width="1px" opacity="0.25"></line><line x1="300" y1="0" x2="300" y2="177" fill="rgb(0, 0, 0)" stroke="rgb(66, 66, 66)" stroke-width="1px" opacity="0.25"></line></g><g><line x1="0" y1="177" x2="300" y2="177" fill="rgb(0, 0, 0)" stroke="rgb(66, 66, 66)" stroke-width="1px" opacity="0.25"></line><line x1="0" y1="154.875" x2="300" y2="154.875" fill="rgb(0, 0, 0)" stroke="rgb(66, 66, 66)" stroke-width="1px" opacity="0.25"></line><line x1="0" y1="132.75" x2="300" y2="132.75" fill="rgb(0, 0, 0)" stroke="rgb(66, 66, 66)" stroke-width="1px" opacity="0.25"></line><line x1="0" y1="110.625" x2="300" y2="110.625" fill="rgb(0, 0, 0)" stroke="rgb(66, 66, 66)" stroke-width="1px" opacity="0.25"></line><line x1="0" y1="88.5" x2="300" y2="88.5" fill="rgb(0, 0, 0)" stroke="rgb(66, 66, 66)" stroke-width="1px" opacity="0.25"></line><line x1="0" y1="66.375" x2="300" y2="66.375" fill="rgb(0, 0, 0)" stroke="rgb(66, 66, 66)" stroke-width="1px" opacity="0.25"></line><line x1="0" y1="44.25" x2="300" y2="44.25" fill="rgb(0, 0, 0)" stroke="rgb(66, 66, 66)" stroke-width="1px" opacity="0.25"></line><line x1="0" y1="22.125" x2="300" y2="22.125" fill="rgb(0, 0, 0)" stroke="rgb(66, 66, 66)" stroke-width="1px" opacity="0.25"></line><line x1="0" y1="0" x2="300" y2="0" fill="rgb(0, 0, 0)" stroke="rgb(66, 66, 66)" stroke-width="1px" opacity="0.25"></line></g></g></g><g><g><line x1="0" y1="154.875" x2="300" y2="154.875" fill="rgb(0, 0, 0)" stroke="rgb(153, 153, 153)" stroke-width="1.5px"></line></g></g><g><g><line x1="25" y1="0" x2="25" y2="177" fill="rgb(0, 0, 0)" stroke="rgb(153, 153, 153)" stroke-width="1.5px"></line></g></g><g><g><g><g><g><path stroke="rgb(255, 112, 67)" stroke-width="2px" d="M25.005,52.39183187484741L25.925,31.81208834052086L26.055,20.353442868407882L26.32,16.948829302016406L26.36,16.834604193732446L26.415000000000003,18.63183096371327L26.895,23.85262645088551L27.015,28.75921433203331L27.255,32.047668512973075L27.564999999999998,29.802143499763076L27.595,28.559565888542892L27.675,28.937437024842097L28.09,33.6744805787294L28.88,38.43285881040933L28.965,41.801104945657954L29.005,44.011955193475984L29.195,45.27861299520299L29.535,48.4117954760365L29.565,50.47362688029044L29.72,52.57596866275274L29.91,54.86501207710948L29.994999999999997,56.71057633293319L30.455000000000002,59.11152794878112L30.995,62.024579338457826L31.155,64.48661665658885L31.495,67.09519766024954L31.535,68.78369861954505L31.654999999999998,69.74368080508123L31.915,70.5501983575088L32.18,71.7551733303857L32.285,72.83279718440409L32.559999999999995,73.90040172181567L32.585,74.61990176919863L32.589999999999996,75.06960011390095L33.01,76.45359852825919L33.1,77.41551624882158L33.95,79.27746123719908L34.25,80.76151368363628L34.525,81.59215606245047L35.425,81.295415859974L36.17,82.54095374538458L36.195,83.33247684870874L36.535,84.36817924669319L36.93,85.21847075531272L36.965,85.78499754857582L37.550000000000004,85.47576021306708L37.675,84.63393891541784L38.010000000000005,84.32960039786983L38.129999999999995,84.28023140676245L38.315000000000005,84.4989385428889L38.49,84.75311278241182L38.7,85.17321019731466L39.515,86.34515672542362L40.055,87.57297935258107L40.075,88.32487129074835L40.155,88.81667256893236L40.175,89.09303759659248L40.385,89.29612984135701L40.45,89.39381086751791L41.144999999999996,89.49060634329899L41.535,89.86157829496256L41.715,90.26162338812944L41.795,90.58659078216431L42.095,91.06348679981159L42.525,91.74366773677782L42.73,92.34387321181843L42.9,92.87071427647919L42.915000000000006,93.19246950712592L42.98500000000001,93.44421663860554L43.09,93.69257832157656L43.145,93.88552773349312L43.199999999999996,94.03949268074528L43.290000000000006,94.21577386505422L43.355,94.38267362384211L43.73,94.63652519147522L43.755,94.80825872278766L44.035,95.16901478205058L44.105,95.45083424469193L44.485,95.96858938348508L44.75,96.46924203522335L44.905,96.88712289266186L45.305,97.46338077981709L45.355000000000004,97.84970878719949L45.379999999999995,98.10277443623342L45.505,98.34731265005945L45.645,98.60583205281185L45.78,98.851135833612L45.91,99.08017572376187L46.27,99.43565806515846L46.36,99.68668067912955L46.71,100.03302036798416L46.745,100.26230824635279L47.07,100.60321787980706L47.14,100.85861687652773L47.6,101.29841808553043L47.665,101.6000067000121L47.775,101.84650504616083L48.005,102.1306913496684L48.225,102.41902999887651L48.26,102.60732650047413L48.765,102.87625482848806L49.464999999999996,103.22565963966562L49.825,103.60827224911996L50.75,104.26162998355477L50.81,104.67189194248347L51.28,105.1432857602014L51.824999999999996,105.62465658719384L52.18,106.03115825018313L53.2,106.57175963020936L53.3,106.93591725168595L53.535,107.22389638029318L54.69,107.70753603936899L54.745,108.01777120686572L54.754999999999995,108.2078917757094L54.835,108.34224969955802L54.98,108.46575662381959L55.24,108.61452328495689L55.32,108.7174751003534L55.35,108.78883193969432L55.995000000000005,108.98372039222541L56.48,109.20122682466402L56.885,109.41181590207991L57.120000000000005,109.60097152023658L57.24,109.73940936344353L57.295,109.83557519684724L58.315,110.09701672417219L58.355000000000004,110.26242293847976L58.71,110.45859605034218L58.725,110.57776109552398L58.935,110.69227783784876L59.095000000000006,110.79285106006628L59.24,110.88468575443844L59.410000000000004,110.97678549865496L60.199999999999996,111.17092478143937L60.73,111.36972806374888L60.795,111.50281895709432L60.805,111.58537640877006L61.095,111.67778616969251L61.21,111.75833158388413L61.295,111.82270752605604L61.305,111.86365831623559L61.365,111.9011325224047L61.495,111.94954056047231L62.120000000000005,112.07453150452871L62.43,112.19536486209451L62.435,112.26758319104324L62.62,112.32763808348544L62.790000000000006,112.37971021758774L63.01,112.405214286013L63.175000000000004,112.42707040081237L63.635000000000005,112.50584213238844L64.155,112.6325078028553L64.63,112.77626261223037L64.685,112.87114225094723L65.28500000000001,113.0009643570495L65.4,113.09288704013302L65.425,113.14939632782622L65.665,113.21556914311222L65.95,113.27211594260675L66.1,113.32234064148034L66.945,113.41874858979085L67.06,113.48375260379134L67.065,113.52337640849483L67.07,113.547697182463L67.185,113.57712192294977L67.19500000000001,113.5963476655363L67.315,113.62471356138461L67.92,113.68297313538119L68.3,113.73733142546966L68.435,113.7744924040565L68.745,113.82946979474599L70.31,113.89697273654684L70.61,113.91055823017922L70.67,113.91554768472773L70.68,113.91746420019783L71.095,113.9422693690891L71.205,113.9656199181816L71.23,113.98167062191611L72.94500000000001,114.10681323640613L73.52,114.22270207067173L73.965,114.3185692814579L74.09,114.3804784171337L74.16,114.42176794723L74.24,114.44842484423711L74.56,114.47706423896071L74.615,114.49936147151897L74.845,114.5179262019307L75.05999999999999,114.5470127378172L75.615,114.57317053760686L76.085,114.59666590384006L76.89500000000001,114.65618624384021L77.02999999999999,114.70563141164075L77.26,114.74857571516567L77.46499999999999,114.79167703863462L77.555,114.8252794389515L77.59,114.84837378529244L77.755,114.87452433387955L77.85000000000001,114.89413821626019L78.265,114.93079088287539L78.56,114.96254652832144L79.105,115.00781566556807L79.72,115.07120908890077L79.735,115.11036977525896L80.14,115.15871781919208L80.715,115.23608372696523L80.855,115.28510701708963L80.905,115.31650756033045L81.095,115.34013126630654L81.225,115.36054477297705L81.295,115.375997973701L81.645,115.41222309066097L81.66,115.43294957872176L81.73500000000001,115.45328321812119L81.8,115.47161823962668L81.94,115.49150553616607L82.16499999999999,115.517463113503L82.27,115.53850257136604L82.28999999999999,115.551087211002L82.735,115.57778944994752L83.01,115.61251492754069L83.29,115.63961376223236L83.34,115.66014371200365L83.52499999999999,115.69222503831364L83.885,115.73831520039067L84.05,115.77618382905857L84.88499999999999,115.87935630997977L84.985,115.95272134256936L85.285,116.0336010844265L85.505,116.09706354086128L86.17,116.205919003156L88.34,116.50848434309194L88.5,116.70782248938102L88.815,116.86426499941359L88.895,116.96843998705393L89.065,117.05023042008308L89.37,117.13233257916586L89.515,117.19965762249836L90.09,117.30137148709423L90.16,117.37102655894354L90.20500000000001,117.41835941867109L90.36000000000001,117.46796045897054L91.32000000000001,117.61713678358583L91.645,117.73074515890232L92.255,117.8686637653777L92.515,117.97783112966235L92.695,118.0604046490384L92.845,118.12097775379377L93.095,118.18303518557285L93.21499999999999,118.23279041089853L93.32,118.27381179951573L93.46,118.31525930299131L93.525,118.34506205042462L93.53500000000001,118.36384572577632L93.68,118.39351411457154L94.15,118.45627090212878L94.30000000000001,118.50915709660754L94.41499999999999,118.55137659028951L94.53,118.58701460311283L94.89500000000001,118.65019343346042L95.30999999999999,118.73664243846942L95.475,118.80721703070289L95.585,118.86149175106218L95.75999999999999,118.91055576287945L95.89,118.95372924377463L95.905,118.98118418556419L95.985,119.00468346537332L96.01,119.0204425517391L96.27000000000001,119.05691661022132L97.13499999999999,119.14731183398976L97.69,119.26576062291392L98.35,119.40362630635218L98.46,119.49976006954739L98.485,119.56087435966629L98.49,119.59792378953635L98.69500000000001,119.64262182957852L99.015,119.70774461893393L99.41999999999999,119.78335301916691L99.575,119.84332245493466L100.22500000000001,119.94724836888633L100.30499999999999,120.01647936667635L100.545,120.08292656758806L100.725,120.14404685270418L100.73,120.18032550794857L100.75999999999999,120.20529779781685L100.98,120.24251006835571L101.17,120.2866517114274L101.33,120.32891320035651L101.975,120.4135000279295L102.05,120.47313735310718L102.28999999999999,120.53244313254646L102.75500000000001,120.60812512430364L103.245,120.69284897680768L103.46,120.76546275398546L103.77,120.83142238725074L103.945,120.88320981781987L104.14500000000001,120.93329236102883L104.19,120.96708503480426L104.235,120.990823156331L104.67,121.0438932756746L105.05000000000001,121.11051877022767L105.09,121.15222427058808L105.235,121.18669722562188L105.795,121.26351450136396L106.30499999999999,121.36018483788426L106.77499999999999,121.465860479776L106.995,121.55032159906861L107.065,121.60811531556985L107.13,121.64834507711734L107.38499999999999,121.69463903551105L107.425,121.72623768356326L107.55499999999999,121.7583137149029L107.625,121.78396530714112L108.3,121.8513414965062L108.945,121.94643742477825L109.06,122.0122050800081L109.065,122.05182708848452L109.415,122.09943701356015L109.44,122.12919406610347L109.58500000000001,122.15892656754028L109.625,122.17853952712161L110.21000000000001,122.24222712675537L110.215,122.28059793686751L110.60499999999999,122.3378721247666L110.695,122.3799054485889L110.75,122.41070745958876L110.88499999999999,122.43976928337807L111.175,122.4801885458493L111.31,122.51540685133122L111.80499999999999,122.57698239943971L112.295,122.64597342051022L112.325,122.68965949795813L113.09,122.76460486163003L113.42999999999999,122.83855510061565L114.045,122.91995898667324L114.25,122.97774457206339L114.365,123.01956356328732L114.415,123.0485479161859L114.63,123.08254320774796L115.15,130.29597448023748L115.35000000000001,127.49048017092105L115.55499999999999,132.5565233148787L115.735,128.87422581420262L115.935,133.45673053506565L115.98,129.43138632204267L117.38499999999999,133.47697114363987L117.50999999999999,135.87464060435104L117.71,137.2504316690529L117.835,138.1406823887208L118.255,138.6544364627468L118.635,139.05060171403093L119.10000000000001,139.27306610535146L119.23,139.45351080113983L119.455,139.61575733431778L120,139.85270578449132L120.15,139.9621982710669L120.30000000000001,139.9980440579122L120.32000000000001,140.01177141620315L120.41499999999999,140.0056814286327L120.495,140.02292439241504L120.53999999999999,140.03568454324778L120.65,140.0527401759599L120.67,140.06774902310218L120.8,140.0795384822264L120.88,140.08962102401108L121.175,140.11918180088907L121.35000000000001,140.15297487318938L121.39,140.17774555349604L121.59,140.178395499374L121.925,140.23810454880328L121.995,140.2447987298675L122.13000000000001,140.2715515911882L122.21499999999999,140.2852543455544L122.515,140.27988493217129L122.77,140.3105098651236L123.17,140.40258516945755L123.27,140.4696743343968L123.48,140.5610790881335L123.72999999999999,140.63196166651363L123.74499999999999,140.67855191705775L123.83,140.69435296939702L123.97,140.71084303550057L124.17,140.73496483500082L124.51499999999999,140.77381215831804L124.53500000000001,140.7948923876355L125.10499999999999,140.87440656545579L125.155,140.92068659915222L125.865,140.96194651516493L126.42999999999999,140.98345675046573L126.63499999999999,140.95968415722447L127.07499999999999,140.9099640869212L127.33,140.88877304036092L127.46000000000001,140.88694550775688L128.885,140.87527206351282L128.945,140.8560885239239L129.005,140.8500781267044L129.12,140.83949990625126L129.15,140.83291876348818L129.46,140.83232181985954L129.595,140.81228047740328L129.74,140.78486582715433L130.10999999999999,140.73201207565737L130.96,140.66451045720262L131.1,140.62138358562282L131.21,140.59866350179368L131.235,140.58845546117695L131.47,140.5895072893576L131.88,140.5750518546269L132.06,140.5781983110765L132.82,140.6172871454632L132.895,140.63791567767117L132.98,140.6521765034464L133.85,140.67357765084907L134.035,140.68198680249694L134.325,140.68178471248055L134.67000000000002,140.65940238428536L135.07999999999998,140.6655786209847L135.70999999999998,140.7044185741869L135.795,140.72781116629403L135.98999999999998,140.7502571991966L136.675,140.7759528220824L136.94,140.8093389934976L137.195,140.84872523943656L137.39000000000001,140.8673589140181L138.155,140.8614591604474L138.34,140.85180398798005L138.38,140.84286170289525L138.82999999999998,140.8444055413342L138.895,140.846301918932L139.03,140.84387542051564L139.07500000000002,140.83733810330924L139.105,140.83454825786052L139.15,140.83267759267864L139.41,140.84371989658104L139.47,140.85225852543488L139.48,140.85818772443758L139.48999999999998,140.86292948382274L139.57,140.86815093193755L139.94,140.88415957530918L139.99,140.89461140060774L140.11,140.90316552057476L140.335,140.90021931311256L140.39,140.90183287072637L140.465,140.90398946528708L140.525,140.90382804647132L140.64,140.91062668964292L140.715,140.92206926348823L140.85,140.92713550152192L140.965,140.93197613311892L141.355,140.93533785553626L141.655,140.9289934689513L141.835,140.92560831038423L142.29,140.90114153819243L142.755,140.91596302924728L143.42,140.96096548460827L143.84,140.99620230509584L144.655,141.04944020219887L144.765,141.08457748716023L144.79500000000002,141.1086544819173L145.01,141.14174731537682L145.435,141.1657444266378L145.65,141.19002964662903L146.175,141.223892549082L146.445,141.27367386484406L146.845,141.3200297013775L147.21,141.3721119466934L147.225,141.4028786303707L147.32,141.42703196001696L147.565,141.45943525786785L147.775,141.49767579350225L147.895,141.53289031811568L148.09,141.5691203345538L148.185,141.5991585743237L148.28,141.6248861993437L148.29,141.64092254311353L148.38,141.65530504685944L148.57000000000002,141.6777255380291L149.01,141.70512970949045L149.14,141.72144772210615L149.155,141.73266805767355L149.22,141.74232050513828L149.715,141.78319237968685L150.215,144.19658629054643L150.285,145.80036997619163L150.5,145.36402032567793L150.53,145.11090797360976L150.95499999999998,145.24622719839954L151.38000000000002,145.47362806114998L151.58499999999998,145.66226718701986L151.905,145.8410190500502L152.08,145.99148701475167L152.165,146.1141128426558L152.59500000000003,146.22348825697696L153.005,146.03744694778084L153.28,145.98730716370795L153.335,145.97511006452592L153.82500000000002,146.11976276372644L154.23,146.2337259652303L154.885,146.37297867101944L154.92499999999998,146.4410731933267L155.19,146.5240023399443L155.48,146.5623439127237L155.63000000000002,146.6230071603674L155.71,146.68112443950284L155.76,146.73139994929141L155.805,146.77231599146072L156.055,146.82638642492262L156.525,146.85495260687094L156.715,146.86417162317883L156.845,146.8796219000152L156.87,146.88590245359725L157.005,146.88387829609863L157.13000000000002,146.90335555999368L157.19,146.9225039489799L157.385,146.96956660197577L158.095,146.93945439515352L158.115,146.9257049313655L158.195,146.920455151884L158.29999999999998,146.93868437653077L158.47,146.94206756797607L158.5,146.94891277669177L158.62500000000003,146.9547158179778L158.85999999999999,146.97177209246743L159.285,146.98260404341573L160.1,146.98913090779277L160.155,147.00410054835018L161.02499999999998,147.03228099919758L161.095,147.0432833673203L161.15,147.05295115212465L161.245,147.06660736948172L161.36,147.0562697222824L161.39000000000001,147.0532843632099L161.965,147.0698217012046L162.1,147.07018683895816L162.25000000000003,147.04964004931063L162.475,147.05361202345614L162.54999999999998,147.06107293359236L162.765,147.08032715941545L163.11499999999998,147.10844270214483L163.22,147.1329201762381L163.41,147.1448681387009L163.535,147.16671173320424L163.65,147.19497299668913L165,147.21418244825438L165.31,147.22924211285493L165.675,147.24391848094453L165.68,147.25316555647368L166.605,147.2970620772142L166.945,147.31658282911172L167.21,147.31194037220115L167.37499999999997,147.3135386959984L167.395,147.31534195579732L167.625,147.31352713935163L167.655,147.30767016698474L167.785,147.28181182795495L167.89,147.26325789066394L168.20999999999998,147.23890028430367L168.615,147.25393471141663L169.3,147.30024811339382L169.365,147.3336390075803L169.42499999999998,147.36048147336962L169.555,147.38676772419404L169.79,147.4078841158974L170.14000000000001,147.43965160097048L170.145,147.4593437745891L170.22,147.4713895967437L170.39499999999998,147.46807155167062L170.48000000000002,147.47532069775463L170.555,147.4711797913492L170.83,147.47084085825563L170.84,147.47137547244716L170.865,147.47406841343692L171.15,147.49523284152778L171.29,147.50573366502303L171.455,147.5216220192276L171.5,147.5353950856425L171.85,147.5664788870989L171.92499999999998,147.58567302161327L172.01000000000002,147.59277906557244L172.37,147.58353839987709L172.48,147.57429147019502L173.14000000000001,147.56511278602193L173.255,147.5613977605266L173.495,147.5460827615358L173.52,147.53498051562892L173.98999999999998,147.5407594904243L174,147.54497408061857L174.02499999999998,147.54808361345312L174.11,147.55254147359003L174.23499999999999,147.5639959180848L174.425,147.57441233721352L174.795,147.56858030335292L175.21499999999997,147.56212232933154L175.64000000000001,147.56212520555084L175.88000000000002,147.56378750476495L176.1,147.55798961504254L176.17000000000002,147.5544794948933L176.29500000000002,147.56033789825662L176.465,147.57236707188025L176.555,147.581962814792L176.565,147.58463358781577L176.845,147.57272964955473L177.265,147.5594331949419L177.325,147.5536826955954L178.385,147.5718586225915L178.85999999999999,147.55950955627011L179.005,147.5546065379837L179.085,147.5531185200607L179.235,147.55754450296135L179.25,147.55950220873817L179.29,147.55953742981472L179.67499999999998,147.56484333229375L180.75500000000002,147.60266127766556L180.91,147.62622822422617L181.335,147.64551442920464L181.705,147.65264380162537L182.54000000000002,147.6792695369457L183.25,147.70999285406677L183.26,147.72918618218188L183.965,147.73890788403799L184.18,147.7489105376461L184.465,147.76065556185597L185.7,147.78344426439497L185.76999999999998,147.79907477877313L186.005,147.81342320282326L186.3,147.82548686199823L186.39999999999998,147.83274747630023L186.41,147.83715659499205L186.665,147.84463160258554L186.975,147.85016765309587L187.25,147.85571481056937L187.89,147.8725352645989L188.16,147.87812979883407L188.33,147.88411584863934L188.37,147.8884625963561L188.375,147.8913030092235L188.63500000000002,147.89468734796736L188.80499999999998,147.90023902109797L188.83499999999998,147.9037717941495L189.29,147.90112654048752L189.52,147.89693353282541L190.15,147.90706113849362L190.225,147.9148676417725L190.26,147.92000624969344L190.285,147.92397825381005L190.35,147.92420529550816L190.37500000000003,147.92460025981967L190.575,147.92741619131507L190.57999999999998,147.92938796330418L190.64,147.9330365666683L190.79,147.93646667503927L190.81,147.93946870329148L191.15,147.94605277277333L191.20999999999998,147.95023584245027L191.575,147.9573457576536L191.725,147.9606144659342L192.79,147.9792370770944L192.83,147.99133456197816L192.9,147.99973984031342L193.115,148.00457385312595L193.17000000000002,148.00645143616842L193.185,148.0081563909569L193.295,148.00852209745162L193.47,148.01051287006325L193.92499999999998,148.0080116608798L194.415,148.01351456755754L194.97,148.02247692593548L195.24,148.02609195976623L195.38,148.02484514665107L195.995,148.02885591001214L196.325,148.03375375575365L196.625,148.03565882478082L197.03500000000003,148.03475173314766L197.12,148.03458490520927L197.215,148.03576716363557L197.395,148.03847864914016L197.60999999999999,148.04356911270665L197.845,148.0514202221563L197.985,148.05762872721735L198.075,148.06098431572906L198.135,148.0634734748339L198.58,148.07125109097572L198.76,148.07319390869864L198.9,148.07488683668808L199.135,148.07563145791315L199.25,148.07892040660872L199.355,148.08418459147748L199.385,148.08750346273504L199.455,148.09144706708383L200.06500000000003,148.09452482868548L200.155,148.0953921798427L200.4,148.09650286427492L200.45000000000002,148.09774451489062L200.505,148.098735057025L200.555,148.10048592848113L200.63,148.1026407749208L201.63500000000002,148.11035521750165L201.69,148.1141710038454L201.94,148.12254862966958L202.125,148.13156205852522L202.635,148.14465290570078L202.995,148.15051266857276L203.175,148.15838093792374L203.29999999999998,148.16421809187517L203.38000000000002,148.16782008195509L203.435,148.17107663205022L203.555,148.17340904415104L203.64499999999998,148.1766972091225L203.69000000000003,148.17819087335033L204.125,148.18575204836466L204.57,148.18998306648217L204.675,148.19202556256224L205.12,148.19816631551845L205.35,148.2021200566069L205.69,148.20816581896398L205.91,148.21098118842514L206.295,148.2065553535275L206.325,148.2038734775336L207.025,148.19303651133487L207.27999999999997,148.19095610963888L207.435,148.19016784958592L207.51,148.19032367487281L207.58999999999997,148.19121580671984L207.71,148.19334941418003L207.89,148.19774869269747L207.91,148.2002983208693L207.995,148.20162949360594L208.20999999999998,148.20273071913232L208.51,148.2015037917394L208.515,148.20098470200887L208.645,148.19952197700616L209.865,148.21027864265366L210.115,148.218106782424L210.19,148.22358542292568L210.4,148.2298804185346L210.425,148.233722298536L210.875,148.2393694097956L211.825,148.23407738209724L212.135,148.23038204938746L212.14,148.22829408753262L212.22,148.22881318663565L212.39499999999998,148.23370177319651L212.51500000000001,148.23889737737778L212.575,148.24370221592545L212.59,148.246922192261L213,148.24750825898968L213.02999999999997,148.2484393589921L213.13,148.2496043815152L213.64999999999998,148.25386323624468L213.715,148.25801318492663L213.79,148.26204055610998L214.31,148.2619819436294L214.38,148.26221738420855L214.475,148.2613822440084L214.66,148.26258076845264L215.16,148.26658225875292L215.59,148.27085288060422L215.78000000000003,148.26922161992022L215.805,148.26821253219623L216.10000000000002,148.26491998892652L216.16,148.26165287650602L216.345,148.26249469493018L216.395,148.2627811367761L216.805,148.26899948331422L217.265,148.27285735525314L217.5,148.2789998901941L217.59500000000003,148.28195323962316L217.71,148.2841203476092L217.785,148.28546360374096L217.81,148.2855268358624L218.33,148.28649238583066L219.175,148.292916428069L219.845,148.29534264416677L220.21,148.29425186223497L220.33,148.29298944805092L221.80999999999997,148.29953076859726L221.99,148.30607645017156L222.035,148.31035622985513L222.045,148.3126687871298L222.315,148.31257298838383L222.355,148.31132282913498L222.615,148.3107452264474L223.095,148.3022535202531L223.41,148.29248430923388L224.73499999999999,148.28780517635207L224.825,148.28529283349192L224.82999999999998,148.2838671904473L224.91,148.28178773830345L225.125,148.28035069412L225.24,148.27932599726918L225.54000000000002,148.2793718742943L225.775,148.278811764277L225.9,148.27746157738983L226.005,148.27495132919205L226.82,148.27349819413453L227.16,148.27326485318918L227.755,148.26910634519444L227.80499999999998,148.2676675613629L227.83999999999997,148.26748925125045L227.94500000000002,148.26968639001515L228.23000000000002,148.27060588243762L228.715,148.27037212874387L228.97,148.26870713457998L229.10000000000002,148.26881167039596L229.16500000000002,148.26910385486676L229.255,148.26851138768907L229.64999999999998,148.26466015755128L230.305,148.24125359522694L230.445,148.22012584547636L230.58999999999997,148.205758818331L230.615,148.19728234609522L230.975,148.19283553034398L231.35999999999999,148.19567692619762L231.875,148.19892945195556L232.065,148.2010787803252L232.07,148.2024630637955L232.345,148.2048700709338L232.39,148.20537954325647L232.76000000000002,148.20644931200246L232.95499999999998,148.2090758961624L233.705,148.2124991555325L233.85,148.21411027397582L233.97,148.21744252375288L234.09,148.21997464973643L234.345,148.2252544807131L234.42499999999998,148.22936924378484L234.505,148.2317497451926L234.60500000000002,148.23491115092185L235.11499999999998,148.2373162416753L235.16500000000002,148.23834916401725L235.725,148.24044196426166L235.92499999999998,148.2437746800142L236.115,148.24773028356776L236.52,148.2508532247719L236.745,148.2541931788192L236.78,148.25657589704193L237.06,148.25438476038215L237.155,148.24900911111973L237.665,148.24486085837688L237.7,148.2424599994159L237.83499999999998,148.24241050445653L238.51000000000002,148.247499150715L238.915,148.25078575770956L239.06500000000003,148.25179898864567L239.225,148.2525833763274L239.26,148.25347073481038L239.38000000000002,148.2559156051609L239.48000000000002,148.25905259587367L239.95999999999998,148.2662488364458L240.035,148.26893660237073L240.04500000000002,148.27079982495118L240.125,148.27335599026566L240.58,148.27838543928556L241.05,148.28365870342785L241.1,148.28679391310294L241.345,148.28994710782575L241.645,148.29108759933357L242.735,148.28827245189933L242.825,148.28745558651798L243.345,148.2884622516782L243.415,148.28888690039818L243.565,148.2916605074126L243.695,148.2935797184061L243.785,148.29561349060242L243.85999999999999,148.29717135462823L244.095,148.29809631427327L244.53,148.2989786044967L244.7,148.3005883008964L244.70499999999998,148.3016830927567L244.93,148.30335250624634L245.195,148.30565286206377L245.225,148.3073210911582L245.285,148.30791321525754L245.41500000000002,148.31007966476548L245.425,148.31142410831373L245.595,148.31434526262714L245.81,148.31744703929445L245.96499999999997,148.321307070737L246.195,148.3250188575297L246.56,148.33003746545967L246.64000000000001,148.3333785821596L247.24,148.33757317302224L247.365,148.34044493578432L247.54000000000002,148.34478703643416L247.88000000000002,148.35019253644666L248.23000000000002,148.35535594048096L248.565,148.35857926441426L248.635,148.36147911329982L248.9,148.3661366312499L249.58499999999998,148.3697123711583L249.605,148.37175152363045L249.61499999999998,148.373053349028L249.97000000000003,148.37979705302118L250.465,148.386851086725L250.54,148.39244287729812L250.785,148.39725807470413L250.85,148.399622329547L250.855,148.40112132637142L251.005,148.40295994018578L251.465,148.4071835412685L251.9,148.41371141279362L252,148.41900755110157L252.315,148.42505642260775L252.685,148.4294878109435L252.71,148.43222497785925L252.76500000000001,148.4343641840508L253.365,148.43648986328188L253.575,148.43803165887917L253.80499999999998,148.43859117797092L254.73499999999999,148.43944120300458L255.54,148.4363821455398L255.6,148.43529048762076L255.89,148.43459593028635L255.96499999999997,148.43431529117115L256.075,148.43505763836197L256.4,148.4387577285021L256.43,148.44135652838048L256.705,148.44495486383377L256.775,148.4482411349698L256.815,148.45045475690867L256.84,148.45187102275673L257.185,148.45243566791763L257.68,148.45441603845686L258.15500000000003,148.4557000022312L258.195,148.45617946363566L258.375,148.45717478321242L258.47,148.45908729896692L258.52,148.4600886906132L259.06,148.46115319907338L259.27,148.46327470975916L259.66,148.46664707057357L260.38,148.47154774184634L260.52,148.47473105886942L260.73,148.47764277368407L260.835,148.4804395297743L261.14500000000004,148.48343897369963L261.195,148.48490947936455L261.26,148.48584637912796L261.3,148.48637423141412L261.855,148.48992768957385L262.055,148.49428713789086L262.12,148.4975616557628L262.265,148.50027594555795L262.31,148.5025828858577L262.66,148.50332376243847L263.485,148.5039204724561L263.51,148.50464141922777L263.625,148.5039736199831L264.09,148.5039999525818L264.2,148.50285393095453L264.865,148.5076351856973L265.15500000000003,148.51193293903984L265.235,148.5149908258004L265.69,148.52145596256753L265.81,148.52566789782583L266.01,148.52745998618923L266.08,148.52916349302484L266.145,148.53006453562233L266.25,148.53146762548954L266.26,148.53242895841043L266.73,148.53416968935397L267.05,148.53532279314797L267.175,148.53633959610582L267.195,148.5373054773767L267.655,148.54197182096L267.76,148.5449617912588L267.91,148.54783213944538L268.15500000000003,148.55188168323818L268.6,148.557667899053L268.645,148.56150123055022L269.485,148.56509149715447L269.505,148.5676054128715L269.53499999999997,148.56909899227074L269.83,148.57221829332263L270.09499999999997,148.57597305290312L270.11,148.57842926032788L270.295,148.58188216893342L270.58,148.5853375494985L270.675,148.58761808577228L271.02,148.5904183092895L271.685,148.59796399195093L271.815,148.60336889963804L271.925,148.60772961909447L272.12,148.61169117858933L272.265,148.61381201249912L272.315,148.6157080191526L272.32,148.61694373835047L272.63,148.61770653366398L272.64000000000004,148.61799409174532L272.985,148.6189518119908L273,148.61851047700742L273.005,148.61826018229783L273.22999999999996,148.6202189548949L273.345,148.6220781236374L273.445,148.6245556327393L274.02,148.63078410939517L274.225,148.63649932453717L274.49,148.64209173565916L274.56,148.64644442317373L274.97499999999997,148.6505122024863L275,148.65328915202912" style="fill: none;" fill="none"></path></g></g></g></g><g opacity="0.2"><g><g><g><path stroke="rgb(255, 112, 67)" stroke-width="2px" d="M25.005,52.39183187484741L25.925,19.464242219924927L26.055,9.353143215179443L26.32,12.945003747940063L26.36,16.685471892356873L26.415000000000003,21.118042588233948L26.895,31.318447530269623L27.015,35.91306656599045L27.255,36.897499680519104L27.564999999999998,26.467800557613373L27.595,26.706969559192657L27.675,29.502187371253967L28.09,40.76457864046097L28.88,45.561103999614716L28.965,46.84951490163803L29.005,47.32667130231857L29.195,47.178063690662384L29.535,53.1107736825943L29.565,53.56605988740921L29.72,55.729289174079895L29.91,58.2984516620636L29.994999999999997,59.47886198759079L30.455000000000002,62.71290796995163L30.995,66.394121915102L31.155,68.17965513467789L31.495,71.00805804133415L31.535,71.31644573807716L31.654999999999998,71.18365260958672L31.915,71.75997394323349L32.18,73.5626351237297L32.285,74.44923260807991L32.559999999999995,75.50180831551552L32.585,75.69915175437927L32.589999999999996,75.74414759874344L33.01,78.52959609031677L33.1,78.85839280486107L33.95,82.07037869095802L34.25,82.98759233951569L34.525,82.83811962604523L35.425,80.85030555725098L36.17,84.40926057100296L36.195,84.51976150274277L36.535,85.92173284292221L36.93,86.49390801787376L36.965,86.63478773832321L37.550000000000004,85.01190420985222L37.675,83.37120696902275L38.010000000000005,83.87309262156487L38.129999999999995,84.20617792010307L38.315000000000005,84.82699924707413L38.49,85.13437414169312L38.7,85.80335631966591L39.515,88.10307651758194L40.055,89.41471329331398L40.075,89.45270919799805L40.155,89.55437448620796L40.175,89.5075851380825L40.385,89.60076820850372L40.45,89.54033240675926L41.144999999999996,89.6357995569706L41.535,90.41803622245789L41.715,90.86169102787971L41.795,91.07404187321663L42.095,91.7788308262825L42.525,92.76393914222717L42.73,93.24418142437935L42.9,93.6609758734703L42.915000000000006,93.67510235309601L42.98500000000001,93.82183733582497L43.09,94.0651208460331L43.145,94.17495185136795L43.199999999999996,94.27044010162354L43.290000000000006,94.48019564151764L43.355,94.63302326202393L43.73,95.01730254292488L43.755,95.06585901975632L44.035,95.71014887094498L44.105,95.87356343865395L44.485,96.7452220916748L44.75,97.22022101283073L44.905,97.51394417881966L45.305,98.32776761054993L45.355000000000004,98.42920079827309L45.379999999999995,98.48237290978432L45.505,98.71411997079849L45.645,98.99361115694046L45.78,99.21909150481224L45.91,99.42373555898666L46.27,99.96888157725334L46.36,100.06321460008621L46.71,100.5525299012661L46.745,100.60624006390572L47.07,101.11458232998848L47.14,101.24171537160873L47.6,101.9581198990345L47.665,102.05238962173462L47.775,102.21625256538391L48.005,102.55697080492973L48.225,102.85153797268867L48.26,102.88977125287056L48.765,103.27964732050896L49.464999999999996,103.74976685643196L49.825,104.18219116330147L50.75,105.24166658520699L50.81,105.28728488087654L51.28,105.85037648677826L51.824999999999996,106.3467128276825L52.18,106.64091074466705L53.2,107.38266170024872L53.3,107.48215368390083L53.535,107.65586507320404L54.69,108.43299552798271L54.745,108.48312395811081L54.754999999999995,108.49307262897491L54.835,108.54378658533096L54.98,108.65101701021194L55.24,108.83767327666283L55.32,108.87190282344818L55.35,108.89586719870567L55.995000000000005,109.27605307102203L56.48,109.52748647332191L56.885,109.72769951820374L57.120000000000005,109.88470494747162L57.24,109.94706612825394L57.295,109.97982394695282L58.315,110.4891790151596L58.355000000000004,110.5105322599411L58.71,110.75285571813583L58.725,110.7565086632967L58.935,110.8640529513359L59.095000000000006,110.94371089339256L59.24,111.02243779599667L59.410000000000004,111.11493511497974L60.199999999999996,111.462133705616L60.73,111.66793298721313L60.795,111.70245529711246L60.805,111.70921258628368L61.095,111.81640081107616L61.21,111.87914970517159L61.295,111.91927143931389L61.305,111.9250845015049L61.365,111.95734383165836L61.495,112.02215261757374L62.120000000000005,112.26201792061329L62.43,112.37661489844322L62.435,112.37591068446636L62.62,112.4177204221487L62.790000000000006,112.45781841874123L63.01,112.4434703886509L63.175000000000004,112.4598545730114L63.635000000000005,112.62399972975254L64.155,112.8225063085556L64.63,112.99189482629299L64.685,113.01346170902252L65.28500000000001,113.19569751620293L65.4,113.2307710647583L65.425,113.23416025936604L65.665,113.31482836604118L65.95,113.35693614184856L66.1,113.39767768979073L66.945,113.56336051225662L67.06,113.5812586247921L67.065,113.58281211555004L67.07,113.58417834341526L67.185,113.62125903367996L67.19500000000001,113.62518627941608L67.315,113.66726240515709L67.92,113.77036249637604L68.3,113.81886886060238L68.435,113.8302338719368L68.745,113.91193588078022L70.31,113.99822714924812L70.61,113.93093647062778L70.67,113.92303186655045L70.68,113.92033897340298L71.095,113.97947712242603L71.205,114.00064574182034L71.23,114.00574667751789L72.94500000000001,114.29452715814114L73.52,114.39653532207012L73.965,114.46237009763718L74.09,114.47334212064743L74.16,114.48370224237442L74.24,114.48841018974781L74.56,114.5200233310461L74.615,114.53280732035637L74.845,114.5457732975483L75.05999999999999,114.59064254164696L75.615,114.61240723729134L76.085,114.63190895318985L76.89500000000001,114.74546675384045L77.02999999999999,114.77979916334152L77.26,114.81299217045307L77.46499999999999,114.85632902383804L77.555,114.8756830394268L77.59,114.88301530480385L77.755,114.91375015676022L77.85000000000001,114.92355903983116L78.265,114.9857698827982L78.56,115.01017999649048L79.105,115.07571937143803L79.72,115.16629922389984L79.735,115.16911080479622L80.14,115.23123988509178L80.715,115.35213258862495L80.855,115.35864195227623L80.905,115.36360837519169L81.095,115.37556682527065L81.225,115.39116503298283L81.295,115.39917777478695L81.645,115.46656076610088L81.66,115.46403931081295L81.73500000000001,115.48378367722034L81.8,115.49912077188492L81.94,115.52133648097515L82.16499999999999,115.5563994795084L82.27,115.57006175816059L82.28999999999999,115.56996417045593L82.735,115.61784280836582L83.01,115.66460314393044L83.29,115.68026201426983L83.34,115.69093863666058L83.52499999999999,115.74034702777863L83.885,115.80745044350624L84.05,115.8329867720604L84.88499999999999,116.03411503136158L84.985,116.06276889145374L85.285,116.15492069721222L85.505,116.19225722551346L86.17,116.36920219659805L88.34,116.96233235299587L88.5,117.00682970881462L88.815,117.09892876446247L88.895,117.12470246851444L89.065,117.17291606962681L89.37,117.25548581779003L89.515,117.30064518749714L90.09,117.453942283988L90.16,117.47550916671753L90.20500000000001,117.48935870826244L90.36000000000001,117.54236201941967L91.32000000000001,117.84090127050877L91.645,117.9011577218771L92.255,118.07554167509079L92.515,118.14158217608929L92.695,118.1842649281025L92.845,118.21183741092682L93.095,118.27612133324146L93.21499999999999,118.30742324888706L93.32,118.33534388244152L93.46,118.37743055820465L93.525,118.38976617157459L93.53500000000001,118.39202123880386L93.68,118.4380166977644L94.15,118.55040608346462L94.30000000000001,118.58848638832569L94.41499999999999,118.61470583081245L94.53,118.64047162234783L94.89500000000001,118.74496167898178L95.30999999999999,118.86631594598293L95.475,118.91307891905308L95.585,118.94290383160114L95.75999999999999,118.98415178060532L95.89,119.01848946511745L95.905,119.02236659824848L95.985,119.03993238508701L96.01,119.04408118128777L96.27000000000001,119.11162769794464L97.13499999999999,119.28290466964245L97.69,119.44343380630016L98.35,119.61042483150959L98.46,119.64396071434021L98.485,119.65254579484463L98.49,119.65349793434143L98.69500000000001,119.70966888964176L99.015,119.80542880296707L99.41999999999999,119.89676561951637L99.575,119.93327660858631L100.22500000000001,120.1031372398138L100.30499999999999,120.12032586336136L100.545,120.18259736895561L100.725,120.23572728037834L100.73,120.23474349081516L100.75999999999999,120.24275623261929L100.98,120.29832847416401L101.17,120.35286417603493L101.33,120.39230543375015L101.975,120.54038026928902L102.05,120.56259334087372L102.28999999999999,120.62140180170536L102.75500000000001,120.72164811193943L103.245,120.81993475556374L103.46,120.87438341975212L103.77,120.93036183714867L103.945,120.96089096367359L104.14500000000001,121.00841617584229L104.19,121.01777404546738L104.235,121.02643033862114L104.67,121.12349845468998L105.05000000000001,121.2104570120573L105.09,121.21478252112865L105.235,121.23840665817261L105.795,121.37874041497707L106.30499999999999,121.50519034266472L106.77499999999999,121.6243739426136L106.995,121.67701327800751L107.065,121.69480589032173L107.13,121.70868971943855L107.38499999999999,121.76407997310162L107.425,121.77363565564156L107.55499999999999,121.80642776191235L107.625,121.82244269549847L108.3,121.95240578055382L108.945,122.08908131718636L109.06,122.11085656285286L109.065,122.11126010119915L109.415,122.17085190117359L109.44,122.17382964491844L109.58500000000001,122.20352531969547L109.625,122.2079589664936L110.21000000000001,122.33775852620602L110.215,122.33815415203571L110.60499999999999,122.42378340661526L110.695,122.44295543432236L110.75,122.45691047608852L110.88499999999999,122.48336201906204L111.175,122.54081743955612L111.31,122.5682343095541L111.80499999999999,122.66934572160244L112.295,122.74945995211601L112.325,122.75518861413002L113.09,122.87702290713787L113.42999999999999,122.94948045909405L114.045,123.04206481575966L114.25,123.06442295014858L114.365,123.08229205012321L114.415,123.09202444553375L114.63,123.13353614509106L115.15,141.1161213889718L115.35000000000001,123.28223870694637L115.55499999999999,140.15558803081512L115.735,123.35077956318855L115.935,140.3304876163602L115.98,123.39337000250816L117.38499999999999,139.5453483760357L117.50999999999999,139.47114479541779L117.71,139.31411826610565L117.835,139.47605846822262L118.255,139.42506757378578L118.635,139.64484959095716L119.10000000000001,139.60676269233227L119.23,139.7241778448224L119.455,139.8591271340847L120,140.2081284597516L120.15,140.1264370009303L120.30000000000001,140.05181273818016L120.32000000000001,140.0323624536395L120.41499999999999,139.99654644727707L120.495,140.0487888380885L120.53999999999999,140.05482476949692L120.65,140.07832362502813L120.67,140.0902622938156L120.8,140.09722267091274L120.88,140.10474483668804L121.175,140.16352296620607L121.35000000000001,140.20366448163986L121.39,140.214901573956L121.59,140.17937041819096L121.925,140.32766812294722L121.995,140.2548400014639L122.13000000000001,140.31168088316917L122.21499999999999,140.3058084771037L122.515,140.2718308120966L122.77,140.35644726455212L123.17,140.54069812595844L123.27,140.5703080818057L123.48,140.69818621873856L123.72999999999999,140.73828553408384L123.74499999999999,140.74843729287386L123.83,140.71805454790592L123.97,140.73557813465595L124.17,140.7711475342512L124.51499999999999,140.83208314329386L124.53500000000001,140.82651273161173L125.10499999999999,140.99367783218622L125.155,140.99010664969683L125.865,141.023836389184L126.42999999999999,141.01572210341692L126.63499999999999,140.9240252673626L127.07499999999999,140.8353839814663L127.33,140.8569864705205L127.46000000000001,140.88420420885086L128.885,140.8577618971467L128.945,140.82731321454048L129.005,140.8410625308752L129.12,140.82363257557154L129.15,140.8230470493436L129.46,140.83142640441656L129.595,140.7822184637189L129.74,140.7437438517809L130.10999999999999,140.65273144841194L130.96,140.5632580295205L131.1,140.55669327825308L131.21,140.56458337605L131.235,140.57314340025187L131.47,140.5910850316286L131.88,140.55336870253086L132.06,140.5829179957509L132.82,140.67592039704323L132.895,140.66885847598314L132.98,140.6735677421093L133.85,140.705679371953L134.035,140.69460052996874L134.325,140.681481577456L134.67000000000002,140.62582889199257L135.07999999999998,140.6748429760337L135.70999999999998,140.76267850399017L135.795,140.7629000544548L135.98999999999998,140.78392624855042L136.675,140.81449625641108L136.94,140.85941825062037L137.195,140.90780460834503L137.39000000000001,140.89530942589045L138.155,140.85260953009129L138.34,140.83732122927904L138.38,140.82944827526808L138.82999999999998,140.84672129899263L138.895,140.84914648532867L139.03,140.84023567289114L139.07500000000002,140.82753212749958L139.105,140.83036348968744L139.15,140.82987159490585L139.41,140.86028335243464L139.47,140.86506646871567L139.48,140.8670815229416L139.48999999999998,140.8700421229005L139.57,140.87598310410976L139.94,140.90817254036665L139.99,140.91028913855553L140.11,140.91599670052528L140.335,140.89580000191927L140.39,140.90425320714712L140.465,140.90722435712814L140.525,140.9035859182477L140.64,140.92082465440035L140.715,140.93923312425613L140.85,140.93473485857248L140.965,140.93923708051443L141.355,140.94038043916225L141.655,140.91947688907385L141.835,140.9205305725336L142.29,140.86444137990475L142.755,140.93819526582956L143.42,141.02846916764975L143.84,141.04905753582716L144.655,141.12929704785347L144.765,141.13728341460228L144.79500000000002,141.1447699740529L145.01,141.19138656556606L145.435,141.20174009352922L145.65,141.2264574766159L146.175,141.27468690276146L146.445,141.34834583848715L146.845,141.3895634561777L147.21,141.45023531466722L147.225,141.44902865588665L147.32,141.46326195448637L147.565,141.5080402046442L147.775,141.55503659695387L147.895,141.58571210503578L148.09,141.62346535921097L148.185,141.64421593397856L148.28,141.66347763687372L148.29,141.66497705876827L148.38,141.6768788024783L148.57000000000002,141.7113562747836L149.01,141.74623596668243L149.14,141.74592474102974L149.155,141.74949856102467L149.22,141.75679917633533L149.715,141.84450019150972L150.215,147.8166771568358L150.285,148.20604550465941L150.5,144.7094958499074L150.53,144.73123944550753L150.95499999999998,145.4492060355842L151.38000000000002,145.81472935527563L151.58499999999998,145.9452258758247L151.905,146.10914684459567L152.08,146.2171889618039L152.165,146.298051584512L152.59500000000003,146.38755137845874L153.005,145.75838498398662L153.28,145.91209748759866L153.335,145.9568144157529L153.82500000000002,146.33674181252718L154.23,146.4046707674861L154.885,146.5818577297032L154.92499999999998,146.54321497678757L155.19,146.64839605987072L155.48,146.6198562718928L155.63000000000002,146.71400203183293L155.71,146.76830035820603L155.76,146.80681321397424L155.805,146.83369005471468L156.055,146.90749207511544L156.525,146.8978018797934L156.715,146.8780001476407L156.845,146.9027973152697L156.87,146.89532328397036L157.005,146.8808420598507L157.13000000000002,146.9325714558363L157.19,146.95122653245926L157.385,147.04016058146954L158.095,146.89428608492017L158.115,146.90508073568344L158.195,146.91258048266172L158.29999999999998,146.96602821350098L158.47,146.94714235514402L158.5,146.9591805897653L158.62500000000003,146.9634203799069L158.85999999999999,146.9973565042019L159.285,146.99885196983814L160.1,146.99892120435834L160.155,147.02655500918627L161.02499999999998,147.07455167546868L161.095,147.0597869195044L161.15,147.06745282933116L161.245,147.0870916955173L161.36,147.04076325148344L161.39000000000001,147.04880632460117L161.965,147.09462770819664L162.1,147.0707345455885L162.25000000000003,147.01881986483932L162.475,147.05956998467445L162.54999999999998,147.07226429879665L162.765,147.1092084981501L163.11499999999998,147.15061601623893L163.22,147.16963638737798L163.41,147.16279008239508L163.535,147.19947712495923L163.65,147.2373648919165L165,147.24299662560225L165.31,147.25183160975575L165.675,147.2659330330789L165.68,147.26703616976738L166.605,147.362906858325L166.945,147.34586395695806L167.21,147.3049766868353L167.37499999999997,147.31593618169427L167.395,147.3180468454957L167.625,147.3108049146831L167.655,147.29888470843434L167.785,147.24302431941032L167.89,147.23542698472738L168.20999999999998,147.20236387476325L168.615,147.27648635208607L169.3,147.36971821635962L169.365,147.38372534886003L169.42499999999998,147.40074517205358L169.555,147.42619710043073L169.79,147.43955870345235L170.14000000000001,147.48730282858014L170.145,147.488882035017L170.22,147.4894583299756L170.39499999999998,147.463094484061L170.48000000000002,147.4861944168806L170.555,147.464968431741L170.83,147.4703324586153L170.84,147.47217739373446L170.865,147.4781078249216L171.15,147.52697948366404L171.29,147.52148490026593L171.455,147.5454545505345L171.5,147.55605468526483L171.85,147.61310458928347L171.92499999999998,147.61446422338486L172.01000000000002,147.6034381315112L172.37,147.56967740133405L172.48,147.5604210756719L173.14000000000001,147.5513447597623L173.255,147.5558252222836L173.495,147.5231102630496L173.52,147.51832714676857L173.98999999999998,147.5494279526174L174,147.55129596590996L174.02499999999998,147.55274791270494L174.11,147.55922826379538L174.23499999999999,147.58117758482695L174.425,147.59003696590662L174.795,147.55983225256205L175.21499999999997,147.55243536829948L175.64000000000001,147.56212951987982L175.88000000000002,147.5662809535861L176.1,147.54929278045893L176.17000000000002,147.54921431466937L176.29500000000002,147.56912550330162L176.465,147.59041083231568L176.555,147.59635642915964L176.565,147.5886397473514L176.845,147.55487374216318L177.265,147.53948851302266L177.325,147.54505694657564L178.385,147.5991225130856L178.85999999999999,147.54098595678806L179.005,147.54725201055408L179.085,147.55088649317622L179.235,147.56418347731233L179.25,147.56243876740336L179.29,147.55959026142955L179.67499999999998,147.57280218601227L180.75500000000002,147.6593881957233L180.91,147.66157864406705L181.335,147.6744437366724L181.705,147.66333786025643L182.54000000000002,147.7192081399262L183.25,147.7560778297484L183.26,147.75797617435455L183.965,147.75349043682218L184.18,147.7639145180583L184.465,147.77827309817076L185.7,147.81762731820345L185.76999999999998,147.8225205503404L186.005,147.83494583889842L186.3,147.8435823507607L186.39999999999998,147.84363839775324L186.41,147.8437702730298L186.665,147.85584411397576L186.975,147.85847172886133L187.25,147.86403554677963L187.89,147.8977659456432L188.16,147.88652160018682L188.33,147.89309492334723L188.37,147.89498271793127L188.375,147.89556362852454L188.63500000000002,147.89976385608315L188.80499999999998,147.9085665307939L188.83499999999998,147.90907095372677L189.29,147.8971586599946L189.52,147.89064402133226L190.15,147.92225254699588L190.225,147.92657739669085L190.26,147.92771416157484L190.285,147.92993625998497L190.35,147.92454585805535L190.37500000000003,147.9251927062869L190.575,147.9316400885582L190.57999999999998,147.93234562128782L190.64,147.9385094717145L190.79,147.9416118375957L190.81,147.94397174566984L191.15,147.95592887699604L191.20999999999998,147.9565104469657L191.575,147.9680106304586L191.725,147.96551752835512L192.79,148.00717099383473L192.83,148.00948078930378L192.9,148.01234775781631L193.115,148.01182487234473L193.17000000000002,148.00926781073213L193.185,148.01071382313967L193.295,148.00907065719366L193.47,148.01349902898073L193.92499999999998,148.00425984710455L194.415,148.02176892757416L194.97,148.0359204635024L195.24,148.03151451051235L195.38,148.02297492697835L195.995,148.0348720550537L196.325,148.0411005243659L196.625,148.0385164283216L197.03500000000003,148.03339109569788L197.12,148.0343346633017L197.215,148.03754055127501L197.395,148.04254587739706L197.60999999999999,148.05120480805635L197.845,148.06319688633084L197.985,148.06694148480892L198.075,148.06601769849658L198.135,148.0672072134912L198.58,148.08291751518846L198.76,148.076108135283L198.9,148.07742622867227L199.135,148.07674838975072L199.25,148.08385382965207L199.355,148.0920808687806L199.385,148.09248176962137L199.455,148.09736247360706L200.06500000000003,148.09914147108793L200.155,148.0966932065785L200.4,148.09816889092326L200.45000000000002,148.0996069908142L200.505,148.10022087022662L200.555,148.10311223566532L200.63,148.10587304458022L201.63500000000002,148.12192688137293L201.69,148.11989468336105L201.94,148.13511506840587L202.125,148.1450822018087L202.635,148.16428917646408L202.995,148.15930231288075L203.175,148.17018334195018L203.29999999999998,148.1729738228023L203.38000000000002,148.173223067075L203.435,148.1759614571929L203.555,148.17690766230226L203.64499999999998,148.18162945657969L203.69000000000003,148.1804313696921L204.125,148.19709381088614L204.57,148.19632959365845L204.675,148.19508930668235L205.12,148.20737744495273L205.35,148.2080506682396L205.69,148.21723446249962L205.91,148.2152042426169L206.295,148.19991660118103L206.325,148.19985066354275L207.025,148.17678106203675L207.27999999999997,148.18783550709486L207.435,148.1889854595065L207.51,148.19055741280317L207.58999999999997,148.19255400449038L207.71,148.1965498253703L207.89,148.20434761047363L207.91,148.2041227631271L207.995,148.20362625271082L208.20999999999998,148.20438255742192L208.51,148.19966340065002L208.515,148.2002060674131L208.645,148.19732788950205L209.865,148.22641364112496L210.115,148.2298489920795L210.19,148.2318033836782L210.4,148.23932291194797L210.425,148.23948511853814L210.875,148.24784007668495L211.825,148.2261393405497L212.135,148.22483905032277L212.14,148.22516214475036L212.22,148.2295918352902L212.39499999999998,148.2410346530378L212.51500000000001,148.24669078364968L212.575,148.25090947374701L212.59,148.25175215676427L213,148.2483873590827L213.02999999999997,148.24983600899577L213.13,148.2513519152999L213.64999999999998,148.26025151833892L213.715,148.2642381079495L213.79,148.268081612885L214.31,148.26189402490854L214.38,148.26257054507732L214.475,148.2601295337081L214.66,148.26437855511904L215.16,148.27258449420333L215.59,148.2772588133812L215.78000000000003,148.26677472889423L215.805,148.2666989006102L216.10000000000002,148.25998117402196L216.16,148.25675220787525L216.345,148.2637574225664L216.395,148.26321079954505L216.805,148.27832700312138L217.265,148.27864416316152L217.5,148.2882136926055L217.59500000000003,148.28638326376677L217.71,148.28737100958824L217.785,148.28747848793864L217.81,148.2856216840446L218.33,148.287940710783L219.175,148.30255249142647L219.845,148.29898196831346L220.21,148.29261568933725L220.33,148.29109582677484L221.80999999999997,148.30934274941683L221.99,148.315894972533L222.035,148.31677589938045L222.045,148.31613762304187L222.315,148.31242929026484L222.355,148.3094475902617L222.615,148.30987882241607L223.095,148.28951596096158L223.41,148.2778304927051L224.73499999999999,148.28078647702932L224.825,148.2815243192017L224.82999999999998,148.28172872588038L224.91,148.27866856008768L225.125,148.2781951278448L225.24,148.277788951993L225.54000000000002,148.27944068983197L225.775,148.27797159925103L225.9,148.27543629705906L226.005,148.27118595689535L226.82,148.2713184915483L227.16,148.27291484177113L227.755,148.26286858320236L227.80499999999998,148.2655093856156L227.83999999999997,148.2672217860818L227.94500000000002,148.27298209816217L228.23000000000002,148.27198512107134L228.715,148.27002149820328L228.97,148.26620964333415L229.10000000000002,148.2689684741199L229.16500000000002,148.26954213157296L229.255,148.26762268692255L229.64999999999998,148.25888331234455L230.305,148.20614375174046L230.445,148.18843422085047L230.58999999999997,148.18420827761292L230.615,148.18456763774157L230.975,148.18616530671716L231.35999999999999,148.19993901997805L231.875,148.20380824059248L232.065,148.2043027728796L232.07,148.20453948900104L232.345,148.2084805816412L232.39,148.20614375174046L232.76000000000002,148.2080539651215L232.95499999999998,148.2130157724023L233.705,148.2176340445876L233.85,148.21652695164084L233.97,148.22244089841843L234.09,148.22377283871174L234.345,148.2331742271781L234.42499999999998,148.23554138839245L234.505,148.2353204973042L234.60500000000002,148.23965325951576L235.11499999999998,148.24092387780547L235.16500000000002,148.23989854753017L235.725,148.24358116462827L235.92499999999998,148.24877375364304L236.115,148.2536636888981L236.52,148.25553763657808L236.745,148.25920310989022L236.78,148.26014997437596L237.06,148.2510980553925L237.155,148.2409456372261L237.665,148.2386384792626L237.7,148.23885871097445L237.83499999999998,148.2423362620175L238.51000000000002,148.25513212010264L238.915,148.25571566820145L239.06500000000003,148.25331883504987L239.225,148.25375995784998L239.26,148.25480177253485L239.38000000000002,148.25958291068673L239.48000000000002,148.2637580819428L239.95999999999998,148.277043197304L240.035,148.27296825125813L240.04500000000002,148.27359465882182L240.125,148.27719023823738L240.58,148.28592961281538L241.05,148.29156859964132L241.1,148.2914967276156L241.345,148.29467689990997L241.645,148.2927983365953L242.735,148.28404973074794L242.825,148.28623028844595L243.345,148.2899722494185L243.415,148.28952387347817L243.565,148.29582091793418L243.695,148.29645853489637L243.785,148.29866414889693L243.85999999999999,148.29950815066695L244.095,148.2994837537408L244.53,148.30030203983188L244.7,148.30300284549594L244.70499999999998,148.30332528054714L244.93,148.30585662648082L245.195,148.30910339578986L245.225,148.3098234347999L245.285,148.30880140140653L245.41500000000002,148.3133293390274L245.425,148.3134407736361L245.595,148.31872699409723L245.81,148.3220997042954L245.96499999999997,148.32709711790085L246.195,148.33058653771877L246.56,148.33756537735462L246.64000000000001,148.33839025720954L247.24,148.34386505931616L247.365,148.34475257992744L247.54000000000002,148.35130018740892L247.88000000000002,148.3583007864654L248.23000000000002,148.3631010465324L248.565,148.36341425031424L248.635,148.36582888662815L248.9,148.373122908175L249.58499999999998,148.37507598102093L249.605,148.37481025233865L249.61499999999998,148.37500608712435L249.97000000000003,148.38991260901093L250.465,148.3974321372807L250.54,148.4008305631578L250.785,148.40448087081313L250.85,148.4031687118113L250.855,148.40336982160807L251.005,148.40571786090732L251.465,148.41351894289255L251.9,148.42350322008133L252,148.42695175856352L252.315,148.43412972986698L252.685,148.43613489344716L252.71,148.43633072823286L252.76500000000001,148.4375729933381L253.365,148.43967838212848L253.575,148.44034435227513L253.80499999999998,148.43943045660853L254.73499999999999,148.44071624055505L255.54,148.43179355934262L255.6,148.4336530007422L255.89,148.43355409428477L255.96499999999997,148.4338943324983L256.075,148.43617115914822L256.4,148.4443078637123L256.43,148.44525472819805L256.705,148.4503523670137L256.775,148.4531705416739L256.815,148.45377518981695L256.84,148.45399542152882L257.185,148.45328263565898L257.68,148.4573865942657L258.15500000000003,148.45762594789267L258.195,148.4568986557424L258.375,148.45866776257753L258.47,148.4619560725987L258.52,148.4615907780826L259.06,148.46274996176362L259.27,148.46645697578788L259.66,148.4717056117952L260.38,148.47889874875546L260.52,148.47950603440404L260.73,148.48201034590602L260.835,148.48463466390967L261.14500000000004,148.48793813958764L261.195,148.48711523786187L261.26,148.48725172877312L261.3,148.48716600984335L261.855,148.4952578768134L262.055,148.5008263103664L262.12,148.5024734325707L262.265,148.5043473802507L262.31,148.50604329630733L262.66,148.5044350773096L263.485,148.5048155374825L263.51,148.50572283938527L263.625,148.5029719211161L264.09,148.5040394514799L264.2,148.50113489851356L264.865,148.5148070678115L265.15500000000003,148.51837956905365L265.235,148.51957765594125L265.69,148.53115366771817L265.81,148.5319858007133L266.01,148.53014811873436L266.08,148.53171875327826L266.145,148.53141609951854L266.25,148.53357226029038L266.26,148.5338709577918L266.73,148.53678078576922L267.05,148.53705244883895L267.175,148.5378648005426L267.195,148.53875429928303L267.655,148.54897133633494L267.76,148.54944674670696L267.91,148.55213766172528L268.15500000000003,148.55795599892735L268.6,148.56634722277522L268.645,148.56725122779608L269.485,148.57047689706087L269.505,148.57137628644705L269.53499999999997,148.5713393613696L269.83,148.57689724490047L270.09499999999997,148.58160519227386L270.11,148.58211357146502L270.295,148.58706153184175L270.58,148.59052062034607L270.675,148.59103889018297L271.02,148.59461864456534L271.685,148.60928251594305L271.815,148.61147626116872L271.925,148.61427069827914L272.12,148.61763351783156L272.265,148.61699326336384L272.315,148.61855202913284L272.32,148.61879731714725L272.63,148.61885072663426L272.64000000000004,148.61842542886734L272.985,148.62038839235902L273,148.61784847453237L273.005,148.61788474023342L273.22999999999996,148.6231571137905L273.345,148.62486687675118L273.445,148.6282718963921L274.02,148.64012682437897L274.225,148.64507214725018L274.49,148.65048035234213L274.56,148.6529734544456L274.97499999999997,148.6566138714552L275,148.6574545763433" style="fill: none;" fill="none"></path></g></g></g></g></g></g><g transform="translate(30, 177)" clip-path="url(#clip_1)"><clipPath id="clip_1"><rect width="300" height="23"></rect></clipPath><g><g><line x1="0" y1="0" x2="0" y2="5" style="visibility: inherit;" fill="rgb(0, 0, 0)" stroke="rgb(204, 204, 204)" stroke-width="1px"></line><line x1="25" y1="0" x2="25" y2="5" style="visibility: inherit;" fill="rgb(0, 0, 0)" stroke="rgb(204, 204, 204)" stroke-width="1px"></line><line x1="50" y1="0" x2="50" y2="5" style="visibility: inherit;" fill="rgb(0, 0, 0)" stroke="rgb(204, 204, 204)" stroke-width="1px"></line><line x1="75" y1="0" x2="75" y2="5" style="visibility: inherit;" fill="rgb(0, 0, 0)" stroke="rgb(204, 204, 204)" stroke-width="1px"></line><line x1="100" y1="0" x2="100" y2="5" style="visibility: inherit;" fill="rgb(0, 0, 0)" stroke="rgb(204, 204, 204)" stroke-width="1px"></line><line x1="125" y1="0" x2="125" y2="5" style="visibility: inherit;" fill="rgb(0, 0, 0)" stroke="rgb(204, 204, 204)" stroke-width="1px"></line><line x1="150" y1="0" x2="150" y2="5" style="visibility: inherit;" fill="rgb(0, 0, 0)" stroke="rgb(204, 204, 204)" stroke-width="1px"></line><line x1="175" y1="0" x2="175" y2="5" style="visibility: inherit;" fill="rgb(0, 0, 0)" stroke="rgb(204, 204, 204)" stroke-width="1px"></line><line x1="200" y1="0" x2="200" y2="5" style="visibility: inherit;" fill="rgb(0, 0, 0)" stroke="rgb(204, 204, 204)" stroke-width="1px"></line><line x1="225" y1="0" x2="225" y2="5" style="visibility: inherit;" fill="rgb(0, 0, 0)" stroke="rgb(204, 204, 204)" stroke-width="1px"></line><line x1="250" y1="0" x2="250" y2="5" style="visibility: inherit;" fill="rgb(0, 0, 0)" stroke="rgb(204, 204, 204)" stroke-width="1px"></line><line x1="275" y1="0" x2="275" y2="5" style="visibility: inherit;" fill="rgb(0, 0, 0)" stroke="rgb(204, 204, 204)" stroke-width="1px"></line><line x1="300" y1="0" x2="300" y2="5" style="visibility: inherit;" fill="rgb(0, 0, 0)" stroke="rgb(204, 204, 204)" stroke-width="1px"></line></g><g transform="translate(0, 8)"><text x="0" y="0" dx="0em" dy="0.95em" style="text-anchor: middle; visibility: hidden; font-family: &quot;Helvetica Neue&quot;, sans-serif; font-size: 12px; font-weight: 200;" fill="rgb(33, 33, 33)" stroke="none" stroke-width="1px">-5k</text><text x="25" y="0" dx="0em" dy="0.95em" style="text-anchor: middle; visibility: inherit; font-family: &quot;Helvetica Neue&quot;, sans-serif; font-size: 12px; font-weight: 200;" fill="rgb(33, 33, 33)" stroke="none" stroke-width="1px">0</text><text x="50" y="0" dx="0em" dy="0.95em" style="text-anchor: middle; visibility: inherit; font-family: &quot;Helvetica Neue&quot;, sans-serif; font-size: 12px; font-weight: 200;" fill="rgb(33, 33, 33)" stroke="none" stroke-width="1px">5k</text><text x="75" y="0" dx="0em" dy="0.95em" style="text-anchor: middle; visibility: inherit; font-family: &quot;Helvetica Neue&quot;, sans-serif; font-size: 12px; font-weight: 200;" fill="rgb(33, 33, 33)" stroke="none" stroke-width="1px">10k</text><text x="100" y="0" dx="0em" dy="0.95em" style="text-anchor: middle; visibility: inherit; font-family: &quot;Helvetica Neue&quot;, sans-serif; font-size: 12px; font-weight: 200;" fill="rgb(33, 33, 33)" stroke="none" stroke-width="1px">15k</text><text x="125" y="0" dx="0em" dy="0.95em" style="text-anchor: middle; visibility: inherit; font-family: &quot;Helvetica Neue&quot;, sans-serif; font-size: 12px; font-weight: 200;" fill="rgb(33, 33, 33)" stroke="none" stroke-width="1px">20k</text><text x="150" y="0" dx="0em" dy="0.95em" style="text-anchor: middle; visibility: inherit; font-family: &quot;Helvetica Neue&quot;, sans-serif; font-size: 12px; font-weight: 200;" fill="rgb(33, 33, 33)" stroke="none" stroke-width="1px">25k</text><text x="175" y="0" dx="0em" dy="0.95em" style="text-anchor: middle; visibility: inherit; font-family: &quot;Helvetica Neue&quot;, sans-serif; font-size: 12px; font-weight: 200;" fill="rgb(33, 33, 33)" stroke="none" stroke-width="1px">30k</text><text x="200" y="0" dx="0em" dy="0.95em" style="text-anchor: middle; visibility: inherit; font-family: &quot;Helvetica Neue&quot;, sans-serif; font-size: 12px; font-weight: 200;" fill="rgb(33, 33, 33)" stroke="none" stroke-width="1px">35k</text><text x="225" y="0" dx="0em" dy="0.95em" style="text-anchor: middle; visibility: inherit; font-family: &quot;Helvetica Neue&quot;, sans-serif; font-size: 12px; font-weight: 200;" fill="rgb(33, 33, 33)" stroke="none" stroke-width="1px">40k</text><text x="250" y="0" dx="0em" dy="0.95em" style="text-anchor: middle; visibility: inherit; font-family: &quot;Helvetica Neue&quot;, sans-serif; font-size: 12px; font-weight: 200;" fill="rgb(33, 33, 33)" stroke="none" stroke-width="1px">45k</text><text x="275" y="0" dx="0em" dy="0.95em" style="text-anchor: middle; visibility: inherit; font-family: &quot;Helvetica Neue&quot;, sans-serif; font-size: 12px; font-weight: 200;" fill="rgb(33, 33, 33)" stroke="none" stroke-width="1px">50k</text><text x="300" y="0" dx="0em" dy="0.95em" style="text-anchor: middle; visibility: hidden; font-family: &quot;Helvetica Neue&quot;, sans-serif; font-size: 12px; font-weight: 200;" fill="rgb(33, 33, 33)" stroke="none" stroke-width="1px">55k</text></g><line x1="0" y1="0" x2="300" y2="0" fill="rgb(0, 0, 0)" stroke="rgb(204, 204, 204)" stroke-width="1px"></line></g></g></g></g></svg>