<svg viewBox="0 0 330 200" xmlns="http://www.w3.org/2000/svg"><g><g><g><g><g><line x1="30" y1="177" x2="25" y2="177" style="visibility: inherit;" fill="rgb(0, 0, 0)" stroke="rgb(204, 204, 204)" stroke-width="1px"></line><line x1="30" y1="154.875" x2="25" y2="154.875" style="visibility: inherit;" fill="rgb(0, 0, 0)" stroke="rgb(204, 204, 204)" stroke-width="1px"></line><line x1="30" y1="132.75" x2="25" y2="132.75" style="visibility: inherit;" fill="rgb(0, 0, 0)" stroke="rgb(204, 204, 204)" stroke-width="1px"></line><line x1="30" y1="110.625" x2="25" y2="110.625" style="visibility: inherit;" fill="rgb(0, 0, 0)" stroke="rgb(204, 204, 204)" stroke-width="1px"></line><line x1="30" y1="88.5" x2="25" y2="88.5" style="visibility: inherit;" fill="rgb(0, 0, 0)" stroke="rgb(204, 204, 204)" stroke-width="1px"></line><line x1="30" y1="66.375" x2="25" y2="66.375" style="visibility: inherit;" fill="rgb(0, 0, 0)" stroke="rgb(204, 204, 204)" stroke-width="1px"></line><line x1="30" y1="44.25" x2="25" y2="44.25" style="visibility: inherit;" fill="rgb(0, 0, 0)" stroke="rgb(204, 204, 204)" stroke-width="1px"></line><line x1="30" y1="22.125" x2="25" y2="22.125" style="visibility: inherit;" fill="rgb(0, 0, 0)" stroke="rgb(204, 204, 204)" stroke-width="1px"></line><line x1="30" y1="0" x2="25" y2="0" style="visibility: inherit;" fill="rgb(0, 0, 0)" stroke="rgb(204, 204, 204)" stroke-width="1px"></line></g><g transform="translate(20, 0)"><text x="0" y="177" dx="0em" dy="0.3em" style="text-anchor: end; visibility: hidden; font-family: &quot;Helvetica Neue&quot;, sans-serif; font-size: 12px; font-weight: 200;" fill="rgb(33, 33, 33)" stroke="none" stroke-width="1px">-2</text><text x="0" y="154.875" dx="0em" dy="0.3em" style="text-anchor: end; visibility: inherit; font-family: &quot;Helvetica Neue&quot;, sans-serif; font-size: 12px; font-weight: 200;" fill="rgb(33, 33, 33)" stroke="none" stroke-width="1px">0</text><text x="0" y="132.75" dx="0em" dy="0.3em" style="text-anchor: end; visibility: hidden; font-family: &quot;Helvetica Neue&quot;, sans-serif; font-size: 12px; font-weight: 200;" fill="rgb(33, 33, 33)" stroke="none" stroke-width="1px">2</text><text x="0" y="110.625" dx="0em" dy="0.3em" style="text-anchor: end; visibility: inherit; font-family: &quot;Helvetica Neue&quot;, sans-serif; font-size: 12px; font-weight: 200;" fill="rgb(33, 33, 33)" stroke="none" stroke-width="1px">4</text><text x="0" y="88.5" dx="0em" dy="0.3em" style="text-anchor: end; visibility: hidden; font-family: &quot;Helvetica Neue&quot;, sans-serif; font-size: 12px; font-weight: 200;" fill="rgb(33, 33, 33)" stroke="none" stroke-width="1px">6</text><text x="0" y="66.375" dx="0em" dy="0.3em" style="text-anchor: end; visibility: inherit; font-family: &quot;Helvetica Neue&quot;, sans-serif; font-size: 12px; font-weight: 200;" fill="rgb(33, 33, 33)" stroke="none" stroke-width="1px">8</text><text x="0" y="44.25" dx="0em" dy="0.3em" style="text-anchor: end; visibility: hidden; font-family: &quot;Helvetica Neue&quot;, sans-serif; font-size: 12px; font-weight: 200;" fill="rgb(33, 33, 33)" stroke="none" stroke-width="1px">10</text><text x="0" y="22.125" dx="0em" dy="0.3em" style="text-anchor: end; visibility: inherit; font-family: &quot;Helvetica Neue&quot;, sans-serif; font-size: 12px; font-weight: 200;" fill="rgb(33, 33, 33)" stroke="none" stroke-width="1px">12</text><text x="0" y="0" dx="0em" dy="0.3em" style="text-anchor: end; visibility: hidden; font-family: &quot;Helvetica Neue&quot;, sans-serif; font-size: 12px; font-weight: 200;" fill="rgb(33, 33, 33)" stroke="none" stroke-width="1px">14</text></g><line x1="30" y1="0" x2="30" y2="177" fill="rgb(0, 0, 0)" stroke="rgb(204, 204, 204)" stroke-width="1px"></line></g></g><g transform="translate(30, 0)" clip-path="url(#clip_0)"><clipPath id="clip_0"><rect width="300" height="177"></rect></clipPath><g><g><g><line x1="0" y1="0" x2="0" y2="177" fill="rgb(0, 0, 0)" stroke="rgb(66, 66, 66)" stroke-width="1px" opacity="0.25"></line><line x1="25" y1="0" x2="25" y2="177" fill="rgb(0, 0, 0)" stroke="rgb(66, 66, 66)" stroke-width="1px" opacity="0.25"></line><line x1="50" y1="0" x2="50" y2="177" fill="rgb(0, 0, 0)" stroke="rgb(66, 66, 66)" stroke-width="1px" opacity="0.25"></line><line x1="75" y1="0" x2="75" y2="177" fill="rgb(0, 0, 0)" stroke="rgb(66, 66, 66)" stroke-width="1px" opacity="0.25"></line><line x1="100" y1="0" x2="100" y2="177" fill="rgb(0, 0, 0)" stroke="rgb(66, 66, 66)" stroke-width="1px" opacity="0.25"></line><line x1="125" y1="0" x2="125" y2="177" fill="rgb(0, 0, 0)" stroke="rgb(66, 66, 66)" stroke-width="1px" opacity="0.25"></line><line x1="150" y1="0" x2="150" y2="177" fill="rgb(0, 0, 0)" stroke="rgb(66, 66, 66)" stroke-width="1px" opacity="0.25"></line><line x1="175" y1="0" x2="175" y2="177" fill="rgb(0, 0, 0)" stroke="rgb(66, 66, 66)" stroke-width="1px" opacity="0.25"></line><line x1="200" y1="0" x2="200" y2="177" fill="rgb(0, 0, 0)" stroke="rgb(66, 66, 66)" stroke-width="1px" opacity="0.25"></line><line x1="225" y1="0" x2="225" y2="177" fill="rgb(0, 0, 0)" stroke="rgb(66, 66, 66)" stroke-width="1px" opacity="0.25"></line><line x1="250" y1="0" x2="250" y2="177" fill="rgb(0, 0, 0)" stroke="rgb(66, 66, 66)" stroke-width="1px" opacity="0.25"></line><line x1="275" y1="0" x2="275" y2="177" fill="rgb(0, 0, 0)" stroke="rgb(66, 66, 66)" stroke-width="1px" opacity="0.25"></line><line x1="300" y1="0" x2="300" y2="177" fill="rgb(0, 0, 0)" stroke="rgb(66, 66, 66)" stroke-width="1px" opacity="0.25"></line></g><g><line x1="0" y1="177" x2="300" y2="177" fill="rgb(0, 0, 0)" stroke="rgb(66, 66, 66)" stroke-width="1px" opacity="0.25"></line><line x1="0" y1="154.875" x2="300" y2="154.875" fill="rgb(0, 0, 0)" stroke="rgb(66, 66, 66)" stroke-width="1px" opacity="0.25"></line><line x1="0" y1="132.75" x2="300" y2="132.75" fill="rgb(0, 0, 0)" stroke="rgb(66, 66, 66)" stroke-width="1px" opacity="0.25"></line><line x1="0" y1="110.625" x2="300" y2="110.625" fill="rgb(0, 0, 0)" stroke="rgb(66, 66, 66)" stroke-width="1px" opacity="0.25"></line><line x1="0" y1="88.5" x2="300" y2="88.5" fill="rgb(0, 0, 0)" stroke="rgb(66, 66, 66)" stroke-width="1px" opacity="0.25"></line><line x1="0" y1="66.375" x2="300" y2="66.375" fill="rgb(0, 0, 0)" stroke="rgb(66, 66, 66)" stroke-width="1px" opacity="0.25"></line><line x1="0" y1="44.25" x2="300" y2="44.25" fill="rgb(0, 0, 0)" stroke="rgb(66, 66, 66)" stroke-width="1px" opacity="0.25"></line><line x1="0" y1="22.125" x2="300" y2="22.125" fill="rgb(0, 0, 0)" stroke="rgb(66, 66, 66)" stroke-width="1px" opacity="0.25"></line><line x1="0" y1="0" x2="300" y2="0" fill="rgb(0, 0, 0)" stroke="rgb(66, 66, 66)" stroke-width="1px" opacity="0.25"></line></g></g></g><g><g><line x1="0" y1="154.875" x2="300" y2="154.875" fill="rgb(0, 0, 0)" stroke="rgb(153, 153, 153)" stroke-width="1.5px"></line></g></g><g><g><line x1="25" y1="0" x2="25" y2="177" fill="rgb(0, 0, 0)" stroke="rgb(153, 153, 153)" stroke-width="1.5px"></line></g></g><g><g><g><g><g><path stroke="rgb(255, 112, 67)" stroke-width="2px" d="M25.005,52.39183187484741L25.925,30.594589412212372L26.055,18.875705575456436L26.32,15.503244325518637L26.36,15.421965089959485L26.415000000000003,17.258358535133738L26.895,22.632869381187078L27.015,27.652629377302418L27.255,31.047625187186128L27.564999999999998,28.90580363673689L27.595,27.728492921571473L27.675,28.154012607728532L28.09,32.95760012167213L28.88,37.80598829896559L28.965,41.23239612159881L29.005,43.48002119365128L29.195,44.77731375876232L29.535,47.942442485096564L29.565,50.02449040630843L29.72,52.1444390822557L29.91,54.450245549698565L29.994999999999997,56.308479621884175L30.455000000000002,58.72985350895442L30.995,61.667676873716516L31.155,64.1478857981206L31.495,66.77381158697945L31.535,68.47343258068372L31.654999999999998,69.44217779525046L31.915,70.25822381218218L32.18,71.47293331082808L32.285,72.55792130232753L32.559999999999995,73.63200579608991L32.585,74.35573352768196L32.589999999999996,74.80803811292853L33.01,76.19889638276346L33.1,77.16598712876424L33.95,79.0400604213524L34.25,80.53418560614155L34.525,81.3732791429973L35.425,81.08844815968443L36.17,82.34604999690171L36.195,83.14496972163569L36.535,84.18715257674775L36.93,85.04354575428493L36.965,85.61392555930064L37.550000000000004,85.3100215571801L37.675,84.47201005084239L38.010000000000005,84.17151881135578L38.129999999999995,84.12500889824014L38.315000000000005,84.34626282290506L38.49,84.60272051713527L38.7,85.0250763167254L39.515,86.20158930238165L40.055,87.4340761281031L40.075,88.18883832555923L40.155,88.68262761987414L40.175,88.96025086734997L40.385,89.16480489548631L40.45,89.26357188210838L41.144999999999996,89.36319434872838L41.535,89.73696180720076L41.715,90.13919060551493L41.795,90.46568555309396L42.095,90.94431467458021L42.525,91.62664111616859L42.73,92.22865084506658L42.9,92.7569880229091L42.915000000000006,93.0796767915401L42.98500000000001,93.33215706617314L43.09,93.58121394557165L43.145,93.77469441558364L43.199999999999996,93.92911092797185L43.290000000000006,94.10587616180935L43.355,94.2732203806374L43.73,94.52778594523272L43.755,94.70000484484197L44.035,95.06164714633084L44.105,95.34405110441838L44.485,95.86294608213421L44.75,96.36480169831464L44.905,96.78369129502028L45.305,97.36133301736861L45.355000000000004,97.748586276066L45.379999999999995,98.00225138598186L45.505,98.24733495672645L45.645,98.5064031240946L45.78,98.75228514418637L45.91,98.98191673842452L46.27,99.33836600355733L46.36,99.59011647207993L46.71,99.93748367490446L46.745,100.16744503177449L47.07,100.50926726339605L47.14,100.76532775925604L47.6,101.20605125884418L47.665,101.50829030788067L47.775,101.75534771511627L48.005,102.04006357568308L48.225,102.32900480972413L48.26,102.51771561233213L48.765,102.78761625247007L49.464999999999996,103.13850542281155L49.825,103.52245385869792L50.75,104.17775671139032L50.81,104.58925326141518L51.28,105.06177818460942L51.824999999999996,105.54435939600278L52.18,105.95191223031406L53.2,106.49408326510265L53.3,106.85927973964021L53.535,107.14811428057078L54.69,107.63330108920887L54.745,107.94451729655358L54.754999999999995,108.13523703932817L54.835,108.27002831769022L54.98,108.39392185492535L55.24,108.54315469433797L55.32,108.6464558468457L55.35,108.71804971851087L55.995000000000005,108.91356569145427L56.48,109.13178834685269L56.885,109.34311521869054L57.120000000000005,109.53290552390307L57.24,109.67181912954265L57.295,109.76831262049444L58.315,110.03071878395896L58.355000000000004,110.19672910000337L58.71,110.39352947846325L58.725,110.51308037862344L58.935,110.62797527924278L59.095000000000006,110.72887984165608L59.24,110.82101145535147L59.410000000000004,110.91340645640753L60.199999999999996,111.10823984437978L60.73,111.3078045755255L60.795,111.44139453826116L60.805,111.52425776158432L61.095,111.6170345558802L61.21,111.69787087524412L61.295,111.76247411063002L61.305,111.80356866175346L61.365,111.84116710456856L61.495,111.8897298647919L62.120000000000005,112.01517339789622L62.43,112.13644183423372L62.435,112.20892437545211L62.62,112.26924329547734L62.790000000000006,112.32156141131311L63.01,112.34728269892447L63.175000000000004,112.36933877538154L63.635000000000005,112.44840666932171L64.155,112.57548002768937L64.63,112.7197389803492L64.685,112.81494748009223L65.28500000000001,112.94525597341644L65.4,113.0375285139548L65.425,113.09426143114968L65.665,113.16068763938668L65.95,113.21749619488193L66.1,113.26793175246878L66.945,113.36487450186351L67.06,113.43025109162295L67.065,113.47010160678842L67.07,113.49456051703822L67.185,113.5241198344024L67.19500000000001,113.54343054312417L67.315,113.57190755377978L67.92,113.63049965721828L68.3,113.68522521032371L68.435,113.72266879185128L68.745,113.77794761958174L70.31,113.84619373978646L70.61,113.86032220066471L70.67,113.8656606456094L70.68,113.86778655531722L71.095,113.89279648591707L71.205,113.91628149705906L71.23,113.93242342804538L72.94500000000001,114.05822424015204L73.52,114.17470527840138L73.965,114.27108289690304L74.09,114.33332781727009L74.16,114.37484519323644L74.24,114.40166833782754L74.56,114.43050243130065L74.615,114.45291120809756L74.845,114.4715956151631L75.05999999999999,114.50082569719234L75.615,114.5272183799796L76.085,114.55093169117288L76.89500000000001,114.6108275586624L77.02999999999999,114.6605381330406L77.26,114.70369548562499L77.46499999999999,114.74697633363803L77.555,114.78070965873003L77.59,114.80389416496038L77.755,114.83015261459398L77.85000000000001,114.8498639426711L78.265,114.88669007194537L78.56,114.91862997515497L79.105,114.96414892735183L79.72,115.02786104000864L79.735,115.06721821497237L80.14,115.11576011222813L80.715,115.19337948228247L80.855,115.2425886098464L80.905,115.2741143705797L81.095,115.29786173715304L81.225,115.3183821452505L81.295,115.33391847687045L81.645,115.37028314755607L81.66,115.39109864286331L81.73500000000001,115.41149834663719L81.8,115.42989094180494L81.94,115.44985076262134L82.16499999999999,115.47591515465723L82.27,115.49704613139717L82.28999999999999,115.50968990236811L82.735,115.53652046030935L83.01,115.5713619643818L83.29,115.59853252496544L83.34,115.61909918025864L83.52499999999999,115.65118881485304L83.885,115.69724176181222L84.05,115.73500577123681L84.88499999999999,115.83587993092371L84.985,115.90789445583243L85.285,115.98640037980209L85.505,116.04837841037829L86.17,116.15622822191666L88.34,116.45652537790747L88.5,116.65452160386926L88.815,116.81013469665459L88.895,116.91382891398197L89.065,116.9953498748632L89.37,117.07661514924119L89.515,117.14340430168002L90.09,117.24431344072634L90.16,117.31338545203576L90.20500000000001,117.3603800804637L90.36000000000001,117.40974969692363L91.32000000000001,117.55781023518641L91.645,117.67051598320245L92.255,117.8064139001956L92.515,117.91419161041918L92.695,117.99581528711522L92.845,118.05580582623604L93.095,118.11721726301266L93.21499999999999,118.16562061931464L93.32,118.20583405152423L93.46,118.24677884611764L93.525,118.27600144763755L93.53500000000001,118.29444231045227L93.68,118.32392505676734L94.15,118.38660527390951L94.30000000000001,118.43874078466126L94.41499999999999,118.48031469269769L94.53,118.51492391278849L94.89500000000001,118.57680815607611L95.30999999999999,118.6625099489111L95.475,118.73265942388882L95.585,118.7866811838991L95.75999999999999,118.83560291452685L95.89,118.87861190154241L95.905,118.90597447701745L95.985,118.9294278320578L96.01,118.94516358357114L96.27000000000001,118.98150337088968L97.13499999999999,119.0713939210705L97.69,119.18891745453666L98.35,119.32601065424437L98.46,119.4216862022123L98.485,119.48251184816606L98.49,119.51939020154146L98.69500000000001,119.56399614570897L99.015,119.62846654628731L99.41999999999999,119.70338811263451L99.575,119.76292751303322L100.22500000000001,119.86584740919474L100.30499999999999,119.93444631125095L100.545,120.00047099963166L100.725,120.06130190715395L100.73,120.09740904584648L100.75999999999999,120.12228581079913L100.98,120.15944498639746L101.17,120.20358431256679L101.33,120.24566717098276L101.975,120.32911502808405L102.05,120.38809956604285L102.28999999999999,120.44695881303574L102.75500000000001,120.52202473459496L103.245,120.60432063566361L103.46,120.67519279138276L103.77,120.73951559553163L103.945,120.79033042365084L104.14500000000001,120.8397249601708L104.19,120.87294235959209L104.235,120.89634586652849L104.67,120.94682247209985L105.05000000000001,121.01188025336528L105.09,121.05264196074643L105.235,121.08641570971393L105.795,121.16261195639362L106.30499999999999,121.25795384347194L106.77499999999999,121.3626477903113L106.995,121.44657264268311L107.065,121.50404037902302L107.13,121.54405450743167L107.38499999999999,121.58997538043099L107.425,121.62134490223548L107.55499999999999,121.6530545223464L107.625,121.67846727780756L108.3,121.74449851758632L108.945,121.838719955965L109.06,121.90399034731634L109.065,121.94331716247228L109.415,121.99054635612862L109.44,122.02005386977612L109.58500000000001,122.0495427526785L109.625,122.06901692615469L110.21000000000001,122.13245878378461L110.215,122.1706853137011L110.60499999999999,122.22735703740088L110.695,122.26894764753322L110.75,122.29945765526378L110.88499999999999,122.32819235677292L111.175,122.36848286601764L111.31,122.4034930992893L111.80499999999999,122.46453340821097L112.295,122.53239093406577L112.325,122.57539691438424L113.09,122.64884651249734L113.42999999999999,122.72138128606133L114.045,122.80040508465561L114.25,122.85671092245931L114.365,122.89761569007608L114.415,122.92592701854929L114.63,122.95926634992733L115.15,123.02047095015988L115.35000000000001,123.07449047157374L115.55499999999999,129.78330380850556L115.735,133.73304732223465L115.935,129.54371204721997L115.98,127.03249096720259L117.38499999999999,131.82645044534706L117.50999999999999,134.6810218740064L117.71,136.33695022455206L117.835,137.4025433134517L118.255,137.99912199208026L118.635,138.4585962821775L119.10000000000001,138.71872801361877L119.23,138.92663034366606L119.455,139.11143038014794L120,139.3731567283882L120.15,139.50154764475903L120.30000000000001,139.55204097641993L120.32000000000001,139.5747409594863L120.41499999999999,139.57647634940201L120.495,139.60041746137654L120.53999999999999,139.61852527641125L120.65,139.63070555319112L120.67,139.64339528554513L120.8,139.64503939493795L120.88,139.65031444456756L121.175,139.67805891589273L121.35000000000001,139.69858484182328L121.39,139.71630200870973L121.59,139.7033208318242L121.925,139.76132997618248L121.995,139.76837940958816L122.13000000000001,139.79727080135154L122.21499999999999,139.81293926041488L122.515,139.81321403921345L122.77,139.84693799937187L123.17,139.9366727562214L123.27,140.00377657064587L123.48,140.0966618421602L123.72999999999999,140.16561798530384L123.74499999999999,140.2113741503809L123.83,140.22818445960604L123.97,140.24668323278382L124.17,140.27396359312507L124.51499999999999,140.31818281273826L124.53500000000001,140.3427699754285L125.10499999999999,140.42540797291082L125.155,140.47427178739238L125.865,140.52087312232692L126.42999999999999,140.5413354950621L126.63499999999999,140.51730976506914L127.07499999999999,140.46918542387988L127.33,140.4395559650833L127.46000000000001,140.43410335315315L128.885,140.4252851118627L128.945,140.40849042296307L129.005,140.4035277328485L129.12,140.39248146185838L129.15,140.38599928956964L129.46,140.38801061357103L129.595,140.36812422123577L129.74,140.34128836957828L130.10999999999999,140.28918174307475L130.96,140.2200853878315L131.1,140.17727558935022L131.21,140.15540723576746L131.235,140.14598242386938L131.47,140.1493963357494L131.88,140.1382793102673L132.06,140.14377168798515L132.82,140.18295406987707L132.895,140.204203684273L132.98,140.21843625852028L133.85,140.2422633126292L134.035,140.2533433708497L134.325,140.25623876291203L134.67000000000002,140.23542427085454L135.07999999999998,140.24300488270887L135.70999999999998,140.28666218183974L135.795,140.3133909199389L135.98999999999998,140.3387074347587L136.675,140.36787084795543L136.94,140.40208698843423L137.195,140.44135509451928L137.39000000000001,140.46089956474725L138.155,140.45584327168717L138.34,140.44729605428847L138.38,140.43926435776038L138.82999999999998,140.44224022369076L138.895,140.44498790526683L139.03,140.4433718098658L139.07500000000002,140.43745893975841L139.105,140.4351935728833L139.15,140.43386600282457L139.41,140.44451992730302L139.47,140.45317895424367L139.48,140.45628546602725L139.48999999999998,140.45940007822037L139.57,140.46408148143482L139.94,140.4816914769041L139.99,140.49241308701204L140.11,140.50147353608708L140.335,140.49833263754425L140.39,140.50002666592349L140.465,140.5026002662167L140.525,140.50245958785922L140.64,140.50988468659347L140.715,140.52195633430733L140.85,140.5275165944067L140.965,140.53305295758054L141.355,140.53753844292524L141.655,140.5323541426156L141.835,140.5306018777784L142.29,140.50657784569836L142.755,140.5194853462492L143.42,140.56150634096352L143.84,140.59645713571481L144.655,140.64941053213937L144.765,140.68450740946687L144.79500000000002,140.70872104748105L145.01,140.7426549409867L145.435,140.75989405304438L145.65,140.78070366972833L146.175,140.8129200911173L146.445,140.86235443208508L146.845,140.909648871147L147.21,140.9616000865241L147.225,140.99236463989854L147.32,141.01598866275572L147.565,141.04726888234393L147.775,141.08494792875632L147.895,141.12022751567952L148.09,141.1556863278043L148.185,141.18553720056363L148.28,141.20996922039598L148.29,141.2252788411594L148.38,141.23958664935927L148.57000000000002,141.2617281127101L149.01,141.29009477484976L149.14,141.30729043000196L149.155,141.3191101462439L149.22,141.32925778989764L149.715,141.37165269473059L150.215,143.91830095630206L150.285,145.60162685651372L150.5,145.20861425303693L150.53,144.97749538453385L150.95499999999998,145.0773801087258L151.38000000000002,145.22368555688368L151.58499999999998,145.30544634564822L151.905,145.402506474579L152.08,145.47808757956304L152.165,145.53521402350353L152.59500000000003,145.64091116590075L153.005,145.45748187990648L153.28,145.4226591535906L153.335,145.4217831297815L153.82500000000002,145.56320832694172L154.23,145.6562832312262L154.885,145.80501346984363L154.92499999999998,145.88041499524627L155.19,145.97665761869737L155.48,146.01262821085209L155.63000000000002,146.07658446626039L155.71,146.1375700819264L155.76,146.19036945031704L155.805,146.2337638159193L156.055,146.28991679218993L156.525,146.32103147129766L156.715,146.33669826996655L156.845,146.3464008710523L156.87,146.35002143333793L157.005,146.34915404558444L157.13000000000002,146.3721838998214L157.19,146.39493266984317L157.385,146.44750729348954L158.095,146.43139102397382L158.115,146.4265194123269L158.195,146.42825744511373L158.29999999999998,146.45247259713224L158.47,146.46108787344104L158.5,146.47147402516725L158.62500000000003,146.4804682394965L158.85999999999999,146.4977567530336L159.285,146.5123620025314L160.1,146.5214965130089L160.155,146.53897655071012L161.02499999999998,146.5721893209886L161.095,146.58498490444848L161.15,146.59634895975606L161.245,146.61068032744657L161.36,146.60236166008193L161.39000000000001,146.60106243990586L161.965,146.6217701378627L162.1,146.62519189525625L162.25000000000003,146.60817631220212L162.475,146.61668481162422L162.54999999999998,146.6274837582185L162.765,146.64532919251167L163.11499999999998,146.67333769812134L163.22,146.6987292007443L163.41,146.70866851871233L163.535,146.73008472689997L163.65,146.75831190031178L165,146.78316836971882L165.31,146.8036323542526L165.675,146.81914379925314L165.68,146.82850420761577L166.605,146.87045209132714L166.945,146.89026985033203L167.21,146.88750784375577L167.37499999999997,146.8890594290394L167.395,146.89102982113948L167.625,146.89005536812658L167.655,146.88481075154613L167.785,146.86013112268967L167.89,146.84281217635942L168.20999999999998,146.8169824336843L168.615,146.83157931744316L169.3,146.87929261314426L169.365,146.91368406765196L169.42499999999998,146.94154016675074L169.555,146.96921635420037L169.79,146.9919500470216L170.14000000000001,147.02615673959582L170.145,147.04735305530028L170.22,147.05716879738685L170.39499999999998,147.05369588925433L170.48000000000002,147.0601922136187L170.555,147.05567531059023L170.83,147.0567088441243L170.84,147.05806377328577L170.865,147.06144671617236L171.15,147.08330208348207L171.29,147.09463340513093L171.455,147.1115989906918L171.5,147.12630931278056L171.85,147.15541528606406L171.92499999999998,147.1722400661945L172.01000000000002,147.17832381586072L172.37,147.17034240251684L172.48,147.16242942920866L173.14000000000001,147.14834909565175L173.255,147.14234480814292L173.495,147.12659019265266L173.52,147.11535789837654L173.98999999999998,147.1220993400825L174,147.12689853168803L174.02499999999998,147.13053210948274L174.11,147.13570714369038L174.23499999999999,147.14815500005852L174.425,147.15965276732905L174.795,147.15415726169863L175.21499999999997,147.14829419293952L175.64000000000001,147.14963621937602L175.88000000000002,147.1531029420696L176.1,147.1486496107341L176.17000000000002,147.14601532826194L176.29500000000002,147.15292594408612L176.465,147.1660324473716L176.555,147.1753076785527L176.565,147.17775185696615L176.845,147.16697770084343L177.265,147.15353832379222L177.325,147.14769231221223L178.385,147.16413875336139L178.85999999999999,147.15127184787207L179.005,147.1464429381419L179.085,147.1453406785684L179.235,147.15049897877915L179.25,147.1523395612749L179.29,147.1524392849155L179.67499999999998,147.1586460894911L180.75500000000002,147.18532886663488L180.91,147.20239749139196L181.335,147.21836891076356L181.705,147.22341367036933L182.54000000000002,147.24992171037695L183.25,147.2818398854643L183.26,147.30180155971706L183.965,147.31156411462462L184.18,147.32054841037652L184.465,147.33229010114707L185.7,147.35414365416548L185.76999999999998,147.36944728932252L186.005,147.38181162084024L186.3,147.393423062294L186.39999999999998,147.40072383536653L186.41,147.40520452442024L186.665,147.41361447860154L186.975,147.4187134649715L187.25,147.42447181620366L187.89,147.4414825503717L188.16,147.44758898852407L188.33,147.45428651027763L188.37,147.45834511341383L188.375,147.46103479457932L188.63500000000002,147.46493110056542L188.80499999999998,147.47095822689428L188.83499999999998,147.4749086746424L189.29,147.47366635196505L189.52,147.47109422202766L190.15,147.48350440332806L190.225,147.4926894195051L190.26,147.49873320532865L190.285,147.50333746387378L190.35,147.50415670492538L190.37500000000003,147.5049502439397L190.575,147.50840041858538L190.57999999999998,147.51077304525722L190.64,147.5148338630411L190.79,147.51899079856952L190.81,147.52246057318257L191.15,147.5292459015644L191.20999999999998,147.53369004187562L191.575,147.54127415512548L191.725,147.54410285946457L192.79,147.55883305190042L192.83,147.56871561955236L192.9,147.57544669807447L193.115,147.57905595928725L193.17000000000002,147.57995735961376L193.185,147.58113594864713L193.295,147.5814799175555L193.47,147.58383929466572L193.92499999999998,147.5814352854214L194.415,147.58840757752193L194.97,147.5996686988755L195.24,147.6028652667215L195.38,147.60146786297622L195.995,147.60491642221965L196.325,147.61026081213447L196.625,147.6103783996051L197.03500000000003,147.6090128303257L197.12,147.60822935883328L197.215,147.60926291784122L197.395,147.61241004729553L197.60999999999999,147.61734649011066L197.845,147.62549949418647L197.985,147.63149087268795L198.075,147.63499998085908L198.135,147.637754535873L198.58,147.64638637226776L198.76,147.64901711626027L198.9,147.6514604007195L199.135,147.65283089369478L199.25,147.65674540096487L199.355,147.66191992875318L199.385,147.66524751464354L199.455,147.66938361066477L200.06500000000003,147.6740240665549L200.155,147.67551912738526L200.4,147.6775887988427L200.45000000000002,147.679559608246L200.505,147.68114985224312L200.555,147.6834000688595L200.63,147.68593971382393L201.63500000000002,147.6932689142276L201.69,147.6968480165034L201.94,147.70548848898585L202.125,147.71438057775126L202.635,147.72799680712714L202.995,147.7332397048646L203.175,147.74106121331297L203.29999999999998,147.74712113749888L203.38000000000002,147.751028227579L203.435,147.75460920797076L203.555,147.75739000628164L203.64499999999998,147.76089550787074L203.69000000000003,147.76263878931917L204.125,147.770794681849L204.57,147.7754922507059L204.675,147.77780254470417L205.12,147.7839958386845L205.35,147.78841101778903L205.69,147.7950672874055L205.91,147.798339427662L206.295,147.79389568337922L206.325,147.79126293312981L207.025,147.7801864168136L207.27999999999997,147.77764446563054L207.435,147.77675968126374L207.51,147.77634828964423L207.58999999999997,147.77704436289997L207.71,147.77931749199468L207.89,147.78409641161346L207.91,147.78693105831613L207.995,147.7886044162802L208.20999999999998,147.7893341304834L208.51,147.7883606297955L208.515,147.78800757486732L208.645,147.78682408487268L209.865,147.80001311752477L210.115,147.8087929576831L210.19,147.81499242873173L210.4,147.8216901188563L210.425,147.82584113570874L210.875,147.83176419551864L211.825,147.82786707827864L212.135,147.8246217697824L212.14,147.82281700998337L212.22,147.82366770940894L212.39499999999998,147.82913663946314L212.51500000000001,147.83460739083722L212.575,147.83926820205232L212.59,147.8424405333196L213,147.8436352343437L213.02999999999997,147.84500826633433L213.13,147.8465476407794L213.64999999999998,147.85187484468148L213.715,147.85677288559154L213.79,147.86138362489388L214.31,147.86225502075104L214.38,147.86317058283893L214.475,147.86296321975473L214.66,147.86441471145918L215.16,147.86887604276163L215.59,147.87193343359127L215.78000000000003,147.86972562711176L215.805,147.86840305322846L216.10000000000002,147.86551216450002L216.16,147.86258178625502L216.345,147.86386855944394L216.395,147.86436157527208L216.805,147.87124323608063L217.265,147.87587256736506L217.5,147.88287887875407L217.59500000000003,147.8860448071609L217.71,147.88803192938866L217.785,147.8894122568697L217.81,147.88953017311871L218.33,147.89092653314816L219.175,147.89830800038902L219.845,147.90189367021517L220.21,147.901891285094L220.33,147.90150794322037L221.80999999999997,147.90824438145603L221.99,147.915222843056L222.035,147.91983534965817L222.045,147.92235440059844L222.315,147.92273882504907L222.355,147.92183930859926L222.615,147.9216838832853L223.095,147.91409668363082L223.41,147.90523019604055L224.73499999999999,147.90147513551813L224.825,147.89968946518482L224.82999999999998,147.89871011192787L224.91,147.8970358476948L225.125,147.89614997690387L225.24,147.895639290723L225.54000000000002,147.8959722103553L225.775,147.8958430651949L225.9,147.89491920257367L226.005,147.89281877925848L226.82,147.8925380948237L227.16,147.8929087902934L227.755,147.8893999285001L227.80499999999998,147.88840790250887L227.83999999999997,147.88852639591093L227.94500000000002,147.89070274886723L228.23000000000002,147.8915815484955L228.715,147.8915565346142L228.97,147.89029767867686L229.10000000000002,147.89072264883973L229.16500000000002,147.89128859283957L229.255,147.89098460788986L229.64999999999998,147.88753461131728L230.305,147.86507775061892L230.445,147.8447178985093L230.58999999999997,147.83099438908184L230.615,147.82294385381033L230.975,147.81908571718628L231.35999999999999,147.8220524400383L231.875,147.82606723218618L232.065,147.82839328980123L232.07,147.82989284208819L232.345,147.8327923301542L232.39,147.83366850368287L232.76000000000002,147.83349184007707L232.95499999999998,147.8355784002618L233.705,147.8390766998336L233.85,147.84092247904573L233.97,147.84448098046323L234.09,147.8472469726368L234.345,147.85275653476504L234.42499999999998,147.85707876667374L234.505,147.85970164588088L234.60500000000002,147.86313164979813L235.11499999999998,147.86529488861916L235.16500000000002,147.86614788472866L235.725,147.86854444384704L235.92499999999998,147.87179197186308L236.115,147.8754659447913L236.52,147.87833234243658L236.745,147.88182959600132L236.78,147.88434388276244L237.06,147.88148764691533L237.155,147.87583927465548L237.665,147.87078440280598L237.7,147.86786858494187L237.83499999999998,147.86755178722802L238.51000000000002,147.87335728617347L238.915,147.87748703814648L239.06500000000003,147.8791746926731L239.225,147.88051117106832L239.26,147.88177488532398L239.38000000000002,147.8846088307305L239.48000000000002,147.88806788666272L239.95999999999998,147.89575382198825L240.035,147.8988113649245L240.04500000000002,147.9008888049457L240.125,147.9036734621843L240.58,147.9090721068454L241.05,147.91480795637798L241.1,147.91827135739345L241.345,147.92159509186519L241.645,147.92266963436944L242.735,147.9209667161986L242.825,147.92084198092726L243.345,147.92256169852797L243.415,147.92304466418733L243.565,147.92598144413418L243.695,147.92813834668033L243.785,147.9304297290494L243.85999999999999,147.9322357906252L244.095,147.9332574461907L244.53,147.93452111214458L244.7,147.93658171194826L244.70499999999998,147.93795469461702L244.93,147.93961088096393L245.195,147.9419613256174L245.225,147.94369178558097L245.285,147.94439905461493L245.41500000000002,147.94647106574072L245.425,147.9477738800412L245.595,147.94942040668522L245.81,147.9517763967907L245.96499999999997,147.95536303166125L246.195,147.9591721573089L246.56,147.96438183508005L246.64000000000001,147.96791724635176L247.24,147.97255018963224L247.365,147.97579020031574L247.54000000000002,147.98045690368582L247.88000000000002,147.98619642562252L248.23000000000002,147.9919769686853L248.565,147.995088176274L248.635,147.9980091117881L248.9,148.0026455216445L249.58499999999998,148.00647630350812L249.605,148.00869169120207L249.61499999999998,148.01011402776368L249.97000000000003,148.0172114602955L250.465,148.02430075450133L250.54,148.02998069401616L250.785,148.03512835637352L250.85,148.03776646784317L250.855,148.03943716365916L251.005,148.0413685105969L251.465,148.0459231071311L251.9,148.0528769289039L252,148.05852912632122L252.315,148.0651753903478L252.685,148.06969275987444L252.71,148.07251659432828L252.76500000000001,148.07476872742043L253.365,148.07618040615242L253.575,148.07738954290105L253.80499999999998,148.07797286340207L254.73499999999999,148.0789993758715L255.54,148.07677205239037L255.6,148.07623508622825L255.89,148.0761220607196L255.96499999999997,148.0762378157994L256.075,148.07733668725615L256.4,148.0810320427473L256.43,148.08366861942145L256.705,148.0873094022437L256.775,148.0907010582187L256.815,148.09302960616935L256.84,148.09454146643037L257.185,148.0953101135466L257.68,148.09777158601125L258.15500000000003,148.09954861761952L258.195,148.10036664731396L258.375,148.1017423482364L258.47,148.10398305425798L258.52,148.10516342502686L259.06,148.1062812520972L259.27,148.10866263442702L259.66,148.11244570126217L260.38,148.11715549773027L260.52,148.11923997280627L260.73,148.12169916288633L260.835,148.12433676187143L261.14500000000004,148.12737838932244L261.195,148.12892695521336L261.26,148.12997768375288L261.3,148.1306099671305L261.855,148.13315156419162L262.055,148.13707480620792L262.12,148.14000372762354L262.265,148.14266231611293L262.31,148.14498357447934L262.66,148.1460060237226L263.485,148.14663901080948L263.51,148.14741311013856L263.625,148.1468937801728L264.09,148.14609028741177L264.2,148.1445405295161L264.865,148.1494421995084L265.15500000000003,148.15388209589722L265.235,148.15711441617253L265.69,148.16408959764863L265.81,148.1687220274724L266.01,148.17014554377303L266.08,148.17160759857836L266.145,148.17241361881221L266.25,148.17384198543385L266.26,148.17483114443394L266.73,148.1752012431155L267.05,148.175686789127L267.175,148.17631729994525L267.195,148.1770759347338L267.655,148.18202859003893L267.76,148.18527580255002L267.91,148.18844582261877L268.15500000000003,148.1927943847909L268.6,148.1986170588335L268.645,148.20251631160977L269.485,148.20651300800088L269.505,148.20929451913977L269.53499999999997,148.21097793210356L269.83,148.2140758292604L270.09499999999997,148.21797546933462L270.11,148.22053654009324L270.295,148.22411355682743L270.58,148.22781246637425L270.675,148.23033644399118L271.02,148.2326805898015L271.685,148.23959999134925L271.815,148.24469796926252L271.925,148.24892517096086L272.12,148.2526306981819L272.265,148.25430725961786L272.315,148.25598523288883L272.32,148.25708169203946L272.63,148.25786168403596L272.64000000000004,148.25815481261714L272.985,148.2593780432123L273,148.2590957506882L273.005,148.25894668396631L273.22999999999996,148.26070771781397L273.345,148.26255638103362L273.445,148.26507849067852L274.02,148.27151149553302L274.225,148.27684962029602L274.49,148.2824199201187L274.56,148.28682738849645L274.97499999999997,148.29095098262505L275,148.29377487233563" style="fill: none;" fill="none"></path></g></g></g></g><g opacity="0.2"><g><g><g><path stroke="rgb(255, 112, 67)" stroke-width="2px" d="M25.005,52.39183187484741L25.925,17.516243934631348L26.055,7.625577092170715L26.32,11.537229895591736L26.36,15.315846920013428L26.415000000000003,19.798751771450043L26.895,30.318505883216858L27.015,34.971487641334534L27.255,36.05458456277847L27.564999999999998,25.72544825077057L27.595,25.973204970359802L27.675,28.789976477622986L28.09,40.14729684591293L28.88,45.06907206773758L28.965,46.36798024177551L29.005,46.84987360239029L29.195,46.722703635692596L29.535,52.68933194875717L29.565,53.14724510908127L29.72,55.32416832447052L29.91,57.90882879495621L29.994999999999997,59.095769584178925L30.455000000000002,62.361866533756256L30.995,66.07437711954117L31.155,67.86818155646324L31.495,70.71268907189369L31.535,71.02285972237587L31.654999999999998,70.89529412984848L31.915,71.482292085886L32.18,73.29499688744545L32.285,74.18540292978287L32.559999999999995,75.24313232302666L32.585,75.4413250386715L32.589999999999996,75.48649495840073L33.01,78.28518372774124L33.1,78.61662322282791L33.95,81.8511703312397L34.25,82.77537336945534L34.525,82.63191944360733L35.425,80.66120168566704L36.17,84.232452750206L36.195,84.3433493077755L36.535,85.75042685866356L36.93,86.3281355202198L36.965,86.46949526667595L37.550000000000004,84.85416555404663L37.675,83.21499279141426L38.010000000000005,83.72078195214272L38.129999999999995,84.05524402856827L38.315000000000005,84.678143709898L38.49,84.9874070584774L38.7,85.65861001610756L39.515,87.9663587808609L40.055,89.28280636668205L40.075,89.32098162174225L40.155,89.42331156134605L40.175,89.37668573856354L40.385,89.47163593769073L40.45,89.41172236204147L41.144999999999996,89.51262804865837L41.535,90.29761299490929L41.715,90.74253380298615L41.795,90.95542797446251L42.095,91.66225835680962L42.525,92.6501307785511L42.73,93.13166543841362L42.9,93.54949378967285L42.915000000000006,93.56370994448662L42.98500000000001,93.71087747812271L43.09,93.95479926466942L43.145,94.06491512060165L43.199999999999996,94.16073569655418L43.290000000000006,94.37102401256561L43.355,94.52423670887947L43.73,94.9096342921257L43.755,94.95833319425583L44.035,95.60411059856415L44.105,95.76765704154968L44.485,96.64128854870796L44.75,97.1175851225853L44.905,97.41202569007874L45.305,98.22779560089111L45.355000000000004,98.32946616411209L45.379999999999995,98.38274905085564L45.505,98.61496031284332L45.645,98.89500537514687L45.78,99.12110817432404L45.91,99.32636412978172L46.27,99.87303990125656L46.36,99.96774217486382L46.71,100.45853447914124L46.745,100.51238706707954L47.07,101.0220006108284L47.14,101.14941850304604L47.6,101.8671365082264L47.665,101.9616488814354L47.775,102.1259338259697L48.005,102.46713736653328L48.225,102.76241666078568L48.26,102.80078181624413L48.765,103.192467212677L49.464999999999996,103.66483917832375L49.825,104.09837651252747L50.75,105.16071099042892L50.81,105.20649808645248L51.28,105.77056556940079L51.824999999999996,106.2682312130928L52.18,106.563241481781L53.2,107.30733981728554L53.3,107.40707445144653L53.535,107.58136609196663L54.69,108.36108130216599L54.745,108.41134160757065L54.754999999999995,108.42131665349007L54.835,108.4722152352333L54.98,108.57976216077805L55.24,108.76700395345688L55.32,108.8014075756073L55.35,108.8254405260086L55.995000000000005,109.20683965086937L56.48,109.45912232995033L56.885,109.6601055264473L57.120000000000005,109.81759098172188L57.24,109.88018953800201L57.295,109.91305285692215L58.315,110.42432802915573L58.355000000000004,110.44574457406998L58.71,110.68873004615307L58.725,110.69240672886372L58.935,110.80031763017178L59.095000000000006,110.88023668527603L59.24,110.95920887589455L59.410000000000004,111.0519989579916L60.199999999999996,111.4004899263382L60.73,111.60715167224407L60.795,111.64177948236465L60.805,111.64855259656906L61.095,111.75619974732399L61.21,111.81912535429001L61.295,111.85937896370888L61.305,111.8652104884386L61.365,111.8975647687912L61.495,111.96257400512695L62.120000000000005,112.20333869755268L62.43,112.31834448873997L62.435,112.3176481872797L62.62,112.35972167551517L62.790000000000006,112.4000385850668L63.01,112.38586463034153L63.175000000000004,112.4024228900671L63.635000000000005,112.56700851023197L64.155,112.76609006524086L64.63,112.93612740933895L64.685,112.95776022970676L65.28500000000001,113.14071871340275L65.4,113.17593732476234L65.425,113.17936080694199L65.665,113.26032695174217L65.95,113.30270902812481L66.1,113.34358508884907L66.945,113.51028862595558L67.06,113.52831597626209L67.065,113.52987737953663L67.07,113.53124888241291L67.185,113.56845881044865L67.19500000000001,113.5723966062069L67.315,113.61462306976318L67.92,113.71838781237602L68.3,113.76731353998184L68.435,113.77883416414261L68.745,113.86086586117744L70.31,113.94856292009354L70.61,113.88151489198208L70.67,113.87366831302643L70.68,113.87097541987896L71.095,113.93031138181686L71.205,113.95150901377201L71.23,113.95663632452488L72.94500000000001,114.24692545831203L73.52,114.34942683577538L73.965,114.41564932465553L74.09,114.42669519782066L74.16,114.43712125718594L74.24,114.4419030547142L74.56,114.47375357151031L74.615,114.48652437329292L74.845,114.49962222576141L75.05999999999999,114.5446708202362L75.615,114.5668074041605L76.085,114.5865016579628L76.89500000000001,114.70067135989666L77.02999999999999,114.73510399460793L77.26,114.76843151450157L77.46499999999999,114.81189760565758L77.555,114.83130964636803L77.59,114.83867092430592L77.755,114.86954028904438L77.85000000000001,114.8794309347868L78.265,114.94192926585674L78.56,114.9665398299694L79.105,115.03242735564709L79.72,115.12342920899391L79.735,115.12625397741795L80.14,115.18857295811176L80.715,115.309808537364L80.855,115.31640230119228L80.905,115.32140301167965L81.095,115.33348278701305L81.225,115.3491627573967L81.295,115.35722297430038L81.645,115.42483015358448L81.66,115.4223218858242L81.73500000000001,115.44209790229797L81.8,115.45747983455658L81.94,115.47979049384594L82.16499999999999,115.51501174271107L82.27,115.52874259650707L82.28999999999999,115.52865555882454L82.735,115.57676629722118L83.01,115.62362422049046L83.29,115.63928836584091L83.34,115.64994916319847L83.52499999999999,115.69932326674461L83.885,115.76632118225098L84.05,115.79165178537369L84.88499999999999,115.98719117045403L84.985,116.01591624319553L85.285,116.1041592657566L85.505,116.14134545624256L86.17,116.31800293922424L88.34,116.90697111189365L88.5,116.95151594281197L88.815,117.0435543358326L88.895,117.06937023997307L89.065,117.117631316185L89.37,117.19851306080818L89.515,117.24358803033829L90.09,117.3956771492958L90.16,117.41699346899986L90.20500000000001,117.43087202310562L90.36000000000001,117.4838041216135L91.32000000000001,117.7799010425806L91.645,117.83957460522652L92.255,118.01026077568531L92.515,118.07585817575455L92.695,118.11825080215931L92.845,118.14579163491726L93.095,118.2093344181776L93.21499999999999,118.23822565376759L93.32,118.26615419983864L93.46,118.30819603800774L93.525,118.31983534991741L93.53500000000001,118.32210360467434L93.68,118.36814917623997L94.15,118.48062559962273L94.30000000000001,118.51694405078888L94.41499999999999,118.54267555475235L94.53,118.56683774292469L94.89500000000001,118.66963452100754L95.30999999999999,118.79106263816357L95.475,118.8378836363554L95.585,118.86771382391453L95.75999999999999,118.90898551046848L95.89,118.94312538206577L95.905,118.94701834022999L95.985,118.9646078646183L96.01,118.96876721084118L96.27000000000001,119.03601305186749L97.13499999999999,119.2062297463417L97.69,119.36520275473595L98.35,119.53165045380592L98.46,119.5651995241642L98.485,119.57375031709671L98.49,119.57470773160458L98.69500000000001,119.63090506196022L99.015,119.72517214715481L99.41999999999999,119.81577046215534L99.575,119.85223661363125L100.22500000000001,120.02022725343704L100.30499999999999,120.03734466433525L100.545,120.09950803220272L100.725,120.15254826843739L100.73,120.15156975388527L100.75999999999999,120.15960095822811L100.98,120.21518374979496L101.17,120.26979330182076L101.33,120.30879145860672L101.975,120.45428681373596L102.05,120.47657637298107L102.28999999999999,120.53524768352509L102.75500000000001,120.63462361693382L103.245,120.72776448726654L103.46,120.78150102496147L103.77,120.83599980175495L103.945,120.86655266582966L104.14500000000001,120.91381676495075L104.19,120.92276845872402L104.235,120.9314511269331L104.67,121.02253738045692L105.05000000000001,121.1094669252634L105.09,121.11378452181816L105.235,121.13707633316517L105.795,121.27690632641315L106.30499999999999,121.40096667408943L106.77499999999999,121.51968871057034L106.995,121.5724599212408L107.065,121.5902419835329L107.13,121.60407570004463L107.38499999999999,121.65885668992996L107.425,121.66839918494225L107.55499999999999,121.70061895251274L107.625,121.7165864109993L108.3,121.84354537725449L108.945,121.98005211353302L109.06,122.00189593434334L109.065,122.00230738520622L109.415,122.06139014661312L109.44,122.06431514024734L109.58500000000001,122.09377607703209L109.625,122.09822818636894L110.21000000000001,122.22762157022953L110.215,122.22802510857582L110.60499999999999,122.31236462295055L110.695,122.33133356273174L110.75,122.34522266685963L110.88499999999999,122.37129440903664L111.175,122.42891862988472L111.31,122.45600844919682L111.80499999999999,122.55609387159348L112.295,122.63417722284794L112.325,122.63990588486195L113.09,122.75902090966702L113.42999999999999,122.83018344640732L114.045,122.918940782547L114.25,122.94116967916489L114.365,122.95897284150124L114.415,122.96839401125908L114.63,123.0092753469944L115.15,123.11227785050869L115.35000000000001,123.15551975369453L115.55499999999999,139.84652381390333L115.735,139.65766259282827L115.935,123.25970913469791L115.98,123.26565934717655L117.38499999999999,139.0173896625638L117.50999999999999,138.96287901699543L117.71,138.8208427503705L117.835,139.00093294680119L118.255,138.89399001002312L118.635,139.1478077173233L119.10000000000001,139.10892561078072L119.23,139.238483838737L119.455,139.38863043487072L120,139.76574625074863L120.15,139.69413401931524L120.30000000000001,139.62778097391129L120.32000000000001,139.60879093408585L120.41499999999999,139.57907943427563L120.495,139.63632912933826L120.53999999999999,139.64568699896336L120.65,139.6489759683609L120.67,139.66242988407612L120.8,139.6475055590272L120.88,139.65822701901197L121.175,139.71967562288046L121.35000000000001,139.7293737307191L121.39,139.7428777590394L121.59,139.6838490664959L121.925,139.84834369271994L121.995,139.77895355969667L122.13000000000001,139.8406078889966L122.21499999999999,139.8364419490099L122.515,139.8136262074113L122.77,139.89752393960953L123.17,140.0712748914957L123.27,140.10443229228258L123.48,140.2359897494316L123.72999999999999,140.26905220001936L123.74499999999999,140.28000839799643L123.83,140.2533999234438L123.97,140.27443139255047L124.17,140.31488413363695L124.51499999999999,140.38451164215803L124.53500000000001,140.37965071946383L125.10499999999999,140.54936496913433L125.155,140.54756750911474L125.865,140.59077512472868L126.42999999999999,140.5720290541649L126.63499999999999,140.4812711700797L127.07499999999999,140.39699891209602L127.33,140.39511177688837L127.46000000000001,140.4259244352579L128.885,140.41205774992704L128.945,140.38329838961363L129.005,140.39608369767666L129.12,140.3759120553732L129.15,140.3762760311365L129.46,140.39102759957314L129.595,140.33829463273287L129.74,140.30103459209204L130.10999999999999,140.21102180331945L130.96,140.11644085496664L131.1,140.11306089162827L131.21,140.12260470539331L131.235,140.13184520602226L131.47,140.1545172035694L131.88,140.12160377204418L132.06,140.1520102545619L132.82,140.24172764271498L132.895,140.2360781058669L132.98,140.23978511989117L133.85,140.27800389379263L134.035,140.26996345818043L134.325,140.26058185100555L134.67000000000002,140.20420253276825L135.07999999999998,140.25437580049038L135.70999999999998,140.35214813053608L135.795,140.3534840270877L135.98999999999998,140.37668220698833L136.675,140.41161596775055L136.94,140.45341119915247L137.195,140.50025725364685L137.39000000000001,140.49021627008915L138.155,140.44825883209705L138.34,140.43447522819042L138.38,140.42721681296825L138.82999999999998,140.44670402258635L138.895,140.4491094276309L139.03,140.44094766676426L139.07500000000002,140.4285896345973L139.105,140.4317955225706L139.15,140.43187464773655L139.41,140.46050081402063L139.47,140.46616749465466L139.48,140.46094523370266L139.48999999999998,140.46407199651003L139.57,140.4711035862565L139.94,140.50810647010803L139.99,140.5084955021739L140.11,140.51506420969963L140.335,140.49362128973007L140.39,140.50256770849228L140.465,140.5064606666565L140.525,140.502248570323L140.64,140.52102233469486L140.715,140.54006380587816L140.85,140.53585698455572L140.965,140.54135750234127L141.355,140.5442666709423L141.655,140.52457769215107L141.835,140.52797348052263L142.29,140.47054179757833L142.755,140.53884659707546L143.42,140.624537833035L143.84,140.64888332784176L144.655,140.72884062677622L144.765,140.73715272545815L144.79500000000002,140.7450415045023L145.01,140.79355578124523L145.435,140.78575272113085L145.65,140.81191809475422L146.175,140.8612447232008L146.445,140.93650594353676L146.845,140.98059052973986L147.21,141.03952690958977L147.225,141.0385114699602L147.32,141.0514246970415L147.565,141.0941892117262L147.775,141.14146649837494L147.895,141.17314689606428L148.09,141.20887454599142L148.185,141.23031350970268L148.28,141.24661725014448L148.29,141.24824327230453L148.38,141.26104836165905L148.57000000000002,141.2949403077364L149.01,141.33264476805925L149.14,141.33308391273022L149.155,141.3368397206068L149.22,141.34447925537825L149.715,141.43524505198002L150.215,147.73827334865928L150.285,148.12661570683122L150.5,144.6190953478217L150.53,144.63081708177924L150.95499999999998,145.22720719501376L151.38000000000002,145.4431437291205L151.58499999999998,145.428087528795L151.905,145.5480966679752L152.08,145.5914592370391L152.165,145.62090368941426L152.59500000000003,145.79945687949657L153.005,145.1823379509151L153.28,145.37042506411672L153.335,145.4204690940678L153.82500000000002,145.7753461226821L154.23,145.79589558765292L154.885,146.02810882776976L154.92499999999998,145.99351728335023L155.19,146.12102155387402L155.48,146.06658409908414L155.63000000000002,146.17251884937286L155.71,146.22904850542545L155.76,146.26956850290298L155.805,146.29885536432266L156.055,146.37414625659585L156.525,146.36770348995924L156.715,146.3601984679699L156.845,146.360954772681L156.87,146.3554522767663L157.005,146.3478529639542L157.13000000000002,146.4067286811769L157.19,146.42905582487583L157.385,146.52636922895908L158.095,146.4072166197002L158.115,146.4192119948566L158.195,146.43086449429393L158.29999999999998,146.48879532516003L158.47,146.47401078790426L158.5,146.4870532527566L158.62500000000003,146.49395956099033L158.85999999999999,146.52368952333927L159.285,146.53426987677813L160.1,146.53519827872515L160.155,146.5651966072619L161.02499999999998,146.62200847640634L161.095,146.6041782796383L161.15,146.61339504271746L161.245,146.6321773789823L161.36,146.58988365903497L161.39000000000001,146.5991136096418L161.965,146.652831684798L162.1,146.63032453134656L162.25000000000003,146.58265293762088L162.475,146.6294475607574L162.54999999999998,146.64368217810988L162.765,146.67209734395146L163.11499999999998,146.71535045653582L163.22,146.73681645467877L163.41,146.72357749566436L163.535,146.76220903918147L163.65,146.80065266042948L165,146.8204530738294L165.31,146.83432833105326L165.675,146.84241096675396L165.68,146.84254482015967L166.605,146.9333739168942L166.945,146.9199964888394L167.21,146.8833648338914L167.37499999999997,146.89138680696487L167.395,146.8939854092896L167.625,146.88859368860722L167.655,146.87694382667542L167.785,146.82311167940497L167.89,146.81683375686407L168.20999999999998,146.77823781967163L168.615,146.85347464308143L169.3,146.95086255669594L169.365,146.9652712494135L169.42499999999998,146.98332431539893L169.555,147.01073063537478L169.79,147.0260505862534L170.14000000000001,147.07746677845716L170.145,147.079147528857L170.22,147.07189241051674L170.39499999999998,147.0484865270555L170.48000000000002,147.06993670016527L170.555,147.04889995604753L170.83,147.0582591444254L170.84,147.06009616702795L170.865,147.06652113050222L171.15,147.11608513444662L171.29,147.11163038760424L171.455,147.1370473690331L171.5,147.1483747959137L171.85,147.19907424598932L171.92499999999998,147.1974772363901L172.01000000000002,147.18744944036007L172.37,147.15837028250098L172.48,147.1505599692464L173.14000000000001,147.1272285953164L173.255,147.1333383768797L173.495,147.1029582694173L173.52,147.09850945696235L173.98999999999998,147.13221150264144L174,147.13409731909633L174.02499999999998,147.13598247617483L174.11,147.14346969500184L174.23499999999999,147.16682678461075L174.425,147.17689941823483L174.795,147.14591400325298L175.21499999999997,147.13949958980083L175.64000000000001,147.15164925903082L175.88000000000002,147.15830302610993L176.1,147.1419696137309L176.17000000000002,147.14206390455365L176.29500000000002,147.1632918678224L176.465,147.18569220229983L176.555,147.18922052532434L176.565,147.18141812458634L176.845,147.1508164666593L177.265,147.13337925821543L177.325,147.13892329484224L178.385,147.18880841508508L178.85999999999999,147.1319714896381L179.005,147.13919957354665L179.085,147.14368728920817L179.235,147.15823642909527L179.25,147.15510043501854L179.29,147.15258887037635L179.67499999999998,147.16795629635453L180.75500000000002,147.22535303235054L180.91,147.2280004285276L181.335,147.2423260398209L181.705,147.23098080977798L182.54000000000002,147.28968377038836L183.25,147.32971714809537L183.26,147.33174407109618L183.965,147.32620794698596L184.18,147.33402485400438L184.465,147.34990263730288L185.7,147.38692398369312L185.76999999999998,147.39240274205804L186.005,147.40035811811686L186.3,147.41084022447467L186.39999999999998,147.41167499497533L186.41,147.4119255580008L186.665,147.42622940987349L186.975,147.42636194452643L187.25,147.4331093430519L187.89,147.46699865162373L188.16,147.45674864575267L188.33,147.46433279290795L188.37,147.46443301811814L188.375,147.46506931632757L188.63500000000002,147.47077555954456L188.80499999999998,147.47999891638756L188.83499999999998,147.4808343462646L189.29,147.471802867949L189.52,147.46723602712154L190.15,147.50211967527866L190.225,147.50646694377065L190.26,147.50779888406396L190.285,147.51024385169148L190.35,147.5053855665028L190.37500000000003,147.50614055246115L190.575,147.5135756805539L190.57999999999998,147.51433198526502L190.64,147.5209250897169L190.79,147.5252262018621L190.81,147.52766523510218L191.15,147.53942389413714L191.20999999999998,147.54035625234246L191.575,147.5526503250003L191.725,147.5483459159732L192.79,147.58092834055424L192.83,147.58353947103024L192.9,147.58554331585765L193.115,147.5844698511064L193.17000000000002,147.5813094601035L193.185,147.5829038321972L193.295,147.58199587091804L193.47,147.58737836033106L193.92499999999998,147.57782927155495L194.415,147.59886601567268L194.97,147.61656038090587L195.24,147.60766011849046L195.38,147.5993717573583L195.995,147.6100892610848L196.325,147.61827739700675L196.625,147.61055478081107L197.03500000000003,147.60696447640657L197.12,147.60705415159464L197.215,147.61081325635314L197.395,147.617130741477L197.60999999999999,147.62475115433335L197.845,147.63772900030017L197.985,147.64047794044018L198.075,147.64026364311576L198.135,147.6418863683939L198.58,147.6593341268599L198.76,147.65296323224902L198.9,147.6551253274083L199.135,147.65488663315773L199.25,147.66261716187L199.355,147.66968172043562L199.385,147.6702388934791L199.455,147.6755877546966L200.06500000000003,147.68098475039005L200.155,147.6777617186308L200.4,147.68069330602884L200.45000000000002,147.68251582235098L200.505,147.68353521823883L200.555,147.68677539378405L200.63,147.6897491812706L201.63500000000002,147.70426271483302L201.69,147.7022166699171L201.94,147.71844919770956L202.125,147.72771871089935L202.635,147.748421151191L202.995,147.74110405147076L203.175,147.75279347598553L203.29999999999998,147.75621102377772L203.38000000000002,147.75688886269927L203.435,147.75998067855835L203.555,147.761561203748L203.64499999999998,147.76615376025438L203.69000000000003,147.76525371149182L204.125,147.7830285206437L204.57,147.78253860399127L204.675,147.78126798570156L205.12,147.79328577965498L205.35,147.79503378644586L205.69,147.80505169183016L205.91,147.80324763804674L206.295,147.7872300669551L206.325,147.7873138077557L207.025,147.76357164233923L207.27999999999997,147.77383153885603L207.435,147.77543250471354L207.51,147.77573120221496L207.58999999999997,147.77808847278357L207.71,147.78272718563676L207.89,147.7912647910416L207.91,147.79118302837014L207.995,147.79111445322633L208.20999999999998,147.7904287017882L208.51,147.78690037876368L208.515,147.78747799247503L208.645,147.7850488498807L209.865,147.81979666650295L210.115,147.82196271792054L210.19,147.8242916353047L210.4,147.8317366540432L210.425,147.83206766098738L210.875,147.8406487852335L211.825,147.8220214024186L212.135,147.81975380703807L212.14,147.8201098702848L212.22,147.8249437585473L212.39499999999998,147.83734003454447L212.51500000000001,147.84281351789832L212.575,147.84625941887498L212.59,147.8471990302205L213,147.84542728587985L213.02999999999997,147.84706781432033L213.13,147.84885670244694L213.64999999999998,147.85986565053463L213.715,147.86411994695663L213.79,147.86829973384738L214.31,147.86356211453676L214.38,147.8645439259708L214.475,147.86265217512846L214.66,147.86659194901586L215.16,147.8755680397153L215.59,147.8765195198357L215.78000000000003,147.8664139173925L215.805,147.86641919240355L216.10000000000002,147.8611758314073L216.16,147.85818621888757L216.345,147.8657987192273L216.395,147.86510109901428L216.805,147.8815657272935L217.265,147.88281656429172L217.5,147.8933883458376L217.59500000000003,147.89079369977117L217.71,147.89101261273026L217.785,147.89148274809122L217.81,147.88970704749227L218.33,147.89302107319236L219.175,147.90938020125031L219.845,147.90727217495441L220.21,147.90188770741224L220.33,147.9009329304099L221.80999999999997,147.91834903880954L221.99,147.92569053545594L222.035,147.92675410956144L222.045,147.92613297700882L222.315,147.923315461725L222.355,147.92049003392458L222.615,147.92145074531436L223.095,147.90271588414907L223.41,147.89193046465516L224.73499999999999,147.89584254473448L224.825,147.89701095968485L224.82999999999998,147.89724108204246L224.91,147.8945244513452L225.125,147.89482117071748L225.24,147.89487326145172L225.54000000000002,147.8964715898037L225.775,147.8956493474543L225.9,147.89353340864182L226.005,147.88966814428568L226.82,147.8921170681715L227.16,147.893464833498L227.755,147.88413663581014L227.80499999999998,147.88691986352205L227.83999999999997,147.88870413601398L227.94500000000002,147.89396727830172L228.23000000000002,147.89289974793792L228.715,147.89151901379228L228.97,147.88840939477086L229.10000000000002,147.89136010408401L229.16500000000002,147.89213750883937L229.255,147.89052863046527L229.64999999999998,147.88235961645842L230.305,147.83139245957136L230.445,147.81417812034488L230.58999999999997,147.81040912494063L230.615,147.81086805090308L230.975,147.81329851225019L231.35999999999999,147.8265025243163L231.875,147.832089420408L232.065,147.8318823762238L232.07,147.83214217051864L232.345,147.83714156225324L232.39,147.83498276397586L232.76000000000002,147.8332268446684L232.95499999999998,147.83870824053884L233.705,147.84432414919138L233.85,147.84369114786386L233.97,147.84981873258948L234.09,147.8513959608972L234.345,147.86102087795734L234.42499999999998,147.86356211453676L234.505,147.86363596469164L234.60500000000002,147.86827665567398L235.11499999999998,147.86853974685073L235.16500000000002,147.8674273788929L235.725,147.87213928252459L235.92499999999998,147.87666326388717L236.115,147.88097690418363L236.52,147.88263193890452L236.745,147.8870754763484L236.78,147.88811531290412L237.06,147.8772032931447L237.155,147.86736671626568L237.665,147.86320209503174L237.7,147.8634948581457L237.83499999999998,147.86707659065723L238.51000000000002,147.88206553459167L238.915,147.88368166610599L239.06500000000003,147.88170617446303L239.225,147.88251588866115L239.26,147.88367045670748L239.38000000000002,147.88885974884033L239.48000000000002,147.89325647056103L239.95999999999998,147.90728272497654L240.035,147.90339767932892L240.04500000000002,147.9040049649775L240.125,147.90785044804215L240.58,147.91717007383704L241.05,147.9234117306769L241.1,147.92346645891666L241.345,147.92658069357276L241.645,147.92428144812584L242.735,147.9184123389423L242.825,147.9206548780203L243.345,147.92514127492905L243.415,147.92376911267638L243.565,147.93038661405444L243.695,147.93137370049953L243.785,147.933866802603L243.85999999999999,147.93494488298893L244.095,147.93478992953897L244.53,147.9364166110754L244.7,147.9396726116538L244.70499999999998,147.9400141686201L244.93,147.9420951604843L245.195,147.94548699259758L245.225,147.94628747552633L245.285,147.94545995816588L245.41500000000002,147.9495790824294L245.425,147.94972810149193L245.595,147.95189019665122L245.81,147.95531038194895L245.96499999999997,147.96074298396707L246.195,147.96488584578037L246.56,147.97219635173678L246.64000000000001,147.97322036325932L247.24,147.97949960455298L247.365,147.98065021634102L247.54000000000002,147.98745695874095L247.88000000000002,147.99480570852757L248.23000000000002,148.00064778327942L248.565,147.99975498765707L248.635,148.00239051505923L248.9,148.00960013642907L249.58499999999998,148.01222247630358L249.605,148.012014772743L249.61499999999998,148.01224753260612L249.97000000000003,148.0278576090932L250.465,148.03493469581008L250.54,148.0385006032884L250.785,148.04284984990954L250.85,148.04172363504767L250.855,148.04194320738316L251.005,148.04426553100348L251.465,148.05275500193238L251.9,148.06330766156316L252,148.0670074224472L252.315,148.07514478638768L252.685,148.0764688141644L252.71,148.07675234600902L252.76500000000001,148.0781469270587L253.365,148.07829792425036L253.575,148.079203248024L253.80499999999998,148.07884784415364L254.73499999999999,148.0805391445756L255.54,148.0734310671687L255.6,148.07542963698506L255.89,148.07595252245665L255.96499999999997,148.0764114484191L256.075,148.07898499444127L256.4,148.086575075984L256.43,148.0876234844327L256.705,148.09277057647705L256.775,148.09578854218125L256.815,148.09652242809534L256.84,148.09680925682187L257.185,148.0964630842209L257.68,148.10146379470825L258.15500000000003,148.1022141650319L258.195,148.10159369185567L258.375,148.10380589962006L258.47,148.1073441132903L258.52,148.1069339811802L259.06,148.10795799270272L259.27,148.11223470792174L259.66,148.11812030151486L260.38,148.1242201924324L260.52,148.12236668542027L260.73,148.1253879480064L260.835,148.12829316034913L261.14500000000004,148.13194083049893L261.195,148.13124980404973L261.26,148.1315537765622L261.3,148.1315583921969L261.855,148.13696395978332L262.055,148.14295966923237L262.12,148.14439710974693L262.265,148.14665019884706L262.31,148.14846546202898L262.66,148.1475396975875L263.485,148.14758849143982L263.51,148.14857425913215L263.625,148.1461147852242L264.09,148.14488504827023L264.2,148.14221589267254L264.865,148.15679470449686L265.15500000000003,148.16054194048047L265.235,148.16196289658546L265.69,148.1745523698628L265.81,148.17567067220807L266.01,148.17228081822395L266.08,148.17380068078637L266.145,148.173622649163L266.25,148.1759845353663L266.26,148.1763148829341L266.73,148.17575639113784L267.05,148.17641510814428L267.175,148.1772630661726L267.195,148.17821388691664L267.655,148.18945757299662L267.76,148.19014662131667L267.91,148.19320085272193L268.15500000000003,148.19931722804904L268.6,148.2073510698974L268.645,148.2083651907742L269.485,148.2125080525875L269.505,148.21346678584814L269.53499999999997,148.2135030515492L269.83,148.21872267499566L270.09499999999997,148.22382492944598L270.11,148.22437814623117L270.295,148.22947908192873L270.58,148.23336083069444L270.675,148.2341224104166L271.02,148.23619680851698L271.685,148.24997909367085L271.815,148.25234493613243L271.925,148.25526597350836L272.12,148.25818898901343L272.265,148.25682210177183L272.315,148.25850219279528L272.32,148.25872638076544L272.63,148.2590316720307L272.64000000000004,148.25859450548887L272.985,148.26121288910508L273,148.25867231190205L273.005,148.25872308388352L273.22999999999996,148.26334926858544L273.345,148.26532937586308L273.445,148.26886165514588L274.02,148.28116100281477L274.225,148.28485680744052L274.49,148.29077536985278L274.56,148.29343859106302L274.97499999999997,148.29713637381792L275,148.29801070690155" style="fill: none;" fill="none"></path></g></g></g></g></g></g><g transform="translate(30, 177)" clip-path="url(#clip_1)"><clipPath id="clip_1"><rect width="300" height="23"></rect></clipPath><g><g><line x1="0" y1="0" x2="0" y2="5" style="visibility: inherit;" fill="rgb(0, 0, 0)" stroke="rgb(204, 204, 204)" stroke-width="1px"></line><line x1="25" y1="0" x2="25" y2="5" style="visibility: inherit;" fill="rgb(0, 0, 0)" stroke="rgb(204, 204, 204)" stroke-width="1px"></line><line x1="50" y1="0" x2="50" y2="5" style="visibility: inherit;" fill="rgb(0, 0, 0)" stroke="rgb(204, 204, 204)" stroke-width="1px"></line><line x1="75" y1="0" x2="75" y2="5" style="visibility: inherit;" fill="rgb(0, 0, 0)" stroke="rgb(204, 204, 204)" stroke-width="1px"></line><line x1="100" y1="0" x2="100" y2="5" style="visibility: inherit;" fill="rgb(0, 0, 0)" stroke="rgb(204, 204, 204)" stroke-width="1px"></line><line x1="125" y1="0" x2="125" y2="5" style="visibility: inherit;" fill="rgb(0, 0, 0)" stroke="rgb(204, 204, 204)" stroke-width="1px"></line><line x1="150" y1="0" x2="150" y2="5" style="visibility: inherit;" fill="rgb(0, 0, 0)" stroke="rgb(204, 204, 204)" stroke-width="1px"></line><line x1="175" y1="0" x2="175" y2="5" style="visibility: inherit;" fill="rgb(0, 0, 0)" stroke="rgb(204, 204, 204)" stroke-width="1px"></line><line x1="200" y1="0" x2="200" y2="5" style="visibility: inherit;" fill="rgb(0, 0, 0)" stroke="rgb(204, 204, 204)" stroke-width="1px"></line><line x1="225" y1="0" x2="225" y2="5" style="visibility: inherit;" fill="rgb(0, 0, 0)" stroke="rgb(204, 204, 204)" stroke-width="1px"></line><line x1="250" y1="0" x2="250" y2="5" style="visibility: inherit;" fill="rgb(0, 0, 0)" stroke="rgb(204, 204, 204)" stroke-width="1px"></line><line x1="275" y1="0" x2="275" y2="5" style="visibility: inherit;" fill="rgb(0, 0, 0)" stroke="rgb(204, 204, 204)" stroke-width="1px"></line><line x1="300" y1="0" x2="300" y2="5" style="visibility: inherit;" fill="rgb(0, 0, 0)" stroke="rgb(204, 204, 204)" stroke-width="1px"></line></g><g transform="translate(0, 8)"><text x="0" y="0" dx="0em" dy="0.95em" style="text-anchor: middle; visibility: hidden; font-family: &quot;Helvetica Neue&quot;, sans-serif; font-size: 12px; font-weight: 200;" fill="rgb(33, 33, 33)" stroke="none" stroke-width="1px">-5k</text><text x="25" y="0" dx="0em" dy="0.95em" style="text-anchor: middle; visibility: inherit; font-family: &quot;Helvetica Neue&quot;, sans-serif; font-size: 12px; font-weight: 200;" fill="rgb(33, 33, 33)" stroke="none" stroke-width="1px">0</text><text x="50" y="0" dx="0em" dy="0.95em" style="text-anchor: middle; visibility: inherit; font-family: &quot;Helvetica Neue&quot;, sans-serif; font-size: 12px; font-weight: 200;" fill="rgb(33, 33, 33)" stroke="none" stroke-width="1px">5k</text><text x="75" y="0" dx="0em" dy="0.95em" style="text-anchor: middle; visibility: inherit; font-family: &quot;Helvetica Neue&quot;, sans-serif; font-size: 12px; font-weight: 200;" fill="rgb(33, 33, 33)" stroke="none" stroke-width="1px">10k</text><text x="100" y="0" dx="0em" dy="0.95em" style="text-anchor: middle; visibility: inherit; font-family: &quot;Helvetica Neue&quot;, sans-serif; font-size: 12px; font-weight: 200;" fill="rgb(33, 33, 33)" stroke="none" stroke-width="1px">15k</text><text x="125" y="0" dx="0em" dy="0.95em" style="text-anchor: middle; visibility: inherit; font-family: &quot;Helvetica Neue&quot;, sans-serif; font-size: 12px; font-weight: 200;" fill="rgb(33, 33, 33)" stroke="none" stroke-width="1px">20k</text><text x="150" y="0" dx="0em" dy="0.95em" style="text-anchor: middle; visibility: inherit; font-family: &quot;Helvetica Neue&quot;, sans-serif; font-size: 12px; font-weight: 200;" fill="rgb(33, 33, 33)" stroke="none" stroke-width="1px">25k</text><text x="175" y="0" dx="0em" dy="0.95em" style="text-anchor: middle; visibility: inherit; font-family: &quot;Helvetica Neue&quot;, sans-serif; font-size: 12px; font-weight: 200;" fill="rgb(33, 33, 33)" stroke="none" stroke-width="1px">30k</text><text x="200" y="0" dx="0em" dy="0.95em" style="text-anchor: middle; visibility: inherit; font-family: &quot;Helvetica Neue&quot;, sans-serif; font-size: 12px; font-weight: 200;" fill="rgb(33, 33, 33)" stroke="none" stroke-width="1px">35k</text><text x="225" y="0" dx="0em" dy="0.95em" style="text-anchor: middle; visibility: inherit; font-family: &quot;Helvetica Neue&quot;, sans-serif; font-size: 12px; font-weight: 200;" fill="rgb(33, 33, 33)" stroke="none" stroke-width="1px">40k</text><text x="250" y="0" dx="0em" dy="0.95em" style="text-anchor: middle; visibility: inherit; font-family: &quot;Helvetica Neue&quot;, sans-serif; font-size: 12px; font-weight: 200;" fill="rgb(33, 33, 33)" stroke="none" stroke-width="1px">45k</text><text x="275" y="0" dx="0em" dy="0.95em" style="text-anchor: middle; visibility: inherit; font-family: &quot;Helvetica Neue&quot;, sans-serif; font-size: 12px; font-weight: 200;" fill="rgb(33, 33, 33)" stroke="none" stroke-width="1px">50k</text><text x="300" y="0" dx="0em" dy="0.95em" style="text-anchor: middle; visibility: hidden; font-family: &quot;Helvetica Neue&quot;, sans-serif; font-size: 12px; font-weight: 200;" fill="rgb(33, 33, 33)" stroke="none" stroke-width="1px">55k</text></g><line x1="0" y1="0" x2="300" y2="0" fill="rgb(0, 0, 0)" stroke="rgb(204, 204, 204)" stroke-width="1px"></line></g></g></g></g></svg>