<svg viewBox="0 0 330 200" xmlns="http://www.w3.org/2000/svg"><g><g><g><g><g><line x1="50" y1="177" x2="45" y2="177" style="visibility: inherit;" fill="rgb(0, 0, 0)" stroke="rgb(204, 204, 204)" stroke-width="1px"></line><line x1="50" y1="157.33333333333331" x2="45" y2="157.33333333333331" style="visibility: inherit;" fill="rgb(0, 0, 0)" stroke="rgb(204, 204, 204)" stroke-width="1px"></line><line x1="50" y1="137.66666666666663" x2="45" y2="137.66666666666663" style="visibility: inherit;" fill="rgb(0, 0, 0)" stroke="rgb(204, 204, 204)" stroke-width="1px"></line><line x1="50" y1="117.99999999999999" x2="45" y2="117.99999999999999" style="visibility: inherit;" fill="rgb(0, 0, 0)" stroke="rgb(204, 204, 204)" stroke-width="1px"></line><line x1="50" y1="98.3333333333333" x2="45" y2="98.3333333333333" style="visibility: inherit;" fill="rgb(0, 0, 0)" stroke="rgb(204, 204, 204)" stroke-width="1px"></line><line x1="50" y1="78.66666666666666" x2="45" y2="78.66666666666666" style="visibility: inherit;" fill="rgb(0, 0, 0)" stroke="rgb(204, 204, 204)" stroke-width="1px"></line><line x1="50" y1="58.99999999999997" x2="45" y2="58.99999999999997" style="visibility: inherit;" fill="rgb(0, 0, 0)" stroke="rgb(204, 204, 204)" stroke-width="1px"></line><line x1="50" y1="39.333333333333286" x2="45" y2="39.333333333333286" style="visibility: inherit;" fill="rgb(0, 0, 0)" stroke="rgb(204, 204, 204)" stroke-width="1px"></line><line x1="50" y1="19.6666666666666" x2="45" y2="19.6666666666666" style="visibility: inherit;" fill="rgb(0, 0, 0)" stroke="rgb(204, 204, 204)" stroke-width="1px"></line><line x1="50" y1="0" x2="45" y2="0" style="visibility: inherit;" fill="rgb(0, 0, 0)" stroke="rgb(204, 204, 204)" stroke-width="1px"></line></g><g transform="translate(40, 0)"><text x="0" y="177" dx="0em" dy="0.3em" style="text-anchor: end; visibility: hidden; font-family: &quot;Helvetica Neue&quot;, sans-serif; font-size: 12px; font-weight: 200;" fill="rgb(33, 33, 33)" stroke="none" stroke-width="1px">0.7</text><text x="0" y="157.33333333333331" dx="0em" dy="0.3em" style="text-anchor: end; visibility: inherit; font-family: &quot;Helvetica Neue&quot;, sans-serif; font-size: 12px; font-weight: 200;" fill="rgb(33, 33, 33)" stroke="none" stroke-width="1px">0.75</text><text x="0" y="137.66666666666663" dx="0em" dy="0.3em" style="text-anchor: end; visibility: hidden; font-family: &quot;Helvetica Neue&quot;, sans-serif; font-size: 12px; font-weight: 200;" fill="rgb(33, 33, 33)" stroke="none" stroke-width="1px">0.8</text><text x="0" y="117.99999999999999" dx="0em" dy="0.3em" style="text-anchor: end; visibility: inherit; font-family: &quot;Helvetica Neue&quot;, sans-serif; font-size: 12px; font-weight: 200;" fill="rgb(33, 33, 33)" stroke="none" stroke-width="1px">0.85</text><text x="0" y="98.3333333333333" dx="0em" dy="0.3em" style="text-anchor: end; visibility: hidden; font-family: &quot;Helvetica Neue&quot;, sans-serif; font-size: 12px; font-weight: 200;" fill="rgb(33, 33, 33)" stroke="none" stroke-width="1px">0.9</text><text x="0" y="78.66666666666666" dx="0em" dy="0.3em" style="text-anchor: end; visibility: inherit; font-family: &quot;Helvetica Neue&quot;, sans-serif; font-size: 12px; font-weight: 200;" fill="rgb(33, 33, 33)" stroke="none" stroke-width="1px">0.95</text><text x="0" y="58.99999999999997" dx="0em" dy="0.3em" style="text-anchor: end; visibility: hidden; font-family: &quot;Helvetica Neue&quot;, sans-serif; font-size: 12px; font-weight: 200;" fill="rgb(33, 33, 33)" stroke="none" stroke-width="1px">1</text><text x="0" y="39.333333333333286" dx="0em" dy="0.3em" style="text-anchor: end; visibility: inherit; font-family: &quot;Helvetica Neue&quot;, sans-serif; font-size: 12px; font-weight: 200;" fill="rgb(33, 33, 33)" stroke="none" stroke-width="1px">1.05</text><text x="0" y="19.6666666666666" dx="0em" dy="0.3em" style="text-anchor: end; visibility: hidden; font-family: &quot;Helvetica Neue&quot;, sans-serif; font-size: 12px; font-weight: 200;" fill="rgb(33, 33, 33)" stroke="none" stroke-width="1px">1.1</text><text x="0" y="0" dx="0em" dy="0.3em" style="text-anchor: end; visibility: hidden; font-family: &quot;Helvetica Neue&quot;, sans-serif; font-size: 12px; font-weight: 200;" fill="rgb(33, 33, 33)" stroke="none" stroke-width="1px">1.15</text></g><line x1="50" y1="0" x2="50" y2="177" fill="rgb(0, 0, 0)" stroke="rgb(204, 204, 204)" stroke-width="1px"></line></g></g><g transform="translate(50, 0)" clip-path="url(#clip_0)"><clipPath id="clip_0"><rect width="280" height="177"></rect></clipPath><g><g><g><line x1="0" y1="0" x2="0" y2="177" fill="rgb(0, 0, 0)" stroke="rgb(66, 66, 66)" stroke-width="1px" opacity="0.25"></line><line x1="28" y1="0" x2="28" y2="177" fill="rgb(0, 0, 0)" stroke="rgb(66, 66, 66)" stroke-width="1px" opacity="0.25"></line><line x1="56" y1="0" x2="56" y2="177" fill="rgb(0, 0, 0)" stroke="rgb(66, 66, 66)" stroke-width="1px" opacity="0.25"></line><line x1="84" y1="0" x2="84" y2="177" fill="rgb(0, 0, 0)" stroke="rgb(66, 66, 66)" stroke-width="1px" opacity="0.25"></line><line x1="112" y1="0" x2="112" y2="177" fill="rgb(0, 0, 0)" stroke="rgb(66, 66, 66)" stroke-width="1px" opacity="0.25"></line><line x1="140" y1="0" x2="140" y2="177" fill="rgb(0, 0, 0)" stroke="rgb(66, 66, 66)" stroke-width="1px" opacity="0.25"></line><line x1="168" y1="0" x2="168" y2="177" fill="rgb(0, 0, 0)" stroke="rgb(66, 66, 66)" stroke-width="1px" opacity="0.25"></line><line x1="196" y1="0" x2="196" y2="177" fill="rgb(0, 0, 0)" stroke="rgb(66, 66, 66)" stroke-width="1px" opacity="0.25"></line><line x1="224" y1="0" x2="224" y2="177" fill="rgb(0, 0, 0)" stroke="rgb(66, 66, 66)" stroke-width="1px" opacity="0.25"></line><line x1="252" y1="0" x2="252" y2="177" fill="rgb(0, 0, 0)" stroke="rgb(66, 66, 66)" stroke-width="1px" opacity="0.25"></line><line x1="280" y1="0" x2="280" y2="177" fill="rgb(0, 0, 0)" stroke="rgb(66, 66, 66)" stroke-width="1px" opacity="0.25"></line></g><g><line x1="0" y1="177" x2="280" y2="177" fill="rgb(0, 0, 0)" stroke="rgb(66, 66, 66)" stroke-width="1px" opacity="0.25"></line><line x1="0" y1="157.33333333333331" x2="280" y2="157.33333333333331" fill="rgb(0, 0, 0)" stroke="rgb(66, 66, 66)" stroke-width="1px" opacity="0.25"></line><line x1="0" y1="137.66666666666663" x2="280" y2="137.66666666666663" fill="rgb(0, 0, 0)" stroke="rgb(66, 66, 66)" stroke-width="1px" opacity="0.25"></line><line x1="0" y1="117.99999999999999" x2="280" y2="117.99999999999999" fill="rgb(0, 0, 0)" stroke="rgb(66, 66, 66)" stroke-width="1px" opacity="0.25"></line><line x1="0" y1="98.3333333333333" x2="280" y2="98.3333333333333" fill="rgb(0, 0, 0)" stroke="rgb(66, 66, 66)" stroke-width="1px" opacity="0.25"></line><line x1="0" y1="78.66666666666666" x2="280" y2="78.66666666666666" fill="rgb(0, 0, 0)" stroke="rgb(66, 66, 66)" stroke-width="1px" opacity="0.25"></line><line x1="0" y1="58.99999999999997" x2="280" y2="58.99999999999997" fill="rgb(0, 0, 0)" stroke="rgb(66, 66, 66)" stroke-width="1px" opacity="0.25"></line><line x1="0" y1="39.333333333333286" x2="280" y2="39.333333333333286" fill="rgb(0, 0, 0)" stroke="rgb(66, 66, 66)" stroke-width="1px" opacity="0.25"></line><line x1="0" y1="19.6666666666666" x2="280" y2="19.6666666666666" fill="rgb(0, 0, 0)" stroke="rgb(66, 66, 66)" stroke-width="1px" opacity="0.25"></line><line x1="0" y1="0" x2="280" y2="0" fill="rgb(0, 0, 0)" stroke="rgb(66, 66, 66)" stroke-width="1px" opacity="0.25"></line></g></g></g><g><g><line x1="0" y1="452.3333333333333" x2="280" y2="452.3333333333333" fill="rgb(0, 0, 0)" stroke="rgb(153, 153, 153)" stroke-width="1.5px"></line></g></g><g><g><line x1="-28" y1="0" x2="-28" y2="177" fill="rgb(0, 0, 0)" stroke="rgb(153, 153, 153)" stroke-width="1.5px"></line></g></g><g><g><g><g><g><path stroke="rgb(255, 112, 67)" stroke-width="2px" d="M14.126000000000001,30.899898846944126L14.1708,30.68766756852463L14.305200000000001,19.28565938780912L14.406,15.162629086597235L14.4088,12.794553664280386L14.425600000000001,11.734411643625208L14.5488,15.474560617189667L14.655199999999999,20.039250894088838L14.7448,21.981852254548556L15.106,23.58462333968842L15.148000000000001,24.523627692730372L15.282399999999999,26.309889067932687L15.5428,26.528846494636383L15.8172,25.800620641358222L15.9376,25.720893458980186L16.1112,26.671498060903502L16.2092,26.711660110546916L16.3212,26.754791851509964L16.3464,26.685383864148974L16.3716,26.674783423148597L16.615199999999998,26.471222755950805L16.828,26.282487219510983L16.8504,26.380062038950257L16.9316,26.223103631028863L17.2452,26.770222185934358L17.5308,28.564132030517584L17.793999999999997,30.14188856577482L17.9172,31.289695332160022L17.956400000000002,32.11263153856362L17.9928,32.82958469687213L18.135599999999997,33.44738748657849L18.158,33.962806045235624L18.230800000000002,34.04834040765405L18.27,34.17156997535696L18.648000000000003,34.03895234365217L19.0092,34.54528780087924L19.0736,34.71779990683518L19.0764,34.84070045491305L19.2724,34.990626010077875L19.2864,35.072478925959956L19.3676,34.97057062524928L19.39,35.05800746765985L19.717599999999997,35.509382320895526L19.7204,35.771692192672276L19.9388,35.702623062992046L19.9892,35.63584277649136L20.02,35.621638569947066L20.0956,35.68881362699574L20.258,35.54507000857262L20.3336,35.47005843885867L20.610799999999998,35.39937508762725L20.8852,35.15284793770749L20.901999999999997,35.02366848705054L21.3304,35.24484366526937L21.520799999999998,35.29106672416566L21.8652,35.26979219005764L21.98,35.240822635608424L22.0444,35.028138893356385L22.0724,34.87106360843404L22.1928,34.79259189278258L22.483999999999998,34.84474471595118L22.595999999999997,34.879337394552806L22.7108,34.89557290334548L22.8116,35.05759088352744L22.9236,35.26005807015548L22.948800000000002,35.347722044546884L23.735599999999998,36.41527944661746L23.8056,37.251941143617415L23.9176,37.77494442809345L23.9876,38.25351429988166L24.2228,38.85633164053692L24.4356,39.42069500330402L24.696,39.75674350446445L24.7688,39.90469409258759L24.8948,39.91709166307206L25.2,39.74455151680482L25.284000000000002,39.66709770594059L25.368,39.66121252676257L25.3792,39.62514046212277L25.432399999999998,39.596707697988904L25.4772,39.54525027848172L25.502399999999998,39.52968039220704L25.564,39.50208926661492L25.575200000000002,39.47266825316558L25.648,39.378605351516825L25.6928,39.336496885022996L25.858,39.16632607901181L25.956000000000003,39.15451302920238L25.9784,39.195495789018025L26.0904,39.22537452266616L26.278000000000002,39.135532114620986L26.3172,39.08817237241024L26.392799999999998,38.97531883889212L26.4404,38.85154624565706L26.6084,38.74612964660483L26.7512,38.53686738096013L26.975199999999997,38.541455094510326L27.031200000000002,38.5587808198695L27.1488,38.61486488423529L27.288800000000002,38.63283564552731L27.297199999999997,38.63960440499622L27.3448,38.61830809638721L27.4232,38.56559964970248L27.5352,38.55137977374895L27.7284,38.55952157203342L27.739600000000003,38.55154031291002L28.058799999999998,38.48920939231553L28.0868,38.46555869101272L28.4844,38.45945193162831L28.8008,38.141687928386176L28.9156,37.82356650357306L29.162000000000003,37.68695358469998L29.3048,37.5108702582215L29.3776,37.36872187467981L30.175600000000003,37.258319102998L30.2092,37.18224950826689L30.2428,37.14174678442791L30.3072,37.083872635272655L30.323999999999998,37.0559751823192L30.497600000000002,37.055235232987684L30.5732,36.94784686132988L30.6544,36.93253474135034L30.8616,36.87713368355534L31.337600000000002,36.675073939279514L31.415999999999997,36.55471960567385L31.477600000000002,36.47206013915704L31.491600000000002,36.38984847973444L31.6232,36.32394153819871L31.8528,36.43824951815435L31.9536,36.65280910115138L32.379200000000004,36.59185076423904L32.4212,36.5660414735581L32.4688,36.59965804656974L32.956,36.70612248246249L33.059599999999996,36.6834065623942L33.222,36.69190861232258L33.4152,36.67268383570811L33.644800000000004,36.609233483085774L33.9976,36.561485384549485L34.0452,36.50627860306443L34.1544,36.51190359321484L34.538000000000004,36.47767361955192L34.6864,36.34615878039409L34.8292,36.24836299284587L34.9384,36.16635356027453L35.366800000000005,35.94407127109312L35.4704,35.85333336476771L35.4928,35.80269800673494L35.7448,35.75611195793098L35.7812,35.703796810887354L35.8568,35.70811837533037L35.882,35.709961090200636L35.898799999999994,35.72061331692146L35.924,35.75200586094141L36.069599999999994,35.760938433251766L36.1032,35.763765971327985L36.108799999999995,35.77847887702694L36.1144,35.792070541548185L36.1592,35.7526988628114L36.3664,35.591859923359095L36.394400000000005,35.50087070458508L36.461600000000004,35.508489481568546L36.5876,35.522813657101096L36.6184,35.50695086668492L36.660399999999996,35.51313162535763L36.694,35.51188860351044L36.7584,35.522602458879476L36.800399999999996,35.55620762909555L36.876000000000005,35.5594156734453L36.9404,35.60091480527157L37.1588,35.61131620951792L37.326800000000006,35.62515306799591L37.427600000000005,35.7006002127865L37.6824,35.64693273661962L37.9428,35.545411572208565L38.3152,35.5859291307234L38.550399999999996,35.69238917144759L39.0068,35.78741823899324L39.0684,35.832263298437425L39.0852,35.863127764625574L39.205600000000004,35.848749130902576L39.443599999999996,35.780160313807585L39.564,35.828058588085185L39.858000000000004,35.92231084560012L40.0092,36.03938650481692L40.233200000000004,36.11745298341586L40.437599999999996,36.116559881581935L40.446,36.109440806675366L40.499199999999995,36.09622294296926L40.6364,36.05479473227325L40.754000000000005,36.00396130693392L40.8212,35.96213287241716L40.9304,35.93591047601373L40.9836,35.911099330245264L41.0368,35.893793171043455L41.042399999999994,35.879039421913205L41.0928,35.86486058348643L41.1992,35.8424366290225L41.445600000000006,35.77078364540262L41.5184,35.672312805548074L41.5268,35.619700981872114L41.563199999999995,35.607508417187205L41.6976,35.57005263738918L41.8404,35.49420074645528L84.07000000000001,50.870702576779394L84.13440000000001,59.179051839595814L84.3024,62.826618681322984L84.434,63.98291648823309L84.504,65.01878784536294L84.5628,64.77903498672823L85.01920000000001,60.224758244335916L85.2096,57.88994209971841L85.5428,56.917917845687114L85.57079999999999,56.49016841930599L85.5904,56.53250170160804L85.6492,56.493701269683115L85.8088,56.4009315314631L86.0804,57.721067596042545L86.22319999999999,57.78636993282899L86.29599999999999,57.73458669968761L86.33239999999999,57.45946895910291L86.3828,57.41300869683212L86.604,57.43496615509062L86.9708,57.648206560730145L87.0492,58.03505303596607L87.13040000000001,57.94645900409513L87.1444,57.94184206454612L87.346,57.98974951820763L87.5616,57.79929735293301L87.85,57.35250811197548L87.9564,56.868370114275905L87.9592,56.616711397077125L88.1132,56.41978371487387L88.1384,56.47594160445328L88.3456,56.84048503204862L88.4548,57.12101077376613L88.87480000000001,57.60306981010521L88.95599999999999,57.80111552955677L89.0232,58.0508570135551L89.0904,58.480216534589744L89.2332,58.8837132642597L89.278,59.28668741722484L89.3228,59.555376809872655L89.3788,59.723942638657945L89.6644,60.40077574325943L89.6924,60.93489191893741L90.006,61.92954086043838L90.11800000000001,62.40620064007284L90.2244,62.69532869220002L90.4512,63.13611963963642L90.5772,63.41833700086357L90.5968,63.491001081540304L90.7536,63.69510053321173L90.8068,63.82758506968291L91.0924,64.02216012180648L91.11200000000001,64.13885826409339L91.1876,64.45571015600648L91.56559999999999,64.71151276225419L91.7924,65.02182861046731L91.87639999999999,65.1140432112023L91.96600000000001,65.16261995748306L91.98559999999999,65.17748361974333L92.0528,65.40995913038276L92.10879999999999,65.74741911862068L92.3776,65.75121709490081L92.41959999999999,65.77145436277544L92.4252,65.80394654395512L92.47,65.73918234262261L92.7248,66.04110360316473L92.988,66.28195541802268L93.016,66.44993913394144L93.1532,66.77580587996206L93.32119999999999,66.94927872578198L93.9316,67.16518329000411L93.982,67.22231067666968L94.2732,67.2231271273865L94.31240000000001,67.2430665497168L94.3964,67.24137613003555L94.4692,67.21492929155683L94.5196,67.1380304826998L94.5616,67.10737394096672L94.69319999999999,67.27927428167392L94.93679999999999,67.63479914872643L95.032,67.88600037063438L95.03479999999999,68.05520474254257L95.1608,68.16674285335837L95.3092,68.31382713240484L95.326,68.35315373056389L95.3596,68.31374026842869L95.4324,68.3728606313941L95.438,68.39049627843362L95.5332,68.4136626708281L95.6536,68.23376094427339L95.74040000000001,68.02191391265373L95.8692,67.8410052697419L96.0736,67.65926637493921L96.1184,67.62173812137057L96.4544,67.74684645660325L96.5244,67.89012555635536L96.6224,68.03439478292005L96.81280000000001,68.10872767099103L97.0088,68.15915101604674L97.1964,68.26165157459384L97.2356,68.43842379591192L97.384,68.58210147425329L97.76759999999999,69.01486458582558L97.7788,69.28366580527747L97.78439999999999,69.45254255287878L97.9832,69.59573108923253L98.0672,69.64970343294829L98.2604,69.79533312111947L98.3024,69.92276350690828L98.4396,69.97384541849638L98.476,70.04463153851239L98.4788,70.0932644234431L98.5628,70.11376969176523L98.8204,70.03951578234427L99.06400000000001,69.9966514402317L99.11999999999999,69.94817292056604L99.2964,70.0083905738321L99.5036,70.01729741980989L99.5176,70.02205072615757L99.5484,70.01652833684811L99.8844,70.07734965998647L100.00200000000001,70.0537964168313L100.1308,70.08467789867261L100.6516,70.06662399994576L101.1024,70.20394210474039L101.13600000000001,70.30180633340088L101.2984,70.36619843805116L101.34039999999999,70.36042982994084L101.402,70.31367137427269L101.584,70.26132780549015L101.6008,70.19528945825748L101.7548,70.08784621879808L101.794,69.97426874990468L101.8164,69.92586253218971L101.8304,69.92700593153512L102.0236,70.03236694621964L102.30080000000001,70.09171990248316L102.5668,70.10952323889386L102.5892,70.14711951940644L102.69000000000001,70.24658460455767L102.7432,70.29022762201805L102.7712,70.34663807365843L103.0736,70.57781195847318L103.09320000000001,70.72841671431931L103.1912,70.7968542774014L103.4096,70.74334172802122L103.8128,70.64168845254349L103.8912,70.56981824222107L104.00880000000001,70.54173810312884L104.0676,70.55526470559678L104.2412,70.61819389314158L104.2692,70.63096895327585L104.3056,70.6405939490224L104.328,70.66593103193986L104.6388,70.61743928144618L104.7508,70.5602014610186L104.7872,70.53421438628516L104.8684,70.49629360572943L104.8936,70.46796134791641L105.08959999999999,70.50270867952821L105.55160000000001,70.64480262165739L105.5656,70.71393855312746L105.63,70.76651404638655L105.8904,70.91358442906281L105.952,71.01771264753984L106.3244,71.07201213925428L106.48679999999999,71.14859245989328L106.5316,71.12423530483404L106.7864,71.0910904840479L106.8536,71.11509168361721L106.96560000000001,71.20448664952374L107.0048,71.27610086676907L107.0412,71.34504589603799L107.10000000000001,71.39884787301096L107.10560000000001,71.44315139551881L107.36880000000001,71.55991040925139L107.548,71.67349755322907L107.61800000000001,71.72485420439226L107.6292,71.77252947489569L107.8868,71.89841053009124L107.9456,71.9817602462774L108.0296,72.00598113301626L108.1668,72.03071670867936L108.416,72.09068401538096L108.44120000000001,72.13823660144863L108.91159999999999,72.20219747183515L108.92280000000001,72.22525067304248L108.93960000000001,72.26359615628725L109.1048,72.31557146254066L109.25319999999999,72.35361181622473L109.2616,72.37662358438405L109.3652,72.43244317783176L109.5248,72.44324066408431L109.57799999999999,72.46889675161016L109.7712,72.5838263462033L110.14359999999999,72.75451444963889L110.2164,72.9212402465757L110.27799999999999,73.01448619938785L110.38719999999999,73.07003052578504L110.4684,73.12542307901064L110.4964,73.1923999261519L110.4992,73.23991947203837L110.6728,73.24905667004957L110.67840000000001,73.25333863078339L110.8716,73.24195364462601L110.88000000000001,73.24232480136912L110.88279999999999,73.24709572717562L111.0088,73.21521354312705L111.0732,73.17674721436703L111.12920000000001,73.1789218256295L111.4512,73.21221425947067L111.566,73.21189616610512L111.7144,73.25955083264849L111.75359999999999,73.30596144771937L111.986,73.44067719644129L112.18480000000001,86.43462119340391L112.3388,88.71094405952788L112.3836,92.30225791317444L112.40599999999999,95.14353850950133L112.7952,96.5074989525636L113.00800000000001,94.35881512928965L113.3552,92.71157928448295L113.3664,92.0682563233855L113.4028,91.77960408420259L113.49799999999999,91.70375427816843L113.7976,90.12074512569824L113.834,89.56614815192651L114.03,89.29117595551747L114.086,88.61726894814771L114.156,88.7155746867597L114.1616,88.63125600717503L114.254,89.21390057187497L114.37440000000001,89.61137034444741L114.4108,89.93499323099095L114.4248,89.77764022570393L114.436,89.81336411767126L114.5172,90.2211074407871L114.5648,90.26714106257607L114.5788,90.0686437836638L114.58439999999999,90.07634261556571L114.6348,90.3214367745803L114.6964,90.3746684065552L114.7328,90.55312609301554L114.82520000000001,90.8401043710701L114.842,91.07624791647547L114.95400000000001,91.44449225218426L115.02680000000001,91.78745337616202L115.2452,91.62614554737486L115.31519999999999,91.12243008558634L115.3208,90.72307496037887L115.43560000000001,90.90112085004729L115.51679999999999,90.98707340673653L115.7828,90.89665570964043L116.0824,91.1431135442433L116.1104,91.18307792980933L116.1244,91.34996481640815L116.1272,91.48185017051506L116.18599999999999,91.76961862052801L116.19999999999999,92.02268492582628L116.466,92.01277645867978L116.7768,91.88430107697992L116.78800000000001,91.68116887250629L117.0596,91.70923115316484L117.0876,91.74535865090361L117.4656,91.3767781088873L117.50479999999999,90.98419426859162L117.5692,90.68172400184913L117.852,90.97304225557113L117.93879999999999,91.32832767522174L118.1936,91.24650155279538L118.3056,91.55379969342648L118.3672,91.70624717750606L118.57719999999999,91.84932168729182L118.9272,91.71949580753093L119.2492,91.70464721189481L119.50959999999999,91.48149289409245L119.5544,91.41742738318393L119.994,91.74983307658805L119.9968,91.94420310421293L120.0108,92.07555764057344L120.0668,92.1334484962907L120.3468,92.25156100680148L120.9152,91.93355000867274L120.974,91.76570025794008L121.13640000000001,91.62092413730802L121.212,91.45034286714028L121.2708,91.37458953859262L121.41640000000001,91.37312878927695L121.47800000000001,91.41129211044971L121.4836,91.44409305725493L121.576,91.55556350672641L121.6628,91.65541811222472L121.6684,91.71056695442182L121.73559999999999,91.85011301633189L121.7384,91.9497078867543L121.8028,92.00932414204601L122.1164,92.30268323543108L122.164,92.44769569311003L122.35719999999999,92.46362884088431L122.4468,92.52871466821873L122.6932,92.62278570222719L122.8304,92.8304171730351L122.948,92.94211096183089L122.96199999999999,92.96899963984264L123.2168,93.11946979504447L123.2588,93.21779803837312L123.2756,93.2990109865167L123.29520000000001,93.33334383632528L123.536,93.46881218711015L123.6004,93.57103381927493L124.0932,93.4580898108622L124.1828,93.32629180486246L124.2556,93.25293345770383L124.35919999999999,93.3107519518603L124.3872,93.32423984833174L124.66999999999999,93.1866860141016L124.6756,93.11918632286728L124.7876,93.14987336852913L124.9248,93.13701064144826L125.2524,93.08687722735756L125.4064,92.90288876724135L125.42880000000001,92.78198318023617L125.482,92.68246928258223L125.50999999999999,92.63223251940894L125.5184,92.58411322380356L125.5324,92.55154679424709L125.77319999999999,92.62232450370281L125.9244,92.75495865180663L126.1988,106.1966813856437L126.2968,107.1656669887348L126.49,105.74119436616365L126.6608,102.3482411138693L126.6636,100.33708588078493L126.9128,100.11762161132619L127.23479999999999,99.17221280978274L127.27680000000001,98.11072947013072L127.7724,97.2681093459985L127.79199999999999,96.84220166081155L127.88719999999999,96.7509841943222L128.114,96.38558604068183L128.2148,96.15288063136714L128.31,96.25592665025377L128.4584,96.47775824158659L128.6488,97.18083034727535L128.6572,97.69890856806575L128.6908,97.61858881352828L128.7916,97.63628536565196L128.98760000000001,98.29841639659658L128.9988,98.42300742106748L129.1584,98.60400310300057L129.528,99.03031091178813L129.72119999999998,99.34058060021414L129.9172,99.62013589802116L130.21959999999999,99.74100822287436L130.2728,99.84558492945214L130.56119999999999,99.84956029681312L130.9112,99.02654929734037L131.236,98.94956703847704L131.9472,98.93575921773545L132.1292,99.14199164183712L132.4316,99.4131219387359L132.4484,99.60215172769465L132.552,99.47102477710546L132.8656,99.29934898949324L133.4788,99.44700266482427L133.4872,99.56479733126558L133.6748,99.74828903438964L134.0584,99.94238098797587L134.0808,100.01012788020006L134.246,99.74392510534783L134.2992,99.57626044600082L134.4616,99.40009535858356L134.6884,99.14393892393106L134.73600000000002,98.9863063882128L134.9292,98.68141100349044L135.1532,98.6044522615791L135.15879999999999,98.50545188342652L135.4164,98.50648218326842L135.54240000000001,98.5144431785727L135.7776,98.62699880178675L136.1836,98.64923741405748L136.2004,98.67130193304344L136.22,98.69880427434836L136.2424,98.72897850780564L136.4244,98.7561138668192L136.4888,98.73237064273356L136.7212,98.7774767883094L136.7296,98.823417981911L136.7548,98.78651034063992L136.962,98.69602036810059L137.2112,98.8272004624375L137.3456,98.89204813441647L137.3988,98.94309160749718L137.4576,98.89227152053876L137.5164,98.89957199206567L137.606,98.92371129419774L137.6396,98.86041542347095L137.998,98.88742603732636L138.0456,98.91609549844362L138.0596,98.95220281476234L138.09879999999998,98.95961295243772L138.1016,98.97208642965559L138.16039999999998,99.00129887266559L138.2052,98.98954885484933L138.3004,99.08686435192122L138.3144,99.17176468354042L138.6168,99.51455131678725L138.656,99.7523234973884L138.8324,99.97013109667321L138.9248,100.12140929943254L138.98080000000002,100.21854374555312L139.048,100.34802065142529L139.0592,100.45097058126451L139.0984,100.47842717831804L139.18519999999998,100.55249019065782L139.2104,100.61960351228285L139.3196,100.73929207181669L139.4904,100.73129077348548L139.65279999999998,100.79307235634384L139.86839999999998,100.90234096858535L139.8796,100.98361932444747L139.9552,101.05320504829196L140.2996,101.22467955465063L140.7924,101.51730523416364L140.83720000000002,101.69414664452648L140.98559999999998,101.7924397854728L141.17880000000002,101.80771513394845L141.26559999999998,101.7904537098348L141.288,101.77145052612262L141.5036,101.7705611268308L141.52880000000002,101.77158420163147L141.6548,101.77305142607935L141.8452,101.7278586419025L142.76360000000003,101.92250912536774L143.1556,102.19073208858326L143.2144,102.4016589046901L143.29840000000002,102.69457712102242L143.3348,102.8270401378173L143.3796,102.95739249903154L143.3992,103.05704156071852L143.64000000000001,103.1744388074333L143.766,103.2887840030981L143.8192,103.36360860020274L143.9032,103.44446721166584L143.91719999999998,103.47901883814858L144.2644,103.6938420877504L144.648,103.7859281825412L144.7096,103.94281640812092L144.73760000000001,103.99669045903876L144.8356,104.05098706900237L144.96159999999998,104.10468383482592L144.9924,104.16617937794226L145.1156,104.2868673239801L145.45440000000002,104.30052819061201L145.45999999999998,104.31552361373855L145.6224,104.25957962031016L145.63920000000002,104.20786718619773L145.67,104.16950628812853L145.7372,104.13715884082958L145.7652,104.11397112008004L145.8688,104.22148220894374L145.9304,104.30923642212728L145.9444,104.35995712376383L146.0788,104.43931351401453L146.286,104.56502564528414L146.3056,104.65251277155973L146.412,104.68288282315308L146.97760000000002,104.78070359881943L147.1652,104.95527750724287L147.3416,105.14265900337934L147.3836,105.25093353679318L147.66639999999998,105.35296869014029L147.6748,105.41439609369228L147.8652,105.42026829306634L148.1984,105.48829210351519L148.3244,105.57510448625057L148.5736,105.62004603423894L148.8928,105.49388090855808L148.96,105.36994244309426L148.9824,105.28955881785647L149.15599999999998,105.29254079455906L149.40240000000003,105.41972051021321L149.5368,105.48946388139444L149.7132,105.49156679853273L149.74400000000003,105.5179141569801L149.9148,105.5475079342922L150.374,105.59384772729084L150.6092,105.66325151255445L150.6876,105.70789467889495L150.9452,105.68679754494683L150.9676,105.67475819920931L151.0684,105.68327053587892L151.284,105.73125322779768L151.3092,105.77770123553722L151.6844,105.64353107813469L151.9056,105.60342853508473L152.38719999999998,105.62091065193461L152.4572,105.60665191458808L152.50199999999998,105.60174463538614L152.89679999999998,105.67004339505209L152.9388,105.7626474257845L153.0256,105.84193567175896L153.314,106.00473361654619L153.4484,106.07323805556815L153.59120000000001,106.1357502305475L153.69480000000001,106.15820617063645L153.84879999999998,106.20073215117338L153.8544,106.23365619947681L153.8992,106.27167857788108L153.91039999999998,106.27782765886445L154.05319999999998,106.34959053910528L154.66920000000002,106.58482747028323L154.6916,106.69851143807202L154.7028,106.74932600448548L154.854,106.87316134009772L155.13400000000001,107.00548297425516L155.6212,107.10973649577541L155.834,107.30046434416121L155.9264,107.39031246829278L155.988,107.51446104563226L156.0636,107.62062839180396L156.94,108.05153521404762L157.3012,108.42101865116416L157.3684,108.60909868739239L157.5532,108.73206535257216L157.6428,108.83426007793734L157.78,108.97582272589044L157.7912,109.0718354934444L158.02919999999997,109.17715738737523L158.94480000000001,109.36845123682782L159.09040000000002,109.50968231309076L159.0988,109.58691872089281L159.14079999999998,109.67082802213731L159.6308,109.91527525439365L159.8212,110.13573748183946L159.8716,110.26690823820849L160.1992,110.3906522531566L160.2132,110.46792769070011L160.272,110.50249568404084L160.2748,110.51403686075204L160.286,110.52876389425278L160.4008,110.51334913016126L160.45399999999998,110.52962663635074L160.524,110.52793347158708L160.78719999999998,110.48652739913467L160.874,110.48179913118203L160.8796,110.47996559473705L161.056,110.47957818547587L161.0644,110.47835169339002L161.3304,110.55699885350758L161.43679999999998,110.62222065406415L161.4396,110.6569367918017L161.71679999999998,110.70520590976727L161.83440000000002,110.70561198732761L162.1172,110.82000218436028L162.2656,110.85964953067841L162.37480000000002,110.88025886513559L162.43359999999998,110.90680369554619L162.708,110.98898473273908L162.71640000000002,111.04694906209622L162.7836,111.10991731882918L162.86479999999997,111.13703571717438L163.05519999999999,111.2107738989224L163.0804,111.24000295426228L163.786,111.30534839883909L163.8364,111.34525900039354L164.1164,111.39671044123145L164.1304,111.43241087141814L164.1332,111.45382175173269L164.19760000000002,111.45964430963542L164.6512,111.58307049589682L164.6652,111.66753556281718L164.72959999999998,111.7376735326671L164.836,111.7304197222207L164.9592,111.69598346175039L165.0796,111.66887915862372L165.2112,111.65949988007209L165.4184,111.66927065634526L165.4968,111.67146640330827L165.5808,111.655087947708L165.7516,111.70656353624359L165.774,111.72902762725964L165.78240000000002,111.74676360190915L165.9504,111.78726409376266L165.9924,111.8141057719823L166.0932,111.85865363856372L166.2164,111.92761995820332L166.2752,111.95648976819594L166.3312,111.9641150116337L166.5468,112.00159684892965L166.7008,112.04160367693392L166.7204,112.06325394657784L166.9612,112.09815064319488L166.96400000000003,112.11488740790992L167.21599999999998,112.14295359342755L167.37279999999998,112.18834869795718L167.46239999999997,112.26091803352244L167.86,112.30314674321933L167.9048,112.32573627438616L167.96079999999998,112.35896461212519L167.9664,112.38727598788667L168.1008,112.41238398593063L168.17919999999998,112.46291561469273L168.2212,112.49530708518525L168.3696,112.5544569396589L168.91559999999998,112.60125647606135L169.106,112.64073959959556L169.1648,112.65658963505231L169.2264,112.69099770854196L169.3328,112.73123277149762L169.3664,112.76001581900614L169.5148,112.82076111646471L169.69680000000002,112.88449768550379L170.04399999999998,112.97989730235246L170.24839999999998,113.05672729132358L170.3408,113.12336266111006L170.39960000000002,113.18650704267026L170.5732,113.24521238193357L170.6208,113.31040702612464L170.66559999999998,113.35026465863743L170.68800000000002,113.38024667309178L170.78879999999998,113.39707303488129L170.898,113.42075728045229L170.996,113.42627460956368L171.2172,113.5080959272372L171.3824,113.63780964247312L171.4076,113.7144937803264L171.514,113.76401155928266L171.5448,113.79771716836785L171.60920000000002,113.82908135718318L171.70159999999998,113.8372279369804L171.70440000000002,113.83707062983348L171.7352,113.84636342078744L171.86960000000002,113.88034444381975L171.8724,113.90289932884879L172.0404,113.92892348606253L172.1384,113.97496893309867L172.4184,114.12732090733437L172.5416,114.24342383254756L172.63400000000001,114.33747723882905L172.6788,114.40240556708281L172.6984,114.459246023762L173.3256,114.65354183371925L173.41799999999998,114.74346761935587L173.47119999999998,114.81253072242126L173.5216,114.84494714311869L173.6056,114.88525321705406L173.7288,114.9276672996477L173.74,114.95658553425841L173.88,114.97140446971477L173.9024,114.97045852146915L174.132,114.98017839631856L174.1852,115.01395615761334L174.2748,115.0524813860149L174.43439999999998,115.10963792777997L174.5828,115.10594239539071L174.7312,115.12894197328586L174.8264,115.15477343414443L175.0252,115.19269462434977L175.0448,115.2303017696253L175.86520000000002,115.4232700141576L175.92680000000001,115.54665635460455L176.05,115.60513977070948L176.3944,115.63374038454073L176.54840000000002,115.70645482490168L176.5624,115.76077417820514L176.76680000000002,115.76680786782396L176.80599999999998,115.76558913811382L176.87040000000002,115.82544784957766L177.10559999999998,115.89045300412934L177.40800000000002,116.02632874446368L177.7972,116.18785617866467L178.29559999999998,116.41577109168978L178.5112,116.59011562946046L178.584,116.70719482272426L178.766,116.8133968140854L179.1524,116.92516984300856L179.1748,116.99431553139513L179.1888,117.04254558078976L179.19160000000002,117.07440948322929L179.578,117.11700045169701L179.69,117.16926299990003L179.816,117.19522829529113L180.11839999999998,117.24244816110414L180.3256,117.27158657117215L180.33960000000002,117.28345231654362L180.3536,117.28772091334332L180.80159999999998,117.32775575001202L180.96120000000002,117.36207347360744L181.2972,117.38796256332094L181.5884,117.46859668700989L181.59959999999998,117.5185151200042L181.8432,117.53875078164813L181.85999999999999,117.55890081765222L181.88799999999998,117.58321948712248L238.2464,140.84462033032483L238.2632,152.6812252341853L238.37800000000001,160.10871028140065L238.3836,164.0139368647429L238.3892,166.30775497798678L238.40040000000002,167.20627519951992L238.546,164.49833434502324L238.75039999999998,163.4957585593862L238.7672,162.8671581423761L238.8484,162.28464288372683L238.9688,162.62592104390595L238.9744,162.8039330839038L239.0976,162.17568041079758L239.2516,161.5139063429446L239.4112,161.1652313370473L239.4392,160.97521330708065L239.59879999999998,161.76659132119298L239.6548,162.60708658542003L239.834,162.39916816142656L240.2876,162.0890555627393L240.52280000000002,162.18908584796867L240.6824,162.4205489119896L240.73000000000002,162.1642369882867L240.84199999999998,161.89412763456136L240.8588,161.75649118466947L241.2396,162.16631870295868L241.2704,162.29032260274647L241.30960000000002,162.21016008513624L241.4496,161.30487562134334L241.5,160.84305733590006L241.7436,160.6486504047037L241.9676,160.60497488790278L242.0348,160.58879444329057L242.41,160.4678279876398L242.69,160.49734419502937L242.8664,161.06183577727154L243.07080000000002,161.57494838129003L243.3172,162.06753041996865L243.4236,162.32486511858883L243.74,162.18302131648412L243.82119999999998,162.18183694455354L243.8296,162.22402974470455L244.03119999999998,162.65481325290995L244.0872,162.86296209674515L244.3056,163.30223268458113L244.3532,163.38800137552937L244.37279999999998,163.40596509762594L244.60240000000002,163.42875628941053L244.6584,163.41781428618904L244.6808,163.44348057407348L244.7732,163.51700393536612L244.9832,163.86808139589783L245.2072,164.25460846329145L245.34720000000002,164.62897344691203L245.4844,165.2296796258051L245.5768,165.486047292695L245.7168,165.70182700054576L245.74200000000002,165.84583041129548L246.036,166.11313017045285L246.176,166.1740584840466L246.2628,166.26619767765737L246.88719999999998,165.87663599423882L246.99360000000001,165.80566003663733L247.0328,165.78284285908973L247.0748,165.88754724530003L247.0776,165.9561466002521L247.2848,165.88318779611927L247.3716,165.79475544220807L247.51160000000002,165.68922725315852L247.5732,165.6430904646474L247.66840000000002,165.5350688008323L247.8448,165.54576582756766L247.94,165.68656788099088L247.9792,165.78164602415728L248.1192,165.8913117315191L248.15,166.0147095878413L248.1696,166.12893216368502L248.318,166.33603204423352L248.5392,166.3734160570353L248.7044,166.45557365664143L248.9228,166.557674593816L249.1076,166.48329469388116L249.53879999999998,166.54861205116148L249.6648,166.48582829611638L249.6844,166.41256930178682L250.166,166.48291987824211L250.1688,166.53002543438137L250.4488,166.6806127579331L250.6084,166.9060992132417L250.656,167.10977398539336L250.712,167.23867459605984L250.84640000000002,167.3175622990381L250.8828,167.4168291630736L250.95839999999998,167.46886828794425L251.0984,167.48754426988566L251.20479999999998,167.54056545785625L251.4344,167.60223707770245L251.5324,167.7275695237414L251.6584,167.95741824902473L251.9048,168.0168446973803L251.9384,168.1025498713558L252,168.05676272742977" style="fill: none;" fill="none"></path></g></g></g></g><g opacity="0.2"><g><g><g><path stroke="rgb(255, 112, 67)" stroke-width="2px" d="M14.126000000000001,30.899898846944126L14.1708,30.560328801472934L14.305200000000001,8.339731534322055L14.406,10.313945452372195L14.4088,9.702794392903598L14.425600000000001,10.267853577931675L14.5488,20.82303349177039L14.655199999999999,26.694613138834598L14.7448,24.846811930338504L15.106,25.964551607767703L15.148000000000001,25.923617521921756L15.282399999999999,28.979560375213595L15.5428,26.85656770070392L15.8172,24.709708531697544L15.9376,25.60139640172318L16.1112,28.096734523773165L16.2092,26.7718861897786L16.3212,26.819478511810274L16.3464,26.581282456715854L16.3716,26.658883730570437L16.615199999999998,26.165892918904575L16.828,25.99939012527463L16.8504,26.526422341664585L16.9316,25.987667878468812L17.2452,27.590896129608126L17.5308,31.25498914718625L17.793999999999997,32.50851933161414L17.9172,33.01140371958411L17.956400000000002,33.34703509012854L17.9928,33.90501403808591L18.135599999999997,34.374091466267885L18.158,34.73593378067014L18.230800000000002,34.17664194107053L18.27,34.35641431808469L18.648000000000003,33.840025901794405L19.0092,35.3047909736633L19.0736,34.97656806310013L19.0764,35.02505127588904L19.2724,35.215514341990115L19.2864,35.195258299509646L19.3676,34.817708174387576L19.39,35.189162731170626L19.717599999999997,36.18644460042313L19.7204,36.16515700022376L19.9388,35.599019368489536L19.9892,35.53567234675086L20.02,35.60033226013181L20.0956,35.789576212565066L20.258,35.32945458094275L20.3336,35.35754108428952L20.610799999999998,35.293350060780824L20.8852,34.78305721282956L20.901999999999997,34.829899311065645L21.3304,35.576606432596805L21.520799999999998,35.360401312510135L21.8652,35.23788038889563L21.98,35.197368303934695L22.0444,34.709113279978396L22.0724,34.6354506810506L22.1928,34.67488431930539L22.483999999999998,34.92297395070389L22.595999999999997,34.9312264124552L22.7108,34.919926166534395L22.8116,35.30061785380042L22.9236,35.56375885009763L22.948800000000002,35.479218006134005L23.735599999999998,38.01661554972327L23.8056,38.5069336891174L23.9176,38.5594493548075L23.9876,38.97136910756427L24.2228,39.76055765151975L24.4356,40.267240047454806L24.696,40.2608162562052L24.7688,40.1266199747721L24.8948,39.9356880187988L25.2,39.48574129740393L25.284000000000002,39.55091698964435L25.368,39.65238475799558L25.3792,39.57103236516315L25.432399999999998,39.5540585517883L25.4772,39.468064149220766L25.502399999999998,39.506325562794956L25.564,39.46070257822669L25.575200000000002,39.42853673299152L25.648,39.237510999043735L25.6928,39.27333418528235L25.858,38.91106986999509L25.956000000000003,39.1367934544881L25.9784,39.25696992874143L26.0904,39.2701926231384L26.278000000000002,39.00076850255326L26.3172,39.01713275909421L26.392799999999998,38.80603853861487L26.4404,38.665887355804415L26.6084,38.58800474802649L26.7512,38.222973982493045L26.975199999999997,38.548336664835574L27.031200000000002,38.584769407908084L27.1488,38.69899098078406L27.288800000000002,38.659791787465366L27.297199999999997,38.64975754419959L27.3448,38.58636363347367L27.4232,38.486536979675265L27.5352,38.530049959818484L27.7284,38.57173426946002L27.739600000000003,38.539568424224825L28.058799999999998,38.39571301142371L28.0868,38.43008263905841L28.4844,38.45029179255164L28.8008,37.66504192352292L28.9156,37.346384366353334L29.162000000000003,37.48203420639035L29.3048,37.24674526850379L29.3776,37.15549929936725L30.175600000000003,37.09271494547522L30.2092,37.06814511617023L30.2428,37.080992698669405L30.3072,36.997061411539676L30.323999999999998,37.01412900288898L30.497600000000002,37.05412530899045L30.5732,36.78676430384314L30.6544,36.909566561380984L30.8616,36.794032096862765L31.337600000000002,36.371984322865785L31.415999999999997,36.37418810526526L31.477600000000002,36.34807093938187L31.491600000000002,36.26653099060056L31.6232,36.225081125895144L31.8528,36.609711488087925L31.9536,36.974648475646944L32.379200000000004,36.500413258870395L32.4212,36.52732753753659L32.4688,36.65008290608722L32.956,36.86581913630164L33.059599999999996,36.64933268229163L33.222,36.70466168721512L33.4152,36.6438466707865L33.644800000000004,36.514057954152406L33.9976,36.48986323674515L34.0452,36.42346843083698L34.1544,36.52034107844031L34.538000000000004,36.42632865905759L34.6864,36.14888652165726L34.8292,36.10166931152341L34.9384,36.043339411417605L35.366800000000005,35.610647837320926L35.4704,35.71722650527951L35.4928,35.72674496968585L35.7448,35.686232884724916L35.7812,35.62532409032184L35.8568,35.714600721995L35.882,35.712725162506075L35.898799999999994,35.73659165700272L35.924,35.79909467697141L36.069599999999994,35.7743372917175L36.1032,35.768007278442354L36.108799999999995,35.80054823557532L36.1144,35.81245803833005L36.1592,35.69364134470618L36.3664,35.35060151418048L36.394400000000005,35.364386876424106L36.461600000000004,35.519917647043826L36.5876,35.544299920399965L36.6184,35.48315668106076L36.660399999999996,35.52240276336667L36.694,35.51002407073972L36.7584,35.53867324193314L36.800399999999996,35.60661538441971L36.876000000000005,35.56422773996985L36.9404,35.66316350301102L37.1588,35.62691831588742L37.326800000000006,35.64590835571286L37.427600000000005,35.81377092997229L37.6824,35.566431522369356L37.9428,35.39312982559201L38.3152,35.64670546849564L38.550399999999996,35.852079232533754L39.0068,35.92996184031165L39.0684,35.89953088760373L39.0852,35.90942446390784L39.205600000000004,35.82718118031818L39.443599999999996,35.677277088165255L39.564,35.8999059995015L39.858000000000004,36.06368923187253L40.0092,36.21499999364215L40.233200000000004,36.23455270131424L40.437599999999996,36.115220228830935L40.446,36.098762194315555L40.499199999999995,36.07639614741004L40.6364,35.99265241622922L40.754000000000005,35.92771116892493L40.8212,35.89939022064206L40.9304,35.89657688140866L40.9836,35.87388261159259L41.0368,35.86783393224076L41.042399999999994,35.856908798217745L41.0928,35.843592325846316L41.1992,35.80880069732663L41.445600000000006,35.66330416997272L41.5184,35.524606545766176L41.5268,35.54078324635819L41.563199999999995,35.589219570159884L41.6976,35.51386896769202L41.8404,35.38042291005448L84.07000000000001,73.9354553222656L84.13440000000001,71.64157573382057L84.3024,68.29796894391374L84.434,65.71736319859819L84.504,66.57259488105771L84.5628,64.41940569877623L85.01920000000001,53.39334313074744L85.2096,54.38771788279213L85.5428,55.45988146464026L85.57079999999999,55.848544279734256L85.5904,56.59600162506101L85.6492,56.435500621795626L85.8088,56.26177692413327L86.0804,59.70127169291176L86.22319999999999,57.88432343800861L86.29599999999999,57.65691184997556L86.33239999999999,57.04679234822588L86.3828,57.34331830342609L86.604,57.46790234247841L86.9708,57.96806716918944L87.0492,58.61532274881996L87.13040000000001,57.81356795628862L87.1444,57.93491665522254L87.346,58.06161069869992L87.5616,57.513619105021135L87.85,56.68232425053911L87.9564,56.14216311772661L87.9592,56.23922332127886L88.1132,56.12439219156899L88.1384,56.560178438822405L88.3456,57.387300173441545L88.4548,57.54179938634233L88.87480000000001,58.32615836461383L88.95599999999999,58.0981841087341L89.0232,58.42546923955278L89.0904,59.12425581614174L89.2332,59.488958358764634L89.278,59.89114864667255L89.3228,59.95841089884436L89.3788,59.97679138183592L89.6644,61.41602540016173L89.6924,61.736066182454394L90.006,63.42151427268979L90.11800000000001,63.12119030952451L90.2244,63.129020770390795L90.4512,63.79730606079099L90.5772,63.841663042704226L90.5968,63.599997202555315L90.7536,64.00124971071877L90.8068,64.02631187438963L91.0924,64.31402269999184L91.11200000000001,64.31390547752379L91.1876,64.93098799387612L91.56559999999999,65.09521667162574L91.7924,65.48730238278705L91.87639999999999,65.25236511230466L91.96600000000001,65.23548507690427L91.98559999999999,65.19977911313372L92.0528,65.75867239634194L92.10879999999999,66.25360910097754L92.3776,65.75691405932105L92.41959999999999,65.80181026458737L92.4252,65.85268481572466L92.47,65.64203604062395L92.7248,66.49398549397785L92.988,66.64323314030962L93.016,66.7019147078196L93.1532,67.26460599899289L93.32119999999999,67.2094879945119L93.9316,67.48904013633727L93.982,67.30800175666808L94.2732,67.22435180346169L94.31240000000001,67.27297568321227L94.3964,67.23884050051369L94.4692,67.17525903383887L94.5196,67.02268226941423L94.5616,67.06138912836708L94.69319999999999,67.53712479273474L94.93679999999999,68.16808644930519L95.032,68.26280220349628L95.03479999999999,68.30901130040485L95.1608,68.33405001958208L95.3092,68.5344535509745L95.326,68.4121436278025L95.3596,68.2546200752258L95.4324,68.46154117584227L95.438,68.41694974899289L95.5332,68.44841225941973L95.6536,67.9639083544413L95.74040000000001,67.70414336522417L95.8692,67.56964230537413L96.0736,67.38665803273516L96.1184,67.56544574101764L96.4544,67.93450895945229L96.5244,68.10504420598345L96.6224,68.2507986227671L96.81280000000001,68.2202270030975L97.0088,68.23478603363034L97.1964,68.41540241241452L97.2356,68.70358212788898L97.384,68.7976179917653L97.76759999999999,69.66400925318396L97.7788,69.68686763445534L97.78439999999999,69.70585767428078L97.9832,69.8105138937632L98.0672,69.7306619485219L98.2604,70.01377765337624L98.3024,70.11390908559162L98.4396,70.05046828587847L98.476,70.15081071853636L98.4788,70.16621375083922L98.5628,70.14452759424843L98.8204,69.92813491821286L99.06400000000001,69.93235492706296L99.11999999999999,69.87545514106749L99.2964,70.09871705373126L99.5036,70.03065768877663L99.5176,70.0291806856791L99.5484,70.00824475288388L99.8844,70.16858164469399L100.00200000000001,70.01846655209856L100.1308,70.13100012143451L100.6516,70.03954315185544L101.1024,70.40991926193236L101.13600000000001,70.44860267639157L101.2984,70.46278659502663L101.34039999999999,70.35177691777544L101.402,70.24353369077043L101.584,70.18281245231626L101.6008,70.09623193740842L101.7548,69.92668135960893L101.794,69.8039025465647L101.8164,69.85325320561724L101.8304,69.92872103055315L102.0236,70.19040846824643L102.30080000000001,70.18074933687842L102.5668,70.13622824350989L102.5892,70.20351394017534L102.69000000000001,70.39578223228453L102.7432,70.3556921482086L102.7712,70.43125375111896L103.0736,70.92457278569537L103.09320000000001,70.95432384808856L103.1912,70.89951062202451L103.4096,70.66307290395098L103.8128,70.48920853932695L103.8912,70.46201292673743L104.00880000000001,70.49961789449054L104.0676,70.57555460929869L104.2412,70.71258767445879L104.2692,70.65013154347734L104.3056,70.65503144264218L104.328,70.70393665631609L104.6388,70.54470165570574L104.7508,70.47434473037717L104.7872,70.49523377418515L104.8684,70.4394124348958L104.8936,70.42546296119687L105.08959999999999,70.55482967694597L105.55160000000001,70.85794353485105L105.5656,70.81764245033261L105.63,70.8453772862752L105.8904,71.13419000307717L105.952,71.1739049752553L106.3244,71.15346137682593L106.48679999999999,71.26346294085182L106.5316,71.08769957224526L106.7864,71.04137325286862L106.8536,71.15109348297116L106.96560000000001,71.33857909838356L107.0048,71.3835221926371L107.0412,71.44846343994139L107.10000000000001,71.47955083847043L107.10560000000001,71.50960667928057L107.36880000000001,71.73504892985024L107.548,71.84387826919554L107.61800000000001,71.80188918113707L107.6292,71.8440423806508L107.8868,72.0872321128845L107.9456,72.10678482055663L108.0296,72.04231246312456L108.1668,72.06782007217404L108.416,72.18063497543334L108.44120000000001,72.20956548055011L108.91159999999999,72.29813877741492L108.92280000000001,72.25983047485349L108.93960000000001,72.32111438115435L109.1048,72.39353442192076L109.25319999999999,72.41067234675087L109.2616,72.4111412366231L109.3652,72.51617256800331L109.5248,72.4594368934631L109.57799999999999,72.50738088289894L109.7712,72.75622073809302L110.14359999999999,73.01054660479225L110.2164,73.17132894198097L110.27799999999999,73.15435512860613L110.38719999999999,73.15334701538085L110.4684,73.20851190884905L110.4964,73.29286519686379L110.4992,73.3111987908681L110.6728,73.26276246706642L110.67840000000001,73.25976157188413L110.8716,73.22487616539L110.88000000000001,73.24288153648374L110.88279999999999,73.2542521158854L111.0088,73.16739026705422L111.0732,73.11904772122698L111.12920000000001,73.18218374252316L111.4512,73.26215291023252L111.566,73.2114190260569L111.7144,73.33103283246356L111.75359999999999,73.3755773703257L111.986,73.6427508195241L112.18480000000001,105.92553718884784L112.3388,92.12542835871376L112.3836,97.68922869364418L112.40599999999999,99.40545940399167L112.7952,98.55343961715695L113.00800000000001,91.13578939437863L113.3552,90.24072551727292L113.3664,91.10327188173927L113.4028,91.34662572542824L113.49799999999999,91.5899795691172L113.7976,87.74623139699297L113.834,88.73425269126889L114.03,88.8787176609039L114.086,87.60640843709307L114.156,88.8630332946777L114.1616,88.50477798779802L114.254,90.08786741892494L114.37440000000001,90.20757500330605L114.4108,90.42042756080625L114.4248,89.54161071777341L114.436,89.86694995562233L114.5172,90.83272242546079L114.5648,90.33619149525958L114.5788,89.77089786529538L114.58439999999999,90.08789086341855L114.6348,90.68907801310219L114.6964,90.4545158545176L114.7328,90.82081262270607L114.82520000000001,91.27057178815203L114.842,91.43046323458351L114.95400000000001,91.99685875574745L115.02680000000001,92.30189506212868L115.2452,91.38418380419411L115.31519999999999,90.36685689290361L115.3208,90.12404227256772L115.43560000000001,91.16818968454994L115.51679999999999,91.1160022417704L115.7828,90.76102916399635L116.0824,91.51280029614763L116.1104,91.24302450815834L116.1244,91.60029514630634L116.1272,91.67967820167539L116.18599999999999,92.20127129554746L116.19999999999999,92.40228438377378L116.466,91.99791375795998L116.7768,91.69158800443012L116.78800000000001,91.37647056579587L117.0596,91.7513245741526L117.0876,91.79954989751177L117.4656,90.82390729586281L117.50479999999999,90.39531850814816L117.5692,90.2280186017354L117.852,91.41001963615415L117.93879999999999,91.86125580469765L118.1936,91.12376236915586L118.3056,92.01474690437314L118.3672,91.93491840362546L118.57719999999999,92.06393345197039L118.9272,91.52475698788959L119.2492,91.68237431844074L119.50959999999999,91.14676141738889L119.5544,91.32132911682126L119.994,92.24844161669411L119.9968,92.23575814565021L120.0108,92.27258944511411L120.0668,92.2202847798665L120.3468,92.42872977256772L120.9152,91.45653351147968L120.974,91.513925631841L121.13640000000001,91.40375995635983L121.212,91.19447096188861L121.2708,91.26095954577126L121.41640000000001,91.37093766530353L121.47800000000001,91.46853709220883L121.4836,91.49329447746274L121.576,91.72276918093361L121.6628,91.80520002047218L121.6684,91.79329021771747L121.73559999999999,92.05943210919696L121.7384,92.09910019238788L121.8028,92.09874852498369L122.1164,92.7427218755086L122.164,92.66521437962848L122.35719999999999,92.48752856254575L122.4468,92.62634340922035L122.6932,92.76389225323993L122.8304,93.14186437924701L122.948,93.10965164502458L122.96199999999999,93.00933265686032L123.2168,93.34517502784726L123.2588,93.36529040336606L123.2756,93.42083040873207L123.29520000000001,93.38484311103818L123.536,93.67201471328733L123.6004,93.72436626752216L124.0932,93.28867379824318L124.1828,93.12859479586281L124.2556,93.14289593696591L124.35919999999999,93.39747969309487L124.3872,93.34447169303891L124.66999999999999,92.98035526275632L124.6756,93.01793678601581L124.7876,93.19590393702187L124.9248,93.117716550827L125.2524,93.0116771062215L125.4064,92.62690607706703L125.42880000000001,92.60062479972837L125.482,92.53319843610124L125.50999999999999,92.55687737464902L125.5184,92.51193428039548L125.5324,92.50269714991249L125.77319999999999,92.72849106788632L125.9244,92.95390987396237L126.1988,126.35926548639931L126.2968,108.61914539337157L126.49,103.6044854323069L126.6608,97.25881123542783L126.6636,97.32035303115842L126.9128,99.78842520713803L127.23479999999999,97.75409960746762L127.27680000000001,96.51850446065265L127.7724,96.00417915980019L127.79199999999999,96.20334013303118L127.88719999999999,96.61415799458818L128.114,95.83748881022133L128.2148,95.80382251739499L128.31,96.41049567858376L128.4584,96.81050562858579L128.6488,98.23543850580849L128.6572,98.47602589925127L128.6908,97.49810918172199L128.7916,97.66283019383745L128.98760000000001,99.29161294301349L128.9988,98.60989395777382L129.1584,98.87549662590024L129.528,99.66977262496945L129.72119999999998,99.80598513285317L129.9172,100.03946884473163L130.21959999999999,99.92231671015419L130.2728,100.00244998931882L130.56119999999999,99.85552334785459L130.9112,97.79203279813129L131.236,98.83409365018206L131.9472,98.91504748662311L132.1292,99.45134027798969L132.4316,99.81981738408405L132.4484,99.88569641113278L132.552,99.2743343512217L132.8656,99.04183530807492L133.4788,99.66848317782082L133.4872,99.74148933092751L133.6748,100.0235265890757L134.0584,100.23351891835529L134.0808,100.11174821853635L134.246,99.34462094306943L134.2992,99.32476345698036L134.4616,99.13584772745766L134.6884,98.75970427195229L134.73600000000002,98.7498575846354L134.9292,98.22406792640683L135.1532,98.48901414871213L135.15879999999999,98.3569513161977L135.4164,98.50802763303119L135.54240000000001,98.52638467152912L135.7776,98.79583223660785L136.1836,98.68259533246355L136.2004,98.7043987115224L136.22,98.74005778630573L136.2424,98.77423985799152L136.4244,98.79681690533954L136.4888,98.696755806605L136.7212,98.84513600667316L136.7296,98.8923297723134L136.7548,98.7311488787333L136.962,98.56028540929157L137.2112,99.02397060394284L137.3456,98.98931964238483L137.3988,99.0196568171183L137.4576,98.81604139010109L137.5164,98.91052269935605L137.606,98.95992024739581L137.6396,98.76547161738075L137.998,98.92794195810951L138.0456,98.9590996901194L138.0596,99.0063637892405L138.09879999999998,98.97072815895078L138.1016,98.99079664548236L138.16039999999998,99.04511753718056L138.2052,98.97192382812497L138.3004,99.23283759752907L138.3144,99.29911518096921L138.6168,100.02873126665749L138.656,100.10898176829018L138.8324,100.29684249560036L138.9248,100.34832660357155L138.98080000000002,100.36424541473386L139.048,100.54223601023354L139.0592,100.60539547602333L139.0984,100.51961207389829L139.18519999999998,100.66358470916745L139.2104,100.72027349472043L139.3196,100.91882491111753L139.4904,100.71928882598874L139.65279999999998,100.88574473063149L139.86839999999998,101.0662438869476L139.8796,101.10553685824074L139.9552,101.15758363405861L140.2996,101.48189131418862L140.7924,101.9562437534332L140.83720000000002,101.95940876007077L140.98559999999998,101.93987949689227L141.17880000000002,101.83062815666196L141.26559999999998,101.76456157366432L141.288,101.74294575055437L141.5036,101.76922702789304L141.52880000000002,101.77311881383257L141.6548,101.77525226275124L141.8452,101.66006946563718L142.76360000000003,102.21448485056557L143.1556,102.59306653340654L143.2144,102.71804912885028L143.29840000000002,103.13395444552101L143.3348,103.02573466300962L143.3796,103.15292104085285L143.3992,103.20651515324909L143.64000000000001,103.35053467750546L143.766,103.46030179659523L143.8192,103.47584549585976L143.9032,103.56575512886045L143.91719999999998,103.5308462778727L144.2644,104.0160769621531L144.648,103.92405732472734L144.7096,104.17814874649045L144.73760000000001,104.07750153541562L144.8356,104.13243198394773L144.96159999999998,104.18522898356117L144.9924,104.25842269261676L145.1156,104.46789924303688L145.45440000000002,104.32101949055988L145.45999999999998,104.33801674842832L145.6224,104.17566363016762L145.63920000000002,104.13029853502907L145.67,104.11196494102475L145.7372,104.08863766988115L145.7652,104.07918953895566L145.8688,104.38274884223935L145.9304,104.44086774190265L145.9444,104.43603817621864L146.0788,104.55834809939064L146.286,104.7535938421885L146.3056,104.78374346097308L146.412,104.72843790054318L146.97760000000002,104.92743476231891L147.1652,105.21713836987811L147.3416,105.423731247584L147.3836,105.41334533691403L147.66639999999998,105.5060214201609L147.6748,105.50653719902036L147.8652,105.42907659212746L148.1984,105.5903278191884L148.3244,105.70532306035356L148.5736,105.6874583562215L148.8928,105.30463322003679L148.96,105.18403474489845L148.9824,105.16898337999977L149.15599999999998,105.29701375961301L149.40240000000003,105.61049008369444L149.5368,105.59407893816628L149.7132,105.49472117424008L149.74400000000003,105.55743519465126L149.9148,105.5918986002604L150.374,105.66335741678871L150.6092,105.76735719045L150.6876,105.77485942840575L150.9452,105.65515184402463L150.9676,105.65669918060301L151.0684,105.69603904088335L151.284,105.80322726567583L151.3092,105.84737324714658L151.6844,105.44227584203082L151.9056,105.54327472050981L152.38719999999998,105.64713382720944L152.4572,105.58526380856829L152.50199999999998,105.59438371658322L152.89679999999998,105.77249153455097L152.9388,105.9015534718831L153.0256,105.9608680407206L153.314,106.24893053372699L153.4484,106.17599471410114L153.59120000000001,106.22951849301654L153.69480000000001,106.19189008076982L153.84879999999998,106.26452112197873L153.8544,106.28304227193193L153.8992,106.32871214548744L153.91039999999998,106.28705128033953L154.05319999999998,106.45723485946654L154.66920000000002,106.93768286705016L154.6916,106.86903738975522L154.7028,106.82554785410561L154.854,107.05891434351601L155.13400000000001,107.20396542549132L155.6212,107.2661167780558L155.834,107.58655611673989L155.9264,107.52508465449013L155.988,107.70068391164142L156.0636,107.77987941106157L156.94,108.6978954474131L157.3012,108.97524380683896L157.3684,108.89121874173479L157.5532,108.91651535034177L157.6428,108.9875521659851L157.78,109.18816669782001L157.7912,109.21585464477538L158.02919999999997,109.33514022827146L158.94480000000001,109.65539201100665L159.09040000000002,109.72152892748512L159.0988,109.7027733325958L159.14079999999998,109.79669197400409L159.6308,110.2819461027781L159.8212,110.4664308230082L159.8716,110.46366437276203L160.1992,110.57626827557878L160.2132,110.58384084701535L160.272,110.5543476740519L160.2748,110.53134862581886L160.286,110.55085444450377L160.4008,110.49022698402402L160.45399999999998,110.55404289563495L160.524,110.5253937244415L160.78719999999998,110.42441829045612L160.874,110.47470672925311L160.8796,110.47721529006957L161.056,110.47899707158403L161.0644,110.4765119552612L161.3304,110.67496959368385L161.43679999999998,110.72005335489906L161.4396,110.70901099840798L161.71679999999998,110.77760958671567L161.83440000000002,110.70622110366818L162.1172,110.99158747990924L162.2656,110.91912055015561L162.37480000000002,110.91117286682126L162.43359999999998,110.94662094116208L162.708,111.11225628852841L162.71640000000002,111.13389555613198L162.7836,111.2043697039286L162.86479999999997,111.17771331469216L163.05519999999999,111.32138117154437L163.0804,111.28384653727211L163.786,111.40336656570432L163.8364,111.40512490272519L164.1164,111.47388760248818L164.1304,111.48596151669818L164.1332,111.48593807220456L164.19760000000002,111.46837814648943L164.6512,111.76820977528887L164.6652,111.79423316319782L164.72959999999998,111.84288048744199L164.836,111.71953900655109L164.9592,111.6443290710449L165.0796,111.6282227039337L165.2112,111.64543096224465L165.4184,111.68392682075499L165.4968,111.67476002375282L165.5808,111.63052026430763L165.7516,111.78377691904701L165.774,111.76272376378374L165.78240000000002,111.77336756388344L165.9504,111.84801483154294L165.9924,111.85436828931171L166.0932,111.92547543843585L166.2164,112.03106943766274L166.2752,111.9997944831848L166.3312,111.97555287679035L166.5468,112.05781960487364L166.7008,112.1016139189402L166.7204,112.09572935104367L166.9612,112.1504956881205L166.96400000000003,112.13999255498247L167.21599999999998,112.18505287170409L167.37279999999998,112.25644135475156L167.46239999999997,112.36977203687029L167.86,112.36648980776467L167.9048,112.35962057113645L167.96079999999998,112.40880711873369L167.9664,112.4297430515289L168.1008,112.4500459829966L168.17919999999998,112.53871305783588L168.2212,112.54389429092404L168.3696,112.6431817213694L168.91559999999998,112.67145578066506L169.106,112.69996428489682L169.1648,112.68036468823747L169.2264,112.74260981877642L169.3328,112.79158536593117L169.3664,112.80319039026894L169.5148,112.91187906265256L169.69680000000002,112.98010253906249L170.04399999999998,113.1229967276255L170.24839999999998,113.17197227478025L170.3408,113.22331571578977L170.39960000000002,113.28122361501056L170.5732,113.33327039082843L170.6208,113.40819899241126L170.66559999999998,113.41005110740659L170.68800000000002,113.42521969477333L170.78879999999998,113.42231257756549L170.898,113.45628364880878L170.996,113.43455060323078L171.2172,113.63082790374753L171.3824,113.83238021532692L171.4076,113.8295199871063L171.514,113.83828822771706L171.5448,113.84827558199562L171.60920000000002,113.87612764040627L171.70159999999998,113.84944780667621L171.70440000000002,113.83683466911313L171.7352,113.8603026072184L171.86960000000002,113.9313159783681L171.8724,113.9367316563924L172.0404,113.96795972188312L172.1384,114.04403710365293L172.4184,114.35584886868793L172.5416,114.4175782203674L172.63400000000001,114.47855734825131L172.6788,114.49979805946347L172.6984,114.5445067087809L173.3256,114.94498554865517L173.41799999999998,114.87835629781085L173.47119999999998,114.91612537701923L173.5216,114.89357177416481L173.6056,114.94571232795712L173.7288,114.99128842353818L173.74,114.9999628861745L173.88,114.99363287289935L173.9024,114.96903959910073L174.132,114.99475820859271L174.1852,115.06462279955544L174.2748,115.11026922861733L174.43439999999998,115.19537274042762L174.5828,115.10039909680683L174.7312,115.16344134012856L174.8264,115.19352062543231L175.0252,115.24957640965778L175.0448,115.28671248753864L175.86520000000002,115.712722380956L175.92680000000001,115.73173586527503L176.05,115.69286489486691L176.3944,115.67664130528766L176.54840000000002,115.81552648544309L176.5624,115.84225320816037L176.76680000000002,115.77585840225217L176.80599999999998,115.76376104354856L176.87040000000002,115.91523591677345L177.10559999999998,115.9879607359568L177.40800000000002,116.23014235496518L177.7972,116.43014732996619L178.29559999999998,116.75764346122739L178.5112,116.85163243611652L178.584,116.88281361262001L178.766,116.97269980112709L179.1524,117.0928293863932L179.1748,117.09803406397499L179.1888,117.11489065488178L179.19160000000002,117.12220533688861L179.578,117.18088690439856L179.69,117.24765682220456L179.816,117.23417623837787L180.11839999999998,117.31327795982358L180.3256,117.31529418627417L180.33960000000002,117.3012509346008L180.3536,117.29412380854286L180.80159999999998,117.38780800501503L180.96120000000002,117.41355005900063L181.2972,117.4267961978912L181.5884,117.5895478725433L181.59959999999998,117.59339276949561L181.8432,117.56910427411395L181.85999999999999,117.5891258716583L181.88799999999998,117.6196974913279L238.2464,175.73672159512836L238.2632,170.43613258997598L238.37800000000001,171.2499378522237L238.3836,169.87177673975626L238.3892,169.74848214785257L238.40040000000002,168.55405553181964L238.546,160.43642306327817L238.75039999999998,161.99189488093057L238.7672,161.92425751686093L238.8484,161.41086999575296L238.9688,163.1378382841746L238.9744,163.07095114390054L239.0976,161.23330140113828L239.2516,160.52124524116513L239.4112,160.64221882820127L239.4392,160.6901862621307L239.59879999999998,162.95365834236142L239.6548,163.86782948176065L239.834,162.08729052543637L240.2876,161.62388666470844L240.52280000000002,162.33913127581278L240.6824,162.76774350802103L240.73000000000002,161.77976910273233L240.84199999999998,161.48896360397336L240.8588,161.55003650983173L241.2396,162.78105998039243L241.2704,162.47632845242816L241.30960000000002,162.0899163087209L241.4496,159.94694892565408L241.5,160.15032990773517L241.7436,160.35704000790912L241.9676,160.5394616127014L242.0348,160.56452377637225L242.41,160.2863783041636L242.69,160.54161850611368L242.8664,161.90857315063474L243.07080000000002,162.3446172873179L243.3172,162.80640347798663L243.4236,162.71086716651914L243.74,161.970255613327L243.82119999999998,162.1800603866577L243.8296,162.287318944931L244.03119999999998,163.30098851521808L244.0872,163.17518536249796L244.3056,163.96113856633502L244.3532,163.5166544119517L244.37279999999998,163.43291068077085L244.60240000000002,163.46294307708737L244.6584,163.40140128135678L244.6808,163.48198000590006L244.7732,163.62728897730508L244.9832,164.39469758669534L245.2072,164.8343990643819L245.34720000000002,165.19052092234293L245.4844,166.13073889414468L245.5768,165.87059879302976L245.7168,166.02549656232196L245.74200000000002,166.06183552742002L246.036,166.51407980918881L246.176,166.26545095443723L246.2628,166.40440646807352L246.88719999999998,165.29229346911112L246.99360000000001,165.69919610023496L247.0328,165.74861709276834L247.0748,166.04460382461545L247.0776,166.05904563268024L247.2848,165.77374958992002L247.3716,165.66210691134134L247.51160000000002,165.53093496958414L247.5732,165.57388528188068L247.66840000000002,165.37303630510965L247.8448,165.56181136767069L247.94,165.89777096112567L247.9792,165.92426323890683L248.1192,166.05581029256183L248.15,166.19980637232462L248.1696,166.30026602745053L248.318,166.64668186505634L248.5392,166.42949207623798L248.7044,166.5788100560506L248.9228,166.71082599957782L249.1076,166.37172484397885L249.53879999999998,166.64658808708188L249.6648,166.39165266354877L249.6844,166.30268081029254L250.166,166.588445742925L250.1688,166.60068376859027L250.4488,166.90649374326068L250.6084,167.24432889620462L250.656,167.4152861436208L250.712,167.4320255120595L250.84640000000002,167.43589385350543L250.8828,167.56572945912677L250.95839999999998,167.54692697525022L251.0984,167.51555824279782L251.20479999999998,167.6200972398122L251.4344,167.6947445074717L251.5324,167.91556819279987L251.6584,168.30219133694965L251.9048,168.10598436991373L251.9384,168.23110763231912L252,167.9880820115407" style="fill: none;" fill="none"></path></g></g></g></g></g></g><g transform="translate(50, 177)" clip-path="url(#clip_1)"><clipPath id="clip_1"><rect width="280" height="23"></rect></clipPath><g><g><line x1="0" y1="0" x2="0" y2="5" style="visibility: inherit;" fill="rgb(0, 0, 0)" stroke="rgb(204, 204, 204)" stroke-width="1px"></line><line x1="28" y1="0" x2="28" y2="5" style="visibility: inherit;" fill="rgb(0, 0, 0)" stroke="rgb(204, 204, 204)" stroke-width="1px"></line><line x1="56" y1="0" x2="56" y2="5" style="visibility: inherit;" fill="rgb(0, 0, 0)" stroke="rgb(204, 204, 204)" stroke-width="1px"></line><line x1="84" y1="0" x2="84" y2="5" style="visibility: inherit;" fill="rgb(0, 0, 0)" stroke="rgb(204, 204, 204)" stroke-width="1px"></line><line x1="112" y1="0" x2="112" y2="5" style="visibility: inherit;" fill="rgb(0, 0, 0)" stroke="rgb(204, 204, 204)" stroke-width="1px"></line><line x1="140" y1="0" x2="140" y2="5" style="visibility: inherit;" fill="rgb(0, 0, 0)" stroke="rgb(204, 204, 204)" stroke-width="1px"></line><line x1="168" y1="0" x2="168" y2="5" style="visibility: inherit;" fill="rgb(0, 0, 0)" stroke="rgb(204, 204, 204)" stroke-width="1px"></line><line x1="196" y1="0" x2="196" y2="5" style="visibility: inherit;" fill="rgb(0, 0, 0)" stroke="rgb(204, 204, 204)" stroke-width="1px"></line><line x1="224" y1="0" x2="224" y2="5" style="visibility: inherit;" fill="rgb(0, 0, 0)" stroke="rgb(204, 204, 204)" stroke-width="1px"></line><line x1="252" y1="0" x2="252" y2="5" style="visibility: inherit;" fill="rgb(0, 0, 0)" stroke="rgb(204, 204, 204)" stroke-width="1px"></line><line x1="280" y1="0" x2="280" y2="5" style="visibility: inherit;" fill="rgb(0, 0, 0)" stroke="rgb(204, 204, 204)" stroke-width="1px"></line></g><g transform="translate(0, 8)"><text x="0" y="0" dx="0em" dy="0.95em" style="text-anchor: middle; visibility: hidden; font-family: &quot;Helvetica Neue&quot;, sans-serif; font-size: 12px; font-weight: 200;" fill="rgb(33, 33, 33)" stroke="none" stroke-width="1px">10k</text><text x="28" y="0" dx="0em" dy="0.95em" style="text-anchor: middle; visibility: inherit; font-family: &quot;Helvetica Neue&quot;, sans-serif; font-size: 12px; font-weight: 200;" fill="rgb(33, 33, 33)" stroke="none" stroke-width="1px">20k</text><text x="56" y="0" dx="0em" dy="0.95em" style="text-anchor: middle; visibility: hidden; font-family: &quot;Helvetica Neue&quot;, sans-serif; font-size: 12px; font-weight: 200;" fill="rgb(33, 33, 33)" stroke="none" stroke-width="1px">30k</text><text x="84" y="0" dx="0em" dy="0.95em" style="text-anchor: middle; visibility: inherit; font-family: &quot;Helvetica Neue&quot;, sans-serif; font-size: 12px; font-weight: 200;" fill="rgb(33, 33, 33)" stroke="none" stroke-width="1px">40k</text><text x="112" y="0" dx="0em" dy="0.95em" style="text-anchor: middle; visibility: hidden; font-family: &quot;Helvetica Neue&quot;, sans-serif; font-size: 12px; font-weight: 200;" fill="rgb(33, 33, 33)" stroke="none" stroke-width="1px">50k</text><text x="140" y="0" dx="0em" dy="0.95em" style="text-anchor: middle; visibility: inherit; font-family: &quot;Helvetica Neue&quot;, sans-serif; font-size: 12px; font-weight: 200;" fill="rgb(33, 33, 33)" stroke="none" stroke-width="1px">60k</text><text x="168" y="0" dx="0em" dy="0.95em" style="text-anchor: middle; visibility: hidden; font-family: &quot;Helvetica Neue&quot;, sans-serif; font-size: 12px; font-weight: 200;" fill="rgb(33, 33, 33)" stroke="none" stroke-width="1px">70k</text><text x="196" y="0" dx="0em" dy="0.95em" style="text-anchor: middle; visibility: inherit; font-family: &quot;Helvetica Neue&quot;, sans-serif; font-size: 12px; font-weight: 200;" fill="rgb(33, 33, 33)" stroke="none" stroke-width="1px">80k</text><text x="224" y="0" dx="0em" dy="0.95em" style="text-anchor: middle; visibility: hidden; font-family: &quot;Helvetica Neue&quot;, sans-serif; font-size: 12px; font-weight: 200;" fill="rgb(33, 33, 33)" stroke="none" stroke-width="1px">90k</text><text x="252" y="0" dx="0em" dy="0.95em" style="text-anchor: middle; visibility: inherit; font-family: &quot;Helvetica Neue&quot;, sans-serif; font-size: 12px; font-weight: 200;" fill="rgb(33, 33, 33)" stroke="none" stroke-width="1px">100k</text><text x="280" y="0" dx="0em" dy="0.95em" style="text-anchor: middle; visibility: hidden; font-family: &quot;Helvetica Neue&quot;, sans-serif; font-size: 12px; font-weight: 200;" fill="rgb(33, 33, 33)" stroke="none" stroke-width="1px">110k</text></g><line x1="0" y1="0" x2="280" y2="0" fill="rgb(0, 0, 0)" stroke="rgb(204, 204, 204)" stroke-width="1px"></line></g></g></g></g></svg>