<svg viewBox="0 0 330 200" xmlns="http://www.w3.org/2000/svg"><g><g><g><g><g><line x1="50" y1="177" x2="45" y2="177" style="visibility: inherit;" fill="rgb(0, 0, 0)" stroke="rgb(204, 204, 204)" stroke-width="1px"></line><line x1="50" y1="151.7142857142857" x2="45" y2="151.7142857142857" style="visibility: inherit;" fill="rgb(0, 0, 0)" stroke="rgb(204, 204, 204)" stroke-width="1px"></line><line x1="50" y1="126.42857142857144" x2="45" y2="126.42857142857144" style="visibility: inherit;" fill="rgb(0, 0, 0)" stroke="rgb(204, 204, 204)" stroke-width="1px"></line><line x1="50" y1="101.14285714285712" x2="45" y2="101.14285714285712" style="visibility: inherit;" fill="rgb(0, 0, 0)" stroke="rgb(204, 204, 204)" stroke-width="1px"></line><line x1="50" y1="75.85714285714282" x2="45" y2="75.85714285714282" style="visibility: inherit;" fill="rgb(0, 0, 0)" stroke="rgb(204, 204, 204)" stroke-width="1px"></line><line x1="50" y1="50.57142857142851" x2="45" y2="50.57142857142851" style="visibility: inherit;" fill="rgb(0, 0, 0)" stroke="rgb(204, 204, 204)" stroke-width="1px"></line><line x1="50" y1="25.285714285714306" x2="45" y2="25.285714285714306" style="visibility: inherit;" fill="rgb(0, 0, 0)" stroke="rgb(204, 204, 204)" stroke-width="1px"></line><line x1="50" y1="0" x2="45" y2="0" style="visibility: inherit;" fill="rgb(0, 0, 0)" stroke="rgb(204, 204, 204)" stroke-width="1px"></line></g><g transform="translate(40, 0)"><text x="0" y="177" dx="0em" dy="0.3em" style="text-anchor: end; visibility: hidden; font-family: &quot;Helvetica Neue&quot;, sans-serif; font-size: 12px; font-weight: 200;" fill="rgb(33, 33, 33)" stroke="none" stroke-width="1px">0.85</text><text x="0" y="151.7142857142857" dx="0em" dy="0.3em" style="text-anchor: end; visibility: inherit; font-family: &quot;Helvetica Neue&quot;, sans-serif; font-size: 12px; font-weight: 200;" fill="rgb(33, 33, 33)" stroke="none" stroke-width="1px">0.9</text><text x="0" y="126.42857142857144" dx="0em" dy="0.3em" style="text-anchor: end; visibility: inherit; font-family: &quot;Helvetica Neue&quot;, sans-serif; font-size: 12px; font-weight: 200;" fill="rgb(33, 33, 33)" stroke="none" stroke-width="1px">0.95</text><text x="0" y="101.14285714285712" dx="0em" dy="0.3em" style="text-anchor: end; visibility: inherit; font-family: &quot;Helvetica Neue&quot;, sans-serif; font-size: 12px; font-weight: 200;" fill="rgb(33, 33, 33)" stroke="none" stroke-width="1px">1</text><text x="0" y="75.85714285714282" dx="0em" dy="0.3em" style="text-anchor: end; visibility: inherit; font-family: &quot;Helvetica Neue&quot;, sans-serif; font-size: 12px; font-weight: 200;" fill="rgb(33, 33, 33)" stroke="none" stroke-width="1px">1.05</text><text x="0" y="50.57142857142851" dx="0em" dy="0.3em" style="text-anchor: end; visibility: inherit; font-family: &quot;Helvetica Neue&quot;, sans-serif; font-size: 12px; font-weight: 200;" fill="rgb(33, 33, 33)" stroke="none" stroke-width="1px">1.1</text><text x="0" y="25.285714285714306" dx="0em" dy="0.3em" style="text-anchor: end; visibility: inherit; font-family: &quot;Helvetica Neue&quot;, sans-serif; font-size: 12px; font-weight: 200;" fill="rgb(33, 33, 33)" stroke="none" stroke-width="1px">1.15</text><text x="0" y="0" dx="0em" dy="0.3em" style="text-anchor: end; visibility: hidden; font-family: &quot;Helvetica Neue&quot;, sans-serif; font-size: 12px; font-weight: 200;" fill="rgb(33, 33, 33)" stroke="none" stroke-width="1px">1.2</text></g><line x1="50" y1="0" x2="50" y2="177" fill="rgb(0, 0, 0)" stroke="rgb(204, 204, 204)" stroke-width="1px"></line></g></g><g transform="translate(50, 0)" clip-path="url(#clip_0)"><clipPath id="clip_0"><rect width="280" height="177"></rect></clipPath><g><g><g><line x1="0" y1="0" x2="0" y2="177" fill="rgb(0, 0, 0)" stroke="rgb(66, 66, 66)" stroke-width="1px" opacity="0.25"></line><line x1="28" y1="0" x2="28" y2="177" fill="rgb(0, 0, 0)" stroke="rgb(66, 66, 66)" stroke-width="1px" opacity="0.25"></line><line x1="56" y1="0" x2="56" y2="177" fill="rgb(0, 0, 0)" stroke="rgb(66, 66, 66)" stroke-width="1px" opacity="0.25"></line><line x1="84" y1="0" x2="84" y2="177" fill="rgb(0, 0, 0)" stroke="rgb(66, 66, 66)" stroke-width="1px" opacity="0.25"></line><line x1="112" y1="0" x2="112" y2="177" fill="rgb(0, 0, 0)" stroke="rgb(66, 66, 66)" stroke-width="1px" opacity="0.25"></line><line x1="140" y1="0" x2="140" y2="177" fill="rgb(0, 0, 0)" stroke="rgb(66, 66, 66)" stroke-width="1px" opacity="0.25"></line><line x1="168" y1="0" x2="168" y2="177" fill="rgb(0, 0, 0)" stroke="rgb(66, 66, 66)" stroke-width="1px" opacity="0.25"></line><line x1="196" y1="0" x2="196" y2="177" fill="rgb(0, 0, 0)" stroke="rgb(66, 66, 66)" stroke-width="1px" opacity="0.25"></line><line x1="224" y1="0" x2="224" y2="177" fill="rgb(0, 0, 0)" stroke="rgb(66, 66, 66)" stroke-width="1px" opacity="0.25"></line><line x1="252" y1="0" x2="252" y2="177" fill="rgb(0, 0, 0)" stroke="rgb(66, 66, 66)" stroke-width="1px" opacity="0.25"></line><line x1="280" y1="0" x2="280" y2="177" fill="rgb(0, 0, 0)" stroke="rgb(66, 66, 66)" stroke-width="1px" opacity="0.25"></line></g><g><line x1="0" y1="177" x2="280" y2="177" fill="rgb(0, 0, 0)" stroke="rgb(66, 66, 66)" stroke-width="1px" opacity="0.25"></line><line x1="0" y1="151.7142857142857" x2="280" y2="151.7142857142857" fill="rgb(0, 0, 0)" stroke="rgb(66, 66, 66)" stroke-width="1px" opacity="0.25"></line><line x1="0" y1="126.42857142857144" x2="280" y2="126.42857142857144" fill="rgb(0, 0, 0)" stroke="rgb(66, 66, 66)" stroke-width="1px" opacity="0.25"></line><line x1="0" y1="101.14285714285712" x2="280" y2="101.14285714285712" fill="rgb(0, 0, 0)" stroke="rgb(66, 66, 66)" stroke-width="1px" opacity="0.25"></line><line x1="0" y1="75.85714285714282" x2="280" y2="75.85714285714282" fill="rgb(0, 0, 0)" stroke="rgb(66, 66, 66)" stroke-width="1px" opacity="0.25"></line><line x1="0" y1="50.57142857142851" x2="280" y2="50.57142857142851" fill="rgb(0, 0, 0)" stroke="rgb(66, 66, 66)" stroke-width="1px" opacity="0.25"></line><line x1="0" y1="25.285714285714306" x2="280" y2="25.285714285714306" fill="rgb(0, 0, 0)" stroke="rgb(66, 66, 66)" stroke-width="1px" opacity="0.25"></line><line x1="0" y1="0" x2="280" y2="0" fill="rgb(0, 0, 0)" stroke="rgb(66, 66, 66)" stroke-width="1px" opacity="0.25"></line></g></g></g><g><g><line x1="0" y1="606.8571428571429" x2="280" y2="606.8571428571429" fill="rgb(0, 0, 0)" stroke="rgb(153, 153, 153)" stroke-width="1.5px"></line></g></g><g><g><line x1="-28" y1="0" x2="-28" y2="177" fill="rgb(0, 0, 0)" stroke="rgb(153, 153, 153)" stroke-width="1.5px"></line></g></g><g><g><g><g><g><path stroke="rgb(255, 112, 67)" stroke-width="2px" d="M14.126000000000001,34.91337510517664L14.1708,35.73853754997262L14.305200000000001,24.69978488082444L14.406,21.062171266860332L14.4088,18.930590481094868L14.425600000000001,17.55491817724632L14.5488,21.800945665998967L14.655199999999999,26.270647427139664L14.7448,28.077427522575363L15.106,28.663919996542546L15.148000000000001,28.96939288245838L15.282399999999999,30.242474900401476L15.5428,30.560650489833364L15.8172,29.84397608116248L15.9376,29.761210063654943L16.1112,30.836730114925757L16.2092,30.854961986955118L16.3212,30.825479402259987L16.3464,30.809817495567444L16.3716,30.844334774309175L16.615199999999998,30.677840634583845L16.828,30.40634661265861L16.8504,30.362168301601884L16.9316,30.276147074301377L17.2452,30.859563335954363L17.5308,32.412099575871366L17.793999999999997,33.9536647286256L17.9172,35.187170047108765L17.956400000000002,36.01434965381972L17.9928,36.79233684721905L18.135599999999997,37.48872167941917L18.158,38.0531435815723L18.230800000000002,38.08390483370954L18.27,38.17516276738593L18.648000000000003,37.8834668505379L19.0092,38.34733453579645L19.0736,38.53457529517243L19.0764,38.67877478840899L19.2724,38.70293481023299L19.2864,38.740749386513016L19.3676,38.626106986988134L19.39,38.80094868694951L19.717599999999997,39.287053134995915L19.7204,39.57401350815738L19.9388,39.34553003458433L19.9892,39.20238725204746L20.02,39.2152256752907L20.0956,39.31996481845465L20.258,38.953235517741945L20.3336,38.7859118764396L20.610799999999998,38.61474211465867L20.8852,38.326046381813995L20.901999999999997,38.20821957255728L21.3304,38.60022937166502L21.520799999999998,38.67799274951625L21.8652,38.532242486998626L21.98,38.466543460818485L22.0444,38.13685977923228L22.0724,37.94594627045848L22.1928,37.89785727599926L22.483999999999998,38.04983728713458L22.595999999999997,38.16651414727025L22.7108,38.320004095574774L22.8116,38.54525742953021L22.9236,38.77334608195079L22.948800000000002,38.812946155160546L23.735599999999998,39.95956615392052L23.8056,40.80818786151562L23.9176,41.38401291156802L23.9876,41.91458547259646L24.2228,42.486370683582294L24.4356,42.945021823993756L24.696,43.15737054787871L24.7688,43.24858416344409L24.8948,43.202152692062384L25.2,42.878242102646766L25.284000000000002,42.70501990758419L25.368,42.650738008960104L25.3792,42.58956926695009L25.432399999999998,42.563960616435736L25.4772,42.4929636523147L25.502399999999998,42.45533302711701L25.564,42.4289445868653L25.575200000000002,42.40959082961635L25.648,42.25037472285874L25.6928,42.18925621668464L25.858,41.954268811361885L25.956000000000003,41.93867091685689L25.9784,42.01631670547468L26.0904,41.999194102177086L26.278000000000002,41.865069309032236L26.3172,41.78442563279137L26.392799999999998,41.62747668508598L26.4404,41.437356372379696L26.6084,41.34626514723678L26.7512,41.136097057440765L26.975199999999997,41.12256192534758L27.031200000000002,41.14067724397111L27.1488,41.12169288682273L27.288800000000002,41.11261724881726L27.297199999999997,41.11059610176662L27.3448,41.05037563264378L27.4232,40.9442153185947L27.5352,40.945362580438996L27.7284,40.9940143524191L27.739600000000003,40.96557215188284L28.058799999999998,40.86890540748004L28.0868,40.85556511164063L28.4844,40.85178094298706L28.8008,40.48630030865115L28.9156,40.07981233545922L29.162000000000003,39.920970815625765L29.3048,39.68401829238019L29.3776,39.51541746586301L30.175600000000003,39.38662194056866L30.2092,39.2969980852134L30.2428,39.231576547574065L30.3072,39.176793992422034L30.323999999999998,39.16661604977622L30.497600000000002,39.19672901729069L30.5732,39.08872704769479L30.6544,39.09467732860125L30.8616,39.036731825278736L31.337600000000002,38.76142401882964L31.415999999999997,38.57873232681635L31.477600000000002,38.46979251302446L31.491600000000002,38.373272902267416L31.6232,38.31058649722851L31.8528,38.41322363404612L31.9536,38.65797841456725L32.379200000000004,38.59305918161391L32.4212,38.558375879364576L32.4688,38.60122774581066L32.956,38.66233871134665L33.059599999999996,38.60869710127608L33.222,38.59286165523582L33.4152,38.60016808000327L33.644800000000004,38.49451821838943L33.9976,38.44682673434349L34.0452,38.406154675772825L34.1544,38.44104859355846L34.538000000000004,38.320023846512385L34.6864,38.09915405879681L34.8292,37.93443954722528L34.9384,37.84841555285038L35.366800000000005,37.60509218274953L35.4704,37.507688548305936L35.4928,37.444640529409014L35.7448,37.42894867878172L35.7812,37.38794378787031L35.8568,37.39729383881456L35.882,37.41749304283431L35.898799999999994,37.41116509798712L35.924,37.45506648825307L36.069599999999994,37.44494644594781L36.1032,37.45621262835445L36.108799999999995,37.43169604363516L36.1144,37.426559484309195L36.1592,37.366881201449786L36.3664,37.188727304636274L36.394400000000005,37.08726069221257L36.461600000000004,37.12278984123074L36.5876,37.124815861612745L36.6184,37.08604990427932L36.660399999999996,37.08656706545753L36.694,37.07113070056954L36.7584,37.1006206200488L36.800399999999996,37.15188172784676L36.876000000000005,37.16831447677151L36.9404,37.22148347409649L37.1588,37.17870277301296L37.326800000000006,37.17726926033046L37.427600000000005,37.24634072795118L37.6824,37.1517787518691L37.9428,37.01797214744886L38.3152,37.06797794375146L38.550399999999996,37.18971235676594L39.0068,37.30497720741201L39.0684,37.36024626009862L39.0852,37.407611035783304L39.205600000000004,37.34955589127148L39.443599999999996,37.27071414084202L39.564,37.30626595006393L39.858000000000004,37.455475360923145L40.0092,37.600029922844016L40.233200000000004,37.69643250884724L40.437599999999996,37.718729528763305L40.446,37.727960074871675L40.499199999999995,37.692721059876675L40.6364,37.63832398114087L40.754000000000005,37.59987417885441L40.8212,37.51755537322714L40.9304,37.48480298188832L40.9836,37.46411463062469L41.0368,37.44531132075059L41.042399999999994,37.43123207181702L41.0928,37.418299255907556L41.1992,37.40803167538809L41.445600000000006,37.33647304706801L41.5184,37.24133033201622L41.5268,37.19671181484517L41.563199999999995,37.19133012082847L41.6976,37.163914425123295L41.8404,37.06222082892825L84.07000000000001,49.17303648338863L84.13440000000001,57.380370820610054L84.3024,59.217629977238076L84.434,60.1549469536716L84.504,61.29190943022475L84.5628,60.49696324694105L85.01920000000001,55.76330878138168L85.2096,53.17993378349489L85.5428,52.54147892505645L85.57079999999999,52.177408106987016L85.5904,52.567466777993104L85.6492,52.60219699119068L85.8088,52.35387089748187L86.0804,53.90040245421703L86.22319999999999,54.176944936493285L86.29599999999999,54.03415869272219L86.33239999999999,53.652676383235914L86.3828,53.702042323951375L86.604,53.28952553257176L86.9708,53.48202975195974L87.0492,53.97352301496801L87.13040000000001,54.005066306190685L87.1444,53.98008007454693L87.346,54.07360284884891L87.5616,53.81526556825706L87.85,53.488930840588026L87.9564,52.84224014410586L87.9592,52.51704357224234L88.1132,52.313413268415104L88.1384,52.38436680543556L88.3456,52.54994615704419L88.4548,52.78269427634497L88.87480000000001,53.45539055153347L88.95599999999999,53.751530719818604L89.0232,53.96201031813908L89.0904,54.52951808816134L89.2332,55.02891211196486L89.278,55.56607473866676L89.3228,55.90448069132711L89.3788,55.966768882020446L89.6644,56.56877898057947L89.6924,57.03895772539248L90.006,58.16890092176935L90.11800000000001,58.69489829231941L90.2244,59.08001834616282L90.4512,59.51444657637097L90.5772,59.943276895756256L90.5968,59.98091759815581L90.7536,60.268060402992276L90.8068,60.46021629899407L91.0924,60.57044582597493L91.11200000000001,60.68859816553298L91.1876,60.951608486460515L91.56559999999999,61.24486490593709L91.7924,61.59555123835331L91.87639999999999,61.626070089107486L91.96600000000001,61.637050641329L91.98559999999999,61.53563086043563L92.0528,61.75776072821904L92.10879999999999,62.070593996876624L92.3776,62.006612630251425L92.41959999999999,62.086938687813614L92.4252,62.00226432941352L92.47,61.89059512958694L92.7248,62.29541471346819L92.988,62.59237080575082L93.016,62.767047882358824L93.1532,63.18902999349697L93.32119999999999,63.302066737684086L93.9316,63.45949765783614L93.982,63.47150929416452L94.2732,63.423783817901466L94.31240000000001,63.38386302276166L94.3964,63.347588119835535L94.4692,63.36498486020862L94.5196,63.32263662230193L94.5616,63.27504249017457L94.69319999999999,63.4473343178264L94.93679999999999,63.81169887604389L95.032,64.09335248602672L95.03479999999999,64.29104071219703L95.1608,64.39528150347259L95.3092,64.58707882073242L95.326,64.66805953957956L95.3596,64.64201410008172L95.4324,64.68520170258523L95.438,64.69770669311228L95.5332,64.61569727113377L95.6536,64.33569330535082L95.74040000000001,64.07017254993936L95.8692,63.91377793138311L96.0736,63.689771972976004L96.1184,63.61654646909005L96.4544,63.723542797574225L96.5244,63.89623099361667L96.6224,64.0821943696598L96.81280000000001,64.14703881156295L97.0088,64.12368226041366L97.1964,64.21075562743607L97.2356,64.40011376377328L97.384,64.58609576877072L97.76759999999999,65.05028479694703L97.7788,65.35652970058207L97.78439999999999,65.55802479426983L97.9832,65.63973605401723L98.0672,65.66390092915454L98.2604,65.81831123336985L98.3024,65.92154360952878L98.4396,65.95604092053027L98.476,65.99072562217718L98.4788,66.0232801249368L98.5628,65.93834952180043L98.8204,65.87579216416498L99.06400000000001,65.66181315097705L99.11999999999999,65.5348726032414L99.2964,65.6141975149739L99.5036,65.56367122766466L99.5176,65.55057309138734L99.5484,65.5038177851913L99.8844,65.63019281105095L100.00200000000001,65.59757565628742L100.1308,65.6343846816666L100.6516,65.64528104485726L101.1024,65.83771628120249L101.13600000000001,65.9792932492076L101.2984,66.08425432912824L101.34039999999999,66.10411454380086L101.402,66.08663529667142L101.584,66.03995212962808L101.6008,65.98633280426608L101.7548,65.82946597611263L101.794,65.67286563390275L101.8164,65.62923204840635L101.8304,65.59282741852317L102.0236,65.68297161830654L102.30080000000001,65.75128559658553L102.5668,65.74459994071498L102.5892,65.79916227003204L102.69000000000001,65.90800451294172L102.7432,65.99014166541534L102.7712,66.04352339406826L103.0736,66.33808521040855L103.09320000000001,66.47628759082733L103.1912,66.50635039393902L103.4096,66.44765625774323L103.8128,66.32772611265203L103.8912,66.24957064117167L104.00880000000001,66.23074644572075L104.0676,66.28620041129061L104.2412,66.39261157258883L104.2692,66.34444717731793L104.3056,66.32215586829783L104.328,66.35590049598915L104.6388,66.29956014055875L104.7508,66.21984223101143L104.7872,66.16354735324651L104.8684,66.12849236676442L104.8936,66.08992825239508L105.08959999999999,66.14048319546434L105.55160000000001,66.25432410786519L105.5656,66.31486383902156L105.63,66.36213558638936L105.8904,66.50757373747987L105.952,66.58704769751377L106.3244,66.6080375032652L106.48679999999999,66.70544150743486L106.5316,66.67605949718202L106.7864,66.69132224572486L106.8536,66.727729094854L106.96560000000001,66.8312002326605L107.0048,66.90165059003571L107.0412,66.96974725862343L107.10000000000001,67.046053334117L107.10560000000001,67.11211713622986L107.36880000000001,67.24471618388115L107.548,67.35900025672409L107.61800000000001,67.39783772378888L107.6292,67.45232004084595L107.8868,67.5902685089698L107.9456,67.69652495338694L108.0296,67.71159197507517L108.1668,67.75439225888893L108.416,67.7805064872303L108.44120000000001,67.83176778459364L108.91159999999999,67.89358382814844L108.92280000000001,67.9200149176428L108.93960000000001,67.98091915152219L109.1048,68.05160759203119L109.25319999999999,68.1180385352777L109.2616,68.16481791573973L109.3652,68.16804777764209L109.5248,68.18387555248444L109.57799999999999,68.22566131367707L109.7712,68.3640942652744L110.14359999999999,68.549760537131L110.2164,68.70080426909949L110.27799999999999,68.79504765872358L110.38719999999999,68.83336325426556L110.4684,68.92638064416613L110.4964,69.00227832023296L110.4992,69.05936769295417L110.6728,69.0534709466702L110.67840000000001,69.05260959022763L110.8716,69.05713267264589L110.88000000000001,69.04431688952846L110.88279999999999,69.04456103629622L111.0088,69.00462949744912L111.0732,68.93902511537446L111.12920000000001,68.9486145887908L111.4512,69.0114710211665L111.566,69.01243463209163L111.7144,69.09025101777164L111.75359999999999,69.15922249590808L111.986,69.32566233077068L112.18480000000001,82.41358009848338L112.3388,84.2674314355113L112.3836,88.79681603250167L112.40599999999999,90.91255295699055L112.7952,93.30369757837614L113.00800000000001,91.32338438935449L113.3552,89.41256216045066L113.3664,88.88923150141825L113.4028,88.82898826673929L113.49799999999999,89.21537372633998L113.7976,86.67280238369217L113.834,86.09394019202995L114.03,85.77505367951416L114.086,84.86048459810682L114.156,84.71722571391608L114.1616,84.50406725949155L114.254,84.99335450974763L114.37440000000001,85.37533001672672L114.4108,86.04807442256397L114.4248,85.78163188934337L114.436,85.89030361829494L114.5172,86.2681249112811L114.5648,86.31265799076631L114.5788,86.16821427949743L114.58439999999999,86.29201797984267L114.6348,86.81856457709888L114.6964,86.5836005229927L114.7328,86.47047414893964L114.82520000000001,86.84591628279466L114.842,87.2839664664978L114.95400000000001,87.94692575871771L115.02680000000001,88.35572158573247L115.2452,88.18671478454323L115.31519999999999,87.40321258763622L115.3208,86.84550388576396L115.43560000000001,87.32155442191247L115.51679999999999,87.5233150819979L115.7828,87.55198945573648L116.0824,87.6853528378706L116.1104,87.77665637653301L116.1244,87.80937388202855L116.1272,87.88480495949229L116.18599999999999,88.29857889309737L116.19999999999999,88.72343253788475L116.466,88.55904464541146L116.7768,88.4810296674523L116.78800000000001,88.32343941977764L117.0596,88.648981123616L117.0876,88.7836344758228L117.4656,88.07205351111622L117.50479999999999,87.58149131316904L117.5692,87.19916078129222L117.852,87.52897392064479L117.93879999999999,87.88941654516205L118.1936,87.61109708264091L118.3056,88.06193881511885L118.3672,88.17806387370088L118.57719999999999,88.40197420373715L118.9272,88.15367411356823L119.2492,88.11229222797627L119.50959999999999,87.80735096631975L119.5544,87.73403409641955L119.994,88.11346760533009L119.9968,88.34233342749076L120.0108,88.53718972716621L120.0668,88.44107746021851L120.3468,88.48066321829239L120.9152,88.13409081078845L120.974,87.9927270487726L121.13640000000001,87.84943152606876L121.212,87.6070245129574L121.2708,87.5532388973147L121.41640000000001,87.5419952291708L121.47800000000001,87.61533273909114L121.4836,87.68508935619711L121.576,87.89034206913644L121.6628,88.02612960911411L121.6684,88.11423357557935L121.73559999999999,88.28113265175635L121.7384,88.40799078206771L121.8028,88.5524698036261L122.1164,88.84198289906493L122.164,88.97228495101301L122.35719999999999,88.9537676936739L122.4468,89.00055586069375L122.6932,89.18462440234158L122.8304,89.41906144451433L122.948,89.58870910203396L122.96199999999999,89.66708267601184L123.2168,89.748686778633L123.2588,89.82786450357244L123.2756,89.93695915341125L123.29520000000001,89.93899523888167L123.536,89.93816717157958L123.6004,90.00051229156033L124.0932,89.82875161060163L124.1828,89.6809872225517L124.2556,89.54983912918529L124.35919999999999,89.63365678539864L124.3872,89.61898335717142L124.66999999999999,89.51263680995716L124.6756,89.47795899986242L124.7876,89.49715799770453L124.9248,89.47867916206962L125.2524,89.55454815733698L125.4064,89.37725308721222L125.42880000000001,89.29424283699882L125.482,89.235273239082L125.50999999999999,89.1945863263489L125.5184,89.16076958755733L125.5324,89.09917168622404L125.77319999999999,89.22062002048862L125.9244,89.42105386000173L126.1988,107.15465447339761L126.2968,106.9730120890766L126.49,103.25589497731423L126.6608,97.39296874908383L126.6636,94.0110490684462L126.9128,94.1405161870656L127.23479999999999,93.80989251623794L127.27680000000001,92.93269974728278L127.7724,92.33618725298041L127.79199999999999,92.33128952529377L127.88719999999999,92.36411244939433L128.114,92.14977657019634L128.2148,92.26463338182378L128.31,91.9870244563665L128.4584,92.17667607671298L128.6488,93.00051368087011L128.6572,93.69108282639846L128.6908,93.45202225770258L128.7916,93.38618585065427L128.98760000000001,93.85043249144555L128.9988,93.8656036950016L129.1584,93.97388868228069L129.528,94.34163928105853L129.72119999999998,94.801744999648L129.9172,95.40446123013547L130.21959999999999,95.2399402649978L130.2728,95.3398574739052L130.56119999999999,95.21371746612846L130.9112,94.12535190912038L131.236,94.02763751091582L131.9472,93.87373312932608L132.1292,94.1107199910339L132.4316,94.22351673212562L132.4484,94.38680812015562L132.552,94.31188316180112L132.8656,94.38897084273324L133.4788,94.69565828318419L133.4872,94.9433808239231L133.6748,95.31492727299671L134.0584,95.61005346528205L134.0808,95.78891364153839L134.246,95.47037056847671L134.2992,95.35662762978231L134.4616,95.2237795596547L134.6884,94.84500471895579L134.73600000000002,94.62227330975834L134.9292,94.3121898656332L135.1532,94.30345251387112L135.15879999999999,94.24438690422284L135.4164,94.1956605391401L135.54240000000001,94.20090822097983L135.7776,94.37611261948621L136.1836,94.55232432196212L136.2004,94.6088580974236L136.22,94.70523449368186L136.2424,94.6654213838137L136.4244,94.6772227355965L136.4888,94.68548514914421L136.7212,94.76524526843288L136.7296,94.73890152725322L136.7548,94.69430276501959L136.962,94.59201740643081L137.2112,94.87427548335685L137.3456,94.82134437762569L137.3988,94.84931692516807L137.4576,94.70793452199187L137.5164,94.6675960305344L137.606,94.68773920009026L137.6396,94.60457347349306L137.998,94.62783693382725L138.0456,94.67500045109404L138.0596,94.754420954381L138.09879999999998,94.77612623050906L138.1016,94.80479960043569L138.16039999999998,94.87700842346065L138.2052,94.86094010700259L138.3004,94.90517054439123L138.3144,94.99211521922157L138.6168,95.39987202699724L138.656,95.65313492971678L138.8324,95.93523774428546L138.9248,96.0790346939084L138.98080000000002,96.18347095890569L139.048,96.37934031154944L139.0592,96.4354427086146L139.0984,96.49454477163567L139.18519999999998,96.61939785406149L139.2104,96.68779883271978L139.3196,96.88640249320919L139.4904,96.91144643497759L139.65279999999998,96.92123998906442L139.86839999999998,96.91346740717849L139.8796,96.94784496849442L139.9552,96.96687995908911L140.2996,97.20729069082034L140.7924,97.5657447790901L140.83720000000002,97.78547129895514L140.98559999999998,97.8557915390079L141.17880000000002,97.85696519701666L141.26559999999998,97.81308198402856L141.288,97.80985359039796L141.5036,97.7889868002349L141.52880000000002,97.75953846206406L141.6548,97.76024458341176L141.8452,97.57207003212544L142.76360000000003,97.84878063273086L143.1556,98.2046350483397L143.2144,98.49914775329053L143.29840000000002,98.85717107079752L143.3348,99.01218150731174L143.3796,99.18840634374422L143.3992,99.34806090153987L143.64000000000001,99.39311707267082L143.766,99.4627366932311L143.8192,99.5381961933591L143.9032,99.64761602795743L143.91719999999998,99.7136296437607L144.2644,99.95073422742726L144.648,100.09410623709638L144.7096,100.12010885988136L144.73760000000001,100.11926445620499L144.8356,100.17815142427226L144.96159999999998,100.25148779909988L144.9924,100.31941104559237L145.1156,100.4284326795143L145.45440000000002,100.42977386835483L145.45999999999998,100.44610821422756L145.6224,100.34614036297602L145.63920000000002,100.2830247885079L145.67,100.21838853054929L145.7372,100.14968088444282L145.7652,100.13705589961455L145.8688,100.22528716678289L145.9304,100.3518228814295L145.9444,100.44182708260874L146.0788,100.56395260332505L146.286,100.68639704744248L146.3056,100.79818139427182L146.412,100.78278097227036L146.97760000000002,100.85700043695626L147.1652,101.05944484693852L147.3416,101.26270732161093L147.3836,101.37724964800633L147.66639999999998,101.39855420153663L147.6748,101.42083798215158L147.8652,101.4079959669774L148.1984,101.47474377115668L148.3244,101.60208635102063L148.5736,101.66116574831726L148.8928,101.47947584560552L148.96,101.3010849584828L148.9824,101.2094594870962L149.15599999999998,101.18305969276342L149.40240000000003,101.31000080131481L149.5368,101.38252420166637L149.7132,101.38352466700464L149.74400000000003,101.39418062443893L149.9148,101.42160190014118L150.374,101.49234809371106L150.6092,101.57483766525633L150.6876,101.58796698906379L150.9452,101.56341080104323L150.9676,101.57085022044613L151.0684,101.55668554730673L151.284,101.65993257777372L151.3092,101.7175884441949L151.6844,101.55448057800463L151.9056,101.5054956179427L152.38719999999998,101.4934428496954L152.4572,101.43139930236835L152.50199999999998,101.4065679428233L152.89679999999998,101.52404477613966L152.9388,101.66173753135936L153.0256,101.75117754166024L153.314,101.87914987510688L153.4484,101.95465521535169L153.59120000000001,102.05639802357658L153.69480000000001,102.10819586054569L153.84879999999998,102.16363004237634L153.8544,102.2112144672288L153.8992,102.2764189132954L153.91039999999998,102.3037014418188L154.05319999999998,102.37783685150657L154.66920000000002,102.58738072919878L154.6916,102.69649227811293L154.7028,102.72072369241188L154.854,102.87870667039009L155.13400000000001,103.03391492674226L155.6212,103.1609205230358L155.834,103.36990947357222L155.9264,103.47798875044063L155.988,103.6602249056032L156.0636,103.77770518719733L156.94,104.25302483372778L157.3012,104.62886241174613L157.3684,104.83930555554633L157.5532,104.98171598997014L157.6428,105.12135922142782L157.78,105.28533738562248L157.7912,105.37558569564257L158.02919999999997,105.45468096254284L158.94480000000001,105.70273322908031L159.09040000000002,105.86196992511039L159.0988,105.95397919246247L159.14079999999998,106.04658608845374L159.6308,106.26979309191063L159.8212,106.4688621734621L159.8716,106.57443787902838L160.1992,106.69583856697741L160.2132,106.75130460045254L160.272,106.78225718708597L160.2748,106.79097803269313L160.286,106.81415160625443L160.4008,106.78703726436818L160.45399999999998,106.81717669941938L160.524,106.7834024802665L160.78719999999998,106.72198683390228L160.874,106.7345838926387L160.8796,106.71460355584162L161.056,106.69405476438176L161.0644,106.68625898472771L161.3304,106.75798779145836L161.43679999999998,106.80151941939054L161.4396,106.82388861685742L161.71679999999998,106.89572711499103L161.83440000000002,106.91276261634567L162.1172,107.04937921080298L162.2656,107.05460529224626L162.37480000000002,107.07366846022936L162.43359999999998,107.11780540102338L162.708,107.21915052250057L162.71640000000002,107.25323891078168L162.7836,107.33133726464264L162.86479999999997,107.37019031731217L163.05519999999999,107.45529513564746L163.0804,107.47399658735246L163.786,107.53926974316114L163.8364,107.54838717363363L164.1164,107.62217354661615L164.1304,107.68158917359348L164.1332,107.71901095349689L164.19760000000002,107.68864156780386L164.6512,107.81588967003493L164.6652,107.91445989226143L164.72959999999998,107.98345273197029L164.836,107.96901169012474L164.9592,107.90534226394841L165.0796,107.88428590134218L165.2112,107.88062261687692L165.4184,107.86807959593096L165.4968,107.8461575246005L165.5808,107.814544757375L165.7516,107.88390791085638L165.774,107.88817269603774L165.78240000000002,107.90136598944883L165.9504,107.93843619806559L165.9924,107.96311387120049L166.0932,108.0265590913709L166.2164,108.10285950365505L166.2752,108.14299699633453L166.3312,108.16744120698647L166.5468,108.22079918594902L166.7008,108.24588110164424L166.7204,108.26967169796515L166.9612,108.32788237647128L166.96400000000003,108.35907106145056L167.21599999999998,108.39001024093527L167.37279999999998,108.43431580261169L167.46239999999997,108.49580464139193L167.86,108.56847156254078L167.9048,108.60709210478693L167.96079999999998,108.64522737580029L167.9664,108.6821430821269L168.1008,108.68489252238055L168.17919999999998,108.72827204547609L168.2212,108.7813078159741L168.3696,108.84445380110873L168.91559999999998,108.90699830104225L169.106,108.96331006896943L169.1648,108.97851703361715L169.2264,109.0303115304643L169.3328,109.0939184682228L169.3664,109.13273371795763L169.5148,109.21387316054927L169.69680000000002,109.28175183778808L170.04399999999998,109.37337235086356L170.24839999999998,109.44923973110095L170.3408,109.51729500650288L170.39960000000002,109.59548127865148L170.5732,109.64992877203011L170.6208,109.7181297425751L170.66559999999998,109.75278059746769L170.68800000000002,109.77422219748294L170.78879999999998,109.80373810669778L170.898,109.82192993895241L170.996,109.83569052998698L171.2172,109.93735376621257L171.3824,110.06396681698288L171.4076,110.10441423009537L171.514,110.13057565336139L171.5448,110.15120388909152L171.60920000000002,110.18566956256785L171.70159999999998,110.19629328842223L171.70440000000002,110.19768791349176L171.7352,110.20501144499447L171.86960000000002,110.23467738832412L171.8724,110.25676930618087L172.0404,110.27434092309015L172.1384,110.32744569678098L172.4184,110.50019657074803L172.5416,110.59873485583557L172.63400000000001,110.68316582282053L172.6788,110.75007746566847L172.6984,110.82356252129297L173.3256,111.00810750636711L173.41799999999998,111.08911357793873L173.47119999999998,111.13178509415529L173.5216,111.15368645326532L173.6056,111.19750070448742L173.7288,111.26336088106646L173.74,111.29291776612764L173.88,111.30418925503967L173.9024,111.30987906042215L174.132,111.32349330790072L174.1852,111.32955185196275L174.2748,111.35989360583704L174.43439999999998,111.42516984259242L174.5828,111.42061629295868L174.7312,111.4186558219396L174.8264,111.43497449030386L175.0252,111.49448945274466L175.0448,111.53265809251032L175.86520000000002,111.75739627108582L175.92680000000001,111.89884650637359L176.05,111.9536340130291L176.3944,111.95923320268263L176.54840000000002,112.03104126002333L176.5624,112.06150223938191L176.76680000000002,112.06292290593301L176.80599999999998,112.06125535772172L176.87040000000002,112.11396951287257L177.10559999999998,112.19012512791575L177.40800000000002,112.3304310953608L177.7972,112.51055356274279L178.29559999999998,112.78118178407777L178.5112,112.96448996077515L178.584,113.08979952750354L178.766,113.20030071303188L179.1524,113.30735465267259L179.1748,113.3721537033598L179.1888,113.42627339430504L179.19160000000002,113.4638092194923L179.578,113.4937941016853L179.69,113.54204852304036L179.816,113.56006532434756L180.11839999999998,113.59426631132953L180.3256,113.61681250776675L180.33960000000002,113.62955650969981L180.3536,113.63996400236445L180.80159999999998,113.68430914929547L180.96120000000002,113.69996832878017L181.2972,113.72895673470357L181.5884,113.78586111826269L181.59959999999998,113.8270330774256L181.8432,113.82618711362804L181.85999999999999,113.84351208703319L181.88799999999998,113.85839233762553L238.2464,133.95240438134815L238.2632,145.507631299376L238.37800000000001,156.41347172450648L238.3836,159.3142161115079L238.3892,161.45183791951175L238.40040000000002,163.0026588811626L238.546,160.37265764831685L238.75039999999998,159.23005330742623L238.7672,159.17580402686647L238.8484,157.95615391182997L238.9688,157.32845337538782L238.9744,157.09823118911643L239.0976,155.72902483843498L239.2516,155.72063644759922L239.4112,155.51476716333755L239.4392,156.01217769498393L239.59879999999998,156.91061281511045L239.6548,158.11848500408615L239.834,157.87064096354177L240.2876,157.84308496471738L240.52280000000002,158.3746822863779L240.6824,158.89512801621404L240.73000000000002,158.83153735158984L240.84199999999998,158.84591603441493L240.8588,158.60264488726358L241.2396,158.95017003390325L241.2704,158.95655875513543L241.30960000000002,158.8321640046725L241.4496,157.58663144167852L241.5,156.8943649336237L241.7436,156.6286344854471L241.9676,156.65320065957354L242.0348,156.4144625181763L242.41,156.63427302329592L242.69,156.41869585481874L242.8664,156.8726753484974L243.07080000000002,157.54985835077412L243.3172,158.21423977907583L243.4236,158.6381163461486L243.74,158.4227070727038L243.82119999999998,158.45956105697672L243.8296,158.58022873994253L244.03119999999998,158.86378653541274L244.0872,158.97632412047508L244.3056,159.2864248373843L244.3532,159.294847009277L244.37279999999998,159.35058864728634L244.60240000000002,159.53057645170367L244.6584,159.45255114424165L244.6808,159.54914391765894L244.7732,159.76759254686263L244.9832,160.2240605782318L245.2072,160.83112918152074L245.34720000000002,161.3682219059941L245.4844,162.26281925526462L245.5768,162.67390580127105L245.7168,163.02482811897673L245.74200000000002,163.16044620959053L246.036,163.60481016807609L246.176,163.61001708065606L246.2628,163.85020926823438L246.88719999999998,163.38053032211877L246.99360000000001,163.1472530562255L247.0328,163.06470293138713L247.0748,163.1643561979192L247.0776,163.24089556438923L247.2848,163.37519822676043L247.3716,163.29187468044537L247.51160000000002,163.23753997212484L247.5732,163.16562072181773L247.66840000000002,163.01501568914188L247.8448,163.0077989010514L247.94,163.19558774538984L247.9792,163.32739577783605L248.1192,163.41256946721603L248.15,163.57486488546004L248.1696,163.78185385199572L248.318,164.17043681495983L248.5392,164.31512315007208L248.7044,164.41786247025652L248.9228,164.49665135546672L249.1076,164.50639072216325L249.53879999999998,164.43713024181758L249.6648,164.40880066706322L249.6844,164.2803223455591L250.166,164.3195629109017L250.1688,164.356309849224L250.4488,164.60731157808732L250.6084,164.98974784446156L250.656,165.20570557596577L250.712,165.37705830248427L250.84640000000002,165.4749867852974L250.8828,165.54443858312828L250.95839999999998,165.6258139165221L251.0984,165.7171526914311L251.20479999999998,165.77365601708468L251.4344,165.91544555302164L251.5324,166.11494180026216L251.6584,166.3903096465025L251.9048,166.43081100697412L251.9384,166.5043412407855L252,166.39344037025606" style="fill: none;" fill="none"></path></g></g></g></g><g opacity="0.2"><g><g><g><path stroke="rgb(255, 112, 67)" stroke-width="2px" d="M14.126000000000001,34.91337510517664L14.1708,36.23363501685003L14.305200000000001,14.102582318442188L14.406,16.784337656838517L14.4088,16.147598607199512L14.425600000000001,15.651868138994473L14.5488,27.872832911355147L14.655199999999999,32.78751550401958L14.7448,30.742077214377247L15.106,29.53479296820501L15.148000000000001,29.42483159473963L15.282399999999999,32.145169871194014L15.5428,31.036874975476934L15.8172,28.770368507930186L15.9376,29.637158325740245L16.1112,32.44925165176389L16.2092,30.882302079881924L16.3212,30.78126301084245L16.3464,30.78632702146257L16.3716,30.89610753740581L16.615199999999998,30.42810855592998L16.828,29.99911451339719L16.8504,30.29590170724049L16.9316,30.14711625235418L17.2452,31.73468358176092L17.5308,34.74089731488908L17.793999999999997,36.266008513314375L17.9172,37.03742613111223L17.956400000000002,37.255118301936534L17.9928,37.9593172073364L18.135599999999997,38.53329869679041L18.158,38.899776322501026L18.230800000000002,38.13004670824321L18.27,38.31204966136386L18.648000000000003,37.44592298780168L19.0092,39.04313605172291L19.0736,38.815436431339776L19.0764,38.895074026925215L19.2724,38.739174842834444L19.2864,38.797471250806524L19.3676,38.45414338793071L19.39,39.06321123668124L19.717599999999997,40.01620980671473L19.7204,40.00445406777516L19.9388,39.00280482428411L19.9892,38.98767307826449L20.02,39.234483310154474L20.0956,39.477073533194385L20.258,38.403141566685235L20.3336,38.53492641448972L20.610799999999998,38.35798747198919L20.8852,37.89300278254916L20.901999999999997,38.03147935867307L21.3304,39.18824407032557L21.520799999999998,38.79463781629289L21.8652,38.31361709322246L21.98,38.36799492154802L22.0444,37.64233425685336L22.0724,37.65957600729803L22.1928,37.82572378431047L22.483999999999998,38.277807303837335L22.595999999999997,38.34152943747381L22.7108,38.550239018031505L22.8116,38.883137430463506L22.9236,39.11547906058172L22.948800000000002,38.87234626497539L23.735599999999998,41.67949615206035L23.8056,42.081120422908214L23.9176,42.24775048664637L23.9876,42.71044431413921L24.2228,43.34404850006101L24.4356,43.63299853461126L24.696,43.47589363370622L24.7688,43.385404586791964L24.8948,43.13250548498968L25.2,42.39237621852328L25.284000000000002,42.445186614990206L25.368,42.56931516102381L25.3792,42.49781615393499L25.432399999999998,42.52554764066423L25.4772,42.386468206133145L25.502399999999998,42.39888708932057L25.564,42.38936192648748L25.575200000000002,42.38056019374301L25.648,42.011550562722334L25.6928,42.097578457423595L25.858,41.60178770337785L25.956000000000003,41.915274075099376L25.9784,42.132785388401544L26.0904,41.97351019723072L26.278000000000002,41.66388211931499L26.3172,41.66346011842998L26.392799999999998,41.392053263528L26.4404,41.152175903320284L26.6084,41.209628309522344L26.7512,40.820844922746915L26.975199999999997,41.102259227207696L27.031200000000002,41.16785022190638L27.1488,41.09321635110035L27.288800000000002,41.099003791809054L27.297199999999997,41.107564381190684L27.3448,40.960044928959405L27.4232,40.784974847521084L27.5352,40.94708347320554L27.7284,41.06699201038904L27.739600000000003,40.922908851078546L28.058799999999998,40.723905290876104L28.0868,40.835554667881524L28.4844,40.84610469000677L28.8008,39.93807935714719L28.9156,39.47008037567136L29.162000000000003,39.68270853587558L29.3048,39.32858950751165L29.3776,39.262516226087286L30.175600000000003,39.19342865262712L30.2092,39.162562302180675L30.2428,39.133444241115L30.3072,39.0946201596941L30.323999999999998,39.15134913580755L30.497600000000002,39.24189846856251L30.5732,38.92672409330095L30.6544,39.10360274996074L30.8616,38.94981357029505L31.337600000000002,38.34846230915613L31.415999999999997,38.30469478879655L31.477600000000002,38.30638279233659L31.491600000000002,38.228493486131924L31.6232,38.216556889670215L31.8528,38.56717933927263L31.9536,39.025110585348926L32.379200000000004,38.49568033218381L32.4212,38.50635092599049L32.4688,38.6655055454799L32.956,38.75400515965052L33.059599999999996,38.52823468617029L33.222,38.56910848617551L33.4152,38.611127717154346L33.644800000000004,38.33604342596868L33.9976,38.37528950827459L34.0452,38.34514658791676L34.1544,38.49338947023662L34.538000000000004,38.13848672594341L34.6864,37.7678493772234L34.8292,37.68736777986797L34.9384,37.71937956128801L35.366800000000005,37.24010712759832L35.4704,37.36158309664043L35.4928,37.35006850106373L35.7448,37.40541090284074L35.7812,37.326436451503184L35.8568,37.41131891523088L35.882,37.44779184886386L35.898799999999994,37.40167318071636L35.924,37.52091857365198L36.069599999999994,37.42976638248987L36.1032,37.473111901964444L36.108799999999995,37.3949211665562L36.1144,37.41885464532032L36.1592,37.277363777160616L36.3664,36.92149645941595L36.394400000000005,36.93506077357699L36.461600000000004,37.17608356475827L36.5876,37.127854892185724L36.6184,37.02790096827914L36.660399999999996,37.087342807224786L36.694,37.04797615323747L36.7584,37.14485549926755L36.800399999999996,37.22877338954379L36.876000000000005,37.19296360015866L36.9404,37.301236970084034L37.1588,37.11453172138758L37.326800000000006,37.17511899130682L37.427600000000005,37.349947929382296L37.6824,37.00993578774586L37.9428,36.817262240818536L38.3152,37.14298663820537L38.550399999999996,37.37231397628781L39.0068,37.47787448338099L39.0684,37.44314983912875L39.0852,37.478658199310274L39.205600000000004,37.26247317450384L39.443599999999996,37.152451515197725L39.564,37.35959366389682L39.858000000000004,37.67928947721208L40.0092,37.816861765725264L40.233200000000004,37.84103638785223L40.437599999999996,37.752175058637334L40.446,37.74180589403423L40.499199999999995,37.639862537384005L40.6364,37.55672836303708L40.754000000000005,37.54219947542461L40.8212,37.39407716478618L40.9304,37.43567439488001L40.9836,37.43308210372922L41.0368,37.41710635593958L41.042399999999994,37.41011319841655L41.0928,37.39890003204343L41.1992,37.392630304609014L41.445600000000006,37.22913510458807L41.5184,37.09861625943864L41.5268,37.129784039088634L41.563199999999995,37.18325757980344L41.6976,37.12279088156561L41.8404,36.909680434635675L84.07000000000001,67.33925996507917L84.13440000000001,69.69137232644216L84.3024,61.97351871217997L84.434,61.560922418321866L84.504,62.99735314505439L84.5628,59.30454397201537L85.01920000000001,48.66282708304266L85.2096,49.30487128666468L85.5428,51.58379663739885L85.57079999999999,51.6313018798828L85.5904,53.152554784502286L85.6492,52.65429231098719L85.8088,51.981381756918736L86.0804,56.22019978931971L86.22319999999999,54.59175865990774L86.29599999999999,53.819979327065596L86.33239999999999,53.08045291900633L86.3828,53.77609123502458L86.604,52.67075034550257L86.9708,53.77078608104159L87.0492,54.71076290948049L87.13040000000001,54.05238124302454L87.1444,53.942600727081285L87.346,54.213887010301846L87.5616,53.42775964736937L87.85,52.99942874908446L87.9564,51.87220409938266L87.9592,52.02924871444701L88.1132,52.00796781267435L88.1384,52.490797110966255L88.3456,52.79831518445695L88.4548,53.13181645529609L88.87480000000001,54.4644349643162L88.95599999999999,54.195740972246426L89.0232,54.277729715619756L89.0904,55.380779743194566L89.2332,55.77800314767019L89.278,56.37181867871965L89.3228,56.412089620317715L89.3788,56.06020116806029L89.6644,57.471794128417955L89.6924,57.744225842612096L90.006,59.86381571633474L90.11800000000001,59.48389434814452L90.2244,59.65769842692782L90.4512,60.16608892168314L90.5772,60.58652237483432L90.5968,60.03737865175516L90.7536,60.698774610246915L90.8068,60.74845014299662L91.0924,60.735790116446324L91.11200000000001,60.865826674870064L91.1876,61.346123967851895L91.56559999999999,61.68474953515188L91.7924,62.121580736977705L91.87639999999999,61.671848365238716L91.96600000000001,61.65352146966116L91.98559999999999,61.383501189095625L92.0528,62.09095552989413L92.10879999999999,62.53984389986307L92.3776,61.91064058031351L92.41959999999999,62.20742777415683L92.4252,61.87525279181342L92.47,61.72309132984705L92.7248,62.902644089290064L92.988,63.037804944174596L93.016,63.02906349727084L93.1532,63.82200316020419L93.32119999999999,63.471621853964635L93.9316,63.69564403806413L93.982,63.48952674865721L94.2732,63.35219560350687L94.31240000000001,63.32398183005195L94.3964,63.293175765446236L94.4692,63.3910799707685L94.5196,63.25911426544188L94.5616,63.203651291983434L94.69319999999999,63.705772059304365L94.93679999999999,64.35824571337015L95.032,64.51583290100096L95.03479999999999,64.58757305145262L95.1608,64.55164269038607L95.3092,64.8747747966221L95.326,64.78953061785013L95.3596,64.60294594083513L95.4324,64.74998310634066L95.438,64.71646417890275L95.5332,64.49268313816614L95.6536,63.91568735667636L95.74040000000001,63.67189141682215L95.8692,63.67918600354875L96.0736,63.3537630353655L96.1184,63.50670821326118L96.4544,63.884037290300626L96.5244,64.15526328768046L96.6224,64.36113943372453L96.81280000000001,64.24430547441752L97.0088,64.08864743368964L97.1964,64.34136567796976L97.2356,64.68415096827914L97.384,64.86506877626688L97.76759999999999,65.74656833921159L97.7788,65.81589705603461L97.78439999999999,65.86026743480136L97.9832,65.76230294363837L98.0672,65.70014824186052L98.2604,66.0499266896929L98.3024,66.07639217376708L98.4396,66.00778688703264L98.476,66.04275267464773L98.4788,66.07211187907626L98.5628,65.81095361709593L98.8204,65.7819561277117L99.06400000000001,65.34084463119505L99.11999999999999,65.34446178163797L99.2964,65.7331848825727L99.5036,65.4878817967006L99.5176,65.5309258869716L99.5484,65.4336848258972L99.8844,65.81975534984042L100.00200000000001,65.54864992414201L100.1308,65.68959821973527L100.6516,65.6616255896432L101.1024,66.12636913572038L101.13600000000001,66.19165870121546L101.2984,66.24169594900947L101.34039999999999,66.13390486580984L101.402,66.06041642597742L101.584,65.96992737906318L101.6008,65.90590381622313L101.7548,65.59416573388235L101.794,65.43796512058802L101.8164,65.56378167016165L101.8304,65.53822047369819L102.0236,65.81818791798182L102.30080000000001,65.85375656400407L102.5668,65.73457145690917L102.5892,65.88100576400755L102.69000000000001,66.07126787730624L102.7432,66.11334739412577L102.7712,66.12359598704745L103.0736,66.77992793491907L103.09320000000001,66.68359116145541L103.1912,66.55144459860664L103.4096,66.35961505344935L103.8128,66.14783089501516L103.8912,66.13233743395121L104.00880000000001,66.20251015254428L104.0676,66.36938135964529L104.2412,66.55222831453595L104.2692,66.2722005844116L104.3056,66.2887189047677L104.328,66.40651743752615L104.6388,66.21504960741312L104.7508,66.10026536669046L104.7872,66.07910503659929L104.8684,66.07590988704135L104.8936,66.03208208084105L105.08959999999999,66.21631561006815L105.55160000000001,66.42508547646658L105.5656,66.40567343575613L105.63,66.43304320744105L105.8904,66.72573096411567L105.952,66.70625863756452L106.3244,66.63952221189226L106.48679999999999,66.8515475136893L106.5316,66.6319864818028L106.7864,66.71421636853898L106.8536,66.7823393685477L106.96560000000001,66.98640693937028L107.0048,67.00732612609862L107.0412,67.07189226150511L107.10000000000001,67.16051244735716L107.10560000000001,67.21121283939905L107.36880000000001,67.443614755358L107.548,67.53042636598859L107.61800000000001,67.45609392438615L107.6292,67.53404351643152L107.8868,67.79719121115546L107.9456,67.85590962001254L108.0296,67.73419250760759L108.1668,67.81859268460954L108.416,67.81967782974242L108.44120000000001,67.90865973063876L108.91159999999999,67.98630789348056L108.92280000000001,67.95966155188422L108.93960000000001,68.07227550234113L109.1048,68.15764025279452L109.25319999999999,68.21768495014734L109.2616,68.23498698643274L109.3652,68.17289257049559L109.5248,68.20761721474783L109.57799999999999,68.28833995546613L109.7712,68.57174369267054L110.14359999999999,68.82825994491576L110.2164,68.92736986705233L110.27799999999999,68.93641274315969L110.38719999999999,68.89083664757864L110.4684,69.06590672901697L110.4964,69.11612483433314L110.4992,69.14500175203595L110.6728,69.04462582724433L110.67840000000001,69.05131755556378L110.8716,69.06391729627336L110.88000000000001,69.02509321485246L110.88279999999999,69.04492725644792L111.0088,68.94473218917845L111.0732,68.84061854226248L111.12920000000001,68.96299879891531L111.4512,69.10575566973004L111.566,69.01388004847934L111.7144,69.20697559629167L111.75359999999999,69.26267971311296L111.986,69.57532208306448L112.18480000000001,102.0454567500523L112.3388,87.0482084410531L112.3836,95.59089292798721L112.40599999999999,94.08615834372382L112.7952,96.89041451045443L113.00800000000001,88.35291460582187L113.3552,86.54632881709506L113.3664,88.10423551286969L113.4028,88.73862341472079L113.49799999999999,89.79495191574095L113.7976,82.85894536972044L113.834,85.22564690453665L114.03,85.29672391074043L114.086,83.48863097599573L114.156,84.50233738762991L114.1616,84.18432957785468L114.254,85.72728538513182L114.37440000000001,85.9482932771955L114.4108,87.05719103131975L114.4248,85.3819680895124L114.436,86.05331121172223L114.5172,86.83485685076032L114.5648,86.37945760999406L114.5788,85.95154871259416L114.58439999999999,86.47772353036062L114.6348,87.60838447298322L114.6964,86.23115444183348L114.7328,86.3007845878601L114.82520000000001,87.40907948357717L114.842,87.94104174205233L114.95400000000001,88.94136469704763L115.02680000000001,88.96891532625469L115.2452,87.9332045827593L115.31519999999999,86.22795929227556L115.3208,86.00894083295549L115.43560000000001,88.03563022613524L115.51679999999999,87.8259560721261L115.7828,87.59500101634433L116.0824,87.88539791107176L116.1104,87.9136116845267L116.1244,87.85845014027186L116.1272,87.99795157568794L116.18599999999999,88.91923979350497L116.19999999999999,89.3607130050659L116.466,88.31246280670165L116.7768,88.36400720051356L116.78800000000001,88.08705404826571L117.0596,89.13729367937358L117.0876,88.98561450413294L117.4656,87.00468206405638L117.50479999999999,86.84564801624842L117.5692,86.6256649834769L117.852,88.02369362967353L117.93879999999999,88.43008048193794L118.1936,87.19361788885932L118.3056,88.73820141383578L118.3672,88.352251461574L118.57719999999999,88.73783969879149L118.9272,87.78122397831507L119.2492,88.05021939958844L119.50959999999999,87.34993907383509L119.5544,87.62405879156928L119.994,88.68261786869593L119.9968,88.68563216073171L120.0108,88.82947417667933L120.0668,88.296909059797L120.3468,88.54004185540335L120.9152,87.61423219953264L120.974,87.78068140574862L121.13640000000001,87.6344882420131L121.212,87.24341399329047L121.2708,87.47256047385078L121.41640000000001,87.52512972695486L121.47800000000001,87.72533900397163L121.4836,87.78972428185598L121.576,88.19822113854543L121.6628,88.22981091908045L121.6684,88.24638952527727L121.73559999999999,88.53148126602171L121.7384,88.59827797753469L121.8028,88.76918833596365L122.1164,89.27625254222323L122.164,89.167738028935L122.35719999999999,88.92599180766513L122.4468,89.07073811122348L122.6932,89.46072721481322L122.8304,89.77071700777324L122.948,89.8431805883135L122.96199999999999,89.78464303697857L123.2168,89.87109293256485L123.2588,89.9466310909816L123.2756,90.10060112816946L123.29520000000001,89.94204936708721L123.536,89.93692507062637L123.6004,90.09402997153144L124.0932,89.57111058916362L124.1828,89.45934064047675L124.2556,89.35311698913573L124.35919999999999,89.7593832697187L124.3872,89.59697321483065L124.66999999999999,89.35311698913573L124.6756,89.42594228472026L124.7876,89.52595649446758L124.9248,89.45096090861728L125.2524,89.66835165023802L125.4064,89.11131048202513L125.42880000000001,89.16972746167862L125.482,89.14681884220667L125.50999999999999,89.13355595724921L125.5184,89.1100444793701L125.5324,89.00677483422415L125.77319999999999,89.40279252188544L125.9244,89.72170461927139L126.1988,133.75505539349146L126.2968,106.70054851259502L126.49,97.68021930967056L126.6608,88.59857940673827L126.6636,88.9381695474897L126.9128,94.33471686499458L127.23479999999999,93.31395700999667L127.27680000000001,91.61691059385025L127.7724,91.4414185115269L127.79199999999999,92.32394293376376L127.88719999999999,92.41334683554511L128.114,91.82827275139944L128.2148,92.43691859926494L128.31,91.57061106818061L128.4584,92.46115350723265L128.6488,94.23627008710586L128.6572,94.7269365446908L128.6908,93.09343140465872L128.7916,93.28743124008177L128.98760000000001,94.54680245263235L128.9988,93.88836050033568L129.1584,94.13631616319927L129.528,94.89326517922537L129.72119999999998,95.49190357753207L129.9172,96.30853557586669L130.21959999999999,94.99315881729125L130.2728,95.4897332872663L130.56119999999999,95.0245074544634L130.9112,92.49280357360838L131.236,93.88106591360908L131.9472,93.64287655694143L132.1292,94.46620028359548L132.4316,94.39271184376307L132.4484,94.63174520220073L132.552,94.19949572426931L132.8656,94.50460236413137L133.4788,95.15568944386072L133.4872,95.31496463503154L133.6748,95.8722469466073L134.0584,96.05274275371005L134.0808,96.057203905923L134.246,94.99255595888408L134.2992,95.18601322174071L134.4616,95.0245074544634L134.6884,94.27684245790752L134.73600000000002,94.28817619596207L134.9292,93.84706469944544L135.1532,94.29034648622783L135.15879999999999,94.15578848975044L135.4164,94.1225709915161L135.54240000000001,94.20877974373953L135.7776,94.6389192172459L136.1836,94.81664187567573L136.2004,94.69365876061575L136.22,94.84979908806936L136.2424,94.60570171901156L136.4244,94.69492476327078L136.4888,94.69787876946585L136.7212,94.88488544736587L136.7296,94.69938591548373L136.7548,94.62740462166921L136.962,94.4385893685477L137.2112,95.29766259874614L137.3456,94.741947719029L137.3988,94.89127574648174L137.4576,94.49586091722759L137.5164,94.60708829334803L137.606,94.71795395442416L137.6396,94.47982488359722L137.998,94.6627321243286L138.0456,94.74574572699409L138.0596,94.87355170931133L138.09879999999998,94.80868414470126L138.1016,94.84780965532573L138.16039999999998,94.9853216579982L138.2052,94.83683763231548L138.3004,94.97151620047431L138.3144,95.12253223146709L138.6168,96.01150723866053L138.656,96.03302928379603L138.8324,96.35839196613856L138.9248,96.2947301183428L138.98080000000002,96.3401253564017L139.048,96.67314434051512L139.0592,96.51959630421229L139.0984,96.58319786616732L139.18519999999998,96.80667747770035L139.2104,96.79040030070712L139.3196,97.18430798394338L139.4904,96.94901234763007L139.65279999999998,96.93593032019477L139.86839999999998,96.9018085343497L139.8796,96.99941131046839L139.9552,96.99543244498115L140.2996,97.56790678841726L140.7924,98.10342591149465L140.83720000000002,98.11506107875277L140.98559999999998,97.96127189908707L141.17880000000002,97.8587256840297L141.26559999999998,97.74725716454641L141.288,97.80501099995203L141.5036,97.75768661499022L141.52880000000002,97.71536595480781L141.6548,97.76130376543315L141.8452,97.28980820519583L142.76360000000003,98.26384653363907L143.1556,98.73841667175292L143.2144,98.94091681071689L143.29840000000002,99.39420604705809L143.3348,99.2446971620832L143.3796,99.45274359839301L143.3992,99.58754273823328L143.64000000000001,99.46070132936748L143.766,99.56716612407138L143.8192,99.65138544355119L143.9032,99.8117457798549L143.91719999999998,99.81265006746563L144.2644,100.30639110292705L144.648,100.30916425159998L144.7096,100.15911279405864L144.73760000000001,100.11799785069056L144.8356,100.26648187637328L144.96159999999998,100.36149236134119L144.9924,100.42129591533114L145.1156,100.59196513039724L145.45440000000002,100.43178565161567L145.45999999999998,100.47060973303657L145.6224,100.1961885860988L145.63920000000002,100.18835142680575L145.67,100.12143414361135L145.7372,100.04661941528319L145.7652,100.11811842237199L145.8688,100.35763406753539L145.9304,100.54162645339964L145.9444,100.57683338437761L146.0788,100.7471408843994L146.286,100.87006371361868L146.3056,100.9658579145159L146.412,100.75968033926826L146.97760000000002,100.96832963398523L147.1652,101.36311146191187L147.3416,101.56760103361945L147.3836,101.54906313759939L147.66639999999998,101.430511031832L147.6748,101.45426365307398L147.8652,101.38873294421603L148.1984,101.5748654774257L148.3244,101.79310022081646L148.5736,101.74978484426225L148.8928,101.20694099153789L148.96,101.03349862779888L148.9824,101.0720212800162L149.15599999999998,101.14346000126429L149.40240000000003,101.50041246414183L149.5368,101.49130930219377L149.7132,101.38502536501201L149.74400000000003,101.41016456059046L149.9148,101.46273381369453L150.374,101.59846738406588L150.6092,101.69857202257427L150.6876,101.60766097477503L150.9452,101.52657651901244L150.9676,101.5820093495505L151.0684,101.53543853759764L151.284,101.8148031234741L151.3092,101.80407224382671L151.6844,101.3098187787192L151.9056,101.4320181778499L152.38719999999998,101.47536369732447L152.4572,101.33833398137773L152.50199999999998,101.36932090350558L152.89679999999998,101.70026002611431L152.9388,101.86827666418891L153.0256,101.88533755711146L153.314,102.07110837527682L153.4484,102.0679132257189L153.59120000000001,102.20901223591395L153.69480000000001,102.18589261599948L153.84879999999998,102.24678131512232L153.8544,102.28259110450743L153.8992,102.37422558239527L153.91039999999998,102.34462523460387L154.05319999999998,102.48903996603828L154.66920000000002,102.90169654573711L154.6916,102.86015960148401L154.7028,102.7570708138602L154.854,103.11568113735743L155.13400000000001,103.26672731127056L155.6212,103.3514289174761L155.834,103.683392899377L155.9264,103.64010766574313L155.988,103.93357913834707L156.0636,103.95392560958861L156.94,104.96600430352346L157.3012,105.1926187787737L157.3684,105.15497027124675L157.5532,105.1953316416059L157.6428,105.3308240686144L157.78,105.5313046319144L157.7912,105.51095816067286L158.02919999999997,105.57332386289323L158.94480000000001,106.07481162888662L159.09040000000002,106.10082496915544L159.0988,106.09199309349059L159.14079999999998,106.1854964324406L159.6308,106.60460359709602L159.8212,106.76746579578943L159.8716,106.73280143737792L160.1992,106.87793959890092L160.2132,106.83450365066527L160.272,106.8286860670362L160.2748,106.80405930110385L160.286,106.84891196659632L160.4008,106.74636575153895L160.45399999999998,106.86238585199627L160.524,106.7327411515372L160.78719999999998,106.62986336435588L160.874,106.7534794807434L160.8796,106.68463305064608L161.056,106.66323157719202L161.0644,106.67456531524657L161.3304,106.8655810015542L161.43679999999998,106.86681686128887L161.4396,106.85744241305758L161.71679999999998,107.00348486219133L161.83440000000002,106.93831586837767L162.1172,107.25430410248892L162.2656,107.06244441441126L162.37480000000002,107.10226321220397L162.43359999999998,107.18401081221442L162.708,107.37116820471626L162.71640000000002,107.30437149320329L162.7836,107.44848479543413L162.86479999999997,107.42846989631651L163.05519999999999,107.58295236315044L163.0804,107.50204876491L163.786,107.6371794768742L163.8364,107.56206331934246L164.1164,107.73285310608999L164.1304,107.77071261405943L164.1332,107.77514362335204L164.19760000000002,107.64308748926433L164.6512,108.00676182338168L164.6652,108.06231522560118L164.72959999999998,108.08694199153354L164.836,107.94735012735637L164.9592,107.8098381246839L165.0796,107.85270135743276L165.2112,107.875127690179L165.4184,107.84926506451197L165.4968,107.8132744176047L165.5808,107.76712560653685L165.7516,107.9879526410784L165.774,107.8945698738098L165.78240000000002,107.92115592956542L165.9504,107.99404151099067L165.9924,108.00013038090296L166.0932,108.12172692162649L166.2164,108.2173101220812L166.2752,108.20320323535373L166.3312,108.20410752296446L166.5468,108.30083615439277L166.7008,108.28350397518702L166.7204,108.30535759244646L166.9612,108.41519839423042L166.96400000000003,108.40585408891948L167.21599999999998,108.43641901016234L167.37279999999998,108.50077414512633L167.46239999999997,108.58803789956228L167.86,108.67747194426398L167.9048,108.6650229181562L167.96079999999998,108.70243028232028L167.9664,108.7375166416168L168.1008,108.68901668276104L168.17919999999998,108.79334133011953L168.2212,108.8608614717211L168.3696,108.93917277881076L168.91559999999998,109.00081505094255L169.106,109.04777772086005L169.1648,109.00132748058863L169.2264,109.10800327573503L169.3328,109.18932887486048L169.3664,109.1909565925598L169.5148,109.33558232443671L169.69680000000002,109.3835698536464L170.04399999999998,109.51080312047685L170.24839999999998,109.56304080145698L170.3408,109.61937791960578L170.39960000000002,109.71276068687438L170.5732,109.73160001209803L170.6208,109.82043119839258L170.66559999999998,109.8047568798065L170.68800000000002,109.80638459750583L170.78879999999998,109.84801197052L170.898,109.84921768733432L170.996,109.85633141653877L171.2172,110.08984862055095L171.3824,110.25388639313833L171.4076,110.16508534976413L171.514,110.1698177882603L171.5448,110.18214624268667L171.60920000000002,110.23736807278223L171.70159999999998,110.21222887720378L171.70440000000002,110.199779851096L171.7352,110.21599674224852L171.86960000000002,110.27917630331855L171.8724,110.28990718296595L172.0404,110.30069834845405L172.1384,110.40710285731723L172.4184,110.7593228816986L172.5416,110.74654228346687L172.63400000000001,110.80981227329798L172.6788,110.85044492994035L172.6984,110.93379010472978L173.3256,111.28492498397826L173.41799999999998,111.21062268529619L173.47119999999998,111.19579236848013L173.5216,111.18653849193026L173.6056,111.2632220813206L173.7288,111.36215114593504L173.74,111.33725309371947L173.88,111.32109648840766L173.9024,111.31841376849582L174.132,111.34391467911856L174.1852,111.33863966805593L174.2748,111.40540623664855L174.43439999999998,111.52308419772555L174.5828,111.41378596850802L174.7312,111.41571511541093L174.8264,111.45945249285015L175.0252,111.58376189640589L175.0448,111.58991105215888L175.86520000000002,112.09450353894914L175.92680000000001,112.11102185930523L176.05,112.03581527301242L176.3944,111.96763198716299L176.54840000000002,112.13875334603445L176.5624,112.10719370841979L176.76680000000002,112.06505390575953L176.80599999999998,112.05875403540473L176.87040000000002,112.19304074559892L177.10559999999998,112.30435855048042L177.40800000000002,112.54089004652839L177.7972,112.78073726381572L178.29559999999998,113.18712411608013L178.5112,113.23945222582134L178.584,113.27776387759616L178.766,113.36605249132427L179.1524,113.46793556213376L179.1748,113.46935227939059L179.1888,113.5074529307229L179.19160000000002,113.5201129572732L179.578,113.5387714249747L179.69,113.61443015507288L179.816,113.58709052630832L180.11839999999998,113.64556779180253L180.3256,113.65063180242265L180.33960000000002,113.64867251259938L180.3536,113.65557524136133L180.80159999999998,113.7508268696921L180.96120000000002,113.72345709800717L181.2972,113.77243934358867L181.5884,113.87121769360132L181.59959999999998,113.88879101616993L181.8432,113.82491816793168L181.85999999999999,113.86949954714092L181.88799999999998,113.88071271351404L238.2464,164.0934224469321L238.2632,162.84047167641774L238.37800000000001,172.77223236220223L238.3836,163.66533269201005L238.3892,164.65827063151767L238.40040000000002,165.32889032363892L238.546,156.42765579904827L238.75039999999998,157.51614679609025L238.7672,159.09443010602678L238.8484,156.12667873927523L238.9688,156.3869025707245L238.9744,156.75289790970936L239.0976,153.6752153124128L239.2516,155.70805386134555L239.4112,155.205963236945L239.4392,156.75829349245342L239.59879999999998,158.2582654953003L239.6548,159.9302932875497L239.834,157.49887490272522L240.2876,157.8017509664808L240.52280000000002,159.17207826886857L240.6824,159.67579661096843L240.73000000000002,158.7361513546535L240.84199999999998,158.8674840586526L240.8588,158.2377381665366L241.2396,159.47145775386264L241.2704,158.9661418369838L241.30960000000002,158.64557187897816L241.4496,155.71833259718758L241.5,155.85596517154147L241.7436,156.23003881318226L241.9676,156.69004992076327L242.0348,156.0563553060804L242.41,156.96398878097534L242.69,156.09533010210308L242.8664,157.5536445890154L243.07080000000002,158.56563285418918L243.3172,159.2108119215284L243.4236,159.2739311967577L243.74,158.09959316253662L243.82119999999998,158.51484203338623L243.8296,158.7612302643912L244.03119999999998,159.28912322861805L244.0872,159.14513049806865L244.3056,159.75157591274805L244.3532,159.30748026711598L244.37279999999998,159.43420110430034L244.60240000000002,159.80055815832955L244.6584,159.3355131830488L244.6808,159.69403307778492L244.7732,160.09526549066814L244.9832,160.90876262528553L245.2072,161.7417320864541L245.34720000000002,162.1738609927041L245.4844,163.60471527917042L245.5768,163.29053562028065L245.7168,163.55121159553528L245.74200000000002,163.36387334551128L246.036,164.27135610580444L246.176,163.6178274495261L246.2628,164.21049754960194L246.88719999999998,162.67601190294536L246.99360000000001,162.79733715738567L247.0328,162.94087774412972L247.0748,163.31383609771729L247.0776,163.35570461409432L247.2848,163.57665222031727L247.3716,163.1668893609728L247.51160000000002,163.15603790964397L247.5732,163.05774184635706L247.66840000000002,162.78910814012798L247.8448,162.99697371891565L247.94,163.47727101189747L247.9792,163.52510782650538L248.1192,163.5403300012861L248.15,163.8183080128261L248.1696,164.0923373017992L248.318,164.75331125940593L248.5392,164.53215265274048L248.7044,164.57197145053317L248.9228,164.61483468328203L249.1076,164.52099977220806L249.53879999999998,164.33323952129908L249.6648,164.36630630493164L249.6844,164.08760486330303L250.166,164.3784237589155L250.1688,164.41143025670732L250.4488,164.98381417138233L250.6084,165.5634022440229L250.656,165.52964217322213L250.712,165.63408739226205L250.84640000000002,165.6218795095171L250.8828,165.64861627987452L250.95839999999998,165.74787691661288L251.0984,165.85416085379464L251.20479999999998,165.85841100556507L251.4344,166.12812985692705L251.5324,166.41418617112294L251.6584,166.80336141586304L251.9048,166.49156304768152L251.9384,166.61463659150257L252,166.22708906446184" style="fill: none;" fill="none"></path></g></g></g></g></g></g><g transform="translate(50, 177)" clip-path="url(#clip_1)"><clipPath id="clip_1"><rect width="280" height="23"></rect></clipPath><g><g><line x1="0" y1="0" x2="0" y2="5" style="visibility: inherit;" fill="rgb(0, 0, 0)" stroke="rgb(204, 204, 204)" stroke-width="1px"></line><line x1="28" y1="0" x2="28" y2="5" style="visibility: inherit;" fill="rgb(0, 0, 0)" stroke="rgb(204, 204, 204)" stroke-width="1px"></line><line x1="56" y1="0" x2="56" y2="5" style="visibility: inherit;" fill="rgb(0, 0, 0)" stroke="rgb(204, 204, 204)" stroke-width="1px"></line><line x1="84" y1="0" x2="84" y2="5" style="visibility: inherit;" fill="rgb(0, 0, 0)" stroke="rgb(204, 204, 204)" stroke-width="1px"></line><line x1="112" y1="0" x2="112" y2="5" style="visibility: inherit;" fill="rgb(0, 0, 0)" stroke="rgb(204, 204, 204)" stroke-width="1px"></line><line x1="140" y1="0" x2="140" y2="5" style="visibility: inherit;" fill="rgb(0, 0, 0)" stroke="rgb(204, 204, 204)" stroke-width="1px"></line><line x1="168" y1="0" x2="168" y2="5" style="visibility: inherit;" fill="rgb(0, 0, 0)" stroke="rgb(204, 204, 204)" stroke-width="1px"></line><line x1="196" y1="0" x2="196" y2="5" style="visibility: inherit;" fill="rgb(0, 0, 0)" stroke="rgb(204, 204, 204)" stroke-width="1px"></line><line x1="224" y1="0" x2="224" y2="5" style="visibility: inherit;" fill="rgb(0, 0, 0)" stroke="rgb(204, 204, 204)" stroke-width="1px"></line><line x1="252" y1="0" x2="252" y2="5" style="visibility: inherit;" fill="rgb(0, 0, 0)" stroke="rgb(204, 204, 204)" stroke-width="1px"></line><line x1="280" y1="0" x2="280" y2="5" style="visibility: inherit;" fill="rgb(0, 0, 0)" stroke="rgb(204, 204, 204)" stroke-width="1px"></line></g><g transform="translate(0, 8)"><text x="0" y="0" dx="0em" dy="0.95em" style="text-anchor: middle; visibility: hidden; font-family: &quot;Helvetica Neue&quot;, sans-serif; font-size: 12px; font-weight: 200;" fill="rgb(33, 33, 33)" stroke="none" stroke-width="1px">10k</text><text x="28" y="0" dx="0em" dy="0.95em" style="text-anchor: middle; visibility: inherit; font-family: &quot;Helvetica Neue&quot;, sans-serif; font-size: 12px; font-weight: 200;" fill="rgb(33, 33, 33)" stroke="none" stroke-width="1px">20k</text><text x="56" y="0" dx="0em" dy="0.95em" style="text-anchor: middle; visibility: hidden; font-family: &quot;Helvetica Neue&quot;, sans-serif; font-size: 12px; font-weight: 200;" fill="rgb(33, 33, 33)" stroke="none" stroke-width="1px">30k</text><text x="84" y="0" dx="0em" dy="0.95em" style="text-anchor: middle; visibility: inherit; font-family: &quot;Helvetica Neue&quot;, sans-serif; font-size: 12px; font-weight: 200;" fill="rgb(33, 33, 33)" stroke="none" stroke-width="1px">40k</text><text x="112" y="0" dx="0em" dy="0.95em" style="text-anchor: middle; visibility: hidden; font-family: &quot;Helvetica Neue&quot;, sans-serif; font-size: 12px; font-weight: 200;" fill="rgb(33, 33, 33)" stroke="none" stroke-width="1px">50k</text><text x="140" y="0" dx="0em" dy="0.95em" style="text-anchor: middle; visibility: inherit; font-family: &quot;Helvetica Neue&quot;, sans-serif; font-size: 12px; font-weight: 200;" fill="rgb(33, 33, 33)" stroke="none" stroke-width="1px">60k</text><text x="168" y="0" dx="0em" dy="0.95em" style="text-anchor: middle; visibility: hidden; font-family: &quot;Helvetica Neue&quot;, sans-serif; font-size: 12px; font-weight: 200;" fill="rgb(33, 33, 33)" stroke="none" stroke-width="1px">70k</text><text x="196" y="0" dx="0em" dy="0.95em" style="text-anchor: middle; visibility: inherit; font-family: &quot;Helvetica Neue&quot;, sans-serif; font-size: 12px; font-weight: 200;" fill="rgb(33, 33, 33)" stroke="none" stroke-width="1px">80k</text><text x="224" y="0" dx="0em" dy="0.95em" style="text-anchor: middle; visibility: hidden; font-family: &quot;Helvetica Neue&quot;, sans-serif; font-size: 12px; font-weight: 200;" fill="rgb(33, 33, 33)" stroke="none" stroke-width="1px">90k</text><text x="252" y="0" dx="0em" dy="0.95em" style="text-anchor: middle; visibility: inherit; font-family: &quot;Helvetica Neue&quot;, sans-serif; font-size: 12px; font-weight: 200;" fill="rgb(33, 33, 33)" stroke="none" stroke-width="1px">100k</text><text x="280" y="0" dx="0em" dy="0.95em" style="text-anchor: middle; visibility: hidden; font-family: &quot;Helvetica Neue&quot;, sans-serif; font-size: 12px; font-weight: 200;" fill="rgb(33, 33, 33)" stroke="none" stroke-width="1px">110k</text></g><line x1="0" y1="0" x2="280" y2="0" fill="rgb(0, 0, 0)" stroke="rgb(204, 204, 204)" stroke-width="1px"></line></g></g></g></g></svg>