<svg viewBox="0 0 330 200" xmlns="http://www.w3.org/2000/svg"><g><g><g><g><g><line x1="50" y1="177" x2="45" y2="177" style="visibility: inherit;" fill="rgb(0, 0, 0)" stroke="rgb(204, 204, 204)" stroke-width="1px"></line><line x1="50" y1="154.87500000000003" x2="45" y2="154.87500000000003" style="visibility: inherit;" fill="rgb(0, 0, 0)" stroke="rgb(204, 204, 204)" stroke-width="1px"></line><line x1="50" y1="132.75" x2="45" y2="132.75" style="visibility: inherit;" fill="rgb(0, 0, 0)" stroke="rgb(204, 204, 204)" stroke-width="1px"></line><line x1="50" y1="110.62499999999999" x2="45" y2="110.62499999999999" style="visibility: inherit;" fill="rgb(0, 0, 0)" stroke="rgb(204, 204, 204)" stroke-width="1px"></line><line x1="50" y1="88.49999999999999" x2="45" y2="88.49999999999999" style="visibility: inherit;" fill="rgb(0, 0, 0)" stroke="rgb(204, 204, 204)" stroke-width="1px"></line><line x1="50" y1="66.37500000000006" x2="45" y2="66.37500000000006" style="visibility: inherit;" fill="rgb(0, 0, 0)" stroke="rgb(204, 204, 204)" stroke-width="1px"></line><line x1="50" y1="44.25000000000003" x2="45" y2="44.25000000000003" style="visibility: inherit;" fill="rgb(0, 0, 0)" stroke="rgb(204, 204, 204)" stroke-width="1px"></line><line x1="50" y1="22.12500000000003" x2="45" y2="22.12500000000003" style="visibility: inherit;" fill="rgb(0, 0, 0)" stroke="rgb(204, 204, 204)" stroke-width="1px"></line><line x1="50" y1="0" x2="45" y2="0" style="visibility: inherit;" fill="rgb(0, 0, 0)" stroke="rgb(204, 204, 204)" stroke-width="1px"></line></g><g transform="translate(40, 0)"><text x="0" y="177" dx="0em" dy="0.3em" style="text-anchor: end; visibility: hidden; font-family: &quot;Helvetica Neue&quot;, sans-serif; font-size: 12px; font-weight: 200;" fill="rgb(33, 33, 33)" stroke="none" stroke-width="1px">0.9</text><text x="0" y="154.87500000000003" dx="0em" dy="0.3em" style="text-anchor: end; visibility: inherit; font-family: &quot;Helvetica Neue&quot;, sans-serif; font-size: 12px; font-weight: 200;" fill="rgb(33, 33, 33)" stroke="none" stroke-width="1px">0.95</text><text x="0" y="132.75" dx="0em" dy="0.3em" style="text-anchor: end; visibility: hidden; font-family: &quot;Helvetica Neue&quot;, sans-serif; font-size: 12px; font-weight: 200;" fill="rgb(33, 33, 33)" stroke="none" stroke-width="1px">1</text><text x="0" y="110.62499999999999" dx="0em" dy="0.3em" style="text-anchor: end; visibility: inherit; font-family: &quot;Helvetica Neue&quot;, sans-serif; font-size: 12px; font-weight: 200;" fill="rgb(33, 33, 33)" stroke="none" stroke-width="1px">1.05</text><text x="0" y="88.49999999999999" dx="0em" dy="0.3em" style="text-anchor: end; visibility: hidden; font-family: &quot;Helvetica Neue&quot;, sans-serif; font-size: 12px; font-weight: 200;" fill="rgb(33, 33, 33)" stroke="none" stroke-width="1px">1.1</text><text x="0" y="66.37500000000006" dx="0em" dy="0.3em" style="text-anchor: end; visibility: inherit; font-family: &quot;Helvetica Neue&quot;, sans-serif; font-size: 12px; font-weight: 200;" fill="rgb(33, 33, 33)" stroke="none" stroke-width="1px">1.15</text><text x="0" y="44.25000000000003" dx="0em" dy="0.3em" style="text-anchor: end; visibility: hidden; font-family: &quot;Helvetica Neue&quot;, sans-serif; font-size: 12px; font-weight: 200;" fill="rgb(33, 33, 33)" stroke="none" stroke-width="1px">1.2</text><text x="0" y="22.12500000000003" dx="0em" dy="0.3em" style="text-anchor: end; visibility: inherit; font-family: &quot;Helvetica Neue&quot;, sans-serif; font-size: 12px; font-weight: 200;" fill="rgb(33, 33, 33)" stroke="none" stroke-width="1px">1.25</text><text x="0" y="0" dx="0em" dy="0.3em" style="text-anchor: end; visibility: hidden; font-family: &quot;Helvetica Neue&quot;, sans-serif; font-size: 12px; font-weight: 200;" fill="rgb(33, 33, 33)" stroke="none" stroke-width="1px">1.3</text></g><line x1="50" y1="0" x2="50" y2="177" fill="rgb(0, 0, 0)" stroke="rgb(204, 204, 204)" stroke-width="1px"></line></g></g><g transform="translate(50, 0)" clip-path="url(#clip_0)"><clipPath id="clip_0"><rect width="280" height="177"></rect></clipPath><g><g><g><line x1="0" y1="0" x2="0" y2="177" fill="rgb(0, 0, 0)" stroke="rgb(66, 66, 66)" stroke-width="1px" opacity="0.25"></line><line x1="28" y1="0" x2="28" y2="177" fill="rgb(0, 0, 0)" stroke="rgb(66, 66, 66)" stroke-width="1px" opacity="0.25"></line><line x1="56" y1="0" x2="56" y2="177" fill="rgb(0, 0, 0)" stroke="rgb(66, 66, 66)" stroke-width="1px" opacity="0.25"></line><line x1="84" y1="0" x2="84" y2="177" fill="rgb(0, 0, 0)" stroke="rgb(66, 66, 66)" stroke-width="1px" opacity="0.25"></line><line x1="112" y1="0" x2="112" y2="177" fill="rgb(0, 0, 0)" stroke="rgb(66, 66, 66)" stroke-width="1px" opacity="0.25"></line><line x1="140" y1="0" x2="140" y2="177" fill="rgb(0, 0, 0)" stroke="rgb(66, 66, 66)" stroke-width="1px" opacity="0.25"></line><line x1="168" y1="0" x2="168" y2="177" fill="rgb(0, 0, 0)" stroke="rgb(66, 66, 66)" stroke-width="1px" opacity="0.25"></line><line x1="196" y1="0" x2="196" y2="177" fill="rgb(0, 0, 0)" stroke="rgb(66, 66, 66)" stroke-width="1px" opacity="0.25"></line><line x1="224" y1="0" x2="224" y2="177" fill="rgb(0, 0, 0)" stroke="rgb(66, 66, 66)" stroke-width="1px" opacity="0.25"></line><line x1="252" y1="0" x2="252" y2="177" fill="rgb(0, 0, 0)" stroke="rgb(66, 66, 66)" stroke-width="1px" opacity="0.25"></line><line x1="280" y1="0" x2="280" y2="177" fill="rgb(0, 0, 0)" stroke="rgb(66, 66, 66)" stroke-width="1px" opacity="0.25"></line></g><g><line x1="0" y1="177" x2="280" y2="177" fill="rgb(0, 0, 0)" stroke="rgb(66, 66, 66)" stroke-width="1px" opacity="0.25"></line><line x1="0" y1="154.87500000000003" x2="280" y2="154.87500000000003" fill="rgb(0, 0, 0)" stroke="rgb(66, 66, 66)" stroke-width="1px" opacity="0.25"></line><line x1="0" y1="132.75" x2="280" y2="132.75" fill="rgb(0, 0, 0)" stroke="rgb(66, 66, 66)" stroke-width="1px" opacity="0.25"></line><line x1="0" y1="110.62499999999999" x2="280" y2="110.62499999999999" fill="rgb(0, 0, 0)" stroke="rgb(66, 66, 66)" stroke-width="1px" opacity="0.25"></line><line x1="0" y1="88.49999999999999" x2="280" y2="88.49999999999999" fill="rgb(0, 0, 0)" stroke="rgb(66, 66, 66)" stroke-width="1px" opacity="0.25"></line><line x1="0" y1="66.37500000000006" x2="280" y2="66.37500000000006" fill="rgb(0, 0, 0)" stroke="rgb(66, 66, 66)" stroke-width="1px" opacity="0.25"></line><line x1="0" y1="44.25000000000003" x2="280" y2="44.25000000000003" fill="rgb(0, 0, 0)" stroke="rgb(66, 66, 66)" stroke-width="1px" opacity="0.25"></line><line x1="0" y1="22.12500000000003" x2="280" y2="22.12500000000003" fill="rgb(0, 0, 0)" stroke="rgb(66, 66, 66)" stroke-width="1px" opacity="0.25"></line><line x1="0" y1="0" x2="280" y2="0" fill="rgb(0, 0, 0)" stroke="rgb(66, 66, 66)" stroke-width="1px" opacity="0.25"></line></g></g></g><g><g><line x1="0" y1="575.25" x2="280" y2="575.25" fill="rgb(0, 0, 0)" stroke="rgb(153, 153, 153)" stroke-width="1.5px"></line></g></g><g><g><line x1="-28" y1="0" x2="-28" y2="177" fill="rgb(0, 0, 0)" stroke="rgb(153, 153, 153)" stroke-width="1.5px"></line></g></g><g><g><g><g><g><path stroke="rgb(255, 112, 67)" stroke-width="2px" d="M14.126000000000001,72.75376492738725L14.1708,83.08517081290485L14.305200000000001,105.26383035158626L14.406,115.15997254629349L14.4088,120.37999447309497L14.425600000000001,122.62590636245736L14.5488,120.75653600807188L14.655199999999999,114.22127284272796L14.7448,113.31728355651038L15.106,110.27692933543771L15.148000000000001,107.82233663016997L15.282399999999999,104.26857696914185L15.5428,107.47746504060645L15.8172,111.34079168334436L15.9376,113.65866463822238L16.1112,110.78952133552555L16.2092,108.69468180047163L16.3212,107.5225404004309L16.3464,106.48109853247063L16.3716,106.07230417983617L16.615199999999998,106.03572114954206L16.828,105.85231218122081L16.8504,105.7877392996965L16.9316,105.71247154748855L17.2452,104.3003197712107L17.5308,102.98273158636852L17.793999999999997,102.08870539099615L17.9172,101.43853985098261L17.956400000000002,100.92127076894859L17.9928,100.50091488671187L18.135599999999997,99.88641360900844L18.158,99.42023068235746L18.230800000000002,98.93382490676414L18.27,98.95974813179001L18.648000000000003,101.22448242192029L19.0092,103.83544180990911L19.0736,105.70170135581118L19.0764,106.85844545366906L19.2724,108.08296812331828L19.2864,108.86735122759386L19.3676,109.11883602972675L19.39,108.75969664100916L19.717599999999997,106.25988001658328L19.7204,104.79562801713502L19.9388,104.33561729542447L19.9892,104.35104467363473L20.02,104.38405975038721L20.0956,104.322401525585L20.258,104.79944586874188L20.3336,105.098395801315L20.610799999999998,105.2425708870473L20.8852,105.98889542224528L20.901999999999997,106.42829232575083L21.3304,105.52142661310093L21.520799999999998,105.67833505569018L21.8652,105.56886469422645L21.98,105.694201177948L22.0444,105.37016913091729L22.0724,105.3481794643139L22.1928,105.82971840189312L22.483999999999998,106.33829322508822L22.595999999999997,106.89032973678023L22.7108,107.53895960945562L22.8116,107.74796425520583L22.9236,108.02047655117038L22.948800000000002,108.08650172431184L23.735599999999998,106.87912531303716L23.8056,105.96840717558469L23.9176,105.13320108750116L23.9876,104.32213888465543L24.2228,103.4681708925913L24.4356,103.40313213550748L24.696,103.79467638423257L24.7688,104.22294263893498L24.8948,104.8075438788779L25.2,105.21694164581585L25.284000000000002,105.69316158954797L25.368,106.15661922850904L25.3792,106.44982254361332L25.432399999999998,106.79591638955598L25.4772,107.13086926408486L25.502399999999998,107.37752258460446L25.564,107.66120896149113L25.575200000000002,107.89050091152454L25.648,108.23150160816357L25.6928,108.5514981681528L25.858,108.76065044012205L25.956000000000003,108.85902824644174L25.9784,108.86059950973944L26.0904,108.9747862052104L26.278000000000002,109.20458696074378L26.3172,109.34054731003692L26.392799999999998,109.55134019060286L26.4404,109.8160423088273L26.6084,110.47771983433968L26.7512,111.15514593773602L26.975199999999997,111.1881308165402L27.031200000000002,111.1997982267863L27.1488,111.38887095477142L27.288800000000002,111.69326999202936L27.297199999999997,111.90825578222022L27.3448,112.16156871705856L27.4232,112.22525279277323L27.5352,112.36609385343642L27.7284,112.30602098663003L27.739600000000003,112.29090851044269L28.058799999999998,112.74494479594003L28.0868,113.05431274472105L28.4844,113.41343917786133L28.8008,114.29424163305195L28.9156,115.08364625336786L29.162000000000003,115.77704598642622L29.3048,116.3501967557504L29.3776,116.79971403886289L30.175600000000003,118.0769726217354L30.2092,118.82258642796069L30.2428,119.2310040300094L30.3072,119.32153896719231L30.323999999999998,119.38659985202555L30.497600000000002,119.77121290766001L30.5732,120.24001034023046L30.6544,120.59081344557808L30.8616,120.95929244013433L31.337600000000002,121.91932448656445L31.415999999999997,122.63365450448441L31.477600000000002,123.17486345140132L31.491600000000002,123.5779121838092L31.6232,124.01291232836724L31.8528,123.97574768979834L31.9536,123.86763502669035L32.379200000000004,124.17252460427109L32.4212,124.37202188555617L32.4688,124.50007587185036L32.956,124.76180795139393L33.059599999999996,125.02719592634631L33.222,124.96046833743924L33.4152,125.0385076317207L33.644800000000004,125.31378138738965L33.9976,125.97542968200497L34.0452,126.31278993372233L34.1544,126.38767741730271L34.538000000000004,126.66228388911759L34.6864,127.01553446749617L34.8292,127.46635841548303L34.9384,127.78882219326408L35.366800000000005,128.11706644256066L35.4704,128.38033043121783L35.4928,128.49923264250447L35.7448,128.55061332741556L35.7812,128.6052847883652L35.8568,128.6538915980786L35.882,128.69054619961557L35.898799999999994,128.73302710350507L35.924,128.8002304333219L36.069599999999994,129.10476718531663L36.1032,129.29717415682444L36.108799999999995,129.40711122817976L36.1144,129.47720907966604L36.1592,129.51534318232723L36.3664,129.8549775082123L36.394400000000005,130.1187455295474L36.461600000000004,130.2503147863717L36.5876,130.26812951227254L36.6184,130.27297363555564L36.660399999999996,130.29246474430641L36.694,130.36515963748502L36.7584,130.4475162546361L36.800399999999996,130.5481400323227L36.876000000000005,130.6105399031827L36.9404,130.68509480353535L37.1588,130.81456552145687L37.326800000000006,131.0369098555911L37.427600000000005,131.19624841045544L37.6824,131.42229201693058L37.9428,131.72135912358L38.3152,131.60824727403664L38.550399999999996,131.22888021104066L39.0068,131.02951293249444L39.0684,130.92502129709425L39.0852,130.83799796483345L39.205600000000004,130.8566801141586L39.443599999999996,130.81712269728703L39.564,130.60540795293647L39.858000000000004,130.43683311919688L40.0092,130.44374154555993L40.233200000000004,130.3889963778746L40.437599999999996,130.2392972322041L40.446,130.15110244820917L40.499199999999995,130.09875527900698L40.6364,130.0553621523514L40.754000000000005,130.0583177371583L40.8212,130.1003077723838L40.9304,130.08344940532785L40.9836,130.08485500925508L41.0368,130.12604165621832L41.042399999999994,130.1548470529808L41.0928,130.20472985940532L41.1992,130.32083212397907L41.445600000000006,130.397794098034L41.5184,130.5122299256173L41.5268,130.600071362391L41.563199999999995,130.66391704781938L41.6976,130.79023274364522L41.8404,130.94105391849547L84.07000000000001,114.91284301966115L84.13440000000001,132.1455961888413L84.3024,152.0999896541465L84.434,148.48535839409996L84.504,140.85855734164335L84.5628,134.14903013595833L85.01920000000001,140.7661444824272L85.2096,146.57922765501343L85.5428,146.52541403107645L85.57079999999999,146.37248635371208L85.5904,146.023773408411L85.6492,145.9604313471783L85.8088,146.3734712063592L86.0804,145.75135084744224L86.22319999999999,147.13908832523782L86.29599999999999,147.48228363545869L86.33239999999999,147.29610924930648L86.3828,147.7624508798795L86.604,147.88803563479644L86.9708,149.66325880267658L87.0492,150.07809988962674L87.13040000000001,150.83113734905166L87.1444,151.09738493552354L87.346,150.23179793709846L87.5616,150.25818783256014L87.85,151.22248985894086L87.9564,151.59041878299448L87.9592,151.77463086078484L88.1132,151.75606803673458L88.1384,151.59507782803746L88.3456,149.98640178171857L88.4548,149.2083007963184L88.87480000000001,149.54508814046878L88.95599999999999,149.6283356477624L89.0232,148.74876390277183L89.0904,147.83128193842668L89.2332,147.51387439863262L89.278,146.91682147202715L89.3228,146.43470080624718L89.3788,146.37195848185235L89.6644,144.28249203418738L89.6924,142.8605498627129L90.006,141.1429579469742L90.11800000000001,140.3826838143576L90.2244,140.32183921384274L90.4512,140.44800324468292L90.5772,140.86862408654974L90.5968,141.10093044958762L90.7536,141.59570231272133L90.8068,142.06244188686222L91.0924,143.00171431386477L91.11200000000001,143.63404281427864L91.1876,143.87396862203127L91.56559999999999,144.05329833086876L91.7924,144.17164662871687L91.87639999999999,144.4432326280709L91.96600000000001,144.4742773010514L91.98559999999999,144.52513442243233L92.0528,144.45487488392052L92.10879999999999,144.2176176016513L92.3776,144.91107818514013L92.41959999999999,145.41878147739115L92.4252,145.72494375597205L92.47,145.96127518350343L92.7248,146.1772512455849L92.988,146.0069630539458L93.016,145.92961434102304L93.1532,146.02651661381873L93.32119999999999,145.97150899020286L93.9316,146.21543194679884L93.982,146.4282719601898L94.2732,146.8496463841026L94.31240000000001,147.16735367452054L94.3964,147.27307147070732L94.4692,147.52034683397392L94.5196,147.8204635701834L94.5616,148.1303094340717L94.69319999999999,148.1985947557304L94.93679999999999,148.53295151400647L95.032,148.54281061892559L95.03479999999999,148.52380692961722L95.1608,148.49996623994656L95.3092,148.70226433039755L95.326,148.86330071783692L95.3596,149.14696389255897L95.4324,149.306274174559L95.438,149.46315597230665L95.5332,149.51285890778587L95.6536,149.86745255017692L95.74040000000001,150.2392608691717L95.8692,150.71855314788013L96.0736,151.1170830977964L96.1184,151.29003132897662L96.4544,151.1133279294851L96.5244,150.98444399184478L96.6224,151.0392210063129L96.81280000000001,150.58668069701133L97.0088,150.23567264473877L97.1964,149.78702766416333L97.2356,149.45274703930534L97.384,148.69991665620043L97.76759999999999,147.5793048235085L97.7788,146.90612537218968L97.78439999999999,146.47580044599675L97.9832,146.17778970678037L98.0672,145.9086856238806L98.2604,145.48675367789048L98.3024,145.13168129656657L98.4396,144.69813185533258L98.476,144.41116293430554L98.4788,144.25513366556305L98.5628,144.19321892080387L98.8204,144.28974940429737L99.06400000000001,144.32193619043L99.11999999999999,144.23891304749472L99.2964,144.05954489003557L99.5036,144.0591016703304L99.5176,144.06446945032218L99.5484,144.07234267807448L99.8844,144.4625960732487L100.00200000000001,144.83997521072547L100.1308,145.00083430570317L100.6516,145.1692903635618L101.1024,145.02064497457246L101.13600000000001,144.9249167274612L101.2984,144.88184890932908L101.34039999999999,144.87529365889472L101.402,144.72323819799567L101.584,144.63483232738582L101.6008,144.59113612462286L101.7548,144.78222775870088L101.794,144.91499712713676L101.8164,145.0271422663219L101.8304,145.09677145474484L102.0236,144.97525572534403L102.30080000000001,145.06601933095453L102.5668,144.940641817174L102.5892,144.90217158599L102.69000000000001,144.78898170830786L102.7432,144.67057537580718L102.7712,144.602918133409L103.0736,144.63474968985983L103.09320000000001,144.61682859609283L103.1912,144.57604002684207L103.4096,144.54276816683924L103.8128,144.70814783953375L103.8912,144.97914055337162L104.00880000000001,145.15873226731807L104.0676,145.26504194265476L104.2412,145.4013485999457L104.2692,145.50850539753156L104.3056,145.55797669499708L104.328,145.57573794847488L104.6388,145.41911354974366L104.7508,145.23102216312563L104.7872,145.12311529153155L104.8684,145.15198151489236L104.8936,145.17043010127628L105.08959999999999,145.22822530109931L105.55160000000001,145.1439298214868L105.5656,145.11630938186377L105.63,145.1117324932464L105.8904,145.17667530203153L105.952,145.18995168342764L106.3244,145.1116816314135L106.48679999999999,145.0753329224631L106.5316,145.02668444080618L106.7864,145.06368619062582L106.8536,145.08370338593772L106.96560000000001,145.00665041634352L107.0048,144.9092404772575L107.0412,144.7769549089512L107.10000000000001,144.67908937918196L107.10560000000001,144.63185903541478L107.36880000000001,144.64813687272212L107.548,144.6749946109494L107.61800000000001,144.65600933027514L107.6292,144.62691522474435L107.8868,144.5834846069535L107.9456,144.49347200215584L108.0296,144.47342496049836L108.1668,144.49564210732245L108.416,144.6385583171813L108.44120000000001,144.67836269674117L108.91159999999999,144.91396316848648L108.92280000000001,145.0856020150331L108.93960000000001,145.21593098030965L109.1048,145.3334060918479L109.25319999999999,145.42450590200357L109.2616,145.48974746028856L109.3652,145.60206734872028L109.5248,145.70892691454983L109.57799999999999,145.8076467266184L109.7712,145.79163585606227L110.14359999999999,145.5627049237669L110.2164,145.3427080410827L110.27799999999999,145.17525128710918L110.38719999999999,145.12990110032948L110.4684,145.17143493242978L110.4964,145.18136365024995L110.4992,145.18706768041108L110.6728,145.17273441127094L110.67840000000001,145.1725955675313L110.8716,145.2782445830267L110.88000000000001,145.3425729442931L110.88279999999999,145.38056860979182L111.0088,145.38022981057037L111.0732,145.3964318154423L111.12920000000001,145.44815265644598L111.4512,145.56284683650142L111.566,145.68581660810358L111.7144,145.78959218396693L111.75359999999999,145.8272232278225L111.986,145.75097979688866L112.18480000000001,118.4444513176932L112.3388,119.80385684103088L112.3836,123.55675291496709L112.40599999999999,127.88759396957275L112.7952,137.35726471237493L113.00800000000001,144.2578901141414L113.3552,147.99409400758321L113.3664,150.0103518208097L113.4028,151.00392600537725L113.49799999999999,152.19378356123798L113.7976,153.18846583357356L113.834,153.05638471836386L114.03,150.8649477696093L114.086,148.06388288352917L114.156,146.0224859453084L114.1616,144.8577407084013L114.254,144.0864571143452L114.37440000000001,143.44230042751218L114.4108,143.6374607852434L114.4248,143.60131792851297L114.436,143.61600869076256L114.5172,142.21077203259946L114.5648,141.34700474444674L114.5788,140.87994362892894L114.58439999999999,140.66357679356446L114.6348,140.5152836036045L114.6964,140.62505955644605L114.7328,140.40059906928633L114.82520000000001,138.9462943594986L114.842,137.95942314394318L114.95400000000001,137.47520604090695L115.02680000000001,137.03203805897715L115.2452,137.16109844812203L115.31519999999999,137.71128117304113L115.3208,137.9192215517823L115.43560000000001,137.97227727864174L115.51679999999999,138.07024880346054L115.7828,136.66198784170388L116.0824,134.2352980974784L116.1104,132.70910550376593L116.1244,131.59555593264588L116.1272,130.98017630060008L116.18599999999999,130.39861877607993L116.19999999999999,130.1239142170411L116.466,131.03966694777384L116.7768,131.11827109876373L116.78800000000001,131.1698856986946L117.0596,130.7480897091261L117.0876,130.51263065233425L117.4656,129.5757569497502L117.50479999999999,129.14968581352682L117.5692,128.90866546245846L117.852,128.08912613637705L117.93879999999999,127.27461406378427L118.1936,126.4044180201797L118.3056,125.71090473457033L118.3672,125.42487853600898L118.57719999999999,125.29750960966534L118.9272,125.36100264728418L119.2492,126.14502723419875L119.50959999999999,127.03510076644547L119.5544,127.77020720745637L119.994,127.7144283300967L119.9968,127.69060372390331L120.0108,127.57091423915612L120.0668,127.47907660631415L120.3468,126.4743876351599L120.9152,125.30109235606693L120.974,124.592473178876L121.13640000000001,124.22655059681684L121.212,124.14733344189142L121.2708,124.12235909623993L121.41640000000001,124.11862081243453L121.47800000000001,123.95470930310404L121.4836,123.7730172227163L121.576,123.63971582355137L121.6628,123.6496000725152L121.6684,123.6147020362688L121.73559999999999,123.3438331903739L121.7384,123.16955915818951L121.8028,122.97017114001714L122.1164,122.25049527071832L122.164,121.84095029582329L122.35719999999999,121.506750825344L122.4468,121.33389330106885L122.6932,121.71858151076981L122.8304,121.81376335214824L122.948,121.94086130375415L122.96199999999999,121.9222753758117L123.2168,121.92986065834069L123.2588,121.93734473400895L123.2756,121.8292875433778L123.29520000000001,121.88411157994358L123.536,121.57132397692735L123.6004,120.98905948758922L124.0932,120.52392485118392L124.1828,120.25718759522724L124.2556,120.19983915702035L124.35919999999999,120.16085138449391L124.3872,120.16611258107021L124.66999999999999,120.602073406682L124.6756,120.88538294762705L124.7876,121.14035965043504L124.9248,121.36388312004928L125.2524,121.5709400547918L125.4064,122.11350369294745L125.42880000000001,122.46754803562317L125.482,122.7543522972116L125.50999999999999,122.91128502239282L125.5184,123.01221777170593L125.5324,123.13109794360216L125.77319999999999,122.84087678850781L125.9244,122.41061065829447L126.1988,94.46081620595842L126.2968,88.58411167944668L126.49,101.41058105757949L126.6608,110.91309067327452L126.6636,116.83410020302934L126.9128,111.22437040585996L127.23479999999999,118.55448255883888L127.27680000000001,122.5793955680563L127.7724,122.7851265404721L127.79199999999999,123.1595923503697L127.88719999999999,124.54015336039424L128.114,126.68093381883358L128.2148,128.3742787513832L128.31,128.5723213954985L128.4584,127.63968957687729L128.6488,126.74039977327168L128.6572,126.0460781665754L128.6908,125.94929857326215L128.7916,125.02855550809308L128.98760000000001,124.25095109679465L128.9988,123.83798256241187L129.1584,122.80466789438077L129.528,121.22004837056257L129.72119999999998,120.269572056891L129.9172,119.61414759013738L130.21959999999999,118.31312680634073L130.2728,117.82443344826822L130.56119999999999,118.60533628604006L130.9112,119.09339552963493L131.236,120.16760791447591L131.9472,119.75466442767878L132.1292,119.17052143015921L132.4316,119.52005069970173L132.4484,119.74584649514603L132.552,119.75885931558278L132.8656,119.97144293729588L133.4788,118.09799151387286L133.4872,116.970713453093L133.6748,116.27854268348145L134.0584,115.75269708988625L134.0808,115.46065298293567L134.246,115.62714173540196L134.2992,115.87764710274169L134.4616,116.45368591598765L134.6884,116.90318472178038L134.73600000000002,117.24340035314113L134.9292,117.61664658662527L135.1532,117.32486704514533L135.15879999999999,117.1090551348097L135.4164,117.10931216070452L135.54240000000001,116.74852901929259L135.7776,116.26693707843802L136.1836,115.86416827523816L136.2004,115.6448730402237L136.22,115.55182458001656L136.2424,115.47255335472983L136.4244,115.72743865384439L136.4888,115.97920244058241L136.7212,115.75577712726758L136.7296,115.59526248378857L136.7548,115.58491527797766L136.962,115.61248812533606L137.2112,115.28037470255612L137.3456,115.15073679491474L137.3988,115.31326245429872L137.4576,115.55529205300064L137.5164,115.78879239736591L137.606,115.99445044147134L137.6396,116.1519640394876L137.998,116.13417776279633L138.0456,116.16173927696337L138.0596,116.14396751351232L138.09879999999998,116.2119443203633L138.1016,116.24146298084412L138.16039999999998,116.25096625991921L138.2052,116.30319382493651L138.3004,116.27644194212535L138.3144,116.245515281242L138.6168,115.85293990032784L138.656,115.6130480626638L138.8324,115.30657931920376L138.9248,114.6178795144349L138.98080000000002,114.24451761516269L139.048,114.01756756944854L139.0592,113.86190110113262L139.0984,113.83380585709835L139.18519999999998,113.86718791603818L139.2104,113.92779253649576L139.3196,113.89452516274375L139.4904,113.99878069899512L139.65279999999998,114.2129167386415L139.86839999999998,113.96066916397353L139.8796,113.80864541775671L139.9552,113.78938232092077L140.2996,113.7982071055652L140.7924,113.32115496478568L140.83720000000002,113.08423448373134L140.98559999999998,113.13073769074236L141.17880000000002,113.1368010691497L141.26559999999998,113.17879897664154L141.288,113.21978055423595L141.5036,113.31659495226204L141.52880000000002,113.42631539935869L141.6548,113.40968869468571L141.8452,113.35869418585901L142.76360000000003,113.3232655704296L143.1556,112.95392097117157L143.2144,112.67975400138883L143.29840000000002,112.49322537332176L143.3348,112.37348008006455L143.3796,112.28998567968394L143.3992,112.20271076148614L143.64000000000001,111.92748714319386L143.766,111.89861705798822L143.8192,111.87070278465104L143.9032,111.82565906130884L143.91719999999998,111.77073856880439L144.2644,111.4288183253418L144.648,111.04878901251617L144.7096,110.74320766215602L144.73760000000001,110.55633514455009L144.8356,110.48307791549597L144.96159999999998,110.37860865115312L144.9924,110.29936355781078L145.1156,109.98808704871844L145.45440000000002,110.04154514705488L145.45999999999998,110.07957021853534L145.6224,110.34731457508333L145.63920000000002,110.49931017086938L145.67,110.65627636626976L145.7372,110.674896825049L145.7652,110.6648213557563L145.8688,110.45248094154373L145.9304,110.25390624375925L145.9444,110.16951319796914L146.0788,110.09032901062416L146.286,109.79704518278746L146.3056,109.59835013842759L146.412,109.39593563733209L146.97760000000002,109.15976599608493L147.1652,108.75771076532982L147.3416,108.39591197402947L147.3836,108.17813639778895L147.66639999999998,108.18639374338983L147.6748,108.1829292330944L147.8652,108.34057786189344L148.1984,108.40381237341654L148.3244,108.4639081267935L148.5736,108.50454428842198L148.8928,108.7241224947604L148.96,108.86730564254718L148.9824,109.0131818569791L149.15599999999998,108.82765191299266L149.40240000000003,108.63849588336079L149.5368,108.61151244700864L149.7132,108.79906441248004L149.74400000000003,108.91746140406453L149.9148,109.05916364721014L150.374,108.96445481617185L150.6092,109.00120821379976L150.6876,108.98753787746045L150.9452,108.94327570003279L150.9676,108.95590117574936L151.0684,109.04382542968511L151.284,109.27785046220252L151.3092,109.42484869551916L151.6844,109.56250613923234L151.9056,109.65508092639067L152.38719999999998,109.54214194534553L152.4572,109.47790226410828L152.50199999999998,109.4589181963861L152.89679999999998,109.40463136579159L152.9388,109.26145283547382L153.0256,109.21439089874826L153.314,109.23033722937352L153.4484,109.31394508302354L153.59120000000001,109.37873212587918L153.69480000000001,109.50489523465684L153.84879999999998,109.42599307570012L153.8544,109.39291541023947L153.8992,109.34542775299488L153.91039999999998,109.3165553578516L154.05319999999998,109.20905033163909L154.66920000000002,108.95726332314418L154.6916,108.81690994052644L154.7028,108.75772256343693L154.854,108.72955295258241L155.13400000000001,108.54617183693333L155.6212,108.28962446026851L155.834,107.99194143279102L155.9264,107.83101345338645L155.988,107.68187535547149L156.0636,107.37942975010236L156.94,106.60941885260205L157.3012,106.01781584231526L157.3684,105.77896757965371L157.5532,105.63844382789785L157.6428,105.53039202706246L157.78,105.32412734995025L157.7912,105.20347025018778L158.02919999999997,104.99213219894078L158.94480000000001,104.58636568315696L159.09040000000002,104.3989052911274L159.0988,104.2841080510421L159.14079999999998,104.20478518508693L159.6308,104.0817588073183L159.8212,103.8794437111717L159.8716,103.77453378804337L160.1992,103.6027960060108L160.2132,103.48529980647967L160.272,103.41201688092002L160.2748,103.37680364394805L160.286,103.37650144544023L160.4008,103.38931775359379L160.45399999999998,103.37559099357166L160.524,103.3819139680913L160.78719999999998,103.4269372392685L160.874,103.49760719352912L160.8796,103.54076876767843L161.056,103.6032531888984L161.0644,103.6252353091063L161.3304,103.4481021820916L161.43679999999998,103.28761629220327L161.4396,103.18748455021667L161.71679999999998,103.14856884940794L161.83440000000002,103.1657315138836L162.1172,102.98773231767768L162.2656,102.89502762951345L162.37480000000002,102.96085667132078L162.43359999999998,103.06080572318275L162.708,102.9636009246781L162.71640000000002,102.90736694995611L162.7836,102.85368702330622L162.86479999999997,102.79596911381745L163.05519999999999,102.62338627881444L163.0804,102.53726521436357L163.786,102.43474146904933L163.8364,102.35316107977854L164.1164,102.22975079005619L164.1304,102.15270840993921L164.1332,102.1112726919139L164.19760000000002,102.04900088264255L164.6512,101.80814897032802L164.6652,101.67562264807363L164.72959999999998,101.55926617745962L164.836,101.53017538049467L164.9592,101.58173914705904L165.0796,101.63664705726615L165.2112,101.64311124785611L165.4184,101.70229297819054L165.4968,101.76852368082005L165.5808,101.78057884434101L165.7516,101.80844778573059L165.774,101.77855915281506L165.78240000000002,101.76604868443803L165.9504,101.71509741230012L165.9924,101.68323954631803L166.0932,101.6027869980926L166.2164,101.51948939570157L166.2752,101.42644564395167L166.3312,101.34973034909382L166.5468,101.28409923107041L166.7008,101.11103067988519L166.7204,101.01738087054707L166.9612,100.843410537938L166.96400000000003,100.74020994085058L167.21599999999998,100.6554382346748L167.37279999999998,100.56226962224723L167.46239999999997,100.45494764695212L167.86,100.53405586272258L167.9048,100.56383895510304L167.96079999999998,100.57377519389313L167.9664,100.58277534353923L168.1008,100.60583617036453L168.17919999999998,100.66180945482802L168.2212,100.55159662393903L168.3696,100.53085512058834L168.91559999999998,100.50431538901866L169.106,100.44547406007133L169.1648,100.35484494667818L169.2264,100.27554832638245L169.3328,100.14914058888523L169.3664,100.06120562103142L169.5148,99.89779600826945L169.69680000000002,99.77594939069772L170.04399999999998,99.59964110372557L170.24839999999998,99.40878075312429L170.3408,99.29899095267571L170.39960000000002,99.20973822337697L170.5732,99.11415529765075L170.6208,98.99576311419841L170.66559999999998,98.90373326009768L170.68800000000002,98.86640818516175L170.78879999999998,98.81586568117007L170.898,98.73861368036188L170.996,98.71789903364136L171.2172,98.46596364332166L171.3824,97.95534205527855L171.4076,97.64198498780583L171.514,97.3762803843919L171.5448,97.2155072195115L171.60920000000002,97.12066802399048L171.70159999999998,97.08689015517648L171.70440000000002,97.06630693322424L171.7352,97.07723034886126L171.86960000000002,97.14573412816291L171.8724,97.18411449003553L172.0404,97.2234530413648L172.1384,97.24935607698565L172.4184,96.96555157057652L172.5416,96.83647725315217L172.63400000000001,96.77167158920369L172.6788,96.72048686503646L172.6984,96.6882990274386L173.3256,96.3961205526326L173.41799999999998,96.23009748721927L173.47119999999998,96.1546853987265L173.5216,96.11486085700324L173.6056,96.04541113643253L173.7288,96.06115452449565L173.74,96.05859463215504L173.88,96.03659165382756L173.9024,96.03334908771741L174.132,95.97316742591994L174.1852,95.90680096538624L174.2748,95.87782651181078L174.43439999999998,95.83887759444146L174.5828,95.79075789211414L174.7312,95.73342211102381L174.8264,95.68315340909318L175.0252,95.51301449437709L175.0448,95.39405111014707L175.86520000000002,95.16129994118133L175.92680000000001,95.01924383475726L176.05,94.87621714970076L176.3944,94.88108912885549L176.54840000000002,94.74390802252505L176.5624,94.66632576863891L176.76680000000002,94.72036032724935L176.80599999999998,94.77020969896654L176.87040000000002,94.79450671022622L177.10559999999998,94.77669634905745L177.40800000000002,94.72125693850094L177.7972,94.76462865288481L178.29559999999998,94.47668302306795L178.5112,94.28332200198923L178.584,94.09780184358101L178.766,93.9015620704278L179.1524,93.74206121896411L179.1748,93.68381328663058L179.1888,93.65502574015157L179.19160000000002,93.64228972177804L179.578,93.68623771894639L179.69,93.7077957071582L179.816,93.69313164220566L180.11839999999998,93.52236926356737L180.3256,93.49886820196981L180.33960000000002,93.49652028965876L180.3536,93.5040790610786L180.80159999999998,93.54921080906837L180.96120000000002,93.44154497527867L181.2972,93.41355405177949L181.5884,93.37169264511044L181.59959999999998,93.36056513044703L181.8432,93.38944219621101L181.85999999999999,93.3909434024816L181.88799999999998,93.39399633075747L238.2464,53.41042133132191L238.2632,31.056922363993948L238.37800000000001,29.04990330204808L238.3836,26.300050323399603L238.3892,26.140075960870263L238.40040000000002,26.13134002632833L238.546,29.11466653315395L238.75039999999998,31.088886923600228L238.7672,31.179951564674923L238.8484,30.16897481453742L238.9688,29.81003998382289L238.9744,29.259842483183206L239.0976,31.782175664890133L239.2516,33.84987373637455L239.4112,36.170519444270724L239.4392,38.154826410367406L239.59879999999998,37.602905635687364L239.6548,36.41502807417672L239.834,36.207964097733225L240.2876,37.788567087218155L240.52280000000002,39.703564108112516L240.6824,41.94164110463805L240.73000000000002,43.440522129785705L240.84199999999998,43.52887054410675L240.8588,43.69702253417424L241.2396,43.33774286315594L241.2704,43.232127391134185L241.30960000000002,43.3705378310886L241.4496,44.90638544184009L241.5,46.382255470884076L241.7436,49.532339737494155L241.9676,50.800445393132776L242.0348,51.77792184079152L242.41,52.00861876323495L242.69,51.467742092100835L242.8664,51.11599703233726L243.07080000000002,50.96552822352224L243.3172,50.16810005522234L243.4236,49.759104499915054L243.74,49.1288212595575L243.82119999999998,48.02795369971946L243.8296,47.19736680715772L244.03119999999998,45.3547941525548L244.0872,44.00062873838962L244.3056,42.56282967852724L244.3532,41.6059174449872L244.37279999999998,41.146448845364546L244.60240000000002,41.02813181561103L244.6584,40.84273715783286L244.6808,40.93249938469606L244.7732,40.60119651306556L244.9832,40.44953118889859L245.2072,40.10579566436604L245.34720000000002,39.88543842004299L245.4844,38.42999809841254L245.5768,37.23915713942017L245.7168,36.62418147275426L245.74200000000002,35.87716767996295L246.036,36.191726003943415L246.176,35.68829514673865L246.2628,35.47479351813513L246.88719999999998,35.88052366051039L246.99360000000001,36.13721257372475L247.0328,36.247063529037064L247.0748,36.22517681809825L247.0776,36.205102876976554L247.2848,35.36152686843599L247.3716,35.183592451628044L247.51160000000002,35.28901384652619L247.5732,35.4777064465342L247.66840000000002,35.888854631355855L247.8448,36.161180096013254L247.94,36.421888778890946L247.9792,36.661131662300676L248.1192,36.89139857421611L248.15,37.058550182165476L248.1696,37.15006352852686L248.318,37.08746538991272L248.5392,37.8800877477797L248.7044,38.47314620888659L248.9228,38.379381542661406L249.1076,38.58206248596821L249.53879999999998,38.467856957408884L249.6648,38.379056497748564L249.6844,38.222428205213504L250.166,38.74518442308997L250.1688,39.06086375806393L250.4488,39.23047951754134L250.6084,38.71965138850331L250.656,38.07329609833792L250.712,37.397150819555776L250.84640000000002,36.99142145219798L250.8828,36.567747253795574L250.95839999999998,36.28398157275922L251.0984,36.161281663877986L251.20479999999998,35.62713215273811L251.4344,35.26750186396953L251.5324,35.26605794020483L251.6584,34.812068135666806L251.9048,34.876958460287995L251.9384,35.046227628396025L252,35.234679111484326" style="fill: none;" fill="none"></path></g></g></g></g><g opacity="0.2"><g><g><g><path stroke="rgb(255, 112, 67)" stroke-width="2px" d="M14.126000000000001,72.75376492738725L14.1708,89.28401434421541L14.305200000000001,126.5553435087204L14.406,126.79783576726913L14.4088,127.19525510072708L14.425600000000001,125.73281103372574L14.5488,118.08330649137497L14.655199999999999,104.69279640913011L14.7448,111.98407495021821L15.106,105.76235765218736L15.148000000000001,104.16271054744722L15.282399999999999,98.95727688074113L15.5428,112.28031957149507L15.8172,117.12821298837662L15.9376,117.13274949789047L16.1112,106.48782992362977L16.2092,105.55330896377565L16.3212,105.76462590694429L16.3464,104.9190943837166L16.3716,105.45915001630785L16.615199999999998,105.98084861040117L16.828,105.57720476388933L16.8504,105.69088125228883L16.9316,105.59957081079484L17.2452,102.18210214376451L17.5308,101.00635492801668L17.793999999999997,100.74766838550569L17.9172,100.46329253911973L17.956400000000002,100.1453676223755L17.9928,99.87038129568101L18.135599999999997,98.9646618962288L18.158,98.72095638513566L18.230800000000002,98.2042163014412L18.27,98.99863296747209L18.648000000000003,104.62158375978471L19.0092,107.7518808245659L19.0736,108.50109064579011L19.0764,108.59356158971788L19.2724,109.9197521209717L19.2864,110.04392588138582L19.3676,109.49606323242189L19.39,108.22098755836488L19.717599999999997,102.51015508174898L19.7204,102.59925001859666L19.9388,103.64560121297838L19.9892,104.37418574094774L20.02,104.43358236551286L20.0956,104.22991418838502L20.258,105.51501238346101L20.3336,105.54682070016862L20.610799999999998,105.45883351564409L20.8852,107.10838222503664L20.901999999999997,107.0873876810074L21.3304,104.16112804412843L21.520799999999998,105.91369771957399L21.8652,105.40465915203096L21.98,105.88220590353014L22.0444,104.88412106037141L22.0724,105.31519496440889L22.1928,106.55202680826189L22.483999999999998,107.10115545988084L22.595999999999997,107.71838450431825L22.7108,108.51190441846849L22.8116,108.06147122383119L22.9236,108.4292449951172L22.948800000000002,108.18553948402406L23.735599999999998,105.06806069612504L23.8056,104.60232996940614L23.9176,103.88039195537569L23.9876,103.10554558038713L24.2228,102.18721890449525L24.4356,103.30557399988176L24.696,104.38199275732042L24.7688,104.86534202098848L24.8948,105.68444573879243L25.2,105.8310382962227L25.284000000000002,106.40749150514604L25.368,106.8518056869507L25.3792,106.8896275162697L25.432399999999998,107.31505715847017L25.4772,107.63329857587816L25.502399999999998,107.74750256538393L25.564,108.08673852682115L25.575200000000002,108.23443883657457L25.648,108.74300265312196L25.6928,109.03149300813676L25.858,109.07437884807588L25.956000000000003,109.00659495592119L25.9784,108.86295640468599L26.0904,109.14606624841691L26.278000000000002,109.54928809404375L26.3172,109.54448783397676L26.392799999999998,109.86752951145174L26.4404,110.21309548616411L26.6084,111.4702361226082L26.7512,112.17128509283067L26.975199999999997,111.23760813474657L27.031200000000002,111.21729934215547L27.1488,111.67248004674913L27.288800000000002,112.14986854791643L27.297199999999997,112.23073446750642L27.3448,112.54153811931612L27.4232,112.32077890634538L27.5352,112.57735544443132L27.7284,112.21591168642045L27.739600000000003,112.26823979616167L28.058799999999998,113.42599922418594L28.0868,113.51836466789246L28.4844,113.95212882757187L28.8008,115.61544531583786L28.9156,116.2677531838417L29.162000000000003,116.8171455860138L29.3048,117.20992290973663L29.3776,117.4739899635315L30.175600000000003,119.99286049604416L30.2092,119.94100713729858L30.2428,119.84363043308258L30.3072,119.45734137296677L30.323999999999998,119.48419117927551L30.497600000000002,120.34813249111176L30.5732,120.94320648908615L30.6544,121.11701810359955L30.8616,121.51201093196869L31.337600000000002,123.35937255620956L31.415999999999997,123.70514953136444L31.477600000000002,123.98667687177658L31.491600000000002,124.18248528242111L31.6232,124.66541254520416L31.8528,123.92000073194504L31.9536,123.7054660320282L32.379200000000004,124.62985897064209L32.4212,124.67126780748367L32.4688,124.69215685129166L32.956,125.15440607070923L33.059599999999996,125.42527788877487L33.222,124.86037695407867L33.4152,125.155566573143L33.644800000000004,125.7266920208931L33.9976,126.96790212392807L34.0452,126.81883031129837L34.1544,126.50000864267349L34.538000000000004,127.0741935968399L34.6864,127.54541033506393L34.8292,128.14259433746338L34.9384,128.27251785993576L35.366800000000005,128.60943281650543L35.4704,128.77522641420364L35.4928,128.6775859594345L35.7448,128.6276843547821L35.7812,128.68729197978973L35.8568,128.72680181264877L35.882,128.74552810192108L35.898799999999994,128.79674845933914L35.924,128.90103542804718L36.069599999999994,129.56157231330872L36.1032,129.58578461408615L36.108799999999995,129.5720168352127L36.1144,129.58235585689545L36.1592,129.57254433631897L36.3664,130.3644289970398L36.394400000000005,130.51439756155014L36.461600000000004,130.44766867160797L36.5876,130.2948516011238L36.6184,130.28023982048035L36.660399999999996,130.32170140743256L36.694,130.47420197725296L36.7584,130.5710511803627L36.800399999999996,130.69907569885254L36.876000000000005,130.70413970947266L36.9404,130.79692715406418L37.1588,131.00877159833908L37.326800000000006,131.37042635679245L37.427600000000005,131.43525624275208L37.6824,131.76135742664337L37.9428,132.16995978355408L38.3152,131.43857949972153L38.550399999999996,130.65982961654663L39.0068,130.73046201467514L39.0684,130.76828384399414L39.0852,130.7074629664421L39.205600000000004,130.8847033381462L39.443599999999996,130.75778657197952L39.564,130.28783583641052L39.858000000000004,130.1839708685875L40.0092,130.45410418510437L40.233200000000004,130.3068786263466L40.437599999999996,130.01474851369858L40.446,130.0188102722168L40.499199999999995,130.0202345252037L40.6364,129.990272462368L40.754000000000005,130.06275111436844L40.8212,130.16329282522202L40.9304,130.05816185474396L40.9836,130.08696341514587L41.0368,130.1878216266632L41.042399999999994,130.1980551481247L41.0928,130.2795540690422L41.1992,130.4949855208397L41.445600000000006,130.51323705911636L41.5184,130.6838836669922L41.5268,130.73183351755142L41.563199999999995,130.75968557596207L41.6976,130.97970628738403L41.8404,131.16728568077087L84.07000000000001,90.87052667140962L84.13440000000001,157.9947259426117L84.3024,182.0315798521042L84.434,143.06341150403023L84.504,129.41835576295853L84.5628,124.08473932743073L85.01920000000001,150.6918160021305L85.2096,155.29885241389275L85.5428,146.44469359517097L85.57079999999999,146.14309483766556L85.5904,145.50070399045944L85.6492,145.86541825532913L85.8088,146.99303099513054L86.0804,144.81817030906677L86.22319999999999,149.22069454193115L86.29599999999999,147.99707660079002L86.33239999999999,147.01684767007828L86.3828,148.4619633257389L86.604,148.07641276717186L86.9708,152.32609355449677L87.0492,150.70036152005196L87.13040000000001,151.96069353818893L87.1444,151.49675631523132L87.346,148.93341743946075L87.5616,150.29777267575264L87.85,152.6689428985119L87.9564,152.142312169075L87.9592,152.0509489774704L88.1132,151.72822380065918L88.1384,151.35359251499176L88.3456,147.57338771224022L88.4548,148.04114931821823L88.87480000000001,150.0502691566944L88.95599999999999,149.75320690870285L89.0232,147.42940628528595L89.0904,146.45505899190903L89.2332,147.03776308894157L89.278,146.021242082119L89.3228,145.71151980757713L89.3788,146.27784499526024L89.6644,141.14829236268997L89.6924,140.72763660550117L90.006,138.56657007336617L90.11800000000001,139.24227261543274L90.2244,140.2305723130703L90.4512,140.63724929094315L90.5772,141.49955534934998L90.5968,141.44938999414444L90.7536,142.33786010742188L90.8068,142.76255124807358L91.0924,144.4106229543686L91.11200000000001,144.58253556489944L91.1876,144.23385733366013L91.56559999999999,144.32229289412498L91.7924,144.34916907548904L91.87639999999999,144.8506116271019L91.96600000000001,144.52084431052208L91.98559999999999,144.60142010450363L92.0528,144.3494855761528L92.10879999999999,143.86173167824745L92.3776,145.9512690603733L92.41959999999999,146.18033641576767L92.4252,146.18418717384338L92.47,146.3157723248005L92.7248,146.50121533870697L92.988,145.75153076648712L93.016,145.81359127163887L93.1532,146.17187002301216L93.32119999999999,145.88899755477905L93.9316,146.5813163816929L93.982,146.7475319802761L94.2732,147.48170801997185L94.31240000000001,147.64391461014748L94.3964,147.43164816498756L94.4692,147.89125987887383L94.5196,148.2706386744976L94.5616,148.59507822990417L94.69319999999999,148.3010227382183L94.93679999999999,149.0344866514206L95.032,148.55759927630424L95.03479999999999,148.49530139565468L95.1608,148.46420520544052L95.3092,149.005711466074L95.326,149.10485529899597L95.3596,149.5724586546421L95.4324,149.54523959755898L95.438,149.69847866892815L95.5332,149.58741331100464L95.6536,150.39934301376343L95.74040000000001,150.79697334766388L95.8692,151.43749156594276L96.0736,151.71487802267075L96.1184,151.54945367574692L96.4544,150.84827283024788L96.5244,150.79111808538437L96.6224,151.12138652801514L96.81280000000001,149.90787023305893L97.0088,149.70916056632996L97.1964,149.11406019330025L97.2356,148.95132610201836L97.384,147.57067108154297L97.76759999999999,145.89838707447052L97.7788,145.8963561952114L97.78439999999999,145.83031305670738L97.9832,145.7307735979557L98.0672,145.5050294995308L98.2604,144.8538557589054L98.3024,144.59907272458076L98.4396,144.04780769348145L98.476,143.9807095527649L98.4788,144.02108976244926L98.5628,144.10034680366516L98.8204,144.43454512953758L99.06400000000001,144.3702163696289L99.11999999999999,144.11437833309174L99.2964,143.79049265384674L99.5036,144.05843684077263L99.5176,144.07252112030983L99.5484,144.0841525197029L99.8844,145.0479761660099L100.00200000000001,145.4060439169407L100.1308,145.2421229481697L100.6516,145.4219744503498L101.1024,144.79767689108849L101.13600000000001,144.78132435679436L101.2984,144.8172471821308L101.34039999999999,144.86546078324318L101.402,144.4951550066471L101.584,144.50222352147102L101.6008,144.52559182047844L101.7548,145.0688652098179L101.794,145.1141511797905L101.8164,145.19535997509956L101.8304,145.20121523737907L102.0236,144.79298213124275L102.30080000000001,145.20216473937035L102.5668,144.75257554650307L102.5892,144.84446623921394L102.69000000000001,144.61919689178467L102.7432,144.49296587705612L102.7712,144.50143226981163L103.0736,144.68249702453613L103.09320000000001,144.58994695544243L103.1912,144.514857172966L103.4096,144.49286037683487L103.8128,144.9562173485756L103.8912,145.38562962412834L104.00880000000001,145.42811983823776L104.0676,145.42450645565987L104.2412,145.6058085858822L104.2692,145.66924059391022L104.3056,145.6321836411953L104.328,145.60237982869148L104.6388,145.1841769516468L104.7508,144.94888508319855L104.7872,144.9612549841404L104.8684,145.19528084993362L104.8936,145.19810298085213L105.08959999999999,145.3149181008339L105.55160000000001,145.01748660206795L105.5656,145.07487872242928L105.63,145.10486716032028L105.8904,145.2740895152092L105.952,145.20986625552177L106.3244,144.9942765533924L106.48679999999999,145.0208098590374L106.5316,144.95371171832085L106.7864,145.1191888153553L106.8536,145.1137291789055L106.96560000000001,144.8910709619522L107.0048,144.7631255686283L107.0412,144.57852655649185L107.10000000000001,144.53229108452797L107.10560000000001,144.56101351976395L107.36880000000001,144.6725536286831L107.548,144.71528121829033L107.61800000000001,144.6275314092636L107.6292,144.5832740664482L107.8868,144.51833868026733L107.9456,144.35845309495926L108.0296,144.44335439801216L108.1668,144.52896782755852L108.416,144.85293263196945L108.44120000000001,144.73806926608086L108.91159999999999,145.26736387610435L108.92280000000001,145.34306028485298L108.93960000000001,145.41142442822456L109.1048,145.50961875915527L109.25319999999999,145.5611556172371L109.2616,145.58760979771614L109.3652,145.77054718136787L109.5248,145.86921626329422L109.57799999999999,145.95572644472122L109.7712,145.76761955022812L110.14359999999999,145.21930852532387L110.2164,145.01271271705627L110.27799999999999,144.9240661561489L110.38719999999999,145.0618758201599L110.4684,145.23373568058014L110.4964,145.1962567269802L110.4992,145.1956237256527L110.6728,145.15123450756073L110.67840000000001,145.17238730192184L110.8716,145.43671810626984L110.88000000000001,145.4390654861927L110.88279999999999,145.43756210803986L111.0088,145.3797216117382L111.0732,145.4207348227501L111.12920000000001,145.52573391795158L111.4512,145.73488810658455L111.566,145.87027126550674L111.7144,145.94525554776192L111.75359999999999,145.8836697936058L111.986,145.6366146504879L112.18480000000001,77.48465859889986L112.3388,121.8429651260376L112.3836,129.18609702587128L112.40599999999999,134.38385555148125L112.7952,151.56177082657814L113.00800000000001,154.60882821679115L113.3552,153.5983998477459L113.3664,153.0347385406494L113.4028,152.49428728222847L113.49799999999999,153.97856989502907L113.7976,154.68048924207687L113.834,152.8582630455494L114.03,147.5777923464775L114.086,143.86228555440903L114.156,142.96039053797722L114.1616,143.1106228530407L114.254,142.92953172326088L114.37440000000001,142.47606539726257L114.4108,143.9302013218403L114.4248,143.54710364341736L114.436,143.63804483413696L114.5172,140.10291704535484L114.5648,140.0513538122177L114.5788,140.17935195565224L114.58439999999999,140.3390265405178L114.6348,140.29284381866455L114.6964,140.78972348570824L114.7328,140.06390833854675L114.82520000000001,136.76483729481697L114.842,136.47911632061005L114.95400000000001,136.74888038635254L115.02680000000001,136.36728608608246L115.2452,137.35468903183937L115.31519999999999,138.53655526041985L115.3208,138.23113211989403L115.43560000000001,138.05186086893082L115.51679999999999,138.2172060906887L115.7828,134.54959639906883L116.0824,130.59526348114014L116.1104,130.41981661319733L116.1244,129.92523157596588L116.1272,130.05710685253143L116.18599999999999,129.52628248929977L116.19999999999999,129.71185737848282L116.466,132.41329604387283L116.7768,131.23617732524872L116.78800000000001,131.24730759859085L117.0596,130.1153957247734L117.0876,130.1594420671463L117.4656,128.17044639587402L117.50479999999999,128.5105791091919L117.5692,128.54713493585587L117.852,126.85981714725494L117.93879999999999,126.05284595489502L118.1936,125.09912395477295L118.3056,124.67063480615616L118.3672,124.99583923816681L118.57719999999999,125.10645622015L118.9272,125.45624220371246L119.2492,127.32106411457062L119.50959999999999,128.37021106481552L119.5544,128.87286686897278L119.994,127.63076001405716L119.9968,127.65486681461334L120.0108,127.39138001203537L120.0668,127.34132015705109L120.3468,124.96735417842865L120.9152,123.54114943742752L120.974,123.52954441308975L121.13640000000001,123.67766672372818L121.212,124.02850770950317L121.2708,124.0848975777626L121.41640000000001,124.11301338672638L121.47800000000001,123.70884203910828L121.4836,123.5004791021347L121.576,123.43976372480392L121.6628,123.664426445961L121.6684,123.56235498189926L121.73559999999999,122.93752992153168L121.7384,122.90814810991287L121.8028,122.67108911275864L122.1164,121.17098146677017L122.164,121.22663283348083L122.35719999999999,121.00545161962509L122.4468,121.07460701465607L122.6932,122.2956138253212L122.8304,121.95653611421585L122.948,122.13150823116302L122.96199999999999,121.89439648389816L123.2168,121.94123858213425L123.2588,121.94857084751129L123.2756,121.66720175743103L123.29520000000001,121.96634763479233L123.536,121.10214257240295L123.6004,120.115662753582L124.0932,119.82622289657593L124.1828,119.85708171129227L124.2556,120.11381649971008L124.35919999999999,120.1023697257042L124.3872,120.1740043759346L124.66999999999999,121.25601464509964L124.6756,121.31034725904465L124.7876,121.52282470464706L124.9248,121.69916832447052L125.2524,121.88152545690536L125.4064,122.92734915018082L125.42880000000001,122.99861454963684L125.482,123.18455868959427L125.50999999999999,123.14668411016464L125.5184,123.16361689567566L125.5324,123.30941820144653L125.77319999999999,122.40554505586624L125.9244,121.76521146297455L126.1988,52.53612452745439L126.2968,79.76905488967897L126.49,120.65028512477875L126.6608,125.16685509681702L126.6636,125.71561449766159L126.9128,102.80977571010591L127.23479999999999,129.5496507883072L127.27680000000001,128.61676508188248L127.7724,123.09372299909592L127.79199999999999,123.72129106521606L127.88719999999999,126.61099487543106L128.114,129.89210450649261L128.2148,130.91429615020752L128.31,128.86938536167145L128.4584,126.24074184894562L128.6488,125.39146506786346L128.6572,125.00459575653076L128.6908,125.80412918329239L128.7916,123.64744091033936L128.98760000000001,123.08454447984695L128.9988,123.21852976083755L129.1584,121.25469589233398L129.528,118.84311908483505L129.72119999999998,118.84385758638382L129.9172,118.63101089000702L130.21959999999999,116.36159563064575L130.2728,117.09139341115952L130.56119999999999,119.7766905426979L130.9112,119.82548439502716L131.236,121.77892649173737L131.9472,119.13524919748306L132.1292,118.29430693387985L132.4316,120.04434460401535L132.4484,120.08454018831253L132.552,119.77837854623795L132.8656,120.29031836986542L133.4788,115.2878143787384L133.4872,115.27979636192322L133.6748,115.24028652906418L134.0584,114.96392869949341L134.0808,115.02258682250977L134.246,115.87687486410141L134.2992,116.25340515375137L134.4616,117.31774413585663L134.6884,117.57743293046951L134.73600000000002,117.75372380018234L134.9292,118.1765159368515L135.1532,116.88719773292542L135.15879999999999,116.78533726930618L135.4164,117.10969769954681L135.54240000000001,116.20735430717468L135.7776,115.54454916715622L136.1836,115.26001507043839L136.2004,115.31593018770218L136.22,115.41225188970566L136.2424,115.35364651679993L136.4244,116.10976660251617L136.4888,116.35684812068939L136.7212,115.42063915729523L136.7296,115.35449051856995L136.7548,115.56939446926117L136.962,115.65384739637375L137.2112,114.78220456838608L137.3456,114.9562799334526L137.3988,115.55705094337463L137.4576,115.91833645105362L137.5164,116.13904291391373L137.606,116.3029375076294L137.6396,116.388234436512L137.998,116.10749834775925L138.0456,116.20308154821396L138.0596,116.11730986833572L138.09879999999998,116.31390953063965L138.1016,116.28574097156525L138.16039999999998,116.26522117853165L138.2052,116.38153517246246L138.3004,116.23631411790848L138.3144,116.19912528991699L138.6168,115.2640768289566L138.656,115.2532103061676L138.8324,114.84687620401382L138.9248,113.5848298072815L138.98080000000002,113.68447476625443L139.048,113.67714250087738L139.0592,113.62840139865875L139.0984,113.7916629910469L139.18519999999998,113.91726100444794L139.2104,114.01869946718216L139.3196,113.84462410211563L139.4904,114.15516400337219L139.65279999999998,114.53412079811096L139.86839999999998,113.58229780197144L139.8796,113.5806097984314L139.9552,113.76048767566681L140.2996,113.81144428253174L140.7924,112.60557675361635L140.83720000000002,112.72885376214983L140.98559999999998,113.20049250125885L141.17880000000002,113.14589613676071L141.26559999999998,113.24179583787918L141.288,113.2812529206276L141.5036,113.46181654930115L141.52880000000002,113.59089607000351L141.6548,113.38474863767624L141.8452,113.28220242261887L142.76360000000003,113.27012264728546L143.1556,112.39990407228471L143.2144,112.2685035467148L143.29840000000002,112.21343243122102L143.3348,112.1938621401787L143.3796,112.16474407911302L143.3992,112.07179838418962L143.64000000000001,111.51465171575548L143.766,111.85531193017961L143.8192,111.82883137464525L143.9032,111.75809347629549L143.91719999999998,111.68835783004762L144.2644,110.91593796014787L144.648,110.47874504327775L144.7096,110.28483563661577L144.73760000000001,110.27602636814119L144.8356,110.37319207191469L144.96159999999998,110.22190475463869L144.9924,110.1804959177971L145.1156,109.52117228507997L145.45440000000002,110.1217322945595L145.45999999999998,110.13660782575609L145.6224,110.74893110990526L145.63920000000002,110.7273035645485L145.67,110.89172565937044L145.7372,110.70282751321794L145.7652,110.64970815181734L145.8688,110.13397032022478L145.9304,109.95604419708253L145.9444,110.04292362928392L146.0788,109.97155272960664L146.286,109.35711944103242L146.3056,109.30030757188798L146.412,109.0923138856888L146.97760000000002,108.80551153421403L147.1652,108.1546279191971L147.3416,107.85321378707887L147.3836,107.8514730334282L147.66639999999998,108.19877976179124L147.6748,108.17773246765138L147.8652,108.57705080509187L148.1984,108.49866414070131L148.3244,108.55405175685884L148.5736,108.56549853086473L148.8928,109.0534898042679L148.96,109.08208036422731L148.9824,109.23199617862703L149.15599999999998,108.5493569970131L149.40240000000003,108.35476183891298L149.5368,108.57103729248048L149.7132,109.08039236068727L149.74400000000003,109.09505689144136L149.9148,109.27171701192857L150.374,108.82239156961442L150.6092,109.05633831024171L150.6876,108.96703237295152L150.9452,108.87688243389131L150.9676,108.9748393893242L151.0684,109.17571181058885L151.284,109.62888801097871L151.3092,109.6453460454941L151.6844,109.76899230480196L151.9056,109.79394310712816L152.38719999999998,109.37273347377779L152.4572,109.38154274225236L152.50199999999998,109.43044209480287L152.89679999999998,109.32320111989976L152.9388,109.04668503999712L153.0256,109.14379799365999L153.314,109.2542567253113L153.4484,109.4393568634987L153.59120000000001,109.47591269016267L153.69480000000001,109.69413989782335L153.84879999999998,109.30763983726503L153.8544,109.34329891204835L153.8992,109.274196267128L153.91039999999998,109.27324676513673L154.05319999999998,109.04779279232027L154.66920000000002,108.57958281040193L154.6916,108.60637986660005L154.7028,108.66894149780275L154.854,108.68729853630067L155.13400000000001,108.27110016345979L155.6212,107.90480339527132L155.834,107.54541689157487L155.9264,107.58962148427965L155.988,107.4581682085991L156.0636,106.92576134204866L156.94,105.45440250635149L157.3012,105.13041132688524L157.3684,105.42069518566133L157.5532,105.42765820026399L157.6428,105.3683143258095L157.78,105.01473033428194L157.7912,105.02248460054399L158.02919999999997,104.67512512207033L158.94480000000001,103.97771590948106L159.09040000000002,104.11771470308305L159.0988,104.11191219091417L159.14079999999998,104.08580088615419L159.6308,103.89721924066545L159.8212,103.57597106695177L159.8716,103.61716890335084L160.1992,103.34518933296205L160.2132,103.30905550718309L160.272,103.30209249258043L160.2748,103.32398378849031L160.286,103.37604814767839L160.4008,103.40854221582414L160.45399999999998,103.35500085353853L160.524,103.39139842987062L160.78719999999998,103.49447214603425L160.874,103.6036121249199L160.8796,103.60551112890245L161.056,103.69697982072832L161.0644,103.65820848941804L161.3304,103.18240249156953L161.43679999999998,103.04688745737077L161.4396,103.0372869372368L161.71679999999998,103.0901952981949L161.83440000000002,103.19147551059724L162.1172,102.72073352336885L162.2656,102.75597059726717L162.37480000000002,103.05960023403169L162.43359999999998,103.21072930097581L162.708,102.8177937269211L162.71640000000002,102.82301598787309L162.7836,102.77316713333131L162.86479999999997,102.70939224958421L163.05519999999999,102.36451202630998L163.0804,102.40808361768724L163.786,102.28095585107805L163.8364,102.23079049587251L164.1164,102.04463535547258L164.1304,102.03714483976366L164.1332,102.04911911487581L164.19760000000002,101.95559316873552L164.6512,101.44687110185625L164.6652,101.47683316469194L164.72959999999998,101.38473147153856L164.836,101.48653918504716L164.9592,101.65908479690553L165.0796,101.71900892257692L165.2112,101.65280753374101L165.4184,101.79106557369234L165.4968,101.86786973476411L165.5808,101.79866158962251L165.7516,101.85025119781496L165.774,101.73372620344163L165.78240000000002,101.74728298187257L165.9504,101.63867050409318L165.9924,101.63545274734498L166.0932,101.48210817575456L166.2164,101.39454299211503L166.2752,101.28688001632692L166.3312,101.23465740680696L166.5468,101.1856525540352L166.7008,100.85142785310747L166.7204,100.87690615653993L166.9612,100.58245503902437L166.96400000000003,100.58540904521944L167.21599999999998,100.52828067541124L167.37279999999998,100.42251670360567L167.46239999999997,100.29396468400957L167.86,100.6527181863785L167.9048,100.60851359367372L167.96079999999998,100.58867955207826L167.9664,100.59627556800844L168.1008,100.64042741060258L168.17919999999998,100.74576938152315L168.2212,100.38627737760545L168.3696,100.49974286556245L168.91559999999998,100.46450579166414L169.106,100.3572120666504L169.1648,100.21890127658845L169.2264,100.15660339593889L169.3328,99.95952898263933L169.3664,99.9293031692505L169.5148,99.6526815891266L169.69680000000002,99.59317946434022L170.04399999999998,99.33517867326738L170.24839999999998,99.12249022722246L170.3408,99.13430625200273L170.39960000000002,99.07585912942888L170.5732,98.97078090906145L170.6208,98.81817483901979L170.66559999999998,98.7656884789467L170.68800000000002,98.81042057275774L170.78879999999998,98.74005192518236L170.898,98.62273567914964L170.996,98.6868270635605L171.2172,98.08806055784227L171.3824,97.18940967321397L171.4076,97.1719493865967L171.514,96.97772347927095L171.5448,96.97434747219087L171.60920000000002,96.97840923070909L171.70159999999998,97.03622335195543L171.70440000000002,97.03543210029603L171.7352,97.09361547231676L171.86960000000002,97.24848979711534L171.8724,97.24168503284456L172.0404,97.28246086835863L172.1384,97.28821063041688L172.4184,96.53984481096269L172.5416,96.6428657770157L172.63400000000001,96.6744630932808L172.6788,96.64370977878572L172.6984,96.64001727104188L173.3256,95.9578528404236L173.41799999999998,95.98106288909914L173.47119999999998,96.04156726598741L173.5216,96.05512404441835L173.6056,95.94123655557634L173.7288,96.08476960659029L173.74,96.05475479364397L173.88,96.00358718633653L173.9024,96.02848523855211L174.132,95.88289493322374L174.1852,95.80725127458574L174.2748,95.83436483144762L174.43439999999998,95.78045421838762L174.5828,95.71857833862306L174.7312,95.64741843938829L174.8264,95.60775035619737L175.0252,95.25780612230302L175.0448,95.21560603380205L175.86520000000002,94.81217318773271L175.92680000000001,94.80615967512132L176.05,94.6616771221161L176.3944,94.8883970975876L176.54840000000002,94.5381363630295L176.5624,94.54995238780977L176.76680000000002,94.80141216516496L176.80599999999998,94.84498375654222L176.87040000000002,94.83095222711565L177.10559999999998,94.7499808073044L177.40800000000002,94.63809782266618L177.7972,94.82968622446062L178.29559999999998,94.04476457834245L178.5112,93.99328047037126L178.584,93.81952160596849L178.766,93.60720241069795L179.1524,93.50280994176866L179.1748,93.5964413881302L179.1888,93.61184442043306L179.19160000000002,93.6231856942177L179.578,93.7521597146988L179.69,93.74013268947603L179.816,93.67113554477693L180.11839999999998,93.26622569561006L180.3256,93.46361660957338L180.33960000000002,93.49299842119218L180.3536,93.51541721820833L180.80159999999998,93.61690843105318L180.96120000000002,93.28004622459413L181.2972,93.37156766653062L181.5884,93.30890053510667L181.59959999999998,93.34387385845186L181.8432,93.43275779485704L181.85999999999999,93.39319521188737L181.88799999999998,93.39857572317125L238.2464,-6.5649411678313925L238.2632,-2.4733260869979574L238.37800000000001,26.039374709129362L238.3836,22.175270855426817L238.3892,25.90011441707614L238.40040000000002,26.118236124515562L238.546,33.58965629339221L238.75039999999998,34.05021750926974L238.7672,31.316548526287107L238.8484,28.652509689331083L238.9688,29.271637737751036L238.9744,28.43454623222354L239.0976,35.56567543745044L239.2516,36.951420843601255L239.4112,39.65148800611499L239.4392,41.13128685951236L239.59879999999998,36.77502447366717L239.6548,34.633211731910734L239.834,35.89736813306811L240.2876,40.15947157144549L240.52280000000002,42.576059639453916L240.6824,45.2987565994263L240.73000000000002,45.6888436675072L240.84199999999998,43.66139316558841L240.8588,43.949250519275694L241.2396,42.798823356628446L241.2704,43.07370418310168L241.30960000000002,43.57815349102023L241.4496,47.210156857967405L241.5,48.5960605144501L241.7436,54.257466137409224L241.9676,52.70260387659074L242.0348,53.244136512279525L242.41,52.35466414690019L242.69,50.65642708539964L242.8664,50.58837944269182L243.07080000000002,50.7398250102997L243.3172,48.97195780277255L243.4236,49.145611166954055L243.74,48.18339639902118L243.82119999999998,46.37665235996249L243.8296,45.95148646831515L244.03119999999998,42.59093517065051L244.0872,41.96938061714175L244.3056,40.4061310887337L244.3532,40.170549094677L244.37279999999998,40.45724594593051L244.60240000000002,40.85065627098086L244.6584,40.564645171165495L244.6808,41.06714272499087L244.7732,40.10424220561984L244.9832,40.22203320264819L245.2072,39.59019237756732L245.34720000000002,39.55490255355838L245.4844,36.246837615966825L245.5768,35.45289570093158L245.7168,35.70171797275546L245.74200000000002,34.75664699077609L246.036,36.66356348991397L246.176,34.933148860931425L246.2628,35.15454107522967L246.88719999999998,36.48911887407306L246.99360000000001,36.522245943546324L247.0328,36.411839962005644L247.0748,36.19234675168994L247.0776,36.17499196529391L247.2848,34.09616285562518L247.3716,34.916690826416044L247.51160000000002,35.44714593887332L247.5732,35.7607453465462L247.66840000000002,36.50557690858844L247.8448,36.569668292999296L247.94,36.812951803207426L247.9792,37.01999598741534L248.1192,37.23679894208911L248.15,37.30927759408954L248.1696,37.28733354806903L248.318,36.993568181991606L248.5392,39.06902128458026L248.7044,39.362733900547056L248.9228,38.238734543323545L249.1076,38.886083900928526L249.53879999999998,38.29654866456988L249.6648,38.245855808258085L249.6844,37.987485766410856L250.166,39.52931874990466L250.1688,39.53438276052478L250.4488,39.48490315675738L250.6084,37.95340919494632L250.656,37.10376316308978L250.712,36.382932901382475L250.84640000000002,36.38282740116122L250.8828,35.932235956192045L250.95839999999998,35.85833305120471L251.0984,35.97723180055621L251.20479999999998,34.82590788602832L251.4344,34.72805643081668L251.5324,35.26389205455783L251.6584,34.13108342885974L251.9048,34.97429394721988L251.9384,35.30013138055804L252,35.51735633611682" style="fill: none;" fill="none"></path></g></g></g></g></g></g><g transform="translate(50, 177)" clip-path="url(#clip_1)"><clipPath id="clip_1"><rect width="280" height="23"></rect></clipPath><g><g><line x1="0" y1="0" x2="0" y2="5" style="visibility: inherit;" fill="rgb(0, 0, 0)" stroke="rgb(204, 204, 204)" stroke-width="1px"></line><line x1="28" y1="0" x2="28" y2="5" style="visibility: inherit;" fill="rgb(0, 0, 0)" stroke="rgb(204, 204, 204)" stroke-width="1px"></line><line x1="56" y1="0" x2="56" y2="5" style="visibility: inherit;" fill="rgb(0, 0, 0)" stroke="rgb(204, 204, 204)" stroke-width="1px"></line><line x1="84" y1="0" x2="84" y2="5" style="visibility: inherit;" fill="rgb(0, 0, 0)" stroke="rgb(204, 204, 204)" stroke-width="1px"></line><line x1="112" y1="0" x2="112" y2="5" style="visibility: inherit;" fill="rgb(0, 0, 0)" stroke="rgb(204, 204, 204)" stroke-width="1px"></line><line x1="140" y1="0" x2="140" y2="5" style="visibility: inherit;" fill="rgb(0, 0, 0)" stroke="rgb(204, 204, 204)" stroke-width="1px"></line><line x1="168" y1="0" x2="168" y2="5" style="visibility: inherit;" fill="rgb(0, 0, 0)" stroke="rgb(204, 204, 204)" stroke-width="1px"></line><line x1="196" y1="0" x2="196" y2="5" style="visibility: inherit;" fill="rgb(0, 0, 0)" stroke="rgb(204, 204, 204)" stroke-width="1px"></line><line x1="224" y1="0" x2="224" y2="5" style="visibility: inherit;" fill="rgb(0, 0, 0)" stroke="rgb(204, 204, 204)" stroke-width="1px"></line><line x1="252" y1="0" x2="252" y2="5" style="visibility: inherit;" fill="rgb(0, 0, 0)" stroke="rgb(204, 204, 204)" stroke-width="1px"></line><line x1="280" y1="0" x2="280" y2="5" style="visibility: inherit;" fill="rgb(0, 0, 0)" stroke="rgb(204, 204, 204)" stroke-width="1px"></line></g><g transform="translate(0, 8)"><text x="0" y="0" dx="0em" dy="0.95em" style="text-anchor: middle; visibility: hidden; font-family: &quot;Helvetica Neue&quot;, sans-serif; font-size: 12px; font-weight: 200;" fill="rgb(33, 33, 33)" stroke="none" stroke-width="1px">10k</text><text x="28" y="0" dx="0em" dy="0.95em" style="text-anchor: middle; visibility: inherit; font-family: &quot;Helvetica Neue&quot;, sans-serif; font-size: 12px; font-weight: 200;" fill="rgb(33, 33, 33)" stroke="none" stroke-width="1px">20k</text><text x="56" y="0" dx="0em" dy="0.95em" style="text-anchor: middle; visibility: hidden; font-family: &quot;Helvetica Neue&quot;, sans-serif; font-size: 12px; font-weight: 200;" fill="rgb(33, 33, 33)" stroke="none" stroke-width="1px">30k</text><text x="84" y="0" dx="0em" dy="0.95em" style="text-anchor: middle; visibility: inherit; font-family: &quot;Helvetica Neue&quot;, sans-serif; font-size: 12px; font-weight: 200;" fill="rgb(33, 33, 33)" stroke="none" stroke-width="1px">40k</text><text x="112" y="0" dx="0em" dy="0.95em" style="text-anchor: middle; visibility: hidden; font-family: &quot;Helvetica Neue&quot;, sans-serif; font-size: 12px; font-weight: 200;" fill="rgb(33, 33, 33)" stroke="none" stroke-width="1px">50k</text><text x="140" y="0" dx="0em" dy="0.95em" style="text-anchor: middle; visibility: inherit; font-family: &quot;Helvetica Neue&quot;, sans-serif; font-size: 12px; font-weight: 200;" fill="rgb(33, 33, 33)" stroke="none" stroke-width="1px">60k</text><text x="168" y="0" dx="0em" dy="0.95em" style="text-anchor: middle; visibility: hidden; font-family: &quot;Helvetica Neue&quot;, sans-serif; font-size: 12px; font-weight: 200;" fill="rgb(33, 33, 33)" stroke="none" stroke-width="1px">70k</text><text x="196" y="0" dx="0em" dy="0.95em" style="text-anchor: middle; visibility: inherit; font-family: &quot;Helvetica Neue&quot;, sans-serif; font-size: 12px; font-weight: 200;" fill="rgb(33, 33, 33)" stroke="none" stroke-width="1px">80k</text><text x="224" y="0" dx="0em" dy="0.95em" style="text-anchor: middle; visibility: hidden; font-family: &quot;Helvetica Neue&quot;, sans-serif; font-size: 12px; font-weight: 200;" fill="rgb(33, 33, 33)" stroke="none" stroke-width="1px">90k</text><text x="252" y="0" dx="0em" dy="0.95em" style="text-anchor: middle; visibility: inherit; font-family: &quot;Helvetica Neue&quot;, sans-serif; font-size: 12px; font-weight: 200;" fill="rgb(33, 33, 33)" stroke="none" stroke-width="1px">100k</text><text x="280" y="0" dx="0em" dy="0.95em" style="text-anchor: middle; visibility: hidden; font-family: &quot;Helvetica Neue&quot;, sans-serif; font-size: 12px; font-weight: 200;" fill="rgb(33, 33, 33)" stroke="none" stroke-width="1px">110k</text></g><line x1="0" y1="0" x2="280" y2="0" fill="rgb(0, 0, 0)" stroke="rgb(204, 204, 204)" stroke-width="1px"></line></g></g></g></g></svg>