<svg viewBox="0 0 330 200" xmlns="http://www.w3.org/2000/svg"><g><g><g><g><g><line x1="50" y1="177" x2="45" y2="177" style="visibility: inherit;" fill="rgb(0, 0, 0)" stroke="rgb(204, 204, 204)" stroke-width="1px"></line><line x1="50" y1="151.7142857142857" x2="45" y2="151.7142857142857" style="visibility: inherit;" fill="rgb(0, 0, 0)" stroke="rgb(204, 204, 204)" stroke-width="1px"></line><line x1="50" y1="126.42857142857139" x2="45" y2="126.42857142857139" style="visibility: inherit;" fill="rgb(0, 0, 0)" stroke="rgb(204, 204, 204)" stroke-width="1px"></line><line x1="50" y1="101.1428571428571" x2="45" y2="101.1428571428571" style="visibility: inherit;" fill="rgb(0, 0, 0)" stroke="rgb(204, 204, 204)" stroke-width="1px"></line><line x1="50" y1="75.8571428571429" x2="45" y2="75.8571428571429" style="visibility: inherit;" fill="rgb(0, 0, 0)" stroke="rgb(204, 204, 204)" stroke-width="1px"></line><line x1="50" y1="50.57142857142861" x2="45" y2="50.57142857142861" style="visibility: inherit;" fill="rgb(0, 0, 0)" stroke="rgb(204, 204, 204)" stroke-width="1px"></line><line x1="50" y1="25.285714285714306" x2="45" y2="25.285714285714306" style="visibility: inherit;" fill="rgb(0, 0, 0)" stroke="rgb(204, 204, 204)" stroke-width="1px"></line><line x1="50" y1="0" x2="45" y2="0" style="visibility: inherit;" fill="rgb(0, 0, 0)" stroke="rgb(204, 204, 204)" stroke-width="1px"></line></g><g transform="translate(40, 0)"><text x="0" y="177" dx="0em" dy="0.3em" style="text-anchor: end; visibility: hidden; font-family: &quot;Helvetica Neue&quot;, sans-serif; font-size: 12px; font-weight: 200;" fill="rgb(33, 33, 33)" stroke="none" stroke-width="1px">0.95</text><text x="0" y="151.7142857142857" dx="0em" dy="0.3em" style="text-anchor: end; visibility: inherit; font-family: &quot;Helvetica Neue&quot;, sans-serif; font-size: 12px; font-weight: 200;" fill="rgb(33, 33, 33)" stroke="none" stroke-width="1px">1</text><text x="0" y="126.42857142857139" dx="0em" dy="0.3em" style="text-anchor: end; visibility: inherit; font-family: &quot;Helvetica Neue&quot;, sans-serif; font-size: 12px; font-weight: 200;" fill="rgb(33, 33, 33)" stroke="none" stroke-width="1px">1.05</text><text x="0" y="101.1428571428571" dx="0em" dy="0.3em" style="text-anchor: end; visibility: inherit; font-family: &quot;Helvetica Neue&quot;, sans-serif; font-size: 12px; font-weight: 200;" fill="rgb(33, 33, 33)" stroke="none" stroke-width="1px">1.1</text><text x="0" y="75.8571428571429" dx="0em" dy="0.3em" style="text-anchor: end; visibility: inherit; font-family: &quot;Helvetica Neue&quot;, sans-serif; font-size: 12px; font-weight: 200;" fill="rgb(33, 33, 33)" stroke="none" stroke-width="1px">1.15</text><text x="0" y="50.57142857142861" dx="0em" dy="0.3em" style="text-anchor: end; visibility: inherit; font-family: &quot;Helvetica Neue&quot;, sans-serif; font-size: 12px; font-weight: 200;" fill="rgb(33, 33, 33)" stroke="none" stroke-width="1px">1.2</text><text x="0" y="25.285714285714306" dx="0em" dy="0.3em" style="text-anchor: end; visibility: inherit; font-family: &quot;Helvetica Neue&quot;, sans-serif; font-size: 12px; font-weight: 200;" fill="rgb(33, 33, 33)" stroke="none" stroke-width="1px">1.25</text><text x="0" y="0" dx="0em" dy="0.3em" style="text-anchor: end; visibility: hidden; font-family: &quot;Helvetica Neue&quot;, sans-serif; font-size: 12px; font-weight: 200;" fill="rgb(33, 33, 33)" stroke="none" stroke-width="1px">1.3</text></g><line x1="50" y1="0" x2="50" y2="177" fill="rgb(0, 0, 0)" stroke="rgb(204, 204, 204)" stroke-width="1px"></line></g></g><g transform="translate(50, 0)" clip-path="url(#clip_0)"><clipPath id="clip_0"><rect width="280" height="177"></rect></clipPath><g><g><g><line x1="0" y1="0" x2="0" y2="177" fill="rgb(0, 0, 0)" stroke="rgb(66, 66, 66)" stroke-width="1px" opacity="0.25"></line><line x1="28" y1="0" x2="28" y2="177" fill="rgb(0, 0, 0)" stroke="rgb(66, 66, 66)" stroke-width="1px" opacity="0.25"></line><line x1="56" y1="0" x2="56" y2="177" fill="rgb(0, 0, 0)" stroke="rgb(66, 66, 66)" stroke-width="1px" opacity="0.25"></line><line x1="84" y1="0" x2="84" y2="177" fill="rgb(0, 0, 0)" stroke="rgb(66, 66, 66)" stroke-width="1px" opacity="0.25"></line><line x1="112" y1="0" x2="112" y2="177" fill="rgb(0, 0, 0)" stroke="rgb(66, 66, 66)" stroke-width="1px" opacity="0.25"></line><line x1="140" y1="0" x2="140" y2="177" fill="rgb(0, 0, 0)" stroke="rgb(66, 66, 66)" stroke-width="1px" opacity="0.25"></line><line x1="168" y1="0" x2="168" y2="177" fill="rgb(0, 0, 0)" stroke="rgb(66, 66, 66)" stroke-width="1px" opacity="0.25"></line><line x1="196" y1="0" x2="196" y2="177" fill="rgb(0, 0, 0)" stroke="rgb(66, 66, 66)" stroke-width="1px" opacity="0.25"></line><line x1="224" y1="0" x2="224" y2="177" fill="rgb(0, 0, 0)" stroke="rgb(66, 66, 66)" stroke-width="1px" opacity="0.25"></line><line x1="252" y1="0" x2="252" y2="177" fill="rgb(0, 0, 0)" stroke="rgb(66, 66, 66)" stroke-width="1px" opacity="0.25"></line><line x1="280" y1="0" x2="280" y2="177" fill="rgb(0, 0, 0)" stroke="rgb(66, 66, 66)" stroke-width="1px" opacity="0.25"></line></g><g><line x1="0" y1="177" x2="280" y2="177" fill="rgb(0, 0, 0)" stroke="rgb(66, 66, 66)" stroke-width="1px" opacity="0.25"></line><line x1="0" y1="151.7142857142857" x2="280" y2="151.7142857142857" fill="rgb(0, 0, 0)" stroke="rgb(66, 66, 66)" stroke-width="1px" opacity="0.25"></line><line x1="0" y1="126.42857142857139" x2="280" y2="126.42857142857139" fill="rgb(0, 0, 0)" stroke="rgb(66, 66, 66)" stroke-width="1px" opacity="0.25"></line><line x1="0" y1="101.1428571428571" x2="280" y2="101.1428571428571" fill="rgb(0, 0, 0)" stroke="rgb(66, 66, 66)" stroke-width="1px" opacity="0.25"></line><line x1="0" y1="75.8571428571429" x2="280" y2="75.8571428571429" fill="rgb(0, 0, 0)" stroke="rgb(66, 66, 66)" stroke-width="1px" opacity="0.25"></line><line x1="0" y1="50.57142857142861" x2="280" y2="50.57142857142861" fill="rgb(0, 0, 0)" stroke="rgb(66, 66, 66)" stroke-width="1px" opacity="0.25"></line><line x1="0" y1="25.285714285714306" x2="280" y2="25.285714285714306" fill="rgb(0, 0, 0)" stroke="rgb(66, 66, 66)" stroke-width="1px" opacity="0.25"></line><line x1="0" y1="0" x2="280" y2="0" fill="rgb(0, 0, 0)" stroke="rgb(66, 66, 66)" stroke-width="1px" opacity="0.25"></line></g></g></g><g><g><line x1="0" y1="657.4285714285713" x2="280" y2="657.4285714285713" fill="rgb(0, 0, 0)" stroke="rgb(153, 153, 153)" stroke-width="1.5px"></line></g></g><g><g><line x1="-28" y1="0" x2="-28" y2="177" fill="rgb(0, 0, 0)" stroke="rgb(153, 153, 153)" stroke-width="1.5px"></line></g></g><g><g><g><g><g><path stroke="rgb(255, 112, 67)" stroke-width="2px" d="M14.126000000000001,78.57815633501326L14.1708,90.7499429328101L14.305200000000001,114.98348985538533L14.406,126.01699906312119L14.4088,131.8593448460888L14.425600000000001,134.38177745370967L14.5488,132.40489763406458L14.655199999999999,125.25708591174109L14.7448,124.28039285235712L15.106,120.3269269030326L15.148000000000001,117.29934315801401L15.282399999999999,112.79918729112894L15.5428,116.34034265564367L15.8172,120.53123411559415L15.9376,123.16800989610279L16.1112,120.00704121980587L16.2092,117.76541388642579L16.3212,116.59036605132542L16.3464,115.51207694142735L16.3716,115.12033276587931L16.615199999999998,115.04756435589161L16.828,114.80396973783263L16.8504,114.64247818000547L16.9316,114.40154844840188L17.2452,112.59939126548981L17.5308,111.0759631248286L17.793999999999997,109.89259872031465L17.9172,109.09082574683502L17.956400000000002,108.47836321102166L17.9928,107.99952580437086L18.135599999999997,107.3697756931048L18.158,106.89136888948941L18.230800000000002,106.41095195977444L18.27,106.39478388074116L18.648000000000003,108.74049909954313L19.0092,111.6662391762698L19.0736,113.65776255669573L19.0764,114.89656466926755L19.2724,116.24190856926732L19.2864,117.11342784231033L19.3676,117.34137284370027L19.39,116.89095575556395L19.717599999999997,114.08197229220532L19.7204,112.43875818888134L19.9388,111.88368057354074L19.9892,111.89848330532449L20.02,111.9384483238681L20.0956,111.88545437356599L20.258,112.39828028841833L20.3336,112.74262962848059L20.610799999999998,112.83532310789936L20.8852,113.64588672166687L20.901999999999997,114.12484590302225L21.3304,112.99130826050104L21.520799999999998,113.11785845243799L21.8652,112.853221796229L21.98,112.94161174943798L22.0444,112.45021635102815L22.0724,112.35950696864553L22.1928,112.7950364238806L22.483999999999998,113.29161356183046L22.595999999999997,113.88932515897505L22.7108,114.58967637677459L22.8116,114.74537695273008L22.9236,115.02483940275212L22.948800000000002,115.08352007275127L23.735599999999998,113.69863521085219L23.8056,112.60965678111332L23.9176,111.64922187933706L23.9876,110.69586094742634L24.2228,109.721448458671L24.4356,109.61988346424063L24.696,110.07995881738353L24.7688,110.13666002640953L24.8948,110.52065211434778L25.2,110.83469999968777L25.284000000000002,111.29827330791815L25.368,111.7935910054505L25.3792,112.10886737618459L25.432399999999998,112.49950847829695L25.4772,112.8806771045388L25.502399999999998,113.16809668914107L25.564,113.46676287602469L25.575200000000002,113.71719633754454L25.648,114.10558548528346L25.6928,114.4764806344754L25.858,114.7209617700111L25.956000000000003,114.8446453745154L25.9784,114.85478374570533L26.0904,115.00135689162306L26.278000000000002,115.28952211335867L26.3172,115.47112652179938L26.392799999999998,115.7369770387423L26.4404,116.06159820946016L26.6084,116.86383515727832L26.7512,117.60534690016186L26.975199999999997,117.63992439964477L27.031200000000002,117.66067089933449L27.1488,117.9013368777616L27.288800000000002,118.26650321351872L27.297199999999997,118.52495761179222L27.3448,118.83238462741292L27.4232,118.91218461730293L27.5352,119.09869793054675L27.7284,119.08451205405207L27.739600000000003,119.10040423647693L28.058799999999998,119.65299439909876L28.0868,120.01514958941911L28.4844,120.20504881759017L28.8008,121.11005915636399L28.9156,121.96023377524276L29.162000000000003,122.75857720819977L29.3048,123.41200226233266L29.3776,123.93663791571441L30.175600000000003,125.4447413532059L30.2092,126.3313729774684L30.2428,126.82460021361382L30.3072,126.94881836660653L30.323999999999998,127.03948174937763L30.497600000000002,127.50285892245546L30.5732,128.0495430468675L30.6544,128.4545023686042L30.8616,128.90066535919436L31.337600000000002,129.99109607896355L31.415999999999997,130.81468538022727L31.477600000000002,131.44643536383495L31.491600000000002,131.9179638336574L31.6232,132.44166256336933L31.8528,132.44213017177577L31.9536,132.2501712479455L32.379200000000004,132.4244643864277L32.4212,132.54396704367824L32.4688,132.63076421254382L32.956,132.86796827353288L33.059599999999996,133.122133001822L33.222,133.02362571239166L33.4152,133.11482599680588L33.644800000000004,133.40162253987333L33.9976,134.16910754295827L34.0452,134.55460295895887L34.1544,134.63829635615096L34.538000000000004,134.95058700122541L34.6864,135.3650702074143L34.8292,135.89348643204835L34.9384,136.26701194241122L35.366800000000005,136.6708755113068L35.4704,136.97671081442223L35.4928,137.11007829115232L35.7448,137.13750540975008L35.7812,137.1824889407353L35.8568,137.23463031207302L35.882,137.2686159405397L35.898799999999994,137.3145202854106L35.924,137.3937399149946L36.069599999999994,137.76110013490978L36.1032,137.99540612455982L36.108799999999995,138.12967176224288L36.1144,138.2159221282163L36.1592,138.26260833718018L36.3664,138.640494967736L36.394400000000005,138.93923235422042L36.461600000000004,138.92102660059905L36.5876,138.85456783195895L36.6184,138.81259462351787L36.660399999999996,138.8103675465978L36.694,138.8433942296537L36.7584,138.91023319524552L36.800399999999996,139.01554173991858L36.876000000000005,139.08605762495355L36.9404,139.17618588483018L37.1588,139.33860855369042L37.326800000000006,139.59338408493812L37.427600000000005,139.75587102386498L37.6824,140.01803998972014L37.9428,140.27811667048522L38.3152,140.12588500386056L38.550399999999996,139.6953778640194L39.0068,139.4445249100272L39.0684,139.31680118542235L39.0852,139.21513626959432L39.205600000000004,139.2428539632946L39.443599999999996,139.16577626870645L39.564,138.9047432586517L39.858000000000004,138.66743688340495L40.0092,138.6374740940235L40.233200000000004,138.56338235985652L40.437599999999996,138.35646903579564L40.446,138.23552824808522L40.499199999999995,138.16474823634417L40.6364,138.11244158009475L40.754000000000005,138.12400521927088L40.8212,138.17507263818044L40.9304,138.15080474580242L40.9836,138.15541490772318L41.0368,138.20558979001441L41.042399999999994,138.24121690239872L41.0928,138.3033463981531L41.1992,138.4514294708411L41.445600000000006,138.56137935870441L41.5184,138.71129129603497L41.5268,138.82441233560442L41.563199999999995,138.9087068223571L41.6976,139.03847499477263L41.8404,139.20929666460557L84.07000000000001,122.86323208528508L84.13440000000001,141.02255656074138L84.3024,163.3262096849974L84.434,158.34150029808518L84.504,149.5275929682013L84.5628,142.1017779161921L85.01920000000001,149.98854876886725L85.2096,156.8774095750847L85.5428,156.58186294214204L85.57079999999999,156.20809957898845L85.5904,155.58444786635494L85.6492,155.4911767993418L85.8088,155.82135702608593L86.0804,154.76005777807745L86.22319999999999,155.9880157399535L86.29599999999999,156.30365774817568L86.33239999999999,156.02784123464232L86.3828,156.56384942625812L86.604,156.75387446528157L86.9708,158.77679240628513L87.0492,159.1420923058229L87.13040000000001,160.01838790934647L87.1444,160.3370351799297L87.346,159.42535437222693L87.5616,159.47601971246053L87.85,160.8208793303973L87.9564,161.29289519881564L87.9592,161.53769058216258L88.1132,161.59853991746948L88.1384,161.47720913049181L88.3456,159.01433027445947L88.4548,157.77300785662254L88.87480000000001,157.86325770000957L88.95599999999999,157.81380036018777L89.0232,156.70790312783842L89.0904,155.63262455350878L89.2332,155.21011713301033L89.278,154.35052295249204L89.3228,153.72475684204312L89.3788,153.62200620483526L89.6644,151.31562460063034L89.6924,149.75653264197865L90.006,147.93851687304644L90.11800000000001,147.1844882322612L90.2244,147.18481771156485L90.4512,147.4035636289095L90.5772,147.9934899698175L90.5968,148.33558152090933L90.7536,148.89739102789338L90.8068,149.45632862591754L91.0924,150.61127718926167L91.11200000000001,151.3826540917029L91.1876,151.72224391757663L91.56559999999999,151.627811987753L91.7924,151.57108048685L91.87639999999999,151.8109081035114L91.96600000000001,151.7616970685277L91.98559999999999,151.7797239186941L92.0528,151.68380997639088L92.10879999999999,151.42575090478857L92.3776,152.1732859828276L92.41959999999999,152.751023700641L92.4252,153.09233706300984L92.47,153.3506709641548L92.7248,153.5692005237879L92.988,153.3999742011223L93.016,153.3334283094743L93.1532,153.3673027006896L93.32119999999999,153.3181659897462L93.9316,153.65039900747422L93.982,153.87814550625632L94.2732,154.3117976283954L94.31240000000001,154.6369529236341L94.3964,154.76251241209582L94.4692,155.06455903776828L94.5196,155.424136644345L94.5616,155.80489761149798L94.69319999999999,155.81451658999188L94.93679999999999,156.07075153092555L95.032,156.02536836360184L95.03479999999999,155.9710580635582L95.1608,155.95333837185245L95.3092,156.18448894960332L95.326,156.37161294068483L95.3596,156.69574383677678L95.4324,156.87571760115583L95.438,157.05644275519074L95.5332,157.14635803734384L95.6536,157.57861291429472L95.74040000000001,158.04454130226162L95.8692,158.62385159224826L96.0736,158.98448362217107L96.1184,159.13729744967418L96.4544,158.86672812931556L96.5244,158.70422979391452L96.6224,158.7885528882724L96.81280000000001,158.32459503721063L97.0088,157.9145198789461L97.1964,157.34939388624738L97.2356,156.94567981221277L97.384,156.09961633001566L97.76759999999999,154.55273474693604L97.7788,153.6274995174426L97.78439999999999,153.04453043567221L97.9832,152.60095627562444L98.0672,152.24743348206255L98.2604,151.6254846035721L98.3024,151.15050454867716L98.4396,150.61865805517755L98.476,150.273868390933L98.4788,150.0865754334507L98.5628,149.99720473577838L98.8204,150.08062409028994L99.06400000000001,150.1326771929086L99.11999999999999,150.00928793021225L99.2964,149.82604054355386L99.5036,149.80032348820677L99.5176,149.79670927977884L99.5484,149.80136511189104L99.8844,150.22772692802673L100.00200000000001,150.64947476569398L100.1308,150.841924141207L100.6516,151.02445573572695L101.1024,150.92133447506652L101.13600000000001,150.8592205753074L101.2984,150.83164619863902L101.34039999999999,150.8450274639693L101.402,150.69703646739526L101.584,150.60006710944975L101.6008,150.5581626716757L101.7548,150.76777307275813L101.794,150.92245240261482L101.8164,151.05825586212728L101.8304,151.1388939360647L102.0236,151.02023677297214L102.30080000000001,151.14118550664563L102.5668,151.00779420062867L102.5892,150.9619776602088L102.69000000000001,150.84926767152103L102.7432,150.72996465564697L102.7712,150.65642958488334L103.0736,150.67512638845102L103.09320000000001,150.64682107341835L103.1912,150.60080422351012L103.4096,150.58544419639864L103.8128,150.76468171820892L103.8912,151.0850091346851L104.00880000000001,151.3135217750179L104.0676,151.46420573054684L104.2412,151.65842832157654L104.2692,151.81144686699554L104.3056,151.83128875760053L104.328,151.83576667638732L104.6388,151.64253650250163L104.7508,151.44292165125674L104.7872,151.33275024635188L104.8684,151.3768016915647L104.8936,151.40677736612642L105.08959999999999,151.47822425441004L105.55160000000001,151.44071930453816L105.5656,151.44819045461873L105.63,151.44481187103779L105.8904,151.5455841364777L105.952,151.58473042246456L106.3244,151.55106721705815L106.48679999999999,151.56655851151797L106.5316,151.54464933703946L106.7864,151.64303263767633L106.8536,151.70546273947485L106.96560000000001,151.6583035945255L107.0048,151.57980205940785L107.0412,151.42999818009397L107.10000000000001,151.32174072825552L107.10560000000001,151.2712789732605L107.36880000000001,151.31433361691003L107.548,151.2879106363674L107.61800000000001,151.24005712378994L107.6292,151.19378977942705L107.8868,151.12399808466242L107.9456,151.01151629115742L108.0296,150.98994091134344L108.1668,151.01859291354882L108.416,151.20465681188483L108.44120000000001,151.26256840964066L108.91159999999999,151.4581338769873L108.92280000000001,151.61263334961242L108.93960000000001,151.73923779000597L109.1048,151.8803815052239L109.25319999999999,151.97335100886906L109.2616,152.04311902610218L109.3652,152.18111163804727L109.5248,152.3280151682314L109.57799999999999,152.46290292723282L109.7712,152.48183762404165L110.14359999999999,152.17433457341357L110.2164,151.8982706081577L110.27799999999999,151.69848632882284L110.38719999999999,151.65922998742693L110.4684,151.70676524596135L110.4964,151.7233859761247L110.4992,151.73005475015148L110.6728,151.73714264961222L110.67840000000001,151.75039003672347L110.8716,151.8971044171495L110.88000000000001,151.98407201460853L110.88279999999999,152.03615611573883L111.0088,152.0510449992467L111.0732,152.08070460138958L111.12920000000001,152.15454208020458L111.4512,152.26712431068816L111.566,152.40806563146558L111.7144,152.5364220586278L111.75359999999999,152.57226068571646L111.986,152.4742893828393L112.18480000000001,121.41669610546396L112.3388,123.66763913958806L112.3836,128.63861083840192L112.40599999999999,134.20895151324277L112.7952,144.64761925781664L113.00800000000001,152.72653296957213L113.3552,157.36800505058133L113.3664,159.55128383751696L113.4028,160.7386417668308L113.49799999999999,162.33893432931148L113.7976,163.75306224738895L113.834,163.8446382108819L114.03,161.55434401345627L114.086,158.02807149596435L114.156,155.58177277799328L114.1616,154.19455954474302L114.254,153.32100814691154L114.37440000000001,152.61169126270224L114.4108,152.89620804996665L114.4248,152.8852045412401L114.436,152.9407450806139L114.5172,151.3858509877517L114.5648,150.47179605734652L114.5788,149.73618762084936L114.58439999999999,149.37784821878475L114.6348,149.21618548941117L114.6964,149.4280442709416L114.7328,149.24514563256352L114.82520000000001,147.66484187979097L114.842,146.6120516373176L114.95400000000001,145.95474395236118L115.02680000000001,144.95723567653147L115.2452,144.6985258236435L115.31519999999999,145.115533111984L115.3208,145.23457960992727L115.43560000000001,145.20458261027315L115.51679999999999,145.23903309190334L115.7828,143.61496096013988L116.0824,140.9565894638752L116.1104,139.23614790309142L116.1244,137.98229633048658L116.1272,137.29364723471943L116.18599999999999,136.67637814926843L116.19999999999999,136.33427870012534L116.466,137.4778544308121L116.7768,137.57358445959107L116.78800000000001,137.64758902588724L117.0596,137.08281540240108L117.0876,136.76845139397616L117.4656,135.77412478492437L117.50479999999999,135.34927112252402L117.5692,135.07989032331216L117.852,134.23987733537956L117.93879999999999,133.19286291812577L118.1936,132.09907877709438L118.3056,131.2936128938725L118.3672,130.97783154378368L118.57719999999999,130.77326715921527L118.9272,130.9207537808982L119.2492,131.72722600249537L119.50959999999999,132.71058958295123L119.5544,133.51360966364138L119.994,133.3404039955115L119.9968,133.24569227109495L120.0108,133.07736054545722L120.0668,132.95813107184213L120.3468,131.79242949301988L120.9152,130.38274488475062L120.974,129.5547546143046L121.13640000000001,129.15137939081004L121.212,129.06404772398975L121.2708,129.02413995009385L121.41640000000001,128.8926453459195L121.47800000000001,128.65131441419052L121.4836,128.414350861867L121.576,128.27947937436772L121.6628,128.3186699909101L121.6684,128.298513297821L121.73559999999999,127.8773919098798L121.7384,127.61280659498964L121.8028,127.32304221701217L122.1164,126.43564037951496L122.164,125.9482689715357L122.35719999999999,125.5545659143458L122.4468,125.35883205065649L122.6932,125.7310333307357L122.8304,125.82452251221794L122.948,125.87656481261115L122.96199999999999,125.80081899708125L123.2168,125.84206254671241L123.2588,125.88371282622772L123.2756,125.78193392808008L123.29520000000001,125.8627071152273L123.536,125.55618388304532L123.6004,124.90536816456138L124.0932,124.3403873961036L124.1828,124.0302396812273L124.2556,123.94866258576619L124.35919999999999,123.91874253981945L124.3872,123.93968693668114L124.66999999999999,124.48055045415785L124.6756,124.83226953597466L124.7876,125.14069878932513L124.9248,125.39592905992845L125.2524,125.64386067823176L125.4064,126.30463935158016L125.42880000000001,126.74140161152354L125.482,127.09118692289908L125.50999999999999,127.28752996706774L125.5184,127.41638015958806L125.5324,127.54821278944348L125.77319999999999,127.21734453615387L125.9244,126.70861676219342L126.1988,95.04471136176818L126.2968,89.1947823246118L126.49,105.07429459400328L126.6608,116.99990744160877L126.6636,124.41990587657759L126.9128,118.08368139847894L127.23479999999999,125.54821285323877L127.27680000000001,129.66111724463195L127.7724,128.7931719696603L127.79199999999999,128.59102753002793L127.88719999999999,129.5514135347055L128.114,131.96691790907494L128.2148,133.86214284030234L128.31,134.08818994547084L128.4584,132.3034489240783L128.6488,130.91530787438802L128.6572,129.9238714834916L128.6908,129.39985756896291L128.7916,128.24422059889903L128.98760000000001,127.21080216088787L128.9988,126.67442784499461L129.1584,125.46259133180492L129.528,123.79269121810677L129.72119999999998,122.91875004689538L129.9172,122.24726377848597L130.21959999999999,120.97965603255085L130.2728,120.60260578928676L130.56119999999999,121.580332111093L130.9112,122.15556182311329L131.236,123.55900552692117L131.9472,123.32988881703332L132.1292,122.74620711245953L132.4316,123.34962363249211L132.4484,123.74352858274577L132.552,123.85042579571328L132.8656,124.18428297485582L133.4788,122.15291191639193L133.4872,120.93493328308361L133.6748,120.11813026556547L134.0584,118.94320130452451L134.0808,118.26993016578001L134.246,118.32898685356608L134.2992,118.5657755742281L134.4616,119.24634605023402L134.6884,119.8357146583387L134.73600000000002,120.27474880232748L134.9292,120.80680299494982L135.1532,120.5102759334532L135.15879999999999,120.28912269159397L135.4164,120.1536575978055L135.54240000000001,119.66802935068418L135.7776,118.99347559882256L136.1836,118.59882314027331L136.2004,118.35638891045275L136.22,118.26487214283279L136.2424,118.18944078208112L136.4244,118.52837157134309L136.4888,118.7995877872098L136.7212,118.50904033755677L136.7296,118.3049306624514L136.7548,118.28613238908281L136.962,118.32788085055523L137.2112,117.8212088123264L137.3456,117.61134795825063L137.3988,117.76964301327521L137.4576,118.03156359639989L137.5164,118.30673150805968L137.606,118.54832292975561L137.6396,118.74285685817776L137.998,118.77127051575069L138.0456,118.84766409189491L138.0596,118.85455558447919L138.09879999999998,118.79765709488925L138.1016,118.75196723405404L138.16039999999998,118.73183584711143L138.2052,118.78573383902506L138.3004,118.76492463699827L138.3144,118.74185292215259L138.6168,118.29274612327794L138.656,118.03239726306936L138.8324,117.75006996816697L138.9248,117.00209832070901L138.98080000000002,116.59430970392098L139.048,116.2859023430436L139.0592,116.07346404049585L139.0984,116.03240272588087L139.18519999999998,116.08225512190023L139.2104,116.1563922522609L139.3196,116.14312069507159L139.4904,116.27726354449305L139.65279999999998,116.57099232992549L139.86839999999998,116.27087500218593L139.8796,116.09454232766649L139.9552,116.06798243199157L140.2996,116.11156067654117L140.7924,115.43352077503914L140.83720000000002,115.0308686143155L140.98559999999998,115.04390059472806L141.17880000000002,115.04663165801915L141.26559999999998,115.10344389741687L141.288,115.15414601875673L141.5036,115.31140870042643L141.52880000000002,115.46923524253367L141.6548,115.46424250159066L141.8452,115.37578564922623L142.76360000000003,115.26102706558726L143.1556,114.85939407465332L143.2144,114.55899655548365L143.29840000000002,114.368750594423L143.3348,114.24968369318424L143.3796,114.15002977898604L143.3992,114.04919483010791L143.64000000000001,113.6612935170223L143.766,113.57273234582655L143.8192,113.51636432204673L143.9032,113.46067180476722L143.91719999999998,113.3998624083783L144.2644,113.00703922324266L144.648,112.61426452559249L144.7096,112.29446478769961L144.73760000000001,112.1047793495659L144.8356,112.02704313377L144.96159999999998,111.90282558445945L144.9924,111.81826349097803L145.1156,111.48847513538455L145.45440000000002,111.6141682863176L145.45999999999998,111.69797596590503L145.6224,112.02875853333941L145.63920000000002,112.22211583450732L145.67,112.40656670158856L145.7372,112.42663966040972L145.7652,112.42204454366491L145.8688,112.19622986297001L145.9304,111.94123040391835L145.9444,111.82999675893511L146.0788,111.72247922928506L146.286,111.38856334650492L146.3056,111.16491936798413L146.412,110.94770732103812L146.97760000000002,110.75405584578277L147.1652,110.29204126394815L147.3416,109.88516972863603L147.3836,109.61044571470154L147.66639999999998,109.61880046954879L147.6748,109.61633787820845L147.8652,109.75416884413002L148.1984,109.76556133128446L148.3244,109.81546502818436L148.5736,109.88377315535577L148.8928,110.1632970462025L148.96,110.34726444336738L148.9824,110.53042194857828L149.15599999999998,110.35432042334965L149.40240000000003,110.11902083633743L149.5368,110.09074440662253L149.7132,110.32017883696673L149.74400000000003,110.46939026225436L149.9148,110.65392760239473L150.374,110.52179452573994L150.6092,110.54623044011437L150.6876,110.5154123505031L150.9452,110.451490087173L150.9676,110.4601355705969L151.0684,110.53337351765116L151.284,110.79940932308025L151.3092,110.96932762793185L151.6844,111.16262371669531L151.9056,111.18872723861442L152.38719999999998,111.04427015882504L152.4572,110.96533661289932L152.50199999999998,110.94483985596678L152.89679999999998,110.77811359222997L152.9388,110.55538409096334L153.0256,110.47166306631593L153.314,110.47583239418934L153.4484,110.55427003587883L153.59120000000001,110.62817187717913L153.69480000000001,110.78539219011537L153.84879999999998,110.6950567905968L153.8544,110.65833844469323L153.8992,110.60146222121743L153.91039999999998,110.5644668811139L154.05319999999998,110.40452858818459L154.66920000000002,110.09751694124962L154.6916,109.92553592158575L154.7028,109.85265903049918L154.854,109.79304154823468L155.13400000000001,109.56698483124102L155.6212,109.2866165546545L155.834,108.96056725770899L155.9264,108.78690583989845L155.988,108.63146602460385L156.0636,108.29947020619298L156.94,107.44221659223034L157.3012,106.801867016757L157.3684,106.56055882830539L157.5532,106.42339404550096L157.6428,106.32011570324919L157.78,106.08201758566324L157.7912,105.94193186378455L158.02919999999997,105.71808962320583L158.94480000000001,105.28609279740456L159.09040000000002,105.09436661485282L159.0988,104.97810107417116L159.14079999999998,104.8982378428583L159.6308,104.73259371432098L159.8212,104.47477604779769L159.8716,104.33337244717752L160.1992,104.1167454390009L160.2132,103.97201126028772L160.272,103.88256640474096L160.2748,103.83936511336113L160.286,103.83912610667814L160.4008,103.86181897913137L160.45399999999998,103.8559262045477L160.524,103.87742122086263L160.78719999999998,103.94848200977408L160.874,104.04834180312835L160.8796,104.10963219630922L161.056,104.17102716956592L161.0644,104.19149051918167L161.3304,103.98420749706466L161.43679999999998,103.78399809617416L161.4396,103.65994181882512L161.71679999999998,103.61688080392413L161.83440000000002,103.63587274613973L162.1172,103.41748240099717L162.2656,103.29399598116929L162.37480000000002,103.36714626663647L162.43359999999998,103.47701326199599L162.708,103.3807645476866L162.71640000000002,103.32443806494176L162.7836,103.25302381068836L162.86479999999997,103.18912344255831L163.05519999999999,103.01152292962713L163.0804,102.92864290010152L163.786,102.85099048096667L163.8364,102.77837966063285L164.1164,102.67107897762801L164.1304,102.6037325044619L164.1332,102.56920851861607L164.19760000000002,102.51249142303318L164.6512,102.24378044494541L164.6652,102.09767354694424L164.72959999999998,101.95411237663194L164.836,101.92160595834525L164.9592,101.97036979339961L165.0796,102.0333158222242L165.2112,102.0511891120828L165.4184,102.13871724706969L165.4968,102.22972060877471L165.5808,102.23881887322548L165.7516,102.24529063402L165.774,102.19814775491496L165.78240000000002,102.17692752798388L165.9504,102.09747102332108L165.9924,102.05054466494826L166.0932,101.95658082619933L166.2164,101.86108906949363L166.2752,101.76029175280976L166.3312,101.6728776491677L166.5468,101.57574532184395L166.7008,101.36298948719991L166.7204,101.24970813084019L166.9612,101.03485889470463L166.96400000000003,100.90768558523585L167.21599999999998,100.8013833652144L167.37279999999998,100.69938081018782L167.46239999999997,100.58302979008515L167.86,100.69108652247115L167.9048,100.73590566278517L167.96079999999998,100.75341667015826L167.9664,100.76814328343212L168.1008,100.77232518449316L168.17919999999998,100.8315512440752L168.2212,100.67482327661394L168.3696,100.63337986357746L168.91559999999998,100.62102915628819L169.106,100.55492443739394L169.1648,100.44971884003127L169.2264,100.3640968058585L169.3328,100.2075850791467L169.3664,100.08529546931072L169.5148,99.8849597228619L169.69680000000002,99.73304792277615L170.04399999999998,99.53953548518943L170.24839999999998,99.32183432386336L170.3408,99.19487900618324L170.39960000000002,99.08325774123438L170.5732,98.94994644314156L170.6208,98.80135437755136L170.66559999999998,98.69187075270787L170.68800000000002,98.64621959125577L170.78879999999998,98.59469044376188L170.898,98.48636593578665L170.996,98.45599941790854L171.2172,98.15747446219004L171.3824,97.55826363631581L171.4076,97.19309438610027L171.514,96.89405381118198L171.5448,96.7140507221601L171.60920000000002,96.61070293565031L171.70159999999998,96.58177913312907L171.70440000000002,96.56440073728011L171.7352,96.58426130614635L171.86960000000002,96.67597198623733L171.8724,96.72822524561899L172.0404,96.761940406204L172.1384,96.79268335317595L172.4184,96.48141380131683L172.5416,96.3429048571102L172.63400000000001,96.28082719182781L172.6788,96.23350080009081L172.6984,96.20146370026937L173.3256,95.8433385582091L173.41799999999998,95.64416190589542L173.47119999999998,95.55600455167941L173.5216,95.51405804782365L173.6056,95.42990647895408L173.7288,95.43784457445393L173.74,95.42994740520355L173.88,95.40895604099643L173.9024,95.41025108017293L174.132,95.34384556278529L174.1852,95.23112872809563L174.2748,95.18069214905398L174.43439999999998,95.14196606959244L174.5828,95.07959285412288L174.7312,95.01926030536914L174.8264,94.96427570814998L175.0252,94.78457332785284L175.0448,94.6583285467518L175.86520000000002,94.38072056903883L175.92680000000001,94.2049682202859L176.05,94.02835540465331L176.3944,94.04628717511272L176.54840000000002,93.90534294781145L176.5624,93.8270702532013L176.76680000000002,93.90111237591981L176.80599999999998,93.96849449769546L176.87040000000002,93.99247779341353L177.10559999999998,93.96686208694551L177.40800000000002,93.88375549243653L177.7972,93.9260083003447L178.29559999999998,93.59507066645999L178.5112,93.3862353788712L178.584,93.18627622117566L178.766,92.97278533044006L179.1524,92.80577025723274L179.1748,92.75017273543797L179.1888,92.72443435262747L179.19160000000002,92.71446527727821L179.578,92.7611977711904L179.69,92.77609495426172L179.816,92.74700495578108L180.11839999999998,92.47282973258898L180.3256,92.39983850488022L180.33960000000002,92.37097054241616L180.3536,92.36520053201876L180.80159999999998,92.41479006561013L180.96120000000002,92.29829033618877L181.2972,92.27688442880763L181.5884,92.25200783057208L181.59959999999998,92.25355196331428L181.8432,92.30777112615226L181.85999999999999,92.3239531038529L181.88799999999998,92.33568789472137L238.2464,43.96363096694412L238.2632,17.349370776603877L238.37800000000001,15.849633463189605L238.3836,13.165330189956904L238.3892,13.350808106955157L238.40040000000002,13.740494869579095L238.546,17.97470651669201L238.75039999999998,20.327286367944566L238.7672,20.434128113927386L238.8484,18.224805879456113L238.9688,14.518355888557181L238.9744,11.96812246671928L239.0976,14.466378747583548L239.2516,17.236881468477293L239.4112,20.660011936637034L239.4392,23.472093179046L239.59879999999998,23.784607727147176L239.6548,22.967151491277463L239.834,23.453694198730346L240.2876,25.554797903079617L240.52280000000002,28.21925209825818L240.6824,30.63648576060291L240.73000000000002,32.19343543873137L240.84199999999998,32.36617096303303L240.8588,32.61276206311908L241.2396,32.38733034011403L241.2704,31.86462626519949L241.30960000000002,31.848888216395068L241.4496,33.4591330124525L241.5,35.13477189230167L241.7436,38.74452765346487L241.9676,40.35261651186127L242.0348,41.619477774548386L242.41,41.990437373172824L242.69,41.21766978779536L242.8664,40.829728252507664L243.07080000000002,40.79795632428116L243.3172,40.05987600229747L243.4236,39.71724699071302L243.74,39.3213833561274L243.82119999999998,38.31994711616318L243.8296,37.49224181073973L244.03119999999998,35.55625800889436L244.0872,34.161120380854555L244.3056,32.72209574165274L244.3532,31.768469226084733L244.37279999999998,31.335674180478577L244.60240000000002,31.316947601287325L244.6584,31.081810041354487L244.6808,31.19050380064803L244.7732,30.67007928517569L244.9832,30.359343779078415L245.2072,29.981627559997293L245.34720000000002,29.76811602748836L245.4844,28.163102467793863L245.5768,26.879036058661825L245.7168,26.298183125065265L245.74200000000002,25.49521258325629L246.036,25.991314823251713L246.176,25.498194737413343L246.2628,25.100319043419375L246.88719999999998,25.610199082694038L246.99360000000001,25.9488743749356L247.0328,26.104381393106195L247.0748,26.11941046842341L247.0776,26.122351100869565L247.2848,25.234971672789868L247.3716,25.103131370329493L247.51160000000002,25.303030059685483L247.5732,25.584366526063206L247.66840000000002,26.140396417974642L247.8448,26.561091221451363L247.94,26.94647455381977L247.9792,27.28923335856487L248.1192,27.436170232554815L248.15,27.539090330756096L248.1696,27.592474714985485L248.318,27.526866397899994L248.5392,28.481156748660823L248.7044,29.24486118852238L248.9228,29.13186345449003L249.1076,29.36932819711859L249.53879999999998,29.242281106024052L249.6648,29.19805257561916L249.6844,29.061554083910863L250.166,29.789800230759454L250.1688,30.230389183647873L250.4488,30.51097150370157L250.6084,29.998934897416632L250.656,29.287604886160324L250.712,28.53497396750646L250.84640000000002,28.09376458091711L250.8828,27.632265964867656L250.95839999999998,27.34075350744834L251.0984,27.251186669113906L251.20479999999998,26.68595737914515L251.4344,26.234977513468124L251.5324,26.225813113741424L251.6584,25.728020298621203L251.9048,25.85245475402803L251.9384,26.070957443219697L252,26.28281796895746" style="fill: none;" fill="none"></path></g></g></g></g><g opacity="0.2"><g><g><g><path stroke="rgb(255, 112, 67)" stroke-width="2px" d="M14.126000000000001,78.57815633501326L14.1708,98.0530148914882L14.305200000000001,138.24769490105763L14.406,138.99240589141846L14.4088,139.4871115003313L14.425600000000001,137.8712098257882L14.5488,129.57792786189486L14.655199999999999,114.83550780160087L14.7448,122.83996030262537L15.106,114.45649072102137L15.148000000000001,112.78542750222341L15.282399999999999,106.07344314030237L15.5428,121.64051321574618L15.8172,126.80936091286793L15.9376,127.12007413591657L16.1112,115.26781756537301L16.2092,114.4039214679173L16.3212,114.82809264319283L16.3464,113.89480754307337L16.3716,114.53275230952671L16.615199999999998,114.93841573170252L16.828,114.43858582632882L16.8504,114.40024403163365L16.9316,114.04015670503888L17.2452,109.8961683000837L17.5308,108.79082741056169L17.793999999999997,108.11755514144896L17.9172,107.8881675175258L17.956400000000002,107.55966997146606L17.9928,107.28126995904104L18.135599999999997,106.42515073503766L18.158,106.17375877925328L18.230800000000002,105.69032662255422L18.27,106.37053176334925L18.648000000000003,112.2590718269348L19.0092,116.05484921591622L19.0736,116.64504759652274L19.0764,116.75476782662528L19.2724,118.25992441177368L19.2864,118.4207067489624L19.3676,117.68329034532819L19.39,116.21533012390137L19.717599999999997,109.8684970991952L19.7204,109.97393703460692L19.9388,111.051064150674L19.9892,111.92068740299769L20.02,111.9983958516802L20.0956,111.80596344811575L20.258,113.1675191606794L20.3336,113.25915363856724L20.610799999999998,112.97436332702635L20.8852,114.86173214231218L20.901999999999997,114.84328467505318L21.3304,111.2910017967224L21.520799999999998,113.30768374034336L21.8652,112.4562668119158L21.98,113.07419667925153L22.0444,111.7131232534136L22.0724,112.22344289507184L22.1928,113.44833060673304L22.483999999999998,114.03647926875523L22.595999999999997,114.78589255469186L22.7108,115.64020320347376L22.8116,114.97892781666346L22.9236,115.44403307778495L22.948800000000002,115.17154107775006L23.735599999999998,111.62130791800362L23.8056,110.97618913650511L23.9176,110.20856952667235L23.9876,109.26581954956053L24.2228,108.25982972553797L24.4356,109.4675359725952L24.696,110.77007184709821L24.7688,110.22171183994837L24.8948,111.09664024625505L25.2,111.30577182769774L25.284000000000002,111.99363327026366L25.368,112.53656755174909L25.3792,112.58178193228585L25.432399999999998,113.08547013146537L25.4772,113.45243004390171L25.502399999999998,113.5992260660444L25.564,113.91476215635026L25.575200000000002,114.09284652982439L25.648,114.68816920689173L25.6928,115.03282335826329L25.858,115.08768347331456L25.956000000000003,115.03017078127179L25.9784,114.86999130249023L26.0904,115.2212166104998L26.278000000000002,115.72176994596208L26.3172,115.74353313446045L26.392799999999998,116.13575281415666L26.4404,116.54852996553693L26.6084,118.06719057900565L26.7512,118.71761451448712L26.975199999999997,117.6917906488691L27.031200000000002,117.6917906488691L27.1488,118.2623358454023L27.288800000000002,118.81425271715436L27.297199999999997,118.91263920920235L27.3448,119.29352515084403L27.4232,119.03188460213798L27.5352,119.37846790041242L27.7284,119.06323323931012L27.739600000000003,119.12424251011439L28.058799999999998,120.48187964303153L28.0868,120.55838237489972L28.4844,120.48989765984672L28.8008,122.46757466452462L28.9156,123.23549570356096L29.162000000000003,123.9560923576355L29.3048,124.39213984353202L29.3776,124.72359139578683L30.175600000000003,127.706896509443L30.2092,127.66132041386194L30.2428,127.56444106783185L30.3072,127.13514559609547L30.323999999999998,127.17547682353427L30.497600000000002,128.19792468207223L30.5732,128.8695692334856L30.6544,129.06194135120936L30.8616,129.56990984507968L31.337600000000002,131.62674215861728L31.415999999999997,132.0500693321228L31.477600000000002,132.39406033924647L31.491600000000002,132.6252565383911L31.6232,133.22721065793718L31.8528,132.44283158438543L31.9536,131.96223286220004L32.379200000000004,132.68590409415106L32.4212,132.72322102955408L32.4688,132.7609599658421L32.956,133.22377436501637L33.059599999999996,133.5033800942557L33.222,132.87586477824618L33.4152,133.251626423427L33.644800000000004,133.83181735447474L33.9976,135.32033504758562L34.0452,135.13284608295984L34.1544,134.76383645193917L34.538000000000004,135.41902296883717L34.6864,135.98679501669747L34.8292,136.68611076899936L34.9384,136.8273002079555L35.366800000000005,137.27667086465016L35.4704,137.43546376909526L35.4928,137.31012950624736L35.7448,137.17864608764648L35.7812,137.24996423721313L35.8568,137.3128423690796L35.882,137.31959438323975L35.898799999999994,137.38337680271692L35.924,137.51256935937062L36.069599999999994,138.31214046478271L36.1032,138.34686510903492L36.108799999999995,138.33107021876742L36.1144,138.34529767717632L36.1592,138.33263765062603L36.3664,139.20732491356983L36.394400000000005,139.38733843394687L36.461600000000004,138.89371797016688L36.5876,138.75487967899866L36.6184,138.7496348108564L36.660399999999996,138.80702693121773L36.694,138.89293425423756L36.7584,139.01049164363315L36.800399999999996,139.17350455692835L36.876000000000005,139.1918314525059L36.9404,139.3113782746451L37.1588,139.58224255698067L37.326800000000006,139.97554738180975L37.427600000000005,139.9996014322553L37.6824,140.4112934385027L37.9428,140.66823169163294L38.3152,139.89753750392367L38.550399999999996,139.04961715425762L39.0068,139.06824547903878L39.0684,139.1252155985151L39.0852,139.06263889585222L39.205600000000004,139.28443050384521L39.443599999999996,139.05015972682406L39.564,138.5131937435695L39.858000000000004,138.31147732053483L40.0092,138.59252990995134L40.233200000000004,138.45224475860596L40.437599999999996,138.0460990497044L40.446,138.05411706651958L40.499199999999995,138.05857821873255L40.6364,138.03398159572055L40.754000000000005,138.14135067803517L40.8212,138.25167376654488L40.9304,138.11440290723527L40.9836,138.16233015060425L41.0368,138.28085211345126L41.042399999999994,138.29465757097515L41.0928,138.39654064178467L41.1992,138.6735540798732L41.445600000000006,138.72630419049943L41.5184,138.93615920203072L41.5268,138.9940938949585L41.563199999999995,139.03514855248585L41.6976,139.23312725339616L41.8404,139.4655291693551L84.07000000000001,98.34413521630422L84.13440000000001,168.26154327392575L84.3024,196.78168937138145L84.434,150.86443621771676L84.504,136.30673197337558L84.5628,130.96305533817835L85.01920000000001,161.8187050478799L85.2096,167.21070078441073L85.5428,156.13854299272808L85.57079999999999,155.64745453425815L85.5904,154.64897029740467L85.6492,155.351270198822L85.8088,156.3166273662022L86.0804,153.1681089060647L86.22319999999999,157.82995268276758L86.29599999999999,156.77712076050892L86.33239999999999,155.61411646434237L86.3828,157.3678617136819L86.604,157.03891202381678L86.9708,161.81116931779042L87.0492,159.69004215512956L87.13040000000001,161.33283131463185L87.1444,160.8150060858045L87.346,158.05783316067286L87.5616,159.552017722811L87.85,162.8381687573024L87.9564,162.00091900144304L87.9592,161.90488365718295L88.1132,161.68981392042974L88.1384,161.29521295002527L88.3456,155.32001199041093L88.4548,155.9110242298671L88.87480000000001,157.99863246509005L88.95599999999999,157.73961435045513L89.0232,155.0490572793143L89.0904,154.0197066920144L89.2332,154.57635600226266L89.278,153.06113168171473L89.3228,152.7861076763698L89.3788,153.46788024902344L89.6644,147.85605219432284L89.6924,147.41789470400127L90.006,145.21149321964808L90.11800000000001,146.05344527108326L90.2244,147.1853119305202L90.4512,147.7316825049264L90.5772,148.87837948117937L90.5968,148.84871884754725L90.7536,149.7401052883693L90.8068,150.29473502295357L91.0924,152.34370003427776L91.11200000000001,152.5397194453648L91.1876,152.23162865638733L91.56559999999999,151.48616409301758L91.7924,151.4859832354954L91.87639999999999,152.17064952850342L91.96600000000001,151.68788051605225L91.98559999999999,151.80676419394356L92.0528,151.53993906293596L92.10879999999999,151.03866229738506L92.3776,153.2945885998862L92.41959999999999,153.61763027736117L92.4252,153.604307106563L92.47,153.7381718158722L92.7248,153.89699486323764L92.988,153.14613471712383L93.016,153.23360947200229L93.1532,153.41811428751262L93.32119999999999,153.2444609233311L93.9316,154.14874853406633L93.982,154.2197652544294L94.2732,154.96227581160406L94.31240000000001,155.12468586649211L94.3964,154.95085164478846L94.4692,155.5176289762769L94.5196,155.9635030542101L94.5616,156.3760390622275L94.69319999999999,155.8289450577327L94.93679999999999,156.4551039423261L95.032,155.95729361261638L95.03479999999999,155.88959261349268L95.1608,155.92675883429388L95.3092,156.53121481622966L95.326,156.6522989273071L95.3596,157.18194018091472L95.4324,157.14567824772425L95.438,157.3275304862431L95.5332,157.28123096057345L95.6536,158.22699522972104L95.74040000000001,158.74343388421192L95.8692,159.4928170272282L96.0736,159.5254316670554L96.1184,159.36651819092884L96.4544,158.46087414877752L96.5244,158.46048229081288L96.6224,158.91503752980913L96.81280000000001,157.62865826061793L97.0088,157.29940714154924L97.1964,156.50170489719935L97.2356,156.34010870116094L97.384,154.83052110671997L97.76759999999999,152.23241237231662L97.7788,152.23964667320251L97.78439999999999,152.1700768130166L97.9832,151.93559503555298L98.0672,151.7171492917197L98.2604,150.69256128583635L98.3024,150.43803446633473L98.4396,149.8208883149283L98.476,149.75668389456612L98.4788,149.80563599722726L98.5628,149.86314868927002L98.8204,150.20575312205722L99.06400000000001,150.21075684683663L99.11999999999999,149.82420403616769L99.2964,149.55116946356637L99.5036,149.76174790518624L99.5176,149.79128796713692L99.5484,149.80834886005945L99.8844,150.8672696522304L100.00200000000001,151.282096522195L100.1308,151.13059820447648L100.6516,151.2982531275068L101.1024,150.76665258407593L101.13600000000001,150.76604972566875L101.2984,150.79028463363647L101.34039999999999,150.8650993619646L101.402,150.47504997253418L101.584,150.45461307253154L101.6008,150.49530601501465L101.7548,151.0821886743818L101.794,151.1544713973999L101.8164,151.26196105139596L101.8304,151.2598510469709L102.0236,150.84225102833338L102.30080000000001,151.32260860715593L102.5668,150.80770724160328L102.5892,150.89325284957886L102.69000000000001,150.68020268848963L102.7432,150.55101013183594L102.7712,150.54612697873796L103.0736,150.7031715938023L103.09320000000001,150.6043631008693L103.1912,150.53177894864763L103.4096,150.5624041557312L103.8128,151.03353800092424L103.8912,151.5655002593994L104.00880000000001,151.65629073551722L104.0676,151.69023166384014L104.2412,151.94976220812114L104.2692,152.04097468512398L104.3056,151.86105159350802L104.328,151.8424835545676L104.6388,151.35269124167306L104.7508,151.14349937438965L104.7872,151.16749313899447L104.8684,151.4428788593837L104.8936,151.45174087796892L105.08959999999999,151.58539458683558L105.55160000000001,151.38446187973022L105.5656,151.4593971797398L105.63,151.4397439956665L105.8904,151.69674253463745L105.952,151.64344985144479L106.3244,151.5005724089486L106.48679999999999,151.5897954532078L106.5316,151.51178557532174L106.7864,151.79060758863176L106.8536,151.79910789217266L106.96560000000001,151.58756487710133L107.0048,151.4620497567313L107.0412,151.2052923611232L107.10000000000001,151.15935455049785L107.10560000000001,151.195586340768L107.36880000000001,151.37891558238437L107.548,151.24827616555348L107.61800000000001,151.1682768549238L107.6292,151.12438876288277L107.8868,151.01931054251534L107.9456,150.84279360089982L108.0296,150.95757784162248L108.1668,151.06157091685702L108.416,151.48375265938893L108.44120000000001,151.3494358062744L108.91159999999999,151.75148207800729L108.92280000000001,151.84438255855014L108.93960000000001,151.9291444505964L109.1048,152.09209707805087L109.25319999999999,152.1128052643367L109.2616,152.1477710519518L109.3652,152.38810055596485L109.5248,152.5483704635075L109.57799999999999,152.66523456573486L109.7712,152.51023966925484L110.14359999999999,151.7130799974714L110.2164,151.48417466027394L110.27799999999999,151.39880990982056L110.38719999999999,151.60034547533306L110.4684,151.7780681337629L110.4964,151.7483170713697L110.4992,151.74005791119166L110.6728,151.74777449880327L110.67840000000001,151.77026111739022L110.8716,152.11717598778858L110.88000000000001,152.11452341079712L110.88279999999999,152.11428226743425L111.0088,152.07337832450867L111.0732,152.12519400460377L111.12920000000001,152.265298298427L111.4512,152.43599765641346L111.566,152.61947761263164L111.7144,152.72895669937134L111.75359999999999,152.6260186263493L111.986,152.32733242852345L112.18480000000001,74.83030618940082L112.3388,127.04405369077409L112.3836,136.0950683866228L112.40599999999999,142.56446252550396L112.7952,160.30562087467737L113.00800000000001,164.84490353720525L113.3552,164.33021317209514L113.3664,162.82620201792034L113.4028,162.51967866080145L113.49799999999999,164.73937317303248L113.7976,165.87425412450517L113.834,163.98200215612138L114.03,158.11890271731784L114.086,152.73866271972656L114.156,151.9123247010367L114.1616,152.1137396948678L114.254,152.01068105016435L114.37440000000001,151.54771593638827L114.4108,153.3229832308633L114.4248,152.86869927815027L114.436,153.02405588967457L114.5172,149.05350984845842L114.5648,149.10071366173878L114.5788,148.63277496610368L114.58439999999999,148.84033911568775L114.6348,148.97369139535084L114.6964,149.7458324432373L114.7328,148.9707976749965L114.82520000000001,145.29438625063213L114.842,145.0328662736075L114.95400000000001,144.96878242492676L115.02680000000001,143.46097326278687L115.2452,144.31046104431152L115.31519999999999,145.74104404449463L115.3208,145.41314935684204L115.43560000000001,145.15958711079188L115.51679999999999,145.29070881434848L115.7828,141.17885276249476L116.0824,136.96903221947804L116.1104,136.65548556191578L116.1244,136.1015189715794L116.1272,136.2606735910688L116.18599999999999,135.750474521092L116.19999999999999,135.82112952641077L116.466,139.19321802684237L116.7768,137.71717950275965L116.78800000000001,137.7585958753313L117.0596,136.2356549671718L117.0876,136.29690538133892L117.4656,134.2826348713466L117.50479999999999,134.71199062892367L117.5692,134.67581912449427L117.852,132.97985785348072L117.93879999999999,131.62234129224504L118.1936,130.45840256554737L118.3056,130.08541406903947L118.3672,130.50415951865057L118.57719999999999,130.46642058236256L118.9272,131.1419837134225L119.2492,132.93693433489116L119.50959999999999,134.18563495363506L119.5544,134.71813978467668L119.994,133.08059549331665L119.9968,133.10362468447002L120.0108,132.82486295700073L120.0668,132.77928686141968L120.3468,130.04387712478638L120.9152,128.2682179723467L120.974,128.3127692086356L121.13640000000001,128.54631655556813L121.212,128.93305022375924L121.2708,128.96427828924996L121.41640000000001,128.69540343965804L121.47800000000001,128.28931801659718L121.4836,128.05890553338185L121.576,128.07717214311873L121.6628,128.37745591572352L121.6684,128.26827825818742L121.73559999999999,127.24570982796803L121.7384,127.2159286226545L121.8028,126.8883956500462L122.1164,125.10453762326921L122.164,125.21721185956682L122.35719999999999,124.96401132856096L122.4468,125.06523125512257L122.6932,126.28933525085449L122.8304,125.96475628444125L122.948,125.95462826320102L122.96199999999999,125.68720027378626L123.2168,125.90392787115914L123.2588,125.94618824550082L123.2756,125.62926558085849L123.29520000000001,125.98386689594813L123.536,125.09639903477259L123.6004,123.92914458683558L124.0932,123.49291624341691L124.1828,123.56501810891288L124.2556,123.82629694257463L124.35919999999999,123.8738624708993L124.3872,123.9711035319737L124.66999999999999,125.29184573037281L124.6756,125.35984815870012L124.7876,125.60334266935075L124.9248,125.77877446583338L125.2524,126.01575810568673L125.4064,127.29580736160278L125.42880000000001,127.39654500143868L125.482,127.61586488996232L125.50999999999999,127.58204453332081L125.5184,127.60965544836861L125.5324,127.74596173422677L125.77319999999999,126.72104215621948L125.9244,125.94552510125294L126.1988,47.548853261130205L126.2968,80.4198887688773L126.49,128.89356299809046L126.6608,134.88832671301705L126.6636,135.54990352903093L126.9128,108.57934468133108L127.23479999999999,136.74501003537858L127.27680000000001,135.8304738317217L127.7724,127.49125405720301L127.79199999999999,128.2878108705793L127.88719999999999,130.99199254172186L128.114,135.590174470629L128.2148,136.70498023714336L128.31,134.42726060322352L128.4584,129.62633739198958L128.6488,128.83309629985263L128.6572,128.43671689714705L128.6908,128.6138366971697L128.7916,126.51076514380318L128.98760000000001,125.66067450387135L128.9988,125.86986637115479L129.1584,123.64483656202043L129.528,121.28784104755945L129.72119999999998,121.60783829007829L129.9172,121.24003437587191L130.21959999999999,119.07824441364832L130.2728,120.03703042439051L130.56119999999999,123.04692159380231L130.9112,123.0184063911438L131.236,125.66417108263288L131.9472,122.98621375220162L132.1292,121.87068455559867L132.4316,124.25474841254098L132.4484,124.33438600812639L132.552,124.01077161516461L132.8656,124.6850687435695L133.4788,119.10585532869611L133.4872,119.10796533312116L133.6748,118.89292573928833L134.0584,117.180807862963L134.0808,117.2600234576634L134.246,118.41757188524518L134.2992,118.92095865522111L134.4616,120.26720176424298L134.6884,120.7197675704956L134.73600000000002,120.93330001831055L134.9292,121.60488428388322L135.1532,120.06548534120832L135.15879999999999,119.9573928288051L135.4164,119.9504599571228L135.54240000000001,118.93958698000226L135.7776,117.9816449710301L136.1836,118.00684445244926L136.2004,117.99273756572178L136.22,118.12759699140275L136.2424,118.07629374095372L136.4244,119.03676775523593L136.4888,119.20641211100985L136.7212,118.07321916307721L136.7296,117.99876614979334L136.7548,118.25793497903007L136.962,118.39050354276384L137.2112,117.06120075498308L137.3456,117.29655667713709L137.3988,118.00708559581211L137.4576,118.42444447108677L137.5164,118.71948337554932L137.606,118.91071006229944L137.6396,119.03465775081088L137.998,118.81389100211007L138.0456,118.96225445611137L138.0596,118.86489282335553L138.09879999999998,118.71230936050415L138.1016,118.68343244280133L138.16039999999998,118.70163876669747L138.2052,118.86658082689557L138.3004,118.73371083395821L138.3144,118.70724534988403L138.6168,117.61908592496599L138.656,117.64187397275651L138.8324,117.32657902581352L138.9248,115.88014084952218L138.98080000000002,115.98262677873883L139.048,115.8232913017273L139.0592,115.75480658667428L139.0984,115.97081075395856L139.18519999999998,116.1570337159293L139.2104,116.26759794780186L139.3196,116.1232133592878L139.4904,116.47847781862531L139.65279999999998,117.01158550807408L139.86839999999998,115.82069901057652L139.8796,115.83004331588745L139.9552,116.02814258847917L140.2996,116.17692804336548L140.7924,114.41646092278617L140.83720000000002,114.42689037322998L140.98559999999998,115.06344856534685L141.17880000000002,115.05072825295585L141.26559999999998,115.18866225651331L141.288,115.23019920076642L141.5036,115.54730272293091L141.52880000000002,115.70597505569458L141.6548,115.45675339017595L141.8452,115.24310037067957L142.76360000000003,115.08888919012887L143.1556,114.25694458825248L143.2144,114.10840027672904L143.29840000000002,114.08338165283203L143.3348,114.07108334132603L143.3796,114.00054890768868L143.3992,113.89794240679059L143.64000000000001,113.0794415473938L143.766,113.43989058903284L143.8192,113.43181228637695L143.9032,113.37713302884782L143.91719999999998,113.3086483137948L144.2644,112.41780444553919L144.648,112.02510247911725L144.7096,111.81476518086023L144.73760000000001,111.82025119236536L144.8356,111.91043881007603L144.96159999999998,111.71649926049368L144.9924,111.69142035075596L145.1156,110.9937926019941L145.45440000000002,111.8027080127171L145.45999999999998,111.82368748528616L145.6224,112.52493238449095L145.63920000000002,112.51215178625924L145.67,112.68324300221033L145.7372,112.45674909864152L145.7652,112.41515186854771L145.8688,111.85750784192766L145.9304,111.55873121534074L145.9444,111.66314629146031L146.0788,111.56120293481008L146.286,110.8876895223345L146.3056,110.82945340020315L146.412,110.62188925061906L146.97760000000002,110.46357863289968L147.1652,109.59901939119611L147.3416,109.27486242566789L147.3836,109.19835969379969L147.66639999999998,109.63133260181971L147.6748,109.61264399119786L147.8652,109.96091529301233L148.1984,109.78265006201607L148.3244,109.89032057353428L148.5736,109.98623534611292L148.8928,110.58258288247244L148.96,110.62321553911481L148.9824,110.80515820639474L149.15599999999998,110.09016813550676L149.40240000000003,109.76607145581926L149.5368,110.04832976205007L149.7132,110.6643304824829L149.74400000000003,110.69320740018571L149.9148,110.9307336126055L150.374,110.32359491075788L150.6092,110.58288431167601L150.6876,110.46918521608625L150.9452,110.3556066921779L150.9676,110.47310379573277L151.0684,110.64323043823241L151.284,111.19846303122384L151.3092,111.22420508520943L151.6844,111.45256784984043L151.9056,111.22788252149309L152.38719999999998,110.82758453914097L152.4572,110.8469362940107L152.50199999999998,110.91409472056797L152.89679999999998,110.52802419662474L152.9388,110.22128983906336L153.0256,110.34608152934483L153.314,110.4820863859994L153.4484,110.67192649841307L153.59120000000001,110.73902463912962L153.69480000000001,111.02122265951974L153.84879999999998,110.55955369131905L153.8544,110.60326092583792L153.8992,110.51614788600376L153.91039999999998,110.5089738709586L154.05319999999998,110.16462114879063L154.66920000000002,109.63699947084699L154.6916,109.66756439208983L154.7028,109.74334369386945L154.854,109.70361532483781L155.13400000000001,109.22789975575037L155.6212,108.86606413977486L155.834,108.47149331229073L155.9264,108.52641371318272L155.988,108.39830630166189L156.0636,107.80147647857666L156.94,106.15633617128644L157.3012,105.841342653547L157.3684,106.19859654562813L157.5532,106.21764687129429L157.6428,106.16519818987165L157.78,105.7248704092843L157.7912,105.73180328096662L158.02919999999997,105.38232626233781L158.94480000000001,104.63809755870274L159.09040000000002,104.80677734102521L159.0988,104.8037027631487L159.14079999999998,104.77844299588884L159.6308,104.48412752151489L159.8212,104.08804954801286L159.8716,104.1212670462472L160.1992,103.791804926736L160.2132,103.75490999221802L160.272,103.74839912142072L160.2748,103.77456317629132L160.286,103.83876759665353L160.4008,103.89585828781128L160.45399999999998,103.84708704267229L160.524,103.90966374533517L160.78719999999998,104.05507319314138L160.874,104.19813149315969L160.8796,104.20156778608049L161.056,104.2631196294512L161.0644,104.22218554360525L161.3304,103.67328296388898L161.43679999999998,103.48368399483816L161.4396,103.47385740280151L161.71679999999998,103.55228928157261L161.83440000000002,103.66436065946306L162.1172,103.08989688328333L162.2656,103.10876635142735L162.37480000000002,103.47687169483729L162.43359999999998,103.6418137550354L162.708,103.23639147622244L162.71640000000002,103.23994834082467L162.7836,103.14590242930821L162.86479999999997,103.09327289036341L163.05519999999999,102.74512216023035L163.0804,102.80432285581315L163.786,102.7345118522644L163.8364,102.66946343013218L164.1164,102.51012795312063L164.1304,102.50271279471261L164.1332,102.51742253984723L164.19760000000002,102.42741577965872L164.6512,101.84071397781372L164.6652,101.87851319994246L164.72959999999998,101.7387706211635L164.836,101.87284633091517L164.9592,102.04351554598128L165.0796,102.12773486546106L165.2112,102.07799904687063L165.4184,102.27000944955007L165.4968,102.3662256513323L165.5808,102.25246626990182L165.7516,102.25499827521188L165.774,102.12743343625749L165.78240000000002,102.14509718758718L165.9504,101.9782862663269L165.9924,101.98015512738908L166.0932,101.815635068076L166.2164,101.71785143443516L166.2752,101.60909577778406L166.3312,101.54175649370467L166.5468,101.4300468308585L166.7008,101.04385573523385L166.7204,101.0797860963004L166.9612,100.71258504050118L166.96400000000003,100.71692562103271L167.21599999999998,100.6419300351824L167.37279999999998,100.54637697764805L167.46239999999997,100.40850325993128L167.86,100.85317162105015L167.9048,100.80313437325613L167.96079999999998,100.77968318121773L167.9664,100.79023320334298L168.1008,100.77859803608484L168.17919999999998,100.92039033344813L168.2212,100.439731325422L168.3696,100.57121474402291L168.91559999999998,100.60250309535435L169.106,100.45576735905237L169.1648,100.29191044398716L169.2264,100.23566375459944L169.3328,99.97281748907906L169.3664,99.90186105455672L169.5148,99.58445610318864L169.69680000000002,99.50518022264754L170.04399999999998,99.24926682880945L170.24839999999998,98.99528258187429L170.3408,99.00444602966309L170.39960000000002,98.91582584381104L170.5732,98.7499794960022L170.6208,98.5784662791661L170.66559999999998,98.52764531544275L170.68800000000002,98.5777428490775L170.78879999999998,98.5173967225211L170.898,98.32387917382376L170.996,98.41044964109147L171.2172,97.70968702861241L171.3824,96.65944739750454L171.4076,96.64534051077706L171.514,96.44549294880458L171.5448,96.4440460886274L171.60920000000002,96.45568125588552L171.70159999999998,96.53839342934744L171.70440000000002,96.53833314350673L171.7352,96.61405215944563L171.86960000000002,96.8135380063738L171.8724,96.80660513469151L172.0404,96.81251314708165L172.1384,96.83879777363367L172.4184,96.01450947352818L172.5416,96.13514144080025L172.63400000000001,96.18771069390432L172.6788,96.16251121248519L172.6984,96.15340805053711L173.3256,95.30615084511892L173.41799999999998,95.34539692742483L173.47119999999998,95.42376852035522L173.5216,95.45113829204014L173.6056,95.30367912564958L173.7288,95.44975171770369L173.74,95.41810165132796L173.88,95.37746899468557L173.9024,95.41219363893782L174.132,95.24423728670394L174.1852,95.06205347606114L174.2748,95.10503728049142L174.43439999999998,95.08387695040022L174.5828,94.98603303091866L174.7312,94.92876148223877L174.8264,94.88179881232125L175.0252,94.51501975740706L175.0448,94.46896137510026L175.86520000000002,93.96430860246932L175.92680000000001,93.94133969715664L176.05,93.76343618120467L176.3944,94.07318483080184L176.54840000000002,93.69392660685948L176.5624,93.70966121128627L176.76680000000002,94.01217555999756L176.80599999999998,94.06956768035889L176.87040000000002,94.0284527369908L177.10559999999998,93.92843852724349L177.40800000000002,93.75909560067312L177.7972,93.98938751220703L178.29559999999998,93.09866421563284L178.5112,93.07298244748796L178.584,92.88633748463222L178.766,92.65254899433681L179.1524,92.55524764742171L179.1748,92.66677645274571L179.1888,92.68582677841187L179.19160000000002,92.69951166425432L179.578,92.8312965120588L179.69,92.79844072886875L179.816,92.70336995806014L180.11839999999998,92.06156689780099L180.3256,92.290351663317L180.33960000000002,92.32766859872L180.3536,92.35654551642281L180.80159999999998,92.48917436599731L180.96120000000002,92.12354074205672L181.2972,92.24477556773594L181.5884,92.21469293321883L181.59959999999998,92.25586816242763L181.8432,92.38909987040928L181.85999999999999,92.34822607040405L181.88799999999998,92.35329008102417L238.2464,-28.594454424721846L238.2632,-22.57201950890675L238.37800000000001,13.600027493068183L238.3836,9.138875280107783L238.3892,13.629024982452421L238.40040000000002,14.32502501351496L238.546,24.326023987361395L238.75039999999998,23.85615614482336L238.7672,20.594390732901445L238.8484,14.910822527749218L238.9688,8.958680902208613L238.9744,8.142772333962597L239.0976,18.21376316887995L239.2516,21.392635549817783L239.4112,25.794707638876787L239.4392,27.69021504265922L239.59879999999998,24.253379549298984L239.6548,21.74096713747298L239.834,24.1835082599095L240.2876,28.706453459603466L240.52280000000002,32.21593339102611L240.6824,34.2623362541199L240.73000000000002,34.528859955923906L240.84199999999998,32.625274249485585L240.8588,32.982648713248125L241.2396,32.04918275560652L241.2704,31.080570152827676L241.30960000000002,31.825281143188505L241.4496,35.87450020653861L241.5,37.64823021207539L241.7436,44.15916129520963L241.9676,42.76474979945593L242.0348,43.51976966857913L242.41,42.54687677110945L242.69,40.05851840972903L242.8664,40.24781594957625L243.07080000000002,40.750298431941445L243.3172,38.95275551932201L243.4236,39.203303473336376L243.74,38.727587904248935L243.82119999999998,36.817792756216875L243.8296,36.25068385260448L244.03119999999998,32.65228230612621L244.0872,32.06841393879483L244.3056,30.56355878285001L244.3532,30.338029452732655L244.37279999999998,30.686481612069286L244.60240000000002,31.28885773250036L244.6584,30.729103701455273L244.6808,31.35354443958829L244.7732,29.889442511967275L244.9832,29.893240519932363L245.2072,29.415053231375566L245.34720000000002,29.447848728724892L245.4844,25.755582128252314L245.5768,24.95293644496374L245.7168,25.42690372467044L245.74200000000002,24.290756770542714L246.036,26.73546818324499L246.176,24.758514608655673L246.2628,24.50350550242834L246.88719999999998,26.375019141605947L246.99360000000001,26.45688731329784L247.0328,26.337641920362216L247.0748,26.14195408139912L247.0776,26.12676204953877L247.2848,23.903902530670194L247.3716,24.90537091663907L247.51160000000002,25.60287809371951L247.5732,26.00637122562955L247.66840000000002,26.974441255841953L247.8448,27.192133426666288L247.94,27.524549552372548L247.9792,27.803371565682568L248.1192,27.656575543539873L248.15,27.69347047805789L248.1696,27.67255129132954L248.318,27.428453922271757L248.5392,29.91259227480208L248.7044,30.39041784831457L248.9228,28.962366853441523L249.1076,29.72552531106132L249.53879999999998,29.051710469382158L249.6648,29.131709780011874L249.6844,28.856806346348378L250.166,30.882169451032382L250.1688,30.89127261298046L250.4488,30.9318449837821L250.6084,29.23087998798917L250.656,28.22060986927579L250.712,27.406027589525507L250.84640000000002,27.43195050103327L250.8828,26.94001804079329L250.95839999999998,26.90348482131961L251.0984,27.116836411612383L251.20479999999998,25.83811344419209L251.4344,25.558507714952754L251.5324,26.212066514151445L251.6584,24.98133107594083L251.9048,26.039106437138173L251.9384,26.398711477007197L252,26.600608757564032" style="fill: none;" fill="none"></path></g></g></g></g></g></g><g transform="translate(50, 177)" clip-path="url(#clip_1)"><clipPath id="clip_1"><rect width="280" height="23"></rect></clipPath><g><g><line x1="0" y1="0" x2="0" y2="5" style="visibility: inherit;" fill="rgb(0, 0, 0)" stroke="rgb(204, 204, 204)" stroke-width="1px"></line><line x1="28" y1="0" x2="28" y2="5" style="visibility: inherit;" fill="rgb(0, 0, 0)" stroke="rgb(204, 204, 204)" stroke-width="1px"></line><line x1="56" y1="0" x2="56" y2="5" style="visibility: inherit;" fill="rgb(0, 0, 0)" stroke="rgb(204, 204, 204)" stroke-width="1px"></line><line x1="84" y1="0" x2="84" y2="5" style="visibility: inherit;" fill="rgb(0, 0, 0)" stroke="rgb(204, 204, 204)" stroke-width="1px"></line><line x1="112" y1="0" x2="112" y2="5" style="visibility: inherit;" fill="rgb(0, 0, 0)" stroke="rgb(204, 204, 204)" stroke-width="1px"></line><line x1="140" y1="0" x2="140" y2="5" style="visibility: inherit;" fill="rgb(0, 0, 0)" stroke="rgb(204, 204, 204)" stroke-width="1px"></line><line x1="168" y1="0" x2="168" y2="5" style="visibility: inherit;" fill="rgb(0, 0, 0)" stroke="rgb(204, 204, 204)" stroke-width="1px"></line><line x1="196" y1="0" x2="196" y2="5" style="visibility: inherit;" fill="rgb(0, 0, 0)" stroke="rgb(204, 204, 204)" stroke-width="1px"></line><line x1="224" y1="0" x2="224" y2="5" style="visibility: inherit;" fill="rgb(0, 0, 0)" stroke="rgb(204, 204, 204)" stroke-width="1px"></line><line x1="252" y1="0" x2="252" y2="5" style="visibility: inherit;" fill="rgb(0, 0, 0)" stroke="rgb(204, 204, 204)" stroke-width="1px"></line><line x1="280" y1="0" x2="280" y2="5" style="visibility: inherit;" fill="rgb(0, 0, 0)" stroke="rgb(204, 204, 204)" stroke-width="1px"></line></g><g transform="translate(0, 8)"><text x="0" y="0" dx="0em" dy="0.95em" style="text-anchor: middle; visibility: hidden; font-family: &quot;Helvetica Neue&quot;, sans-serif; font-size: 12px; font-weight: 200;" fill="rgb(33, 33, 33)" stroke="none" stroke-width="1px">10k</text><text x="28" y="0" dx="0em" dy="0.95em" style="text-anchor: middle; visibility: inherit; font-family: &quot;Helvetica Neue&quot;, sans-serif; font-size: 12px; font-weight: 200;" fill="rgb(33, 33, 33)" stroke="none" stroke-width="1px">20k</text><text x="56" y="0" dx="0em" dy="0.95em" style="text-anchor: middle; visibility: hidden; font-family: &quot;Helvetica Neue&quot;, sans-serif; font-size: 12px; font-weight: 200;" fill="rgb(33, 33, 33)" stroke="none" stroke-width="1px">30k</text><text x="84" y="0" dx="0em" dy="0.95em" style="text-anchor: middle; visibility: inherit; font-family: &quot;Helvetica Neue&quot;, sans-serif; font-size: 12px; font-weight: 200;" fill="rgb(33, 33, 33)" stroke="none" stroke-width="1px">40k</text><text x="112" y="0" dx="0em" dy="0.95em" style="text-anchor: middle; visibility: hidden; font-family: &quot;Helvetica Neue&quot;, sans-serif; font-size: 12px; font-weight: 200;" fill="rgb(33, 33, 33)" stroke="none" stroke-width="1px">50k</text><text x="140" y="0" dx="0em" dy="0.95em" style="text-anchor: middle; visibility: inherit; font-family: &quot;Helvetica Neue&quot;, sans-serif; font-size: 12px; font-weight: 200;" fill="rgb(33, 33, 33)" stroke="none" stroke-width="1px">60k</text><text x="168" y="0" dx="0em" dy="0.95em" style="text-anchor: middle; visibility: hidden; font-family: &quot;Helvetica Neue&quot;, sans-serif; font-size: 12px; font-weight: 200;" fill="rgb(33, 33, 33)" stroke="none" stroke-width="1px">70k</text><text x="196" y="0" dx="0em" dy="0.95em" style="text-anchor: middle; visibility: inherit; font-family: &quot;Helvetica Neue&quot;, sans-serif; font-size: 12px; font-weight: 200;" fill="rgb(33, 33, 33)" stroke="none" stroke-width="1px">80k</text><text x="224" y="0" dx="0em" dy="0.95em" style="text-anchor: middle; visibility: hidden; font-family: &quot;Helvetica Neue&quot;, sans-serif; font-size: 12px; font-weight: 200;" fill="rgb(33, 33, 33)" stroke="none" stroke-width="1px">90k</text><text x="252" y="0" dx="0em" dy="0.95em" style="text-anchor: middle; visibility: inherit; font-family: &quot;Helvetica Neue&quot;, sans-serif; font-size: 12px; font-weight: 200;" fill="rgb(33, 33, 33)" stroke="none" stroke-width="1px">100k</text><text x="280" y="0" dx="0em" dy="0.95em" style="text-anchor: middle; visibility: hidden; font-family: &quot;Helvetica Neue&quot;, sans-serif; font-size: 12px; font-weight: 200;" fill="rgb(33, 33, 33)" stroke="none" stroke-width="1px">110k</text></g><line x1="0" y1="0" x2="280" y2="0" fill="rgb(0, 0, 0)" stroke="rgb(204, 204, 204)" stroke-width="1px"></line></g></g></g></g></svg>