<svg viewBox="0 0 330 200" xmlns="http://www.w3.org/2000/svg"><g><g><g><g><g><line x1="50" y1="177" x2="45" y2="177" style="visibility: inherit;" fill="rgb(0, 0, 0)" stroke="rgb(204, 204, 204)" stroke-width="1px"></line><line x1="50" y1="159.29999999999998" x2="45" y2="159.29999999999998" style="visibility: inherit;" fill="rgb(0, 0, 0)" stroke="rgb(204, 204, 204)" stroke-width="1px"></line><line x1="50" y1="141.59999999999997" x2="45" y2="141.59999999999997" style="visibility: inherit;" fill="rgb(0, 0, 0)" stroke="rgb(204, 204, 204)" stroke-width="1px"></line><line x1="50" y1="123.89999999999995" x2="45" y2="123.89999999999995" style="visibility: inherit;" fill="rgb(0, 0, 0)" stroke="rgb(204, 204, 204)" stroke-width="1px"></line><line x1="50" y1="106.19999999999992" x2="45" y2="106.19999999999992" style="visibility: inherit;" fill="rgb(0, 0, 0)" stroke="rgb(204, 204, 204)" stroke-width="1px"></line><line x1="50" y1="88.4999999999999" x2="45" y2="88.4999999999999" style="visibility: inherit;" fill="rgb(0, 0, 0)" stroke="rgb(204, 204, 204)" stroke-width="1px"></line><line x1="50" y1="70.79999999999988" x2="45" y2="70.79999999999988" style="visibility: inherit;" fill="rgb(0, 0, 0)" stroke="rgb(204, 204, 204)" stroke-width="1px"></line><line x1="50" y1="53.099999999999866" x2="45" y2="53.099999999999866" style="visibility: inherit;" fill="rgb(0, 0, 0)" stroke="rgb(204, 204, 204)" stroke-width="1px"></line><line x1="50" y1="35.399999999999835" x2="45" y2="35.399999999999835" style="visibility: inherit;" fill="rgb(0, 0, 0)" stroke="rgb(204, 204, 204)" stroke-width="1px"></line><line x1="50" y1="17.699999999999818" x2="45" y2="17.699999999999818" style="visibility: inherit;" fill="rgb(0, 0, 0)" stroke="rgb(204, 204, 204)" stroke-width="1px"></line></g><g transform="translate(40, 0)"><text x="0" y="177" dx="0em" dy="0.3em" style="text-anchor: end; visibility: hidden; font-family: &quot;Helvetica Neue&quot;, sans-serif; font-size: 12px; font-weight: 200;" fill="rgb(33, 33, 33)" stroke="none" stroke-width="1px">0.94</text><text x="0" y="159.29999999999998" dx="0em" dy="0.3em" style="text-anchor: end; visibility: inherit; font-family: &quot;Helvetica Neue&quot;, sans-serif; font-size: 12px; font-weight: 200;" fill="rgb(33, 33, 33)" stroke="none" stroke-width="1px">0.96</text><text x="0" y="141.59999999999997" dx="0em" dy="0.3em" style="text-anchor: end; visibility: hidden; font-family: &quot;Helvetica Neue&quot;, sans-serif; font-size: 12px; font-weight: 200;" fill="rgb(33, 33, 33)" stroke="none" stroke-width="1px">0.98</text><text x="0" y="123.89999999999995" dx="0em" dy="0.3em" style="text-anchor: end; visibility: inherit; font-family: &quot;Helvetica Neue&quot;, sans-serif; font-size: 12px; font-weight: 200;" fill="rgb(33, 33, 33)" stroke="none" stroke-width="1px">1</text><text x="0" y="106.19999999999992" dx="0em" dy="0.3em" style="text-anchor: end; visibility: hidden; font-family: &quot;Helvetica Neue&quot;, sans-serif; font-size: 12px; font-weight: 200;" fill="rgb(33, 33, 33)" stroke="none" stroke-width="1px">1.02</text><text x="0" y="88.4999999999999" dx="0em" dy="0.3em" style="text-anchor: end; visibility: inherit; font-family: &quot;Helvetica Neue&quot;, sans-serif; font-size: 12px; font-weight: 200;" fill="rgb(33, 33, 33)" stroke="none" stroke-width="1px">1.04</text><text x="0" y="70.79999999999988" dx="0em" dy="0.3em" style="text-anchor: end; visibility: hidden; font-family: &quot;Helvetica Neue&quot;, sans-serif; font-size: 12px; font-weight: 200;" fill="rgb(33, 33, 33)" stroke="none" stroke-width="1px">1.06</text><text x="0" y="53.099999999999866" dx="0em" dy="0.3em" style="text-anchor: end; visibility: inherit; font-family: &quot;Helvetica Neue&quot;, sans-serif; font-size: 12px; font-weight: 200;" fill="rgb(33, 33, 33)" stroke="none" stroke-width="1px">1.08</text><text x="0" y="35.399999999999835" dx="0em" dy="0.3em" style="text-anchor: end; visibility: hidden; font-family: &quot;Helvetica Neue&quot;, sans-serif; font-size: 12px; font-weight: 200;" fill="rgb(33, 33, 33)" stroke="none" stroke-width="1px">1.1</text><text x="0" y="17.699999999999818" dx="0em" dy="0.3em" style="text-anchor: end; visibility: inherit; font-family: &quot;Helvetica Neue&quot;, sans-serif; font-size: 12px; font-weight: 200;" fill="rgb(33, 33, 33)" stroke="none" stroke-width="1px">1.12</text></g><line x1="50" y1="0" x2="50" y2="177" fill="rgb(0, 0, 0)" stroke="rgb(204, 204, 204)" stroke-width="1px"></line></g></g><g transform="translate(50, 0)" clip-path="url(#clip_0)"><clipPath id="clip_0"><rect width="280" height="177"></rect></clipPath><g><g><g><line x1="0" y1="0" x2="0" y2="177" fill="rgb(0, 0, 0)" stroke="rgb(66, 66, 66)" stroke-width="1px" opacity="0.25"></line><line x1="31.11111111111111" y1="0" x2="31.11111111111111" y2="177" fill="rgb(0, 0, 0)" stroke="rgb(66, 66, 66)" stroke-width="1px" opacity="0.25"></line><line x1="62.22222222222222" y1="0" x2="62.22222222222222" y2="177" fill="rgb(0, 0, 0)" stroke="rgb(66, 66, 66)" stroke-width="1px" opacity="0.25"></line><line x1="93.33333333333333" y1="0" x2="93.33333333333333" y2="177" fill="rgb(0, 0, 0)" stroke="rgb(66, 66, 66)" stroke-width="1px" opacity="0.25"></line><line x1="124.44444444444444" y1="0" x2="124.44444444444444" y2="177" fill="rgb(0, 0, 0)" stroke="rgb(66, 66, 66)" stroke-width="1px" opacity="0.25"></line><line x1="155.55555555555557" y1="0" x2="155.55555555555557" y2="177" fill="rgb(0, 0, 0)" stroke="rgb(66, 66, 66)" stroke-width="1px" opacity="0.25"></line><line x1="186.66666666666666" y1="0" x2="186.66666666666666" y2="177" fill="rgb(0, 0, 0)" stroke="rgb(66, 66, 66)" stroke-width="1px" opacity="0.25"></line><line x1="217.77777777777777" y1="0" x2="217.77777777777777" y2="177" fill="rgb(0, 0, 0)" stroke="rgb(66, 66, 66)" stroke-width="1px" opacity="0.25"></line><line x1="248.88888888888889" y1="0" x2="248.88888888888889" y2="177" fill="rgb(0, 0, 0)" stroke="rgb(66, 66, 66)" stroke-width="1px" opacity="0.25"></line><line x1="280" y1="0" x2="280" y2="177" fill="rgb(0, 0, 0)" stroke="rgb(66, 66, 66)" stroke-width="1px" opacity="0.25"></line></g><g><line x1="0" y1="177" x2="280" y2="177" fill="rgb(0, 0, 0)" stroke="rgb(66, 66, 66)" stroke-width="1px" opacity="0.25"></line><line x1="0" y1="159.29999999999998" x2="280" y2="159.29999999999998" fill="rgb(0, 0, 0)" stroke="rgb(66, 66, 66)" stroke-width="1px" opacity="0.25"></line><line x1="0" y1="141.59999999999997" x2="280" y2="141.59999999999997" fill="rgb(0, 0, 0)" stroke="rgb(66, 66, 66)" stroke-width="1px" opacity="0.25"></line><line x1="0" y1="123.89999999999995" x2="280" y2="123.89999999999995" fill="rgb(0, 0, 0)" stroke="rgb(66, 66, 66)" stroke-width="1px" opacity="0.25"></line><line x1="0" y1="106.19999999999992" x2="280" y2="106.19999999999992" fill="rgb(0, 0, 0)" stroke="rgb(66, 66, 66)" stroke-width="1px" opacity="0.25"></line><line x1="0" y1="88.4999999999999" x2="280" y2="88.4999999999999" fill="rgb(0, 0, 0)" stroke="rgb(66, 66, 66)" stroke-width="1px" opacity="0.25"></line><line x1="0" y1="70.79999999999988" x2="280" y2="70.79999999999988" fill="rgb(0, 0, 0)" stroke="rgb(66, 66, 66)" stroke-width="1px" opacity="0.25"></line><line x1="0" y1="53.099999999999866" x2="280" y2="53.099999999999866" fill="rgb(0, 0, 0)" stroke="rgb(66, 66, 66)" stroke-width="1px" opacity="0.25"></line><line x1="0" y1="35.399999999999835" x2="280" y2="35.399999999999835" fill="rgb(0, 0, 0)" stroke="rgb(66, 66, 66)" stroke-width="1px" opacity="0.25"></line><line x1="0" y1="17.699999999999818" x2="280" y2="17.699999999999818" fill="rgb(0, 0, 0)" stroke="rgb(66, 66, 66)" stroke-width="1px" opacity="0.25"></line></g></g></g><g><g><line x1="0" y1="1008.9000000000002" x2="280" y2="1008.9000000000002" fill="rgb(0, 0, 0)" stroke="rgb(153, 153, 153)" stroke-width="1.5px"></line></g></g><g><g><line x1="-62.22222222222222" y1="0" x2="-62.22222222222222" y2="177" fill="rgb(0, 0, 0)" stroke="rgb(153, 153, 153)" stroke-width="1.5px"></line></g></g><g><g><g><g><g><path stroke="rgb(255, 112, 67)" stroke-width="2px" d="M31.39111111111111,60.674772405624324L31.49066666666667,60.19725202918046L31.565333333333335,49.356579485718115L31.695999999999998,30.027844411222333L31.78933333333333,21.304107223940207L32.007111111111115,16.95525429258717L32.013333333333335,15.885764616490633L32.019555555555556,14.704126744751818L32.032000000000004,13.222693738708415L32.05688888888889,13.637190768398398L32.11288888888889,15.86385087493835L32.23733333333333,23.07982961195364L32.31822222222222,28.009686052070066L32.330666666666666,32.00967633278273L32.43022222222222,36.3970669976413L32.523555555555554,42.427850589369854L32.56711111111111,45.9424570840452L32.654222222222224,47.3204090884378L32.704,49.15662055469346L32.766222222222225,48.316072338345975L33.05866666666667,48.2674496293121L33.35111111111111,46.16668927553525L33.56888888888889,47.52812076394807L33.66222222222222,48.308131924088656L33.84888888888889,49.2878559827292L33.96088888888889,52.1143227487657L34.12266666666667,54.06352711321476L34.209777777777774,54.359506086681165L34.26577777777778,55.662359128925644L34.384,54.87291880472259L34.53955555555555,53.5546620386079L34.97511111111111,48.89940347917897L35.12444444444444,47.47935512585266L35.14933333333333,47.1863507456446L35.41688888888889,47.813067219711314L35.45422222222222,48.386931114189224L35.80266666666667,50.77921975471445L35.976888888888894,51.64417433116857L36.02044444444444,51.541202169272495L36.269333333333336,51.52225196216747L36.32533333333333,51.29650538816374L36.337777777777774,50.898657293451905L36.38133333333334,50.99218973361154L36.54311111111111,51.228630175885996L36.54933333333334,51.50177891656466L36.723555555555556,51.8260706973559L36.81688888888888,51.899447111638395L36.86666666666666,51.96617660781996L36.922666666666665,51.18900959169561L37.028444444444446,50.36962124153719L37.21511111111111,50.46153105524078L37.39555555555556,50.136369745890576L37.44533333333334,50.41560195503288L37.625777777777785,50.098262263641416L37.72533333333334,51.362326699082374L37.992888888888885,52.61653200005587L38.32266666666666,52.861725716680866L38.34133333333333,53.27119989686656L38.81422222222223,56.07155116256163L38.95733333333333,58.23242093000481L38.98844444444445,59.95997449441937L39.09422222222222,61.86844486167543L39.175111111111114,62.96714918476634L39.54222222222222,63.49795690931258L39.660444444444444,64.92410946701384L39.71644444444444,65.81862508305548L39.815999999999995,65.66143839745915L39.903111111111116,65.86919461959116L39.984,66.4960294060322L40.05244444444445,67.34667027308988L40.17688888888889,67.68099602409885L40.22044444444444,68.19349232881476L40.264,68.51082273226487L40.30133333333333,68.50317595900012L40.35111111111111,68.82424597800319L40.43822222222222,68.88062390363547L40.51288888888889,68.54735208914475L40.599999999999994,68.50918413976315L41.28444444444444,68.10504777061628L41.30933333333333,68.00389404551785L41.37155555555555,68.08803251419415L41.44,67.7688428201315L41.65777777777778,68.83514484155408L41.769777777777776,69.6363835930123L41.87555555555556,70.35437574143964L41.99377777777777,70.8750994190917L42.099555555555554,71.00379444034952L42.19911111111111,71.02859894318628L42.24266666666667,70.85147124220882L42.385777777777776,70.44979400211542L42.392,70.2524225495694L42.48533333333333,70.04504189148173L42.54755555555556,70.18073484214929L42.67822222222222,70.11166509695516L42.690666666666665,69.9056429046848L42.827555555555556,70.09734865060207L42.858666666666664,70.19414165992L43.03911111111111,69.91242235290083L43.05155555555556,69.79626747958105L43.08888888888889,70.00800694580204L43.24444444444444,70.99200782272412L43.29422222222222,71.74568049128756L43.41866666666667,72.35811782846388L43.611555555555555,72.49423934560731L43.623999999999995,72.59827830279897L43.67377777777777,72.6556798665823L43.717333333333336,72.5460919027984L43.81688888888889,72.5554552820598L43.82311111111111,72.54191446943715L43.83555555555556,72.33916317369722L44.10933333333333,72.1478822502266L44.30844444444444,71.78784678177644L44.42044444444445,71.51481318114165L44.48888888888889,71.40918694280357L44.538666666666664,71.28998048271394L44.62577777777778,71.24352345922962L44.632,71.28996360098932L44.65688888888889,71.44459675190224L45.01777777777777,71.12326717398983L45.167111111111105,71.10838500036246L45.18577777777778,70.94681797607805L45.559111111111115,70.65423815121683L45.80177777777777,70.6165579454329L45.82666666666666,70.3859455857412L45.95111111111112,70.13131692610582L46.41155555555555,69.84354164721019L46.44888888888889,69.71303436828511L46.46133333333333,69.65616764588856L46.83466666666667,69.60609597899739L47.400888888888886,70.24260337673552L47.432,70.35995546056579L47.50666666666667,70.69475026532268L47.6,70.72193158390671L47.824000000000005,70.7175201316032L47.91111111111111,70.90603966113044L47.96088888888889,71.0328664076097L47.96711111111111,71.05026213239222L48.57066666666667,70.79935441917529L48.583111111111116,70.6319297558448L48.589333333333336,70.55325020351287L48.64533333333333,70.25220893978035L48.832,70.1565329596933L48.84444444444445,70.23155124935732L48.888,69.90292263956799L48.98755555555556,69.63995553572136L49,69.39178268384437L49.04355555555556,69.26925402803116L49.04977777777778,69.19345802976427L49.31733333333334,69.18347070523338L49.41688888888889,69.44814967816014L49.47288888888889,69.27602396789158L49.60355555555556,69.20072720040659L49.96444444444444,69.41111287587759L50.03288888888889,69.73289949127356L50.21333333333334,69.73784346597382L50.26933333333333,69.83740585337269L50.46844444444445,69.79037706190456L50.623999999999995,69.91956611713233L50.69244444444445,70.18229573869986L50.94133333333333,70.57676040830782L50.99733333333334,70.73735245050541L51.40177777777778,71.45299397457576L51.62577777777778,71.862165046626L52.31644444444445,72.57731247478347L52.55288888888889,73.63138424237734L52.74577777777778,74.85378454017736L52.90133333333333,76.02851104431211L53.044444444444444,76.68536544616744L53.07555555555556,77.01499635205106L53.150222222222226,77.37250223055752L53.30577777777778,77.9577335351423L53.82844444444444,79.01914200745307L54.13955555555555,80.14230091072498L54.30133333333334,80.78589658914427L54.413333333333334,81.31169408904555L54.6,81.59484732119475L54.88,81.65164302330146L55.041777777777774,81.56494379127585L55.284444444444446,81.30669241955613L55.321777777777775,81.18613466865267L55.44622222222222,80.97196552065874L55.70755555555556,80.82747019832043L55.84444444444445,80.65932683411064L55.91288888888889,80.40867270149472L56,80.24237078856038L56.18666666666667,80.20124776381613L56.373333333333335,80.26789494048573L56.39822222222222,80.23466609293831L56.43555555555555,80.14298863395807L56.448,80.04645727148504L56.516444444444446,80.08652705950034L56.616,80.03317396999896L56.672,80.03559738851482L56.80888888888889,79.995990753513L56.83377777777778,79.94327751180019L56.995555555555555,79.73972640621945L57.09511111111111,79.64983661048579L57.455999999999996,79.2602432291088L57.46222222222222,79.03610882046094L57.51822222222222,78.89922277022751L57.55555555555555,78.91014233523218L57.64888888888889,79.03101411398409L57.68,79.1017225774297L57.72977777777778,79.2523064823251L57.80444444444445,79.34480902977586L57.97866666666667,79.41005877868996L58.159111111111116,79.39430631289883L58.39555555555555,79.19727544003709L58.48266666666667,79.09378474720712L58.650666666666666,78.8417055330777L58.75644444444445,78.56432194007071L58.88088888888889,78.3961193805494L59.129777777777775,78.22687590155353L59.25422222222222,77.87411268730969L59.37866666666666,77.56379095184795L59.44711111111111,77.39895115535252L59.49066666666667,77.29093205833912L59.94488888888889,77.5280622333555L60.06933333333333,77.70312980713058L60.312000000000005,77.86007646025179L60.330666666666666,78.00513775885682L60.60444444444444,78.09116173589572L60.64177777777778,78.10850965025617L60.660444444444444,78.10988757993337L60.766222222222225,78.0536598180863L60.940444444444445,77.93007917255947L61.13955555555555,77.81596730143303L61.18933333333333,77.82662534469662L61.31377777777777,77.66206761213712L61.44444444444444,77.57620399959437L61.61866666666666,77.7202832422706L61.64355555555555,77.77778152716466L61.75555555555556,77.87001021917051L61.92977777777778,77.8913341630422L62.147555555555556,77.78588388138552L62.352888888888884,77.68767203911266L62.40888888888889,77.70613989605972L62.41511111111111,77.6707583127884L62.52088888888889,77.75621118655607L62.831999999999994,77.71460051602594L63.26133333333334,77.67929509202524L63.29866666666667,77.67283966851167L63.348444444444446,77.60689008421862L63.46666666666666,77.34796427361468L63.49155555555555,77.08841676874333L63.553777777777775,76.82849624731165L63.88355555555555,76.55320208417172L64.00177777777778,76.29045898167374L64.05777777777777,75.98983922033356L64.25688888888888,75.66564946191805L64.43111111111111,75.39260124216854L64.80444444444444,75.4293915310524L64.82933333333334,75.43859467738996L64.94755555555555,75.39035365244217L65.12177777777778,75.21628293311863L65.28355555555555,75.02971912930163L65.60711111111111,75.0150942510947L65.72533333333332,75.01813534895082L66.37244444444444,74.8392170286149L66.39111111111112,74.76828471278955L66.55911111111111,74.74766936931486L66.66488888888888,74.66364441295555L66.94488888888888,74.53541247594409L67.05688888888889,74.56469093649423L67.13155555555555,74.56014516644973L67.20622222222222,74.56898052867238L67.34933333333333,74.49874358758922L67.38666666666667,74.47196225515357L67.77244444444445,74.49189013118351L67.94044444444444,74.26322195216893L68.12088888888889,74.2365430765443L68.1768888888889,74.25070881444766L68.2328888888889,74.27731209515646L68.35111111111111,74.22288431596233L68.45066666666666,74.15507497472443L68.45688888888888,74.1029953460865L68.50666666666667,74.03912690049245L68.58133333333333,73.998105027472L69.048,73.89601254117186L69.25955555555555,73.77234311849882L69.6391111111111,73.45819176167853L69.776,73.26497453767412L69.81333333333333,73.15575401734318L69.83200000000001,73.09089690656074L69.85066666666667,73.05265784150734L69.95022222222222,73.00485855034815L69.98133333333334,72.90279302174939L70.27377777777778,72.80424882635526L70.37955555555556,72.84420811691905L70.672,73.09640176987068L70.784,73.26658140120159L71.008,73.6971324688032L71.49955555555556,73.74788087402794L71.848,73.69169313547029L71.95377777777779,73.52538781426539L72.02222222222223,73.43906644977446L72.04711111111111,73.39803465364764L72.1528888888889,73.48389540766708L72.32711111111111,73.4600003019275L72.42044444444444,73.54078223796486L72.59466666666665,73.57106316144348L72.67555555555555,73.61965797933985L72.7751111111111,73.66721410866398L73.03644444444444,73.76689713547135L73.23555555555555,73.89937550395433L73.25422222222221,73.89914655786566L73.46577777777777,73.78388734878175L73.74577777777777,73.80119980467002L73.808,73.77964181120767L73.82666666666667,73.76198060521838L73.87022222222222,73.69044695382917L73.95111111111112,73.62900092414371L73.98222222222223,73.58141448385318L74.05688888888889,73.57847807339913L74.21244444444446,73.6211529203181L74.256,73.61215375589867L74.31200000000001,73.5889880199882L74.46133333333334,73.65138633845167L74.47377777777777,73.70169635652259L74.57955555555556,73.76382783436034L74.76622222222223,73.5809488593534L75.01511111111111,73.38677909725882L75.10222222222221,73.32918856354952L75.376,73.20213164932971L75.55022222222223,73.2221559026684L75.656,73.17441512935432L75.75555555555556,73.09732496376665L75.83644444444444,73.04891865990055L75.88622222222222,73.0941470333427L75.89866666666667,73.18479519060175L75.98577777777777,73.27990717036062L76.06666666666666,73.36567041839672L76.09155555555554,73.4762928912968L76.11644444444444,73.56887262999595L76.19111111111111,73.60095722400885L76.50844444444445,73.51863236739479L76.60177777777777,73.42661536404044L76.72622222222222,73.29249099653089L76.75111111111111,73.21919039107033L76.75733333333334,73.16630580912036L76.78222222222222,73.09089796835174L76.79466666666667,73.02092401202921L76.98133333333332,72.87618242273572L77.06844444444445,72.74578697782647L77.0808888888889,72.64147005618739L77.24266666666666,72.66315347994039L77.39822222222223,72.54939446833546L77.46666666666667,72.40239369622948L77.64088888888888,72.34044168801347L77.65955555555556,72.33331694609666L78.38133333333333,72.05537452701772L78.59288888888888,71.74280776979951L78.76711111111112,71.61869444848556L78.77955555555556,71.5104241848079L78.8231111111111,71.51175836563623L78.87288888888888,71.52112549209888L78.99111111111111,71.47268745460676L79.43288888888888,71.4612220690165L79.51377777777778,71.39952492269947L79.68177777777777,71.44285560341531L79.73777777777778,71.46716600830473L79.77511111111112,71.50323209628537L79.79377777777778,71.56006662288351L79.83111111111111,71.61522518300433L79.85600000000001,71.63367688836698L80.15466666666667,71.6371096955659L80.22933333333333,71.63347236793761L80.24177777777777,71.66057683278045L80.25422222222223,71.68755833416539L80.33511111111112,71.56984635418267L80.35377777777778,71.5261850227451L80.6648888888889,71.26463833031261L80.81422222222223,71.03432436094998L80.87644444444445,70.90854280535166L81.02577777777778,70.9730515655504L81.06311111111111,71.07556335548325L81.11288888888889,71.11424018156393L81.19377777777778,71.15445291287823L81.28088888888888,71.1603079133458L81.30577777777778,71.14605467636753L81.33066666666666,71.13640553187945L81.37422222222223,71.07668433208231L81.38666666666667,71.03477479946005L81.46755555555556,71.05102736670604L81.54222222222222,71.04963808368936L81.68533333333333,71.07458876795346L81.77866666666667,71.15070710674975L81.93422222222222,71.15320741949111L81.94666666666667,71.15972941766753L82.08977777777777,71.2526848033105L82.32,71.3978378221413L82.46933333333332,71.3565569642198L82.52533333333334,71.34563007849536L82.57511111111111,71.33160453139594L82.6,71.32150119959616L82.78044444444444,71.28020212661794L82.89866666666666,71.2426360560153L82.94844444444443,71.2868991537508L82.95466666666667,71.33265805266L82.96088888888889,71.36901761067922L82.96711111111112,71.4135369931044L82.99822222222221,71.48658431973354L83.17244444444444,71.58434442881527L83.19111111111111,71.63924468638768L83.24711111111112,71.62268413711949L83.37777777777777,71.50370277887185L83.48355555555555,71.43834857657903L83.52088888888889,71.40048645803552L83.73866666666666,71.31008024495374L83.75733333333332,71.25955012489271L84.29244444444444,71.06600211053438L84.31733333333332,70.95341810935341L84.8648888888889,70.96461307378756L84.97688888888888,71.01222193820546L85.02044444444444,71.0760665308431L85.1448888888889,71.1876748401519L85.66755555555555,71.43947621337155L85.74222222222222,71.55392736048438L85.76088888888889,71.63437187344384L85.77955555555555,71.70386522573563L85.96622222222221,71.74712264038511L86.02222222222223,71.81666978059633L86.05955555555555,71.84253083144672L86.07822222222222,71.87429449602979L86.10311111111112,71.94175619629033L86.27733333333333,71.93260591236955L86.68177777777778,71.95652920370215L86.80622222222222,71.92982249239044L86.81866666666666,71.92747129427747L86.856,71.93496479408358L86.89333333333335,71.95912613520875L87.12355555555555,71.87993874341156L87.17955555555555,71.83436751240428L87.21688888888889,71.76912909432598L87.23555555555555,71.71821221878749L87.34133333333334,71.61402293903019L87.416,71.59873127020809L87.65244444444446,71.52878814147358L87.6648888888889,71.49530448202174L87.92,71.66709808876436L88.57333333333334,71.91757916194402L88.67911111111111,72.12690572966463L88.77866666666667,72.2582830824216L88.90933333333334,72.40846984373084L88.92177777777778,72.5020845078621L89.4071111111111,72.57234813590001L89.47555555555554,72.55479318749404L89.7928888888889,72.5288571861476L89.86133333333333,72.4810125176364L89.88,72.43749348546594L89.89244444444445,72.40467225209191L89.99822222222222,72.37155988392422L90.30311111111112,72.27632310496095L90.38399999999999,72.16638872686822L90.52711111111111,72.04835319080235L90.56444444444443,72.02395196651389L90.65155555555556,72.07303336557717L90.71377777777776,72.01327121792416L90.81955555555555,71.96517590366703L90.90044444444445,71.96121676732844L90.95022222222222,71.98433013897976L90.95644444444444,71.95751727665558L91.07466666666666,71.92100471642662L91.1928888888889,71.89365336887268L91.20533333333333,71.86740993971969L91.31733333333334,71.8396790570935L91.49155555555556,71.85329799097296L91.52888888888889,71.8068624367804L91.55377777777777,71.77203808966217L91.62844444444444,71.75658729280785L91.67200000000001,71.72984597805578L91.76533333333333,71.68578033043994L91.93955555555556,71.63250168558385L91.96444444444444,71.59146147964263L92.10133333333334,71.51185064076094L92.23200000000001,71.40538381432722L92.2631111111111,71.2753761797858L92.28177777777779,71.2119306295938L92.36266666666666,71.21745599090025L92.44977777777778,71.21334399210791L92.568,71.14036044494722L92.57422222222222,71.10787994036926L92.64888888888889,71.09075484257846L92.66133333333335,71.07693497646999L92.97866666666667,70.94854160493111L93.11555555555556,70.81086405483188L93.13422222222222,70.70998488645131L186.82222222222222,105.42790072190982L186.85955555555557,127.19253818171157L186.95911111111113,138.67153924451432L186.96533333333332,144.1403417071471L187.27644444444445,146.7562332892876L187.33866666666668,145.9819120230949L187.62488888888888,142.88051003352854L187.6311111111111,141.33393289885547L187.78666666666666,141.17569513226528L187.91733333333335,139.14288220825776L188.40266666666665,131.48327104820595L188.44,126.31894255980123L188.4711111111111,122.08693548979915L188.78844444444445,117.18672069634522L188.9128888888889,114.15050221875629L188.93155555555555,113.00431014892644L188.9502222222222,111.9947770321202L189.224,111.6468997027773L189.35466666666667,112.39708591617922L189.6968888888889,112.89842855166071L189.87733333333335,112.30163825053376L190.09511111111112,113.75487626849653L190.15733333333336,114.97661561285877L190.17600000000002,115.89998161861543L190.19466666666668,117.29310778182304L190.2008888888889,117.77226613164882L190.21955555555556,117.42405900836548L190.28177777777776,117.33966719556179L190.33155555555555,117.65575087695322L190.47466666666668,117.2762906922639L190.5928888888889,117.24374779067875L190.68622222222223,117.44184790612717L191.1031111111111,121.56237356758982L191.11555555555557,123.40645624695344L191.28977777777777,124.23501827179268L191.33955555555556,125.20268647348212L191.45777777777778,124.1406911496837L191.6071111111111,123.04030578401803L191.61955555555556,122.1855321566291L191.76888888888888,121.6625399589555L191.84977777777777,120.79963708877656L191.96177777777777,120.54876872634941L192.06755555555554,120.65988825759909L192.2231111111111,121.07698951126093L192.34755555555554,121.05809809899901L192.45333333333335,120.81597096762994L192.81422222222224,121.08125934983461L192.87644444444445,120.80214225998634L192.96977777777778,120.48853309959831L193.12533333333332,120.58108259207407L193.26844444444444,120.97991000751485L193.3368888888889,121.22878587686915L193.368,121.6397519471877L193.44266666666667,122.19764164225052L193.52977777777778,122.39906537971362L193.62311111111111,121.93165038848801L193.65422222222222,121.76041522279317L193.7351111111111,121.9498253360685L194.04,122.22927555175396L194.10222222222222,122.0530149598823L194.13333333333333,122.03039277910617L194.58133333333333,121.44049286198276L194.8488888888889,120.68113666147991L194.97333333333333,120.24176997525112L195.12266666666665,119.68498594869749L195.2222222222222,119.28508339470369L195.41511111111112,118.8705178960903L195.45866666666666,118.31025754360815L195.46488888888888,118.06145551531594L195.56444444444443,118.07392723756482L195.67644444444446,118.03992758391774L195.8071111111111,117.79590952276277L195.8631111111111,118.04170630859775L195.9813333333333,118.41630525641122L196.0871111111111,118.94840786965173L196.12444444444444,119.28843188113855L196.1368888888889,119.5859616841488L196.1928888888889,119.66037194762305L196.32355555555554,119.90479332467118L196.56622222222222,120.19049544251074L196.8897777777778,120.57397215793199L197.0702222222222,121.1223734547475L197.3688888888889,121.29058969555953L197.47466666666668,121.48887504421859L197.49955555555553,121.84686755468357L197.58044444444442,122.07466068822072L197.67999999999998,121.99316211079312L197.8231111111111,122.24346159180857L197.82933333333332,122.38899927068266L197.97866666666664,123.10522979693712L198.29600000000002,123.8632004010503L198.31466666666668,124.14460369991203L198.39555555555557,124.84879600195252L198.45155555555556,125.28614471428486L198.49511111111113,125.59425663753086L198.61955555555554,125.79566622617085L198.70044444444443,126.11303779150386L199.21066666666667,127.21202863612963L199.25422222222224,128.0616400418234L199.304,128.80570177659698L199.31644444444444,129.3058806301671L199.62133333333333,130.61828366527064L199.68977777777778,131.46917331939392L199.95111111111112,132.5281183619824L200.01333333333335,133.05623386261024L200.26222222222222,133.10281159613822L200.35555555555555,133.00753397783217L200.49866666666665,133.08063908005101L200.5048888888889,133.1195647310277L200.57333333333335,133.30855546898005L201.00266666666667,133.86270873609988L201.28266666666667,134.23512198009377L201.3262222222222,134.2410706703561L201.38844444444445,134.43951989321093L201.58755555555555,134.80370864098177L201.64977777777779,135.04914554610787L201.6746666666667,135.0906120673116L201.69955555555555,135.17260979981998L201.73688888888887,135.16445851905215L201.7928888888889,135.182355798382L201.86755555555555,135.3404779750696L201.94222222222223,135.28788307181543L202.42755555555556,135.51535027308185L202.47111111111113,135.65172509362048L202.6391111111111,136.2889242506608L202.65155555555557,136.71859224418307L202.65777777777777,137.02555614340008L202.70755555555556,137.04975394742314L202.98133333333334,137.23978279791254L202.99377777777778,137.32360594488367L203.38577777777778,137.380694047315L203.4791111111111,137.47411143285214L203.58488888888888,137.3214613264929L203.66577777777778,137.52731858647647L203.68444444444444,137.624331286888L203.95200000000003,137.90058676441944L203.9831111111111,138.13892420316L204.08266666666665,138.0258565293804L204.0888888888889,137.98038197201817L204.1697777777778,137.97535778428514L204.21955555555556,137.82327145901561L204.22577777777778,137.77578115562946L204.3688888888889,137.83740526259157L204.41244444444445,137.84224435937531L204.56177777777776,138.34815177233287L204.6488888888889,138.95931376523527L204.68622222222223,139.46383645002092L204.7048888888889,139.66927885689756L204.97244444444445,139.54582148360268L205.0222222222222,139.4298423717442L205.07822222222222,139.39686348140378L205.22133333333332,139.45934521973214L205.28355555555555,139.31682978522826L205.37688888888889,139.27172710926558L205.38933333333335,139.29045259971156L205.47022222222225,139.2704387284442L205.4888888888889,139.1000956736281L205.61955555555556,139.3009919763967L205.75022222222225,139.5079555393079L205.80622222222223,139.83347029929277L206.01155555555556,140.23197258141582L206.0551111111111,140.44377049342955L206.08622222222223,140.5884255774984L206.19822222222223,140.70264868546536L206.44088888888888,140.96137834911946L206.51555555555555,141.07751776531566L206.5591111111111,141.017098542185L206.6088888888889,141.02756250627715L206.64,141.05544733004496L206.64622222222224,141.13988826630538L206.70222222222222,141.17565619682085L206.83288888888887,141.3840422471453L207.00088888888888,141.7987352848106L207.00711111111113,142.07738656998L207.38044444444444,142.19497113704867L207.41777777777776,142.3385491304409L207.52977777777778,142.37118621425694L207.9466666666667,142.40956860397372L208.00266666666667,142.40451387890639L208.152,142.5891237373856L208.208,142.595929734451L208.51288888888888,142.5534033349409L208.6311111111111,142.53907051868754L208.66844444444445,142.52219961158931L208.69955555555555,142.5217197875529L208.73688888888887,142.71316799523527L208.8488888888889,142.66510237814236L208.95466666666667,142.74338793254645L208.992,142.7342331474826L209.11022222222223,142.75233012591633L209.43377777777778,142.7190470204044L209.49599999999998,142.5933448353582L209.58311111111112,142.561685016106L209.65777777777777,142.4287066855135L209.7697777777778,142.4321804617704L209.93155555555555,142.37704140751723L210.04355555555557,142.20663888698311L210.07466666666664,142.15003677037657L210.09955555555555,142.14941357032836L210.13688888888888,142.10489835772736L210.3297777777778,142.23129115124834L210.42933333333335,142.58218700421023L210.43555555555554,142.7502290268669L210.49155555555555,142.81106965660618L210.54133333333334,142.96586088251806L210.728,143.17003835148645L210.86488888888888,143.47271811072244L210.896,143.69699025573857L210.97066666666666,144.02947195781786L211.18222222222224,144.3142051578374L211.18844444444446,144.52663326506683L211.26311111111113,144.52765866425557L211.46844444444446,144.6772402161772L211.4933333333333,144.8130927440175L211.54933333333332,144.95851629475635L211.5617777777778,145.0012915319197L211.79822222222222,145.14178311502883L211.83555555555554,145.1159991340396L211.87911111111111,144.98327579954605L211.91022222222222,144.87912354743082L212.072,145.00286118671647L212.08444444444444,145.03697148612355L212.296,145.0857539251518L212.56355555555555,144.67896987408827L212.62577777777778,144.385525339904L212.75644444444444,144.02504423264418L213.04266666666666,143.68770461442318L213.24800000000002,143.50306708074956L213.36,143.33309893642274L213.4968888888889,143.1078515913153L213.54666666666668,143.06022616780177L213.59644444444444,143.10503686759697L214.31199999999998,143.43270441826473L214.3431111111111,143.6606807144658L214.36177777777777,143.75461230231377L214.49866666666668,144.00730716677342L214.71644444444445,144.29010306055451L214.74755555555555,144.5038585892624L214.77866666666668,144.5938153261725L214.90311111111112,144.67135811774628L214.94044444444444,144.70995017605236L215.13955555555555,144.68417440841915L215.152,144.6717895542998L215.5751111111111,144.67438116284717L215.9857777777778,144.84165587551888L215.992,144.9388556964844L216.0791111111111,145.25653733299072L216.17866666666666,145.3007753079288L216.40888888888887,145.55832137734612L216.56444444444446,145.58717715544054L216.72,145.62706766964527L216.96888888888887,146.17791228319135L217.26133333333334,146.86435569778044L217.2862222222222,147.296794289678L217.29866666666666,147.57334848065955L217.3671111111111,147.62373715293273L217.70933333333332,147.82078730614109L217.74044444444445,147.98193488807155L217.7902222222222,148.0679679148833L217.83377777777778,148.20149810275072L217.9271111111111,148.13849461532016L217.952,148.11588455472221L217.95822222222222,148.082231276237L217.97688888888888,148.08826666414916L218.35644444444443,148.32535988652816L218.44977777777777,148.55773410894932L218.4808888888889,148.71471387921846L218.54311111111113,148.8032258294766L218.75466666666668,148.78735695497662L218.83555555555554,148.86814381966872L218.8417777777778,148.9304786675566L218.85422222222223,148.9579836555358L219.02844444444443,148.96486502814508L219.10933333333332,148.94504530148635L219.19644444444444,148.79167766879152L219.28977777777777,148.84552169507828L219.6008888888889,148.7026344434386L219.6071111111111,148.6323262248018L219.61333333333334,148.57473826131684L219.62577777777776,148.59361079526818L219.7937777777778,148.71914885516685L219.8062222222222,148.76602883145648L220.14222222222224,148.6587367332305L220.26666666666665,148.54315166689906L220.6026666666667,148.67401894699302L220.65866666666668,148.75325671655395L221.0568888888889,148.7710061158088L221.11911111111112,148.75019558938425L221.15022222222223,148.73637997074172L221.21866666666668,148.70924826004054L221.27466666666666,148.72383859835824L221.57333333333332,148.80321464945533L221.79733333333334,148.72215111022985L221.96533333333332,148.84501414636244L222.22666666666666,148.78362838470622L222.35733333333334,148.8047376492243L222.40088888888891,148.82447172275903L222.51288888888888,148.8725831429465L222.66222222222223,148.86543221952337L222.6871111111111,148.8904918270219L223.11644444444445,148.87940573673893L223.12266666666665,148.8497550343362L223.61422222222222,148.86359357922595L223.6702222222222,148.8137449842055L223.78844444444445,148.88849204667557L224.15555555555557,149.11821887188046L224.40444444444444,149.18864032562314L224.616,149.39990455231512L224.672,149.4688700671281L224.74666666666667,149.54506444902924L224.7902222222222,149.56999753458328L225.10755555555556,149.61850645627396L225.2008888888889,149.54770309976237L225.33777777777777,149.40780218155086L225.44977777777777,149.25691119021712L225.64888888888888,149.13459992877563L225.7422222222222,149.10529116435004L225.77955555555556,149.00978344227764L225.91022222222222,148.89597289053134L226.12177777777777,148.7315969579669L226.20888888888888,148.52247046668833L226.25244444444445,148.42463562988934L226.25866666666667,148.38270926298907L226.28977777777777,148.42547448529126L226.464,148.43541408570607L226.71911111111112,148.69261607284545L226.9928888888889,148.7243460080337L227.17333333333335,148.81577822097012L227.2728888888889,148.81845713930048L227.32888888888888,148.89395684526394L227.33511111111113,148.95904851034894L227.53422222222224,148.9205819468237L227.752,148.9412002003513L227.9262222222222,148.94732553936964L227.96977777777778,149.00484805570798L227.976,149.04607137958263L228.02577777777776,149.13372570586233L228.0631111111111,149.18501009888666L228.08177777777777,149.26779234377864L228.15644444444445,149.42973502617076L228.16266666666667,149.51797531688794L228.2,149.52698919918882L228.2062222222222,149.55079676715576L228.256,149.6211230254653L228.31822222222223,149.55279674866688L228.38044444444444,149.5798064252072L228.3928888888889,149.60886215807997L228.52977777777778,149.64714244152307L228.63555555555556,149.75792899575947L228.70399999999998,149.89599337844322L229.05244444444446,150.22971153419178L229.096,150.4567183837948L229.1271111111111,150.60224871311536L229.2328888888889,150.64983552738394L229.31377777777777,150.65946087625244L229.53155555555557,150.59210333220133L229.69955555555555,150.4121542131422L229.7368888888889,150.327964491577L229.7991111111111,150.25354430850211L229.83644444444445,150.15972909555353L230.2222222222222,150.11031858221008L230.42755555555556,150.01021922645165L230.46488888888888,149.92348915706393L230.63288888888889,149.8219082115311L230.69511111111112,149.79343261231296L230.8008888888889,149.73883137410462L230.86933333333334,149.71911045852642L231.10577777777777,149.76211692418659L231.13066666666668,149.76692625955337L231.2613333333333,149.83815490410078L231.45422222222223,149.89125221255622L231.64711111111112,150.0360802345467L231.70933333333335,150.0667665298576L231.7902222222222,150.0895882162926L231.83999999999997,150.14729592045998L231.97066666666666,150.10956849122553L232.44355555555555,149.9476928416759L232.53066666666666,149.91884719514064L232.64266666666666,149.85986721982485L232.77955555555553,149.8028305892344L232.86044444444443,149.7874087503073L232.97244444444445,149.77684744420748L233.04088888888887,149.7215796579307L233.09688888888888,149.67586445983562L233.30844444444443,149.67310129270734L233.53244444444445,149.7632074848758L233.75022222222222,149.88664814567238L234.5591111111111,150.16413806876938L234.57155555555556,150.29206114173763L234.59022222222222,150.37111489034191L234.73333333333335,150.4435084918529L234.7457777777778,150.4945828687781L234.93866666666665,150.72574121544565L235.312,150.9162157320369L235.3182222222222,151.04659977575466L235.43644444444442,151.1327005184908L235.4488888888889,151.19613478882422L235.592,151.21161830367635L235.63555555555553,151.1857768389105L235.64177777777778,151.169934359343L236.27644444444442,151.20007585474914L236.4008888888889,151.27213466518566L236.60622222222221,151.35763334008124L236.63733333333332,151.4116966508154L236.73688888888887,151.28594760550996L236.91733333333332,151.23187252315245L237.05422222222225,151.20027147550795L237.18488888888888,151.06996591341147L237.30311111111112,151.0392154756286L237.44622222222222,151.12314262766225L237.45244444444447,151.16986971127142L237.5271111111111,151.3360479511448L237.70133333333334,151.46634995923202L237.78222222222223,151.58523314944352L237.78844444444445,151.65630986303952L237.86933333333334,151.75740301377098L237.888,151.8252751193436L238,151.8867608262295L238.01244444444447,151.95070250709017L238.03111111111113,152.01729937481386L238.1431111111111,152.12948294691745L238.51022222222224,152.30309511311344L238.59733333333332,152.4034011047333L238.92711111111112,152.57182792671023L238.99555555555554,152.66258719830216L239.12,152.68530829470444L239.15111111111113,152.69288523984605L239.176,152.7353692864933L239.27555555555554,152.92404745671496L239.43111111111114,153.1904406801066L239.66133333333332,153.27212205023767L239.67377777777776,153.30228853280067L239.68622222222223,153.3314237454815L239.74844444444446,153.33736314888483L239.87911111111111,153.35852422783185L239.9848888888889,153.3421239141786L240.06577777777778,153.30335556531924L240.17155555555556,153.24173467555633L240.2088888888889,153.23805801152582L240.2151111111111,153.2425196270907L240.25244444444445,153.2573291218735L240.3706666666667,153.27543553808079L240.38933333333335,153.29891721426688L240.61955555555556,153.45659202110318L240.70666666666668,153.54011938197348L240.744,153.57611986889196L240.78133333333332,153.62398971613493L240.90577777777779,153.56634914336345L240.92444444444445,153.56238096390808L240.98044444444443,153.58603751083996L241.20444444444445,153.63831701887125L241.75199999999998,153.7539583004264L242.00711111111113,153.7946470091788L242.0257777777778,153.80511310518082L242.05066666666667,153.77691529047658L242.08800000000002,153.81515211732489L242.1751111111111,153.84739933294827L242.21866666666665,153.90504424263702L242.27466666666666,153.8986127024273L242.33066666666667,153.90777250560407L242.37422222222222,153.93373543043313L242.38666666666668,153.97163703214747L242.4551111111111,153.99716319901722L242.48622222222224,153.96616430200928L242.64177777777778,154.0322394413816L242.65422222222222,154.0516284825246L242.71644444444445,154.0496312786245L242.7848888888889,154.05938387925045L242.80355555555556,154.0656574405111L243.03377777777777,154.16394977550965L243.32622222222224,154.17285477150236L243.38844444444445,154.1772060670183L243.5066666666667,154.2229664348201L243.768,154.44804566995114L243.9111111111111,154.5577942579735L243.93599999999998,154.6752752190679L244.09777777777776,154.79074909006647L244.76355555555557,155.04394139835293L244.92533333333336,155.34056088679472L245.06222222222223,155.50325614782236L245.3048888888889,155.59996600253618L245.46044444444445,155.66303482594034L245.48533333333333,155.7454816135283L245.54755555555556,155.8708676452943L245.55377777777778,155.96259949895784L245.58488888888888,156.02605752881186L245.62844444444445,156.02729166946298L245.63466666666665,156.0396582782356L245.69688888888888,156.03760432363077L245.93955555555556,156.01904881453822L245.952,156.0052147034187L246.13866666666667,155.93815061350932L246.38133333333334,155.92527891695656L246.4,155.93376073300928L246.40622222222223,155.94908334410243L246.68622222222223,155.88010124681026L246.80444444444444,155.80997372816586L246.82933333333332,155.75312718600372L246.95377777777776,155.77584167987308L247.00977777777777,155.8349409715545L247.0533333333333,155.8726371512538L247.23377777777776,155.9876519528464L247.44533333333334,155.992980900254L247.66933333333333,155.99172615936166L247.92444444444445,155.94531281906828L248.20444444444445,155.99943848680533L248.2542222222222,156.05759264130037L248.34133333333335,156.13257521807338L248.56533333333334,156.26141633998856L248.584,156.35851285464457L248.64622222222224,156.45696634773554L248.85777777777778,156.6126555462131L248.88888888888889,156.73681182977256" style="fill: none;" fill="none"></path></g></g></g></g><g opacity="0.2"><g><g><g><path stroke="rgb(255, 112, 67)" stroke-width="2px" d="M31.39111111111111,60.674772405624324L31.49066666666667,59.910739803314144L31.565333333333335,38.94953384399406L31.695999999999998,7.297251963615338L31.78933333333333,9.914395952224652L32.007111111111115,10.939225101470868L32.013333333333335,14.356377267837445L32.019555555555556,12.981287384033124L32.032000000000004,11.0378678083419L32.05688888888889,14.252670550346295L32.11288888888889,19.183645391464154L32.23733333333333,33.86452867984764L32.31822222222222,35.3883738756179L32.330666666666666,38.00182535648338L32.43022222222222,42.97299578189842L32.523555555555554,51.46977260112756L32.56711111111111,51.212879562377864L32.654222222222224,49.38698723316186L32.704,51.91065802574151L32.766222222222225,47.05532684326164L33.05866666666667,48.1945182323455L33.35111111111111,43.015617871284405L33.56888888888889,49.57024111747735L33.66222222222222,49.47813942432397L33.84888888888889,50.757435107231075L33.96088888888889,56.35401084423059L34.12266666666667,56.98732867240899L34.209777777777774,54.803474092483455L34.26577777777778,57.616637492179805L34.384,53.68875875473016L34.53955555555555,51.5772773265838L34.97511111111111,41.91651656627647L35.12444444444444,45.34928276538841L35.14933333333333,46.7468441963195L35.41688888888889,48.75314190387718L35.45422222222222,49.24772694110864L35.80266666666667,54.36765267848962L35.976888888888894,52.94160618782037L36.02044444444444,51.38674392700189L36.269333333333336,51.493826651573116L36.32533333333333,50.95788552761071L36.337777777777774,50.30188515186303L36.38133333333334,51.132488393783504L36.54311111111111,51.583290839195186L36.54933333333334,51.91150202751153L36.723555555555556,52.31250836849206L36.81688888888888,52.00951173305505L36.86666666666666,52.06627085208886L36.922666666666665,50.023259067535335L37.028444444444446,49.14053871631616L37.21511111111111,50.59939577579492L37.39555555555556,49.648627781867916L37.44533333333334,50.83445026874536L37.625777777777785,49.622252726554805L37.72533333333334,53.25842335224145L37.992888888888885,54.49783995151513L38.32266666666666,53.22951629161828L38.34133333333333,53.88541116714471L38.81422222222223,60.272078061103755L38.95733333333333,61.47372558116906L38.98844444444445,62.5513048410415L39.09422222222222,64.73115041255944L39.175111111111114,64.61520566940301L39.54222222222222,64.29416849613183L39.660444444444444,67.06333830356591L39.71644444444444,67.16039850711816L39.815999999999995,65.42565836906427L39.903111111111116,66.18082895278924L39.984,67.4362815856933L40.05244444444445,68.622631573677L40.17688888888889,68.18248465061181L40.22044444444444,68.9622367858886L40.264,68.98681833744043L40.30133333333333,68.49170579910272L40.35111111111111,69.30585100650781L40.43822222222222,68.96519079208367L40.51288888888889,68.04744436740869L40.599999999999994,68.45193221569055L41.28444444444444,67.49884321689599L41.30933333333333,67.85216345787042L41.37155555555555,68.2142402172088L41.44,67.29005827903741L41.65777777777778,70.43459787368768L41.769777777777776,70.83824172019952L41.87555555555556,71.43136396408075L41.99377777777777,71.6561849355697L42.099555555555554,71.19683697223657L42.19911111111111,71.06580569744104L42.24266666666667,70.58577969074243L42.385777777777776,69.84727814197534L42.392,69.95636537075036L42.48533333333333,69.73397090435022L42.54755555555556,70.38427426815026L42.67822222222222,70.00806047916406L42.690666666666665,69.59660961627954L42.827555555555556,70.38490726947778L42.858666666666664,70.33933117389672L43.03911111111111,69.48984339237207L43.05155555555556,69.62203516960138L43.08888888888889,70.3256161451339L43.24444444444444,72.46800913810723L43.29422222222222,72.87618949413293L43.41866666666667,73.27677383422845L43.611555555555555,72.69842162132257L43.623999999999995,72.75433673858636L43.67377777777777,72.74178221225732L43.717333333333336,72.38170995712274L43.81688888888889,72.56950035095208L43.82311111111111,72.52160325050347L43.83555555555556,72.03503623008721L44.10933333333333,71.86096086502069L44.30844444444444,71.2477935791015L44.42044444444445,71.10526278018945L44.48888888888889,71.25074758529657L44.538666666666664,71.11117079257959L44.62577777777778,71.17383792400354L44.632,71.35962381362909L44.65688888888889,71.67654647827142L45.01777777777777,70.64127280712121L45.167111111111105,71.0860617399215L45.18577777777778,70.70446743965142L45.559111111111115,70.2153684139251L45.80177777777777,70.56003763675683L45.82666666666666,70.04002704620355L45.95111111111112,69.74937393665307L46.41155555555555,69.41187872886651L46.44888888888889,69.5172734498977L46.46133333333333,69.57086756229394L46.83466666666667,69.53098847866052L47.400888888888886,71.19736447334283L47.432,70.53598358631127L47.50666666666667,71.19694247245782L47.6,70.76270356178277L47.824000000000005,70.71090295314782L47.91111111111111,71.18881895542138L47.96088888888889,71.22310652732843L47.96711111111111,71.07635571956628L48.57066666666667,70.42299284934991L48.583111111111116,70.38079276084893L48.589333333333336,70.4352308750152L48.64533333333333,69.80064704418176L48.832,70.01301898956292L48.84444444444445,70.34407868385308L48.888,69.40997972488397L48.98755555555556,69.24550487995141L49,69.01952340602868L49.04355555555556,69.08546104431146L49.04977777777778,69.07976403236383L49.31733333333334,69.16848971843713L49.41688888888889,69.84516813755029L49.47288888888889,69.01783540248864L49.60355555555556,69.08778204917901L49.96444444444444,69.7266913890838L50.03288888888889,70.21557941436761L50.21333333333334,69.74525942802423L50.26933333333333,69.98674943447107L50.46844444444445,69.71983387470239L50.623999999999995,70.113349699974L50.69244444444445,70.57639017105096L50.94133333333333,71.16845741271966L50.99733333333334,70.97824051380151L51.40177777777778,72.52645626068109L51.62577777777778,72.47592165470117L52.31644444444445,73.65003361701959L52.55288888888889,75.21249189376825L52.74577777777778,76.68738498687738L52.90133333333333,77.79060080051416L53.044444444444444,77.67064704895013L53.07555555555556,77.5094427108764L53.150222222222226,77.90876104831689L53.30577777777778,78.83558049201959L53.82844444444444,80.61125471591943L54.13955555555555,81.82703926563256L54.30133333333334,81.75129010677331L54.413333333333334,82.10039033889764L54.6,82.01957716941827L54.88,81.73683657646173L55.041777777777774,81.43489494323724L55.284444444444446,80.91931536197656L55.321777777777775,81.0052980422973L55.44622222222222,80.65071179866784L55.70755555555556,80.61072721481317L55.84444444444445,80.40711178779596L55.91288888888889,80.03269150257104L56,79.99291791915887L56.18666666666667,80.13956322669976L56.373333333333335,80.36786570549005L56.39822222222222,80.18482282161706L56.43555555555555,80.00547244548791L56.448,79.90166022777551L56.516444444444446,80.14663174152368L56.616,79.9531443357467L56.672,80.03923251628869L56.80888888888889,79.93658080101007L56.83377777777778,79.86420764923089L56.995555555555555,79.43439974784845L57.09511111111111,79.51500191688531L57.455999999999996,78.67585315704339L57.46222222222222,78.69990720748895L57.51822222222222,78.69389369487756L57.55555555555555,78.92652168273919L57.64888888888889,79.21232178211206L57.68,79.2077852725982L57.72977777777778,79.47818233966821L57.80444444444445,79.48356285095208L57.97866666666667,79.5079334020614L58.159111111111116,79.37067761421197L58.39555555555555,78.90172913074487L58.48266666666667,78.93854870796197L58.650666666666666,78.46358671188348L58.75644444444445,78.14824655055993L58.88088888888889,78.14381554126733L59.129777777777775,77.97301068305963L59.25422222222222,77.34496786594384L59.37866666666666,77.09830834865564L59.44711111111111,77.15169146060937L59.49066666666667,77.12890341281884L59.94488888888889,77.88375749588006L60.06933333333333,77.96573116779321L60.312000000000005,78.09549643993371L60.330666666666666,78.22272970676416L60.60444444444444,78.2201977014541L60.64177777777778,78.13453152179711L60.660444444444444,78.11195447444909L60.766222222222225,77.96931817531579L60.940444444444445,77.74470820426934L61.13955555555555,77.64479949474328L61.18933333333333,77.84261240959161L61.31377777777777,77.41523101329797L61.44444444444444,77.44740858077996L61.61866666666666,77.93640210628503L61.64355555555555,77.86402895450586L61.75555555555556,78.0083532571792L61.92977777777778,77.92332007884973L62.147555555555556,77.62770845890039L62.352888888888884,77.54035427570336L62.40888888888889,77.73384168148034L62.41511111111111,77.6176859378814L62.52088888888889,77.88439049720758L62.831999999999994,77.65218451023095L63.26133333333334,77.6263369560241L63.29866666666667,77.6631565332412L63.348444444444446,77.50796570777887L63.46666666666666,76.95957555770867L63.49155555555555,76.6990955114364L63.553777777777775,76.43861546516412L63.88355555555555,76.14026083946221L64.00177777777778,75.89634432792657L64.05777777777777,75.5389095783233L64.25688888888888,75.17936482429498L64.43111111111111,74.98302891254419L64.80444444444444,75.48457696437829L64.82933333333334,75.4523993968963L64.94755555555555,75.31799211502069L65.12177777777778,74.95517685413354L65.28355555555555,74.74987342357629L65.60711111111111,74.99315693378442L65.72533333333332,75.0226969957351L66.37244444444444,74.5708395481109L66.39111111111112,74.66188623905175L66.55911111111111,74.71674635410302L66.66488888888888,74.53760697841638L66.94488888888888,74.34306457042688L67.05688888888889,74.60860862731927L67.13155555555555,74.55332651138299L67.20622222222222,74.58223357200616L67.34933333333333,74.39338817596429L67.38666666666667,74.43179025650018L67.77244444444445,74.52178194522851L67.94044444444444,73.92021968364709L68.12088888888889,74.19652476310723L68.1768888888889,74.27195742130273L68.2328888888889,74.31721701622003L68.35111111111111,74.14124264717096L68.45066666666666,74.05336096286767L68.45688888888888,74.02487590312951L68.50666666666667,73.94332423210138L68.58133333333333,73.93657221794122L69.048,73.74287381172174L69.25955555555555,73.58683898448938L69.6391111111111,72.986964726448L69.776,72.97514870166772L69.81333333333333,72.99192323684686L69.83200000000001,72.9936112403869L69.85066666666667,72.99529924392694L69.95022222222222,72.93315961360925L69.98133333333334,72.74969472885125L70.27377777777778,72.6564325332641L70.37955555555556,72.90414705276483L70.672,73.47469224929803L70.784,73.52185084819787L71.008,74.34295907020562L71.49955555555556,73.82400348186486L71.848,73.6074115276336L71.95377777777779,73.27592983245843L72.02222222222223,73.30958440303796L72.04711111111111,73.33648695945733L72.1528888888889,73.61268653869622L72.32711111111111,73.42415764331811L72.42044444444444,73.66195514202111L72.59466666666665,73.61648454666131L72.67555555555555,73.69255020618432L72.7751111111111,73.73854830265039L73.03644444444444,73.916421675682L73.23555555555555,74.0980930566787L73.25422222222221,73.89880313873284L73.46577777777777,73.61099853515618L73.74577777777777,73.82716848850244L73.808,73.74730482101434L73.82666666666667,73.73548879623407L73.87022222222222,73.58314647674554L73.95111111111112,73.53683187961572L73.98222222222223,73.5100348234176L74.05688888888889,73.57407345771783L74.21244444444446,73.68516519069665L74.256,73.59865500926965L74.31200000000001,73.55423941612237L74.46133333333334,73.74498381614679L74.47377777777777,73.77716138362878L74.57955555555556,73.85702505111688L74.76622222222223,73.30663039684289L75.01511111111111,73.09552445411676L75.10222222222221,73.24280276298516L75.376,73.01154627799981L75.55022222222223,73.25219228267663L75.656,73.10280396938317L75.75555555555556,72.98168971538537L75.83644444444444,72.9763092041015L75.88622222222222,73.1619895935058L75.89866666666667,73.32076742649072L75.98577777777777,73.42257513999932L76.06666666666666,73.49431529045098L76.09155555555554,73.64222660064691L76.11644444444444,73.70774223804467L76.19111111111111,73.64908411502832L76.50844444444445,73.39514508247369L76.60177777777777,73.28858985900872L76.72622222222222,73.09130444526666L76.75111111111111,73.10923948287957L76.75733333333334,73.08697893619531L76.78222222222222,72.97778620719903L76.79466666666667,72.9159630775451L76.98133333333332,72.6590700387954L77.06844444444445,72.55019381046289L77.0808888888889,72.48499467372888L77.24266666666666,72.69567861557L77.39822222222223,72.37875595092767L77.46666666666667,72.18189253807061L77.64088888888888,72.24751367568963L77.65955555555556,72.32262983322137L78.38133333333333,71.63846089839929L78.59288888888888,71.2739576339721L78.76711111111112,71.43252446651452L78.77955555555556,71.34801878929132L78.8231111111111,71.5137596368789L78.87288888888888,71.53517618179315L78.99111111111111,71.40003039836877L79.43288888888888,71.44402399063104L79.51377777777778,71.30697920322412L79.68177777777777,71.50785162448877L79.73777777777778,71.50363161563867L79.77511111111112,71.55733122825616L79.79377777777778,71.6453184127807L79.83111111111111,71.69796302318566L79.85600000000001,71.66135444641107L80.15466666666667,71.64225890636438L80.22933333333333,71.6280163764953L80.24177777777777,71.70123353004449L80.25422222222223,71.72803058624261L80.33511111111112,71.39327838420861L80.35377777777778,71.46069302558892L80.6648888888889,70.87231829166406L80.81422222222223,70.68885340690606L80.87644444444445,70.71987047195428L81.02577777777778,71.06981470584863L81.06311111111111,71.22933104038232L81.11288888888889,71.17225542068475L81.19377777777778,71.21477200984948L81.28088888888888,71.16909041404718L81.30577777777778,71.1246748208999L81.33066666666666,71.12193181514733L81.37422222222223,70.98710253238671L81.38666666666667,70.97191050052636L81.46755555555556,71.07540621757501L81.54222222222222,71.04755415916436L81.68533333333333,71.1120147943496L81.77866666666667,71.26488461494439L81.93422222222222,71.15695788860315L81.94666666666667,71.16951241493219L82.08977777777777,71.39211788177484L82.32,71.61556735038751L82.46933333333332,71.29463567733758L82.52533333333334,71.32923974990838L82.57511111111111,71.3105662107467L82.6,71.3063462018966L82.78044444444444,71.21825351715081L82.89866666666666,71.18628695011132L82.94844444444443,71.35329380035394L82.95466666666667,71.4012964010238L82.96088888888889,71.42355694770806L82.96711111111112,71.48031606674188L82.99822222222221,71.59615530967706L83.17244444444444,71.73098459243768L83.19111111111111,71.72159507274621L83.24711111111112,71.5978433132171L83.37777777777777,71.32523074150079L83.48355555555555,71.34031727313989L83.52088888888889,71.34369328021997L83.73866666666666,71.17447092533105L83.75733333333332,71.18375494480127L84.29244444444444,70.77568008899682L84.31733333333332,70.78454210758203L84.8648888888889,70.98140552043908L84.97688888888888,71.0836352348327L85.02044444444444,71.17183341979974L85.1448888888889,71.35508730411523L85.66755555555555,71.81717827320092L85.74222222222222,71.7256040811538L85.76088888888889,71.75503864288324L85.77955555555555,71.80810525417321L85.96622222222221,71.81200876235955L86.02222222222223,71.92099049091333L86.05955555555555,71.88132240772241L86.07822222222222,71.9219399929046L86.10311111111112,72.04294874668115L86.27733333333333,71.91888048648828L86.68177777777778,71.99241414070123L86.80622222222222,71.8897624254226L86.81866666666666,71.9239444971084L86.856,71.94620504379266L86.89333333333335,71.9953681468963L87.12355555555555,71.76115765571588L87.17955555555555,71.76601066589349L87.21688888888889,71.6712714672088L87.23555555555555,71.64183690547937L87.34133333333334,71.45773901939386L87.416,71.57579376697534L87.65244444444446,71.42387344837182L87.6648888888889,71.44507899284356L87.92,71.92478849887841L88.57333333333334,72.29330077171319L88.67911111111111,72.44089558124536L88.77866666666667,72.45534911155694L88.90933333333334,72.63374998569482L88.92177777777778,72.64250650405877L89.4071111111111,72.67774357795709L89.47555555555554,72.52846076488488L89.7928888888889,72.48995318412774L89.86133333333333,72.40924551486962L89.88,72.37221493721002L89.89244444444445,72.35544040203088L89.99822222222222,72.3218913316726L90.30311111111112,72.13346793651574L90.38399999999999,72.00148715972894L90.52711111111111,71.87129988670343L90.56444444444443,71.98735013008111L90.65155555555556,72.1466554641723L90.71377777777776,71.92362799644464L90.81955555555555,71.89303293228143L90.90044444444445,71.95527806282037L90.95022222222222,72.01900019645684L90.95644444444444,71.91729798316949L91.07466666666666,71.86623587608331L91.1928888888889,71.85262634754174L91.20533333333333,71.82804479598992L91.31733333333334,71.79808273315423L91.49155555555556,71.87372639179223L91.52888888888889,71.73720910549157L91.55377777777777,71.71980156898492L91.62844444444444,71.73341109752648L91.67200000000001,71.68973400592797L91.76533333333333,71.61968185901635L91.93955555555556,71.5525837182998L91.96444444444444,71.52990117073053L92.10133333333334,71.3924343824386L92.23200000000001,71.24568357467645L92.2631111111111,71.08036472797387L92.28177777777779,71.11676230430596L92.36266666666666,71.22574403285974L92.44977777777778,71.20717599391931L92.568,71.03088512420648L92.57422222222222,71.05915918350213L92.64888888888889,71.06506719589227L92.66133333333335,71.05620517730706L92.97866666666667,70.75595154762262L93.11555555555556,70.60434772968286L93.13422222222222,70.55866613388055L186.82222222222222,157.5047744750976L186.85955555555557,159.83949437141413L186.95911111111113,155.89004083871836L186.96533333333332,152.3435454010963L187.27644444444445,150.68007066249842L187.33866666666668,144.82043012380595L187.62488888888888,138.22840704917903L187.6311111111111,139.01406719684596L187.78666666666666,140.93833848237986L187.91733333333335,136.0936628222465L188.40266666666665,119.9938543081283L188.44,118.57244982719416L188.4711111111111,115.73892488479609L188.78844444444445,109.83639850616449L188.9128888888889,109.59617450237268L188.93155555555555,111.28502204418177L188.9502222222222,110.48047735691064L189.224,111.12508370876307L189.35466666666667,113.5223652362823L189.6968888888889,113.65044250488276L189.87733333333335,111.40645279884333L190.09511111111112,115.93473329544062L190.15733333333336,116.80922462940211L190.17600000000002,117.28503062725062L190.19466666666668,119.38279702663417L190.2008888888889,118.49100365638728L190.21955555555556,116.9017483234405L190.28177777777776,117.21307947635646L190.33155555555555,118.12987639904017L190.47466666666668,116.70710041522975L190.5928888888889,117.19493343830104L190.68622222222223,117.73899807929988L191.1031111111111,127.74316205978388L191.11555555555557,126.17258026599879L191.28977777777777,125.47786130905146L191.33955555555556,126.65418877601618L191.45777777777778,122.54769816398615L191.6071111111111,121.38972773551936L191.61955555555556,120.9033717155456L191.76888888888888,120.87805166244502L191.84977777777777,119.50528278350825L191.96177777777777,120.17246618270869L192.06755555555554,120.82656755447383L192.2231111111111,121.7026413917541L192.34755555555554,121.02976098060603L192.45333333333335,120.45278027057643L192.81422222222224,121.47919192314143L192.87644444444445,120.38346662521357L192.96977777777778,120.01811935901637L193.12533333333332,120.71990683078761L193.26844444444444,121.57815113067622L193.3368888888889,121.60209968090052L193.368,122.25620105266566L193.44266666666667,123.03447618484492L193.52977777777778,122.70120098590846L193.62311111111111,121.23052790164942L193.65422222222222,121.50356247425074L193.7351111111111,122.2339405059814L194.04,122.64845087528224L194.10222222222222,121.78862407207484L194.13333333333333,121.99645950794215L194.58133333333333,120.55564298629756L194.8488888888889,119.54210236072535L194.97333333333333,119.58271994590754L195.12266666666665,118.84980990886683L195.2222222222222,118.68522956371302L195.41511111111112,118.24866964817042L195.45866666666666,117.4698670148849L195.46488888888888,117.68825247287745L195.56444444444443,118.09263482093806L195.67644444444446,117.98892810344691L195.8071111111111,117.42988243103022L195.8631111111111,118.41040148735041L195.9813333333333,118.97820367813105L196.0871111111111,119.74656178951258L196.12444444444444,119.79846789836878L196.1368888888889,120.0322563886642L196.1928888888889,119.77198734283442L196.32355555555554,120.27142539024348L196.56622222222222,120.61904861927027L196.8897777777778,121.14918723106379L197.0702222222222,121.94497539997096L197.3688888888889,121.5429140567779L197.47466666666668,121.78630306720729L197.49955555555553,122.38385632038111L197.58044444444442,122.41635038852687L197.67999999999998,121.87091424465174L197.8231111111111,122.61891081333155L197.82933333333332,122.60730578899378L197.97866666666664,124.17957558631892L198.29600000000002,125.00015630722041L198.31466666666668,124.56670864820475L198.39555555555557,125.90508445501322L198.45155555555556,125.94216778278346L198.49511111111113,126.05642452239985L198.61955555555554,126.09778060913081L198.70044444444443,126.58909513950343L199.21066666666667,128.8605149030685L199.25422222222224,129.33605715036387L199.304,129.92179437875743L199.31644444444444,130.0561489105224L199.62133333333333,132.58688821792597L199.68977777777778,132.74550780057902L199.95111111111112,134.11653592586512L200.01333333333335,133.84840711355204L200.26222222222222,133.17267819643016L200.35555555555555,132.86461755037303L200.49866666666665,133.1902967333793L200.5048888888889,133.17795320749278L200.57333333333335,133.5920415759086L201.00266666666667,134.69393863677973L201.28266666666667,134.79374184608454L201.3262222222222,134.24999370574946L201.38844444444445,134.73719372749323L201.58755555555555,135.34999176263804L201.64977777777779,135.4173009037971L201.6746666666667,135.15281184911723L201.69955555555555,135.2956063985824L201.73688888888887,135.15223159790034L201.7928888888889,135.20920171737666L201.86755555555555,135.5776612401008L201.94222222222223,135.20899071693415L202.42755555555556,135.85655107498164L202.47111111111113,135.8562873244285L202.6391111111111,137.24472298622126L202.65155555555557,137.3630942344665L202.65777777777777,137.4860019922256L202.70755555555556,137.0860506534576L202.98133333333334,137.5248260736465L202.99377777777778,137.44934066534037L203.38577777777778,137.46632620096202L203.4791111111111,137.61423751115794L203.58488888888888,137.092486166954L203.66577777777778,137.83610447645182L203.68444444444444,137.7698503375053L203.95200000000003,138.31496998071665L203.9831111111111,138.49643036127085L204.08266666666665,137.85625501871104L204.0888888888889,137.91217013597483L204.1697777777778,137.9678215026855L204.21955555555556,137.59514197111125L204.22577777777778,137.70454570055003L204.3688888888889,137.92984142303462L204.41244444444445,137.84950300455088L204.56177777777776,139.10701289176936L204.6488888888889,139.87605675458903L204.68622222222223,140.2206204771995L204.7048888888889,139.97744246721263L204.97244444444445,139.36063542366023L205.0222222222222,139.25587370395655L205.07822222222222,139.34739514589305L205.22133333333332,139.55306782722468L205.28355555555555,139.1030566334724L205.37688888888889,139.2040730953216L205.38933333333335,139.3185408353805L205.47022222222225,139.24041792154307L205.4888888888889,138.8445810914039L205.61955555555556,139.60233643054957L205.75022222222225,139.81840088367457L205.80622222222223,140.32174243926997L206.01155555555556,140.82972600460047L206.0551111111111,140.76146736145014L206.08622222222223,140.8054082036018L206.19822222222223,140.87398334741587L206.44088888888888,141.34947284460063L206.51555555555555,141.25172688961024L206.5591111111111,140.92646970748896L206.6088888888889,141.04325845241542L206.64,141.09727456569667L206.64622222222224,141.2665496706962L206.70222222222222,141.2293080925941L206.83288888888887,141.69662132263178L207.00088888888888,142.42077484130854L207.00711111111113,142.49536349773402L207.38044444444444,142.37134798765177L207.41777777777776,142.55391612052912L207.52977777777778,142.42014183998103L207.9466666666667,142.467142188549L208.00266666666667,142.3969317913055L208.152,142.86603852510447L208.208,142.60613873004908L208.51288888888888,142.48961373567576L208.6311111111111,142.51757129430766L208.66844444444445,142.49689325094218L208.69955555555555,142.52100005149836L208.73688888888887,143.00034030675883L208.8488888888889,142.59300395250315L208.95466666666667,142.86081626415248L208.992,142.72050096988673L209.11022222222223,142.77947559356684L209.43377777777778,142.6691223621368L209.49599999999998,142.4047915577888L209.58311111111112,142.51419528722758L209.65777777777777,142.22923918962474L209.7697777777778,142.4373911261558L209.93155555555555,142.2943328261375L210.04355555555557,141.95103510618205L210.07466666666664,142.06513359546656L210.09955555555555,142.148478770256L210.13688888888888,142.03812553882594L210.3297777777778,142.4208803415298L210.42933333333335,143.1085307836532L210.43555555555554,143.002292060852L210.49155555555555,142.9023306012153L210.54133333333334,143.1980477213859L210.728,143.47630455493922L210.86488888888888,143.92673774957652L210.896,144.03339847326274L210.97066666666666,144.5281945109367L211.18222222222224,144.74130495786662L211.18844444444446,144.8452754259109L211.26311111111113,144.52919676303858L211.46844444444446,144.9016125440597L211.4933333333333,145.016871535778L211.54933333333332,145.17665162086482L211.5617777777778,145.06545438766474L211.79822222222222,145.35252048969264L211.83555555555554,145.07732316255564L211.87911111111111,144.78419079780573L211.91022222222222,144.72289516925807L212.072,145.1884676456451L212.08444444444444,145.08813693523402L212.296,145.1589275836944L212.56355555555555,144.06879379749293L212.62577777777778,143.94535853862757L212.75644444444444,143.4843225717544L213.04266666666666,143.18169518709178L213.24800000000002,143.22611078023905L213.36,143.0781467199325L213.4968888888889,142.76998057365412L213.54666666666668,142.9887880325317L213.59644444444444,143.17225291728968L214.31199999999998,143.92420574426646L214.3431111111111,144.00264515876765L214.36177777777777,143.8955096840858L214.49866666666668,144.38634946346278L214.71644444444445,144.714296901226L214.74755555555555,144.82449188232417L214.77866666666668,144.72875043153758L214.90311111111112,144.78767230510707L214.94044444444444,144.7678382635116L215.13955555555555,144.6455107569694L215.152,144.65321227312083L215.5751111111111,144.67826857566828L215.9857777777778,145.09256794452662L215.992,145.0846554279327L216.0791111111111,145.7330597877502L216.17866666666666,145.3671322703361L216.40888888888887,145.94464048147196L216.56444444444446,145.6304608225822L216.72,145.68690344095225L216.96888888888887,147.00417920351023L217.26133333333334,147.89402081966395L217.2862222222222,147.94545217752452L217.29866666666666,147.98817976713175L217.3671111111111,147.69932016134257L217.70933333333332,148.11636253595347L217.74044444444445,148.2236562609672L217.7902222222222,148.19701745510096L217.83377777777778,148.40179338455195L217.9271111111111,148.0439893841743L217.952,148.08196946382517L217.95822222222222,148.031751358509L217.97688888888888,148.0973197460174L218.35644444444443,148.68099972009654L218.44977777777777,148.90629544258113L218.4808888888889,148.95018353462214L218.54311111111113,148.9359937548637L218.75466666666668,148.76355364322657L218.83555555555554,148.9893241167068L218.8417777777778,149.02398093938822L218.85422222222223,148.99924113750453L219.02844444444443,148.97518708705897L219.10933333333332,148.9153157114982L219.19644444444444,148.5616262197494L219.28977777777777,148.92628773450846L219.6008888888889,148.48830356597895L219.6071111111111,148.52686389684672L219.61333333333334,148.48835631608958L219.62577777777776,148.62191959619517L219.7937777777778,148.9074559450149L219.8062222222222,148.83634879589076L220.14222222222224,148.49779858589167L220.26666666666665,148.36977406740183L220.6026666666667,148.87031986713404L220.65866666666668,148.87211337089533L221.0568888888889,148.7976302146911L221.11911111111112,148.71897979974742L221.15022222222223,148.71565654277796L221.21866666666668,148.66855069398875L221.27466666666666,148.7457241058349L221.57333333333332,148.92227872610087L221.79733333333334,148.60055580139155L221.96533333333332,149.02930870056147L222.22666666666666,148.69154974222178L222.35733333333334,148.83640154600138L222.40088888888891,148.85407283306117L222.51288888888888,148.94475027322764L222.66222222222223,148.85470583438868L222.6871111111111,148.92808123826975L223.11644444444445,148.8627766013145L223.12266666666665,148.8052789807319L223.61422222222222,148.88435139656062L223.6702222222222,148.73897209167475L223.78844444444445,149.0006126403808L224.15555555555557,149.46280910968775L224.40444444444444,149.29427250623698L224.616,149.716800892353L224.672,149.5723183393478L224.74666666666667,149.65935602188105L224.7902222222222,149.60739716291422L225.10755555555556,149.69126983880992L225.2008888888889,149.44149806499476L225.33777777777777,149.1979508042335L225.44977777777777,149.0305747032165L225.64888888888888,148.9511330366134L225.7422222222222,149.0613280177116L225.77955555555556,148.86652185916896L225.91022222222222,148.72525706291194L226.12177777777777,148.48503305912013L226.20888888888888,148.2087807297706L226.25244444444445,148.27788337469096L226.25866666666667,148.3198197126388L226.28977777777777,148.4896223187446L226.464,148.45032348632807L226.71911111111112,149.07841905355448L226.9928888888889,148.77194091081614L227.17333333333335,148.9529265403747L227.2728888888889,148.82247551679606L227.32888888888888,149.0072064042091L227.33511111111113,149.05668600797648L227.53422222222224,148.86288210153575L227.752,148.97212758064265L227.9262222222222,148.9565135478973L227.96977777777778,149.0911318302154L227.976,149.10790636539454L228.02577777777776,149.26520719528193L228.0631111111111,149.2619366884231L228.08177777777777,149.39196571111674L228.15644444444445,149.67264904975886L228.16266666666667,149.65033575296397L228.2,149.54051002264018L228.2062222222222,149.58650811910624L228.256,149.72661241292948L228.31822222222223,149.45030733346934L228.38044444444444,149.62032094001765L228.3928888888889,149.65244575738902L228.52977777777778,149.70456286668772L228.63555555555556,149.92410882711405L228.70399999999998,150.10308995246882L229.05244444444446,150.73028876781459L229.096,150.79722865819926L229.1271111111111,150.82054420709605L229.2328888888889,150.72121574878688L229.31377777777777,150.67389889955516L229.53155555555557,150.49106701612467L229.69955555555555,150.14223053455348L229.7368888888889,150.20167990922923L229.7991111111111,150.14191403388972L229.83644444444445,150.01900627613063L230.2222222222222,150.03620281219477L230.42755555555556,149.86007019281382L230.46488888888888,149.79339405298228L230.63288888888889,149.6695367932319L230.69511111111112,149.75071921348567L230.8008888888889,149.65692951679225L230.86933333333334,149.68952908515925L231.10577777777777,149.8266266226768L231.13066666666668,149.7741402626037L231.2613333333333,149.94499787092204L231.45422222222223,149.9708981752395L231.64711111111112,150.2533222675323L231.70933333333335,150.11279597282405L231.7902222222222,150.12382074594493L231.83999999999997,150.23385747671122L231.97066666666666,150.0529773473739L232.44355555555555,149.70487936735148L232.53066666666666,149.87557872533793L232.64266666666666,149.77139725685115L232.77955555555553,149.71727564334864L232.86044444444443,149.7642759919166L232.97244444444445,149.76100548505778L233.04088888888887,149.63867797851557L233.09688888888888,149.60729166269297L233.30844444444443,149.66895654201502L233.53244444444445,149.89836677312846L233.75022222222222,150.07180913686747L234.5591111111111,150.58037295341487L234.57155555555556,150.48394575119013L234.59022222222222,150.4896955132484L234.73333333333335,150.5520988941192L234.7457777777778,150.5711944341659L234.93866666666665,151.07247873544688L235.312,151.20192750692362L235.3182222222222,151.24217584133143L235.43644444444442,151.261851632595L235.4488888888889,151.29128619432444L235.592,151.2348435759544L235.63555555555553,151.14701464176173L235.64177777777778,151.1461706399917L236.27644444444442,151.24528809785838L236.4008888888889,151.38022288084025L236.60622222222221,151.48588135242457L236.63733333333332,151.4927916169166L236.73688888888887,151.09732403755183L236.91733333333332,151.1507598996162L237.05422222222225,151.15286990404124L237.18488888888888,150.87450757026667L237.30311111111112,150.99308981895442L237.44622222222222,151.24903335571284L237.45244444444447,151.23996033668513L237.5271111111111,151.585315310955L237.70133333333334,151.66180297136302L237.78222222222223,151.763557934761L237.78844444444445,151.76292493343348L237.86933333333334,151.9090427398681L237.888,151.92708327770228L238,151.97898938655848L238.01244444444447,152.0466150283813L238.03111111111113,152.11719467639918L238.1431111111111,152.29775830507273L238.51022222222224,152.56351336240763L238.59733333333332,152.55386009216303L238.92711111111112,152.82446815967555L238.99555555555554,152.79872610568995L239.12,152.71938993930812L239.15111111111113,152.7042506575584L239.176,152.79909535646433L239.27555555555554,153.20706471204753L239.43111111111114,153.5900305151939L239.66133333333332,153.39464410543437L239.67377777777776,153.34753825664515L239.68622222222223,153.37512656450266L239.74844444444446,153.34627225399012L239.87911111111111,153.3902658462524L239.9848888888889,153.31752344369883L240.06577777777778,153.24520304203028L240.17155555555556,153.1493033409118L240.2088888888889,153.23254301548L240.2151111111111,153.24921205043788L240.25244444444445,153.27954336404795L240.3706666666667,153.3025951623916L240.38933333333335,153.3341397285461L240.61955555555556,153.69310423135752L240.70666666666668,153.66541042327876L240.744,153.63012059926982L240.78133333333332,153.69579448699946L240.90577777777779,153.47988828420634L240.92444444444445,153.55642869472499L240.98044444444443,153.62152233123774L241.20444444444445,153.71673628091807L241.75199999999998,153.9274202227592L242.00711111111113,153.85568007230754L242.0257777777778,153.8208122491836L242.05066666666667,153.73461856842036L242.08800000000002,153.8725073575973L242.1751111111111,153.89577015638346L242.21866666666665,153.99151160717005L242.27466666666666,153.88896539211268L242.33066666666667,153.92151221036906L242.37422222222222,153.9726798176765L242.38666666666668,154.02848943471903L242.4551111111111,154.0354524493217L242.48622222222224,153.91966595649714L242.64177777777778,154.13135215044016L242.65422222222222,154.080712044239L242.71644444444445,154.04663547277445L242.7848888888889,154.07401278018946L242.80355555555556,154.075067782402L243.03377777777777,154.31138827800746L243.32622222222224,154.18621226549143L243.38844444444445,154.183733010292L243.5066666666667,154.29160698652262L243.768,154.7856645226478L243.9111111111111,154.72241714000697L243.93599999999998,154.85149666070933L244.09777777777776,154.96395989656443L244.76355555555557,155.42372986078257L244.92533333333336,155.7854901194572L245.06222222222223,155.7472990393638L245.3048888888889,155.74503078460688L245.46044444444445,155.75763806104655L245.48533333333333,155.86915179491038L245.54755555555556,156.05894669294352L245.55377777777778,156.10019727945323L245.58488888888888,156.1212445735931L245.62844444444445,156.0291428804397L245.63466666666665,156.05820819139475L245.69688888888888,156.03452339172358L245.93955555555556,155.99121555089945L245.952,155.9844635367393L246.13866666666667,155.83755447864527L246.38133333333334,155.90597137212748L246.4,155.94648345708842L246.40622222222223,155.97206726074214L246.68622222222223,155.776628100872L246.80444444444444,155.70478245019908L246.82933333333332,155.66785737276072L246.95377777777776,155.80991342067713L247.00977777777777,155.92358990907664L247.0533333333333,155.92918142080302L247.23377777777776,156.16017415523524L247.44533333333334,156.0009743213653L247.66933333333333,155.98984404802317L247.92444444444445,155.87569280862803L248.20444444444445,156.0806269884109L248.2542222222222,156.144823873043L248.34133333333335,156.24504908323283L248.56533333333334,156.45467802286143L248.584,156.50415762662882L248.64622222222224,156.60464658737178L248.85777777777778,156.84618934392924L248.88888888888889,156.92304625511164" style="fill: none;" fill="none"></path></g></g></g></g></g></g><g transform="translate(50, 177)" clip-path="url(#clip_1)"><clipPath id="clip_1"><rect width="280" height="23"></rect></clipPath><g><g><line x1="0" y1="0" x2="0" y2="5" style="visibility: inherit;" fill="rgb(0, 0, 0)" stroke="rgb(204, 204, 204)" stroke-width="1px"></line><line x1="31.11111111111111" y1="0" x2="31.11111111111111" y2="5" style="visibility: inherit;" fill="rgb(0, 0, 0)" stroke="rgb(204, 204, 204)" stroke-width="1px"></line><line x1="62.22222222222222" y1="0" x2="62.22222222222222" y2="5" style="visibility: inherit;" fill="rgb(0, 0, 0)" stroke="rgb(204, 204, 204)" stroke-width="1px"></line><line x1="93.33333333333333" y1="0" x2="93.33333333333333" y2="5" style="visibility: inherit;" fill="rgb(0, 0, 0)" stroke="rgb(204, 204, 204)" stroke-width="1px"></line><line x1="124.44444444444444" y1="0" x2="124.44444444444444" y2="5" style="visibility: inherit;" fill="rgb(0, 0, 0)" stroke="rgb(204, 204, 204)" stroke-width="1px"></line><line x1="155.55555555555557" y1="0" x2="155.55555555555557" y2="5" style="visibility: inherit;" fill="rgb(0, 0, 0)" stroke="rgb(204, 204, 204)" stroke-width="1px"></line><line x1="186.66666666666666" y1="0" x2="186.66666666666666" y2="5" style="visibility: inherit;" fill="rgb(0, 0, 0)" stroke="rgb(204, 204, 204)" stroke-width="1px"></line><line x1="217.77777777777777" y1="0" x2="217.77777777777777" y2="5" style="visibility: inherit;" fill="rgb(0, 0, 0)" stroke="rgb(204, 204, 204)" stroke-width="1px"></line><line x1="248.88888888888889" y1="0" x2="248.88888888888889" y2="5" style="visibility: inherit;" fill="rgb(0, 0, 0)" stroke="rgb(204, 204, 204)" stroke-width="1px"></line><line x1="280" y1="0" x2="280" y2="5" style="visibility: inherit;" fill="rgb(0, 0, 0)" stroke="rgb(204, 204, 204)" stroke-width="1px"></line></g><g transform="translate(0, 8)"><text x="0" y="0" dx="0em" dy="0.95em" style="text-anchor: middle; visibility: hidden; font-family: &quot;Helvetica Neue&quot;, sans-serif; font-size: 12px; font-weight: 200;" fill="rgb(33, 33, 33)" stroke="none" stroke-width="1px">10k</text><text x="31.11111111111111" y="0" dx="0em" dy="0.95em" style="text-anchor: middle; visibility: inherit; font-family: &quot;Helvetica Neue&quot;, sans-serif; font-size: 12px; font-weight: 200;" fill="rgb(33, 33, 33)" stroke="none" stroke-width="1px">15k</text><text x="62.22222222222222" y="0" dx="0em" dy="0.95em" style="text-anchor: middle; visibility: inherit; font-family: &quot;Helvetica Neue&quot;, sans-serif; font-size: 12px; font-weight: 200;" fill="rgb(33, 33, 33)" stroke="none" stroke-width="1px">20k</text><text x="93.33333333333333" y="0" dx="0em" dy="0.95em" style="text-anchor: middle; visibility: inherit; font-family: &quot;Helvetica Neue&quot;, sans-serif; font-size: 12px; font-weight: 200;" fill="rgb(33, 33, 33)" stroke="none" stroke-width="1px">25k</text><text x="124.44444444444444" y="0" dx="0em" dy="0.95em" style="text-anchor: middle; visibility: inherit; font-family: &quot;Helvetica Neue&quot;, sans-serif; font-size: 12px; font-weight: 200;" fill="rgb(33, 33, 33)" stroke="none" stroke-width="1px">30k</text><text x="155.55555555555557" y="0" dx="0em" dy="0.95em" style="text-anchor: middle; visibility: inherit; font-family: &quot;Helvetica Neue&quot;, sans-serif; font-size: 12px; font-weight: 200;" fill="rgb(33, 33, 33)" stroke="none" stroke-width="1px">35k</text><text x="186.66666666666666" y="0" dx="0em" dy="0.95em" style="text-anchor: middle; visibility: inherit; font-family: &quot;Helvetica Neue&quot;, sans-serif; font-size: 12px; font-weight: 200;" fill="rgb(33, 33, 33)" stroke="none" stroke-width="1px">40k</text><text x="217.77777777777777" y="0" dx="0em" dy="0.95em" style="text-anchor: middle; visibility: inherit; font-family: &quot;Helvetica Neue&quot;, sans-serif; font-size: 12px; font-weight: 200;" fill="rgb(33, 33, 33)" stroke="none" stroke-width="1px">45k</text><text x="248.88888888888889" y="0" dx="0em" dy="0.95em" style="text-anchor: middle; visibility: inherit; font-family: &quot;Helvetica Neue&quot;, sans-serif; font-size: 12px; font-weight: 200;" fill="rgb(33, 33, 33)" stroke="none" stroke-width="1px">50k</text><text x="280" y="0" dx="0em" dy="0.95em" style="text-anchor: middle; visibility: hidden; font-family: &quot;Helvetica Neue&quot;, sans-serif; font-size: 12px; font-weight: 200;" fill="rgb(33, 33, 33)" stroke="none" stroke-width="1px">55k</text></g><line x1="0" y1="0" x2="280" y2="0" fill="rgb(0, 0, 0)" stroke="rgb(204, 204, 204)" stroke-width="1px"></line></g></g></g></g></svg>