<svg viewBox="0 0 330 200" xmlns="http://www.w3.org/2000/svg"><g><g><g><g><g><line x1="50" y1="177" x2="45" y2="177" style="visibility: inherit;" fill="rgb(0, 0, 0)" stroke="rgb(204, 204, 204)" stroke-width="1px"></line><line x1="50" y1="163.38461538461536" x2="45" y2="163.38461538461536" style="visibility: inherit;" fill="rgb(0, 0, 0)" stroke="rgb(204, 204, 204)" stroke-width="1px"></line><line x1="50" y1="149.76923076923072" x2="45" y2="149.76923076923072" style="visibility: inherit;" fill="rgb(0, 0, 0)" stroke="rgb(204, 204, 204)" stroke-width="1px"></line><line x1="50" y1="136.15384615384608" x2="45" y2="136.15384615384608" style="visibility: inherit;" fill="rgb(0, 0, 0)" stroke="rgb(204, 204, 204)" stroke-width="1px"></line><line x1="50" y1="122.53846153846145" x2="45" y2="122.53846153846145" style="visibility: inherit;" fill="rgb(0, 0, 0)" stroke="rgb(204, 204, 204)" stroke-width="1px"></line><line x1="50" y1="108.9230769230768" x2="45" y2="108.9230769230768" style="visibility: inherit;" fill="rgb(0, 0, 0)" stroke="rgb(204, 204, 204)" stroke-width="1px"></line><line x1="50" y1="95.30769230769216" x2="45" y2="95.30769230769216" style="visibility: inherit;" fill="rgb(0, 0, 0)" stroke="rgb(204, 204, 204)" stroke-width="1px"></line><line x1="50" y1="81.69230769230752" x2="45" y2="81.69230769230752" style="visibility: inherit;" fill="rgb(0, 0, 0)" stroke="rgb(204, 204, 204)" stroke-width="1px"></line><line x1="50" y1="68.0769230769232" x2="45" y2="68.0769230769232" style="visibility: inherit;" fill="rgb(0, 0, 0)" stroke="rgb(204, 204, 204)" stroke-width="1px"></line><line x1="50" y1="54.46153846153857" x2="45" y2="54.46153846153857" style="visibility: inherit;" fill="rgb(0, 0, 0)" stroke="rgb(204, 204, 204)" stroke-width="1px"></line><line x1="50" y1="40.846153846153925" x2="45" y2="40.846153846153925" style="visibility: inherit;" fill="rgb(0, 0, 0)" stroke="rgb(204, 204, 204)" stroke-width="1px"></line><line x1="50" y1="27.230769230769283" x2="45" y2="27.230769230769283" style="visibility: inherit;" fill="rgb(0, 0, 0)" stroke="rgb(204, 204, 204)" stroke-width="1px"></line><line x1="50" y1="13.615384615384642" x2="45" y2="13.615384615384642" style="visibility: inherit;" fill="rgb(0, 0, 0)" stroke="rgb(204, 204, 204)" stroke-width="1px"></line><line x1="50" y1="0" x2="45" y2="0" style="visibility: inherit;" fill="rgb(0, 0, 0)" stroke="rgb(204, 204, 204)" stroke-width="1px"></line></g><g transform="translate(40, 0)"><text x="0" y="177" dx="0em" dy="0.3em" style="text-anchor: end; visibility: hidden; font-family: &quot;Helvetica Neue&quot;, sans-serif; font-size: 12px; font-weight: 200;" fill="rgb(33, 33, 33)" stroke="none" stroke-width="1px">1.05</text><text x="0" y="163.38461538461536" dx="0em" dy="0.3em" style="text-anchor: end; visibility: inherit; font-family: &quot;Helvetica Neue&quot;, sans-serif; font-size: 12px; font-weight: 200;" fill="rgb(33, 33, 33)" stroke="none" stroke-width="1px">1.06</text><text x="0" y="149.76923076923072" dx="0em" dy="0.3em" style="text-anchor: end; visibility: hidden; font-family: &quot;Helvetica Neue&quot;, sans-serif; font-size: 12px; font-weight: 200;" fill="rgb(33, 33, 33)" stroke="none" stroke-width="1px">1.07</text><text x="0" y="136.15384615384608" dx="0em" dy="0.3em" style="text-anchor: end; visibility: inherit; font-family: &quot;Helvetica Neue&quot;, sans-serif; font-size: 12px; font-weight: 200;" fill="rgb(33, 33, 33)" stroke="none" stroke-width="1px">1.08</text><text x="0" y="122.53846153846145" dx="0em" dy="0.3em" style="text-anchor: end; visibility: hidden; font-family: &quot;Helvetica Neue&quot;, sans-serif; font-size: 12px; font-weight: 200;" fill="rgb(33, 33, 33)" stroke="none" stroke-width="1px">1.09</text><text x="0" y="108.9230769230768" dx="0em" dy="0.3em" style="text-anchor: end; visibility: inherit; font-family: &quot;Helvetica Neue&quot;, sans-serif; font-size: 12px; font-weight: 200;" fill="rgb(33, 33, 33)" stroke="none" stroke-width="1px">1.1</text><text x="0" y="95.30769230769216" dx="0em" dy="0.3em" style="text-anchor: end; visibility: hidden; font-family: &quot;Helvetica Neue&quot;, sans-serif; font-size: 12px; font-weight: 200;" fill="rgb(33, 33, 33)" stroke="none" stroke-width="1px">1.11</text><text x="0" y="81.69230769230752" dx="0em" dy="0.3em" style="text-anchor: end; visibility: inherit; font-family: &quot;Helvetica Neue&quot;, sans-serif; font-size: 12px; font-weight: 200;" fill="rgb(33, 33, 33)" stroke="none" stroke-width="1px">1.12</text><text x="0" y="68.0769230769232" dx="0em" dy="0.3em" style="text-anchor: end; visibility: hidden; font-family: &quot;Helvetica Neue&quot;, sans-serif; font-size: 12px; font-weight: 200;" fill="rgb(33, 33, 33)" stroke="none" stroke-width="1px">1.13</text><text x="0" y="54.46153846153857" dx="0em" dy="0.3em" style="text-anchor: end; visibility: inherit; font-family: &quot;Helvetica Neue&quot;, sans-serif; font-size: 12px; font-weight: 200;" fill="rgb(33, 33, 33)" stroke="none" stroke-width="1px">1.14</text><text x="0" y="40.846153846153925" dx="0em" dy="0.3em" style="text-anchor: end; visibility: hidden; font-family: &quot;Helvetica Neue&quot;, sans-serif; font-size: 12px; font-weight: 200;" fill="rgb(33, 33, 33)" stroke="none" stroke-width="1px">1.15</text><text x="0" y="27.230769230769283" dx="0em" dy="0.3em" style="text-anchor: end; visibility: inherit; font-family: &quot;Helvetica Neue&quot;, sans-serif; font-size: 12px; font-weight: 200;" fill="rgb(33, 33, 33)" stroke="none" stroke-width="1px">1.16</text><text x="0" y="13.615384615384642" dx="0em" dy="0.3em" style="text-anchor: end; visibility: hidden; font-family: &quot;Helvetica Neue&quot;, sans-serif; font-size: 12px; font-weight: 200;" fill="rgb(33, 33, 33)" stroke="none" stroke-width="1px">1.17</text><text x="0" y="0" dx="0em" dy="0.3em" style="text-anchor: end; visibility: hidden; font-family: &quot;Helvetica Neue&quot;, sans-serif; font-size: 12px; font-weight: 200;" fill="rgb(33, 33, 33)" stroke="none" stroke-width="1px">1.18</text></g><line x1="50" y1="0" x2="50" y2="177" fill="rgb(0, 0, 0)" stroke="rgb(204, 204, 204)" stroke-width="1px"></line></g></g><g transform="translate(50, 0)" clip-path="url(#clip_0)"><clipPath id="clip_0"><rect width="280" height="177"></rect></clipPath><g><g><g><line x1="0" y1="0" x2="0" y2="177" fill="rgb(0, 0, 0)" stroke="rgb(66, 66, 66)" stroke-width="1px" opacity="0.25"></line><line x1="31.11111111111111" y1="0" x2="31.11111111111111" y2="177" fill="rgb(0, 0, 0)" stroke="rgb(66, 66, 66)" stroke-width="1px" opacity="0.25"></line><line x1="62.22222222222222" y1="0" x2="62.22222222222222" y2="177" fill="rgb(0, 0, 0)" stroke="rgb(66, 66, 66)" stroke-width="1px" opacity="0.25"></line><line x1="93.33333333333333" y1="0" x2="93.33333333333333" y2="177" fill="rgb(0, 0, 0)" stroke="rgb(66, 66, 66)" stroke-width="1px" opacity="0.25"></line><line x1="124.44444444444444" y1="0" x2="124.44444444444444" y2="177" fill="rgb(0, 0, 0)" stroke="rgb(66, 66, 66)" stroke-width="1px" opacity="0.25"></line><line x1="155.55555555555557" y1="0" x2="155.55555555555557" y2="177" fill="rgb(0, 0, 0)" stroke="rgb(66, 66, 66)" stroke-width="1px" opacity="0.25"></line><line x1="186.66666666666666" y1="0" x2="186.66666666666666" y2="177" fill="rgb(0, 0, 0)" stroke="rgb(66, 66, 66)" stroke-width="1px" opacity="0.25"></line><line x1="217.77777777777777" y1="0" x2="217.77777777777777" y2="177" fill="rgb(0, 0, 0)" stroke="rgb(66, 66, 66)" stroke-width="1px" opacity="0.25"></line><line x1="248.88888888888889" y1="0" x2="248.88888888888889" y2="177" fill="rgb(0, 0, 0)" stroke="rgb(66, 66, 66)" stroke-width="1px" opacity="0.25"></line><line x1="280" y1="0" x2="280" y2="177" fill="rgb(0, 0, 0)" stroke="rgb(66, 66, 66)" stroke-width="1px" opacity="0.25"></line></g><g><line x1="0" y1="177" x2="280" y2="177" fill="rgb(0, 0, 0)" stroke="rgb(66, 66, 66)" stroke-width="1px" opacity="0.25"></line><line x1="0" y1="163.38461538461536" x2="280" y2="163.38461538461536" fill="rgb(0, 0, 0)" stroke="rgb(66, 66, 66)" stroke-width="1px" opacity="0.25"></line><line x1="0" y1="149.76923076923072" x2="280" y2="149.76923076923072" fill="rgb(0, 0, 0)" stroke="rgb(66, 66, 66)" stroke-width="1px" opacity="0.25"></line><line x1="0" y1="136.15384615384608" x2="280" y2="136.15384615384608" fill="rgb(0, 0, 0)" stroke="rgb(66, 66, 66)" stroke-width="1px" opacity="0.25"></line><line x1="0" y1="122.53846153846145" x2="280" y2="122.53846153846145" fill="rgb(0, 0, 0)" stroke="rgb(66, 66, 66)" stroke-width="1px" opacity="0.25"></line><line x1="0" y1="108.9230769230768" x2="280" y2="108.9230769230768" fill="rgb(0, 0, 0)" stroke="rgb(66, 66, 66)" stroke-width="1px" opacity="0.25"></line><line x1="0" y1="95.30769230769216" x2="280" y2="95.30769230769216" fill="rgb(0, 0, 0)" stroke="rgb(66, 66, 66)" stroke-width="1px" opacity="0.25"></line><line x1="0" y1="81.69230769230752" x2="280" y2="81.69230769230752" fill="rgb(0, 0, 0)" stroke="rgb(66, 66, 66)" stroke-width="1px" opacity="0.25"></line><line x1="0" y1="68.0769230769232" x2="280" y2="68.0769230769232" fill="rgb(0, 0, 0)" stroke="rgb(66, 66, 66)" stroke-width="1px" opacity="0.25"></line><line x1="0" y1="54.46153846153857" x2="280" y2="54.46153846153857" fill="rgb(0, 0, 0)" stroke="rgb(66, 66, 66)" stroke-width="1px" opacity="0.25"></line><line x1="0" y1="40.846153846153925" x2="280" y2="40.846153846153925" fill="rgb(0, 0, 0)" stroke="rgb(66, 66, 66)" stroke-width="1px" opacity="0.25"></line><line x1="0" y1="27.230769230769283" x2="280" y2="27.230769230769283" fill="rgb(0, 0, 0)" stroke="rgb(66, 66, 66)" stroke-width="1px" opacity="0.25"></line><line x1="0" y1="13.615384615384642" x2="280" y2="13.615384615384642" fill="rgb(0, 0, 0)" stroke="rgb(66, 66, 66)" stroke-width="1px" opacity="0.25"></line><line x1="0" y1="0" x2="280" y2="0" fill="rgb(0, 0, 0)" stroke="rgb(66, 66, 66)" stroke-width="1px" opacity="0.25"></line></g></g></g><g><g><line x1="0" y1="1606.615384615386" x2="280" y2="1606.615384615386" fill="rgb(0, 0, 0)" stroke="rgb(153, 153, 153)" stroke-width="1.5px"></line></g></g><g><g><line x1="-62.22222222222222" y1="0" x2="-62.22222222222222" y2="177" fill="rgb(0, 0, 0)" stroke="rgb(153, 153, 153)" stroke-width="1.5px"></line></g></g><g><g><g><g><g><path stroke="rgb(255, 112, 67)" stroke-width="2px" d="M31.39111111111111,66.76677912932173L31.49066666666667,68.9883703268494L31.565333333333335,56.95045556004055L31.695999999999998,33.72971005690604L31.78933333333333,23.75747357601989L32.007111111111115,18.947581306288043L32.013333333333335,18.540279809811807L32.019555555555556,17.60588756898352L32.032000000000004,16.165093928216436L32.05688888888889,15.659549828612256L32.11288888888889,19.783371474019333L32.23733333333333,30.604281455895887L32.31822222222222,35.61690475292812L32.330666666666666,40.498557607362244L32.43022222222222,46.4820833178361L32.523555555555554,54.27912860553401L32.56711111111111,56.98525960984395L32.654222222222224,57.141685888415566L32.704,59.70204972881338L32.766222222222225,58.035713605805356L33.05866666666667,56.41682958259477L33.35111111111111,51.16981757627538L33.56888888888889,51.61628649896306L33.66222222222222,51.76574509421236L33.84888888888889,52.60483057727849L33.96088888888889,55.28847047776017L34.12266666666667,57.7979038329794L34.209777777777774,57.9583524012763L34.26577777777778,59.44566675515267L34.384,58.34828794243836L34.53955555555555,57.540991862739645L34.97511111111111,51.31415562964412L35.12444444444444,50.38312668516765L35.14933333333333,50.32104209478507L35.41688888888889,51.217257315382525L35.45422222222222,51.6812336670629L35.80266666666667,55.06178046151993L35.976888888888894,56.08159132909971L36.02044444444444,56.01451088333698L36.269333333333336,55.86545131071003L36.32533333333333,55.78146911716479L36.337777777777774,55.08093874499998L36.38133333333334,55.428986748922L36.54311111111111,55.576398191628286L36.54933333333334,55.90259386355373L36.723555555555556,56.72345688545796L36.81688888888888,56.95751538729314L36.86666666666666,57.00958999538672L36.922666666666665,56.08217859591335L37.028444444444446,55.2593518129744L37.21511111111111,55.33626586296428L37.39555555555556,54.61619053220427L37.44533333333334,54.50376231173493L37.625777777777785,54.276074889575995L37.72533333333334,56.345877832752635L37.992888888888885,58.17830114481896L38.32266666666666,58.19048608263385L38.34133333333333,58.23642635710439L38.81422222222223,61.5913701152696L38.95733333333333,63.47578840827332L38.98844444444445,65.40025551038545L39.09422222222222,67.61578107335423L39.175111111111114,68.86212454482082L39.54222222222222,69.48066851046207L39.660444444444444,71.46325396166615L39.71644444444444,72.92905350403697L39.815999999999995,72.75158332054303L39.903111111111116,72.87953893287293L39.984,73.71468035224014L40.05244444444445,74.52090430532864L40.17688888888889,74.8165561288938L40.22044444444444,75.48866210669024L40.264,76.06702359904061L40.30133333333333,76.24530506366044L40.35111111111111,76.74694215473592L40.43822222222222,76.51561898535104L40.51288888888889,76.08019092316499L40.599999999999994,76.01493726613694L41.28444444444444,75.1829427938065L41.30933333333333,74.98356150840435L41.37155555555555,75.0286429287432L41.44,74.45125666718643L41.65777777777778,75.93663336725996L41.769777777777776,77.0708020506435L41.87555555555556,78.32217307327203L41.99377777777777,79.36417629750594L42.099555555555554,79.71092257115292L42.19911111111111,79.64635776362493L42.24266666666667,78.94196117541492L42.385777777777776,78.2741082466917L42.392,77.95916005393435L42.48533333333333,77.45901417799506L42.54755555555556,77.42556628854457L42.67822222222222,77.2667566485257L42.690666666666665,76.95482210247178L42.827555555555556,76.99969693838183L42.858666666666664,77.08940258697447L43.03911111111111,76.7734882776485L43.05155555555556,76.70073655238114L43.08888888888889,77.1962078786237L43.24444444444444,78.81162666950075L43.29422222222222,80.17054706892344L43.41866666666667,80.92298871510425L43.611555555555555,80.77014843547875L43.623999999999995,80.74693825750118L43.67377777777777,80.86104072690519L43.717333333333336,80.59326488801453L43.81688888888889,80.55803103234773L43.82311111111111,80.52423069239747L43.83555555555556,80.23796008444477L44.10933333333333,79.76196754318752L44.30844444444444,78.96789341360312L44.42044444444445,78.47515320936955L44.48888888888889,78.44530472117268L44.538666666666664,78.22152411958298L44.62577777777778,78.16613746251926L44.632,78.26307651050351L44.65688888888889,78.57930971128064L45.01777777777777,77.61250751396784L45.167111111111105,77.36308011978852L45.18577777777778,77.02469190286192L45.559111111111115,76.339669038812L45.80177777777777,76.2200956238909L45.82666666666666,75.88716548872387L45.95111111111112,75.53724001577312L46.41155555555555,75.23788546759369L46.44888888888889,75.20740135912729L46.46133333333333,75.25000886791496L46.83466666666667,75.33049841145196L47.400888888888886,76.50871573799091L47.432,76.8740851099089L47.50666666666667,77.32242075201312L47.6,77.40444328361001L47.824000000000005,77.32919900309683L47.91111111111111,77.63561163360846L47.96088888888889,77.94209916142074L47.96711111111111,78.04827859205326L48.57066666666667,77.32180582405532L48.583111111111116,76.71569349856479L48.589333333333336,76.39792681491691L48.64533333333333,75.92770744921256L48.832,75.75568559917095L48.84444444444445,75.88048281347724L48.888,75.23601194115243L48.98755555555556,74.78719790284129L49,74.40299539270562L49.04355555555556,74.29745107180042L49.04977777777778,74.24262942017064L49.31733333333334,74.3886648044368L49.41688888888889,74.8850425845382L49.47288888888889,74.77904686725118L49.60355555555556,74.67630073939279L49.96444444444444,75.13572677084507L50.03288888888889,75.73203813911097L50.21333333333334,75.83779304690007L50.26933333333333,76.15016159051596L50.46844444444445,76.31343128142056L50.623999999999995,76.51559485295414L50.69244444444445,76.89119722150261L50.94133333333333,77.36677270583561L50.99733333333334,77.39028267809016L51.40177777777778,78.15451146535099L51.62577777777778,78.66070237610707L52.31644444444445,79.44238161724408L52.55288888888889,80.8963392275392L52.74577777777778,82.53110708489629L52.90133333333333,83.94448624483887L53.044444444444444,84.79744790499835L53.07555555555556,85.11867527070885L53.150222222222226,85.67647491727531L53.30577777777778,86.50944036559193L53.82844444444444,87.69156260403619L54.13955555555555,88.80056817002675L54.30133333333334,89.37741624698207L54.413333333333334,89.94121262660714L54.6,90.17275669208132L54.88,90.03153946693247L55.041777777777774,89.84935938901246L55.284444444444446,89.35908192791631L55.321777777777775,89.17353198673858L55.44622222222222,88.75771215269431L55.70755555555556,88.31565800227708L55.84444444444445,88.00965373421349L55.91288888888889,87.56434570145638L56,87.29962796389904L56.18666666666667,87.19767005602108L56.373333333333335,87.27017220702315L56.39822222222222,87.23667456691327L56.43555555555555,87.15970324819057L56.448,86.95173180996558L56.516444444444446,87.07547500669486L56.616,86.9999430721603L56.672,86.96799809333386L56.80888888888889,86.93857323837172L56.83377777777778,86.91143953628462L56.995555555555555,86.49776432777945L57.09511111111111,86.34220462773912L57.455999999999996,85.69156794664974L57.46222222222222,85.32455829470435L57.51822222222222,85.17765081110286L57.55555555555555,85.17676311931903L57.64888888888889,85.31354309990985L57.68,85.43534409466832L57.72977777777778,85.74266764431033L57.80444444444445,85.9019364906343L57.97866666666667,85.8510959529367L58.159111111111116,85.6517263531011L58.39555555555555,85.36752424804592L58.48266666666667,85.19654852252158L58.650666666666666,84.80167878192772L58.75644444444445,84.30642747273228L58.88088888888889,84.08276976441968L59.129777777777775,83.93695388429126L59.25422222222222,83.46057430987439L59.37866666666666,83.09248885425401L59.44711111111111,82.92409553704915L59.49066666666667,82.86454547988323L59.94488888888889,83.09039107107672L60.06933333333333,83.29653488162214L60.312000000000005,83.45586401192938L60.330666666666666,83.43544370834259L60.60444444444444,83.54245546861576L60.64177777777778,83.49363121081012L60.660444444444444,83.47355575238376L60.766222222222225,83.30264337492515L60.940444444444445,83.01155893767023L61.13955555555555,82.82931225938705L61.18933333333333,82.90213878831526L61.31377777777777,82.77034726072115L61.44444444444444,82.6379703862273L61.61866666666666,82.91646593523247L61.64355555555555,82.92839678537818L61.75555555555556,83.03313488472232L61.92977777777778,83.03209330265972L62.147555555555556,82.82455807334112L62.352888888888884,82.6589405418712L62.40888888888889,82.74401687134515L62.41511111111111,82.73085361129492L62.52088888888889,82.81540631068827L62.831999999999994,82.79634547626523L63.26133333333334,82.70862420024423L63.29866666666667,82.72097957092303L63.348444444444446,82.56089090358796L63.46666666666666,82.14028656100794L63.49155555555555,81.7556753704193L63.553777777777775,81.3451362790519L63.88355555555555,81.02298251135585L64.00177777777778,80.73172112220269L64.05777777777777,80.2611741299256L64.25688888888888,79.77063719021696L64.43111111111111,79.36094647675124L64.80444444444444,79.45948477083996L64.82933333333334,79.42453401154236L64.94755555555555,79.36928409945835L65.12177777777778,79.08312839084135L65.28355555555555,78.84027912413735L65.60711111111111,78.65035685600847L65.72533333333332,78.59665223686805L66.37244444444444,78.37595737781706L66.39111111111112,78.3188513895572L66.55911111111111,78.28432810374903L66.66488888888888,78.18674504797926L66.94488888888888,78.07424402444941L67.05688888888889,78.16054650211424L67.13155555555555,78.17908730361704L67.20622222222222,78.15885387260171L67.34933333333333,78.10490326477021L67.38666666666667,78.13362564357779L67.77244444444445,78.24837373690626L67.94044444444444,77.97780403492933L68.12088888888889,78.00594692091522L68.1768888888889,78.12398301848312L68.2328888888889,78.21019147852338L68.35111111111111,78.11460578407254L68.45066666666666,77.9674655637145L68.45688888888888,77.86769002278503L68.50666666666667,77.70609002333347L68.58133333333333,77.67729939739488L69.048,77.32391754772453L69.25955555555555,77.07163604581382L69.6391111111111,76.6490179604258L69.776,76.39720003594608L69.81333333333333,76.19722210181017L69.83200000000001,76.09586830348198L69.85066666666667,76.05362406342556L69.95022222222222,75.99289436826399L69.98133333333334,75.8725757598697L70.27377777777778,75.78752979864355L70.37955555555556,75.9116001275806L70.672,76.22385605444894L70.784,76.37589138265538L71.008,76.9602693061231L71.49955555555556,77.00608157480029L71.848,76.95364846070699L71.95377777777779,76.73676789569915L72.02222222222223,76.57950165362766L72.04711111111111,76.52377122016655L72.1528888888889,76.66173024261674L72.32711111111111,76.6127115335379L72.42044444444444,76.70619995044788L72.59466666666665,76.76274746308535L72.67555555555555,76.79550735283223L72.7751111111111,76.86450492862016L73.03644444444444,76.92719828798265L73.23555555555555,76.9990937601056L73.25422222222221,76.93575697393062L73.46577777777777,76.76109153869557L73.74577777777777,76.77958145919045L73.808,76.70270445776623L73.82666666666667,76.66527796746404L73.87022222222222,76.53595846455556L73.95111111111112,76.49881392455848L73.98222222222223,76.39972303948866L74.05688888888889,76.44317180117615L74.21244444444446,76.57123542593473L74.256,76.63164802788103L74.31200000000001,76.58894896194522L74.46133333333334,76.67973684343357L74.47377777777777,76.64364169008208L74.57955555555556,76.71274724995476L74.76622222222223,76.42031050101612L75.01511111111111,76.17109568159576L75.10222222222221,76.1339488717824L75.376,75.94480812828283L75.55022222222223,76.00181203972686L75.656,76.00355278005411L75.75555555555556,75.92889675780108L75.83644444444444,75.91766844561094L75.88622222222222,76.00494027083417L75.89866666666667,76.16507589967865L75.98577777777777,76.2940084228028L76.06666666666666,76.37552302231434L76.09155555555554,76.53558032281148L76.11644444444444,76.69205821448584L76.19111111111111,76.65382621087569L76.50844444444445,76.28562536155887L76.60177777777777,75.98679699627445L76.72622222222222,75.74101860691142L76.75111111111111,75.62451994593201L76.75733333333334,75.49203477193694L76.78222222222222,75.36527956841876L76.79466666666667,75.26117961825784L76.98133333333332,75.02316727999734L77.06844444444445,74.82498037628503L77.0808888888889,74.67574909355032L77.24266666666666,74.76780055088949L77.39822222222223,74.55476870885319L77.46666666666667,74.32482538945902L77.64088888888888,74.32345783813929L77.65955555555556,74.3135480575165L78.38133333333333,73.9779870363435L78.59288888888888,73.59921528229663L78.76711111111112,73.40993230951938L78.77955555555556,73.25390274449975L78.8231111111111,73.29558498154334L78.87288888888888,73.30819399007176L78.99111111111111,73.24272078047545L79.43288888888888,73.3360749790369L79.51377777777778,73.30703808904092L79.68177777777777,73.38102783905774L79.73777777777778,73.46470023298048L79.77511111111112,73.46523741132887L79.79377777777778,73.53372909207043L79.83111111111111,73.63507284225209L79.85600000000001,73.62348970977881L80.15466666666667,73.59076531470255L80.22933333333333,73.61781046786024L80.24177777777777,73.549832152392L80.25422222222223,73.53481967870337L80.33511111111112,73.37979988827671L80.35377777777778,73.28042553913913L80.6648888888889,72.88982238938272L80.81422222222223,72.60319731300073L80.87644444444445,72.44582999011412L81.02577777777778,72.61097260226948L81.06311111111111,72.7473890170829L81.11288888888889,72.83034256059352L81.19377777777778,72.90511012373497L81.28088888888888,72.84388613144975L81.30577777777778,72.79786771660828L81.33066666666666,72.78668224061232L81.37422222222223,72.65590269482192L81.38666666666667,72.57717527449536L81.46755555555556,72.59421280324707L81.54222222222222,72.56204046235783L81.68533333333333,72.64706866124124L81.77866666666667,72.78845869317642L81.93422222222222,72.81817290443381L81.94666666666667,72.85255685052336L82.08977777777777,72.98978930886618L82.32,73.13516922377084L82.46933333333332,72.92147808009516L82.52533333333334,72.85448598382285L82.57511111111111,72.78987959794182L82.6,72.76617795184727L82.78044444444444,72.72780552892566L82.89866666666666,72.6950435932107L82.94844444444443,72.75946199271846L82.95466666666667,72.832067872863L82.96088888888889,72.89368005418537L82.96711111111112,72.9699259068914L82.99822222222221,73.10890315249577L83.17244444444444,73.19605504621701L83.19111111111111,73.25561758231446L83.24711111111112,73.14969265303563L83.37777777777777,72.9576546567862L83.48355555555555,72.87625685305044L83.52088888888889,72.85552992207182L83.73866666666666,72.67786418620014L83.75733333333332,72.58996263004376L84.29244444444444,72.28843594383322L84.31733333333332,72.13011321025833L84.8648888888889,72.13971086638284L84.97688888888888,72.2168849944437L85.02044444444444,72.28383505303927L85.1448888888889,72.4781327960448L85.66755555555555,72.84167934439846L85.74222222222222,73.01124471002787L85.76088888888889,73.14362768597859L85.77955555555555,73.26824402785178L85.96622222222221,73.29302295890488L86.02222222222223,73.33976761515856L86.05955555555555,73.36826887140208L86.07822222222222,73.42283031909474L86.10311111111112,73.54665445565925L86.27733333333333,73.47272924214002L86.68177777777778,73.55211775815586L86.80622222222222,73.57449573787778L86.81866666666666,73.57578188486528L86.856,73.61479334556114L86.89333333333335,73.69293049060377L87.12355555555555,73.45226786690499L87.17955555555555,73.34753837587643L87.21688888888889,73.20646820949983L87.23555555555555,73.11585317407066L87.34133333333334,72.99337970229384L87.416,72.95372061324177L87.65244444444446,72.8902570766195L87.6648888888889,72.87334392210983L87.92,73.0651072220778L88.57333333333334,73.52445300101364L88.67911111111111,73.88186371685374L88.77866666666667,74.12513605296479L88.90933333333334,74.30862507179057L88.92177777777778,74.43196281855417L89.4071111111111,74.51875533958876L89.47555555555554,74.52194367276148L89.7928888888889,74.55553920064754L89.86133333333333,74.49720435276726L89.88,74.45103665138942L89.89244444444445,74.42080402525296L89.99822222222222,74.29541130156545L90.30311111111112,74.1306465565177L90.38399999999999,74.00049472078511L90.52711111111111,73.84365176188156L90.56444444444443,73.84394433835551L90.65155555555556,73.8732704069121L90.71377777777776,73.70219919084032L90.81955555555555,73.60358170040801L90.90044444444445,73.5742758841645L90.95022222222222,73.62641992526481L90.95644444444444,73.59888591887584L91.07466666666666,73.57957381687989L91.1928888888889,73.55078190421658L91.20533333333333,73.52597566390158L91.31733333333334,73.49901620207999L91.49155555555556,73.53315601512287L91.52888888888889,73.4922225433764L91.55377777777777,73.47201231560466L91.62844444444444,73.46930004483822L91.67200000000001,73.46708837346048L91.76533333333333,73.43388407301232L91.93955555555556,73.37864326482895L91.96444444444444,73.34647262811492L92.10133333333334,73.20849061257927L92.23200000000001,73.06830928289637L92.2631111111111,72.9010338491334L92.28177777777779,72.83423389003691L92.36266666666666,72.8517408045796L92.44977777777778,72.86321880150145L92.568,72.78323834055563L92.57422222222222,72.75635010823855L92.64888888888889,72.73800977960377L92.66133333333335,72.7288883556023L92.97866666666667,72.49391194296929L93.11555555555556,72.24755572056284L93.13422222222222,72.08260225886633L186.82222222222222,104.87645670232821L186.85955555555557,137.03802262909127L186.95911111111113,158.7954221143952L186.96533333333332,159.43719269711332L187.27644444444445,149.49862016550463L187.33866666666668,145.5475768662657L187.62488888888888,141.91198700310252L187.6311111111111,140.5512624985158L187.78666666666666,141.2817531937834L187.91733333333335,137.74317619382515L188.40266666666665,126.48851515115643L188.44,119.95119866976268L188.4711111111111,112.78797183047746L188.78844444444445,107.0081633883914L188.9128888888889,104.27430017020413L188.93155555555555,104.07839388386081L188.9502222222222,103.86437421742035L189.224,103.62358033571725L189.35466666666667,104.37939420245381L189.6968888888889,105.85308589281024L189.87733333333335,105.88661204605742L190.09511111111112,108.19144052944873L190.15733333333336,109.62549711138907L190.17600000000002,111.03914175919454L190.19466666666668,113.43587702622455L190.2008888888889,114.41043136827562L190.21955555555556,114.27120522446873L190.28177777777776,113.1407178040819L190.33155555555555,113.69674547889696L190.47466666666668,112.761243114529L190.5928888888889,113.00589846306379L190.68622222222223,112.89118096990452L191.1031111111111,118.12683667536876L191.11555555555557,120.44156282651977L191.28977777777777,121.91746054594844L191.33955555555556,124.05257625972627L191.45777777777778,122.6242052365908L191.6071111111111,121.47334016031644L191.61955555555556,120.60564566606115L191.76888888888888,119.43105744416889L191.84977777777777,117.92989145620055L191.96177777777777,117.77834081913142L192.06755555555554,117.6212536827631L192.2231111111111,118.12760604513062L192.34755555555554,117.01550710852375L192.45333333333335,116.03934309873218L192.81422222222224,116.93194625465321L192.87644444444445,116.44620108326927L192.96977777777778,115.86610537509196L193.12533333333332,116.45105944533563L193.26844444444444,116.88532836986158L193.3368888888889,117.13731986045079L193.368,117.92138623589275L193.44266666666667,118.7798071825146L193.52977777777778,119.71763971405471L193.62311111111111,119.14853285938241L193.65422222222222,118.68884357556328L193.7351111111111,118.45555470983798L194.04,118.6788267675766L194.10222222222222,118.6991743793327L194.13333333333333,118.301392855796L194.58133333333333,117.62611533372149L194.8488888888889,116.6834495394005L194.97333333333333,116.36618135283277L195.12266666666665,116.00247546197303L195.2222222222222,115.78548546850556L195.41511111111112,115.31528860553325L195.45866666666666,114.15923911650123L195.46488888888888,113.6347343931515L195.56444444444443,113.48675437032706L195.67644444444446,113.4202350187181L195.8071111111111,113.16841404026471L195.8631111111111,113.53729146673801L195.9813333333333,114.074858893527L196.0871111111111,114.65352142519455L196.12444444444444,114.63429232958069L196.1368888888889,114.83180761832483L196.1928888888889,115.08178629805495L196.32355555555554,115.01648813132509L196.56622222222222,115.33646444603696L196.8897777777778,116.24020341984297L197.0702222222222,117.21925018171805L197.3688888888889,117.74558549533661L197.47466666666668,117.92770978777915L197.49955555555553,118.51832506500799L197.58044444444442,118.83250676244975L197.67999999999998,118.77184048911994L197.8231111111111,118.8031556363629L197.82933333333332,118.84252538325447L197.97866666666664,120.05404726108532L198.29600000000002,121.20873943875762L198.31466666666668,121.37405363909869L198.39555555555557,122.64023691438803L198.45155555555556,123.19005013167907L198.49511111111113,123.7732035162727L198.61955555555554,123.7441387522901L198.70044444444443,124.36444061597011L199.21066666666667,125.15154598896214L199.25422222222224,126.09132127013498L199.304,127.21398053380494L199.31644444444444,127.62216999694219L199.62133333333333,129.58345865897883L199.68977777777778,131.12256830839152L199.95111111111112,132.8242686532103L200.01333333333335,133.27097811720978L200.26222222222222,133.12985770678927L200.35555555555555,132.90949594520313L200.49866666666665,133.1001420268902L200.5048888888889,132.81525191547038L200.57333333333335,133.149095830303L201.00266666666667,133.7913994138408L201.28266666666667,134.62955605197212L201.3262222222222,134.54106448691977L201.38844444444445,135.001771856191L201.58755555555555,135.6409871924359L201.64977777777779,135.93907744577172L201.6746666666667,136.0390498938827L201.69955555555555,135.89238277552084L201.73688888888887,135.84190812166298L201.7928888888889,136.03424502699403L201.86755555555555,136.29890563706016L201.94222222222223,136.1941137580014L202.42755555555556,136.23193453405082L202.47111111111113,136.39466637029068L202.6391111111111,137.00954871063044L202.65155555555557,137.491054966312L202.65777777777777,137.8754607661596L202.70755555555556,137.73389946548966L202.98133333333334,138.1438074151712L202.99377777777778,138.0696807445034L203.38577777777778,138.30099855125982L203.4791111111111,138.51802170707322L203.58488888888888,138.17708784325134L203.66577777777778,138.2718235372496L203.68444444444444,138.344051755148L203.95200000000003,138.8108178815846L203.9831111111111,139.2943469072345L204.08266666666665,139.09435898709532L204.0888888888889,138.70831090781624L204.1697777777778,138.74851555340845L204.21955555555556,138.47081032316206L204.22577777777778,138.38969105663844L204.3688888888889,138.53760698592575L204.41244444444445,138.33556547212004L204.56177777777776,138.97621446931197L204.6488888888889,139.7490394514752L204.68622222222223,140.30771710150688L204.7048888888889,140.54670748974365L204.97244444444445,140.47806250877176L205.0222222222222,140.15374538795356L205.07822222222222,140.1724927936383L205.22133333333332,140.2101649847721L205.28355555555555,139.9067888465856L205.37688888888889,140.04438014165873L205.38933333333335,139.76920801464075L205.47022222222225,139.7787481816108L205.4888888888889,139.4459626488019L205.61955555555556,139.66835713733917L205.75022222222225,140.0707057790326L205.80622222222223,140.6345236401959L206.01155555555556,141.15563812492272L206.0551111111111,141.54238420188153L206.08622222222223,141.54311043985814L206.19822222222223,141.6407362326226L206.44088888888888,142.01308559708917L206.51555555555555,142.15203011555414L206.5591111111111,142.14859449074726L206.6088888888889,142.1699703957847L206.64,142.29654140812042L206.64622222222224,142.49278672935625L206.70222222222222,142.48081734236706L206.83288888888887,142.81454750204853L207.00088888888888,143.46613177517827L207.00711111111113,143.91875939148073L207.38044444444444,143.8130022468503L207.41777777777776,143.9553545455306L207.52977777777778,144.02576866251758L207.9466666666667,143.92862699423063L208.00266666666667,143.75893375961596L208.152,144.01990873352938L208.208,143.79059013933926L208.51288888888888,143.566066800513L208.6311111111111,143.51490897244943L208.66844444444445,143.34014966579014L208.69955555555555,143.32391426764678L208.73688888888887,143.69734983234946L208.8488888888889,143.69943870565595L208.95466666666667,143.89474751353112L208.992,143.8256031767212L209.11022222222223,143.82423912031794L209.43377777777778,143.84413119144796L209.49599999999998,143.63961244172214L209.58311111111112,143.4865171281663L209.65777777777777,143.3887519276426L209.7697777777778,143.30282505783558L209.93155555555555,143.35670423399029L210.04355555555557,143.24691482625474L210.07466666666664,142.9996457242723L210.09955555555555,142.95795310217062L210.13688888888888,142.94793479113073L210.3297777777778,143.08118409656026L210.42933333333335,143.56261882949468L210.43555555555554,143.79980079164483L210.49155555555555,143.80908230533734L210.54133333333334,144.10531243850497L210.728,144.37433255599387L210.86488888888888,144.66390304910385L210.896,144.97047823892845L210.97066666666666,145.39885925006362L211.18222222222224,145.82559713573144L211.18844444444446,146.15889849069544L211.26311111111113,146.09548582821472L211.46844444444446,146.28213747119085L211.4933333333333,146.51754748503862L211.54933333333332,146.87472810004613L211.5617777777778,146.7360489595432L211.79822222222222,147.01446377208808L211.83555555555554,147.08971123632233L211.87911111111111,146.90736877623596L211.91022222222222,146.82451689433327L212.072,146.93315348188995L212.08444444444444,146.9622381279521L212.296,146.7386939486424L212.56355555555555,145.98318736868308L212.62577777777778,145.57974444835148L212.75644444444444,145.02526819481938L213.04266666666666,144.70043815148273L213.24800000000002,144.31141971837607L213.36,144.0523639893461L213.4968888888889,143.76624012400154L213.54666666666668,143.54937924849185L213.59644444444444,143.62915947106868L214.31199999999998,144.1795981970549L214.3431111111111,144.41364523086435L214.36177777777777,144.52355954100318L214.49866666666668,144.91211157287302L214.71644444444445,145.36695556465784L214.74755555555555,145.5836384572028L214.77866666666668,145.7128691141729L214.90311111111112,145.90746406153548L214.94044444444444,145.90411308575787L215.13955555555555,145.83633528544289L215.152,145.8233258940254L215.5751111111111,145.62023123423478L215.9857777777778,145.76423499591672L215.992,145.85693480459463L216.0791111111111,146.28170807936505L216.17866666666666,146.25519483874547L216.40888888888887,146.71549866230404L216.56444444444446,146.78152451570438L216.72,146.9858502193243L216.96888888888887,147.64419199581943L217.26133333333334,148.49820417818108L217.2862222222222,149.08527318263828L217.29866666666666,149.48529807013836L217.3671111111111,149.49236851411314L217.70933333333332,149.6565815775232L217.74044444444445,149.72258288581682L217.7902222222222,149.83067766059068L217.83377777777778,149.91936134465502L217.9271111111111,149.81331491341217L217.952,149.81519457666235L217.95822222222222,149.7960014089191L217.97688888888888,149.85642042836392L218.35644444444443,150.15223484591843L218.44977777777777,150.35822478699242L218.4808888888889,150.5607653787403L218.54311111111113,150.5945784729201L218.75466666666668,150.54974834671043L218.83555555555554,150.5605057345701L218.8417777777778,150.598577772055L218.85422222222223,150.6268096212313L219.02844444444443,150.35711274499573L219.10933333333332,150.2917705138893L219.19644444444444,150.02806070440005L219.28977777777777,150.12770982105408L219.6008888888889,150.02642479939885L219.6071111111111,149.9994138572067L219.61333333333334,149.9695084939317L219.62577777777776,149.7943861771038L219.7937777777778,149.96783337111367L219.8062222222222,150.0481397915326L220.14222222222224,149.50363963159106L220.26666666666665,149.18083492841103L220.6026666666667,149.4323305785816L220.65866666666668,149.5566743745348L221.0568888888889,149.470725546164L221.11911111111112,149.3155388010685L221.15022222222223,149.26878192814877L221.21866666666668,149.1360066617016L221.27466666666666,149.1907325529057L221.57333333333332,149.45183810481208L221.79733333333334,149.42892382858076L221.96533333333332,149.64786005851516L222.22666666666666,149.48726210726193L222.35733333333334,149.50860912182125L222.40088888888891,149.5975722594979L222.51288888888888,149.60887990002917L222.66222222222223,149.67623784215016L222.6871111111111,149.79871554875365L223.11644444444445,149.71684092381932L223.12266666666665,149.64142224756202L223.61422222222222,149.61350553969928L223.6702222222222,149.58831549728149L223.78844444444445,149.7518052310095L224.15555555555557,150.05641981204874L224.40444444444444,150.19335277223897L224.616,150.4466501380277L224.672,150.58869530590007L224.74666666666667,150.74423424638766L224.7902222222222,150.86670813335215L225.10755555555556,150.96492820971372L225.2008888888889,150.90777755054654L225.33777777777777,150.7943457583037L225.44977777777777,150.6472751326413L225.64888888888888,150.52274068113329L225.7422222222222,150.4658738938249L225.77955555555556,150.36280536915066L225.91022222222222,150.06289083198763L226.12177777777777,149.78529759721988L226.20888888888888,149.4505256112729L226.25244444444445,149.35094263210698L226.25866666666667,149.32540737789984L226.28977777777777,149.28255878303048L226.464,149.3543642921524L226.71911111111112,149.60143633311787L226.9928888888889,149.5617917790485L227.17333333333335,149.67960257433083L227.2728888888889,149.71600959499477L227.32888888888888,149.81809889875808L227.33511111111113,149.9179817927979L227.53422222222224,149.84410478706693L227.752,149.8622996378228L227.9262222222222,149.81614904398032L227.96977777777778,149.9277839029412L227.976,150.0131380876191L228.02577777777776,150.12914396507824L228.0631111111111,150.24497281926537L228.08177777777777,150.27317896825983L228.15644444444445,150.5592742990796L228.16266666666667,150.72521825482045L228.2,150.6964963592221L228.2062222222222,150.715620221187L228.256,150.8773917766427L228.31822222222223,150.83311687504406L228.38044444444444,150.81758888030845L228.3928888888889,150.84404477387318L228.52977777777778,150.91769996965178L228.63555555555556,151.1277069733211L228.70399999999998,151.29941711752997L229.05244444444446,151.80418804658458L229.096,152.00330330951803L229.1271111111111,152.17646396449408L229.2328888888889,152.1792099915034L229.31377777777777,152.08600479340166L229.53155555555557,151.97729910230782L229.69955555555555,151.7615836797355L229.7368888888889,151.7151912157198L229.7991111111111,151.60100786391607L229.83644444444445,151.50321748373509L230.2222222222222,151.44785433949386L230.42755555555556,151.29608666586768L230.46488888888888,151.20970053303355L230.63288888888889,151.09476349022074L230.69511111111112,151.00067598107177L230.8008888888889,150.90572401022692L230.86933333333334,150.8705670273146L231.10577777777777,150.92738069326103L231.13066666666668,150.9591316571581L231.2613333333333,151.15788968929746L231.45422222222223,151.2754565050412L231.64711111111112,151.54459670329436L231.70933333333335,151.40451249749697L231.7902222222222,151.338250934402L231.83999999999997,151.4253539549001L231.97066666666666,151.2455152804437L232.44355555555555,151.06067806827187L232.53066666666666,151.052614110485L232.64266666666666,151.01012027222725L232.77955555555553,150.898665635157L232.86044444444443,150.80900480512403L232.97244444444445,150.74787198402635L233.04088888888887,150.71508768415268L233.09688888888888,150.6482179283204L233.30844444444443,150.64386876522718L233.53244444444445,150.80389191613295L233.75022222222222,151.021312215133L234.5591111111111,151.25518707296698L234.57155555555556,151.35019558493866L234.59022222222222,151.43161182023925L234.73333333333335,151.50993670015689L234.7457777777778,151.5826412204864L234.93866666666665,151.93341565375846L235.312,152.1262211997643L235.3182222222222,152.2735221321368L235.43644444444442,152.3906636749541L235.4488888888889,152.37959981465758L235.592,152.39912555335L235.63555555555553,152.40480313774924L235.64177777777778,152.41457216327038L236.27644444444442,152.3220749107693L236.4008888888889,152.3907746658878L236.60622222222221,152.49828111951177L236.63733333333332,152.60063522491083L236.73688888888887,152.42559734611876L236.91733333333332,152.41938774914902L237.05422222222225,152.41020844106856L237.18488888888888,152.2960193975269L237.30311111111112,152.3313831123275L237.44622222222222,152.4249258005771L237.45244444444447,152.48209018493617L237.5271111111111,152.80789404227363L237.70133333333334,152.9316362062244L237.78222222222223,153.02224215429084L237.78844444444445,153.0827734283728L237.86933333333334,153.18862495402948L237.888,153.28290947242215L238,153.40414370368435L238.01244444444447,153.53148466464052L238.03111111111113,153.6709296811131L238.1431111111111,153.74479328582208L238.51022222222224,153.99881342689065L238.59733333333332,154.13856548498163L238.92711111111112,154.3488222156999L238.99555555555554,154.44206018510005L239.12,154.45430964433817L239.15111111111113,154.42530232055714L239.176,154.49184364079895L239.27555555555554,154.7858129657201L239.43111111111114,155.07886157457457L239.66133333333332,155.20879002824086L239.67377777777776,155.27045137395805L239.68622222222223,155.33705316655204L239.74844444444446,155.32228397348342L239.87911111111111,155.3766576671807L239.9848888888889,155.34929283451447L240.06577777777778,155.26178301659368L240.17155555555556,155.18876139050855L240.2088888888889,155.23382829356177L240.2151111111111,155.27742385472877L240.25244444444445,155.26800327066198L240.3706666666667,155.3039017765921L240.38933333333335,155.36361572944006L240.61955555555556,155.59992698313536L240.70666666666668,155.67127204916238L240.744,155.6512983417319L240.78133333333332,155.71702720332829L240.90577777777779,155.64142058671115L240.92444444444445,155.52912078405691L240.98044444444443,155.55756756496822L241.20444444444445,155.61482310241055L241.75199999999998,155.77486776539604L242.00711111111113,155.88926783248834L242.0257777777778,155.85727689247216L242.05066666666667,155.8093862682818L242.08800000000002,155.90192845579801L242.1751111111111,155.9590768486347L242.21866666666665,156.01108992150716L242.27466666666666,156.03372790110413L242.33066666666667,156.0069933735406L242.37422222222222,156.06477035027285L242.38666666666668,156.14585663366324L242.4551111111111,156.195741944746L242.48622222222224,156.18451181430385L242.64177777777778,156.27561301814788L242.65422222222222,156.3111213925961L242.71644444444445,156.27678722365664L242.7848888888889,156.33896381896807L242.80355555555556,156.39490273830845L243.03377777777777,156.36159518044184L243.32622222222224,156.32109491038915L243.38844444444445,156.3547062544235L243.5066666666667,156.46180524315616L243.768,156.8090649222046L243.9111111111111,156.93672117577697L243.93599999999998,157.11621822064998L244.09777777777776,157.3464265506526L244.76355555555557,157.638289717224L244.92533333333336,157.92014137946768L245.06222222222223,158.0989908587756L245.3048888888889,158.15721859727324L245.46044444444445,158.2890855974979L245.48533333333333,158.4598124512862L245.54755555555556,158.6163296000536L245.55377777777778,158.74133810837859L245.58488888888888,158.8579589929568L245.62844444444445,158.77367396942932L245.63466666666665,158.7467350048735L245.69688888888888,158.77322617713253L245.93955555555556,158.72737890485044L245.952,158.70707701813288L246.13866666666667,158.6025101538917L246.38133333333334,158.64572471909096L246.4,158.62984290898814L246.40622222222223,158.64167356002926L246.68622222222223,158.54086957051734L246.80444444444444,158.36852448067623L246.82933333333332,158.26485773391903L246.95377777777776,158.3344518084142L247.00977777777777,158.3688070068203L247.0533333333333,158.43207467685644L247.23377777777776,158.58137858930763L247.44533333333334,158.62408637693588L247.66933333333333,158.70372716279397L247.92444444444445,158.65256865757718L248.20444444444445,158.74646120034478L248.2542222222222,158.88615813159788L248.34133333333335,159.0299653392343L248.56533333333334,159.25499057016475L248.584,159.43681534535244L248.64622222222224,159.59538169883095L248.85777777777778,159.79219126259892L248.88888888888889,159.87482892651894" style="fill: none;" fill="none"></path></g></g></g></g><g opacity="0.2"><g><g><g><path stroke="rgb(255, 112, 67)" stroke-width="2px" d="M31.39111111111111,66.76677912932173L31.49066666666667,70.32132504536551L31.565333333333335,45.394057383904055L31.695999999999998,6.422113345219458L31.78933333333333,10.73772162657508L32.007111111111115,12.293768736032263L32.013333333333335,17.9578321530268L32.019555555555556,16.243534711690984L32.032000000000004,14.040203167841895L32.05688888888889,14.908875758831243L32.11288888888889,25.931701183319035L32.23733333333333,46.77675951444181L32.31822222222222,43.11947261370142L32.330666666666666,47.811473222879215L32.43022222222222,55.450338473686756L32.523555555555554,65.96919745665328L32.56711111111111,61.043310972360416L32.654222222222224,57.376285589658266L32.704,63.54220544374904L32.766222222222225,55.536361731015674L33.05866666666667,53.988592331226016L33.35111111111111,43.29947222196134L33.56888888888889,52.2859810682443L33.66222222222222,51.98993121660668L33.84888888888889,53.86345283801735L33.96088888888889,59.313918883983874L34.12266666666667,61.56204744485706L34.209777777777774,58.199025007394596L34.26577777777778,61.67663691594046L34.384,56.70222032987151L34.53955555555555,56.33004801089943L34.97511111111111,41.97390251893259L35.12444444444444,48.98658337959873L35.14933333333333,50.22791521365822L35.41688888888889,52.561580107762225L35.45422222222222,52.37719818261948L35.80266666666667,60.13260060090282L35.976888888888894,57.611307621002155L36.02044444444444,55.913890215066715L36.269333333333336,55.641861952268115L36.32533333333333,55.65549582701459L36.337777777777774,54.03014318759621L36.38133333333334,55.951058754554126L36.54311111111111,55.79751535562366L36.54933333333334,56.39188737135663L36.723555555555556,57.95475141818703L36.81688888888888,57.30860314002399L36.86666666666666,57.08770190752465L36.922666666666665,54.69106149673458L37.028444444444446,54.025111638582615L37.21511111111111,55.45163693794834L37.39555555555556,53.536077536069385L37.44533333333334,54.33511998103211L37.625777777777785,53.93454375633823L37.72533333333334,59.45058224751395L37.992888888888885,60.92693611291736L38.32266666666666,58.20876348935637L38.34133333333333,58.305336768810534L38.81422222222223,66.6237857525165L38.95733333333333,66.30241584777828L38.98844444444445,68.28695616355307L39.09422222222222,70.93906941780673L39.175111111111114,70.73163975202117L39.54222222222222,70.40848445892333L39.660444444444444,74.43713213847231L39.71644444444444,75.12775281759406L39.815999999999995,72.48537804530214L39.903111111111116,73.07147235136763L39.984,74.96739248129035L40.05244444444445,75.73024023496184L40.17688888888889,75.26003386424135L40.22044444444444,76.49682107338536L40.264,76.93456583756665L40.30133333333333,76.51272726058959L40.35111111111111,77.49939779134894L40.43822222222222,76.16863423127393L40.51288888888889,75.4270488298856L40.599999999999994,75.91705678059503L41.28444444444444,73.93495108531069L41.30933333333333,74.68448958030112L41.37155555555555,75.09626505925104L41.44,73.58517727485068L41.65777777777778,78.16469841737012L41.769777777777776,78.77205507571878L41.87555555555556,80.19922960721529L41.99377777777777,80.92718113385713L42.099555555555554,80.2310419816237L42.19911111111111,79.54951055233293L42.24266666666667,77.88536629310019L42.385777777777776,77.27232885360716L42.392,77.48673776479865L42.48533333333333,76.70879536408643L42.54755555555556,77.37539445436916L42.67822222222222,77.02854218849767L42.690666666666665,76.4869202833909L42.827555555555556,77.06700919224664L42.858666666666664,77.22396105986373L43.03911111111111,76.29961681365965L43.05155555555556,76.59160896447986L43.08888888888889,77.93941486798799L43.24444444444444,81.23475485581616L43.29422222222222,82.20892766805795L43.41866666666667,82.05165118437544L43.611555555555555,80.54088801604048L43.623999999999995,80.71212299053484L43.67377777777777,81.03219443101148L43.717333333333336,80.19160112967856L43.81688888888889,80.50518024884737L43.82311111111111,80.47353018247163L43.83555555555556,79.80855417251585L44.10933333333333,79.0479787313021L44.30844444444444,77.77678221922652L44.42044444444445,77.73604290301981L44.48888888888889,78.4005319888775L44.538666666666664,77.88585321719827L44.62577777777778,78.083057476924L44.632,78.4084850824796L44.65688888888889,79.05365951244646L45.01777777777777,76.16230421799878L45.167111111111105,76.98893902851984L45.18577777777778,76.51710957747237L45.559111111111115,75.3121347427368L45.80177777777777,76.04073550150942L45.82666666666666,75.38777028597316L45.95111111111112,75.01235180634717L46.41155555555555,74.78885364532469L46.44888888888889,75.16167519642755L46.46133333333333,75.31392013109645L46.83466666666667,75.45123272675733L47.400888888888886,78.27604172779962L47.432,77.42213916778563L47.50666666666667,77.99492421517003L47.6,77.52747708100537L47.824000000000005,77.21633258232701L47.91111111111111,78.0952305793762L47.96088888888889,78.40183045313906L47.96711111111111,78.20754773800188L48.57066666666667,76.23209667205809L48.583111111111116,75.806525010329L48.589333333333336,75.92127678944513L48.64533333333333,75.22237840065587L48.832,75.4976528241084L48.84444444444445,76.06767863493697L48.888,74.26930563266458L48.98755555555556,74.11397684537444L49,73.82669162750243L49.04355555555556,74.13913459044234L49.04977777777778,74.16039694272551L49.31733333333334,74.60771788083586L49.41688888888889,75.6296092546903L49.47288888888889,74.62005329132079L49.60355555555556,74.52218154760504L49.96444444444444,75.82486581802367L50.03288888888889,76.62650519150952L50.21333333333334,75.99642540858339L50.26933333333333,76.61871440594011L50.46844444444445,76.55833581777716L50.623999999999995,76.81884021025435L50.69244444444445,77.45460077432483L50.94133333333333,78.08013593233547L50.99733333333334,77.42554763647223L51.40177777777778,79.30085464624257L51.62577777777778,79.41998874224147L52.31644444444445,80.6149004789499L52.55288888888889,83.07727564298189L52.74577777777778,84.98325887093175L52.90133333333333,86.06455498475293L53.044444444444444,86.07689039523783L53.07555555555556,85.60051631927489L53.150222222222226,86.51317438712485L53.30577777777778,87.75888853806714L53.82844444444444,89.46474596170277L54.13955555555555,90.46407651901244L54.30133333333334,90.24268836241501L54.413333333333334,90.78690719604491L54.6,90.52007279029257L54.88,89.81971362920908L55.041777777777774,89.57608927213228L55.284444444444446,88.62366573627178L55.321777777777775,88.89520707497228L55.44622222222222,88.13398240162775L55.70755555555556,87.65257677665123L55.84444444444445,87.55064733211809L55.91288888888889,86.89638365232027L56,86.90255135756271L56.18666666666667,87.04473319420445L56.373333333333335,87.37892543352567L56.39822222222222,87.18642810674814L56.43555555555555,87.04424627010637L56.448,86.63977465262778L56.516444444444446,87.26108980178832L56.616,86.88664517035849L56.672,86.92008062509389L56.80888888888889,86.8944359559279L56.83377777777778,86.87073898315428L56.995555555555555,85.87725151502168L57.09511111111111,86.10886507767896L57.455999999999996,84.71561292501596L57.46222222222222,84.77404381678652L57.51822222222222,84.9572895857004L57.55555555555555,85.17543158164389L57.64888888888889,85.51871307079607L57.68,85.61804558680605L57.72977777777778,86.20365296877347L57.80444444444445,86.14083976012009L57.97866666666667,85.77483514639047L58.159111111111116,85.352671953348L58.39555555555555,84.94122109046347L58.48266666666667,84.9400849342346L58.650666666666666,84.20937417103693L58.75644444444445,83.5635505089393L58.88088888888889,83.74728320195123L59.129777777777775,83.71823006409863L59.25422222222222,82.74600494824922L59.37866666666666,82.5403606708233L59.44711111111111,82.67150556124173L59.49066666666667,82.77522039413451L59.94488888888889,83.42915945786694L60.06933333333333,83.60575059744028L60.312000000000005,83.69485770739041L60.330666666666666,83.40481325296254L60.60444444444444,83.70297310902521L60.64177777777778,83.42039482410135L60.660444444444444,83.4434425647442L60.766222222222225,83.04627480873692L60.940444444444445,82.57493228178755L61.13955555555555,82.55594224196211L61.18933333333333,83.01137858170728L61.31377777777777,82.57265996932982L61.44444444444444,82.43940507448636L61.61866666666666,83.33420925873975L61.64355555555555,82.94629306059615L61.75555555555556,83.19024203373834L61.92977777777778,83.03053092956542L62.147555555555556,82.51325522936307L62.352888888888884,82.41051424466646L62.40888888888889,82.87163136555597L62.41511111111111,82.71110872121957L62.52088888888889,82.94223535977876L62.831999999999994,82.76775422463048L63.26133333333334,82.5770422862126L63.29866666666667,82.73951262694136L63.348444444444446,82.32075790258554L63.46666666666666,81.5093800471379L63.49155555555555,81.17875858453603L63.553777777777775,80.72932764200063L63.88355555555555,80.53975185981162L64.00177777777778,80.29482903847325L64.05777777777777,79.55535364151L64.25688888888888,79.0348317806537L64.43111111111111,78.7464104065528L64.80444444444444,79.60729221197272L64.82933333333334,79.37210787259615L64.94755555555555,79.28640923133261L65.12177777777778,78.65389482791605L65.28355555555555,78.47600522408116L65.60711111111111,78.36547345381514L65.72533333333332,78.51609530815709L66.37244444444444,78.04491508924043L66.39111111111112,78.23319240716785L66.55911111111111,78.23254317503707L66.66488888888888,78.04037046432494L66.94488888888888,77.9054924891545L67.05688888888889,78.29000021861147L67.13155555555555,78.2068985058711L67.20622222222222,78.12850372607889L67.34933333333333,78.02397735302263L67.38666666666667,78.17670921178961L67.77244444444445,78.42049587689912L67.94044444444444,77.5719494819641L68.12088888888889,78.04816124989435L68.1768888888889,78.30103716483481L68.2328888888889,78.33950416858377L68.35111111111111,77.97122724239641L68.45066666666666,77.74675523317775L68.45688888888888,77.71802671139055L68.50666666666667,77.46369002415582L68.58133333333333,77.63411345848668L69.048,76.79384477321916L69.25955555555555,76.6932137929476L69.6391111111111,76.01509083234343L69.776,76.01947314922624L69.81333333333333,75.8972552006061L69.83200000000001,75.94383760598987L69.85066666666667,75.99025770334094L69.95022222222222,75.90179982552159L69.98133333333334,75.69209784727828L70.27377777777778,75.65996085680446L70.37955555555556,76.09770562098574L70.672,76.69223994475142L70.784,76.60394437496477L71.008,77.83683619132407L71.49955555555556,77.07479997781604L71.848,76.8749987895672L71.95377777777779,76.41144704818724L72.02222222222223,76.34360229052028L72.04711111111111,76.44017556997443L72.1528888888889,76.86866877629205L72.32711111111111,76.53918346991904L72.42044444444444,76.8464325758127L72.59466666666665,76.84756873204157L72.67555555555555,76.84464718745302L72.7751111111111,76.96800129230203L73.03644444444444,77.02123832702635L73.23555555555555,77.10693696828986L73.25422222222221,76.84075179466832L73.46577777777777,76.49909338584311L73.74577777777777,76.80731633993292L73.808,76.58738895562976L73.82666666666667,76.60913823201105L73.87022222222222,76.34197921019332L73.95111111111112,76.44309711456297L73.98222222222223,76.25108671188353L74.05688888888889,76.50834494370679L74.21244444444446,76.7633308630723L74.256,76.72226693080019L74.31200000000001,76.52490036304178L74.46133333333334,76.81591866566583L74.47377777777777,76.58949896005481L74.57955555555556,76.81640558976392L74.76622222222223,75.98165537760805L75.01511111111111,75.79727345246533L75.10222222222221,76.07822865706221L75.376,75.66109701303333L75.55022222222223,76.08731790689319L75.656,76.00616389054517L75.75555555555556,75.81691272442156L75.83644444444444,75.90082597732543L75.88622222222222,76.13584800866931L75.89866666666667,76.40527934294478L75.98577777777777,76.487407207489L76.06666666666666,76.49779492158154L76.09155555555554,76.77566627355719L76.11644444444444,76.92677505199724L76.19111111111111,76.59647820546076L76.50844444444445,75.73332408758307L76.60177777777777,75.5385544483478L76.72622222222222,75.37235102286704L76.75111111111111,75.44977195446306L76.75733333333334,75.29330701094405L76.78222222222222,75.17514676314131L76.79466666666667,75.10502969301662L76.98133333333332,74.66614877260646L77.06844444444445,74.52770002071672L77.0808888888889,74.45190216944765L77.24266666666666,74.90587773689855L77.39822222222223,74.2352209457984L77.46666666666667,73.9799104103675L77.64088888888888,74.32140651116002L77.65955555555556,74.29868338658258L78.38133333333333,73.47464550458464L78.59288888888888,73.0310576512263L78.76711111111112,73.1260078503535L78.77955555555556,73.01985839697028L78.8231111111111,73.35810833710887L78.87288888888888,73.32710750286394L78.99111111111111,73.14451096608087L79.43288888888888,73.47610627687892L79.51377777777778,73.26348275404708L79.68177777777777,73.49201246408313L79.73777777777778,73.59020882386424L79.77511111111112,73.46604317885176L79.79377777777778,73.63646661318263L79.83111111111111,73.78708846752458L79.85600000000001,73.60611501106847L80.15466666666667,73.54167872208812L80.22933333333333,73.6583781975966L80.24177777777777,73.4478646791898L80.25422222222223,73.51230096817015L80.33511111111112,73.1472702026367L80.35377777777778,73.13136401543248L80.6648888888889,72.30391766474794L80.81422222222223,72.17325969842761L80.87644444444445,72.20977900578421L81.02577777777778,72.8586865205031L81.06311111111111,72.95201363930333L81.11288888888889,72.95477287585916L81.19377777777778,73.01726146844715L81.28088888888888,72.75205014302176L81.30577777777778,72.72884009434622L81.33066666666666,72.76990402661833L81.37422222222223,72.45973337613616L81.38666666666667,72.45908414400539L81.46755555555556,72.6197690963745L81.54222222222222,72.51378195102396L81.68533333333333,72.77461095956653L81.77866666666667,73.00054374107945L81.93422222222222,72.86274422132048L81.94666666666667,72.90413276965799L82.08977777777777,73.19563799638011L82.32,73.353239096128L82.46933333333332,72.60094136458174L82.52533333333334,72.75399783941413L82.57511111111111,72.6929700191204L82.6,72.7306254827059L82.78044444444444,72.67024689454296L82.89866666666666,72.64590068963855L82.94844444444443,72.85608959197997L82.95466666666667,72.94097669308L82.96088888888889,72.9860983261695L82.96711111111112,73.08429468595061L82.99822222222221,73.31736902090216L83.17244444444444,73.32678288679854L83.19111111111111,73.34496138646051L83.24711111111112,72.99080525911769L83.37777777777777,72.66959766241217L83.48355555555555,72.75416014744681L83.52088888888889,72.82443952560423L83.73866666666666,72.41136558239275L83.75733333333332,72.4581102958092L84.29244444444444,71.83614591451789L84.31733333333332,71.89262910989612L84.8648888888889,72.15410735056948L84.97688888888888,72.33264618653514L85.02044444444444,72.3842601409325L85.1448888888889,72.76957941055296L85.66755555555555,73.38699916692877L85.74222222222222,73.26559275847212L85.76088888888889,73.34220214990467L85.77955555555555,73.45516854066112L85.96622222222221,73.33019135548517L86.02222222222223,73.40988459953893L86.05955555555555,73.41102075576781L86.07822222222222,73.50467249063342L86.10311111111112,73.732390660506L86.27733333333333,73.3618414218609L86.68177777777778,73.67120053217958L86.80622222222222,73.60806270746082L86.81866666666666,73.57771110534667L86.856,73.67331053660463L86.89333333333335,73.8101362081674L87.12355555555555,73.09127393135655L87.17955555555555,73.19044413933385L87.21688888888889,72.99486295993509L87.23555555555555,72.97993062092706L87.34133333333334,72.80966949462889L87.416,72.89423197966353L87.65244444444446,72.79506177168624L87.6648888888889,72.84797419034514L87.92,73.35275217202991L88.57333333333334,74.21347166941713L88.67911111111111,74.41797979061418L88.77866666666667,74.49004455713123L88.90933333333334,74.58385860002956L88.92177777777778,74.61696943869956L89.4071111111111,74.64894412114069L89.47555555555554,74.52672617252054L89.7928888888889,74.60593249247621L89.86133333333333,74.40970208094667L89.88,74.38178509932295L89.89244444444445,74.37545508604781L89.99822222222222,74.10732221603392L90.30311111111112,73.88349943894603L90.38399999999999,73.80526696718654L90.52711111111111,73.60838732352622L90.56444444444443,73.84438320306629L90.65155555555556,73.91725950974681L90.71377777777776,73.44559236673206L90.81955555555555,73.4556554647592L90.90044444444445,73.53031715979941L90.95022222222222,73.70463598691497L90.95644444444444,73.55758490929234L91.07466666666666,73.5506056638864L91.1928888888889,73.50759403522196L91.20533333333333,73.48876630342922L91.31733333333334,73.45857700934775L91.49155555555556,73.58436573468718L91.52888888888889,73.43082233575672L91.55377777777777,73.44169697394736L91.62844444444444,73.4652316386883L91.67200000000001,73.46377086639403L91.76533333333333,73.38407762234026L91.93955555555556,73.29578205255359L91.96444444444444,73.29821667304404L92.10133333333334,73.00151758927562L92.23200000000001,72.8580372883723L92.2631111111111,72.65012069848865L92.28177777777779,72.7340339513925L92.36266666666666,72.87800117639392L92.44977777777778,72.88043579688437L92.568,72.66326764913703L92.57422222222222,72.71601775976325L92.64888888888889,72.7104992866516L92.66133333333335,72.71520621959978L92.97866666666667,72.14144732401918L93.11555555555556,71.87802138695348L93.13422222222222,71.8351720663217L186.82222222222222,154.06723836752087L186.85955555555557,185.28037151923553L186.95911111111113,191.43152134235095L186.96533333333332,160.39984857119052L187.27644444444445,134.5907613680913L187.33866666666668,139.6210119174077L187.62488888888888,136.4586022083576L187.6311111111111,138.51017574163586L187.78666666666666,142.377489236685L187.91733333333335,132.43531069388757L188.40266666666665,109.6065235871535L188.44,110.14522394767175L188.4711111111111,102.04313157154964L188.78844444444445,98.33845072526198L188.9128888888889,100.17350534292368L188.93155555555555,103.7845344543457L188.9502222222222,103.54334471775935L189.224,103.26238951316246L189.35466666666667,105.51311500255878L189.6968888888889,108.06362342834473L189.87733333333335,105.93690127592821L190.09511111111112,111.64868325453538L190.15733333333336,111.77658198429988L190.17600000000002,113.15960873090305L190.19466666666668,117.03097992676956L190.2008888888889,115.87226288135236L190.21955555555556,114.06236600875854L190.28177777777776,111.44498667350183L190.33155555555555,114.53078699111938L190.47466666666668,111.35798956797673L190.5928888888889,113.37288148586568L190.68622222222223,112.71910473016592L191.1031111111111,125.98032023356512L191.11555555555557,123.91365205324615L191.28977777777777,124.13130712509158L191.33955555555556,127.2552498303927L191.45777777777778,120.48164870188788L191.6071111111111,119.7470425459055L191.61955555555556,119.30410392467793L191.76888888888888,117.66917511133047L191.84977777777777,115.67814247424786L191.96177777777777,117.55101486352774L192.06755555555554,117.38562297821045L192.2231111111111,118.88713458868175L192.34755555555554,115.34735870361328L192.45333333333335,114.57509708404541L192.81422222222224,118.27085098853479L192.87644444444445,115.71758332619302L192.96977777777778,114.99596181282632L193.12533333333332,117.32849055070145L193.26844444444444,117.5367317566505L193.3368888888889,117.51530709633462L193.368,119.09748579905585L193.44266666666667,120.06743860244751L193.52977777777778,121.12438851136429L193.62311111111111,118.29487257737381L193.65422222222222,117.99930964983429L193.7351111111111,118.1056214112502L194.04,119.01373485418468L194.10222222222222,118.72969579696655L194.13333333333333,117.70472057049092L194.58133333333333,116.6131990506099L194.8488888888889,115.26945084791919L194.97333333333333,115.89027907298163L195.12266666666665,115.45691662568314L195.2222222222222,115.46000047830435L195.41511111111112,114.60999331107507L195.45866666666666,112.42516488295335L195.46488888888888,112.8479773081266L195.56444444444443,113.26478433609009L195.67644444444446,113.32045599130484L195.8071111111111,112.79068257258488L195.8631111111111,114.09060760644766L195.9813333333333,114.8812100337102L196.0871111111111,115.52151522269617L196.12444444444444,114.60544868615958L196.1368888888889,115.12808055144092L196.1928888888889,115.45675431765045L196.32355555555554,114.91854088123029L196.56622222222222,115.81642891810492L196.8897777777778,117.59581188055186L197.0702222222222,118.68782032453099L197.3688888888889,118.53508846576398L197.47466666666668,118.20089622644278L197.49955555555553,119.40424798085141L197.58044444444442,119.30377930861255L197.67999999999998,118.68084107912506L197.8231111111111,118.85012835722705L197.82933333333332,118.9015800035917L197.97866666666664,121.87133007783157L198.29600000000002,122.94077770526594L198.31466666666668,121.62202493961043L198.39555555555557,124.53951182732217L198.45155555555556,124.0147699576158L198.49511111111113,124.64793359316315L198.61955555555554,123.70054160631622L198.70044444444443,125.29489341148965L199.21066666666667,126.3322040484502L199.25422222222224,127.50098419189456L199.304,128.89796942930957L199.31644444444444,128.23445419164807L199.62133333333333,132.5253916520339L199.68977777777778,133.43123278251062L199.95111111111112,135.37681917043835L200.01333333333335,133.94104231320898L200.26222222222222,132.91817709115838L200.35555555555555,132.5789533028236L200.49866666666665,133.38611114942114L200.5048888888889,132.38791674834033L200.57333333333335,133.64986170255224L201.00266666666667,134.75485478914703L201.28266666666667,135.88679100916937L201.3262222222222,134.40832713934094L201.38844444444445,135.6928329100976L201.58755555555555,136.5998101968032L201.64977777777779,136.38621282577517L201.6746666666667,136.18900856604944L201.69955555555555,135.67238209797787L201.73688888888887,135.76619614087622L201.7928888888889,136.32275038499102L201.86755555555555,136.69589655215927L201.94222222222223,136.03692593941324L202.42755555555556,136.28866569812484L202.47111111111113,136.63876412465027L202.6391111111111,137.93187222113977L202.65155555555557,138.21331434983477L202.65777777777777,138.45206946593066L202.70755555555556,137.52155751448413L202.98133333333334,138.75866933969354L202.99377777777778,137.95849073850195L203.38577777777778,138.64797526139483L203.4791111111111,138.84355644079358L203.58488888888888,137.66568704751825L203.66577777777778,138.4139270782471L203.68444444444444,138.45239408199606L203.95200000000003,139.5109670712398L203.9831111111111,140.01964044570926L204.08266666666665,138.79437710688666L204.0888888888889,138.1292387888982L204.1697777777778,138.80882252179663L204.21955555555556,138.0542524777926L204.22577777777778,138.26801215685333L204.3688888888889,138.75948087985702L204.41244444444445,138.03250320141134L204.56177777777776,139.93718796509967L204.6488888888889,140.9082769247202L204.68622222222223,141.14573357655456L204.7048888888889,140.905193072099L204.97244444444445,140.37509503731366L205.0222222222222,139.6672697067261L205.07822222222222,140.20061390216537L205.22133333333332,140.26667327147265L205.28355555555555,139.45172463930572L205.37688888888889,140.25076708426846L205.38933333333335,139.35644982411316L205.47022222222225,139.79305843206555L205.4888888888889,138.94678434958828L205.61955555555556,140.00194887014538L205.75022222222225,140.67422874157248L205.80622222222223,141.48025043194113L206.01155555555556,141.93730985201324L206.0551111111111,142.12250331731946L206.08622222222223,141.5441997968234L206.19822222222223,141.7871749217694L206.44088888888888,142.5716096437895L206.51555555555555,142.3604468932519L206.5591111111111,142.14344105353726L206.6088888888889,142.2020342533405L206.64,142.48639792662402L206.64622222222224,142.78715471120984L206.70222222222222,142.46286326188311L206.83288888888887,143.31514274157013L207.00088888888888,144.44350818487317L207.00711111111113,144.59770081593445L207.38044444444444,143.6543665299049L207.41777777777776,144.16888299355145L207.52977777777778,144.13138983799865L207.9466666666667,143.7829144918002L208.00266666666667,143.50439390769375L208.152,144.41137119439935L208.208,143.44661224805395L208.51288888888888,143.22928179227392L208.6311111111111,143.43817223035376L208.66844444444445,143.0780107058012L208.69955555555555,143.29956117043133L208.73688888888887,144.2575031794035L208.8488888888889,143.70257201561566L208.95466666666667,144.18771072534417L208.992,143.72188667150647L209.11022222222223,143.82219303571264L209.43377777777778,143.8739692981427L209.49599999999998,143.332834317134L209.58311111111112,143.25687415783224L209.65777777777777,143.2421041268569L209.7697777777778,143.17393475312457L209.93155555555555,143.43752299822296L210.04355555555557,143.0822307146513L210.07466666666664,142.6287420712985L210.09955555555555,142.89541416901812L210.13688888888888,142.93290732457092L210.3297777777778,143.28105805470398L210.42933333333335,144.28477092889642L210.43555555555554,144.15557373487036L210.49155555555555,143.82300457587613L210.54133333333334,144.5496576382564L210.728,144.77786273222705L210.86488888888888,145.0982587887691L210.896,145.43034102366525L210.97066666666666,146.04143076676593L211.18222222222224,146.46570396423343L211.18844444444446,146.65885052314175L211.26311111111113,146.00036683449383L211.46844444444446,146.5621149356549L211.4933333333333,146.87066250581012L211.54933333333332,147.41049902255722L211.5617777777778,146.52803024878872L211.79822222222222,147.4320859909058L211.83555555555554,147.20258243267355L211.87911111111111,146.63385508610656L211.91022222222222,146.70023907147925L212.072,147.09610836322494L212.08444444444444,147.00586509704593L212.296,146.40337767967816L212.56355555555555,144.84992749874414L212.62577777777778,144.9745800678547L212.75644444444444,144.19355381452124L213.04266666666666,144.21319308647747L213.24800000000002,143.72789206871624L213.36,143.66378039580127L213.4968888888889,143.3370543259841L213.54666666666668,143.22408793522766L213.59644444444444,143.74882980493402L214.31199999999998,145.00525628603424L214.3431111111111,144.76471578157867L214.36177777777777,144.68843100621154L214.49866666666668,145.49493962067828L214.71644444444445,146.04922155233533L214.74755555555555,145.90866279602054L214.77866666666668,145.90671509962817L214.90311111111112,146.1993564825792L214.94044444444444,145.8990866220915L215.13955555555555,145.73466858497036L215.152,145.8038118068989L215.5751111111111,145.31558924454913L215.9857777777778,145.9802406384395L215.992,145.99598451761102L216.0791111111111,146.91886799152084L216.17866666666666,146.2154249778161L216.40888888888887,147.40595439764172L216.56444444444446,146.88056329580456L216.72,147.29233877475448L216.96888888888887,148.6317046605624L217.26133333333334,149.77922245172357L217.2862222222222,149.96587668932403L217.29866666666666,150.08533540138836L217.3671111111111,149.5029741800749L217.70933333333332,149.90290117263797L217.74044444444445,149.82158484825726L217.7902222222222,149.99281982275158L217.83377777777778,150.05238687075104L217.9271111111111,149.6542452665476L217.952,149.81801407153793L217.95822222222222,149.76721165730407L217.97688888888888,149.9470489575313L218.35644444444443,150.59595647225018L218.44977777777777,150.66720969860376L218.4808888888889,150.86457626636215L218.54311111111113,150.64529811418976L218.75466666666668,150.48250315739563L218.83555555555554,150.57664181635934L218.8417777777778,150.65568582828232L218.85422222222223,150.6691573949961L219.02844444444443,149.95256743064297L219.10933333333332,150.1937571672293L219.19644444444444,149.63249599016632L219.28977777777777,150.2771834960351L219.6008888888889,149.87449726691617L219.6071111111111,149.95889744391812L219.61333333333334,149.92465044901925L219.62577777777776,149.5317027018621L219.7937777777778,150.2280041621282L219.8062222222222,150.16859942216144L220.14222222222224,148.68688939167907L220.26666666666665,148.69662787364084L220.6026666666667,149.80957405383774L220.65866666666668,149.74319006846505L221.0568888888889,149.3418023036077L221.11911111111112,149.08275868342477L221.15022222222223,149.19864661876974L221.21866666666668,148.936843762031L221.27466666666666,149.27282138971185L221.57333333333332,149.8434964326712L221.79733333333334,149.3945524142339L221.96533333333332,149.9762644034166L222.22666666666666,149.24636518038238L222.35733333333334,149.54062964366037L222.40088888888891,149.73101696601285L222.51288888888888,149.6258413608258L222.66222222222223,149.77727475533123L222.6871111111111,149.98243210865905L223.11644444444445,149.59402898641736L223.12266666666665,149.52829423317547L223.61422222222222,149.5716304779053L223.6702222222222,149.5505304336548L223.78844444444445,149.99703983160168L224.15555555555557,150.51334168360788L224.40444444444444,150.39875221252444L224.616,150.82659618671127L224.672,150.80176305770877L224.74666666666667,150.97754265711862L224.7902222222222,151.05041896379916L225.10755555555556,151.11225832425635L225.2008888888889,150.82205156179577L225.33777777777777,150.62419806993927L225.44977777777777,150.4266691941482L225.64888888888888,150.3359390038711L225.7422222222222,150.38057371286249L225.77955555555556,150.20820258213928L225.91022222222222,149.6130190262428L226.12177777777777,149.36890774506793L226.20888888888888,148.94836763235242L226.25244444444445,149.20156816335827L226.25866666666667,149.2871044965891L226.28977777777777,149.21828589072598L226.464,149.46207255583548L226.71911111111112,149.9720443945665L226.9928888888889,149.5023249479441L227.17333333333335,149.8563187672542L227.2728888888889,149.7706201259907L227.32888888888888,149.971232854403L227.33511111111113,150.06780613385718L227.53422222222224,149.73328927847058L227.752,149.8895919139569L227.9262222222222,149.74692315321707L227.96977777777778,150.0952361913828L227.976,150.1411693646358L228.02577777777776,150.30315278126648L228.0631111111111,150.41871610054608L228.08177777777777,150.31548819175137L228.15644444444445,150.98841729530926L228.16266666666667,150.974134188432L228.2,150.65341351582458L228.2062222222222,150.74430601413437L228.256,151.12004910982577L228.31822222222223,150.76670452264642L228.38044444444444,150.79429688820477L228.3928888888889,150.88372861422027L228.52977777777778,151.0281827633198L228.63555555555556,151.44271747882553L228.70399999999998,151.55698233384356L229.05244444444446,152.5613444401668L229.096,152.30197620391849L229.1271111111111,152.43620494695813L229.2328888888889,152.18332903201767L229.31377777777777,151.94619699624872L229.53155555555557,151.81424056566684L229.69955555555555,151.43801054587735L229.7368888888889,151.64560251969561L229.7991111111111,151.42973283620984L229.83644444444445,151.35653191346393L230.2222222222222,151.36480962313144L230.42755555555556,151.0684351554284L230.46488888888888,151.08012133378253L230.63288888888889,150.92235792600195L230.69511111111112,150.85954471734857L230.8008888888889,150.7632960539598L230.86933333333334,150.81783155294568L231.10577777777777,151.01260119218097L231.13066666666668,151.0067581030039L231.2613333333333,151.45602673750662L231.45422222222223,151.45180672865652L231.64711111111112,151.94830700067376L231.70933333333335,151.19438618880056L231.7902222222222,151.23885858975927L231.83999999999997,151.5560084856474L231.97066666666666,150.97575726875897L232.44355555555555,150.78342225001413L232.53066666666666,151.04051817380468L232.64266666666666,150.94637951484097L232.77955555555553,150.7314836795514L232.86044444444443,150.67451356007507L232.97244444444445,150.6561727523804L233.04088888888887,150.66591123434216L233.09688888888888,150.54791329457214L233.30844444444443,150.63734502058767L233.53244444444445,151.0439266424913L233.75022222222222,151.34744266363293L234.5591111111111,151.60599935971777L234.57155555555556,151.49270835289593L234.59022222222222,151.55373617318963L234.73333333333335,151.62742402003366L234.7457777777778,151.6916980009813L234.93866666666665,152.45957730366638L235.312,152.41542951877304L235.3182222222222,152.49447353069604L235.43644444444442,152.5663759891804L235.4488888888889,152.36300402421222L235.592,152.42841416138873L235.63555555555553,152.413319514348L235.64177777777778,152.4292257015522L236.27644444444442,152.18332903201767L236.4008888888889,152.49382429856524L236.60622222222221,152.65954079994793L236.63733333333332,152.75416638300973L236.73688888888887,152.16304052793066L236.91733333333332,152.4100733536941L237.05422222222225,152.3964394789476L237.18488888888888,152.12473583221438L237.30311111111112,152.3844286845281L237.44622222222222,152.5652398329515L237.45244444444447,152.56783676147464L237.5271111111111,153.29659982827997L237.70133333333334,153.11724945215082L237.78222222222223,153.15815107639023L237.78844444444445,153.17357033949637L237.86933333333334,153.34740224251385L237.888,153.42433625001178L238,153.58599505057705L238.01244444444447,153.72249610607446L238.03111111111113,153.88009720582232L238.1431111111111,153.85558869288522L238.51022222222224,154.3798436384935L238.59733333333332,154.34819357211776L238.92711111111112,154.664207311777L238.99555555555554,154.5819171392001L239.12,154.47268383319565L239.15111111111113,154.38179133488586L239.176,154.59165562116186L239.27555555555554,155.22676695310156L239.43111111111114,155.51843448785638L239.66133333333332,155.4036827087403L239.67377777777776,155.36294339253357L239.68622222222223,155.43695585544296L239.74844444444446,155.30013018388019L239.87911111111111,155.45821820772616L239.9848888888889,155.30824558551498L240.06577777777778,155.1305182897128L240.17155555555556,155.07922895138086L240.2088888888889,155.30142864814175L240.2151111111111,155.34281719647925L240.25244444444445,155.25387239456182L240.3706666666667,155.3577495354873L240.38933333333335,155.45318665871258L240.61955555555556,155.95439386367804L240.70666666666668,155.7782896482028L240.744,155.6213377805857L240.78133333333332,155.8156204957229L240.90577777777779,155.52801066178546L240.92444444444445,155.36067108007583L240.98044444444443,155.6002377363352L241.20444444444445,155.70070640857406L241.75199999999998,156.01493475987365L242.00711111111113,156.06086793312664L242.0257777777778,155.80929048244775L242.05066666666667,155.7375503319961L242.08800000000002,156.04074173707232L242.1751111111111,156.04479943788974L242.21866666666665,156.08910953081576L242.27466666666666,156.06768487049987L242.33066666666667,155.96689158219561L242.37422222222222,156.15143581537103L242.38666666666668,156.26748605874872L242.4551111111111,156.27056991136996L242.48622222222224,156.16766661864065L242.64177777777778,156.41226482391363L242.65422222222222,156.36438395426828L242.71644444444445,156.22528597024774L242.7848888888889,156.43222871193524L242.80355555555556,156.478811117319L243.03377777777777,156.31163384364206L243.32622222222224,156.26034450531012L243.38844444444445,156.405123270475L243.5066666666667,156.62245372625503L243.768,157.32995444077716L243.9111111111111,157.12820555613595L243.93599999999998,157.38546378795922L244.09777777777776,157.69173904565667L244.76355555555557,158.07608446708096L244.92533333333336,158.3429188728333L245.06222222222223,158.3672650777377L245.3048888888889,158.24456020501947L245.46044444444445,158.4868860978347L245.48533333333333,158.71590273196884L245.54755555555556,158.85110532320468L245.55377777777778,158.92885087086609L245.58488888888888,159.03289031982428L245.62844444444445,158.64724643413842L245.63466666666665,158.7063265580398L245.69688888888888,158.81296293552109L245.93955555555556,158.65860799642715L245.952,158.6766241880564L246.13866666666667,158.4456598575299L246.38133333333334,158.7105465668899L246.4,158.60602019383361L246.40622222222223,158.65941953659063L246.68622222222223,158.38966358624975L246.80444444444444,158.11000684591446L246.82933333333332,158.10935761378366L246.95377777777776,158.43884292015667L247.00977777777777,158.42033980442932L247.0533333333333,158.52697618191064L247.23377777777776,158.80533445798437L247.44533333333334,158.68814805837783L247.66933333333333,158.82318834158096L247.92444444444445,158.57583089975213L248.20444444444445,158.8873000144959L248.2542222222222,159.09570352847763L248.34133333333335,159.2456761506888L248.56533333333334,159.5925284165603L248.584,159.70955250813415L248.64622222222224,159.83323122904855L248.85777777777778,160.0874056082506L248.88888888888889,159.99878542239856" style="fill: none;" fill="none"></path></g></g></g></g></g></g><g transform="translate(50, 177)" clip-path="url(#clip_1)"><clipPath id="clip_1"><rect width="280" height="23"></rect></clipPath><g><g><line x1="0" y1="0" x2="0" y2="5" style="visibility: inherit;" fill="rgb(0, 0, 0)" stroke="rgb(204, 204, 204)" stroke-width="1px"></line><line x1="31.11111111111111" y1="0" x2="31.11111111111111" y2="5" style="visibility: inherit;" fill="rgb(0, 0, 0)" stroke="rgb(204, 204, 204)" stroke-width="1px"></line><line x1="62.22222222222222" y1="0" x2="62.22222222222222" y2="5" style="visibility: inherit;" fill="rgb(0, 0, 0)" stroke="rgb(204, 204, 204)" stroke-width="1px"></line><line x1="93.33333333333333" y1="0" x2="93.33333333333333" y2="5" style="visibility: inherit;" fill="rgb(0, 0, 0)" stroke="rgb(204, 204, 204)" stroke-width="1px"></line><line x1="124.44444444444444" y1="0" x2="124.44444444444444" y2="5" style="visibility: inherit;" fill="rgb(0, 0, 0)" stroke="rgb(204, 204, 204)" stroke-width="1px"></line><line x1="155.55555555555557" y1="0" x2="155.55555555555557" y2="5" style="visibility: inherit;" fill="rgb(0, 0, 0)" stroke="rgb(204, 204, 204)" stroke-width="1px"></line><line x1="186.66666666666666" y1="0" x2="186.66666666666666" y2="5" style="visibility: inherit;" fill="rgb(0, 0, 0)" stroke="rgb(204, 204, 204)" stroke-width="1px"></line><line x1="217.77777777777777" y1="0" x2="217.77777777777777" y2="5" style="visibility: inherit;" fill="rgb(0, 0, 0)" stroke="rgb(204, 204, 204)" stroke-width="1px"></line><line x1="248.88888888888889" y1="0" x2="248.88888888888889" y2="5" style="visibility: inherit;" fill="rgb(0, 0, 0)" stroke="rgb(204, 204, 204)" stroke-width="1px"></line><line x1="280" y1="0" x2="280" y2="5" style="visibility: inherit;" fill="rgb(0, 0, 0)" stroke="rgb(204, 204, 204)" stroke-width="1px"></line></g><g transform="translate(0, 8)"><text x="0" y="0" dx="0em" dy="0.95em" style="text-anchor: middle; visibility: hidden; font-family: &quot;Helvetica Neue&quot;, sans-serif; font-size: 12px; font-weight: 200;" fill="rgb(33, 33, 33)" stroke="none" stroke-width="1px">10k</text><text x="31.11111111111111" y="0" dx="0em" dy="0.95em" style="text-anchor: middle; visibility: inherit; font-family: &quot;Helvetica Neue&quot;, sans-serif; font-size: 12px; font-weight: 200;" fill="rgb(33, 33, 33)" stroke="none" stroke-width="1px">15k</text><text x="62.22222222222222" y="0" dx="0em" dy="0.95em" style="text-anchor: middle; visibility: inherit; font-family: &quot;Helvetica Neue&quot;, sans-serif; font-size: 12px; font-weight: 200;" fill="rgb(33, 33, 33)" stroke="none" stroke-width="1px">20k</text><text x="93.33333333333333" y="0" dx="0em" dy="0.95em" style="text-anchor: middle; visibility: inherit; font-family: &quot;Helvetica Neue&quot;, sans-serif; font-size: 12px; font-weight: 200;" fill="rgb(33, 33, 33)" stroke="none" stroke-width="1px">25k</text><text x="124.44444444444444" y="0" dx="0em" dy="0.95em" style="text-anchor: middle; visibility: inherit; font-family: &quot;Helvetica Neue&quot;, sans-serif; font-size: 12px; font-weight: 200;" fill="rgb(33, 33, 33)" stroke="none" stroke-width="1px">30k</text><text x="155.55555555555557" y="0" dx="0em" dy="0.95em" style="text-anchor: middle; visibility: inherit; font-family: &quot;Helvetica Neue&quot;, sans-serif; font-size: 12px; font-weight: 200;" fill="rgb(33, 33, 33)" stroke="none" stroke-width="1px">35k</text><text x="186.66666666666666" y="0" dx="0em" dy="0.95em" style="text-anchor: middle; visibility: inherit; font-family: &quot;Helvetica Neue&quot;, sans-serif; font-size: 12px; font-weight: 200;" fill="rgb(33, 33, 33)" stroke="none" stroke-width="1px">40k</text><text x="217.77777777777777" y="0" dx="0em" dy="0.95em" style="text-anchor: middle; visibility: inherit; font-family: &quot;Helvetica Neue&quot;, sans-serif; font-size: 12px; font-weight: 200;" fill="rgb(33, 33, 33)" stroke="none" stroke-width="1px">45k</text><text x="248.88888888888889" y="0" dx="0em" dy="0.95em" style="text-anchor: middle; visibility: inherit; font-family: &quot;Helvetica Neue&quot;, sans-serif; font-size: 12px; font-weight: 200;" fill="rgb(33, 33, 33)" stroke="none" stroke-width="1px">50k</text><text x="280" y="0" dx="0em" dy="0.95em" style="text-anchor: middle; visibility: hidden; font-family: &quot;Helvetica Neue&quot;, sans-serif; font-size: 12px; font-weight: 200;" fill="rgb(33, 33, 33)" stroke="none" stroke-width="1px">55k</text></g><line x1="0" y1="0" x2="280" y2="0" fill="rgb(0, 0, 0)" stroke="rgb(204, 204, 204)" stroke-width="1px"></line></g></g></g></g></svg>