<svg viewBox="0 0 330 200" xmlns="http://www.w3.org/2000/svg"><g><g><g><g><g><line x1="50" y1="177" x2="45" y2="177" style="visibility: inherit;" fill="rgb(0, 0, 0)" stroke="rgb(204, 204, 204)" stroke-width="1px"></line><line x1="50" y1="163.38461538461536" x2="45" y2="163.38461538461536" style="visibility: inherit;" fill="rgb(0, 0, 0)" stroke="rgb(204, 204, 204)" stroke-width="1px"></line><line x1="50" y1="149.7692307692308" x2="45" y2="149.7692307692308" style="visibility: inherit;" fill="rgb(0, 0, 0)" stroke="rgb(204, 204, 204)" stroke-width="1px"></line><line x1="50" y1="136.1538461538462" x2="45" y2="136.1538461538462" style="visibility: inherit;" fill="rgb(0, 0, 0)" stroke="rgb(204, 204, 204)" stroke-width="1px"></line><line x1="50" y1="122.53846153846155" x2="45" y2="122.53846153846155" style="visibility: inherit;" fill="rgb(0, 0, 0)" stroke="rgb(204, 204, 204)" stroke-width="1px"></line><line x1="50" y1="108.9230769230769" x2="45" y2="108.9230769230769" style="visibility: inherit;" fill="rgb(0, 0, 0)" stroke="rgb(204, 204, 204)" stroke-width="1px"></line><line x1="50" y1="95.30769230769228" x2="45" y2="95.30769230769228" style="visibility: inherit;" fill="rgb(0, 0, 0)" stroke="rgb(204, 204, 204)" stroke-width="1px"></line><line x1="50" y1="81.69230769230764" x2="45" y2="81.69230769230764" style="visibility: inherit;" fill="rgb(0, 0, 0)" stroke="rgb(204, 204, 204)" stroke-width="1px"></line><line x1="50" y1="68.07692307692301" x2="45" y2="68.07692307692301" style="visibility: inherit;" fill="rgb(0, 0, 0)" stroke="rgb(204, 204, 204)" stroke-width="1px"></line><line x1="50" y1="54.46153846153838" x2="45" y2="54.46153846153838" style="visibility: inherit;" fill="rgb(0, 0, 0)" stroke="rgb(204, 204, 204)" stroke-width="1px"></line><line x1="50" y1="40.846153846153754" x2="45" y2="40.846153846153754" style="visibility: inherit;" fill="rgb(0, 0, 0)" stroke="rgb(204, 204, 204)" stroke-width="1px"></line><line x1="50" y1="27.230769230769113" x2="45" y2="27.230769230769113" style="visibility: inherit;" fill="rgb(0, 0, 0)" stroke="rgb(204, 204, 204)" stroke-width="1px"></line><line x1="50" y1="13.615384615384613" x2="45" y2="13.615384615384613" style="visibility: inherit;" fill="rgb(0, 0, 0)" stroke="rgb(204, 204, 204)" stroke-width="1px"></line></g><g transform="translate(40, 0)"><text x="0" y="177" dx="0em" dy="0.3em" style="text-anchor: end; visibility: hidden; font-family: &quot;Helvetica Neue&quot;, sans-serif; font-size: 12px; font-weight: 200;" fill="rgb(33, 33, 33)" stroke="none" stroke-width="1px">0.9</text><text x="0" y="163.38461538461536" dx="0em" dy="0.3em" style="text-anchor: end; visibility: inherit; font-family: &quot;Helvetica Neue&quot;, sans-serif; font-size: 12px; font-weight: 200;" fill="rgb(33, 33, 33)" stroke="none" stroke-width="1px">0.92</text><text x="0" y="149.7692307692308" dx="0em" dy="0.3em" style="text-anchor: end; visibility: hidden; font-family: &quot;Helvetica Neue&quot;, sans-serif; font-size: 12px; font-weight: 200;" fill="rgb(33, 33, 33)" stroke="none" stroke-width="1px">0.94</text><text x="0" y="136.1538461538462" dx="0em" dy="0.3em" style="text-anchor: end; visibility: inherit; font-family: &quot;Helvetica Neue&quot;, sans-serif; font-size: 12px; font-weight: 200;" fill="rgb(33, 33, 33)" stroke="none" stroke-width="1px">0.96</text><text x="0" y="122.53846153846155" dx="0em" dy="0.3em" style="text-anchor: end; visibility: hidden; font-family: &quot;Helvetica Neue&quot;, sans-serif; font-size: 12px; font-weight: 200;" fill="rgb(33, 33, 33)" stroke="none" stroke-width="1px">0.98</text><text x="0" y="108.9230769230769" dx="0em" dy="0.3em" style="text-anchor: end; visibility: inherit; font-family: &quot;Helvetica Neue&quot;, sans-serif; font-size: 12px; font-weight: 200;" fill="rgb(33, 33, 33)" stroke="none" stroke-width="1px">1</text><text x="0" y="95.30769230769228" dx="0em" dy="0.3em" style="text-anchor: end; visibility: hidden; font-family: &quot;Helvetica Neue&quot;, sans-serif; font-size: 12px; font-weight: 200;" fill="rgb(33, 33, 33)" stroke="none" stroke-width="1px">1.02</text><text x="0" y="81.69230769230764" dx="0em" dy="0.3em" style="text-anchor: end; visibility: inherit; font-family: &quot;Helvetica Neue&quot;, sans-serif; font-size: 12px; font-weight: 200;" fill="rgb(33, 33, 33)" stroke="none" stroke-width="1px">1.04</text><text x="0" y="68.07692307692301" dx="0em" dy="0.3em" style="text-anchor: end; visibility: hidden; font-family: &quot;Helvetica Neue&quot;, sans-serif; font-size: 12px; font-weight: 200;" fill="rgb(33, 33, 33)" stroke="none" stroke-width="1px">1.06</text><text x="0" y="54.46153846153838" dx="0em" dy="0.3em" style="text-anchor: end; visibility: inherit; font-family: &quot;Helvetica Neue&quot;, sans-serif; font-size: 12px; font-weight: 200;" fill="rgb(33, 33, 33)" stroke="none" stroke-width="1px">1.08</text><text x="0" y="40.846153846153754" dx="0em" dy="0.3em" style="text-anchor: end; visibility: hidden; font-family: &quot;Helvetica Neue&quot;, sans-serif; font-size: 12px; font-weight: 200;" fill="rgb(33, 33, 33)" stroke="none" stroke-width="1px">1.1</text><text x="0" y="27.230769230769113" dx="0em" dy="0.3em" style="text-anchor: end; visibility: inherit; font-family: &quot;Helvetica Neue&quot;, sans-serif; font-size: 12px; font-weight: 200;" fill="rgb(33, 33, 33)" stroke="none" stroke-width="1px">1.12</text><text x="0" y="13.615384615384613" dx="0em" dy="0.3em" style="text-anchor: end; visibility: hidden; font-family: &quot;Helvetica Neue&quot;, sans-serif; font-size: 12px; font-weight: 200;" fill="rgb(33, 33, 33)" stroke="none" stroke-width="1px">1.14</text></g><line x1="50" y1="0" x2="50" y2="177" fill="rgb(0, 0, 0)" stroke="rgb(204, 204, 204)" stroke-width="1px"></line></g></g><g transform="translate(50, 0)" clip-path="url(#clip_0)"><clipPath id="clip_0"><rect width="280" height="177"></rect></clipPath><g><g><g><line x1="0" y1="0" x2="0" y2="177" fill="rgb(0, 0, 0)" stroke="rgb(66, 66, 66)" stroke-width="1px" opacity="0.25"></line><line x1="31.11111111111111" y1="0" x2="31.11111111111111" y2="177" fill="rgb(0, 0, 0)" stroke="rgb(66, 66, 66)" stroke-width="1px" opacity="0.25"></line><line x1="62.22222222222222" y1="0" x2="62.22222222222222" y2="177" fill="rgb(0, 0, 0)" stroke="rgb(66, 66, 66)" stroke-width="1px" opacity="0.25"></line><line x1="93.33333333333333" y1="0" x2="93.33333333333333" y2="177" fill="rgb(0, 0, 0)" stroke="rgb(66, 66, 66)" stroke-width="1px" opacity="0.25"></line><line x1="124.44444444444444" y1="0" x2="124.44444444444444" y2="177" fill="rgb(0, 0, 0)" stroke="rgb(66, 66, 66)" stroke-width="1px" opacity="0.25"></line><line x1="155.55555555555557" y1="0" x2="155.55555555555557" y2="177" fill="rgb(0, 0, 0)" stroke="rgb(66, 66, 66)" stroke-width="1px" opacity="0.25"></line><line x1="186.66666666666666" y1="0" x2="186.66666666666666" y2="177" fill="rgb(0, 0, 0)" stroke="rgb(66, 66, 66)" stroke-width="1px" opacity="0.25"></line><line x1="217.77777777777777" y1="0" x2="217.77777777777777" y2="177" fill="rgb(0, 0, 0)" stroke="rgb(66, 66, 66)" stroke-width="1px" opacity="0.25"></line><line x1="248.88888888888889" y1="0" x2="248.88888888888889" y2="177" fill="rgb(0, 0, 0)" stroke="rgb(66, 66, 66)" stroke-width="1px" opacity="0.25"></line><line x1="280" y1="0" x2="280" y2="177" fill="rgb(0, 0, 0)" stroke="rgb(66, 66, 66)" stroke-width="1px" opacity="0.25"></line></g><g><line x1="0" y1="177" x2="280" y2="177" fill="rgb(0, 0, 0)" stroke="rgb(66, 66, 66)" stroke-width="1px" opacity="0.25"></line><line x1="0" y1="163.38461538461536" x2="280" y2="163.38461538461536" fill="rgb(0, 0, 0)" stroke="rgb(66, 66, 66)" stroke-width="1px" opacity="0.25"></line><line x1="0" y1="149.7692307692308" x2="280" y2="149.7692307692308" fill="rgb(0, 0, 0)" stroke="rgb(66, 66, 66)" stroke-width="1px" opacity="0.25"></line><line x1="0" y1="136.1538461538462" x2="280" y2="136.1538461538462" fill="rgb(0, 0, 0)" stroke="rgb(66, 66, 66)" stroke-width="1px" opacity="0.25"></line><line x1="0" y1="122.53846153846155" x2="280" y2="122.53846153846155" fill="rgb(0, 0, 0)" stroke="rgb(66, 66, 66)" stroke-width="1px" opacity="0.25"></line><line x1="0" y1="108.9230769230769" x2="280" y2="108.9230769230769" fill="rgb(0, 0, 0)" stroke="rgb(66, 66, 66)" stroke-width="1px" opacity="0.25"></line><line x1="0" y1="95.30769230769228" x2="280" y2="95.30769230769228" fill="rgb(0, 0, 0)" stroke="rgb(66, 66, 66)" stroke-width="1px" opacity="0.25"></line><line x1="0" y1="81.69230769230764" x2="280" y2="81.69230769230764" fill="rgb(0, 0, 0)" stroke="rgb(66, 66, 66)" stroke-width="1px" opacity="0.25"></line><line x1="0" y1="68.07692307692301" x2="280" y2="68.07692307692301" fill="rgb(0, 0, 0)" stroke="rgb(66, 66, 66)" stroke-width="1px" opacity="0.25"></line><line x1="0" y1="54.46153846153838" x2="280" y2="54.46153846153838" fill="rgb(0, 0, 0)" stroke="rgb(66, 66, 66)" stroke-width="1px" opacity="0.25"></line><line x1="0" y1="40.846153846153754" x2="280" y2="40.846153846153754" fill="rgb(0, 0, 0)" stroke="rgb(66, 66, 66)" stroke-width="1px" opacity="0.25"></line><line x1="0" y1="27.230769230769113" x2="280" y2="27.230769230769113" fill="rgb(0, 0, 0)" stroke="rgb(66, 66, 66)" stroke-width="1px" opacity="0.25"></line><line x1="0" y1="13.615384615384613" x2="280" y2="13.615384615384613" fill="rgb(0, 0, 0)" stroke="rgb(66, 66, 66)" stroke-width="1px" opacity="0.25"></line></g></g></g><g><g><line x1="0" y1="789.692307692308" x2="280" y2="789.692307692308" fill="rgb(0, 0, 0)" stroke="rgb(153, 153, 153)" stroke-width="1.5px"></line></g></g><g><g><line x1="-62.22222222222222" y1="0" x2="-62.22222222222222" y2="177" fill="rgb(0, 0, 0)" stroke="rgb(153, 153, 153)" stroke-width="1.5px"></line></g></g><g><g><g><g><g><path stroke="rgb(255, 112, 67)" stroke-width="2px" d="M31.39111111111111,16.621176811364933L31.49066666666667,32.51564740446892L31.565333333333335,48.0576093795722L31.695999999999998,66.78667522987094L31.78933333333333,80.92883385989826L32.007111111111115,89.36519438214982L32.013333333333335,93.64529245486379L32.019555555555556,96.38410319210278L32.032000000000004,99.08687052140363L32.05688888888889,98.70074821504768L32.11288888888889,92.76770767531467L32.23733333333333,87.8527249972389L32.31822222222222,86.044235676572L32.330666666666666,86.17021335275763L32.43022222222222,81.22510390440289L32.523555555555554,75.82938206416426L32.56711111111111,71.80020656237852L32.654222222222224,71.02488796748766L32.704,72.72347759453443L32.766222222222225,74.42434871262863L33.05866666666667,71.39785170240273L33.35111111111111,76.56324851693203L33.56888888888889,72.89937103829605L33.66222222222222,69.71666018666276L33.84888888888889,69.23279360174263L33.96088888888889,64.31337661910598L34.12266666666667,65.63348882319359L34.209777777777774,67.49386740817748L34.26577777777778,69.09338240422755L34.384,71.9465120294774L34.53955555555555,74.14041186038423L34.97511111111111,81.2062543956721L35.12444444444444,83.24554422225701L35.14933333333333,83.90314992965801L35.41688888888889,84.3005050402506L35.45422222222222,84.9379037123232L35.80266666666667,78.3706375243696L35.976888888888894,73.48110045887762L36.02044444444444,70.92146578579353L36.269333333333336,69.51572618156261L36.32533333333333,68.15195532859238L36.337777777777774,67.25695357961455L36.38133333333334,67.12903369622887L36.54311111111111,66.42853199646216L36.54933333333334,65.88198778883546L36.723555555555556,65.84751418742886L36.81688888888888,66.14430453855138L36.86666666666666,66.51026652787115L36.922666666666665,67.00206675389943L37.028444444444446,66.99437748531817L37.21511111111111,67.89777998228892L37.39555555555556,67.58617861330433L37.44533333333334,67.46917255400616L37.625777777777785,67.34277787750814L37.72533333333334,67.0294519581683L37.992888888888885,66.18407641253863L38.32266666666666,64.46866255137786L38.34133333333333,63.43159098750583L38.81422222222223,61.27365436702526L38.95733333333333,60.79887257591763L38.98844444444445,60.54484202746552L39.09422222222222,61.000819128152045L39.175111111111114,61.26226474771829L39.54222222222222,60.63284708586515L39.660444444444444,59.56808166313799L39.71644444444444,59.24536599558692L39.815999999999995,59.24770731373354L39.903111111111116,59.05346600200954L39.984,58.767698860086455L40.05244444444445,58.84908202826628L40.17688888888889,57.96220612068154L40.22044444444444,57.44423383658176L40.264,56.90358983021774L40.30133333333333,56.92040737273305L40.35111111111111,56.78052527603104L40.43822222222222,56.86250728903177L40.51288888888889,56.42779132815211L40.599999999999994,56.655833546104844L41.28444444444444,60.05083032521729L41.30933333333333,62.19024476131591L41.37155555555555,63.75202446780301L41.44,64.5106508405493L41.65777777777778,65.49994993819323L41.769777777777776,66.15653737507219L41.87555555555556,66.4214874128128L41.99377777777777,66.76896198463041L42.099555555555554,67.21730553843916L42.19911111111111,68.28077702916517L42.24266666666667,69.15423903261656L42.385777777777776,70.1393684323638L42.392,70.78735126847539L42.48533333333333,71.58889029728846L42.54755555555556,72.26227857974742L42.67822222222222,72.66205907876605L42.690666666666665,72.94672439520131L42.827555555555556,73.28788209618033L42.858666666666664,73.56899133856096L43.03911111111111,73.40051063847311L43.05155555555556,72.929879289578L43.08888888888889,72.2323814558174L43.24444444444444,70.26533427721455L43.29422222222222,67.09582625972334L43.41866666666667,64.31704130214568L43.611555555555555,62.69852766062094L43.623999999999995,61.82392783194702L43.67377777777777,61.391326435707626L43.717333333333336,61.23551289246332L43.81688888888889,61.70140317040038L43.82311111111111,62.035764990607305L43.83555555555556,62.25517735291774L44.10933333333333,62.38146860522501L44.30844444444444,63.087712678813986L44.42044444444445,63.95981883248692L44.48888888888889,64.51963429365398L44.538666666666664,64.95401208459404L44.62577777777778,64.92780800377768L44.632,64.85313527781263L44.65688888888889,64.93028989800148L45.01777777777777,65.76741232862294L45.167111111111105,66.45793064331667L45.18577777777778,66.7035711245553L45.559111111111115,66.67452658175777L45.80177777777777,66.77938272791268L45.82666666666666,67.01018784462623L45.95111111111112,67.47000835778607L46.41155555555555,68.2717786916173L46.44888888888889,68.73992117251333L46.46133333333333,68.96062284252727L46.83466666666667,68.58183846475615L47.400888888888886,67.12518187524043L47.432,66.34074949397258L47.50666666666667,65.99633325304295L47.6,66.14211917068147L47.824000000000005,66.73985471445441L47.91111111111111,67.07525353043611L47.96088888888889,67.13651837262796L47.96711111111111,67.11870931735065L48.57066666666667,66.98070946333752L48.583111111111116,66.91313404439661L48.589333333333336,66.88920913558005L48.64533333333333,67.02781328030291L48.832,67.52271878447996L48.84444444444445,67.54883490362958L48.888,66.70021430101274L48.98755555555556,66.44112615622082L49,66.34322769773968L49.04355555555556,66.4507894329514L49.04977777777778,66.55674748402248L49.31733333333334,67.38144960318995L49.41688888888889,67.95206872595945L49.47288888888889,68.23454853555646L49.60355555555556,68.21991418902425L49.96444444444444,68.71727495026417L50.03288888888889,69.19257470104046L50.21333333333334,69.68070451558933L50.26933333333333,69.79874419149833L50.46844444444445,70.53272615703338L50.623999999999995,70.72838728465531L50.69244444444445,70.8133223546892L50.94133333333333,71.09060571750096L50.99733333333334,71.10700311297695L51.40177777777778,70.86429025138735L51.62577777777778,70.83341431354971L52.31644444444445,70.48193005257455L52.55288888888889,69.39610181493796L52.74577777777778,68.17185228657809L52.90133333333333,67.1506990454276L53.044444444444444,66.57137763225957L53.07555555555556,66.08095371558623L53.150222222222226,65.4518903557367L53.30577777777778,64.5976238013725L53.82844444444444,63.51993976051287L54.13955555555555,63.42903957834186L54.30133333333334,63.5070077469323L54.413333333333334,63.67938260378688L54.6,63.846464728322886L54.88,64.41987437996006L55.041777777777774,65.06136587166122L55.284444444444446,65.92357622923456L55.321777777777775,66.46765080756681L55.44622222222222,67.06979197890362L55.70755555555556,67.50680960976185L55.84444444444445,67.38990108550522L55.91288888888889,67.37338254495411L56,67.42774540157104L56.18666666666667,67.81510355180163L56.373333333333335,68.32094255381986L56.39822222222222,68.64772092691932L56.43555555555555,68.95873449953443L56.448,69.09285222532958L56.516444444444446,69.372669586564L56.616,69.7364008755557L56.672,70.02491902710815L56.80888888888889,70.40679050969334L56.83377777777778,70.72680589755419L56.995555555555555,71.2317774789152L57.09511111111111,71.71229295389485L57.455999999999996,72.00634794324012L57.46222222222222,72.20342651860616L57.51822222222222,72.44525499992052L57.55555555555555,72.47264630339802L57.64888888888889,72.49349586397383L57.68,72.4540021066435L57.72977777777778,72.34191289763896L57.80444444444445,72.20860000292892L57.97866666666667,72.36889307770625L58.159111111111116,72.62792880257982L58.39555555555555,72.86862687788248L58.48266666666667,73.01009171686907L58.650666666666666,73.29376549870715L58.75644444444445,73.6766257522483L58.88088888888889,74.11578418976407L59.129777777777775,74.943461973925L59.25422222222222,75.69602841198324L59.37866666666666,76.29718381935749L59.44711111111111,76.6837165025872L59.49066666666667,76.99990644310088L59.94488888888889,76.53077964108923L60.06933333333333,76.23680584136463L60.312000000000005,76.2989169847734L60.330666666666666,76.37779945040198L60.60444444444444,76.65284709965161L60.64177777777778,76.88393505850871L60.660444444444444,77.07235147664767L60.766222222222225,77.37666511325992L60.940444444444445,77.42340147186077L61.13955555555555,77.66656635355659L61.18933333333333,77.7552354702455L61.31377777777777,77.88735110575568L61.44444444444444,77.82710050215628L61.61866666666666,77.62912903139862L61.64355555555555,77.54254806263096L61.75555555555556,77.62736022972007L61.92977777777778,77.84737250004281L62.147555555555556,78.28240895928006L62.352888888888884,78.6469833596825L62.40888888888889,78.9072463946875L62.41511111111111,79.07872609397704L62.52088888888889,79.19875364180352L62.831999999999994,78.83283063667879L63.26133333333334,79.25413386990117L63.29866666666667,79.5537903696773L63.348444444444446,79.7476401451744L63.46666666666666,80.03310744214846L63.49155555555555,80.26275378889048L63.553777777777775,80.50662612710572L63.88355555555555,81.15509812158989L64.00177777777778,81.71794829808485L64.05777777777777,82.17469511516113L64.25688888888888,82.7311267206916L64.43111111111111,83.31195358656014L64.80444444444444,83.75156943563681L64.82933333333334,84.04624239450828L64.94755555555555,84.31033542981507L65.12177777777778,84.59230766388082L65.28355555555555,84.92399380665569L65.60711111111111,85.44015538820862L65.72533333333332,85.69284975605738L66.37244444444444,86.08851273472848L66.39111111111112,86.3492179554263L66.55911111111111,86.98419009144608L66.66488888888888,87.52306662726467L66.94488888888888,88.086121513048L67.05688888888889,88.57035629000984L67.13155555555555,88.82898739695881L67.20622222222222,88.92424193545693L67.34933333333333,88.74367831386895L67.38666666666667,88.65186309864475L67.77244444444445,89.12843016140947L67.94044444444444,89.78056978243711L68.12088888888889,90.27881454860042L68.1768888888889,90.6074313166752L68.2328888888889,90.79398643218175L68.35111111111111,90.84654722312547L68.45066666666666,90.97355328252361L68.45688888888888,91.06413740985943L68.50666666666667,91.2101594631276L68.58133333333333,91.37964086678032L69.048,92.02149084178453L69.25955555555555,92.62672298072938L69.6391111111111,93.36641689995115L69.776,94.04687836315512L69.81333333333333,94.43129596027114L69.83200000000001,94.70320522045218L69.85066666666667,94.90325962319578L69.95022222222222,95.11837231039532L69.98133333333334,95.36793740618862L70.27377777777778,95.81486247153123L70.37955555555556,95.73882709660144L70.672,95.4776932658297L70.784,95.42200102531005L71.008,95.25656432720335L71.49955555555556,95.41475530980179L71.848,95.69067581742347L71.95377777777779,95.98662639546457L72.02222222222223,96.16844921274597L72.04711111111111,96.29877279379144L72.1528888888889,96.38982173860818L72.32711111111111,96.47506240046478L72.42044444444444,96.49111580090977L72.59466666666665,96.47318793722503L72.67555555555555,96.44379825686069L72.7751111111111,96.34108257790275L73.03644444444444,96.62153358023821L73.23555555555555,96.86793926857936L73.25422222222221,96.93654390002185L73.46577777777777,97.22363581002844L73.74577777777777,97.03514512256206L73.808,96.93406150450177L73.82666666666667,96.87451502828797L73.87022222222222,96.82314064820784L73.95111111111112,96.86603632861025L73.98222222222223,96.9298836629288L74.05688888888889,96.98273486324935L74.21244444444446,97.02837161264706L74.256,97.11275624336857L74.31200000000001,97.20162679430454L74.46133333333334,97.31338001663693L74.47377777777777,97.40744000667684L74.57955555555556,97.48172988429741L74.76622222222223,97.73623302035868L75.01511111111111,98.22832099836297L75.10222222222221,98.59820301859932L75.376,99.03859884274995L75.55022222222223,99.43417599729791L75.656,99.57978578994702L75.75555555555556,99.67958446084093L75.83644444444444,99.7094366773285L75.88622222222222,99.62723641265407L75.89866666666667,99.49942408923764L75.98577777777777,99.07140472761394L76.06666666666666,98.79927123235314L76.09155555555554,98.64115253063646L76.11644444444444,98.585624776732L76.19111111111111,98.62982644080492L76.50844444444445,98.91522875139891L76.60177777777777,99.23157351898557L76.72622222222222,99.57274885082994L76.75111111111111,99.82007613932245L76.75733333333334,99.97639314441359L76.78222222222222,100.1132274377392L76.79466666666667,100.23872918167751L76.98133333333332,100.42965847053325L77.06844444444445,100.61079479885868L77.0808888888889,100.73288323935448L77.24266666666666,101.0478129643365L77.39822222222223,101.3625919862717L77.46666666666667,101.65179822524549L77.64088888888888,101.80493607972308L77.65955555555556,101.92272315442798L78.38133333333333,102.02520777365936L78.59288888888888,102.23631408973738L78.76711111111112,102.45883700349452L78.77955555555556,102.60049861499014L78.8231111111111,102.68351542388864L78.87288888888888,102.67323907552367L78.99111111111111,102.77289810382253L79.43288888888888,102.69616000369778L79.51377777777778,102.68679875901229L79.68177777777777,102.70549575549899L79.73777777777778,102.72823782371229L79.77511111111112,102.77340328458989L79.79377777777778,102.81579197779648L79.83111111111111,102.8901123731685L79.85600000000001,102.96106343490158L80.15466666666667,103.38375948451547L80.22933333333333,103.65227699168541L80.24177777777777,103.8049150166806L80.25422222222223,103.90286030655936L80.33511111111112,103.96094578674939L80.35377777777778,103.99044090978438L80.6648888888889,104.25491111651652L80.81422222222223,104.65413374501138L80.87644444444445,104.98595566949916L81.02577777777778,105.14398489191973L81.06311111111111,105.15339593856751L81.11288888888889,105.11853048159524L81.19377777777778,105.06472759998766L81.28088888888888,105.06399855257916L81.30577777777778,105.09676934762362L81.33066666666666,105.07825697536022L81.37422222222223,105.09633253628085L81.38666666666667,105.13405608304784L81.46755555555556,105.15532682363336L81.54222222222222,105.26193577248944L81.68533333333333,105.3855006514091L81.77866666666667,105.53842389783166L81.93422222222222,105.6156350459557L81.94666666666667,105.6796208487873L82.08977777777777,105.77511229638876L82.32,105.85496798149445L82.46933333333332,105.9667009110139L82.52533333333334,106.0480562372093L82.57511111111111,106.1265393413035L82.6,106.20174095502293L82.78044444444444,106.46302376119925L82.89866666666666,106.62336422162433L82.94844444444443,106.69428090638536L82.95466666666667,106.72744951295218L82.96088888888889,106.76280240160484L82.96711111111112,106.7738536519497L82.99822222222221,106.74016708683494L83.17244444444444,106.80425793994841L83.19111111111111,106.83709659388511L83.24711111111112,106.88098368311897L83.37777777777777,107.04771238494138L83.48355555555555,107.20829050223037L83.52088888888889,107.3266788034439L83.73866666666666,107.35684262153922L83.75733333333332,107.39854050035038L84.29244444444444,107.63631259689501L84.31733333333332,107.79407050186262L84.8648888888889,107.66980417034262L84.97688888888888,107.5905049768759L85.02044444444444,107.5674988969461L85.1448888888889,107.30270210722702L85.66755555555555,106.66459333605722L85.74222222222222,106.36200562632686L85.76088888888889,106.16707881859432L85.77955555555555,106.03392439229187L85.96622222222221,106.03960053134776L86.02222222222223,105.95824896010743L86.05955555555555,105.93164175623609L86.07822222222222,105.92970084793812L86.10311111111112,105.99530982761048L86.27733333333333,105.89434369034505L86.68177777777778,105.86304437708404L86.80622222222222,105.86513760213214L86.81866666666666,105.86879569604497L86.856,105.83356232005295L86.89333333333335,105.86802902645935L87.12355555555555,105.9421733162733L87.17955555555555,106.01064901739414L87.21688888888889,106.03397793928971L87.23555555555555,106.09725201115349L87.34133333333334,106.05373782185838L87.416,105.97439227355704L87.65244444444446,105.92788863919857L87.6648888888889,105.89235798104671L87.92,105.58946761103456L88.57333333333334,105.34381648575152L88.67911111111111,105.27920290725667L88.77866666666667,105.27539591040258L88.90933333333334,105.32160935245962L88.92177777777778,105.3625168299487L89.4071111111111,105.28328156033638L89.47555555555554,105.1634159391995L89.7928888888889,104.97223262409238L89.86133333333333,104.86933865980846L89.88,104.81010182494161L89.89244444444445,104.76482124205964L89.99822222222222,104.74826783766886L90.30311111111112,104.7198976025201L90.38399999999999,104.72371581282901L90.52711111111111,104.86526703106757L90.56444444444443,104.8346993659442L90.65155555555556,104.83853004413642L90.71377777777776,104.88052899584926L90.81955555555555,104.92588702453777L90.90044444444445,104.91612807190265L90.95022222222222,104.86482645116676L90.95644444444444,104.8316108582348L91.07466666666666,104.82940553964606L91.1928888888889,104.89014894019579L91.20533333333333,104.9328925321942L91.31733333333334,105.00869186949633L91.49155555555556,105.1197439170869L91.52888888888889,105.22377091637439L91.55377777777777,105.31579210111053L91.62844444444444,105.42310569044766L91.67200000000001,105.4633099471783L91.76533333333333,105.4316959227888L91.93955555555556,105.42642630611475L91.96444444444444,105.44585781426153L92.10133333333334,105.46027595570546L92.23200000000001,105.56511058074754L92.2631111111111,105.63684091275141L92.28177777777779,105.70938671229787L92.36266666666666,105.77005392027844L92.44977777777778,105.80908363519644L92.568,105.95082401998268L92.57422222222222,106.04709996671707L92.64888888888889,106.10924785164043L92.66133333333335,106.14536796475905L92.97866666666667,106.28247350548365L93.11555555555556,106.43498374646924L93.13422222222222,106.54752501209812L186.82222222222222,81.7257621896648L186.85955555555557,79.99929441654217L186.95911111111113,109.26122698479698L186.96533333333332,124.66118292479307L187.27644444444445,146.3394215740111L187.33866666666668,161.70000977647072L187.62488888888888,146.88756738227735L187.6311111111111,138.0484859703081L187.78666666666666,124.34807974400547L187.91733333333335,112.84561050943755L188.40266666666665,113.36808215341146L188.44,115.54377389132759L188.4711111111111,118.30733183821218L188.78844444444445,124.48146038486513L188.9128888888889,129.1161248482381L188.93155555555555,132.08002321794618L188.9502222222222,134.47751869209677L189.224,138.90936563878097L189.35466666666667,140.7910670225872L189.6968888888889,143.39085832194957L189.87733333333335,140.70483612025436L190.09511111111112,136.4196361922578L190.15733333333336,133.66291700007196L190.17600000000002,131.94722466313922L190.19466666666668,131.25691943369154L190.2008888888889,130.16996950049764L190.21955555555556,129.28326443333546L190.28177777777776,128.84393551051093L190.33155555555555,128.94661869420145L190.47466666666668,128.16447029644522L190.5928888888889,127.91183001983416L190.68622222222223,129.08127093198078L191.1031111111111,128.52113660228633L191.11555555555557,128.19768356941347L191.28977777777777,127.91440725491995L191.33955555555556,128.03946877725542L191.45777777777778,129.02657944958906L191.6071111111111,131.12099046478798L191.61955555555556,132.27582124499713L191.76888888888888,132.31753988594602L191.84977777777777,131.73935326700047L191.96177777777777,132.2817432375781L192.06755555555554,131.32405106744594L192.2231111111111,130.72267117077502L192.34755555555554,131.04774074814276L192.45333333333335,131.62951384406838L192.81422222222224,135.252071028251L192.87644444444445,137.76247566062122L192.96977777777778,139.73972012012408L193.12533333333332,140.7836901895448L193.26844444444444,140.08627168572488L193.3368888888889,139.72789078633375L193.368,139.174157844069L193.44266666666667,138.12010179570413L193.52977777777778,138.14433400536694L193.62311111111111,138.27779642672107L193.65422222222222,138.07237405002118L193.7351111111111,137.2140924671338L194.04,135.2428958480523L194.10222222222222,134.67399439465342L194.13333333333333,133.93988431429287L194.58133333333333,134.7317906967312L194.8488888888889,136.19552029173934L194.97333333333333,137.41765630842067L195.12266666666665,138.61476558346504L195.2222222222222,138.9959011337786L195.41511111111112,138.84320727954085L195.45866666666666,138.80888570253992L195.46488888888888,138.73206925381345L195.56444444444443,138.38476813750017L195.67644444444446,138.24733230880366L195.8071111111111,138.19653710876474L195.8631111111111,137.9355176591L195.9813333333333,137.30647599853265L196.0871111111111,135.46125077011195L196.12444444444444,134.23916908430417L196.1368888888889,133.5089876946374L196.1928888888889,133.00123248400746L196.32355555555554,132.4920550056292L196.56622222222222,132.4744018145887L196.8897777777778,133.0885497486148L197.0702222222222,133.3505319779754L197.3688888888889,135.05779548944568L197.47466666666668,135.34956005995085L197.49955555555553,135.425286286244L197.58044444444442,135.3348864294565L197.67999999999998,135.2336745707218L197.8231111111111,133.92064359841117L197.82933333333332,132.95509771922264L197.97866666666664,131.7761718573238L198.29600000000002,131.42740347681982L198.31466666666668,131.18715784507583L198.39555555555557,130.44844368065716L198.45155555555556,129.9517996084457L198.49511111111113,129.5166304158841L198.61955555555554,129.6040367081522L198.70044444444443,129.42881100605027L199.21066666666667,126.63335501963871L199.25422222222224,124.71742369651557L199.304,123.42965961280093L199.31644444444444,122.53634137106587L199.62133333333333,121.65383900702199L199.68977777777778,120.67937011695946L199.95111111111112,119.84840257410897L200.01333333333335,119.05770005115221L200.26222222222222,118.99909548634224L200.35555555555555,119.36304819985585L200.49866666666665,119.79048880487984L200.5048888888889,120.03378998644266L200.57333333333335,120.44095678159476L201.00266666666667,120.68749670953719L201.28266666666667,121.36607054839925L201.3262222222222,121.74234386389764L201.38844444444445,121.9959761424106L201.58755555555555,122.31401808813047L201.64977777777779,122.69599342566863L201.6746666666667,123.08704842919923L201.69955555555555,123.44493815134703L201.73688888888887,123.61084972840074L201.7928888888889,123.89731060508572L201.86755555555555,124.17041865108922L201.94222222222223,124.65662723162573L202.42755555555556,125.53897508012528L202.47111111111113,126.1741761649364L202.6391111111111,126.34072559659887L202.65155555555557,126.39709177962064L202.65777777777777,126.50179140731211L202.70755555555556,126.533366887633L202.98133333333334,126.35580584064041L202.99377777777778,126.2607281595532L203.38577777777778,126.46895779953937L203.4791111111111,126.57201646072357L203.58488888888888,126.38284228486964L203.66577777777778,126.34453509090534L203.68444444444444,126.4044090252181L203.95200000000003,126.61325636384024L203.9831111111111,126.67513478783582L204.08266666666665,126.90419109089638L204.0888888888889,126.96868364283904L204.1697777777778,127.19697118699688L204.21955555555556,127.1045213092757L204.22577777777778,127.08967708322689L204.3688888888889,127.06663351794967L204.41244444444445,127.10239248277205L204.56177777777776,126.9688112288342L204.6488888888889,126.64102911098705L204.68622222222223,126.39183696089839L204.7048888888889,126.20322166576861L204.97244444444445,126.76182920521649L205.0222222222222,127.22776531082847L205.07822222222222,127.49453710121924L205.22133333333332,128.13675241738056L205.28355555555555,128.5751401029658L205.37688888888889,128.9791372407134L205.38933333333335,129.22390522063935L205.47022222222225,129.37953064236055L205.4888888888889,129.5451167391397L205.61955555555556,129.86246431592133L205.75022222222225,129.47577042093616L205.80622222222223,129.43203140187245L206.01155555555556,129.66869454179533L206.0551111111111,129.83273385658921L206.08622222222223,129.80356710096314L206.19822222222223,129.91138507963205L206.44088888888888,129.18365558960474L206.51555555555555,129.02709663680866L206.5591111111111,128.9577347012812L206.6088888888889,129.01355105199227L206.64,128.97830341057204L206.64622222222224,128.8973118540649L206.70222222222222,128.946750971909L206.83288888888887,128.8533687230286L207.00088888888888,129.1043125559385L207.00711111111113,129.29143062464752L207.38044444444444,129.2296261008064L207.41777777777776,129.26115099192236L207.52977777777778,129.32794679623728L207.9466666666667,129.5954016018302L208.00266666666667,129.7467852353549L208.152,129.96679637869255L208.208,129.98048050885967L208.51288888888888,130.07315608717494L208.6311111111111,130.02710791328659L208.66844444444445,130.10484938377985L208.69955555555555,130.18312810164832L208.73688888888887,130.1906869420307L208.8488888888889,130.29750876846526L208.95466666666667,130.63372751194427L208.992,130.95895894011005L209.11022222222223,131.16620597624856L209.43377777777778,131.2564695110656L209.49599999999998,131.38877894969892L209.58311111111112,131.56798405298701L209.65777777777777,131.550951930669L209.7697777777778,131.53466233685523L209.93155555555555,131.8077265583432L210.04355555555557,132.205028965466L210.07466666666664,132.54663831853435L210.09955555555555,132.86737825009752L210.13688888888888,133.040475091538L210.3297777777778,133.3321885134447L210.42933333333335,133.13840402389346L210.43555555555554,132.89692891374105L210.49155555555555,132.77517274230865L210.54133333333334,132.78689252492643L210.728,133.20386579267756L210.86488888888888,133.62883927373866L210.896,133.87291626257806L210.97066666666666,133.91420308149793L211.18222222222224,133.6455060189321L211.18844444444446,133.44595062406984L211.26311111111113,133.22557017607767L211.46844444444446,133.17485300130227L211.4933333333333,133.18993386880504L211.54933333333332,133.197619001832L211.5617777777778,133.3104083854402L211.79822222222222,133.5589905488481L211.83555555555554,133.7691514363833L211.87911111111111,134.05596538288006L211.91022222222222,134.3550922479693L212.072,134.51781817804869L212.08444444444444,134.70975470309267L212.296,134.75656870555076L212.56355555555555,135.28430615487719L212.62577777777778,135.65576004711448L212.75644444444444,136.06851654990797L213.04266666666666,136.71033550898645L213.24800000000002,136.97851640848262L213.36,137.34662738272013L213.4968888888889,137.64790136666022L213.54666666666668,137.762362925668L213.59644444444444,137.795543094322L214.31199999999998,137.2347617469377L214.3431111111111,137.04748648216133L214.36177777777777,136.90162094534705L214.49866666666668,136.81242985052168L214.71644444444445,136.96215731216842L214.74755555555555,136.9536351213427L214.77866666666668,136.6512708757677L214.90311111111112,136.36901034770867L214.94044444444444,136.20788304813087L215.13955555555555,135.85264997229936L215.152,135.6343325005575L215.5751111111111,135.3862367719222L215.9857777777778,134.89617538840736L215.992,134.5771268904599L216.0791111111111,134.28555373551808L216.17866666666666,133.4572388569349L216.40888888888887,132.76398705664894L216.56444444444446,132.18413732506085L216.72,131.78782723075807L216.96888888888887,130.91947446715216L217.26133333333334,130.21223057227317L217.2862222222222,129.786634463494L217.29866666666666,129.49063486683937L217.3671111111111,129.30548778532628L217.70933333333332,129.07474605471492L217.74044444444445,129.00224677003246L217.7902222222222,128.9553874229462L217.83377777777778,128.85718720617626L217.9271111111111,128.7327920157247L217.952,128.6684452307267L217.95822222222222,128.65238174546937L217.97688888888888,128.661766155747L218.35644444444443,128.21481708354378L218.44977777777777,127.78985808063754L218.4808888888889,127.4996131433889L218.54311111111113,127.22845466989732L218.75466666666668,126.85880061331153L218.83555555555554,126.59571701584227L218.8417777777778,126.46271621716642L218.85422222222223,126.42831329470607L219.02844444444443,126.41104754830985L219.10933333333332,126.49847869017151L219.19644444444444,126.63663601655205L219.28977777777777,126.66630960845937L219.6008888888889,126.7595058447911L219.6071111111111,126.8155696638195L219.61333333333334,126.84007001299575L219.62577777777776,126.8095836661989L219.7937777777778,126.5309010812665L219.8062222222222,126.40634608129956L220.14222222222224,126.56394079932059L220.26666666666665,126.50105883841806L220.6026666666667,126.2500569069139L220.65866666666668,126.11341423882325L221.0568888888889,126.18388457308026L221.11911111111112,126.23859956893901L221.15022222222223,126.28009581540022L221.21866666666668,126.31215134751886L221.27466666666666,126.37952522928768L221.57333333333332,126.90023525789987L221.79733333333334,127.387174871822L221.96533333333332,127.5695210252531L222.22666666666666,127.89927810249995L222.35733333333334,128.17107988854443L222.40088888888891,128.3421302845765L222.51288888888888,128.2619692157734L222.66222222222223,128.1550034510327L222.6871111111111,128.08249759011096L223.11644444444445,128.1208297836433L223.12266666666665,128.14108609401006L223.61422222222222,128.2549583243208L223.6702222222222,128.32034388711546L223.78844444444445,128.34090980103218L224.15555555555557,128.16941927155068L224.40444444444444,128.12622184828734L224.616,127.93051296132602L224.672,127.74149355592704L224.74666666666667,127.6180188146604L224.7902222222222,127.48120191526337L225.10755555555556,127.48395018431543L225.2008888888889,127.51526905412348L225.33777777777777,127.30617989810304L225.44977777777777,127.17350369703581L225.64888888888888,127.07213246921098L225.7422222222222,127.04464780243188L225.77955555555556,127.04253749406118L225.91022222222222,127.2464286623667L226.12177777777777,127.49792809576951L226.20888888888888,127.67669604502504L226.25244444444445,127.80924440607248L226.25866666666667,127.91346047447402L226.28977777777777,127.97959335384073L226.464,128.27448623207204L226.71911111111112,127.94498843539259L226.9928888888889,127.85959068520734L227.17333333333335,127.91305694698842L227.2728888888889,127.94029992468275L227.32888888888888,127.9829883050059L227.33511111111113,128.02189436107756L227.53422222222224,128.0406446773953L227.752,127.86830825140342L227.9262222222222,127.67641605638242L227.96977777777778,127.64720661187913L227.976,127.60030319125917L228.02577777777776,127.43351761735818L228.0631111111111,127.36001609796986L228.08177777777777,127.32665997810139L228.15644444444445,127.28752641992878L228.16266666666667,127.26365674574673L228.2,127.23154598085398L228.2062222222222,127.24420551194963L228.256,127.22982472298001L228.31822222222223,127.13356614274562L228.38044444444444,127.08102108245458L228.3928888888889,127.066357850877L228.52977777777778,127.13368237926493L228.63555555555556,127.20595439391917L228.70399999999998,127.22732486428141L229.05244444444446,127.24870077982189L229.096,127.20457244047307L229.1271111111111,127.1569142385969L229.2328888888889,127.02814279969124L229.31377777777777,127.02602855548612L229.53155555555557,127.22089303567297L229.69955555555555,127.29144031884383L229.7368888888889,127.27069578724064L229.7991111111111,127.15802385808894L229.83644444444445,127.0514830035541L230.2222222222222,126.92089858180492L230.42755555555556,126.83603937664432L230.46488888888888,126.82222746982225L230.63288888888889,127.06704347191524L230.69511111111112,127.32097522073413L230.8008888888889,127.648075098026L230.86933333333334,127.93384790443307L231.10577777777777,128.10354243072092L231.13066666666668,128.23327612811732L231.2613333333333,128.30889272650725L231.45422222222223,128.43241400328432L231.64711111111112,128.53994599328274L231.70933333333335,128.6435002691452L231.7902222222222,128.6828285560689L231.83999999999997,128.6880847205284L231.97066666666666,128.61175617559286L232.44355555555555,128.4345544653608L232.53066666666666,128.28176464946065L232.64266666666666,128.1331206404443L232.77955555555553,127.95610935854268L232.86044444444443,127.8575148361351L232.97244444444445,127.95050567253978L233.04088888888887,127.99816854194452L233.09688888888888,128.02850295953726L233.30844444444443,128.1088675866155L233.53244444444445,128.16680861402094L233.75022222222222,128.06224801519792L234.5591111111111,127.95580210269895L234.57155555555556,127.91313198426982L234.59022222222222,127.90165071205683L234.73333333333335,127.91321637204655L234.7457777777778,127.92812509244582L234.93866666666665,127.85221568519181L235.312,127.98769218970537L235.3182222222222,128.08931528891026L235.43644444444442,128.1076832898505L235.4488888888889,128.10145074653906L235.592,128.2828235318421L235.63555555555553,128.31807297180274L235.64177777777778,128.3375021706326L236.27644444444442,128.10667148908266L236.4008888888889,127.88684052496865L236.60622222222221,127.8388065069942L236.63733333333332,127.82378227898883L236.73688888888887,127.77347657866767L236.91733333333332,127.80318482253982L237.05422222222225,127.92058574692211L237.18488888888888,128.01100642037636L237.30311111111112,127.98764312321373L237.44622222222222,127.95315810199317L237.45244444444447,127.94957435590698L237.5271111111111,127.82796539619099L237.70133333333334,127.73743829122361L237.78222222222223,127.61793912231252L237.78844444444445,127.53268690023567L237.86933333333334,127.36793617490557L237.888,127.2523030891268L238,127.17125329010867L238.01244444444447,127.14029875545842L238.03111111111113,127.1243067323881L238.1431111111111,126.97709053762296L238.51022222222224,127.00015282360323L238.59733333333332,127.10627854258229L238.92711111111112,127.15331740061842L238.99555555555554,127.22447119008817L239.12,127.20866764878639L239.15111111111113,127.20368145651096L239.176,127.1734544532593L239.27555555555554,127.10107490678132L239.43111111111114,127.06944697287153L239.66133333333332,126.97311420414269L239.67377777777776,126.94220898392311L239.68622222222223,126.9606720832461L239.74844444444446,126.98768859165055L239.87911111111111,126.90550736727297L239.9848888888889,126.93076294286695L240.06577777777778,126.92359893372766L240.17155555555556,126.89107516135824L240.2088888888889,126.85443740048714L240.2151111111111,126.83846014117427L240.25244444444445,126.88258151360563L240.3706666666667,126.94737526358396L240.38933333333335,126.94742743215015L240.61955555555556,127.1521940857327L240.70666666666668,127.22999736800577L240.744,127.29696784145656L240.78133333333332,127.36742057362491L240.90577777777779,127.42431616667183L240.92444444444445,127.47177901198435L240.98044444444443,127.42957157093261L241.20444444444445,127.54412416887914L241.75199999999998,127.6994308322871L242.00711111111113,127.89465789048784L242.0257777777778,128.00901865804923L242.05066666666667,128.12421752396983L242.08800000000002,128.235407085597L242.1751111111111,128.27274306865536L242.21866666666665,128.28865233718255L242.27466666666666,128.33492820609794L242.33066666666667,128.43711196043836L242.37422222222222,128.54480984878705L242.38666666666668,128.60421849394672L242.4551111111111,128.58383494815587L242.48622222222224,128.5264344951821L242.64177777777778,128.53007168786831L242.65422222222222,128.55276973881283L242.71644444444445,128.54799906927502L242.7848888888889,128.5818182829417L242.80355555555556,128.61838930682114L243.03377777777777,128.75290877262677L243.32622222222224,128.9036076758087L243.38844444444445,128.9847592290509L243.5066666666667,129.08668719572054L243.768,128.98660717604204L243.9111111111111,128.95725161321775L243.93599999999998,128.95442453730183L244.09777777777776,128.96016199964978L244.76355555555557,128.61874859998915L244.92533333333336,128.28676467818198L245.06222222222223,128.03302259530852L245.3048888888889,127.96558329266814L245.46044444444445,128.02411138022524L245.48533333333333,128.06599647772296L245.54755555555556,128.06806356477549L245.55377777777778,128.0689142777285L245.58488888888888,127.95598762144894L245.62844444444445,127.8529133997666L245.63466666666665,127.78868293867654L245.69688888888888,127.77970095477647L245.93955555555556,127.86858026982638L245.952,127.93492496307853L246.13866666666667,128.04595254377676L246.38133333333334,128.20401343781674L246.4,128.30029451573174L246.40622222222223,128.35713800669436L246.68622222222223,128.35564994970164L246.80444444444444,128.3682449130231L246.82933333333332,128.38755299258315L246.95377777777776,128.46375266813553L247.00977777777777,128.53958061353197L247.0533333333333,128.5722712769901L247.23377777777776,128.57067201519172L247.44533333333334,128.70606743638066L247.66933333333333,128.78357160434197L247.92444444444445,128.9133868183016L248.20444444444445,129.08408367977304L248.2542222222222,129.13983823725584L248.34133333333335,129.13539204611087L248.56533333333334,128.9027013874871L248.584,128.78348911202278L248.64622222222224,128.65229731392506L248.85777777777778,128.6908335578861L248.88888888888889,128.71580561583545" style="fill: none;" fill="none"></path></g></g></g></g><g opacity="0.2"><g><g><g><path stroke="rgb(255, 112, 67)" stroke-width="2px" d="M31.39111111111111,16.621176811364933L31.49066666666667,42.05232976033133L31.565333333333335,62.977892875671344L31.695999999999998,88.81205666982208L31.78933333333333,99.39283616726213L32.007111111111115,101.03571807421169L32.013333333333335,99.76590118041403L32.019555555555556,100.37731553958011L32.032000000000004,103.07292734659633L32.05688888888889,98.12740159034728L32.11288888888889,83.92195910673873L32.23733333333333,80.50699809881354L32.31822222222222,83.33740672698386L32.330666666666666,86.35893306365378L32.43022222222222,73.81325252239519L32.523555555555554,67.73960478489214L32.56711111111111,65.75814832173857L32.654222222222224,69.86210692845854L32.704,75.27110327207122L32.766222222222225,76.97549992341258L33.05866666666667,66.85827216735251L33.35111111111111,84.31117376914389L33.56888888888889,67.40362715721129L33.66222222222222,64.9426316114572L33.84888888888889,68.50699716347911L33.96088888888889,56.934272124217074L34.12266666666667,67.61365375151999L34.209777777777774,70.28443242953371L34.26577777777778,71.4926534249232L34.384,76.22620489047121L34.53955555555555,77.43126087922313L34.97511111111111,91.8050167927375L35.12444444444444,86.30447871868425L35.14933333333333,84.88955844365633L35.41688888888889,84.89653768906224L35.45422222222222,85.89400170399591L35.80266666666667,68.51973834404575L35.976888888888894,66.14679490602931L36.02044444444444,67.08201379042403L36.269333333333336,67.40711677991423L36.32533333333333,66.10629905187163L36.337777777777774,65.91445095722489L36.38133333333334,66.93715387124278L36.54311111111111,65.37777944711536L36.54933333333334,65.06217147753786L36.723555555555556,65.79580378532408L36.81688888888888,66.58949006520781L36.86666666666666,67.05920951183023L36.922666666666665,67.73976709292482L37.028444444444446,66.98284358244673L37.21511111111111,69.25288372773387L37.39555555555556,67.1187765598297L37.44533333333334,67.2936634650597L37.625777777777785,67.15318586276125L37.72533333333334,66.55946307915904L37.992888888888885,64.91601309409506L38.32266666666666,61.895541759637666L38.34133333333333,61.875983641697786L38.81422222222223,58.03674943630509L38.95733333333333,60.08669988925638L38.98844444444445,60.163796204787005L39.09422222222222,61.68478477918181L39.175111111111114,61.65443317706766L39.54222222222222,59.68872059308562L39.660444444444444,57.970933529046846L39.71644444444444,58.76129249426032L39.815999999999995,59.25121929095339L39.903111111111116,58.762104034423785L39.984,58.339048147201495L40.05244444444445,58.97115678053633L40.17688888888889,56.63189225930431L40.22044444444444,56.66727541043204L40.264,56.09262382067165L40.30133333333333,56.9456336865058L40.35111111111111,56.57070213097789L40.43822222222222,56.98548030853267L40.51288888888889,55.77571738683257L40.599999999999994,56.99789687303394L41.28444444444444,65.1433254938859L41.30933333333333,65.39936641546393L41.37155555555555,66.09469402753386L41.44,65.64859039966873L41.65777777777778,66.98389858465926L41.769777777777776,67.14141853039078L41.87555555555556,66.81891246942371L41.99377777777777,67.29017384235672L42.099555555555554,67.88982086915233L42.19911111111111,69.87598426525408L42.24266666666667,70.46443203779364L42.385777777777776,71.61706253198474L42.392,71.75932552264284L42.48533333333333,72.79119884050807L42.54755555555556,73.27236100343555L42.67822222222222,73.26172982729396L42.690666666666665,73.37372236985424L42.827555555555556,73.79961864764871L42.858666666666664,73.99065520213198L43.03911111111111,73.14778958834133L43.05155555555556,72.22393226623534L43.08888888888889,71.18613470517668L43.24444444444444,67.31476350931018L43.29422222222222,62.34156423348644L43.41866666666667,60.148863865778964L43.611555555555555,60.2707571983337L43.623999999999995,60.51202808893642L43.67377777777777,60.74242434134848L43.717333333333336,61.001792577596774L43.81688888888889,62.40023858730606L43.82311111111111,62.53730772091788L43.83555555555556,62.584295896383395L44.10933333333333,62.570905483685976L44.30844444444444,64.14707878919745L44.42044444444445,65.26797806299648L44.48888888888889,65.35935748540435L44.538666666666664,65.60557877100429L44.62577777777778,64.88850188255309L44.632,64.74112618886504L44.65688888888889,65.0460218282846L45.01777777777777,67.02309597455535L45.167111111111105,67.49370811535758L45.18577777777778,67.07203184641322L45.559111111111115,66.63095976756166L45.80177777777777,66.93666694714469L45.82666666666666,67.35639551969672L45.95111111111112,68.1597391275259L46.41155555555555,69.474434192364L46.44888888888889,69.44213489385749L46.46133333333333,69.29167534754824L46.83466666666667,68.01366189809943L47.400888888888886,64.94019699096678L47.432,65.16410092207099L47.50666666666667,65.47970889164847L47.6,66.36079804713907L47.824000000000005,67.63645803011379L47.91111111111111,67.57835175440859L47.96088888888889,67.22841563591587L47.96711111111111,67.09199573443483L48.57066666666667,66.77370968231784L48.583111111111116,66.8117709159851L48.589333333333336,66.85332177235526L48.64533333333333,67.2357194973872L48.832,68.26507704074564L48.84444444444445,67.588009082354L48.888,65.42728339708766L48.98755555555556,66.05249393903289L49,66.19638001001796L49.04355555555556,66.61213203576892L49.04977777777778,66.715684560629L49.31733333333334,68.61850278194132L49.41688888888889,68.80799741011397L49.47288888888889,68.65826824995185L49.60355555555556,68.1979626692258L49.96444444444444,69.46331609212432L50.03288888888889,69.90552432720476L50.21333333333334,70.41289923741263L50.26933333333333,69.97580370536215L50.46844444444445,71.63369910533609L50.623999999999995,71.02187897608827L50.69244444444445,70.94072495974025L50.94133333333333,71.50653076171874L50.99733333333334,71.13159920619081L51.40177777777778,70.50022095900313L51.62577777777778,70.78710040679343L52.31644444444445,69.95470366111167L52.55288888888889,67.76735945848316L52.74577777777778,66.33547799403848L52.90133333333333,65.6189691837017L53.044444444444444,65.70239551250748L53.07555555555556,65.34531784057616L53.150222222222226,64.50829531596254L53.30577777777778,63.31622396982631L53.82844444444444,61.90341369922342L54.13955555555555,63.29268930508536L54.30133333333334,63.62395999981803L54.413333333333334,63.93794488906859L54.6,64.09708791512706L54.88,65.27998885741599L55.041777777777774,66.02360310921298L55.284444444444446,67.21689176559447L55.321777777777775,67.28376267506522L55.44622222222222,67.97300373590907L55.70755555555556,68.16233605604903L55.84444444444445,67.21453829912036L55.91288888888889,67.3486047341273L56,67.50928968649642L56.18666666666667,68.3961407771477L56.373333333333335,69.07970105684718L56.39822222222222,69.13788848656871L56.43555555555555,69.4252548584571L56.448,69.29402881402233L56.516444444444446,69.79239562841559L56.616,70.28199780904326L56.672,70.45769625443675L56.80888888888889,70.97959773357096L56.83377777777778,71.20682897934545L56.995555555555555,71.98923485095682L57.09511111111111,72.4330661663642L57.455999999999996,72.4474304272578L57.46222222222222,72.49904438165515L57.51822222222222,72.80799772189211L57.55555555555555,72.51373325861415L57.64888888888889,72.52477020483748L57.68,72.39476147064794L57.72977777777778,72.17377908413225L57.80444444444445,72.008630660864L57.97866666666667,72.60933268987212L58.159111111111116,73.0164823898902L58.39555555555555,73.22967399083647L58.48266666666667,73.2222889753488L58.650666666666666,73.71927617146414L58.75644444444445,74.2509161325601L58.88088888888889,74.77452184603762L59.129777777777775,76.18497865016641L59.25422222222222,76.82487806907065L59.37866666666666,77.19891693041872L59.44711111111111,77.26351552743175L59.49066666666667,77.47419135387125L59.94488888888889,75.82708943807158L60.06933333333333,75.7958451417776L60.312000000000005,76.39208369988658L60.330666666666666,76.49612314884477L60.60444444444444,77.06541857352622L60.64177777777778,77.23056699679445L60.660444444444444,77.35497610385599L60.766222222222225,77.83313556817859L60.940444444444445,77.49350600976207L61.13955555555555,78.03131367610048L61.18933333333333,77.88823914527892L61.31377777777777,78.08552455902098L61.44444444444444,77.73672459675714L61.61866666666666,77.3321718252622L61.64355555555555,77.41267660947943L61.75555555555556,77.75457848035369L61.92977777777778,78.17739090552695L62.147555555555556,78.93496364813582L62.352888888888884,79.19384496028604L62.40888888888889,79.29764094719518L62.41511111111111,79.33594564291144L62.52088888888889,79.37879496354321L62.831999999999994,78.28394612899191L63.26133333333334,79.88608871973476L63.29866666666667,80.00327511934131L63.348444444444446,80.03841480842001L63.46666666666666,80.4613083876096L63.49155555555555,80.60722330900336L63.553777777777775,80.87243463442873L63.88355555555555,82.12780611331644L64.00177777777778,82.56222356282744L64.05777777777777,82.8598153407757L64.25688888888888,83.56577412898721L64.43111111111111,84.18319388536304L64.80444444444444,84.41099320925197L64.82933333333334,84.4882518328153L64.94755555555555,84.70647498277515L65.12177777777778,85.01526601497942L65.28355555555555,85.42152302081766L65.60711111111111,86.21439776053793L65.72533333333332,86.0718913078308L66.37244444444444,86.6820072027353L66.39111111111112,86.74027578647318L66.55911111111111,87.93664829547586L66.66488888888888,88.33138143099269L66.94488888888888,88.9307038417229L67.05688888888889,89.29670845545253L67.13155555555555,89.21693405738242L67.20622222222222,89.06712374320395L67.34933333333333,88.47283288148732L67.38666666666667,88.51414027580846L67.77244444444445,89.84328075555652L67.94044444444444,90.75877921397867L68.12088888888889,91.02618169784544L68.1768888888889,91.10035646878754L68.2328888888889,91.07381910544174L68.35111111111111,90.92538840954118L68.45066666666666,91.16406237162074L68.45688888888888,91.20001360086292L68.50666666666667,91.42919254302977L68.58133333333333,91.63386297225951L69.048,92.98426580429076L69.25955555555555,93.53457118914676L69.6391111111111,94.47595777878392L69.776,95.06757055796108L69.81333333333333,95.00792235594528L69.83200000000001,95.11106911072362L69.85066666666667,95.20334122731134L69.95022222222222,95.44104134119472L69.98133333333334,95.74228504987862L70.27377777777778,96.48525006954485L70.37955555555556,95.62477403420667L70.672,95.08599251967209L70.784,95.33846266453081L71.008,95.00840928004337L71.49955555555556,95.6520417836996L71.848,96.10455657885623L71.95377777777779,96.43055226252628L72.02222222222223,96.44118343866786L72.04711111111111,96.49425816535948L72.1528888888889,96.5263951558333L72.32711111111111,96.6029233932495L72.42044444444444,96.51519590157727L72.59466666666665,96.44629614169779L72.67555555555555,96.39971373631403L72.7751111111111,96.18700905946582L73.03644444444444,97.0422100837414L73.23555555555555,97.23754780109111L73.25422222222221,97.03945084718555L73.46577777777777,97.65427367503825L73.74577777777777,96.75240909136257L73.808,96.78243607741135L73.82666666666667,96.78519531396717L73.87022222222222,96.74607907808742L73.95111111111112,96.93037984921381L73.98222222222223,97.02565466440639L74.05688888888889,97.06201166373032L74.21244444444446,97.09682673674362L74.256,97.23933318945076L74.31200000000001,97.33493262070874L74.46133333333334,97.48100985013521L74.47377777777777,97.54852999173677L74.57955555555556,97.59316470072818L74.76622222222223,98.1179877244509L75.01511111111111,98.96645296536958L75.10222222222221,99.1530260489537L75.376,99.69919257897595L75.55022222222223,100.02754172912009L75.656,99.79820047892055L75.75555555555556,99.82928246718186L75.83644444444444,99.75421500205992L75.88622222222222,99.5039360156426L75.89866666666667,99.30770560411305L75.98577777777777,98.4293756851783L76.06666666666666,98.39107098946202L76.09155555555554,98.40397447806137L76.11644444444444,98.50233314587518L76.19111111111111,98.69612893691428L76.50844444444445,99.34333221728984L76.60177777777777,99.70609067036554L76.72622222222222,100.0845118485964L76.75111111111111,100.19106707206137L76.75733333333334,100.2108686520503L76.78222222222222,100.31847887772778L76.79466666666667,100.4269817975851L76.98133333333332,100.71605240381679L77.06844444444445,100.8824992913466L77.0808888888889,100.91601590009834L77.24266666666666,101.52020755180943L77.39822222222223,101.83476051917441L77.46666666666667,102.08560758370618L77.64088888888888,102.03464286143962L77.65955555555556,102.09940376648534L78.38133333333333,102.17893470250642L78.59288888888888,102.5529735638545L78.76711111111112,102.79262137413023L78.77955555555556,102.8129910322336L78.8231111111111,102.80804063723636L78.87288888888888,102.65782455297615L78.99111111111111,102.92238664627074L79.43288888888888,102.58105285351091L79.51377777777778,102.67275689198419L79.68177777777777,102.73354125022887L79.73777777777778,102.76235092603243L79.77511111111112,102.84115147590636L79.79377777777778,102.87937501760628L79.83111111111111,103.00159296622641L79.85600000000001,103.06749002750102L80.15466666666667,104.01780355893648L80.22933333333333,104.05505325244022L80.24177777777777,104.03387205417339L80.25422222222223,104.0497782413776L80.33511111111112,104.04807400703429L80.35377777777778,104.03468359433687L80.6648888888889,104.6516164266146L80.81422222222223,105.25296768775351L80.87644444444445,105.48368855623097L81.02577777777778,105.38102872555072L81.06311111111111,105.16751250853903L81.11288888888889,105.06623229613669L81.19377777777778,104.98402327757614L81.28088888888888,105.06290498146642L81.30577777777778,105.14592554019046L81.33066666666666,105.05048841696518L81.37422222222223,105.12344587766206L81.38666666666667,105.19064140319823L81.46755555555556,105.18723293451161L81.54222222222222,105.42184919577377L81.68533333333333,105.57084796978876L81.77866666666667,105.76780876746543L81.93422222222222,105.73145176814151L81.94666666666667,105.77559955303485L82.08977777777777,105.91834946779103L82.32,105.97475150915292L82.46933333333332,106.13430030529315L82.52533333333334,106.17008922650263L82.57511111111111,106.24426399744472L82.6,106.31454337560213L82.78044444444444,106.85494797046367L82.89866666666666,106.86387491226195L82.94844444444443,106.80065593352683L82.95466666666667,106.77720242280225L82.96088888888889,106.81583173458392L82.96711111111112,106.79043052746698L82.99822222222221,106.68963723916272L83.17244444444444,106.90039421961856L83.19111111111111,106.88635457479036L83.24711111111112,106.94681431696964L83.37777777777777,107.29780543767488L83.48355555555555,107.44915767816396L83.52088888888889,107.50426125526427L83.73866666666666,107.4020883486821L83.75733333333332,107.46108731856711L84.29244444444444,107.99297074171213L84.31733333333332,108.03070735931395L84.8648888888889,107.48340467306284L84.97688888888888,107.47155618667601L85.02044444444444,107.53298977705148L85.1448888888889,106.9055069226485L85.66755555555555,105.70743017930249L85.74222222222222,105.90812406173117L85.76088888888889,105.87468860699579L85.77955555555555,105.83419275283812L85.96622222222221,106.04811473993153L86.02222222222223,105.83622160324681L86.05955555555555,105.89173095042888L86.07822222222222,105.92678948549123L86.10311111111112,106.09372329711913L86.27733333333333,105.7428944844466L86.68177777777778,105.8160954071925L86.80622222222222,105.8682774397043L86.81866666666666,105.87428283691405L86.856,105.78071225606477L86.89333333333335,105.91972908606894L87.12355555555555,106.05338975099416L87.17955555555555,106.11336256907535L87.21688888888889,106.06897132213298L87.23555555555555,106.1921631189493L87.34133333333334,105.98846653791574L87.416,105.85537395110495L87.65244444444446,105.85813318766078L87.6648888888889,105.839061993819L87.92,105.13513205601618L88.57333333333334,104.97533979782689L88.67911111111111,105.18228253951438L88.77866666666667,105.2696854151212L88.90933333333334,105.39092951554517L88.92177777777778,105.42387804618247L89.4071111111111,105.16442865591782L89.47555555555554,104.9836175074944L89.7928888888889,104.68545765143173L89.86133333333333,104.71499771338242L89.88,104.7212465726412L89.89244444444445,104.6969003677368L89.99822222222222,104.72343773108261L90.30311111111112,104.67734224979692L90.38399999999999,104.72944312829236L90.52711111111111,105.07759385842542L90.56444444444443,104.78884786825913L90.65155555555556,104.84427606142482L90.71377777777776,104.94352742341847L90.81955555555555,104.9939240675706L90.90044444444445,104.90148964295018L90.95022222222222,104.78787402006296L90.95644444444444,104.78178746883684L91.07466666666666,104.82609756176286L91.1928888888889,104.98126404102031L91.20533333333333,104.99700792019183L91.31733333333334,105.12239087544954L91.49155555555556,105.28632198847255L91.52888888888889,105.3798114153055L91.55377777777777,105.4538238782149L91.62844444444444,105.58407607445348L91.67200000000001,105.5236163322742L91.76533333333333,105.38427488620464L91.93955555555556,105.4185218811035L91.96444444444444,105.47500507648174L92.10133333333334,105.48190316787131L92.23200000000001,105.72236251831053L92.2631111111111,105.74443641075719L92.28177777777779,105.81820541161756L92.36266666666666,105.86105473224933L92.44977777777778,105.8676282075735L92.568,106.16343459716208L92.57422222222222,106.1915138868185L92.64888888888889,106.20246967902548L92.66133333333335,106.19954813443697L92.97866666666667,106.48813181657056L93.11555555555556,106.66374910794771L93.13422222222222,106.71633691054123L186.82222222222222,44.49311795601474L186.85955555555557,77.4095927568582L186.95911111111113,153.15412583717935L186.96533333333332,147.76111683478723L187.27644444444445,178.85677954783807L187.33866666666668,184.7408920801603L187.62488888888888,124.66890379098746L187.6311111111111,124.78986385235419L187.78666666666666,103.79747040455156L187.91733333333335,95.59190665758571L188.40266666666665,114.15178961937244L188.44,118.8073114982018L188.4711111111111,122.45266875853905L188.78844444444445,133.74265320484454L188.9128888888889,136.0681215432974L188.93155555555555,136.52587077250848L188.9502222222222,138.07376190332266L189.224,145.55713605880737L189.35466666666667,143.61361909829654L189.6968888888889,147.29054527099316L189.87733333333335,136.67580281771146L190.09511111111112,129.99183630026303L190.15733333333336,129.52783821179315L190.17600000000002,129.37368615774008L190.19466666666668,130.22146158951978L190.2008888888889,128.53954460070685L190.21955555555556,127.9532068325923L190.28177777777776,128.1849421262741L190.33155555555555,129.10064346973712L190.47466666666668,126.99124769981091L190.5928888888889,127.53286960491766L190.68622222222223,130.83543230020084L191.1031111111111,127.68093510774466L191.11555555555557,127.71250402010403L191.28977777777777,127.48949278317966L191.33955555555556,128.22706106075873L191.45777777777778,130.5072454580894L191.6071111111111,134.2626069875864L191.61955555555556,134.0080674153108L191.76888888888888,132.38011784736926L191.84977777777777,130.87207333858197L191.96177777777777,133.09532819344446L192.06755555555554,129.88751281224765L192.2231111111111,129.82060132576868L192.34755555555554,131.53534511419443L192.45333333333335,132.5021734879567L192.81422222222224,140.68590680452493L192.87644444444445,141.52808260917664L192.96977777777778,142.70558680937842L193.12533333333332,142.34964529367593L193.26844444444444,139.04014392999503L193.3368888888889,139.19031943724707L193.368,138.3435584306717L193.44266666666667,136.53901772315686L193.52977777777778,138.1806823198612L193.62311111111111,138.4779900587522L193.65422222222222,137.76424048497125L193.7351111111111,135.9266700928028L194.04,132.28610091943006L194.10222222222222,133.820642214555L194.13333333333333,132.83871919375198L194.58133333333333,135.91965027038867L194.8488888888889,138.39111468425165L194.97333333333333,139.2508603334427L195.12266666666665,140.41042949603155L195.2222222222222,139.56760445924905L195.41511111111112,138.6141664981842L195.45866666666666,138.75740333703848L195.46488888888888,138.6168445807237L195.56444444444443,137.8638164630303L195.67644444444446,138.0411785657589L195.8071111111111,138.12034430870642L195.8631111111111,137.54398848460272L195.9813333333333,136.36291350768164L196.0871111111111,132.69341292748084L196.12444444444444,132.40604655559247L196.1368888888889,132.41371561013736L196.1928888888889,132.23959966806265L196.32355555555554,131.7282887880619L196.56622222222222,132.44792202802805L196.8897777777778,134.00977164965408L197.0702222222222,133.7435053220162L197.3688888888889,137.61869075665106L197.47466666666668,135.78720691570868L197.49955555555553,135.53887562568372L197.58044444444442,135.19928664427536L197.67999999999998,135.08185678261975L197.8231111111111,131.9510971399454L197.82933333333332,131.5067789004399L197.97866666666664,130.00778306447543L198.29600000000002,130.90425090606396L198.31466666666668,130.82678939745978L198.39555555555557,129.3403724340292L198.45155555555556,129.20683350012854L198.49511111111113,128.86387662704175L198.61955555555554,129.7351461465542L198.70044444444443,129.16597245289728L199.21066666666667,122.44017104002145L199.25422222222224,121.84352671183072L199.304,121.49801348722897L199.31644444444444,121.19636400846333L199.62133333333333,120.33008546095627L199.68977777777778,119.21766678186563L199.95111111111112,118.60195125983311L200.01333333333335,117.87164626671716L200.26222222222222,118.91118863912729L200.35555555555555,119.90897727012634L200.49866666666665,120.43164971241583L200.5048888888889,120.39874175878671L200.57333333333335,121.05170697432297L201.00266666666667,121.05730660145099L201.28266666666667,122.38393130669226L201.3262222222222,122.30675383714528L201.38844444444445,122.37642456018008L201.58755555555555,122.79108100671034L201.64977777777779,123.26895643197574L201.6746666666667,123.67363093449518L201.69955555555555,123.98177273456866L201.73688888888887,123.85971709398122L201.7928888888889,124.32700192011319L201.86755555555555,124.58008072009453L201.94222222222223,125.38594010243048L202.42755555555556,126.86249685287476L202.47111111111113,127.12697779215299L202.6391111111111,126.5905497440925L202.65155555555557,126.48164105415344L202.65777777777777,126.65884084884937L202.70755555555556,126.58073010811438L202.98133333333334,126.08946427015158L202.99377777777778,126.11811163792242L203.38577777777778,126.78130225951855L203.4791111111111,126.72660445249997L203.58488888888888,126.09908102108881L203.66577777777778,126.28707429995903L203.68444444444444,126.49421992668738L203.95200000000003,126.92652737177335L203.9831111111111,126.76795242382929L204.08266666666665,127.24777554548703L204.0888888888889,127.065422470753L204.1697777777778,127.53940250323369L204.21955555555556,126.96584649269397L204.22577777777778,127.06741074415353L204.3688888888889,127.03206817003397L204.41244444444445,127.15603093000558L204.56177777777776,126.76843934792738L204.6488888888889,126.14935593421643L204.68622222222223,126.0180487357653L204.7048888888889,125.9202987230741L204.97244444444445,127.59974051438846L205.0222222222222,127.92666946924649L205.07822222222222,127.89469478680536L205.22133333333332,129.10007539162268L205.28355555555555,129.23272163134354L205.37688888888889,129.58513294733487L205.38933333333335,129.5910571905283L205.47022222222225,129.61296877494226L205.4888888888889,129.79349588430844L205.61955555555556,130.33848568109366L205.75022222222225,128.89572957845834L205.80622222222223,129.36642287327692L206.01155555555556,130.02368925167963L206.0551111111111,130.07879282877997L206.08622222222223,129.75981696752402L206.19822222222223,130.0731120476356L206.44088888888888,128.09206135456378L206.51555555555555,128.7922582076146L206.5591111111111,128.85369179799005L206.6088888888889,129.09727557805869L206.64,128.9254319484417L206.64622222222224,128.77582451930414L206.70222222222222,129.02090964867517L206.83288888888887,128.71329534970798L207.00088888888888,129.48072830530313L207.00711111111113,129.572107727711L207.38044444444444,129.13691931504468L207.41777777777776,129.30843832859625L207.52977777777778,129.4281405027096L207.9466666666667,129.9965838102194L208.00266666666667,129.97386068564194L208.152,130.29681309369894L208.208,130.00100670411035L208.51288888888888,130.21216945464795L208.6311111111111,129.95803565245407L208.66844444444445,130.22146158951978L208.69955555555555,130.30054617845096L208.73688888888887,130.20202520260443L208.8488888888889,130.4577415081171L208.95466666666667,131.13805562716263L208.992,131.44680608235873L209.11022222222223,131.47707653045654L209.43377777777778,131.3918648132911L209.49599999999998,131.587243107649L209.58311111111112,131.8367917079192L209.65777777777777,131.5254037471918L209.7697777777778,131.5102279461347L209.93155555555555,132.2173228905751L210.04355555555557,132.80098257615015L210.07466666666664,133.0590523481369L210.09955555555555,133.34848814744214L210.13688888888888,133.30012035369873L210.3297777777778,133.76975864630478L210.42933333333335,132.84772728956662L210.43555555555554,132.53471624851227L210.49155555555555,132.59253848516025L210.54133333333334,132.80447219885312L210.728,133.82932569430426L210.86488888888888,134.26629949533023L210.896,134.23903174583728L210.97066666666666,133.97613330987784L211.18222222222224,133.24246042508344L211.18844444444446,133.14661753177643L211.26311111111113,132.89499950408936L211.46844444444446,133.09877723913925L211.4933333333333,133.2125551700592L211.54933333333332,133.2091467013726L211.5617777777778,133.47959246085242L211.79822222222222,133.93186379396L211.83555555555554,134.0843927676861L211.87911111111111,134.4861863026252L211.91022222222222,134.80378254560324L212.072,134.76190707316766L212.08444444444444,134.9976594906587L212.296,134.82678970923791L212.56355555555555,136.07591232886682L212.62577777777778,136.21294088547046L212.75644444444444,136.68765130409827L213.04266666666666,137.67306394760425L213.24800000000002,137.3807877577268L213.36,137.8987938440763L213.4968888888889,138.09981234257037L213.54666666666668,137.93405526417953L213.59644444444444,137.84531334730295L214.31199999999998,136.39358972586118L214.3431111111111,136.76657358499673L214.36177777777777,136.68282264012558L214.49866666666668,136.67864320828363L214.71644444444445,137.18674850463867L214.74755555555555,136.94085183510413L214.77866666666668,136.1977245074052L214.90311111111112,135.94561955562006L214.94044444444444,135.96619209876428L215.13955555555555,135.3198003585522L215.152,135.3068562929447L215.5751111111111,135.01409317896918L215.9857777777778,134.161083313135L215.992,134.09855414353885L216.0791111111111,133.84819400310516L216.17866666666666,132.21476653906015L216.40888888888887,131.72410935621994L216.56444444444446,131.31436272767874L216.72,131.19336208930383L216.96888888888887,129.6169453217433L217.26133333333334,129.15136472995465L217.2862222222222,129.14824030032526L217.29866666666666,129.0466354718575L217.3671111111111,129.02776716305658L217.70933333333332,128.72863345879773L217.74044444444445,128.8934978430088L217.7902222222222,128.88509840231674L217.83377777777778,128.70988688102136L217.9271111111111,128.54619923004736L217.952,128.5719250532297L217.95822222222222,128.6282865175834L217.97688888888888,128.67584277116336L218.35644444444443,127.54439347523909L218.44977777777777,127.1524195762781L218.4808888888889,127.06424573751596L218.54311111111113,126.82171695965987L218.75466666666668,126.30431952843298L218.83555555555554,126.20109161963829L218.8417777777778,126.26321501915271L218.85422222222223,126.37670891101544L219.02844444444443,126.38514892871564L219.10933333333332,126.62962540296408L219.19644444444444,126.84387200612288L219.28977777777777,126.71081999632028L219.6008888888889,126.89930019928858L219.6071111111111,126.89966539236215L219.61333333333334,126.87682053676018L219.62577777777776,126.76385414600372L219.7937777777778,126.11287720386798L219.8062222222222,126.2195135813493L220.14222222222224,126.80033287635216L220.26666666666665,126.40673589706421L220.6026666666667,125.87355400965764L220.65866666666668,125.90845023668729L221.0568888888889,126.28959007446582L221.11911111111112,126.32067206272711L221.15022222222223,126.34234018509204L221.21866666666668,126.36023464569678L221.27466666666666,126.48058605194092L221.57333333333332,127.68130030081822L221.79733333333334,128.11758429270523L221.96533333333332,127.84304025539984L222.22666666666666,128.3939137183703L222.35733333333334,128.5787825676111L222.40088888888891,128.59870587862454L222.51288888888888,128.1417276125688L222.66222222222223,127.99455480392163L222.6871111111111,127.97373879872836L223.11644444444445,128.17832807394174L223.12266666666665,128.17147055956033L223.61422222222222,128.4257666697869L223.6702222222222,128.4184222313074L223.78844444444445,128.3717586719073L224.15555555555557,127.91218347732837L224.40444444444444,128.0614257133924L224.616,127.63694963088402L224.672,127.45796444782843L224.74666666666667,127.43280670276054L224.7902222222222,127.27597656616797L225.10755555555556,127.48807258789356L225.2008888888889,127.56224735883566L225.33777777777777,126.99254616407248L225.44977777777777,126.97448939543503L225.64888888888888,126.92007562747368L225.7422222222222,127.00342080226311L225.77955555555556,127.03937203150528L225.91022222222222,127.55226541482486L226.12177777777777,127.87517724587366L226.20888888888888,127.94484796890845L226.25244444444445,128.00806694764356L226.25866666666667,128.06978457707623L226.28977777777777,128.07879267289087L226.464,128.7168255494191L226.71911111111112,127.45074174037346L226.9928888888889,127.73149405992947L227.17333333333335,127.99325633966006L227.2728888888889,127.9811643912242L227.32888888888888,128.04702087549063L227.33511111111113,128.08025344518515L227.53422222222224,128.0687701518719L227.752,127.6098036124156L227.9262222222222,127.38857776385086L227.96977777777778,127.60339244512411L227.976,127.52994806032913L228.02577777777776,127.1833392565067L228.0631111111111,127.24976381888756L228.08177777777777,127.27662579829877L228.15644444444445,127.22882608266977L228.16266666666667,127.2278522344736L228.2,127.18337983351486L228.2062222222222,127.26319480859317L228.256,127.20825353952554L228.31822222222223,126.98917827239403L228.38044444444444,127.00220349201788L228.3928888888889,127.04436300351068L228.52977777777778,127.23466917184683L228.63555555555556,127.3143624159006L228.70399999999998,127.2593805698248L229.05244444444446,127.28076465313251L229.096,127.13837993144989L229.1271111111111,127.0854269357828L229.2328888888889,126.83498564133276L229.31377777777777,127.02285718917847L229.53155555555557,127.51318975595328L229.69955555555555,127.3972612436001L229.7368888888889,127.23957898983588L229.7991111111111,126.98901596436133L229.83644444444445,126.89167172175186L230.2222222222222,126.72502194918118L230.42755555555556,126.70875056890341L230.46488888888888,126.8015096095892L230.63288888888889,127.43426747505481L230.69511111111112,127.70187284396245L230.8008888888889,128.1387249139639L230.86933333333334,128.3625071140436L231.10577777777777,128.35808422015265L231.13066666666668,128.42787667421194L231.2613333333333,128.4223176240921L231.45422222222223,128.61769591844998L231.64711111111112,128.70124397828027L231.70933333333335,128.79883168293878L231.7902222222222,128.7418209864543L231.83999999999997,128.69596896721765L231.97066666666666,128.4972633581895L232.44355555555555,128.16875190001267L232.53066666666666,128.05257992561047L232.64266666666666,127.91015462691968L232.77955555555553,127.69059243569006L232.86044444444443,127.70962305252368L232.97244444444445,128.0899919271469L233.04088888888887,128.06966284605173L233.09688888888888,128.07400458592633L233.30844444444443,128.22941452723282L233.53244444444445,128.25372015512906L233.75022222222222,127.90540711696332L234.5591111111111,127.79613323395068L234.57155555555556,127.84912680662595L234.59022222222222,127.88442880373734L234.73333333333335,127.93056486203119L234.7457777777778,127.95048817304465L234.93866666666665,127.73835157431088L235.312,128.19090694647568L235.3182222222222,128.2417499377177L235.43644444444442,128.13523529126093L235.4488888888889,128.09210193157196L235.592,128.5548827097966L235.63555555555553,128.3709471317438L235.64177777777778,128.36664596887735L236.27644444444442,127.76042546675755L236.4008888888889,127.55709407879755L236.60622222222221,127.7667554800327L236.63733333333332,127.80124593698062L236.73688888888887,127.69801802818591L236.91733333333332,127.84774718834802L237.05422222222225,128.0966871334956L237.18488888888888,128.14663743055783L237.30311111111112,127.9525981774697L237.44622222222222,127.90143057016226L237.45244444444447,127.94419873677768L237.5271111111111,127.64555195661691L237.70133333333334,127.60164763377263L237.78222222222223,127.43869036894577L237.78844444444445,127.40480856712048L237.86933333333334,127.12081008691054L237.888,127.0788534604586L238,127.04967859158148L238.01244444444447,127.093866953483L238.03111111111113,127.10031869778265L238.1431111111111,126.75626624547519L238.51022222222224,127.03474625257346L238.59733333333332,127.2654671210509L238.92711111111112,127.22387568767255L238.99555555555554,127.33120187429282L239.12,127.18496233683365L239.15111111111113,127.19620216809787L239.176,127.12811394838187L239.27555555555554,126.9925055870643L239.43111111111114,127.0220050720068L239.66133333333332,126.82861505104944L239.67377777777776,126.8958511535938L239.68622222222223,126.98836673223056L239.74844444444446,127.02821335425743L239.87911111111111,126.78223553070654L239.9848888888889,126.96864630625798L240.06577777777778,126.91285292001871L240.17155555555556,126.84228950280409L240.2088888888889,126.79948075918051L240.2151111111111,126.8144942522049L240.25244444444445,126.94876357225272L240.3706666666667,127.04456588855156L240.38933333333335,126.94750568499931L240.61955555555556,127.45934406610635L240.70666666666668,127.34670229141528L240.744,127.39742355163281L240.78133333333332,127.47309967187735L240.90577777777779,127.50965955624213L240.92444444444445,127.542973279953L240.98044444444443,127.36626040935516L241.20444444444445,127.71595306579883L241.75199999999998,127.93239082739903L242.00711111111113,128.18749847778906L242.0257777777778,128.1805598093913L242.05066666666667,128.29701582285074L242.08800000000002,128.40219142803778L242.1751111111111,128.32874704324283L242.21866666666665,128.3125162399732L242.27466666666666,128.404342009471L242.33066666666667,128.59038759194888L242.37422222222222,128.7063566813102L242.38666666666668,128.69333146168634L242.4551111111111,128.55325962946966L242.48622222222224,128.44033381572137L242.64177777777778,128.5355274768976L242.65422222222222,128.58681681522955L242.71644444444445,128.54084306496839L242.7848888888889,128.63254710344168L242.80355555555556,128.6732458426402L243.03377777777777,128.9546879713352L243.32622222222224,129.12965603058154L243.38844444444445,129.10648655891418L243.5066666666667,129.23957914572495L243.768,128.8364871465243L243.9111111111111,128.91321826898135L243.93599999999998,128.95018392342786L244.09777777777776,128.96876819317157L244.76355555555557,128.10662850049826L244.92533333333336,127.78878879547119L245.06222222222223,127.65240947099832L245.3048888888889,127.86442433870755L245.46044444444445,128.11190351156088L245.48533333333333,128.12882412396945L245.54755555555556,128.07116419535416L245.55377777777778,128.070190347158L245.58488888888888,127.78659763702979L245.62844444444445,127.69830206724313L245.63466666666665,127.69233724704155L245.69688888888888,127.76622797892644L245.93955555555556,128.00189924240112L245.952,128.03444200295667L246.13866666666667,128.21249391482428L246.38133333333334,128.44110477887668L246.4,128.44471613260416L246.40622222222223,128.44240324313824L246.68622222222223,128.35341786421262L246.80444444444444,128.38713735800522L246.82933333333332,128.41651511192322L246.95377777777776,128.578052181464L247.00977777777777,128.65332253162677L247.0533333333333,128.6213072721775L247.23377777777776,128.56827312249402L247.44533333333334,128.90916056816394L247.66933333333333,128.89982785628393L247.92444444444445,129.10810963924115L248.20444444444445,129.34012897198016L248.2542222222222,129.22347007347986L248.34133333333335,129.12872275939355L248.56533333333334,128.5536653995514L248.584,128.6046706988261L248.64622222222224,128.45550961677844L248.85777777777778,128.74863792382754L248.88888888888889,128.75326370275937" style="fill: none;" fill="none"></path></g></g></g></g></g><g><g><span fill="rgb(0, 0, 0)" stroke="none" stroke-width="1px">Alt + Scroll to Zoom</span></g></g></g><g transform="translate(50, 177)" clip-path="url(#clip_1)"><clipPath id="clip_1"><rect width="280" height="23"></rect></clipPath><g><g><line x1="0" y1="0" x2="0" y2="5" style="visibility: inherit;" fill="rgb(0, 0, 0)" stroke="rgb(204, 204, 204)" stroke-width="1px"></line><line x1="31.11111111111111" y1="0" x2="31.11111111111111" y2="5" style="visibility: inherit;" fill="rgb(0, 0, 0)" stroke="rgb(204, 204, 204)" stroke-width="1px"></line><line x1="62.22222222222222" y1="0" x2="62.22222222222222" y2="5" style="visibility: inherit;" fill="rgb(0, 0, 0)" stroke="rgb(204, 204, 204)" stroke-width="1px"></line><line x1="93.33333333333333" y1="0" x2="93.33333333333333" y2="5" style="visibility: inherit;" fill="rgb(0, 0, 0)" stroke="rgb(204, 204, 204)" stroke-width="1px"></line><line x1="124.44444444444444" y1="0" x2="124.44444444444444" y2="5" style="visibility: inherit;" fill="rgb(0, 0, 0)" stroke="rgb(204, 204, 204)" stroke-width="1px"></line><line x1="155.55555555555557" y1="0" x2="155.55555555555557" y2="5" style="visibility: inherit;" fill="rgb(0, 0, 0)" stroke="rgb(204, 204, 204)" stroke-width="1px"></line><line x1="186.66666666666666" y1="0" x2="186.66666666666666" y2="5" style="visibility: inherit;" fill="rgb(0, 0, 0)" stroke="rgb(204, 204, 204)" stroke-width="1px"></line><line x1="217.77777777777777" y1="0" x2="217.77777777777777" y2="5" style="visibility: inherit;" fill="rgb(0, 0, 0)" stroke="rgb(204, 204, 204)" stroke-width="1px"></line><line x1="248.88888888888889" y1="0" x2="248.88888888888889" y2="5" style="visibility: inherit;" fill="rgb(0, 0, 0)" stroke="rgb(204, 204, 204)" stroke-width="1px"></line><line x1="280" y1="0" x2="280" y2="5" style="visibility: inherit;" fill="rgb(0, 0, 0)" stroke="rgb(204, 204, 204)" stroke-width="1px"></line></g><g transform="translate(0, 8)"><text x="0" y="0" dx="0em" dy="0.95em" style="text-anchor: middle; visibility: hidden; font-family: &quot;Helvetica Neue&quot;, sans-serif; font-size: 12px; font-weight: 200;" fill="rgb(33, 33, 33)" stroke="none" stroke-width="1px">10k</text><text x="31.11111111111111" y="0" dx="0em" dy="0.95em" style="text-anchor: middle; visibility: inherit; font-family: &quot;Helvetica Neue&quot;, sans-serif; font-size: 12px; font-weight: 200;" fill="rgb(33, 33, 33)" stroke="none" stroke-width="1px">15k</text><text x="62.22222222222222" y="0" dx="0em" dy="0.95em" style="text-anchor: middle; visibility: inherit; font-family: &quot;Helvetica Neue&quot;, sans-serif; font-size: 12px; font-weight: 200;" fill="rgb(33, 33, 33)" stroke="none" stroke-width="1px">20k</text><text x="93.33333333333333" y="0" dx="0em" dy="0.95em" style="text-anchor: middle; visibility: inherit; font-family: &quot;Helvetica Neue&quot;, sans-serif; font-size: 12px; font-weight: 200;" fill="rgb(33, 33, 33)" stroke="none" stroke-width="1px">25k</text><text x="124.44444444444444" y="0" dx="0em" dy="0.95em" style="text-anchor: middle; visibility: inherit; font-family: &quot;Helvetica Neue&quot;, sans-serif; font-size: 12px; font-weight: 200;" fill="rgb(33, 33, 33)" stroke="none" stroke-width="1px">30k</text><text x="155.55555555555557" y="0" dx="0em" dy="0.95em" style="text-anchor: middle; visibility: inherit; font-family: &quot;Helvetica Neue&quot;, sans-serif; font-size: 12px; font-weight: 200;" fill="rgb(33, 33, 33)" stroke="none" stroke-width="1px">35k</text><text x="186.66666666666666" y="0" dx="0em" dy="0.95em" style="text-anchor: middle; visibility: inherit; font-family: &quot;Helvetica Neue&quot;, sans-serif; font-size: 12px; font-weight: 200;" fill="rgb(33, 33, 33)" stroke="none" stroke-width="1px">40k</text><text x="217.77777777777777" y="0" dx="0em" dy="0.95em" style="text-anchor: middle; visibility: inherit; font-family: &quot;Helvetica Neue&quot;, sans-serif; font-size: 12px; font-weight: 200;" fill="rgb(33, 33, 33)" stroke="none" stroke-width="1px">45k</text><text x="248.88888888888889" y="0" dx="0em" dy="0.95em" style="text-anchor: middle; visibility: inherit; font-family: &quot;Helvetica Neue&quot;, sans-serif; font-size: 12px; font-weight: 200;" fill="rgb(33, 33, 33)" stroke="none" stroke-width="1px">50k</text><text x="280" y="0" dx="0em" dy="0.95em" style="text-anchor: middle; visibility: hidden; font-family: &quot;Helvetica Neue&quot;, sans-serif; font-size: 12px; font-weight: 200;" fill="rgb(33, 33, 33)" stroke="none" stroke-width="1px">55k</text></g><line x1="0" y1="0" x2="280" y2="0" fill="rgb(0, 0, 0)" stroke="rgb(204, 204, 204)" stroke-width="1px"></line></g></g></g></g></svg>