<svg viewBox="0 0 330 200" xmlns="http://www.w3.org/2000/svg"><g><g><g><g><g><line x1="50" y1="177" x2="45" y2="177" style="visibility: inherit;" fill="rgb(0, 0, 0)" stroke="rgb(204, 204, 204)" stroke-width="1px"></line><line x1="50" y1="162.25000000000006" x2="45" y2="162.25000000000006" style="visibility: inherit;" fill="rgb(0, 0, 0)" stroke="rgb(204, 204, 204)" stroke-width="1px"></line><line x1="50" y1="147.50000000000006" x2="45" y2="147.50000000000006" style="visibility: inherit;" fill="rgb(0, 0, 0)" stroke="rgb(204, 204, 204)" stroke-width="1px"></line><line x1="50" y1="132.75000000000003" x2="45" y2="132.75000000000003" style="visibility: inherit;" fill="rgb(0, 0, 0)" stroke="rgb(204, 204, 204)" stroke-width="1px"></line><line x1="50" y1="118" x2="45" y2="118" style="visibility: inherit;" fill="rgb(0, 0, 0)" stroke="rgb(204, 204, 204)" stroke-width="1px"></line><line x1="50" y1="103.24999999999997" x2="45" y2="103.24999999999997" style="visibility: inherit;" fill="rgb(0, 0, 0)" stroke="rgb(204, 204, 204)" stroke-width="1px"></line><line x1="50" y1="88.49999999999996" x2="45" y2="88.49999999999996" style="visibility: inherit;" fill="rgb(0, 0, 0)" stroke="rgb(204, 204, 204)" stroke-width="1px"></line><line x1="50" y1="73.74999999999993" x2="45" y2="73.74999999999993" style="visibility: inherit;" fill="rgb(0, 0, 0)" stroke="rgb(204, 204, 204)" stroke-width="1px"></line><line x1="50" y1="58.999999999999915" x2="45" y2="58.999999999999915" style="visibility: inherit;" fill="rgb(0, 0, 0)" stroke="rgb(204, 204, 204)" stroke-width="1px"></line><line x1="50" y1="44.249999999999915" x2="45" y2="44.249999999999915" style="visibility: inherit;" fill="rgb(0, 0, 0)" stroke="rgb(204, 204, 204)" stroke-width="1px"></line><line x1="50" y1="29.499999999999886" x2="45" y2="29.499999999999886" style="visibility: inherit;" fill="rgb(0, 0, 0)" stroke="rgb(204, 204, 204)" stroke-width="1px"></line><line x1="50" y1="14.750000000000028" x2="45" y2="14.750000000000028" style="visibility: inherit;" fill="rgb(0, 0, 0)" stroke="rgb(204, 204, 204)" stroke-width="1px"></line></g><g transform="translate(40, 0)"><text x="0" y="177" dx="0em" dy="0.3em" style="text-anchor: end; visibility: hidden; font-family: &quot;Helvetica Neue&quot;, sans-serif; font-size: 12px; font-weight: 200;" fill="rgb(33, 33, 33)" stroke="none" stroke-width="1px">0.92</text><text x="0" y="162.25000000000006" dx="0em" dy="0.3em" style="text-anchor: end; visibility: inherit; font-family: &quot;Helvetica Neue&quot;, sans-serif; font-size: 12px; font-weight: 200;" fill="rgb(33, 33, 33)" stroke="none" stroke-width="1px">0.94</text><text x="0" y="147.50000000000006" dx="0em" dy="0.3em" style="text-anchor: end; visibility: hidden; font-family: &quot;Helvetica Neue&quot;, sans-serif; font-size: 12px; font-weight: 200;" fill="rgb(33, 33, 33)" stroke="none" stroke-width="1px">0.96</text><text x="0" y="132.75000000000003" dx="0em" dy="0.3em" style="text-anchor: end; visibility: inherit; font-family: &quot;Helvetica Neue&quot;, sans-serif; font-size: 12px; font-weight: 200;" fill="rgb(33, 33, 33)" stroke="none" stroke-width="1px">0.98</text><text x="0" y="118" dx="0em" dy="0.3em" style="text-anchor: end; visibility: hidden; font-family: &quot;Helvetica Neue&quot;, sans-serif; font-size: 12px; font-weight: 200;" fill="rgb(33, 33, 33)" stroke="none" stroke-width="1px">1</text><text x="0" y="103.24999999999997" dx="0em" dy="0.3em" style="text-anchor: end; visibility: inherit; font-family: &quot;Helvetica Neue&quot;, sans-serif; font-size: 12px; font-weight: 200;" fill="rgb(33, 33, 33)" stroke="none" stroke-width="1px">1.02</text><text x="0" y="88.49999999999996" dx="0em" dy="0.3em" style="text-anchor: end; visibility: hidden; font-family: &quot;Helvetica Neue&quot;, sans-serif; font-size: 12px; font-weight: 200;" fill="rgb(33, 33, 33)" stroke="none" stroke-width="1px">1.04</text><text x="0" y="73.74999999999993" dx="0em" dy="0.3em" style="text-anchor: end; visibility: inherit; font-family: &quot;Helvetica Neue&quot;, sans-serif; font-size: 12px; font-weight: 200;" fill="rgb(33, 33, 33)" stroke="none" stroke-width="1px">1.06</text><text x="0" y="58.999999999999915" dx="0em" dy="0.3em" style="text-anchor: end; visibility: hidden; font-family: &quot;Helvetica Neue&quot;, sans-serif; font-size: 12px; font-weight: 200;" fill="rgb(33, 33, 33)" stroke="none" stroke-width="1px">1.08</text><text x="0" y="44.249999999999915" dx="0em" dy="0.3em" style="text-anchor: end; visibility: inherit; font-family: &quot;Helvetica Neue&quot;, sans-serif; font-size: 12px; font-weight: 200;" fill="rgb(33, 33, 33)" stroke="none" stroke-width="1px">1.1</text><text x="0" y="29.499999999999886" dx="0em" dy="0.3em" style="text-anchor: end; visibility: hidden; font-family: &quot;Helvetica Neue&quot;, sans-serif; font-size: 12px; font-weight: 200;" fill="rgb(33, 33, 33)" stroke="none" stroke-width="1px">1.12</text><text x="0" y="14.750000000000028" dx="0em" dy="0.3em" style="text-anchor: end; visibility: inherit; font-family: &quot;Helvetica Neue&quot;, sans-serif; font-size: 12px; font-weight: 200;" fill="rgb(33, 33, 33)" stroke="none" stroke-width="1px">1.14</text></g><line x1="50" y1="0" x2="50" y2="177" fill="rgb(0, 0, 0)" stroke="rgb(204, 204, 204)" stroke-width="1px"></line></g></g><g transform="translate(50, 0)" clip-path="url(#clip_0)"><clipPath id="clip_0"><rect width="280" height="177"></rect></clipPath><g><g><g><line x1="0" y1="0" x2="0" y2="177" fill="rgb(0, 0, 0)" stroke="rgb(66, 66, 66)" stroke-width="1px" opacity="0.25"></line><line x1="31.11111111111111" y1="0" x2="31.11111111111111" y2="177" fill="rgb(0, 0, 0)" stroke="rgb(66, 66, 66)" stroke-width="1px" opacity="0.25"></line><line x1="62.22222222222222" y1="0" x2="62.22222222222222" y2="177" fill="rgb(0, 0, 0)" stroke="rgb(66, 66, 66)" stroke-width="1px" opacity="0.25"></line><line x1="93.33333333333333" y1="0" x2="93.33333333333333" y2="177" fill="rgb(0, 0, 0)" stroke="rgb(66, 66, 66)" stroke-width="1px" opacity="0.25"></line><line x1="124.44444444444444" y1="0" x2="124.44444444444444" y2="177" fill="rgb(0, 0, 0)" stroke="rgb(66, 66, 66)" stroke-width="1px" opacity="0.25"></line><line x1="155.55555555555557" y1="0" x2="155.55555555555557" y2="177" fill="rgb(0, 0, 0)" stroke="rgb(66, 66, 66)" stroke-width="1px" opacity="0.25"></line><line x1="186.66666666666666" y1="0" x2="186.66666666666666" y2="177" fill="rgb(0, 0, 0)" stroke="rgb(66, 66, 66)" stroke-width="1px" opacity="0.25"></line><line x1="217.77777777777777" y1="0" x2="217.77777777777777" y2="177" fill="rgb(0, 0, 0)" stroke="rgb(66, 66, 66)" stroke-width="1px" opacity="0.25"></line><line x1="248.88888888888889" y1="0" x2="248.88888888888889" y2="177" fill="rgb(0, 0, 0)" stroke="rgb(66, 66, 66)" stroke-width="1px" opacity="0.25"></line><line x1="280" y1="0" x2="280" y2="177" fill="rgb(0, 0, 0)" stroke="rgb(66, 66, 66)" stroke-width="1px" opacity="0.25"></line></g><g><line x1="0" y1="177" x2="280" y2="177" fill="rgb(0, 0, 0)" stroke="rgb(66, 66, 66)" stroke-width="1px" opacity="0.25"></line><line x1="0" y1="162.25000000000006" x2="280" y2="162.25000000000006" fill="rgb(0, 0, 0)" stroke="rgb(66, 66, 66)" stroke-width="1px" opacity="0.25"></line><line x1="0" y1="147.50000000000006" x2="280" y2="147.50000000000006" fill="rgb(0, 0, 0)" stroke="rgb(66, 66, 66)" stroke-width="1px" opacity="0.25"></line><line x1="0" y1="132.75000000000003" x2="280" y2="132.75000000000003" fill="rgb(0, 0, 0)" stroke="rgb(66, 66, 66)" stroke-width="1px" opacity="0.25"></line><line x1="0" y1="118" x2="280" y2="118" fill="rgb(0, 0, 0)" stroke="rgb(66, 66, 66)" stroke-width="1px" opacity="0.25"></line><line x1="0" y1="103.24999999999997" x2="280" y2="103.24999999999997" fill="rgb(0, 0, 0)" stroke="rgb(66, 66, 66)" stroke-width="1px" opacity="0.25"></line><line x1="0" y1="88.49999999999996" x2="280" y2="88.49999999999996" fill="rgb(0, 0, 0)" stroke="rgb(66, 66, 66)" stroke-width="1px" opacity="0.25"></line><line x1="0" y1="73.74999999999993" x2="280" y2="73.74999999999993" fill="rgb(0, 0, 0)" stroke="rgb(66, 66, 66)" stroke-width="1px" opacity="0.25"></line><line x1="0" y1="58.999999999999915" x2="280" y2="58.999999999999915" fill="rgb(0, 0, 0)" stroke="rgb(66, 66, 66)" stroke-width="1px" opacity="0.25"></line><line x1="0" y1="44.249999999999915" x2="280" y2="44.249999999999915" fill="rgb(0, 0, 0)" stroke="rgb(66, 66, 66)" stroke-width="1px" opacity="0.25"></line><line x1="0" y1="29.499999999999886" x2="280" y2="29.499999999999886" fill="rgb(0, 0, 0)" stroke="rgb(66, 66, 66)" stroke-width="1px" opacity="0.25"></line><line x1="0" y1="14.750000000000028" x2="280" y2="14.750000000000028" fill="rgb(0, 0, 0)" stroke="rgb(66, 66, 66)" stroke-width="1px" opacity="0.25"></line></g></g></g><g><g><line x1="0" y1="855.5000000000003" x2="280" y2="855.5000000000003" fill="rgb(0, 0, 0)" stroke="rgb(153, 153, 153)" stroke-width="1.5px"></line></g></g><g><g><line x1="-62.22222222222222" y1="0" x2="-62.22222222222222" y2="177" fill="rgb(0, 0, 0)" stroke="rgb(153, 153, 153)" stroke-width="1.5px"></line></g></g><g><g><g><g><g><path stroke="rgb(255, 112, 67)" stroke-width="2px" d="M31.39111111111111,11.343144655227604L31.49066666666667,29.093666777014704L31.565333333333335,46.09690912159115L31.695999999999998,66.69997052147107L31.78933333333333,80.43229668786499L32.007111111111115,88.9625386906073L32.013333333333335,93.27720982900497L32.019555555555556,96.08089881472405L32.032000000000004,98.95947866356659L32.05688888888889,98.49776780752819L32.11288888888889,92.17371362776149L32.23733333333333,86.97639938062535L32.31822222222222,85.12890494486113L32.330666666666666,85.36465229446185L32.43022222222222,80.24893144121253L32.523555555555554,74.69798840976595L32.56711111111111,70.50546294228552L32.654222222222224,69.87510858303567L32.704,71.45686364875853L32.766222222222225,73.23082655801446L33.05866666666667,69.46648757353272L33.35111111111111,74.76438433976709L33.56888888888889,70.3248817976961L33.66222222222222,66.68641121445353L33.84888888888889,65.87400266977994L33.96088888888889,60.100566918617986L34.12266666666667,61.35241165432261L34.209777777777774,63.25867547435344L34.26577777777778,64.81947554544442L34.384,67.88442265435982L34.53955555555555,70.38761996716951L34.97511111111111,77.82192155573733L35.12444444444444,79.99536272446132L35.14933333333333,80.66934485316021L35.41688888888889,81.25498350124822L35.45422222222222,82.05512946275405L35.80266666666667,75.17263788152658L35.976888888888894,70.10310081845958L36.02044444444444,67.49748134155575L36.269333333333336,66.18154284503679L36.32533333333333,64.84756343941179L36.337777777777774,63.947020919964146L36.38133333333334,63.878984732516145L36.54311111111111,63.173968793679734L36.54933333333334,62.618204785366444L36.723555555555556,62.655649991621786L36.81688888888888,63.04258521307362L36.86666666666666,63.40718429035083L36.922666666666665,63.791719751042166L37.028444444444446,63.732702253151615L37.21511111111111,64.71410288685361L37.39555555555556,64.28430346413604L37.44533333333334,64.00405776360073L37.625777777777785,63.625859402766224L37.72533333333334,63.18561893889304L37.992888888888885,62.24884041660388L38.32266666666666,60.15540242501069L38.34133333333333,58.8902314442867L38.81422222222223,56.55815572371907L38.95733333333333,56.09620942372581L38.98844444444445,55.82315615235875L39.09422222222222,56.2146070207304L39.175111111111114,56.44487069875875L39.54222222222222,55.63549625176711L39.660444444444444,54.42522573052955L39.71644444444444,54.043908474320915L39.815999999999995,54.061109469816L39.903111111111116,53.87980649857822L39.984,53.60862470858763L40.05244444444445,53.74701326604752L40.17688888888889,52.84805034110583L40.22044444444444,52.33504764145391L40.264,51.79693903866861L40.30133333333333,51.85950135197319L40.35111111111111,51.75039343241495L40.43822222222222,51.897476459763226L40.51288888888889,51.49117640568116L40.599999999999994,51.64418270536248L41.28444444444444,55.10081054179658L41.30933333333333,57.295795997433544L41.37155555555555,58.871262812884254L41.44,59.50721625344245L41.65777777777778,60.54594919595888L41.769777777777776,61.25629697748292L41.87555555555556,61.51616696422259L41.99377777777777,61.90763578358269L42.099555555555554,62.39515493835788L42.19911111111111,63.56454910353288L42.24266666666667,64.53739150473757L42.385777777777776,65.4653793341475L42.392,66.0861754993532L42.48533333333333,66.9155394899806L42.54755555555556,67.60397261786228L42.67822222222222,68.02818035130356L42.690666666666665,68.33587710287954L42.827555555555556,68.68648216859567L42.858666666666664,68.99063490471886L43.03911111111111,68.74296697760609L43.05155555555556,68.19859972468004L43.08888888888889,67.41143574041708L43.24444444444444,65.29354489876376L43.29422222222222,61.86149769445389L43.41866666666667,58.86395040404865L43.611555555555555,57.14996287376921L43.623999999999995,56.23037625045325L43.67377777777777,55.7835969966098L43.717333333333336,55.63281052359609L43.81688888888889,56.1696429553548L43.82311111111111,56.55324904340026L43.83555555555556,56.80792391429857L44.10933333333333,56.985626889053094L44.30844444444444,57.67116355465838L44.42044444444445,58.589765784543815L44.48888888888889,59.18625705087294L44.538666666666664,59.656439212823486L44.62577777777778,59.64195222131286L44.632,59.57136656327171L44.65688888888889,59.66296528269727L45.01777777777777,60.51216534668134L45.167111111111105,61.25216820176796L45.18577777777778,61.51914054355838L45.559111111111115,61.34742025257236L45.80177777777777,61.41016409230886L45.82666666666666,61.63711295981804L45.95111111111112,62.09980546509976L46.41155555555555,62.96256036207532L46.44888888888889,63.46945227769288L46.46133333333333,63.71194013111156L46.83466666666667,63.07356619925717L47.400888888888886,61.46389076764231L47.432,60.60376156362801L47.50666666666667,60.19086325760418L47.6,60.32021723148668L47.824000000000005,60.98827918742562L47.91111111111111,61.357149793949475L47.96088888888889,61.38997842922616L47.96711111111111,61.35224832329041L48.57066666666667,61.07507339258727L48.583111111111116,60.924839634535985L48.589333333333336,60.854392754339L48.64533333333333,60.98391415316031L48.832,61.54042216323715L48.84444444444445,61.584201360838975L48.888,60.52546943729959L48.98755555555556,60.18127022687101L49,60.040407004973275L49.04355555555556,60.14139362753694L49.04977777777778,60.24851119864739L49.31733333333334,61.02729957311617L49.41688888888889,61.53659685259622L49.47288888888889,61.77743325117565L49.60355555555556,61.719937333365195L49.96444444444444,62.25324197345968L50.03288888888889,62.76080415090317L50.21333333333334,63.314919814112145L50.26933333333333,63.464768329049406L50.46844444444445,64.23564619945608L50.623999999999995,64.3445361800618L50.69244444444445,64.37776293442406L50.94133333333333,64.66901038936237L50.99733333333334,64.68480519563829L51.40177777777778,64.4157966620378L51.62577777777778,64.39199899713108L52.31644444444445,63.96929387497846L52.55288888888889,62.79743204264604L52.74577777777778,61.49088884442307L52.90133333333333,60.33064363628185L53.044444444444444,59.69090396302677L53.07555555555556,59.15869168125232L53.150222222222226,58.48354723264352L53.30577777777778,57.52852307682983L53.82844444444444,56.36868118599496L54.13955555555555,56.218774863215856L54.30133333333334,56.28732756861008L54.413333333333334,56.468317318486925L54.6,56.667184191064706L54.88,57.31618575877948L55.041777777777774,57.3857100285709L55.284444444444446,57.90593842730644L55.321777777777775,58.24993653336604L55.44622222222222,58.76847538494725L55.70755555555556,59.13878432001867L55.84444444444445,58.97631587437505L55.91288888888889,58.93766876370741L56,58.99096815771479L56.18666666666667,59.424200302282614L56.373333333333335,60.00085125322319L56.39822222222222,60.37321687910061L56.43555555555555,60.72939069970303L56.448,60.87856402339844L56.516444444444446,61.19366265739389L56.616,61.596781786712285L56.672,61.92428427721987L56.80888888888889,62.304848490869574L56.83377777777778,62.637069570252564L56.995555555555555,63.18367377950497L57.09511111111111,63.71268456002315L57.455999999999996,64.03842554581314L57.46222222222222,64.25753735358796L57.51822222222222,64.52453705582187L57.55555555555555,64.55736294337008L57.64888888888889,64.58518199293546L57.68,64.55204215150319L57.72977777777778,64.43872021735453L57.80444444444445,64.29965507448159L57.97866666666667,64.49216940081382L58.159111111111116,64.7844963674323L58.39555555555555,65.07506362227055L58.48266666666667,65.2620991684642L58.650666666666666,65.6031153093366L58.75644444444445,66.0485116654985L58.88088888888889,66.56525750245765L59.129777777777775,67.51168233922795L59.25422222222222,68.24285158378883L59.37866666666666,68.86508834876423L59.44711111111111,69.27099480937605L59.49066666666667,69.61093072122749L59.94488888888889,69.12010297791014L60.06933333333333,68.82560633191981L60.312000000000005,68.94015928846304L60.330666666666666,69.05045814956244L60.60444444444444,69.37275683668264L60.64177777777778,69.63196818701623L60.660444444444444,69.84488711757777L60.766222222222225,70.19482194187236L60.940444444444445,70.25215918303716L61.13955555555555,70.5469009070467L61.18933333333333,70.6655801528019L61.31377777777777,70.83915808161031L61.44444444444444,70.81079656100223L61.61866666666666,70.64003065953226L61.64355555555555,70.57315985995264L61.75555555555556,70.65559347055991L61.92977777777778,70.91355724085942L62.147555555555556,71.39598402350889L62.352888888888884,71.8186868725403L62.40888888888889,72.09924630511898L62.41511111111111,72.28527083509627L62.52088888888889,72.4239287764636L62.831999999999994,72.07172412817509L63.26133333333334,72.1734556623985L63.29866666666667,72.2898470323497L63.348444444444446,72.38050056464762L63.46666666666666,72.62591841797408L63.49155555555555,72.84075960505236L63.553777777777775,73.07189403169285L63.88355555555555,73.79276007528861L64.00177777777778,74.4150745994792L64.05777777777777,74.92195626061839L64.25688888888888,75.54054625011493L64.43111111111111,76.19693767533899L64.80444444444444,76.72588314715746L64.82933333333334,77.0423360949977L64.94755555555555,77.33362874306577L65.12177777777778,77.66225882123311L65.28355555555555,78.05278360694881L65.60711111111111,78.61428983122244L65.72533333333332,78.9012216276534L66.37244444444444,79.35151445547389L66.39111111111112,79.64989387798086L66.55911111111111,80.36289331798415L66.66488888888888,80.97261053016571L66.94488888888888,81.61274143273108L67.05688888888889,82.16333449014714L67.13155555555555,82.46710426884106L67.20622222222222,82.59285318420648L67.34933333333333,82.41788017491294L67.38666666666667,82.33642291867606L67.77244444444445,82.8839764824144L67.94044444444444,83.6043012756485L68.12088888888889,84.14871322026126L68.1768888888889,84.51217996424593L68.2328888888889,84.72245299426415L68.35111111111111,84.7937918639642L68.45066666666666,84.94564724781883L68.45688888888888,85.05321851264704L68.50666666666667,85.21534897620248L68.58133333333333,85.41165679535132L69.048,86.0755457987837L69.25955555555555,86.71652970972373L69.6391111111111,87.51218408502766L69.776,88.26053644512662L69.81333333333333,88.68552897748087L69.83200000000001,88.98785892949549L69.85066666666667,89.20962831870352L69.95022222222222,89.45564552244915L69.98133333333334,89.73812029419766L70.27377777777778,90.25874506031532L70.37955555555556,90.2077068245117L70.672,89.96601310704382L70.784,89.93792628845114L71.008,89.6407249426873L71.49955555555556,89.72105551099962L71.848,89.78089404306515L71.95377777777779,89.96864714742726L72.02222222222223,90.09058302951469L72.04711111111111,90.1762287516155L72.1528888888889,90.24963056437726L72.32711111111111,90.32700972195009L72.42044444444444,90.34744899532527L72.59466666666665,90.34149618781409L72.67555555555555,90.30325009725574L72.7751111111111,90.1838049072152L73.03644444444444,90.43183863032618L73.23555555555555,90.67297155778864L73.25422222222221,90.7343764729575L73.46577777777777,91.01759760542367L73.74577777777777,90.80850315668373L73.808,90.69721868382811L73.82666666666667,90.62925233094047L73.87022222222222,90.57711366205315L73.95111111111112,90.63413414590907L73.98222222222223,90.71283236285065L74.05688888888889,90.78371850931646L74.21244444444446,90.84393906762607L74.256,90.93647885424137L74.31200000000001,91.04063832820796L74.46133333333334,91.17599949873306L74.47377777777777,91.28513859293949L74.57955555555556,91.35259138692665L74.76622222222223,91.58011495559956L75.01511111111111,92.10064990216219L75.10222222222221,92.4944522076471L75.376,92.97173126301897L75.55022222222223,93.419900868903L75.656,93.57943406973511L75.75555555555556,93.69252636000054L75.83644444444444,93.71754864433125L75.88622222222222,93.62618262516692L75.89866666666667,93.48794750539797L75.98577777777777,93.02376380067075L76.06666666666666,92.7336133867562L76.09155555555554,92.56827965677147L76.11644444444444,92.50916950285655L76.19111111111111,92.56341376531249L76.50844444444445,92.84986418860036L76.60177777777777,93.18589278684176L76.72622222222222,93.55666196719477L76.75111111111111,93.82842724547186L76.75733333333334,93.99859009400247L76.78222222222222,94.15041357407115L76.79466666666667,94.29010809736928L76.98133333333332,94.50861342714728L77.06844444444445,94.71472728232438L77.0808888888889,94.85446679580154L77.24266666666666,95.20177972309548L77.39822222222223,95.55463244910685L77.46666666666667,95.88169099328314L77.64088888888888,96.04493971727729L77.65955555555556,96.16771667040845L78.38133333333333,96.30626547835739L78.59288888888888,96.56181729139371L78.76711111111112,96.7956802147716L78.77955555555556,96.94633699048089L78.8231111111111,97.03848939292745L78.87288888888888,97.02066918106743L78.99111111111111,97.13404531414437L79.43288888888888,97.00130407294714L79.51377777777778,96.96326158214266L79.68177777777777,96.9771149979154L79.73777777777778,96.98936572230572L79.77511111111112,97.03392256830166L79.79377777777778,97.0786620469929L79.83111111111111,97.16286268782865L79.85600000000001,97.24471663804196L80.15466666666667,97.72891192061513L80.22933333333333,98.03968513263949L80.24177777777777,98.21693537386463L80.25422222222223,98.33158486933827L80.33511111111112,98.40399674088539L80.35377777777778,98.43643667406306L80.6648888888889,98.69373329941308L80.81422222222223,99.1205128458969L80.87644444444445,99.48158846067372L81.02577777777778,99.41028855900157L81.06311111111111,99.27646192705737L81.11288888888889,99.1575880336529L81.19377777777778,99.05478946493658L81.28088888888888,99.03576757983329L81.30577777777778,99.06180702731582L81.33066666666666,99.03895828178867L81.37422222222223,99.0606619420728L81.38666666666667,99.1003405274797L81.46755555555556,99.13097002636476L81.54222222222222,99.19946033079081L81.68533333333333,99.30912965726046L81.77866666666667,99.47002211923107L81.93422222222222,99.55667574235628L81.94666666666667,99.62924045937552L82.08977777777777,99.74251493583493L82.32,99.84297368985631L82.46933333333332,99.9744264248742L82.52533333333334,100.0714441039404L82.57511111111111,100.16584128726963L82.6,100.23964096659083L82.78044444444444,100.53103745909716L82.89866666666666,100.69940467436417L82.94844444444443,100.77204544400747L82.95466666666667,100.80617005262114L82.96088888888889,100.84412268777687L82.96711111111112,100.85655524718761L82.99822222222221,100.81773535244467L83.17244444444444,100.85707538028244L83.19111111111111,100.87410321652698L83.24711111111112,100.91255881082883L83.37777777777777,101.09275716359538L83.48355555555555,101.27061182150321L83.52088888888889,101.40545800858185L83.73866666666666,101.44986264427573L83.75733333333332,101.50418165040054L84.29244444444444,101.63977643675827L84.31733333333332,101.74033434884075L84.8648888888889,101.59849550543018L84.97688888888888,101.5127943647968L85.02044444444444,101.4912654097717L85.1448888888889,101.20165612315182L85.66755555555555,100.53327034720805L85.74222222222222,100.22592307811388L85.76088888888889,100.02906569054969L85.77955555555555,99.89417672283194L85.96622222222221,99.83933706359123L86.02222222222223,99.7042387203935L86.05955555555555,99.65134827354927L86.07822222222222,99.63540387189012L86.10311111111112,99.70091822168601L86.27733333333333,99.58563384068836L86.68177777777778,99.57452350051891L86.80622222222222,99.5990501951676L86.81866666666666,99.61580588290096L86.856,99.58935621898763L86.89333333333335,99.63566121769769L87.12355555555555,99.73064785786164L87.17955555555555,99.81707440368949L87.21688888888889,99.85194479556462L87.23555555555555,99.9282546468471L87.34133333333334,99.89319222139686L87.416,99.82060032467473L87.65244444444446,99.70495336878554L87.6648888888889,99.62339750306765L87.92,99.27340151892287L88.57333333333334,98.94573601499907L88.67911111111111,98.84204724082778L88.77866666666667,98.81943172603492L88.90933333333334,98.83730148309253L88.92177777777778,98.8636373700725L89.4071111111111,98.78199186456366L89.47555555555554,98.6604907425175L89.7928888888889,98.46440097760743L89.86133333333333,98.30553169889197L89.88,98.2148873081382L89.89244444444445,98.15125182095629L89.99822222222222,98.1249217201677L90.30311111111112,98.09477562960427L90.38399999999999,98.10376636538771L90.52711111111111,98.26909914227645L90.56444444444443,98.24391404755296L90.65155555555556,98.24909419993992L90.71377777777776,98.29626621711513L90.81955555555555,98.34753330891294L90.90044444444445,98.32234327998735L90.95022222222222,98.26214550141671L90.95644444444444,98.22402233007068L91.07466666666666,98.2291059858948L91.1928888888889,98.30129399105013L91.20533333333333,98.35265997769885L91.31733333333334,98.44291136099376L91.49155555555556,98.58107553382804L91.52888888888889,98.70828413045456L91.55377777777777,98.81787702486541L91.62844444444444,98.94668672708053L91.67200000000001,98.992252148553L91.76533333333333,98.96339495024928L91.93955555555556,98.96113199616573L91.96444444444444,98.98674711361582L92.10133333333334,99.01572571262746L92.23200000000001,99.14768611231453L92.2631111111111,99.23470453524004L92.28177777777779,99.32071082653647L92.36266666666666,99.3962631515387L92.44977777777778,99.42608601401594L92.568,99.57852768033952L92.57422222222222,99.682828540386L92.64888888888889,99.7290565221199L92.66133333333335,99.75675814441956L92.97866666666667,99.9089469021089L93.11555555555556,100.07442681226289L93.13422222222222,100.19115746160249L186.82222222222222,76.18210668647231L186.85955555555557,76.66233543922868L186.95911111111113,105.4130432985447L186.96533333333332,120.10039288891683L187.27644444444445,142.5110074942907L187.33866666666668,158.99592329654695L187.62488888888888,142.0015128945923L187.6311111111111,131.9051621970902L187.78666666666666,117.35535763605661L187.91733333333335,105.5083301955713L188.40266666666665,107.06002905930595L188.44,109.92497293332514L188.4711111111111,113.14260506736812L188.78844444444445,119.60494635169259L188.9128888888889,124.60842531719541L188.93155555555555,127.85929980158059L188.9502222222222,130.53018000292326L189.224,135.6934460912201L189.35466666666667,137.65564311230503L189.6968888888889,140.53195447137554L189.87733333333335,137.6985668087637L190.09511111111112,132.3999568310163L190.15733333333336,128.934322576927L190.17600000000002,126.82343262505933L190.19466666666668,125.95917099757438L190.2008888888889,124.48740193869732L190.21955555555556,123.3859374620084L190.28177777777776,122.89137987479947L190.33155555555555,123.05640220752592L190.47466666666668,121.87256808347249L190.5928888888889,121.47340534488403L190.68622222222223,122.76874250388167L191.1031111111111,121.72592531571405L191.11555555555557,121.13424124079714L191.28977777777777,120.72860827301609L191.33955555555556,120.81403751525089L191.45777777777778,121.6503749570418L191.6071111111111,123.75769737250617L191.61955555555556,124.9303935461462L191.76888888888888,125.11155657131792L191.84977777777777,124.54183521365721L191.96177777777777,125.2230204611754L192.06755555555554,124.17394713579031L192.2231111111111,123.62477122556211L192.34755555555554,123.99761581904318L192.45333333333335,124.70460150531906L192.81422222222224,128.89915982420433L192.87644444444445,131.81319106540198L192.96977777777778,134.11061537814803L193.12533333333332,134.89740714164174L193.26844444444444,134.02829305369607L193.3368888888889,133.61014448427522L193.368,133.02538230909923L193.44266666666667,131.66775397595177L193.52977777777778,131.62492867789507L193.62311111111111,131.78577547360572L193.65422222222222,131.58021883421608L193.7351111111111,130.60512881430066L194.04,128.55168755621952L194.10222222222222,128.0314152107909L194.13333333333333,127.30333476461618L194.58133333333333,128.15401119707616L194.8488888888889,129.89289679955598L194.97333333333333,131.35276061791868L195.12266666666665,132.81082912980722L195.2222222222222,133.37542925297743L195.41511111111112,133.16309133779725L195.45866666666666,133.0983908868535L195.46488888888888,133.0035499988022L195.56444444444443,132.67178222286833L195.67644444444446,132.61581502406682L195.8071111111111,132.58854713469083L195.8631111111111,132.34200250166256L195.9813333333333,130.5491162720776L196.0871111111111,127.95576385161021L196.12444444444444,126.29845460355716L196.1368888888889,125.31771375000734L196.1928888888889,124.69148257529889L196.32355555555554,124.11822987291904L196.56622222222222,124.11903539117397L196.8897777777778,124.82688010225428L197.0702222222222,125.10302503400888L197.3688888888889,126.94664026197103L197.47466666666668,127.12337003288452L197.49955555555553,127.13989095769995L197.58044444444442,127.02717708875343L197.67999999999998,126.93108129101759L197.8231111111111,125.49209183214771L197.82933333333332,124.4405385122219L197.97866666666664,123.20915201100823L198.29600000000002,122.79503220792485L198.31466666666668,122.49648288772028L198.39555555555557,121.48354988029907L198.45155555555556,120.84450926024508L198.49511111111113,120.33193503402941L198.61955555555554,120.42209116568137L198.70044444444443,120.2126277086137L199.21066666666667,117.30823205691556L199.25422222222224,115.33430301417093L199.304,114.02953466933477L199.31644444444444,113.11149271226822L199.62133333333333,112.2413887017781L199.68977777777778,111.26919201814019L199.95111111111112,110.46481587769317L200.01333333333335,109.68559390474393L200.26222222222222,109.70919941764483L200.35555555555555,110.17747084439644L200.49866666666665,110.66458113277454L200.5048888888889,110.9449609475404L200.57333333333335,111.41959664565745L201.00266666666667,111.72857278193484L201.28266666666667,112.58286503318227L201.3262222222222,113.07813834764534L201.38844444444445,113.35131861935838L201.58755555555555,113.63732570511556L201.64977777777779,114.04289428056751L201.6746666666667,114.47413131988927L201.69955555555555,114.8771626794153L201.73688888888887,115.0847642567048L201.7928888888889,115.42278731741254L201.86755555555555,115.74253056572526L201.94222222222223,116.31839732007178L202.42755555555556,117.35819674537181L202.47111111111113,118.09642105701921L202.6391111111111,118.3596360171041L202.65155555555557,118.46147404218911L202.65777777777777,118.60224710765596L202.70755555555556,118.6653823188729L202.98133333333334,118.51454113315262L202.99377777777778,118.38415733808704L203.38577777777778,118.10160829922216L203.4791111111111,117.92789403379354L203.58488888888888,117.58242163527251L203.66577777777778,117.42454746644643L203.68444444444444,117.42818433809845L203.95200000000003,117.578312938026L203.9831111111111,117.6138113168547L204.08266666666665,117.88212152884427L204.0888888888889,117.9597800646188L204.1697777777778,118.24208026373162L204.21955555555556,118.18009839799265L204.22577777777778,118.18968104330452L204.3688888888889,118.09840559367987L204.41244444444445,118.11298913600825L204.56177777777776,117.96609126831761L204.6488888888889,117.62844452444128L204.68622222222223,117.38295305480607L204.7048888888889,117.20137060111782L204.97244444444445,117.83946819559353L205.0222222222222,118.35805278692017L205.07822222222222,118.56625290914403L205.22133333333332,119.20910873534692L205.28355555555555,119.64730859114175L205.37688888888889,120.09866948314576L205.38933333333335,120.36171416871593L205.47022222222225,120.52764691372418L205.4888888888889,120.69718837415999L205.61955555555556,121.07435674474135L205.75022222222225,120.717645961079L205.80622222222223,120.72214561583574L206.01155555555556,121.0679497115729L206.0551111111111,121.11401683049897L206.08622222222223,120.99924938653413L206.19822222222223,121.05215375885072L206.44088888888888,120.26709608593409L206.51555555555555,120.1238858363558L206.5591111111111,120.07639693388518L206.6088888888889,120.16066574555143L206.64,120.13164469898638L206.64622222222224,120.05184627354677L206.70222222222222,120.11737995612941L206.83288888888887,119.9304021910925L207.00088888888888,120.11009947753541L207.00711111111113,120.25995968757027L207.38044444444444,120.24857801781864L207.41777777777776,120.33021095148789L207.52977777777778,120.43781366796533L207.9466666666667,120.72250150949509L208.00266666666667,120.89677813834399L208.152,121.1662057947305L208.208,121.21091539330403L208.51288888888888,121.3310033480353L208.6311111111111,121.30075607299965L208.66844444444445,121.39992395401097L208.69955555555555,121.50473702764569L208.73688888888887,121.52294552812609L208.8488888888889,121.57529704862614L208.95466666666667,121.92292729076014L208.992,122.2491909328476L209.11022222222223,122.49087688108534L209.43377777777778,122.49845682847644L209.49599999999998,122.59373498718833L209.58311111111112,122.74564108110008L209.65777777777777,122.7167079022916L209.7697777777778,122.7180215341682L209.93155555555555,123.04942982332912L210.04355555555557,123.50836800895334L210.07466666666664,123.90115266658188L210.09955555555555,124.27058015833688L210.13688888888888,124.48170421463482L210.3297777777778,124.71143478120706L210.42933333333335,124.42707881906833L210.43555555555554,124.12291954504967L210.49155555555555,123.9807778152676L210.54133333333334,123.96779559569671L210.728,124.30231931517785L210.86488888888888,124.64071133560103L210.896,124.84237504497864L210.97066666666666,124.8709023266775L211.18222222222224,124.59762933669947L211.18844444444446,124.39417329322376L211.26311111111113,124.17289429242058L211.46844444444446,124.1610125621238L211.4933333333333,124.21122289419648L211.54933333333332,124.24878685903835L211.5617777777778,124.37863654632733L211.79822222222222,124.63705723726372L211.83555555555554,124.86274204995408L211.87911111111111,125.17229863611564L211.91022222222222,125.49284428720298L212.072,125.66401888349426L212.08444444444444,125.87280411373837L212.296,125.97106719524425L212.56355555555555,126.58172086781715L212.62577777777778,127.01869271937878L212.75644444444444,127.51155206408421L213.04266666666666,128.24440783766698L213.24800000000002,128.57141189877865L213.36,129.0202873653452L213.4968888888889,129.16867422498945L213.54666666666668,129.19697338007506L213.59644444444444,129.18198630608686L214.31199999999998,128.47874985574222L214.3431111111111,128.22275983356553L214.36177777777777,128.03834217228362L214.49866666666668,127.95828663967762L214.71644444444445,128.17541054286184L214.74755555555555,128.20426400540842L214.77866666666668,127.90845142625915L214.90311111111112,127.62924408211202L214.94044444444444,127.47812496002845L215.13955555555555,127.13692562804424L215.152,126.93009602442866L215.5751111111111,126.61604511389433L215.9857777777778,125.98766106158084L215.992,125.58525782698143L216.0791111111111,125.24955143853279L216.17866666666666,124.35472740128196L216.40888888888887,123.6306404196892L216.56444444444446,123.01613451979607L216.72,122.15747036899359L216.96888888888887,120.96789688089622L217.26133333333334,120.08297867905574L217.2862222222222,119.55624776680156L217.29866666666666,119.19962680100728L217.3671111111111,118.8606892094572L217.70933333333332,118.57572223338849L217.74044444444445,118.47453044410571L217.7902222222222,118.41290103528513L217.83377777777778,118.30386673887745L217.9271111111111,118.1839904634963L217.952,118.1299645691401L217.95822222222222,118.12366033728634L217.97688888888888,118.13688091716597L218.35644444444443,117.48612263370418L218.44977777777777,116.94719368558444L218.4808888888889,116.59285441840484L218.54311111111113,116.28709416273102L218.75466666666668,115.86777468134675L218.83555555555554,115.57873041397175L218.8417777777778,115.43385924676568L218.85422222222223,115.39947565662575L219.02844444444443,115.35985546271627L219.10933333333332,115.4621912775076L219.19644444444444,115.62789731846073L219.28977777777777,115.58278563991674L219.6008888888889,115.66969403848347L219.6071111111111,115.72366774812514L219.61333333333334,115.74778778991204L219.62577777777776,115.71299121165936L219.7937777777778,115.41872702470228L219.8062222222222,115.29161294955492L220.14222222222224,115.49790926372093L220.26666666666665,115.39619791266364L220.6026666666667,115.15645372722767L220.65866666666668,115.03205442341705L221.0568888888889,115.09586629815416L221.11911111111112,115.11853939025114L221.15022222222223,115.14937494831392L221.21866666666668,115.17782847068968L221.27466666666666,115.26052172173418L221.57333333333332,115.75538377278656L221.79733333333334,116.26207061000831L221.96533333333332,116.46314966313945L222.22666666666666,116.82577943583075L222.35733333333334,117.1220252977595L222.40088888888891,117.31897385518457L222.51288888888888,117.25089993238882L222.66222222222223,117.16384648180261L222.6871111111111,117.10859007177511L223.11644444444445,117.19665597997766L223.12266666666665,117.24801852180154L223.61422222222222,117.29775575324061L223.6702222222222,117.33596777632332L223.78844444444445,117.36213033029136L224.15555555555557,117.20491300003945L224.40444444444444,117.20651746974713L224.616,117.04195030442666L224.672,116.87238419003359L224.74666666666667,116.77029285399357L224.7902222222222,116.65087226371904L225.10755555555556,116.65152272785284L225.2008888888889,116.69555493119114L225.33777777777777,116.49444544269292L225.44977777777777,116.32528481455842L225.64888888888888,116.21306258185022L225.7422222222222,116.19302850808688L225.77955555555556,116.20474561361061L225.91022222222222,116.38514790718307L226.12177777777777,116.66236547103264L226.20888888888888,116.87086093110281L226.25244444444445,117.03059744645611L226.25866666666667,117.15450241452118L226.28977777777777,117.22761455944571L226.464,117.57282564503785L226.71911111111112,117.23500848688388L226.9928888888889,117.18388684319088L227.17333333333335,117.28857064084193L227.2728888888889,117.35458109281049L227.32888888888888,117.4285452693795L227.33511111111113,117.42864884913536L227.53422222222224,117.40771645295953L227.752,117.19344059221953L227.9262222222222,116.98722691293358L227.96977777777778,116.9439602074373L227.976,116.88744028671678L228.02577777777776,116.71001286664077L228.0631111111111,116.63140847300556L228.08177777777777,116.59704653033651L228.15644444444445,116.56633651023533L228.16266666666667,116.54875449994454L228.2,116.52603760158556L228.2062222222222,116.54827753779608L228.256,116.54794163750013L228.31822222222223,116.45018755940438L228.38044444444444,116.38868660657323L228.3928888888889,116.3726047452016L228.52977777777778,116.35138577078128L228.63555555555556,116.3790609708687L228.70399999999998,116.38332256503463L229.05244444444446,116.4401769687388L229.096,116.41665132341699L229.1271111111111,116.3795368879909L229.2328888888889,116.26217736064646L229.31377777777777,116.26751080309907L229.53155555555557,116.49292950126866L229.69955555555555,116.59751532252622L229.7368888888889,116.58409565553654L229.7991111111111,116.47852648416506L229.83644444444445,116.37808407020182L230.2222222222222,116.28613338870761L230.42755555555556,116.22579346896977L230.46488888888888,116.23699428320984L230.63288888888889,116.42007597494751L230.69511111111112,116.65494275217424L230.8008888888889,116.99888041094044L230.86933333333334,117.31253673121383L231.10577777777777,117.52327240398556L231.13066666666668,117.68013303810966L231.2613333333333,117.79404829343925L231.45422222222223,117.97654868603203L231.64711111111112,118.12329049968986L231.70933333333335,118.26454286613621L231.7902222222222,118.24433914922804L231.83999999999997,118.2213855630346L231.97066666666666,118.13682276285822L232.44355555555555,117.97205692694862L232.53066666666666,117.77230404714513L232.64266666666666,117.61085006534908L232.77955555555553,117.43355134093676L232.86044444444443,117.34116846897554L232.97244444444445,117.44863108741248L233.04088888888887,117.51085798708812L233.09688888888888,117.5533636377348L233.30844444444443,117.64209682739332L233.53244444444445,117.7100716054233L233.75022222222222,117.61697669147199L234.5591111111111,117.57778877805916L234.57155555555556,117.57942024941002L234.59022222222222,117.59896717116084L234.73333333333335,117.59923096683534L234.7457777777778,117.61018543354814L234.93866666666665,117.53390527315231L235.312,117.71010964242993L235.3182222222222,117.83891922908046L235.43644444444442,117.88464283154616L235.4488888888889,117.8894647789371L235.592,118.09702837660143L235.63555555555553,118.14337328788179L235.64177777777778,118.17038898299057L236.27644444444442,117.97756729501427L236.4008888888889,117.78760212646681L236.60622222222221,117.77986174813961L236.63733333333332,117.79529772992174L236.73688888888887,117.75905355689076L236.91733333333332,117.80728886650299L237.05422222222225,117.95827622488913L237.18488888888888,118.08878289029462L237.30311111111112,118.09779082754531L237.44622222222222,118.08861897599266L237.45244444444447,118.10265098936301L237.5271111111111,117.99132744626365L237.70133333333334,117.92087597940076L237.78222222222223,117.81927880819856L237.78844444444445,117.74442964301232L237.86933333333334,117.54974499646268L237.888,117.41155283035891L238,117.32322185267242L238.01244444444447,117.29135847705138L238.03111111111113,117.27804296384778L238.1431111111111,117.12896469337062L238.51022222222224,117.17269417704526L238.59733333333332,117.3079839292846L238.92711111111112,117.36531473062527L238.99555555555554,117.34734993494811L239.12,117.28287144492427L239.15111111111113,117.25121769899346L239.176,117.20662406441112L239.27555555555554,117.12426926706166L239.43111111111114,117.06986271151249L239.66133333333332,116.94856342559072L239.67377777777776,116.9068360858263L239.68622222222223,116.92104576427346L239.74844444444446,116.94722527503137L239.87911111111111,116.85996476554365L239.9848888888889,116.89327463950805L240.06577777777778,116.89455185798465L240.17155555555556,116.8683452991703L240.2088888888889,116.83866016793596L240.2151111111111,116.82826927142352L240.25244444444445,116.86929883263721L240.3706666666667,116.94082900108239L240.38933333333335,116.94260201586106L240.61955555555556,117.1814984901716L240.70666666666668,117.27722060823254L240.744,117.357547427081L240.78133333333332,117.43760458520829L240.90577777777779,117.51324477131232L240.92444444444445,117.573469247431L240.98044444444443,117.53125243545196L241.20444444444445,117.5847661802805L241.75199999999998,117.65749201235992L242.00711111111113,117.8253012720216L242.0257777777778,117.91687864205053L242.05066666666667,118.02601701105127L242.08800000000002,118.14094446947871L242.1751111111111,118.18160930186924L242.21866666666665,118.20166510886207L242.27466666666666,118.25778010217101L242.33066666666667,118.37699219422194L242.37422222222222,118.50227181218062L242.38666666666668,118.57365915836094L242.4551111111111,118.56458545721287L242.48622222222224,118.51048805115647L242.64177777777778,118.53000604985962L242.65422222222222,118.56578848289735L242.71644444444445,118.5252238126235L242.7848888888889,118.54760402510388L242.80355555555556,118.58142886203427L243.03377777777777,118.74191597486671L243.32622222222224,118.93669269910532L243.38844444444445,119.04856505650928L243.5066666666667,119.18385919725088L243.768,119.1044819283198L243.9111111111111,119.10740775631126L243.93599999999998,119.1287511275188L244.09777777777776,119.13612388884883L244.76355555555557,118.68097099850097L244.92533333333336,118.27435115092705L245.06222222222223,117.98058313795144L245.3048888888889,117.92188474338177L245.46044444444445,117.97950590134224L245.48533333333333,118.02490995216702L245.54755555555556,118.03479759626585L245.55377777777778,118.03591233928795L245.58488888888888,117.91808685326447L245.62844444444445,117.8140534917346L245.63466666666665,117.74991030453637L245.69688888888888,117.74989680623403L245.93955555555556,117.86947320804246L245.952,117.95433624330317L246.13866666666667,118.10183951701616L246.38133333333334,118.29612303641971L246.4,118.41114581148348L246.40622222222223,118.48001880956004L246.68622222222223,118.49748197503274L246.80444444444444,118.522079320594L246.82933333333332,118.55294409504194L246.95377777777776,118.65319046444093L247.00977777777777,118.75217995087144L247.0533333333333,118.75251110219855L247.23377777777776,118.74349610700547L247.44533333333334,118.89299660142864L247.66933333333333,118.956796593765L247.92444444444445,119.10210656362744L248.20444444444445,119.30228328250635L248.2542222222222,119.3732613774704L248.34133333333335,119.35580102518607L248.56533333333334,119.11670583436138L248.584,118.9978302714184L248.64622222222224,118.86130579691856L248.85777777777778,118.87439406145651L248.88888888888889,118.88388227360869" style="fill: none;" fill="none"></path></g></g></g></g><g opacity="0.2"><g><g><g><path stroke="rgb(255, 112, 67)" stroke-width="2px" d="M31.39111111111111,11.343144655227604L31.49066666666667,39.74398005008695L31.565333333333335,62.420021772384615L31.695999999999998,90.92917072772978L31.78933333333333,98.36122173070906L32.007111111111115,100.76293426752089L32.013333333333335,99.44725859165192L32.019555555555556,100.16870427131651L32.032000000000004,103.2048248052597L32.05688888888889,97.81218099594115L32.11288888888889,82.74499106407163L32.23733333333333,79.20871156454085L32.31822222222222,82.36369568109511L32.330666666666666,85.71781146526335L32.43022222222222,72.58136349916455L32.523555555555554,66.37548881769177L32.56711111111111,64.21844887733458L32.654222222222224,68.92973709106442L32.704,73.82925528287886L32.766222222222225,75.891608774662L33.05866666666667,63.820185542106614L33.35111111111111,82.71105515956877L33.56888888888889,63.66571563482282L33.66222222222222,61.228748440742464L33.84888888888889,64.65539562702176L33.96088888888889,51.44043791294095L34.12266666666667,63.230175554752336L34.209777777777774,66.11806827783582L34.26577777777778,67.16067421436307L34.384,72.4818416237831L34.53955555555555,74.14241510629653L34.97511111111111,88.9733724594116L35.12444444444444,83.25552421808241L35.14933333333333,81.68031799793242L35.41688888888889,82.13344144821166L35.45422222222222,83.25534838438031L35.80266666666667,64.84890061616895L35.976888888888894,62.498795270919786L36.02044444444444,63.58905214071271L36.269333333333336,64.2076351046562L36.32533333333333,62.84659433364865L36.337777777777774,62.59620714187619L36.38133333333334,63.77693045139311L36.54311111111111,62.116444885730715L36.54933333333334,61.78455877304076L36.723555555555556,62.71181780099866L36.81688888888888,63.62298804521558L36.86666666666666,63.95408290624616L36.922666666666665,64.36852294206618L37.028444444444446,63.64417600631711L37.21511111111111,66.18620383739469L37.39555555555556,63.63960433006284L37.44533333333334,63.583689212799044L37.625777777777785,63.05856186151502L37.72533333333334,62.525258243083925L37.992888888888885,60.84367263317105L38.32266666666666,57.01524543762204L38.34133333333333,56.99247497320171L38.81422222222223,53.060042142868014L38.95733333333333,55.40328997373578L38.98844444444445,55.413576245307894L39.09422222222222,56.80178332328792L39.175111111111114,56.79026621580121L39.54222222222222,54.42143458127971L39.660444444444444,52.60981994867322L39.71644444444444,53.47193259000774L39.815999999999995,54.08691096305844L39.903111111111116,53.607852041721316L39.984,53.20185202360149L40.05244444444445,53.95459610223766L40.17688888888889,51.49960595369335L40.22044444444444,51.56554359197612L40.264,50.989776134490924L40.30133333333333,51.9533448219299L40.35111111111111,51.58673155307767L40.43822222222222,52.118101000785785L40.51288888888889,50.88172632455823L40.599999999999994,51.87369215488431L41.28444444444444,60.285752296447725L41.30933333333333,60.5882741808891L41.37155555555555,61.234463036060305L41.44,60.46114641427991L41.65777777777778,62.10404860973355L41.769777777777776,62.321818649768815L41.87555555555556,61.905971944332094L41.99377777777777,62.49483901262282L42.099555555555554,63.126433670520754L42.19911111111111,65.31864035129544L42.24266666666667,65.99665510654448L42.385777777777776,66.8573610782623L42.392,67.01736974716185L42.48533333333333,68.1595854759216L42.54755555555556,68.63662230968472L42.67822222222222,68.66449195146559L42.690666666666665,68.79742223024367L42.827555555555556,69.21238976716992L42.858666666666664,69.44686400890347L43.03911111111111,68.37146508693694L43.05155555555556,67.38204884529111L43.08888888888889,66.2306897640228L43.24444444444444,62.116708636283846L43.29422222222222,56.713426887989L43.41866666666667,54.36762946844097L43.611555555555555,54.57898157835004L43.623999999999995,54.85099631547925L43.67377777777777,55.1134281158447L43.717333333333336,55.40663081407544L43.81688888888889,56.97489160299298L43.82311111111111,57.128658175468416L43.83555555555556,57.189936220645876L44.10933333333333,57.25218135118482L44.30844444444444,58.69946855306621L44.42044444444445,59.967669129371615L44.48888888888889,60.08099395036696L44.538666666666664,60.36171245574948L44.62577777777778,59.62022173404692L44.632,59.46548807620999L44.65688888888889,59.800363361835466L45.01777777777777,61.78596544265744L45.167111111111105,62.362172484397874L45.18577777777778,61.91959905624388L45.559111111111115,61.08983981609343L45.80177777777777,61.504279851913424L45.82666666666666,61.97753626108167L45.95111111111112,62.79384422302243L46.41155555555555,64.25669270753859L46.44888888888889,64.22979015111922L46.46133333333333,64.0756719112396L46.83466666666667,62.1160053014755L47.400888888888886,59.049377620220156L47.432,59.31356775760648L47.50666666666667,59.5715157985687L47.6,60.514248192310305L47.824000000000005,61.99037212133405L47.91111111111111,61.91045570373532L47.96088888888889,61.439221382141085L47.96711111111111,61.29565316438672L48.57066666666667,60.65931099653241L48.583111111111116,60.6994889974594L48.589333333333336,60.748722434043856L48.64533333333333,61.17819625139235L48.832,62.37518417835233L48.84444444444445,61.64987015724179L48.888,58.937371551990466L48.98755555555556,59.66497141122815L49,59.829112172126756L49.04355555555556,60.292873561382265L49.04977777777778,60.40918755531308L49.31733333333334,62.19548213481902L49.41688888888889,62.300542771816225L49.47288888888889,62.13868784904477L49.60355555555556,61.633693456649766L49.96444444444444,63.053198933601365L50.03288888888889,63.52214741706847L50.21333333333334,64.1460933089256L50.26933333333333,63.68954110145566L50.46844444444445,65.39196300506589L50.623999999999995,64.50787115097043L50.69244444444445,64.42760306596755L50.94133333333333,65.10588157176969L50.99733333333334,64.70849740505217L51.40177777777778,64.01228386163709L51.62577777777778,64.35630249977109L52.31644444444445,63.335236191749544L52.55288888888889,61.03963929414746L52.74577777777778,59.53107404708861L52.90133333333333,58.590275824069934L53.044444444444444,58.731294453144045L53.07555555555556,58.36037325859067L53.150222222222226,57.4708305597305L53.30577777777778,56.09598684310909L53.82844444444444,54.62891834974286L54.13955555555555,55.99391537904735L54.30133333333334,56.39015662670133L54.413333333333334,56.73980194330211L54.6,56.96548449993131L54.88,58.289688110351534L55.041777777777774,57.48999643325803L55.284444444444446,58.686281025409656L55.321777777777775,58.76593369245525L55.44622222222222,59.546283662319155L55.70755555555556,59.694247722625704L55.84444444444445,58.7326132059097L55.91288888888889,58.87969809770581L56,59.07091724872586L56.18666666666667,60.07404851913449L56.373333333333335,60.865827679634066L56.39822222222222,60.93176531791684L56.43555555555555,61.26365143060683L56.448,61.10232400894162L56.516444444444446,61.666310608386965L56.616,62.201460480689974L56.672,62.415538012981386L56.80888888888889,62.87569481134413L56.83377777777778,63.13540118932721L56.995555555555555,64.00358009338376L57.09511111111111,64.50620073080061L57.455999999999996,64.52703702449797L57.46222222222222,64.58620506525037L57.51822222222222,64.9250366091728L57.55555555555555,64.6066017746925L57.64888888888889,64.6269105672836L57.68,64.50233238935468L57.72977777777778,64.26873731613156L57.80444444444445,64.09105736017226L57.97866666666667,64.78094089031217L58.159111111111116,65.2229868173599L58.39555555555555,65.51091450452802L58.48266666666667,65.5426524877548L58.650666666666666,66.11463952064511L58.75644444444445,66.71660619974134L58.88088888888889,67.3403762578964L59.129777777777775,68.93131959438321L59.25422222222222,69.33960545063016L59.37866666666666,69.79844349622724L59.44711111111111,69.87985450029372L59.49066666666667,70.12083458900449L59.94488888888889,68.3838613629341L60.06933333333333,68.3838613629341L60.312000000000005,69.11198872327802L60.330666666666666,69.21590644121167L60.60444444444444,69.85620486736295L60.64177777777778,70.02078521251676L60.660444444444444,70.16426551342008L60.766222222222225,70.71972417831418L60.940444444444445,70.33816504478452L61.13955555555555,70.98901349306104L61.18933333333333,70.84359902143477L61.31377777777777,71.09952497482297L61.44444444444444,70.7682542800903L61.61866666666666,70.38388180732726L61.64355555555555,70.47285366058347L61.75555555555556,70.77924388647078L61.92977777777778,71.30050289630887L62.147555555555556,72.11962419748305L62.352888888888884,72.45274114608763L62.40888888888889,72.52008545398711L62.41511111111111,72.56430763006209L62.52088888888889,72.6319156885147L62.831999999999994,71.54341715574262L63.26133333333334,72.32605296373364L63.29866666666667,72.46443408727644L63.348444444444446,72.5164808630943L63.46666666666666,72.9940451979637L63.49155555555555,73.1630213856697L63.553777777777775,73.41859567165373L63.88355555555555,74.8740591406822L64.00177777777778,75.34854638576506L64.05777777777777,75.68227875232694L64.25688888888888,76.46843123435973L64.43111111111111,77.18152481317519L64.80444444444444,77.51930135488507L64.82933333333334,77.51701551675795L64.94755555555555,77.77056771516799L65.12177777777778,78.15520393848416L65.28355555555555,78.63857078552245L65.60711111111111,79.45654916763303L65.72533333333332,79.33161932229994L66.37244444444444,80.02695369720458L66.39111111111112,80.09746301174161L66.55911111111111,81.43239247798918L66.66488888888888,81.88718634843825L66.94488888888888,82.57293778657912L67.05688888888889,82.98922407627103L67.13155555555555,82.92275893688199L67.20622222222222,82.78147655725478L67.34933333333333,82.15542066097258L67.38666666666667,82.21423703432082L67.77244444444445,83.70530682802197L67.94044444444444,84.68478846549986L68.12088888888889,84.96533113718031L68.1768888888889,85.05738008022307L68.2328888888889,85.03786253929137L68.35111111111111,84.90080016851424L68.45066666666666,85.17343032360075L68.45688888888888,85.2145754098892L68.50666666666667,85.45854467153548L68.58133333333333,85.70611852407455L69.048,87.07137930393218L69.25955555555555,87.67800557613371L69.6391111111111,88.70566564798354L69.776,89.38306498527525L69.81333333333333,89.3230177760124L69.83200000000001,89.44135385751723L69.85066666666667,89.5422824025154L69.95022222222222,89.82467132806777L69.98133333333334,90.16183245182036L70.27377777777778,91.03968220949172L70.37955555555556,90.13114947080611L70.672,89.60347253084181L70.784,89.89579606056212L71.008,89.19492292404173L71.49955555555556,89.84155136346816L71.848,89.87065184116362L71.95377777777779,90.25027680397032L72.02222222222223,90.27348685264586L72.04711111111111,90.30469733476637L72.1528888888889,90.35973328351973L72.32711111111111,90.44307845830916L72.42044444444444,90.37810790538786L72.59466666666665,90.33256697654723L72.67555555555555,90.24588096141814L72.7751111111111,90.00463712215422L73.03644444444444,90.80388921499251L73.23555555555555,91.03467094898222L73.25422222222221,90.82648384571074L73.46577777777777,91.44242930412291L73.74577777777777,90.4948614835739L73.808,90.53029197454451L73.82666666666667,90.52730280160903L73.87022222222222,90.49890565872191L73.95111111111112,90.71966487169264L73.98222222222223,90.83087968826293L74.05688888888889,90.89004772901534L74.21244444444446,90.93426990509032L74.256,91.07528853416441L74.31200000000001,91.19687753915785L74.46133333333334,91.3790412545204L74.47377777777777,91.4488472342491L74.57955555555556,91.45377057790755L74.76622222222223,91.921400308609L75.01511111111111,92.88145232200621L75.10222222222221,93.08515566587447L75.376,93.68764984607695L75.55022222222223,94.09215527772902L75.656,93.81873387098311L75.75555555555556,93.8621647953987L75.83644444444444,93.75508207082747L75.88622222222222,93.48913359642027L75.89866666666667,93.28059482574461L75.98577777777777,92.32748824357985L76.06666666666666,92.29838776588439L76.09155555555554,92.32027906179427L76.11644444444444,92.42050427198409L76.19111111111111,92.64478015899657L76.50844444444445,93.27953982353209L76.60177777777777,93.68993568420409L76.72622222222222,94.11281573772429L76.75111111111111,94.23607516288756L76.75733333333334,94.25383436679839L76.78222222222222,94.37814879417418L76.79466666666667,94.49964988231658L76.98133333333332,94.83637142181395L77.06844444444445,95.02389806509017L77.0808888888889,95.06407606601714L77.24266666666666,95.72274911403655L77.39822222222223,96.08391153812408L77.46666666666667,96.37227880954741L77.64088888888888,96.28981280326842L77.65955555555556,96.35188210010529L78.38133333333333,96.51408869028091L78.59288888888888,96.94514501094817L78.76711111111112,97.14647459983824L78.77955555555556,97.17232215404509L78.8231111111111,97.17671799659728L78.87288888888888,96.99393886327742L78.99111111111111,97.3041095137596L79.43288888888888,96.80219221115111L79.51377777777778,96.90619784593581L79.68177777777777,96.99789512157439L79.73777777777778,97.00774180889128L79.77511111111112,97.10075783729552L79.79377777777778,97.14577126502991L79.83111111111111,97.28916364908217L79.85600000000001,97.36749756336211L80.15466666666667,98.45520484447478L80.22933333333333,98.50584495067595L80.24177777777777,98.4828107357025L80.25422222222223,98.50355911254883L80.33511111111112,98.51261454820632L80.35377777777778,98.48509657382965L80.6648888888889,99.07967823743819L80.81422222222223,99.7606821656227L80.87644444444445,100.02320188283919L81.02577777777778,99.30333870649336L81.06311111111111,99.07572197914122L81.11288888888889,98.97927719354628L81.19377777777778,98.90059161186217L81.28088888888888,99.00723475217818L81.30577777777778,99.10086619853972L81.33066666666666,99.00468516349792L81.37422222222223,99.09321743249892L81.38666666666667,99.15985840559004L81.46755555555556,99.17691427469254L81.54222222222222,99.30219578742981L81.68533333333333,99.47363364696503L81.77866666666667,99.71136081218718L81.93422222222222,99.6866561770439L81.94666666666667,99.73808753490447L82.08977777777777,99.91242665052413L82.32,99.9936618208885L82.46933333333332,100.17160552740096L82.52533333333334,100.2169706225395L82.57511111111111,100.30743706226347L82.6,100.35034048557281L82.78044444444444,100.96813219785689L82.89866666666666,100.95195549726486L82.94844444444443,100.8810065984726L82.95466666666667,100.85735696554183L82.96088888888889,100.90105164051056L82.96711111111112,100.87520408630371L82.99822222222221,100.75950551033019L83.17244444444444,100.91608542203903L83.19111111111111,100.89964497089385L83.24711111111112,100.97024220228194L83.37777777777777,101.3630546927452L83.48355555555555,101.53739380836485L83.52088888888889,101.60772728919981L83.73866666666666,101.51646959781645L83.75733333333332,101.58566015958785L84.29244444444444,101.84316861629486L84.31733333333332,101.89117121696472L84.8648888888889,101.38573724031447L84.97688888888888,101.38424265384674L85.02044444444444,101.45897197723387L85.1448888888889,100.76724219322203L85.66755555555555,99.53069168329237L85.74222222222222,99.7649021744728L85.76088888888889,99.73377960920332L85.77955555555555,99.69184327125548L85.96622222222221,99.7570775747299L86.02222222222223,99.50159120559692L86.05955555555555,99.57201260328293L86.07822222222222,99.61148726940154L86.10311111111112,99.79918974637984L86.27733333333333,99.41270726919174L86.68177777777778,99.55785799026488L86.80622222222222,99.63584023714066L86.81866666666666,99.64093941450118L86.856,99.54968172311781L86.89333333333335,99.70511871576308L87.12355555555555,99.87312781810759L87.17955555555555,99.94671422243117L87.21688888888889,99.90425038337706L87.23555555555555,100.04271942377089L87.34133333333334,99.84059858322142L87.416,99.71171247959136L87.65244444444446,99.53148293495177L87.6648888888889,99.50106370449066L87.92,98.74840754270552L88.57333333333334,98.45423775911331L88.67911111111111,98.68651407957076L88.77866666666667,98.78550845384598L88.90933333333334,98.86410611867905L88.92177777777778,98.90314120054245L89.4071111111111,98.65952360630034L89.47555555555554,98.47823905944824L89.7928888888889,98.17026633024214L89.86133333333333,98.06722778081892L89.88,98.07892072200775L89.89244444444445,98.05579859018324L89.99822222222222,98.08542656898497L90.30311111111112,98.04955649375914L90.38399999999999,98.11725246906279L90.52711111111111,98.51709830760954L90.56444444444443,98.20613640546797L90.65155555555556,98.25686442852019L90.71377777777776,98.36702424287795L90.81955555555555,98.4244339466095L90.90044444444445,98.28455823659895L90.95022222222222,98.17184883356093L90.95644444444444,98.16683757305144L91.07466666666666,98.23673146963118L91.1928888888889,98.4095759987831L91.20533333333333,98.42970895767212L91.31733333333334,98.57828843593596L91.49155555555556,98.78832179307936L91.52888888888889,98.89909702539443L91.55377777777777,98.98226636648178L91.62844444444444,99.13990128040312L91.67200000000001,99.06060028076172L91.76533333333333,98.92010915279387L91.93955555555556,98.95773756504059L91.96444444444444,99.0251697897911L92.10133333333334,99.059193611145L92.23200000000001,99.34562671184538L92.2631111111111,99.36523216962814L92.28177777777779,99.44972026348113L92.36266666666666,99.50959163904189L92.44977777777778,99.47082030773161L92.568,99.80719017982481L92.57422222222222,99.83927983045577L92.64888888888889,99.79839849472044L92.66133333333335,99.79831057786942L92.97866666666667,100.13723003864288L93.11555555555556,100.32264667749405L93.13422222222222,100.36625343561171L186.82222222222222,40.16853052377695L186.85955555555557,77.38267856836316L186.95911111111113,148.5391050875187L186.96533333333332,142.1314172744751L187.27644444444445,176.1269294023514L187.33866666666668,183.72329699993136L187.62488888888888,116.50989729166031L187.6311111111111,116.76063615083694L187.78666666666666,95.53065079450606L187.91733333333335,87.73778903484344L188.40266666666665,109.38757735490799L188.44,114.22238874435425L188.4711111111111,117.96905326843262L188.78844444444445,129.29845827817917L188.9128888888889,132.11364376544952L188.93155555555555,132.7356115281582L188.9502222222222,134.53650030493736L189.224,143.43834522366524L189.35466666666667,140.59893864393234L189.6968888888889,144.84642150998116L189.87733333333335,133.44848531484604L190.09511111111112,124.45204186439514L190.15733333333336,123.73587119579315L190.17600000000002,123.657097697258L190.19466666666668,124.6627785563469L190.2008888888889,122.27974835038185L190.21955555555556,121.73374074697495L190.28177777777776,122.14954349398613L190.33155555555555,123.30393570661545L190.47466666666668,120.09681689739227L190.5928888888889,120.87466123700142L190.68622222222223,124.71174824237823L191.1031111111111,120.16169953346252L191.11555555555557,120.24671512842178L191.28977777777777,120.12015882134438L191.33955555555556,120.94218137860298L191.45777777777778,122.90488111972809L191.6071111111111,126.91868099570274L191.61955555555556,126.68943780660629L191.76888888888888,125.38330110907555L191.84977777777777,123.68725317716599L191.96177777777777,126.24479833245277L192.06755555555554,122.60033714771271L192.2231111111111,122.80100736021996L192.34755555555554,124.55688270926476L192.45333333333335,125.76508003473282L192.81422222222224,135.1909973025322L192.87644444444445,136.1842379271984L192.96977777777778,137.55675184726715L193.12533333333332,136.0775947868824L193.26844444444444,132.72462192177773L193.3368888888889,132.98292163014412L193.368,132.14823904633522L193.44266666666667,129.63131147623062L193.52977777777778,131.56069073081017L193.62311111111111,132.02704566717148L193.65422222222222,131.2718838751316L193.7351111111111,129.14249378442764L194.04,125.4715256690979L194.10222222222222,127.25100669264793L194.13333333333333,126.21121409535408L194.58133333333333,129.43002584576607L194.8488888888889,132.50122520327568L194.97333333333333,133.5425563454628L195.12266666666665,134.99793189764023L195.2222222222222,134.2223294377327L195.41511111111112,132.84458446502686L195.45866666666666,133.00134021043777L195.46488888888888,132.86128866672516L195.56444444444443,132.1741305589676L195.67644444444446,132.5318642258644L195.8071111111111,132.54764530062675L195.8631111111111,131.9721855521202L195.9813333333333,127.85978692770004L196.0871111111111,124.06573522090912L196.12444444444444,123.81249073147774L196.1368888888889,123.8466024696827L196.1928888888889,123.75213581323624L196.32355555555554,123.25835081934929L196.56622222222222,124.12024366855621L196.8897777777778,125.88864716887474L197.0702222222222,125.51724243164062L197.3688888888889,129.71206310391426L197.47466666666668,127.38846468925476L197.49955555555553,127.16467234492302L197.58044444444442,126.85810628533363L197.67999999999998,126.78693759441376L197.8231111111111,123.3336076438427L197.82933333333332,122.86320853233337L197.97866666666664,121.3620722591877L198.29600000000002,122.17385250329971L198.31466666666668,122.04865890741348L198.39555555555557,119.96415036916733L198.45155555555556,119.88594833016396L198.49511111111113,119.56307369470596L198.61955555555554,120.55732536315918L198.70044444444443,119.89843252301216L199.21066666666667,112.95163857936859L199.25422222222224,112.37340945005417L199.304,112.07238215208054L199.31644444444444,111.73442977666855L199.62133333333333,110.93623268604279L199.68977777777778,109.81089699268341L199.95111111111112,109.2582516670227L200.01333333333335,108.51676094532013L200.26222222222222,109.74460768699646L200.35555555555555,110.87987798452377L200.49866666666665,111.39524656534195L200.5048888888889,111.36553066968918L200.57333333333335,112.13155019283295L201.00266666666667,112.19203698635101L201.28266666666667,113.86430341005325L201.3262222222222,113.82104831933975L201.38844444444445,113.76108902692795L201.58755555555555,114.06633633375168L201.64977777777779,114.65124714374542L201.6746666666667,115.12098687887192L201.69955555555555,115.48170971870422L201.73688888888887,115.3961666226387L201.7928888888889,115.92982190847397L201.86755555555555,116.22214543819427L201.94222222222223,117.18219745159149L202.42755555555556,118.91789588332176L202.47111111111113,119.20375752449036L202.6391111111111,118.75445845723152L202.65155555555557,118.61423107981682L202.65777777777777,118.81340670585632L202.70755555555556,118.76008513569832L202.98133333333334,118.2882793545723L202.99377777777778,118.18858164548874L203.38577777777778,117.67778474092484L203.4791111111111,117.66732263565063L203.58488888888888,117.06421303749084L203.66577777777778,117.18773621320724L203.68444444444444,117.43363964557648L203.95200000000003,117.80350583791733L203.9831111111111,117.6670588850975L204.08266666666665,118.28458684682846L204.0888888888889,118.07626786828041L204.1697777777778,118.66553056240082L204.21955555555556,118.08712559938431L204.22577777777778,118.20405501127243L204.3688888888889,117.96149241924286L204.41244444444445,118.13486444950104L204.56177777777776,117.74574446678162L204.6488888888889,117.12197440862656L204.68622222222223,117.01471585035324L204.7048888888889,116.92899692058563L204.97244444444445,118.79661458730698L205.0222222222222,119.13592967391014L205.07822222222222,118.8785530924797L205.22133333333332,120.17339247465134L205.28355555555555,120.30460837483406L205.37688888888889,120.77571082115173L205.38933333333335,120.75628119707108L205.47022222222225,120.77654603123665L205.4888888888889,120.95150056481361L205.61955555555556,121.6401093006134L205.75022222222225,120.1825797855854L205.80622222222223,120.72889509797096L206.01155555555556,121.58665585517883L206.0551111111111,121.18311750888824L206.08622222222223,120.82709822058678L206.19822222222223,121.13151031732559L206.44088888888888,119.08950957655907L206.51555555555555,119.90907046198845L206.5591111111111,120.00516358017921L206.6088888888889,120.28706896305084L206.64,120.08811312913895L206.64622222222224,119.93214863538742L206.70222222222222,120.21568048000336L206.83288888888887,119.64993554353714L207.00088888888888,120.37964540719986L207.00711111111113,120.4847500026226L207.38044444444444,120.23150551319122L207.41777777777776,120.45266035199165L207.52977777777778,120.5992177426815L207.9466666666667,121.14953327178955L208.00266666666667,121.15819308161736L208.152,121.57034727931023L208.208,121.2779797911644L208.51288888888888,121.5111352801323L208.6311111111111,121.25538516044617L208.66844444444445,121.54867577552795L208.69955555555555,121.66195663809776L208.73688888888887,121.55025827884674L208.8488888888889,121.65382432937622L208.95466666666667,122.44437265396118L208.992,122.73858639597893L209.11022222222223,122.853405803442L209.43377777777778,122.50982674956322L209.49599999999998,122.73665222525597L209.58311111111112,122.9735002219677L209.65777777777777,122.67330813407898L209.7697777777778,122.71999198198318L209.93155555555555,123.54654225707054L210.04355555555557,124.19677528738976L210.07466666666664,124.49032965302467L210.09955555555555,124.82472139596939L210.13688888888888,124.7983902990818L210.3297777777778,125.05603063106537L210.42933333333335,124.00054487586021L210.43555555555554,123.66668063402176L210.49155555555555,123.7675652205944L210.54133333333334,123.94832226634026L210.728,124.80410489439964L210.86488888888888,125.14829936623573L210.896,125.14487060904503L210.97066666666666,124.91369324922562L211.18222222222224,124.18771985173225L211.18844444444446,124.08898922801018L211.26311111111113,123.8409757912159L211.46844444444446,124.14318996667862L211.4933333333333,124.28653839230537L211.54933333333332,124.30513280630112L211.5617777777778,124.57341107726097L211.79822222222222,125.02468827366829L211.83555555555554,125.20126926898956L211.87911111111111,125.63663351535797L211.91022222222222,125.973662763834L212.072,125.92078077793121L212.08444444444444,126.18598195910454L212.296,126.11846181750298L212.56355555555555,127.49770137667656L212.62577777777778,127.67415049672127L212.75644444444444,128.25084108114243L213.04266666666666,129.34369149804115L213.24800000000002,129.0619179904461L213.36,129.69360056519508L213.4968888888889,129.3912545144558L213.54666666666668,129.23942211270332L213.59644444444444,129.1595056951046L214.31199999999998,127.42389518022537L214.3431111111111,127.8387748003006L214.36177777777777,127.7617156803608L214.49866666666668,127.83820334076881L214.71644444444445,128.50109639763832L214.74755555555555,128.2475441992283L214.77866666666668,127.46473255753517L214.90311111111112,127.21043306589127L214.94044444444444,127.25144627690315L215.13955555555555,126.62512663006783L215.152,126.6198516190052L215.5751111111111,126.14496874809265L215.9857777777778,125.04508498311043L215.992,124.9816529750824L216.0791111111111,124.74599185585976L216.17866666666666,123.01249134540558L216.40888888888887,122.54450994729996L216.56444444444446,122.09437566995621L216.72,120.86947414278984L216.96888888888887,119.1835366487503L217.26133333333334,118.75560137629509L217.2862222222222,118.76615139842033L217.29866666666666,118.6646953523159L217.3671111111111,118.35228282213211L217.70933333333332,118.1482717692852L217.74044444444445,118.32274276018143L217.7902222222222,118.32045692205429L217.83377777777778,118.14031529426575L217.9271111111111,118.00417605042458L217.952,118.04892572760582L217.95822222222222,118.11420398950577L217.97688888888888,118.1567117869854L218.35644444444443,116.50998520851135L218.44977777777777,116.13880026340485L218.4808888888889,116.06134551763535L218.54311111111113,115.82845377922058L218.75466666666668,115.23879545927048L218.83555555555554,115.14516401290894L218.8417777777778,115.21655249595642L218.85422222222223,115.34790027141571L219.02844444444443,115.30042517185211L219.10933333333332,115.61569499969482L219.19644444444444,115.87645637989044L219.28977777777777,115.51511812210083L219.6008888888889,115.80005663633347L219.6071111111111,115.80462831258774L219.61333333333334,115.78396785259247L219.62577777777776,115.66079634428024L219.7937777777778,114.97733074426651L219.8062222222222,115.10094183683395L220.14222222222224,115.80735373497009L220.26666666666665,115.24363088607788L220.6026666666667,114.79683744907379L220.65866666666668,114.84545546770096L221.0568888888889,115.19158411026001L221.11911111111112,115.1525490283966L221.15022222222223,115.19562828540802L221.21866666666668,115.22050875425339L221.27466666666666,115.38456159830093L221.57333333333332,116.49767684936523L221.79733333333334,117.02210086584091L221.96533333333332,116.764768242836L222.22666666666666,117.3697240948677L222.35733333333334,117.56639409065247L222.40088888888891,117.61439669132233L222.51288888888888,117.14878904819489L222.66222222222223,117.03326630592346L222.6871111111111,117.0257054567337L223.11644444444445,117.32875484228134L223.12266666666665,117.3250623345375L223.61422222222222,117.37236160039902L223.6702222222222,117.39328581094742L223.78844444444445,117.40137416124344L224.15555555555557,116.96908700466156L224.40444444444444,117.20892417430878L224.616,116.79509955644608L224.672,116.61803501844406L224.74666666666667,116.61715584993362L224.7902222222222,116.47174137830734L225.10755555555556,116.65249842405319L225.2008888888889,116.76160323619843L225.33777777777777,116.19278120994568L225.44977777777777,116.07154387235641L225.64888888888888,116.04472923278809L225.7422222222222,116.16297739744186L225.77955555555556,116.22232127189636L225.91022222222222,116.65575134754181L226.12177777777777,117.0781918168068L226.20888888888888,117.18360412120819L226.25244444444445,117.27020221948624L226.25866666666667,117.34035986661911L226.28977777777777,117.33728277683258L226.464,118.09064227342606L226.71911111111112,116.72828274965286L226.9928888888889,117.10720437765121L227.17333333333335,117.44559633731842L227.2728888888889,117.4535967707634L227.32888888888888,117.5394915342331L227.33511111111113,117.42880421876907L227.53422222222224,117.37631785869598L227.752,116.87202680110931L227.9262222222222,116.67790639400482L227.96977777777778,116.87906014919281L227.976,116.80266040563583L228.02577777777776,116.44387173652649L228.0631111111111,116.5135018825531L228.08177777777777,116.54550361633301L228.15644444444445,116.52027148008347L228.16266666666667,116.52238148450851L228.2,116.4919622540474L228.2062222222222,116.58163744211197L228.256,116.54743778705597L228.31822222222223,116.30355644226074L228.38044444444444,116.2964351773262L228.3928888888889,116.34848195314407L228.52977777777778,116.3195573091507L228.63555555555556,116.42057377099991L228.70399999999998,116.38971495628357L229.05244444444446,116.52545857429504L229.096,116.38136285543442L229.1271111111111,116.32386523485184L229.2328888888889,116.08613806962967L229.31377777777777,116.2755109667778L229.53155555555557,116.83105754852295L229.69955555555555,116.75439405441284L229.7368888888889,116.56396615505219L229.7991111111111,116.320172727108L229.83644444444445,116.2274204492569L230.2222222222222,116.14820736646652L230.42755555555556,116.1352835893631L230.46488888888888,116.25379550457001L230.63288888888889,116.69469851255417L230.69511111111112,117.00724291801453L230.8008888888889,117.51478689908981L230.86933333333334,117.78302121162415L231.10577777777777,117.83937591314316L231.13066666666668,117.91542398929596L231.2613333333333,117.96492117643356L231.45422222222223,118.25029927492142L231.64711111111112,118.3434032201767L231.70933333333335,118.47642141580582L231.7902222222222,118.21403357386589L231.83999999999997,118.18695518374443L231.97066666666666,118.00997856259346L232.44355555555555,117.72490817308426L232.53066666666666,117.47267472743988L232.64266666666666,117.36866909265518L232.77955555555553,117.16760325431824L232.86044444444443,117.20259416103363L232.97244444444445,117.60982501506805L233.04088888888887,117.60419833660126L233.09688888888888,117.61712211370468L233.30844444444443,117.77519661188126L233.53244444444445,117.81203377246857L233.75022222222222,117.4773343205452L234.5591111111111,117.51900690793991L234.57155555555556,117.58186745643616L234.59022222222222,117.62828755378723L234.73333333333335,117.59962666034698L234.7457777777778,117.6266171336174L234.93866666666665,117.41948503255844L235.312,117.97441619634628L235.3182222222222,118.03213360905647L235.43644444444442,117.95322823524475L235.4488888888889,117.89669770002365L235.592,118.40837377309799L235.63555555555553,118.21289065480232L235.64177777777778,118.21091252565384L236.27644444444442,117.68833476305008L236.4008888888889,117.50265437364578L236.60622222222221,117.7682511806488L236.63733333333332,117.81845170259476L236.73688888888887,117.70468729734421L236.91733333333332,117.87964183092117L237.05422222222225,118.18475726246834L237.18488888888888,118.28454288840294L237.30311111111112,118.11130273342133L237.44622222222222,118.07486119866371L237.45244444444447,118.12369900941849L237.5271111111111,117.82434213161469L237.70133333333334,117.81519877910614L237.78222222222223,117.66688305139542L237.78844444444445,117.63215589523315L237.86933333333334,117.25771802663803L237.888,117.20426458120346L238,117.19072538614273L238.01244444444447,117.24356341362L238.03111111111113,117.2580696940422L238.1431111111111,116.90534728765488L238.51022222222224,117.23828840255737L238.59733333333332,117.51091855764389L238.92711111111112,117.45131093263626L238.99555555555554,117.32040274143219L239.12,117.18615370988846L239.15111111111113,117.2037370800972L239.176,117.13973361253738L239.27555555555554,117.00073707103729L239.43111111111114,116.98825287818909L239.66133333333332,116.76661449670792L239.67377777777776,116.8442450761795L239.68622222222223,116.94236028194427L239.74844444444446,116.98649454116821L239.87911111111111,116.72907400131226L239.9848888888889,116.94323945045471L240.06577777777778,116.89646768569946L240.17155555555556,116.82903546094894L240.2088888888889,116.7941324710846L240.2151111111111,116.81268292665482L240.25244444444445,116.93084317445755L240.3706666666667,117.04812425374985L240.38933333333335,116.94526153802872L240.61955555555556,117.53984320163727L240.70666666666668,117.4208037853241L240.744,117.47803765535355L240.78133333333332,117.55769032239914L240.90577777777779,117.62670505046844L240.92444444444445,117.66380596160889L240.98044444444443,117.46792721748352L241.20444444444445,117.6650367975235L241.75199999999998,117.76658076047897L242.00711111111113,118.07701516151428L242.0257777777778,118.05424469709396L242.05066666666667,118.18972456455231L242.08800000000002,118.31333565711975L242.1751111111111,118.2426065504551L242.21866666666665,118.2317488193512L242.27466666666666,118.34195259213448L242.33066666666667,118.55581033229828L242.37422222222222,118.69019123911858L242.38666666666668,118.68074017763138L242.4551111111111,118.55097490549088L242.48622222222224,118.42934194207191L242.64177777777778,118.5592830479145L242.65422222222222,118.61946213245392L242.71644444444445,118.46437680721283L242.7848888888889,118.58117434382439L242.80355555555556,118.63216611742973L243.03377777777777,118.98264664411545L243.32622222222224,119.22885778546333L243.38844444444445,119.21637359261513L243.5066666666667,119.38680040836334L243.768,118.98541602492332L243.9111111111111,119.11179649829865L243.93599999999998,119.16076618432999L244.09777777777776,119.14718303084373L244.76355555555557,117.99824166297913L244.92533333333336,117.66442137956619L245.06222222222223,117.53993111848831L245.3048888888889,117.8338371515274L245.46044444444445,118.06593763828278L245.48533333333333,118.09301602840424L245.54755555555556,118.04962906241417L245.55377777777778,118.03758445382118L245.58488888888888,117.74134862422943L245.62844444444445,117.65800344944L245.63466666666665,117.65369552373886L245.69688888888888,117.74987655878067L245.93955555555556,118.04883781075478L245.952,118.08163079619408L246.13866666666667,118.3230944275856L246.38133333333334,118.58754831552505L246.4,118.58367997407913L246.40622222222223,118.58332830667496L246.68622222222223,118.5236767232418L246.80444444444444,118.55897533893585L246.82933333333332,118.59924125671387L246.95377777777776,118.80356001853943L247.00977777777777,118.9006641805172L247.0533333333333,118.7530078291893L247.23377777777776,118.72997361421585L247.44533333333334,119.11724734306335L247.66933333333333,119.05249658226967L247.92444444444445,119.32007151842117L248.20444444444445,119.60254836082458L248.2542222222222,119.47972851991653L248.34133333333335,119.32961049675941L248.56533333333334,118.75806304812431L248.584,118.81951692700386L248.64622222222224,118.65651908516884L248.85777777777778,118.8940264582634L248.88888888888889,118.89811459183693" style="fill: none;" fill="none"></path></g></g></g></g></g></g><g transform="translate(50, 177)" clip-path="url(#clip_1)"><clipPath id="clip_1"><rect width="280" height="23"></rect></clipPath><g><g><line x1="0" y1="0" x2="0" y2="5" style="visibility: inherit;" fill="rgb(0, 0, 0)" stroke="rgb(204, 204, 204)" stroke-width="1px"></line><line x1="31.11111111111111" y1="0" x2="31.11111111111111" y2="5" style="visibility: inherit;" fill="rgb(0, 0, 0)" stroke="rgb(204, 204, 204)" stroke-width="1px"></line><line x1="62.22222222222222" y1="0" x2="62.22222222222222" y2="5" style="visibility: inherit;" fill="rgb(0, 0, 0)" stroke="rgb(204, 204, 204)" stroke-width="1px"></line><line x1="93.33333333333333" y1="0" x2="93.33333333333333" y2="5" style="visibility: inherit;" fill="rgb(0, 0, 0)" stroke="rgb(204, 204, 204)" stroke-width="1px"></line><line x1="124.44444444444444" y1="0" x2="124.44444444444444" y2="5" style="visibility: inherit;" fill="rgb(0, 0, 0)" stroke="rgb(204, 204, 204)" stroke-width="1px"></line><line x1="155.55555555555557" y1="0" x2="155.55555555555557" y2="5" style="visibility: inherit;" fill="rgb(0, 0, 0)" stroke="rgb(204, 204, 204)" stroke-width="1px"></line><line x1="186.66666666666666" y1="0" x2="186.66666666666666" y2="5" style="visibility: inherit;" fill="rgb(0, 0, 0)" stroke="rgb(204, 204, 204)" stroke-width="1px"></line><line x1="217.77777777777777" y1="0" x2="217.77777777777777" y2="5" style="visibility: inherit;" fill="rgb(0, 0, 0)" stroke="rgb(204, 204, 204)" stroke-width="1px"></line><line x1="248.88888888888889" y1="0" x2="248.88888888888889" y2="5" style="visibility: inherit;" fill="rgb(0, 0, 0)" stroke="rgb(204, 204, 204)" stroke-width="1px"></line><line x1="280" y1="0" x2="280" y2="5" style="visibility: inherit;" fill="rgb(0, 0, 0)" stroke="rgb(204, 204, 204)" stroke-width="1px"></line></g><g transform="translate(0, 8)"><text x="0" y="0" dx="0em" dy="0.95em" style="text-anchor: middle; visibility: hidden; font-family: &quot;Helvetica Neue&quot;, sans-serif; font-size: 12px; font-weight: 200;" fill="rgb(33, 33, 33)" stroke="none" stroke-width="1px">10k</text><text x="31.11111111111111" y="0" dx="0em" dy="0.95em" style="text-anchor: middle; visibility: inherit; font-family: &quot;Helvetica Neue&quot;, sans-serif; font-size: 12px; font-weight: 200;" fill="rgb(33, 33, 33)" stroke="none" stroke-width="1px">15k</text><text x="62.22222222222222" y="0" dx="0em" dy="0.95em" style="text-anchor: middle; visibility: inherit; font-family: &quot;Helvetica Neue&quot;, sans-serif; font-size: 12px; font-weight: 200;" fill="rgb(33, 33, 33)" stroke="none" stroke-width="1px">20k</text><text x="93.33333333333333" y="0" dx="0em" dy="0.95em" style="text-anchor: middle; visibility: inherit; font-family: &quot;Helvetica Neue&quot;, sans-serif; font-size: 12px; font-weight: 200;" fill="rgb(33, 33, 33)" stroke="none" stroke-width="1px">25k</text><text x="124.44444444444444" y="0" dx="0em" dy="0.95em" style="text-anchor: middle; visibility: inherit; font-family: &quot;Helvetica Neue&quot;, sans-serif; font-size: 12px; font-weight: 200;" fill="rgb(33, 33, 33)" stroke="none" stroke-width="1px">30k</text><text x="155.55555555555557" y="0" dx="0em" dy="0.95em" style="text-anchor: middle; visibility: inherit; font-family: &quot;Helvetica Neue&quot;, sans-serif; font-size: 12px; font-weight: 200;" fill="rgb(33, 33, 33)" stroke="none" stroke-width="1px">35k</text><text x="186.66666666666666" y="0" dx="0em" dy="0.95em" style="text-anchor: middle; visibility: inherit; font-family: &quot;Helvetica Neue&quot;, sans-serif; font-size: 12px; font-weight: 200;" fill="rgb(33, 33, 33)" stroke="none" stroke-width="1px">40k</text><text x="217.77777777777777" y="0" dx="0em" dy="0.95em" style="text-anchor: middle; visibility: inherit; font-family: &quot;Helvetica Neue&quot;, sans-serif; font-size: 12px; font-weight: 200;" fill="rgb(33, 33, 33)" stroke="none" stroke-width="1px">45k</text><text x="248.88888888888889" y="0" dx="0em" dy="0.95em" style="text-anchor: middle; visibility: inherit; font-family: &quot;Helvetica Neue&quot;, sans-serif; font-size: 12px; font-weight: 200;" fill="rgb(33, 33, 33)" stroke="none" stroke-width="1px">50k</text><text x="280" y="0" dx="0em" dy="0.95em" style="text-anchor: middle; visibility: hidden; font-family: &quot;Helvetica Neue&quot;, sans-serif; font-size: 12px; font-weight: 200;" fill="rgb(33, 33, 33)" stroke="none" stroke-width="1px">55k</text></g><line x1="0" y1="0" x2="280" y2="0" fill="rgb(0, 0, 0)" stroke="rgb(204, 204, 204)" stroke-width="1px"></line></g></g></g></g></svg>