<svg viewBox="0 0 330 200" xmlns="http://www.w3.org/2000/svg"><g><g><g><g><g><line x1="30" y1="177" x2="25" y2="177" style="visibility: inherit;" fill="rgb(0, 0, 0)" stroke="rgb(204, 204, 204)" stroke-width="1px"></line><line x1="30" y1="160.9090909090909" x2="25" y2="160.9090909090909" style="visibility: inherit;" fill="rgb(0, 0, 0)" stroke="rgb(204, 204, 204)" stroke-width="1px"></line><line x1="30" y1="144.8181818181818" x2="25" y2="144.8181818181818" style="visibility: inherit;" fill="rgb(0, 0, 0)" stroke="rgb(204, 204, 204)" stroke-width="1px"></line><line x1="30" y1="128.72727272727275" x2="25" y2="128.72727272727275" style="visibility: inherit;" fill="rgb(0, 0, 0)" stroke="rgb(204, 204, 204)" stroke-width="1px"></line><line x1="30" y1="112.63636363636364" x2="25" y2="112.63636363636364" style="visibility: inherit;" fill="rgb(0, 0, 0)" stroke="rgb(204, 204, 204)" stroke-width="1px"></line><line x1="30" y1="96.54545454545455" x2="25" y2="96.54545454545455" style="visibility: inherit;" fill="rgb(0, 0, 0)" stroke="rgb(204, 204, 204)" stroke-width="1px"></line><line x1="30" y1="80.45454545454547" x2="25" y2="80.45454545454547" style="visibility: inherit;" fill="rgb(0, 0, 0)" stroke="rgb(204, 204, 204)" stroke-width="1px"></line><line x1="30" y1="64.36363636363636" x2="25" y2="64.36363636363636" style="visibility: inherit;" fill="rgb(0, 0, 0)" stroke="rgb(204, 204, 204)" stroke-width="1px"></line><line x1="30" y1="48.27272727272728" x2="25" y2="48.27272727272728" style="visibility: inherit;" fill="rgb(0, 0, 0)" stroke="rgb(204, 204, 204)" stroke-width="1px"></line><line x1="30" y1="32.18181818181819" x2="25" y2="32.18181818181819" style="visibility: inherit;" fill="rgb(0, 0, 0)" stroke="rgb(204, 204, 204)" stroke-width="1px"></line><line x1="30" y1="16.090909090909093" x2="25" y2="16.090909090909093" style="visibility: inherit;" fill="rgb(0, 0, 0)" stroke="rgb(204, 204, 204)" stroke-width="1px"></line><line x1="30" y1="0" x2="25" y2="0" style="visibility: inherit;" fill="rgb(0, 0, 0)" stroke="rgb(204, 204, 204)" stroke-width="1px"></line></g><g transform="translate(20, 0)"><text x="0" y="177" dx="0em" dy="0.3em" style="text-anchor: end; visibility: hidden; font-family: &quot;Helvetica Neue&quot;, sans-serif; font-size: 12px; font-weight: 200;" fill="rgb(33, 33, 33)" stroke="none" stroke-width="1px">0</text><text x="0" y="160.9090909090909" dx="0em" dy="0.3em" style="text-anchor: end; visibility: inherit; font-family: &quot;Helvetica Neue&quot;, sans-serif; font-size: 12px; font-weight: 200;" fill="rgb(33, 33, 33)" stroke="none" stroke-width="1px">2</text><text x="0" y="144.8181818181818" dx="0em" dy="0.3em" style="text-anchor: end; visibility: hidden; font-family: &quot;Helvetica Neue&quot;, sans-serif; font-size: 12px; font-weight: 200;" fill="rgb(33, 33, 33)" stroke="none" stroke-width="1px">4</text><text x="0" y="128.72727272727275" dx="0em" dy="0.3em" style="text-anchor: end; visibility: inherit; font-family: &quot;Helvetica Neue&quot;, sans-serif; font-size: 12px; font-weight: 200;" fill="rgb(33, 33, 33)" stroke="none" stroke-width="1px">6</text><text x="0" y="112.63636363636364" dx="0em" dy="0.3em" style="text-anchor: end; visibility: hidden; font-family: &quot;Helvetica Neue&quot;, sans-serif; font-size: 12px; font-weight: 200;" fill="rgb(33, 33, 33)" stroke="none" stroke-width="1px">8</text><text x="0" y="96.54545454545455" dx="0em" dy="0.3em" style="text-anchor: end; visibility: inherit; font-family: &quot;Helvetica Neue&quot;, sans-serif; font-size: 12px; font-weight: 200;" fill="rgb(33, 33, 33)" stroke="none" stroke-width="1px">10</text><text x="0" y="80.45454545454547" dx="0em" dy="0.3em" style="text-anchor: end; visibility: hidden; font-family: &quot;Helvetica Neue&quot;, sans-serif; font-size: 12px; font-weight: 200;" fill="rgb(33, 33, 33)" stroke="none" stroke-width="1px">12</text><text x="0" y="64.36363636363636" dx="0em" dy="0.3em" style="text-anchor: end; visibility: inherit; font-family: &quot;Helvetica Neue&quot;, sans-serif; font-size: 12px; font-weight: 200;" fill="rgb(33, 33, 33)" stroke="none" stroke-width="1px">14</text><text x="0" y="48.27272727272728" dx="0em" dy="0.3em" style="text-anchor: end; visibility: hidden; font-family: &quot;Helvetica Neue&quot;, sans-serif; font-size: 12px; font-weight: 200;" fill="rgb(33, 33, 33)" stroke="none" stroke-width="1px">16</text><text x="0" y="32.18181818181819" dx="0em" dy="0.3em" style="text-anchor: end; visibility: inherit; font-family: &quot;Helvetica Neue&quot;, sans-serif; font-size: 12px; font-weight: 200;" fill="rgb(33, 33, 33)" stroke="none" stroke-width="1px">18</text><text x="0" y="16.090909090909093" dx="0em" dy="0.3em" style="text-anchor: end; visibility: hidden; font-family: &quot;Helvetica Neue&quot;, sans-serif; font-size: 12px; font-weight: 200;" fill="rgb(33, 33, 33)" stroke="none" stroke-width="1px">20</text><text x="0" y="0" dx="0em" dy="0.3em" style="text-anchor: end; visibility: hidden; font-family: &quot;Helvetica Neue&quot;, sans-serif; font-size: 12px; font-weight: 200;" fill="rgb(33, 33, 33)" stroke="none" stroke-width="1px">22</text></g><line x1="30" y1="0" x2="30" y2="177" fill="rgb(0, 0, 0)" stroke="rgb(204, 204, 204)" stroke-width="1px"></line></g></g><g transform="translate(30, 0)" clip-path="url(#clip_0)"><clipPath id="clip_0"><rect width="300" height="177"></rect></clipPath><g><g><g><line x1="0" y1="0" x2="0" y2="177" fill="rgb(0, 0, 0)" stroke="rgb(66, 66, 66)" stroke-width="1px" opacity="0.25"></line><line x1="25" y1="0" x2="25" y2="177" fill="rgb(0, 0, 0)" stroke="rgb(66, 66, 66)" stroke-width="1px" opacity="0.25"></line><line x1="50" y1="0" x2="50" y2="177" fill="rgb(0, 0, 0)" stroke="rgb(66, 66, 66)" stroke-width="1px" opacity="0.25"></line><line x1="75" y1="0" x2="75" y2="177" fill="rgb(0, 0, 0)" stroke="rgb(66, 66, 66)" stroke-width="1px" opacity="0.25"></line><line x1="100" y1="0" x2="100" y2="177" fill="rgb(0, 0, 0)" stroke="rgb(66, 66, 66)" stroke-width="1px" opacity="0.25"></line><line x1="125" y1="0" x2="125" y2="177" fill="rgb(0, 0, 0)" stroke="rgb(66, 66, 66)" stroke-width="1px" opacity="0.25"></line><line x1="150" y1="0" x2="150" y2="177" fill="rgb(0, 0, 0)" stroke="rgb(66, 66, 66)" stroke-width="1px" opacity="0.25"></line><line x1="175" y1="0" x2="175" y2="177" fill="rgb(0, 0, 0)" stroke="rgb(66, 66, 66)" stroke-width="1px" opacity="0.25"></line><line x1="200" y1="0" x2="200" y2="177" fill="rgb(0, 0, 0)" stroke="rgb(66, 66, 66)" stroke-width="1px" opacity="0.25"></line><line x1="225" y1="0" x2="225" y2="177" fill="rgb(0, 0, 0)" stroke="rgb(66, 66, 66)" stroke-width="1px" opacity="0.25"></line><line x1="250" y1="0" x2="250" y2="177" fill="rgb(0, 0, 0)" stroke="rgb(66, 66, 66)" stroke-width="1px" opacity="0.25"></line><line x1="275" y1="0" x2="275" y2="177" fill="rgb(0, 0, 0)" stroke="rgb(66, 66, 66)" stroke-width="1px" opacity="0.25"></line><line x1="300" y1="0" x2="300" y2="177" fill="rgb(0, 0, 0)" stroke="rgb(66, 66, 66)" stroke-width="1px" opacity="0.25"></line></g><g><line x1="0" y1="177" x2="300" y2="177" fill="rgb(0, 0, 0)" stroke="rgb(66, 66, 66)" stroke-width="1px" opacity="0.25"></line><line x1="0" y1="160.9090909090909" x2="300" y2="160.9090909090909" fill="rgb(0, 0, 0)" stroke="rgb(66, 66, 66)" stroke-width="1px" opacity="0.25"></line><line x1="0" y1="144.8181818181818" x2="300" y2="144.8181818181818" fill="rgb(0, 0, 0)" stroke="rgb(66, 66, 66)" stroke-width="1px" opacity="0.25"></line><line x1="0" y1="128.72727272727275" x2="300" y2="128.72727272727275" fill="rgb(0, 0, 0)" stroke="rgb(66, 66, 66)" stroke-width="1px" opacity="0.25"></line><line x1="0" y1="112.63636363636364" x2="300" y2="112.63636363636364" fill="rgb(0, 0, 0)" stroke="rgb(66, 66, 66)" stroke-width="1px" opacity="0.25"></line><line x1="0" y1="96.54545454545455" x2="300" y2="96.54545454545455" fill="rgb(0, 0, 0)" stroke="rgb(66, 66, 66)" stroke-width="1px" opacity="0.25"></line><line x1="0" y1="80.45454545454547" x2="300" y2="80.45454545454547" fill="rgb(0, 0, 0)" stroke="rgb(66, 66, 66)" stroke-width="1px" opacity="0.25"></line><line x1="0" y1="64.36363636363636" x2="300" y2="64.36363636363636" fill="rgb(0, 0, 0)" stroke="rgb(66, 66, 66)" stroke-width="1px" opacity="0.25"></line><line x1="0" y1="48.27272727272728" x2="300" y2="48.27272727272728" fill="rgb(0, 0, 0)" stroke="rgb(66, 66, 66)" stroke-width="1px" opacity="0.25"></line><line x1="0" y1="32.18181818181819" x2="300" y2="32.18181818181819" fill="rgb(0, 0, 0)" stroke="rgb(66, 66, 66)" stroke-width="1px" opacity="0.25"></line><line x1="0" y1="16.090909090909093" x2="300" y2="16.090909090909093" fill="rgb(0, 0, 0)" stroke="rgb(66, 66, 66)" stroke-width="1px" opacity="0.25"></line><line x1="0" y1="0" x2="300" y2="0" fill="rgb(0, 0, 0)" stroke="rgb(66, 66, 66)" stroke-width="1px" opacity="0.25"></line></g></g></g><g><g><line x1="0" y1="177" x2="300" y2="177" fill="rgb(0, 0, 0)" stroke="rgb(153, 153, 153)" stroke-width="1.5px"></line></g></g><g><g><line x1="25" y1="0" x2="25" y2="177" fill="rgb(0, 0, 0)" stroke="rgb(153, 153, 153)" stroke-width="1.5px"></line></g></g><g><g><g><g><g><path stroke="rgb(255, 112, 67)" stroke-width="2px" d="M25.005,16.145001931623966L25.925,42.36345175721425L26.055,43.47617423689209L26.32,49.15763568161006L26.36,53.30622364806719L26.415000000000003,56.47550540463483L26.895,62.590413580584524L27.015,65.10440637524887L27.255,69.85979828019669L27.564999999999998,75.39571247080606L27.595,78.64223400898437L27.675,81.00957084875313L28.09,85.44458550063324L28.88,89.88765989872698L28.965,93.12187686854345L29.005,95.29052342041973L29.195,97.53266380945168L29.459999999999997,100.04299400326808L29.535,101.78178812284337L29.565,102.97253061520948L29.72,104.4188734312169L29.91,106.21168772244691L29.994999999999997,107.65878321966642L30.455000000000002,109.73257421538791L30.995,111.15123066541084L31.155,112.12944136808278L31.495,113.70539509544699L31.535,114.75519751306973L31.654999999999998,115.67769407253144L31.915,116.69547726700162L32.18,117.82042193914765L32.285,118.71783530569482L32.559999999999995,119.78565502628581L32.585,120.47038683962793L32.589999999999996,120.88104023468483L32.754999999999995,121.34049361077095L33.01,122.00858349151446L33.1,122.51043220403865L33.95,123.46144427840494L34.25,124.43072112919069L34.525,125.36420068259383L35.425,126.6163928841357L36.17,128.01971031404423L36.195,128.8818094975414L36.535,129.5915106184206L36.93,130.27178861728564L36.965,130.711415198919L37.550000000000004,131.44163256247194L37.675,131.95716254655105L38.010000000000005,132.4266306401309L38.129999999999995,132.76395576569973L38.315000000000005,133.03068525959708L38.49,133.24577949321645L38.7,133.48811948550866L39.515,134.13640735733787L40.055,134.88087516051615L40.075,135.33805522444203L40.155,135.6682852855303L40.175,135.87848334020248L40.385,136.09043715301675L40.45,136.2482313594703L41.144999999999996,136.57900126574435L41.535,136.9517480404691L41.715,137.21331019936193L41.795,137.378151954911L42.095,137.44164269397044L42.525,137.60779675869685L42.73,137.7552873195919L42.9,137.89265089316171L42.915000000000006,137.97963585415374L42.98500000000001,138.06431015705402L43.09,138.1538866455602L43.145,138.2325137108441L43.199999999999996,138.29316328736127L43.290000000000006,138.325546326687L43.355,138.3555982961953L43.73,138.44562896707765L43.755,138.5135887442991L44.035,138.6741867746473L44.105,138.79629838868254L44.485,139.0178733481315L44.75,139.25778096993847L44.905,139.43897824660263L45.305,139.6912382954514L45.355000000000004,139.86063908260365L45.379999999999995,139.97226025946264L45.505,140.08145760685778L45.645,140.20515382457666L45.78,140.32972776990468L45.91,140.44817147965577L46.27,140.62007903698836L46.36,140.76464717826047L46.71,140.98639918980206L46.745,141.1289507875601L47.07,141.29986403436743L47.14,141.4260440320124L47.6,141.62942954927058L47.665,141.76484519314934L47.775,141.8794357184897L48,142.02078799685364L48.005,142.1077093682971L48.225,142.21718525683417L48.26,142.2935389723295L48.765,142.4630680501735L49.464999999999996,142.78842294770496L49.825,143.07240799239452L50.75,143.47977016345095L50.81,143.72784889921803L51.28,143.98238818051482L51.824999999999996,144.2643268857342L52.18,144.5117766439555L52.615,144.76161801693667L53.2,145.0476495843888L53.3,145.23398714845487L53.535,145.40194803012295L54.69,145.6584068237986L54.745,145.8215853013326L54.754999999999995,145.920413884331L54.835,145.99309076400786L54.98,146.05068967388655L55.24,146.1338612199439L55.32,146.19648018515514L55.35,146.24055421428272L55.995000000000005,146.37083923862212L56.48,146.5226118112175L56.885,146.67838420320777L57.120000000000005,146.81182570042475L57.24,146.9091957041377L57.295,146.97677282374715L58.315,147.17281644707253L58.355000000000004,147.29614270211277L58.71,147.42530164355105L58.725,147.50570958179492L58.935,147.58876174501117L59.095000000000006,147.6643113114221L59.24,147.7366705915907L59.410000000000004,147.8007488575706L60.199999999999996,147.94127936579108L60.73,148.10331105188376L60.795,148.21321694469145L60.805,148.28105027706656L61.095,148.3654373426565L61.21,148.43634557362367L61.295,148.49313572753326L61.305,148.52809218536584L61.365,148.5551106472874L61.495,148.5843561808668L62.120000000000005,148.66066213696882L62.43,148.74553833806868L62.435,148.79703874720656L62.62,148.84824720982462L62.790000000000006,148.90154856746915L63.01,148.95801694250147L63.175000000000004,149.01068084327548L63.635000000000005,149.083336800754L64.155,149.18214420376145L64.63,149.29698544571463L64.685,149.3728785255423L65.28500000000001,149.47957381079186L65.4,149.55229187291616L65.425,149.5990539567575L65.665,149.65943570757972L65.95,149.72530456568748L66.1,149.78269953621813L66.945,149.92221166980661L67.06,150.0205431988111L67.065,150.0805326673821L67.07,150.11717469533892L67.185,150.15277059156608L67.19500000000001,150.17563889247072L67.315,150.20434013715703L67.92,150.2752785275332L68.3,150.35791706762242L68.435,150.42754907008563L68.745,150.50481470962117L70.31,150.7182388727975L70.61,150.88235372996456L70.67,150.9887792791331L70.68,151.0534195302803L71.095,151.13597744913355L71.205,151.19268468094197L71.23,151.22837323806266L72.94500000000001,151.42679349264088L73.52,151.6011085794657L73.965,151.75291185784982L74.09,151.85253972643892L74.16,151.91956105187649L74.24,151.96836655243214L74.56,152.02801703645085L74.615,152.0698687941195L74.845,152.1176013979802L75.05999999999999,152.16565683737878L75.615,152.2423779941745L76.085,152.33671981501914L76.89500000000001,152.45808362879086L77.02999999999999,152.54012992549758L77.26,152.60463413555894L77.46499999999999,152.6543002445883L77.555,152.689145506042L77.59,152.7128156177995L77.755,152.73736975020046L77.85000000000001,152.75497413748212L78.265,152.78724679719903L78.56,152.82679124262467L79.105,152.8939809319387L79.72,152.96721465092958L79.735,153.01202957506757L80.14,153.06034082902215L80.715,153.11313763860147L80.855,153.15623660284612L80.905,153.18275967369385L81.095,153.2038234615483L81.225,153.22508896689925L81.295,153.24332353977422L81.645,153.27293590447505L81.66,153.29073017789733L81.73500000000001,153.30751501294262L81.8,153.32044631269582L81.94,153.33468242249546L82.16499999999999,153.3526769081995L82.27,153.36637466388777L82.28999999999999,153.37684603475233L82.735,153.41585694408943L83.01,153.45830033325166L83.29,153.496441738786L83.34,153.52372306405405L83.52499999999999,153.54816358523365L83.885,153.58258751392623L84.05,153.61278599661202L84.88499999999999,153.68466032623036L84.985,153.73346121954194L85.285,153.78340828977932L85.505,153.8269641931447L86.17,153.887597458425L88.34,154.03461991144803L88.5,154.13333123073224L88.815,154.20597995226908L88.895,154.2551073713512L89.065,154.2960277195276L89.37,154.33616787385134L89.515,154.36908099223433L90.09,154.42066844640095L90.16,154.45688135175115L90.20500000000001,154.4808111723067L90.36000000000001,154.5021834866232L91.32000000000001,154.57031968212286L91.645,154.62568830616786L92.255,154.69111735541313L92.515,154.74568651161712L92.695,154.78474497495097L92.845,154.8195502913421L93.095,154.85128811121356L93.21499999999999,154.87455311380955L93.32,154.89482371405822L93.46,154.9171678046512L93.525,154.93541959644122L93.53500000000001,154.94698218916136L93.68,154.9621502965998L94.15,154.9971489717387L94.30000000000001,155.02492090738932L94.41499999999999,155.04905962263905L94.53,155.06830992724082L94.89500000000001,155.0917613022335L95.30999999999999,155.12853193847096L95.475,155.15853484232062L95.585,155.1831750421888L95.75999999999999,155.2068549407657L95.89,155.2293410027271L95.905,155.24375950730226L95.985,155.25546896555218L96.01,155.2639371162545L96.27000000000001,155.28284966113787L97.13499999999999,155.33309185872773L97.69,155.3773158940799L98.35,155.4326353792949L98.46,155.4702603815395L98.485,155.49371084290408L98.49,155.50802357841312L98.69500000000001,155.52477885502933L99.015,155.5494815899036L99.41999999999999,155.58439430932629L99.575,155.61254127607816L100.22500000000001,155.65032233630896L100.30499999999999,155.6753349955451L100.545,155.70069235461023L100.725,155.72219535051028L100.73,155.73552682167866L100.75999999999999,155.74530654811446L100.98,155.76378914134037L101.17,155.7777628815064L101.33,155.78970420942946L101.975,155.8185744298852L102.05,155.83871399352182L102.28999999999999,155.8611482625016L102.75500000000001,155.90171969529115L103.245,155.95081866142823L103.46,155.99149329008537L103.77,156.03202080291004L103.945,156.06401005396864L104.14500000000001,156.09121471594997L104.19,156.11007872574086L104.235,156.12335598299617L104.67,156.15156763798913L104.75500000000001,156.17077343576395L105.05000000000001,156.18816502855347L105.09,156.20047213360797L105.235,156.2140575078273L105.795,156.25023496204392L106.30499999999999,156.29559573509016L106.77499999999999,156.3463705901422L106.995,156.38871060807756L107.065,156.41726811636133L107.13,156.43592719543796L107.38499999999999,156.45907831159343L107.425,156.4748979089684L107.55499999999999,156.49170716273943L107.625,156.5048203795334L108.3,156.54745504433993L108.945,156.60042907158132L109.06,156.63651789695325L109.065,156.65834919982245L109.415,156.68870781774086L109.44,156.70806469270445L109.58500000000001,156.72601880552412L109.625,156.73740816178238L110.21000000000001,156.76678506281456L110.215,156.7848592916463L110.60499999999999,156.81769774779772L110.695,156.84283542561317L110.75,156.86104697704621L110.88499999999999,156.8784182450573L111.175,156.90032096448488L111.31,156.91809232948717L111.80499999999999,156.94551779091546L112.295,156.98116490074833L112.325,157.00323373898442L113.09,159.02643418261698L113.42999999999999,160.78343467682177L114.045,161.62526686433517L114.25,162.0494218034523L114.285,162.23262999378957L114.365,162.37673199239455L114.415,162.50008450892508L114.63,162.58318821972952L115.15,162.81550521430634L115.35000000000001,163.04537662080736L115.55499999999999,163.172560693096L115.735,163.29021878318244L115.935,163.44100991814722L115.98,163.54786590620782L117.38499999999999,163.76458921363894L117.50999999999999,163.92400366698632L117.71,164.01924376541064L117.835,164.09601086561818L118.255,164.20178425097157L118.635,164.2663665845289L119.10000000000001,164.25997224817078L119.23,164.2626774273479L119.455,164.2694899948283L120,164.38009516233902L120.15,164.44537410420813L120.30000000000001,164.52533092396314L120.32000000000001,164.5779309127902L120.41499999999999,164.6358866778066L120.495,164.68198510602147L120.53999999999999,164.7070170156226L120.65,164.7317962745792L120.67,164.75272913358228L120.8,164.77787982084413L120.88,164.78024920834122L121.175,164.77099728754607L121.35000000000001,164.7506922168547L121.39,164.73144487962483L121.59,164.69230912852228L121.925,164.7264369368593L121.995,164.75605032465913L122.13000000000001,164.79088522404035L122.21499999999999,164.81569274095276L122.515,164.85100631394351L122.77,164.89268451889103L123.17,164.95712550637788L123.27,164.99334364464843L123.48,165.02260417431083L123.72999999999999,165.05319840126924L123.74499999999999,165.07167885224962L123.83,165.07110071655316L123.97,165.0583178526912L124.17,165.05583605979947L124.51499999999999,165.08518680874096L124.53500000000001,165.1067115081329L125.10499999999999,165.1764030941116L125.155,165.22740999224868L125.865,165.28270923928454L126.42999999999999,165.33535645560588L126.63499999999999,165.38654979560474L127.07499999999999,165.4401455366778L127.33,165.47597131992384L127.46000000000001,165.50639556132396L128.885,165.5026254963382L128.945,165.50208637186907L129.005,165.49633136216036L129.12,165.48058738874064L129.15,165.4605894480149L129.46,165.4258137612668L129.595,165.41480322079443L129.74,165.40449825057246L130.10999999999999,165.3957099884301L130.96,165.39895070718117L131.1,165.4012730210425L131.21,165.4007762290316L131.235,165.40411196508217L131.47,165.39451298602077L131.88,165.40275558794855L132.06,165.40713144791044L132.82,165.43398710379336L132.895,165.45299695794293L132.98,165.47077700198216L133.85,165.4872981806808L134.035,165.46600468972784L134.325,165.45248433904976L134.67000000000002,165.4649116789907L135.07999999999998,165.4584508774048L135.70999999999998,165.4491225286561L135.795,165.44579089688503L135.98999999999998,165.43575049913997L136.675,165.44999227753976L136.94,165.46974837354568L137.195,165.49326421742506L137.39000000000001,165.50473736913287L137.405,165.51245567099838L138.155,165.54777954375876L138.34,165.5819281436733L138.38,165.6031170578168L138.82999999999998,165.65432609430783L138.895,165.69068369346866L139.03,165.71975436636433L139.07500000000002,165.7387117532789L139.105,165.75034820961352L139.15,165.7583705074144L139.41,165.77850098367216L139.47,165.79632768875496L139.48,165.80730990513212L139.48999999999998,165.81383555118848L139.57,165.82150597942456L139.94,165.84201306608503L139.99,165.85655814278073L140.11,165.87126263951575L140.335,165.89142680315996L140.39,165.90678967001062L140.465,165.91816956920096L140.525,165.9291695629192L140.64,165.9392449282568L140.715,165.951863003062L140.85,165.96308760833494L140.965,165.9716860808618L141.355,165.98924623583966L141.655,166.0108245574384L141.835,166.03043724619496L142.29,166.0414824706612L142.755,166.07237081985733L143.42,166.09749279773868L143.84,166.1343834302225L144.655,166.1753440364674L144.765,166.20742817959584L144.79500000000002,166.22796461726068L145.01,166.25588631802972L145.435,166.2783635886777L145.65,166.29339562521716L146.175,166.2999050927865L146.445,166.3051101524168L146.845,166.32111380611695L147.21,166.34471376769284L147.225,166.3593256692225L147.32,166.36914282506962L147.565,166.3807013577379L147.775,166.39061733813574L147.895,166.39826874085253L148.09,166.4037473188898L148.185,166.40460796062334L148.28,166.39776311568022L148.29,166.39365007051967L148.38,166.39558985084867L148.57000000000002,166.39711203616116L149.01,166.40845682558896L149.14,166.41233232764347L149.155,166.41469023803546L149.22,166.4178378733594L149.45999999999998,166.4247586232889L149.715,166.42837513212265L150.215,167.15522298810856L150.285,167.828679577642L150.5,168.16348170245055L150.53,168.4335791788578L150.95499999999998,168.8714580186003L151.38000000000002,168.54557944712707L151.58499999999998,168.45355377584931L151.905,168.55615519496126L152.08,168.36894192106917L152.165,168.27671692798427L152.59500000000003,168.2276923799129L153.005,168.1738510889342L153.28,168.25895846967177L153.335,168.2739652243132L153.82500000000002,168.3758244336498L154.23,168.44981021897019L154.885,168.38105212741345L154.92499999999998,168.34569377575448L155.19,168.310144929244L155.48,168.19710101808704L155.63000000000002,168.15418461636065L155.71,168.09784009479876L155.76,168.06243169668446L155.805,168.04019265391307L156.055,168.00940371166394L156.525,167.97377294124146L156.715,167.9745545127342L156.845,167.9964277241547L156.87,168.00594124161714L157.005,168.02369862827314L157.13000000000002,168.04942309550762L157.19,168.05841765870588L157.385,168.08982384571667L158.095,168.11315841461396L158.115,168.13320374317436L158.195,168.135809195097L158.29999999999998,168.1010942010778L158.47,168.10495609281105L158.5,168.1155793561795L158.62500000000003,168.12737947830743L158.85999999999999,168.10131061479237L159.285,168.12225638977648L160.1,168.05428575313718L160.155,168.01297126640134L161.02499999999998,167.87329705342475L161.095,167.78953088935563L161.15,167.73907822141854L161.245,167.6829874555999L161.36,167.6467112197013L161.39000000000001,167.6186043394091L161.965,167.55642191982977L162.1,167.50895567405433L162.25000000000003,167.46361392213555L162.475,167.38943518519955L162.54999999999998,167.34024833686033L162.765,167.2882228642787L163.11499999999998,167.18520528105682L163.22,167.10678515992686L163.41,167.06576731626737L163.535,167.03678237907997L163.65,167.01447242099698L165,166.8972550465764L165.31,166.81676284061297L165.675,166.7244025682594L165.68,166.6697935774491L166.605,166.63311048020137L166.945,166.586920738416L167.21,166.5428309571834L167.37499999999997,166.51661455985095L167.395,166.4985483710972L167.625,166.4808733944193L167.655,166.45535412986197L167.785,166.41740529274415L167.89,166.37141558359437L168.20999999999998,166.322007765084L168.615,166.25803138379644L169.3,166.2128682208106L169.365,166.1915559551526L169.42499999999998,166.17642610720884L169.555,166.16385901839786L169.79,166.157460852961L170.14000000000001,166.15713530288517L170.145,166.1579731077336L170.22,166.15433634559787L170.39499999999998,166.15807035708713L170.48000000000002,166.16128290056486L170.555,166.17079339891797L170.83,166.18520480891323L170.84,166.19473900768043L170.865,166.2007154129319L171.15,166.20452913656072L171.29,166.19563051091356L171.455,166.1787902768601L171.5,166.17143988402128L171.85,166.14989449420074L171.92499999999998,166.13048225761733L172.01000000000002,166.1203652443312L172.37,166.11997862100625L172.48,166.12393443033926L173.14000000000001,166.11777659259286L173.255,166.1148487806442L173.495,166.12565889619344L173.52,166.13211389091236L173.98999999999998,166.14522333620508L174,166.1523846455399L174.02499999999998,166.15686749516738L174.11,166.15938725367835L174.23499999999999,166.15764855105886L174.425,166.1556159292304L174.795,166.17583591927766L175.21499999999997,166.17642580546382L175.64000000000001,166.1839115521322L175.88000000000002,166.13291947468363L176.1,166.1114505728086L176.17000000000002,166.0994070952589L176.29500000000002,166.0890919622508L176.465,166.06412767943468L176.555,166.0325046275659L176.565,166.01402530475443L176.845,165.98094647767536L177.265,165.95791000564873L177.325,165.9408279737775L178.385,165.86436336306218L178.85999999999999,165.8088917492424L179.005,165.76319658401087L179.085,165.73452652588065L179.235,165.71663164227678L179.25,165.70583870108788L179.29,165.69854732375498L179.67499999999998,165.6613623121829L180.75500000000002,165.58721041470204L180.91,165.53541597544267L181.335,165.48621360660155L181.705,165.45155489997765L182.54000000000002,165.40589806931868L183.225,165.35589239623016L183.25,165.32335775434132L183.26,165.3032112569867L183.965,165.27106795833242L184.18,165.25951150080456L184.465,165.26160384158104L185.7,165.2848903777046L185.76999999999998,165.29867892081236L186.005,165.3026284557915L186.3,165.30975374311586L186.39999999999998,165.31151263932432L186.41,165.31129276710234L186.665,165.31654327323886L186.975,165.31840800877018L187.25,165.315090469876L187.89,165.30610393914037L188.16,165.30624368502714L188.33,165.31596526549848L188.37,165.32062121494928L188.375,165.32297705461085L188.63500000000002,165.31021785050334L188.80499999999998,165.29563767715297L188.83499999999998,165.284812177877L189.29,165.2687351563987L189.52,165.25781334992746L190.15,165.23028912388276L190.225,165.20880917238804L190.26,165.1953100674823L190.285,165.18597797831745L190.35,165.17885031434045L190.37500000000003,165.17398291471525L190.575,165.16164916974424L190.57999999999998,165.15373446531908L190.64,165.14909689744277L190.79,165.14153845761018L190.81,165.1358505640202L191.15,165.13238603684852L191.20999999999998,165.12973761935072L191.575,165.11844868669152L191.725,165.10626681029885L192.79,165.08747235492197L192.83,165.07514605040365L192.9,165.06494664726753L193.115,165.05273446351782L193.17000000000002,165.04401378307313L193.185,165.03873226924878L193.295,165.03106905152882L193.47,165.02115736248024L193.92499999999998,165.01373334595354L194.415,164.99912904747873L194.97,164.97758674704704L195.24,164.95960080890245L195.38,164.95057934790972L195.995,164.9445775882609L196.325,164.94358833431266L196.625,164.94169003193468L197.03500000000003,164.9452126257386L197.12,164.94633563085267L197.215,164.94652681836354L197.395,164.939787085586L197.60999999999999,164.92213947193542L197.845,164.91333635112585L197.985,164.90085629445332L198.075,164.8916476477505L198.135,164.88616197435712L198.58,164.872067731302L198.76,164.8597471919109L198.9,164.85194169104614L199.135,164.847157493952L199.25,164.84709788522687L199.355,164.8480461493282L199.385,164.84996896335556L199.455,164.8525344365509L200.06500000000003,164.85324391327333L200.155,164.8559062039973L200.4,164.86128278817557L200.45000000000002,164.86441704939932L200.505,164.86524989302723L200.555,164.86652301173507L200.63,164.86594607105692L201.63500000000002,164.8590071019147L201.69,164.85468067463287L201.94,164.85553947096332L202.125,164.85723213123077L202.635,164.85911129465686L202.995,164.8717398513777L203.175,164.88755022267674L203.29999999999998,164.9010508247841L203.38000000000002,164.911364772509L203.435,164.92003910999378L203.555,164.9308068350606L203.64499999999998,164.9403948802958L203.69000000000003,164.94862408535755L204.125,164.96835389032572L204.57,164.99429274106063L204.675,165.01658619834316L205.12,165.0448761676261L205.35,165.0682054825241L205.69,165.09147174544637L205.91,165.11618255120112L206.295,165.1472326668596L206.325,165.16737503397167L207.025,165.20154529510017L207.27999999999997,165.23203352726526L207.435,165.26147726449494L207.51,165.28139545701003L207.58999999999997,165.29203471704105L207.71,165.30532105662692L207.89,165.32513842522064L207.91,165.33862631154526L207.995,165.35188586872118L208.20999999999998,165.36422695949634L208.51,165.38027304117495L208.515,165.38996168849184L208.645,165.3942054172269L209.865,165.41677482918732L210.115,165.43340168647015L210.19,165.4440503167957L210.4,165.44203784100765L210.425,165.44120785450832L210.875,165.44725279451222L211.825,165.46789521783532L212.135,165.48345795485614L212.14,165.4929394610067L212.22,165.4983030403784L212.39499999999998,165.5058885135241L212.51500000000001,165.50819897271214L212.575,165.50819226166726L212.59,165.5078652125447L213,165.52032785870995L213.02999999999997,165.52965265937394L213.13,165.54132703797666L213.64999999999998,165.5541184481833L213.715,165.56445228351998L213.79,165.5704162642264L214.31,165.59334224231645L214.38,165.6111570940471L214.475,165.6258243225196L214.66,165.6433255505777L215.16,165.66345788215716L215.59,165.68252331393757L215.78000000000003,165.69733666190007L215.805,165.70614602505808L216.10000000000002,165.72223831834364L216.16,165.7344299196339L216.345,165.74702449511668L216.395,165.75630875857473L216.805,165.77732378176657L217.265,165.80525142780752L217.5,165.83545142907985L217.59500000000003,165.85774808769332L217.71,165.87715340641086L217.785,165.8893436642432L217.81,165.89669157901344L218.33,165.91204050900086L219.175,165.9316195796495L219.845,165.9498328428714L220.21,165.97255457462902L220.33,165.98744364177227L221.80999999999997,165.99289979476572L221.99,165.99969949577465L222.035,166.0055436637165L222.045,166.00895847519843L222.315,166.0064931035295L222.355,166.00390938912088L222.615,166.00965402122887L223.095,166.0222183214329L223.41,166.03219875213085L224.73499999999999,166.06220039545533L224.825,166.08212839094585L224.82999999999998,166.0941933739216L224.91,166.1004678998662L225.125,166.10417238439757L225.24,166.11140576017013L225.54000000000002,166.12538735494462L225.775,166.13992601561543L225.9,166.15249901100069L226.005,166.16040956536466L226.82,166.18492165216253L227.16,166.16282313796222L227.755,166.14116429364452L227.80499999999998,166.1288138811336L227.83999999999997,166.12094211811373L227.94500000000002,166.11301990995625L228.23000000000002,166.1063269155394L228.57500000000002,166.0967606563399L228.715,166.08847546820928L228.97,166.079547137941L229.10000000000002,166.07263257287718L229.16500000000002,166.06645669504218L229.255,166.06163324963305L229.64999999999998,166.05261096226292L230.305,166.0406527397515L230.445,166.03101984290805L230.58999999999997,166.025669011156L230.615,166.0225237304234L230.975,166.01904063136413L231.35999999999999,166.01764899157467L231.875,166.01283108662088L232.065,166.01249498355156L232.07,166.01247785118787L232.24,166.01468307641596L232.345,166.01643396699535L232.39,166.01693244745795L232.76000000000002,166.01620262085044L232.95499999999998,166.0182081100101L233.705,166.02832559674601L233.85,166.0301308107516L233.97,166.031302942978L234.09,166.03549616963284L234.345,166.04145256375008L234.42499999999998,166.0470999591145L234.505,166.05232256563428L234.60500000000002,166.05601355435152L235.11499999999998,166.06452631897204L235.16500000000002,166.06983193452317L235.725,166.07332528268572L235.92499999999998,166.0763132479993L236.115,166.07844247698395L236.52,166.08809251193333L236.745,166.09095538130967L236.78,166.09338129714794L237.06,166.10313376768738L237.155,166.11205703281675L237.665,166.11907444265563L237.7,166.12445651647062L237.83499999999998,166.12981149430857L238.51000000000002,166.13555226631252L238.915,166.1449814693387L239.06500000000003,166.15169667882708L239.225,166.15760294118408L239.26,166.16240809760728L239.38000000000002,166.1660860876737L239.48000000000002,166.16684196594346L239.95999999999998,166.17393203227783L240.035,166.180164872592L240.04500000000002,166.18412670270087L240.125,166.1860430525272L240.58,166.18650615189193L241.05,166.183947014652L241.1,166.18335681429048L241.345,166.18778012772904L241.645,166.18908256204864L242.265,166.20110113893386L242.735,166.21564435862345L242.825,166.22636290188882L243.345,166.22921507670597L243.415,166.2294374857465L243.565,166.2327179068615L243.695,166.23590842754834L243.785,166.23751659750025L243.85999999999999,166.23805029129434L244.095,166.23884391583633L244.53,166.24223995304865L244.7,166.24647504907543L244.70499999999998,166.24846060007195L244.93,166.2467907646695L245.195,166.24759272539285L245.225,166.24763348635778L245.285,166.24780219051198L245.41500000000002,166.2485429361639L245.425,166.24900733268777L245.595,166.2506778062483L245.81,166.25113033832258L245.96499999999997,166.2518177202575L246.195,166.21956497909565L246.56,166.19246616542412L246.64000000000001,166.17533218447772L247.24,166.1645749349098L247.365,166.1602984933729L247.54000000000002,166.15548604919383L247.88000000000002,166.15687421892585L251.9,166.20854249828486L252,166.24105384543142L252.315,166.26277654200285L252.685,166.28022697466307L252.71,166.2915366323832L252.76500000000001,166.29915645421895L253.365,166.3116048020205L253.575,166.32119302241853L253.80499999999998,166.3268017070821L254.73499999999999,166.3465455395018L255.54,166.37038817320294L255.6,166.38649953357432L255.89,166.40270697987762L255.96499999999997,166.41371931763322L256.075,166.42143389715397L256.4,166.4327743771239L256.43,166.44054427985822L256.705,166.4468405158353L256.775,166.45062708107642L256.815,166.449267510787L256.84,166.44751377573712L257.185,166.44888957434466L257.68,166.45006147787205L258.15500000000003,166.4483814658997L258.195,166.44753458632692L258.375,166.4511662872652L258.47,166.45490134018237L258.52,166.4577677005168L259.06,166.46292260392144L259.095,166.46667271643335L259.27,166.47125184518856L259.66,166.47683018110578L260.38,166.48285343554141L260.465,166.48805794790212L260.52,166.49186314584074L260.73,166.49741638782558L260.835,166.50343878047698L261.14500000000004,166.5122278651039L261.195,166.51844774877398L261.26,166.52217507533L261.3,166.52446786592733L261.855,166.5297892485606L262.055,166.5333419298043L262.12,166.5373963280375L262.265,166.5434834946416L262.31,166.54796790362187L262.66,166.55603407301072L263.485,166.5672275734236L263.51,166.57472360803428L263.625,166.5825458285002L264.09,166.5951769974268L264.2,166.60199571355258L264.865,166.6190393013005L265.15500000000003,166.63090473556892L265.235,166.64010139139572L265.69,166.6563025291144L265.81,166.66720481422365L266.01,166.67445015949284L266.08,166.68041478095543L266.145,166.68403115027547L266.25,166.68659611815073L266.26,166.68830198104405L266.73,166.69121376092187L267.05,166.6941788768576L267.175,166.6963488726934L267.195,166.69696262511513L267.655,166.69802487620544L267.76,166.69911146598358L267.91,166.7008993695055L268.15500000000003,166.7034364546896L268.6,166.70786092097742L268.645,166.71040089323685L269.485,166.71715615301795L269.505,166.72165240981585L269.53499999999997,166.7252125802487L269.83,166.73101817202215L270.09499999999997,166.73835324425485L270.11,166.74308651738212L270.295,166.7494241013209L270.58,166.75371118542756L270.675,166.75761388959086L271.02,166.75889283713295L271.685,166.76730839624327L271.815,166.7741117208424L271.925,166.77982263901802L272.12,166.78292463287912L272.265,166.78326854419558L272.315,166.78371236239258L272.32,166.7841156117798L272.63,166.7841856919608L272.64000000000004,166.78342402020203L272.985,166.78713945498802L273,166.78967907832867L273.005,166.7913662817667L273.22999999999996,166.79481239802453L273.345,166.79873840622196L273.445,166.80222919352107L274.02,166.81375960568937L274.225,166.82232250553037L274.49,166.82738006526682L274.56,166.83121870461324L274.805,166.8361110554692L274.97499999999997,166.84236838022213L275,166.8466422197996" style="fill: none;" fill="none"></path></g></g></g></g><g opacity="0.2"><g><g><g><path stroke="rgb(255, 112, 67)" stroke-width="2px" d="M25.005,16.145001931623966L25.925,58.094521652568474L26.055,44.54438781738281L26.32,55.83903434059836L26.36,58.722620097073644L26.415000000000003,60.859763015400276L26.895,71.33483011072333L27.015,68.76983200420032L27.255,76.87307765267111L27.564999999999998,83.61589986627753L27.595,83.48257060484454L27.675,84.54769316586581L28.09,92.08262638612227L28.88,96.54356705058704L28.965,97.96940062262796L29.005,98.54196375066584L29.195,100.89492559432983L29.459999999999997,103.80785192142834L29.535,104.38971441442317L29.565,104.75853551517834L29.72,106.58830833435059L29.91,108.900850165974L29.994999999999997,109.82939789511941L30.455000000000002,112.84323614293879L30.995,113.27920525724238L31.155,113.59675325046885L31.495,116.06932165405966L31.535,116.32989952780984L31.654999999999998,117.06143806197427L31.915,118.22215149619363L32.18,119.50783857432279L32.285,120.06395517696035L32.559999999999995,121.3873844796961L32.585,121.49748451059514L32.589999999999996,121.49702030962163L32.754999999999995,122.02967366305265L33.01,123.01071830229326L33.1,123.26320526816629L33.95,124.88796238465743L34.25,125.88463640213013L34.525,126.76442001082681L35.425,128.49468118494207L36.17,130.1246864578941L36.195,130.1749582724138L36.535,130.656062299555L36.93,131.29220561547714L36.965,131.37085507132792L37.550000000000004,132.53695860776034L37.675,132.7304575226524L38.010000000000005,133.13083278049123L38.129999999999995,133.26994345404884L38.315000000000005,133.43077950044113L38.49,133.56842084364456L38.7,133.8516294739463L39.515,135.10883916508067L40.055,135.99757686528292L40.075,136.02382532033053L40.155,136.16363037716258L40.175,136.1937804222107L40.385,136.40836787223816L40.45,136.48492266915062L41.144999999999996,137.07515612515536L41.535,137.51086820255625L41.715,137.60565343770114L41.795,137.62541458823463L42.095,137.53687880255958L42.525,137.8570278557864L42.73,137.97652316093445L42.9,138.09869625351647L42.915000000000006,138.1101132956418L42.98500000000001,138.19132161140442L43.09,138.28825137831947L43.145,138.3504543087699L43.199999999999996,138.38413765213707L43.290000000000006,138.3741208856756L43.355,138.40067625045776L43.73,138.58067497340116L43.755,138.61552841013128L44.035,138.91508382016963L44.105,138.9794658097354L44.485,139.35023578730497L44.75,139.61764240264893L44.905,139.7107741615989L45.305,140.06962836872447L45.355000000000004,140.114740263332L45.379999999999995,140.13969202475113L45.505,140.2452536279505L45.645,140.39069815115494L45.78,140.51658868789673L45.91,140.62583704428238L46.27,140.8779403729872L46.36,140.9814993901686L46.71,141.3190272071145L46.745,141.34277818419716L47.07,141.55623390457848L47.14,141.61531402847984L47.6,141.93450782515785L47.665,141.96796865896744L47.775,142.05132150650024L48,142.23281641439957L48.005,142.2380914254622L48.225,142.38139908963984L48.26,142.40806954557246L48.765,142.71736166693947L49.464999999999996,143.27645529400218L49.825,143.4983855594288L50.75,144.09081342003563L50.81,144.09996700286865L51.28,144.36419710246L51.824999999999996,144.68723494356328L52.18,144.88295128128746L52.615,145.1363800764084L53.2,145.476696935567L53.3,145.513493494554L53.535,145.65388935262507L54.69,146.04309501431206L54.745,146.06635301763362L54.754999999999995,146.0686567588286L54.835,146.10210608352315L54.98,146.1370880387046L55.24,146.2586185390299L55.32,146.29040863297203L55.35,146.30666525797412L55.995000000000005,146.56626677513123L56.48,146.75027067011052L56.885,146.9120427911932L57.120000000000005,147.01198794625023L57.24,147.05525070970708L57.295,147.07813850316134L58.315,147.46688188206065L58.355000000000004,147.4811320846731L58.71,147.61904005570844L58.725,147.62632148916072L58.935,147.71333998983556L59.095000000000006,147.7776356610385L59.24,147.8452095118436L59.410000000000004,147.89686625654048L60.199999999999996,148.15207512812182L60.73,148.34635858102277L60.795,148.37807578390294L60.805,148.38280027562922L61.095,148.49201794104144L61.21,148.54270792007446L61.295,148.5783209583976L61.305,148.5805268721147L61.365,148.59563834016973L61.495,148.62822448123586L62.120000000000005,148.7751210711219L62.43,148.8728526397185L62.435,148.87428936091337L62.62,148.92505990375173L62.790000000000006,148.98150060393593L63.01,149.04271950504997L63.175000000000004,149.08967669443652L63.635000000000005,149.19232073697177L64.155,149.33035530827263L64.63,149.46924730864438L64.685,149.4867181452838L65.28500000000001,149.63961673866618L65.4,149.6613689661026L65.425,149.66919708251953L65.665,149.75000833381307L65.95,149.8241078528491L66.1,149.8687919920141L66.945,150.1314798701893L67.06,150.16804049231789L67.065,150.17051687023857L67.07,150.17213773727417L67.185,150.20616443590686L67.19500000000001,150.2099413438277L67.315,150.24739200418645L67.92,150.38168611309746L68.3,150.4818748777563L68.435,150.53199707378042L68.745,150.6207131689245L70.31,151.03837511756203L70.61,151.12852601571515L70.67,151.14841760288584L70.68,151.15037990700114L71.095,151.25981432741338L71.205,151.2777455286546L71.23,151.28190607374364L72.94500000000001,151.72442387450826L73.52,151.86258120970294L73.965,151.980616775426L74.09,152.00198152932253L74.16,152.02009304003283L74.24,152.04157480326566L74.56,152.11749276247892L74.615,152.13264643062246L74.845,152.1892003037713L75.05999999999999,152.23773999647662L75.615,152.35745972936803L76.085,152.47823254628614L76.89500000000001,152.64012934944847L77.02999999999999,152.6631993705576L77.26,152.701390450651L77.46499999999999,152.72879940813237L77.555,152.74141339822248L77.59,152.74832078543577L77.755,152.7742009488019L77.85000000000001,152.7813807184046L78.265,152.83565578677437L78.56,152.88610791076314L79.105,152.99476546590978L79.72,153.0770652294159L79.735,153.0792519612746L80.14,153.132807709954L80.715,153.19233285297048L80.855,153.22088504921305L80.905,153.2225442799655L81.095,153.23541914332998L81.225,153.25698722492564L81.295,153.27067539908668L81.645,153.31735445152628L81.66,153.31742158803073L81.73500000000001,153.33269226551056L81.8,153.33984326232564L81.94,153.35603658719495L82.16499999999999,153.3796686367555L82.27,153.38692129742014L82.28999999999999,153.3925530910492L82.735,153.47437330809507L83.01,153.52196541699496L83.29,153.5536538470875L83.34,153.56464505195618L83.52499999999999,153.584824367003L83.885,153.63422340696508L84.05,153.6580837206407L84.88499999999999,153.7924718206579L84.985,153.80666255950928L85.285,153.85832889513537L85.505,153.8922980481928L86.17,153.97854735634544L88.34,154.25515359098262L88.5,154.28139820965853L88.815,154.31495303457433L88.895,154.32879849997434L89.065,154.35740824179217L89.37,154.39637810533696L89.515,154.41845066980883L90.09,154.49804962765086L90.16,154.51120070977643L90.20500000000001,154.51670590313998L90.36000000000001,154.53424195809797L91.32000000000001,154.67252397537231L91.645,154.70874124223536L92.255,154.78926092928106L92.515,154.82754024592313L92.695,154.8433326699517L92.845,154.87175826592878L93.095,154.89889484102076L93.21499999999999,154.90945061770353L93.32,154.9252296144312L93.46,154.95068394054067L93.525,154.96279728412628L93.53500000000001,154.96432607824153L93.68,154.9849024577574L94.15,155.04964698444712L94.30000000000001,155.06657881086522L94.41499999999999,155.08526769551364L94.53,155.09718538414347L94.89500000000001,155.12693836472252L95.30999999999999,155.18368789282712L95.475,155.20353919809514L95.585,155.22013534199107L95.75999999999999,155.24237478863108L95.89,155.26307009566915L95.905,155.265387264165L95.985,155.27303315292704L96.01,155.27663934230804L96.27000000000001,155.3112184784629L97.13499999999999,155.40845515511253L97.69,155.44365194710818L98.35,155.51561460711739L98.46,155.5266978849064L98.485,155.52888653495094L98.49,155.5294926816767L98.69500000000001,155.54991176995364L99.015,155.58653569221497L99.41999999999999,155.63676338846034L99.575,155.654761726206L100.22500000000001,155.70699392665517L100.30499999999999,155.71285398439926L100.545,155.7387283932079L100.725,155.75444984436035L100.73,155.7555240284313L100.75999999999999,155.75997613776815L100.98,155.79151303117925L101.17,155.7987234917554L101.33,155.80761620131406L101.975,155.8618797605688L102.05,155.86892333897677L102.28999999999999,155.89479966597122L102.75500000000001,155.96257684447548L103.245,156.02446711063385L103.46,156.05250523307106L103.77,156.092812072147L103.945,156.11199393055657L104.14500000000001,156.13202170892197L104.19,156.1383747404272L104.235,156.14327186887914L104.67,156.19388512047854L104.75500000000001,156.19958213242617L105.05000000000001,156.21425241773778L105.09,156.21893279118973L105.235,156.2344355691563L105.795,156.3045011433688L106.30499999999999,156.36363689465958L106.77499999999999,156.42253287272018L106.995,156.45222063498062L107.065,156.46010437878695L107.13,156.46391581405294L107.38499999999999,156.49380498582667L107.425,156.49862730503082L107.55499999999999,156.516921043396L107.625,156.5244902047244L108.3,156.61140704154968L108.945,156.6798901124434L109.06,156.69065113501114L109.065,156.69109615412626L109.415,156.7342457446185L109.44,156.73710000514984L109.58500000000001,156.75294997475365L109.625,156.75449219616976L110.21000000000001,156.81085041436282L110.215,156.81197063489395L110.60499999999999,156.86695543202487L110.695,156.88054194233635L110.75,156.88836430419576L110.88499999999999,156.90447514707392L111.175,156.93317504362625L111.31,156.9447493769906L111.80499999999999,156.9866559830579L112.295,157.03463556549767L112.325,157.03633699633858L113.09,162.06123484806582L113.42999999999999,163.41893541812897L114.045,162.88801514560527L114.25,162.68565421212804L114.285,162.50744227929547L114.365,162.592884990302L114.415,162.68511328372088L114.63,162.70784378593618L115.15,163.16398070617154L115.35000000000001,163.3901837305589L115.55499999999999,163.36333680152893L115.735,163.46670591831207L115.935,163.66719662059438L115.98,163.70814988829872L117.38499999999999,164.0896741747856L117.50999999999999,164.1631253470074L117.71,164.1621039130471L117.835,164.2111615159295L118.255,164.3604443290017L118.635,164.36324008486488L119.10000000000001,164.25038074363363L119.23,164.2667351961136L119.455,164.27970884604886L120,164.5460029136051L120.15,164.54329251701182L120.30000000000001,164.64526615359566L120.32000000000001,164.65683089603078L120.41499999999999,164.72282032533124L120.495,164.75113274834374L120.53999999999999,164.7445648800243L120.65,164.76896516301414L120.67,164.7841284220869L120.8,164.81560585173693L120.88,164.78380328958684L121.175,164.75711940635335L121.35000000000001,164.72023461081764L121.39,164.70257387377998L121.59,164.63360550186852L121.925,164.77762864936483L121.995,164.8004704063589L122.13000000000001,164.84313757311213L122.21499999999999,164.85290401632136L122.515,164.90397667342967L122.77,164.95520182631233L123.17,165.05378698760813L123.27,165.04767085205424L123.48,165.06649496880445L123.72999999999999,165.09908974170685L123.74499999999999,165.09939952872017L123.83,165.07023351300847L123.97,165.0391435568983L124.17,165.0521133704619L124.51499999999999,165.1292129321532L124.53500000000001,165.13899855722082L125.10499999999999,165.28094047307968L125.155,165.3039203394543L125.865,165.3656581098383L126.42999999999999,165.41432728008792L126.63499999999999,165.46333980560303L127.07499999999999,165.52053914828733L127.33,165.52970999479294L127.46000000000001,165.55203192342412L128.885,165.49697039885953L128.945,165.5012776851654L129.005,165.4876988475973L129.12,165.45697142861107L129.15,165.43059253692627L129.46,165.37365023114464L129.595,165.39828741008586L129.74,165.38904079523954L130.10999999999999,165.38252759521657L130.96,165.4038117853078L131.1,165.40475649183446L131.21,165.40003104101527L131.235,165.40911556915805L131.47,165.38011451742867L131.88,165.41511949084023L132.06,165.41369523785332L132.82,165.4742705876177L132.895,165.4815117391673L132.98,165.49744706804103L133.85,165.51207994872874L134.035,165.4340644532984L134.325,165.43220381303266L134.67000000000002,165.48355268890208L135.07999999999998,165.44875967502594L135.70999999999998,165.43513000553304L135.795,165.44079344922847L135.98999999999998,165.42068990252235L136.675,165.47135494513944L136.94,165.49938251755455L137.195,165.52853798324412L137.39000000000001,165.5219470966946L137.405,165.52403312379664L138.155,165.60076535289937L138.34,165.63315104354513L138.38,165.63490042903206L138.82999999999998,165.7311396490444L138.895,165.7452200922099L139.03,165.7633603757078L139.07500000000002,165.76714783365077L139.105,165.76780289411545L139.15,165.77040395411578L139.41,165.80869669805872L139.47,165.82306774637917L139.48,165.82378322969782L139.48999999999998,165.82362402027303L139.57,165.83301162177867L139.94,165.8727736960758L139.99,165.8783757578243L140.11,165.89331938461825L140.335,165.9216730486263L140.39,165.92983397028664L140.465,165.93523941798642L140.525,165.94566955349663L140.64,165.95435797626322L140.715,165.97079011526975L140.85,165.97992451624438L140.965,165.98458378965205L141.355,166.01558646830645L141.655,166.04319203983653L141.835,166.0598562793298L142.29,166.05805030736056L142.755,166.1187033436515L143.42,166.1351757645607L143.84,166.1897193789482L144.655,166.23678494583476L144.765,166.2555543942885L144.79500000000002,166.25876927375793L145.01,166.29776886918327L145.435,166.3120794946497L145.65,166.31594368002632L146.175,166.30966929414055L146.445,166.3129177418622L146.845,166.34511928666723L147.21,166.38011371005666L147.225,166.38124352151698L147.32,166.3838685588403L147.565,166.39803915674037L147.775,166.40549130873248L147.895,166.4097458449277L148.09,166.4119651859457L148.185,166.40589892322367L148.28,166.38749584826556L148.29,166.38748050277883L148.38,166.3984995213422L148.57000000000002,166.39939531412992L149.01,166.4254740097306L149.14,166.41814558072522L149.155,166.41822710362348L149.22,166.42255932634527L149.45999999999998,166.43513974818316L149.715,166.43379989537326L150.215,168.24549477208745L150.285,168.83886446194217L150.5,168.66568488966334L150.53,168.83872539346868L150.95499999999998,169.528276278214L151.38000000000002,168.05676158991727L151.58499999999998,168.3155152689327L151.905,168.7100573236292L152.08,168.08812201023102L152.165,168.1383794383569L152.59500000000003,168.15415555780584L153.005,168.09308915246618L153.28,168.38661954077807L153.335,168.29647535627538L153.82500000000002,168.52861324765465L154.23,168.5607888969508L154.885,168.27791499007833L154.92499999999998,168.29265624826604L155.19,168.25682165947828L155.48,168.02753515135157L155.63000000000002,168.08981001377106L155.71,168.01332331245595L155.76,168.00931909951296L155.805,168.006834089756L156.055,167.96322029829025L156.525,167.92032678560778L156.715,167.97572686997327L156.845,168.02923754128543L156.87,168.02021151781082L157.005,168.05033470825717L157.13000000000002,168.08800979635933L157.19,168.0719095035033L157.385,168.13693312623283L158.095,168.14816026795995L158.115,168.16327173601496L158.195,168.13971737298098L158.29999999999998,168.04902171004903L158.47,168.1107489304109L158.5,168.13151425123215L158.62500000000003,168.14507966149938L158.85999999999999,168.06220731951973L159.285,168.15367505225268L160.1,167.95232979817823L160.155,167.95099953629753L161.02499999999998,167.66378573395988L161.095,167.66388164325193L161.15,167.66339921951294L161.245,167.59885130687192L161.36,167.5922968658534L161.39000000000001,167.57644401897085L161.965,167.46314829046077L162.1,167.43775630539113L162.25000000000003,167.39560129425743L162.475,167.27816707979548L162.54999999999998,167.26646806435153L162.765,167.21018465540627L163.11499999999998,167.03067890622398L163.22,166.98915497823194L163.41,167.00424055077812L163.535,166.99330497329885L163.65,166.9810074838725L165,166.72142898494548L165.31,166.6960245316679L165.675,166.585862159729L165.68,166.5878800912337L166.605,166.57808583432978L166.945,166.51763612573797L167.21,166.4766962853345L167.37499999999997,166.4772899638523L167.395,166.47144908796656L167.625,166.45436092940244L167.655,166.417075233026L167.785,166.3604820370674L167.89,166.30243101986972L168.20999999999998,166.2478960373185L168.615,166.16206681186503L169.3,166.1451234763319L169.365,166.1595875566656L169.42499999999998,166.15373133529317L169.555,166.14500838518143L169.79,166.14786360480568L170.14000000000001,166.1566469777714L170.145,166.15922981500626L170.22,166.1488812023943L170.39499999999998,166.16367137432098L170.48000000000002,166.16610171578148L170.555,166.18505914644763L170.83,166.20682192390615L170.84,166.20904030583122L170.865,166.20968002080917L171.15,166.21024972200394L171.29,166.18228257244283L171.455,166.15352992577985L171.5,166.16041429476306L171.85,166.11757640946996L171.92499999999998,166.1013639027422L172.01000000000002,166.10518972440198L172.37,166.11939868601885L172.48,166.1298681443388L173.14000000000001,166.10853983597323L173.255,166.11045706272125L173.495,166.1418740695173L173.52,166.14179638299075L173.98999999999998,166.16488750414416L174,166.16312660954216L174.02499999999998,166.1635917696086L174.11,166.1631668914448L174.23499999999999,166.15504049712962L174.425,166.1525669964877L174.795,166.20616590434855L175.21499999999997,166.1773106347431L175.64000000000001,166.19514017213476L175.88000000000002,166.0564313585108L176.1,166.079247219996L176.17000000000002,166.08134187893435L176.29500000000002,166.07361926273867L176.465,166.02668125521052L176.555,165.98507004976273L176.565,165.9863063205372L176.845,165.93132823705673L177.265,165.92335529760882L177.325,165.91520492597058L178.385,165.74966644698924L178.85999999999999,165.7256843285127L179.005,165.6946538361636L179.085,165.69152143868533L179.235,165.68978931687096L179.25,165.68964928930455L179.29,165.68761025775564L179.67499999999998,165.60558479482478L180.75500000000002,165.47598256848076L180.91,165.45772431655362L181.335,165.41241005333987L181.705,165.39956684004176L182.54000000000002,165.33741282333028L183.225,165.28088388659737L183.25,165.27455579150808L183.26,165.27299151095477L183.965,165.222853010351L184.18,165.24217681451276L184.465,165.26474235274574L185.7,165.31982018188998L185.76999999999998,165.319361735474L186.005,165.30855275826022L186.3,165.32044167410243L186.39999999999998,165.31415098363703L186.41,165.31096295876935L186.665,165.32441903244364L186.975,165.32120511206713L187.25,165.31011416153476L187.89,165.29262414303693L188.16,165.3064533038573L188.33,165.3305476362055L188.37,165.32760513912547L188.375,165.32651081410322L188.63500000000002,165.29107904434204L188.80499999999998,165.27376741712743L188.83499999999998,165.26857392896306L189.29,165.24461962418124L189.52,165.24143064022064L190.15,165.1890027848157L190.225,165.17658924514598L190.26,165.17506141012365L190.285,165.17197984457016L190.35,165.168158818375L190.37500000000003,165.16668181527746L190.575,165.1431485522877L190.57999999999998,165.14186240868136L190.64,165.14214054562828L190.79,165.13020079786128L190.81,165.12731872363523L191.15,165.12718924609098L191.20999999999998,165.12576499310407L191.575,165.10151528770274L191.725,165.08799399570987L192.79,165.0592806718566L192.83,165.0566565936262L192.9,165.04964754256335L193.115,165.03441618789327L193.17000000000002,165.03093276240608L193.185,165.03080999851227L193.295,165.01957422494888L193.47,165.00628982890737L193.92499999999998,165.00259732116353L194.415,164.97722259976646L194.97,164.94527329639956L195.24,164.93262190168554L195.38,164.93704715642062L195.995,164.9355749487877L196.325,164.9421044533903L196.625,164.93884257836774L197.03500000000003,164.95049651644447L197.12,164.9480201385238L197.215,164.94681359962985L197.395,164.92967748641968L197.60999999999999,164.89566805145958L197.845,164.90013166991147L197.985,164.88213620944455L198.075,164.87783467769623L198.135,164.87793346426704L198.58,164.85092636671934L198.76,164.8412663828243L198.9,164.84023343974894L199.135,164.83998119831085L199.25,164.84700847213918L199.355,164.84946854548022L199.385,164.85285318439657L199.455,164.85638264634392L200.06500000000003,164.85430812835693L200.155,164.8598996400833L200.4,164.86934766444293L200.45000000000002,164.86911844123495L200.505,164.8664991584691L200.555,164.8684326897968L200.63,164.86508066003972L201.63500000000002,164.84859864820135L201.69,164.84819103371012L201.94,164.85682766545904L202.125,164.85977112163198L202.635,164.86193003979596L202.995,164.89068268645894L203.175,164.9112657796253L203.29999999999998,164.92130172794515L203.38000000000002,164.9268356940963L203.435,164.93305061622098L203.555,164.94695842266083L203.64499999999998,164.95477694814855L203.69000000000003,164.96096789295024L204.125,164.99794859777796L204.57,165.033201017163L204.675,165.05002638426694L205.12,165.08731112155047L205.35,165.1031994548711L205.69,165.1263711398298L205.91,165.15324875983325L206.295,165.1938078403473L206.325,165.19758858463982L207.025,165.25280068679288L207.27999999999997,165.2777658755129L207.435,165.30564287033948L207.51,165.31127274578267L207.58999999999997,165.30799360708758L207.71,165.3252505660057L207.89,165.35486447811127L207.91,165.35885814103213L207.995,165.37177520448512L208.20999999999998,165.38273859565908L208.51,165.40434216369283L208.515,165.4044946594672L208.645,165.40057101032951L209.865,165.45062894712794L210.115,165.45834197239444L210.19,165.460023262284L210.4,165.43901912732557L210.425,165.43996287475932L210.875,165.45632020451805L211.825,165.49885885281995L212.135,165.50680206038734L212.14,165.50716172023252L212.22,165.50634840943596L212.39499999999998,165.51726672324267L212.51500000000001,165.51166466149417L212.575,165.50818219509992L212.59,165.50737463886088L213,165.53902182795784L213.02999999999997,165.54363986036995L213.13,165.55883860588074L213.64999999999998,165.57330556349322L213.715,165.57995303652504L213.79,165.57936223528603L214.31,165.6277312094515L214.38,165.63787937164307L214.475,165.6478251652284L214.66,165.66957739266482L215.16,165.69365637952632L215.59,165.7111214616082L215.78000000000003,165.7195566838438L215.805,165.7193600697951L216.10000000000002,165.746376758272L216.16,165.75271732156926L216.345,165.76591635834086L216.395,165.77023515376177L216.805,165.80884631655434L217.265,165.84714289686897L217.5,165.8807514309883L217.59500000000003,165.89119307561353L217.71,165.90626138448715L217.785,165.90762905099174L217.81,165.90771345116875L218.33,165.93506390398198L219.175,165.96098818562248L219.845,165.9771527377042L220.21,166.0066371722655L220.33,166.00977724248713L221.80999999999997,166.00108402425593L221.99,166.00989904728803L222.035,166.0143099156293L222.045,166.01408069242132L222.315,166.00279504602605L222.355,166.000033817508L222.615,166.01827096939087L223.095,166.04106477173892L223.41,166.04716939817774L224.73499999999999,166.10720286044207L224.825,166.11202038418162L224.82999999999998,166.11229084838521L224.91,166.10987968878314L225.125,166.1097291111946L225.24,166.12225582382897L225.54000000000002,166.14635974710637L225.775,166.16173400662163L225.9,166.1713585040786L226.005,166.17227539691058L226.82,166.2216897823594L227.16,166.12967536666176L227.755,166.10867602716792L227.80499999999998,166.11028826236725L227.83999999999997,166.1091344735839L227.94500000000002,166.10113659772006L228.23000000000002,166.09628742391413L228.57500000000002,166.08241126754066L228.715,166.0760476860133L228.97,166.06615464253858L229.10000000000002,166.06226072528145L229.16500000000002,166.05719287828967L229.255,166.0543980815194L229.64999999999998,166.03907753120768L230.305,166.02271540598437L230.445,166.01657049764287L230.58999999999997,166.01764276352796L230.615,166.01780580932444L230.975,166.01381598277524L231.35999999999999,166.0155615318905L231.875,166.00560422919014L232.065,166.01199082894757L232.07,166.01245215264234L232.24,166.0179909142581L232.345,166.01906030286443L232.39,166.01768016815186L232.76000000000002,166.01510788093913L232.95499999999998,166.02121634374964L233.705,166.04350182684985L233.85,166.03283863176L233.97,166.03306114131755L234.09,166.04178600961512L234.345,166.05038715492594L234.42499999999998,166.05557105216113L234.505,166.06015647541392L234.60500000000002,166.0615500374274L235.11499999999998,166.07729546590284L235.16500000000002,166.0777903578498L235.725,166.07856530492955L235.92499999999998,166.08079519596967L236.115,166.08163632046092L236.52,166.1025675643574L236.745,166.09524968537417L236.78,166.09702017090538L237.06,166.11776247349653L237.155,166.1254419305108L237.665,166.12960055741397L237.7,166.1325296271931L237.83499999999998,166.13784396106547L238.51000000000002,166.1441634243185L238.915,166.15912527387792L239.06500000000003,166.16176949305967L239.225,166.16646233471957L239.26,166.1696158322421L239.38000000000002,166.17160307277334L239.48000000000002,166.16797578334808L239.95999999999998,166.1845671317794L240.035,166.18951413306323L240.04500000000002,166.19006944786418L240.125,166.1889175772667L240.58,166.18720080093905L241.05,166.18010830879211L241.1,166.18247151374817L241.345,166.19441509788686L241.645,166.19103621352804L242.265,166.2191290042617L242.735,166.23745918815786L242.825,166.24244071678683L243.345,166.23349333893168L243.415,166.22977109930733L243.565,166.237638538534L243.695,166.24069420857862L243.785,166.23992885242808L243.85999999999999,166.23885083198547L244.095,166.24003435264933L244.53,166.24733400886709L244.7,166.2528276931156L244.70499999999998,166.25143892656672L244.93,166.2442860115658L245.195,166.2487956664779L245.225,166.2476946278052L245.285,166.2480552467433L245.41500000000002,166.24965405464172L245.425,166.24970392747358L245.595,166.25318351658908L245.81,166.25180913643405L245.96499999999997,166.25284879315984L246.195,166.17118586735293L246.56,166.15181794491681L246.64000000000001,166.14963121305811L247.24,166.14843906055796L247.365,166.15388383106753L247.54000000000002,166.1482673829252L247.88000000000002,166.15895647352392L251.9,166.28604491732338L252,166.2898208661513L252.315,166.29536058685997L252.685,166.3064026236534L252.71,166.30850111896342L252.76500000000001,166.31058618697253L253.365,166.33027732372284L253.575,166.33557535301554L253.80499999999998,166.33521473407745L254.73499999999999,166.37616128813136L255.54,166.40615212375468L255.6,166.41066657413137L255.89,166.42701814933255L255.96499999999997,166.4302378242666L256.075,166.43300576643512L256.4,166.44978509707883L256.43,166.45219913395968L256.705,166.45628486980092L256.775,166.4563069289381L256.815,166.44722815535286L256.84,166.44488317316228L257.185,166.450953272256L257.68,166.45181933316317L258.15500000000003,166.44586144794118L258.195,166.44626426696777L258.375,166.45661383867264L258.47,166.46050391955808L258.52,166.46206724101847L259.06,166.47065495902842L259.095,166.4722978852012L259.27,166.4781205383214L259.66,166.4851976849816L260.38,166.49188831719485L260.465,166.49586471644315L260.52,166.49757094274867L260.73,166.50574625080282L260.835,166.51247236945412L261.14500000000004,166.52541149204427L261.195,166.5277775742791L261.26,166.52776606516406L261.3,166.52790705182335L261.855,166.53777132251045L262.055,166.53867095166987L262.12,166.5434779253873L262.265,166.55261424454775L262.31,166.55469451709226L262.66,166.568133327094L263.485,166.58401782404292L263.51,166.58596765995026L263.625,166.59427915919912L264.09,166.6141237508167L264.2,166.61222378774121L264.865,166.64460468292236L265.15500000000003,166.64870288697156L265.235,166.65389637513593L265.69,166.68060423569247L265.81,166.68355824188754L266.01,166.6853181773966L266.08,166.68936171314934L266.145,166.68945570425555L266.25,166.69044356996363L266.26,166.69086077538404L266.73,166.69558143073863L267.05,166.69862655076113L267.175,166.6996038664471L267.195,166.69788325374776L267.655,166.6996182528409L267.76,166.7007413506508L267.91,166.7035812247883L268.15500000000003,166.70724208246577L268.6,166.7144976204092L268.645,166.71421085162595L269.485,166.7272890426896L269.505,166.72839679501274L269.53499999999997,166.73055283589795L269.83,166.73972655968234L270.09499999999997,166.7493558526039L270.11,166.75018642707303L270.295,166.75893047722903L270.58,166.7601418115876L270.675,166.7634679458358L271.02,166.7608112584461L271.685,166.7799317349087L271.815,166.78431670774114L271.925,166.78838901628149L272.12,166.78757762367076L272.265,166.78378441117027L272.315,166.78437808968803L272.32,166.78472048586065L272.63,166.78429081223229L272.64000000000004,166.78228151256388L272.985,166.79271260716698L273,166.79348851333964L273.005,166.79389708692378L273.22999999999996,166.79998157241127L273.345,166.80462741851807L273.445,166.80746537446976L274.02,166.8310552239418L274.225,166.83516685529187L274.49,166.8349664048715L274.56,166.83697666363284L274.805,166.84344958175313L274.97499999999997,166.85175436735153L275,166.85305297916585" style="fill: none;" fill="none"></path></g></g></g></g></g></g><g transform="translate(30, 177)" clip-path="url(#clip_1)"><clipPath id="clip_1"><rect width="300" height="23"></rect></clipPath><g><g><line x1="0" y1="0" x2="0" y2="5" style="visibility: inherit;" fill="rgb(0, 0, 0)" stroke="rgb(204, 204, 204)" stroke-width="1px"></line><line x1="25" y1="0" x2="25" y2="5" style="visibility: inherit;" fill="rgb(0, 0, 0)" stroke="rgb(204, 204, 204)" stroke-width="1px"></line><line x1="50" y1="0" x2="50" y2="5" style="visibility: inherit;" fill="rgb(0, 0, 0)" stroke="rgb(204, 204, 204)" stroke-width="1px"></line><line x1="75" y1="0" x2="75" y2="5" style="visibility: inherit;" fill="rgb(0, 0, 0)" stroke="rgb(204, 204, 204)" stroke-width="1px"></line><line x1="100" y1="0" x2="100" y2="5" style="visibility: inherit;" fill="rgb(0, 0, 0)" stroke="rgb(204, 204, 204)" stroke-width="1px"></line><line x1="125" y1="0" x2="125" y2="5" style="visibility: inherit;" fill="rgb(0, 0, 0)" stroke="rgb(204, 204, 204)" stroke-width="1px"></line><line x1="150" y1="0" x2="150" y2="5" style="visibility: inherit;" fill="rgb(0, 0, 0)" stroke="rgb(204, 204, 204)" stroke-width="1px"></line><line x1="175" y1="0" x2="175" y2="5" style="visibility: inherit;" fill="rgb(0, 0, 0)" stroke="rgb(204, 204, 204)" stroke-width="1px"></line><line x1="200" y1="0" x2="200" y2="5" style="visibility: inherit;" fill="rgb(0, 0, 0)" stroke="rgb(204, 204, 204)" stroke-width="1px"></line><line x1="225" y1="0" x2="225" y2="5" style="visibility: inherit;" fill="rgb(0, 0, 0)" stroke="rgb(204, 204, 204)" stroke-width="1px"></line><line x1="250" y1="0" x2="250" y2="5" style="visibility: inherit;" fill="rgb(0, 0, 0)" stroke="rgb(204, 204, 204)" stroke-width="1px"></line><line x1="275" y1="0" x2="275" y2="5" style="visibility: inherit;" fill="rgb(0, 0, 0)" stroke="rgb(204, 204, 204)" stroke-width="1px"></line><line x1="300" y1="0" x2="300" y2="5" style="visibility: inherit;" fill="rgb(0, 0, 0)" stroke="rgb(204, 204, 204)" stroke-width="1px"></line></g><g transform="translate(0, 8)"><text x="0" y="0" dx="0em" dy="0.95em" style="text-anchor: middle; visibility: hidden; font-family: &quot;Helvetica Neue&quot;, sans-serif; font-size: 12px; font-weight: 200;" fill="rgb(33, 33, 33)" stroke="none" stroke-width="1px">-5k</text><text x="25" y="0" dx="0em" dy="0.95em" style="text-anchor: middle; visibility: inherit; font-family: &quot;Helvetica Neue&quot;, sans-serif; font-size: 12px; font-weight: 200;" fill="rgb(33, 33, 33)" stroke="none" stroke-width="1px">0</text><text x="50" y="0" dx="0em" dy="0.95em" style="text-anchor: middle; visibility: inherit; font-family: &quot;Helvetica Neue&quot;, sans-serif; font-size: 12px; font-weight: 200;" fill="rgb(33, 33, 33)" stroke="none" stroke-width="1px">5k</text><text x="75" y="0" dx="0em" dy="0.95em" style="text-anchor: middle; visibility: inherit; font-family: &quot;Helvetica Neue&quot;, sans-serif; font-size: 12px; font-weight: 200;" fill="rgb(33, 33, 33)" stroke="none" stroke-width="1px">10k</text><text x="100" y="0" dx="0em" dy="0.95em" style="text-anchor: middle; visibility: inherit; font-family: &quot;Helvetica Neue&quot;, sans-serif; font-size: 12px; font-weight: 200;" fill="rgb(33, 33, 33)" stroke="none" stroke-width="1px">15k</text><text x="125" y="0" dx="0em" dy="0.95em" style="text-anchor: middle; visibility: inherit; font-family: &quot;Helvetica Neue&quot;, sans-serif; font-size: 12px; font-weight: 200;" fill="rgb(33, 33, 33)" stroke="none" stroke-width="1px">20k</text><text x="150" y="0" dx="0em" dy="0.95em" style="text-anchor: middle; visibility: inherit; font-family: &quot;Helvetica Neue&quot;, sans-serif; font-size: 12px; font-weight: 200;" fill="rgb(33, 33, 33)" stroke="none" stroke-width="1px">25k</text><text x="175" y="0" dx="0em" dy="0.95em" style="text-anchor: middle; visibility: inherit; font-family: &quot;Helvetica Neue&quot;, sans-serif; font-size: 12px; font-weight: 200;" fill="rgb(33, 33, 33)" stroke="none" stroke-width="1px">30k</text><text x="200" y="0" dx="0em" dy="0.95em" style="text-anchor: middle; visibility: inherit; font-family: &quot;Helvetica Neue&quot;, sans-serif; font-size: 12px; font-weight: 200;" fill="rgb(33, 33, 33)" stroke="none" stroke-width="1px">35k</text><text x="225" y="0" dx="0em" dy="0.95em" style="text-anchor: middle; visibility: inherit; font-family: &quot;Helvetica Neue&quot;, sans-serif; font-size: 12px; font-weight: 200;" fill="rgb(33, 33, 33)" stroke="none" stroke-width="1px">40k</text><text x="250" y="0" dx="0em" dy="0.95em" style="text-anchor: middle; visibility: inherit; font-family: &quot;Helvetica Neue&quot;, sans-serif; font-size: 12px; font-weight: 200;" fill="rgb(33, 33, 33)" stroke="none" stroke-width="1px">45k</text><text x="275" y="0" dx="0em" dy="0.95em" style="text-anchor: middle; visibility: inherit; font-family: &quot;Helvetica Neue&quot;, sans-serif; font-size: 12px; font-weight: 200;" fill="rgb(33, 33, 33)" stroke="none" stroke-width="1px">50k</text><text x="300" y="0" dx="0em" dy="0.95em" style="text-anchor: middle; visibility: hidden; font-family: &quot;Helvetica Neue&quot;, sans-serif; font-size: 12px; font-weight: 200;" fill="rgb(33, 33, 33)" stroke="none" stroke-width="1px">55k</text></g><line x1="0" y1="0" x2="300" y2="0" fill="rgb(0, 0, 0)" stroke="rgb(204, 204, 204)" stroke-width="1px"></line></g></g></g></g></svg>