<svg viewBox="0 0 330 200" xmlns="http://www.w3.org/2000/svg"><g><g><g><g><g><line x1="30" y1="177" x2="25" y2="177" style="visibility: inherit;" fill="rgb(0, 0, 0)" stroke="rgb(204, 204, 204)" stroke-width="1px"></line><line x1="30" y1="160.9090909090909" x2="25" y2="160.9090909090909" style="visibility: inherit;" fill="rgb(0, 0, 0)" stroke="rgb(204, 204, 204)" stroke-width="1px"></line><line x1="30" y1="144.8181818181818" x2="25" y2="144.8181818181818" style="visibility: inherit;" fill="rgb(0, 0, 0)" stroke="rgb(204, 204, 204)" stroke-width="1px"></line><line x1="30" y1="128.72727272727275" x2="25" y2="128.72727272727275" style="visibility: inherit;" fill="rgb(0, 0, 0)" stroke="rgb(204, 204, 204)" stroke-width="1px"></line><line x1="30" y1="112.63636363636364" x2="25" y2="112.63636363636364" style="visibility: inherit;" fill="rgb(0, 0, 0)" stroke="rgb(204, 204, 204)" stroke-width="1px"></line><line x1="30" y1="96.54545454545455" x2="25" y2="96.54545454545455" style="visibility: inherit;" fill="rgb(0, 0, 0)" stroke="rgb(204, 204, 204)" stroke-width="1px"></line><line x1="30" y1="80.45454545454547" x2="25" y2="80.45454545454547" style="visibility: inherit;" fill="rgb(0, 0, 0)" stroke="rgb(204, 204, 204)" stroke-width="1px"></line><line x1="30" y1="64.36363636363636" x2="25" y2="64.36363636363636" style="visibility: inherit;" fill="rgb(0, 0, 0)" stroke="rgb(204, 204, 204)" stroke-width="1px"></line><line x1="30" y1="48.27272727272728" x2="25" y2="48.27272727272728" style="visibility: inherit;" fill="rgb(0, 0, 0)" stroke="rgb(204, 204, 204)" stroke-width="1px"></line><line x1="30" y1="32.18181818181819" x2="25" y2="32.18181818181819" style="visibility: inherit;" fill="rgb(0, 0, 0)" stroke="rgb(204, 204, 204)" stroke-width="1px"></line><line x1="30" y1="16.090909090909093" x2="25" y2="16.090909090909093" style="visibility: inherit;" fill="rgb(0, 0, 0)" stroke="rgb(204, 204, 204)" stroke-width="1px"></line><line x1="30" y1="0" x2="25" y2="0" style="visibility: inherit;" fill="rgb(0, 0, 0)" stroke="rgb(204, 204, 204)" stroke-width="1px"></line></g><g transform="translate(20, 0)"><text x="0" y="177" dx="0em" dy="0.3em" style="text-anchor: end; visibility: hidden; font-family: &quot;Helvetica Neue&quot;, sans-serif; font-size: 12px; font-weight: 200;" fill="rgb(33, 33, 33)" stroke="none" stroke-width="1px">0</text><text x="0" y="160.9090909090909" dx="0em" dy="0.3em" style="text-anchor: end; visibility: inherit; font-family: &quot;Helvetica Neue&quot;, sans-serif; font-size: 12px; font-weight: 200;" fill="rgb(33, 33, 33)" stroke="none" stroke-width="1px">2</text><text x="0" y="144.8181818181818" dx="0em" dy="0.3em" style="text-anchor: end; visibility: hidden; font-family: &quot;Helvetica Neue&quot;, sans-serif; font-size: 12px; font-weight: 200;" fill="rgb(33, 33, 33)" stroke="none" stroke-width="1px">4</text><text x="0" y="128.72727272727275" dx="0em" dy="0.3em" style="text-anchor: end; visibility: inherit; font-family: &quot;Helvetica Neue&quot;, sans-serif; font-size: 12px; font-weight: 200;" fill="rgb(33, 33, 33)" stroke="none" stroke-width="1px">6</text><text x="0" y="112.63636363636364" dx="0em" dy="0.3em" style="text-anchor: end; visibility: hidden; font-family: &quot;Helvetica Neue&quot;, sans-serif; font-size: 12px; font-weight: 200;" fill="rgb(33, 33, 33)" stroke="none" stroke-width="1px">8</text><text x="0" y="96.54545454545455" dx="0em" dy="0.3em" style="text-anchor: end; visibility: inherit; font-family: &quot;Helvetica Neue&quot;, sans-serif; font-size: 12px; font-weight: 200;" fill="rgb(33, 33, 33)" stroke="none" stroke-width="1px">10</text><text x="0" y="80.45454545454547" dx="0em" dy="0.3em" style="text-anchor: end; visibility: hidden; font-family: &quot;Helvetica Neue&quot;, sans-serif; font-size: 12px; font-weight: 200;" fill="rgb(33, 33, 33)" stroke="none" stroke-width="1px">12</text><text x="0" y="64.36363636363636" dx="0em" dy="0.3em" style="text-anchor: end; visibility: inherit; font-family: &quot;Helvetica Neue&quot;, sans-serif; font-size: 12px; font-weight: 200;" fill="rgb(33, 33, 33)" stroke="none" stroke-width="1px">14</text><text x="0" y="48.27272727272728" dx="0em" dy="0.3em" style="text-anchor: end; visibility: hidden; font-family: &quot;Helvetica Neue&quot;, sans-serif; font-size: 12px; font-weight: 200;" fill="rgb(33, 33, 33)" stroke="none" stroke-width="1px">16</text><text x="0" y="32.18181818181819" dx="0em" dy="0.3em" style="text-anchor: end; visibility: inherit; font-family: &quot;Helvetica Neue&quot;, sans-serif; font-size: 12px; font-weight: 200;" fill="rgb(33, 33, 33)" stroke="none" stroke-width="1px">18</text><text x="0" y="16.090909090909093" dx="0em" dy="0.3em" style="text-anchor: end; visibility: hidden; font-family: &quot;Helvetica Neue&quot;, sans-serif; font-size: 12px; font-weight: 200;" fill="rgb(33, 33, 33)" stroke="none" stroke-width="1px">20</text><text x="0" y="0" dx="0em" dy="0.3em" style="text-anchor: end; visibility: hidden; font-family: &quot;Helvetica Neue&quot;, sans-serif; font-size: 12px; font-weight: 200;" fill="rgb(33, 33, 33)" stroke="none" stroke-width="1px">22</text></g><line x1="30" y1="0" x2="30" y2="177" fill="rgb(0, 0, 0)" stroke="rgb(204, 204, 204)" stroke-width="1px"></line></g></g><g transform="translate(30, 0)" clip-path="url(#clip_0)"><clipPath id="clip_0"><rect width="300" height="177"></rect></clipPath><g><g><g><line x1="0" y1="0" x2="0" y2="177" fill="rgb(0, 0, 0)" stroke="rgb(66, 66, 66)" stroke-width="1px" opacity="0.25"></line><line x1="25" y1="0" x2="25" y2="177" fill="rgb(0, 0, 0)" stroke="rgb(66, 66, 66)" stroke-width="1px" opacity="0.25"></line><line x1="50" y1="0" x2="50" y2="177" fill="rgb(0, 0, 0)" stroke="rgb(66, 66, 66)" stroke-width="1px" opacity="0.25"></line><line x1="75" y1="0" x2="75" y2="177" fill="rgb(0, 0, 0)" stroke="rgb(66, 66, 66)" stroke-width="1px" opacity="0.25"></line><line x1="100" y1="0" x2="100" y2="177" fill="rgb(0, 0, 0)" stroke="rgb(66, 66, 66)" stroke-width="1px" opacity="0.25"></line><line x1="125" y1="0" x2="125" y2="177" fill="rgb(0, 0, 0)" stroke="rgb(66, 66, 66)" stroke-width="1px" opacity="0.25"></line><line x1="150" y1="0" x2="150" y2="177" fill="rgb(0, 0, 0)" stroke="rgb(66, 66, 66)" stroke-width="1px" opacity="0.25"></line><line x1="175" y1="0" x2="175" y2="177" fill="rgb(0, 0, 0)" stroke="rgb(66, 66, 66)" stroke-width="1px" opacity="0.25"></line><line x1="200" y1="0" x2="200" y2="177" fill="rgb(0, 0, 0)" stroke="rgb(66, 66, 66)" stroke-width="1px" opacity="0.25"></line><line x1="225" y1="0" x2="225" y2="177" fill="rgb(0, 0, 0)" stroke="rgb(66, 66, 66)" stroke-width="1px" opacity="0.25"></line><line x1="250" y1="0" x2="250" y2="177" fill="rgb(0, 0, 0)" stroke="rgb(66, 66, 66)" stroke-width="1px" opacity="0.25"></line><line x1="275" y1="0" x2="275" y2="177" fill="rgb(0, 0, 0)" stroke="rgb(66, 66, 66)" stroke-width="1px" opacity="0.25"></line><line x1="300" y1="0" x2="300" y2="177" fill="rgb(0, 0, 0)" stroke="rgb(66, 66, 66)" stroke-width="1px" opacity="0.25"></line></g><g><line x1="0" y1="177" x2="300" y2="177" fill="rgb(0, 0, 0)" stroke="rgb(66, 66, 66)" stroke-width="1px" opacity="0.25"></line><line x1="0" y1="160.9090909090909" x2="300" y2="160.9090909090909" fill="rgb(0, 0, 0)" stroke="rgb(66, 66, 66)" stroke-width="1px" opacity="0.25"></line><line x1="0" y1="144.8181818181818" x2="300" y2="144.8181818181818" fill="rgb(0, 0, 0)" stroke="rgb(66, 66, 66)" stroke-width="1px" opacity="0.25"></line><line x1="0" y1="128.72727272727275" x2="300" y2="128.72727272727275" fill="rgb(0, 0, 0)" stroke="rgb(66, 66, 66)" stroke-width="1px" opacity="0.25"></line><line x1="0" y1="112.63636363636364" x2="300" y2="112.63636363636364" fill="rgb(0, 0, 0)" stroke="rgb(66, 66, 66)" stroke-width="1px" opacity="0.25"></line><line x1="0" y1="96.54545454545455" x2="300" y2="96.54545454545455" fill="rgb(0, 0, 0)" stroke="rgb(66, 66, 66)" stroke-width="1px" opacity="0.25"></line><line x1="0" y1="80.45454545454547" x2="300" y2="80.45454545454547" fill="rgb(0, 0, 0)" stroke="rgb(66, 66, 66)" stroke-width="1px" opacity="0.25"></line><line x1="0" y1="64.36363636363636" x2="300" y2="64.36363636363636" fill="rgb(0, 0, 0)" stroke="rgb(66, 66, 66)" stroke-width="1px" opacity="0.25"></line><line x1="0" y1="48.27272727272728" x2="300" y2="48.27272727272728" fill="rgb(0, 0, 0)" stroke="rgb(66, 66, 66)" stroke-width="1px" opacity="0.25"></line><line x1="0" y1="32.18181818181819" x2="300" y2="32.18181818181819" fill="rgb(0, 0, 0)" stroke="rgb(66, 66, 66)" stroke-width="1px" opacity="0.25"></line><line x1="0" y1="16.090909090909093" x2="300" y2="16.090909090909093" fill="rgb(0, 0, 0)" stroke="rgb(66, 66, 66)" stroke-width="1px" opacity="0.25"></line><line x1="0" y1="0" x2="300" y2="0" fill="rgb(0, 0, 0)" stroke="rgb(66, 66, 66)" stroke-width="1px" opacity="0.25"></line></g></g></g><g><g><line x1="0" y1="177" x2="300" y2="177" fill="rgb(0, 0, 0)" stroke="rgb(153, 153, 153)" stroke-width="1.5px"></line></g></g><g><g><line x1="25" y1="0" x2="25" y2="177" fill="rgb(0, 0, 0)" stroke="rgb(153, 153, 153)" stroke-width="1.5px"></line></g></g><g><g><g><g><g><path stroke="rgb(255, 112, 67)" stroke-width="2px" d="M25.005,16.145001931623966L25.925,43.03454346006566L26.055,44.29476904824844L26.32,49.962236645068714L26.36,54.09472824170322L26.415000000000003,57.24361906579176L26.895,63.27519361817407L27.015,65.72783780655759L27.255,70.42473016716114L27.564999999999998,75.90313650538562L27.595,79.11341763507858L27.675,81.45422865595656L28.09,85.85184996862402L28.88,90.24405601382583L28.965,93.44538247391333L29.005,95.59323320287226L29.195,97.81801916257949L29.459999999999997,100.31181817731334L29.535,102.03908942827604L29.565,103.22229559933083L29.72,104.66100466592174L29.91,106.44571237541281L29.994999999999997,107.88645546790973L30.455000000000002,109.94924105463879L30.995,111.35420158851072L31.155,112.32231340653027L31.495,113.88852489354417L31.535,114.93207838678946L31.654999999999998,115.84963631842105L31.915,116.86202100807571L32.18,117.98143703117276L32.285,118.87467232688596L32.559999999999995,119.93785678607864L32.585,120.61961562413381L32.589999999999996,121.0284468703556L32.754999999999995,121.48560233644017L33.01,122.15056868934614L33.1,122.64993406935487L33.95,123.59443049730328L34.25,124.55824806608604L34.525,125.48710932020231L35.425,126.73265273767649L36.17,128.1292570732515L36.195,128.9872393963268L36.535,129.69334097313003L36.93,130.37020705383267L36.965,130.80768213525897L37.550000000000004,131.5349006460149L37.675,132.0482921831592L38.010000000000005,132.5156117231267L38.129999999999995,132.8513392722449L38.315000000000005,133.11664525202406L38.49,133.3304741181282L38.7,133.57156076523864L39.515,134.21729813891432L40.055,134.95915225183754L40.075,135.4147257378935L40.155,135.7438368628439L40.175,135.9533267266652L40.385,136.16445664231406L40.45,136.32164448841522L41.144999999999996,136.65084749231838L41.535,137.02201728792144L41.715,137.2823462987394L41.795,137.44633153974448L42.095,137.51750132544137L42.525,137.6874249545749L42.73,137.83679822059207L42.9,137.97498297295195L42.915000000000006,138.06243301934188L42.98500000000001,138.14726054048975L43.09,138.23673714136038L43.145,138.31520452839922L43.199999999999996,138.3756600868543L43.290000000000006,138.4077686568295L43.355,138.43754392267437L43.73,138.5267748027568L43.755,138.59421173813544L44.035,138.75403569877616L44.105,138.8755693143851L44.485,139.09619900079593L44.75,139.33513894157642L44.905,139.5155238927751L45.305,139.76672109059226L45.355000000000004,139.93541357788664L45.379999999999995,140.04657448021143L45.505,140.15532072433734L45.645,140.27855139241325L45.78,140.40269255308823L45.91,140.52070625714478L46.27,140.69188623916682L46.36,140.83590120955344L46.71,141.05687169580264L46.745,141.1989114110224L47.07,141.36915844391734L47.14,141.49485584758654L47.6,141.6974423382999L47.665,141.83230183881813L47.775,141.94644051789436L48,142.08729457529628L48.005,142.17391241051646L48.225,142.282965253178L48.26,142.35902524288247L48.765,142.52785020050854L49.464999999999996,142.85209207900652L49.825,143.13507631521395L50.75,143.54105384680938L50.81,143.78824808969628L51.28,144.04186536535343L51.824999999999996,144.32280738262259L52.18,144.5693714001976L52.615,144.81834449535734L53.2,145.10346071710768L53.3,145.28917618269077L53.535,145.45665178321593L54.69,145.71213499949775L54.745,145.87469283597602L54.754999999999995,145.97314136159758L54.835,146.0455387994678L54.98,146.10287336769616L55.24,146.18572978479867L55.32,146.24810749798215L55.35,146.29201682676032L55.995000000000005,146.4218347392086L56.48,146.57309762964272L56.885,146.72835858281408L57.120000000000005,146.86138733288132L57.24,146.95843909906546L57.295,147.02579228336117L58.315,147.22123350815312L58.355000000000004,147.34418681495825L58.71,147.47295625619878L58.725,147.55312512340367L58.935,147.6359425383505L59.095000000000006,147.71128373565818L59.24,147.78346428516127L59.410000000000004,147.84734784346753L60.199999999999996,147.9873794244643L60.73,148.14888080464752L60.795,148.25843705566172L60.805,148.32605676658906L61.095,148.4102726919475L61.21,148.4810567550944L61.295,148.53774248461264L61.305,148.5726316841644L61.365,148.59959291108208L61.495,148.62874732535823L62.120000000000005,148.70478454033852L62.43,148.78942660570334L62.435,148.8407842315772L62.62,148.89182722770585L62.790000000000006,148.94498096717356L63.01,149.00128250931746L63.175000000000004,149.05379336842924L63.635000000000005,149.12619790784842L64.155,149.2246733832769L64.63,149.33914436650565L64.685,149.41479610924029L65.28500000000001,149.52124531202162L65.4,149.59380498282425L65.425,149.64046205730625L65.665,149.7007102132739L65.95,149.76655262367245L66.1,149.82388108547138L66.945,149.96309013872346L67.06,150.06121680129604L67.065,150.12108258273352L67.07,150.15764809658725L67.185,150.19315741881272L67.19500000000001,150.21596993894465L67.315,150.24459398053017L67.92,150.315358681506L68.3,150.39781934961877L68.435,150.46730549790493L68.745,150.5444383557484L70.31,150.75760254044044L70.61,150.92166575982668L70.67,151.02804191174263L70.68,151.09264945544095L71.095,151.17508493506378L71.205,151.23171793605962L71.23,151.2673542819494L72.94500000000001,151.46574244251474L73.52,151.63992241450703L73.965,151.79163388215093L74.09,151.89117597332245L74.16,151.95812971954837L74.24,152.0068862325594L74.56,152.0664467093787L74.615,152.10825597184277L74.845,152.15596154403207L75.05999999999999,152.20394935704724L75.615,152.28061229070317L76.085,152.3748854175932L76.89500000000001,152.49635763348772L77.02999999999999,152.57845976417605L77.26,152.64297368912196L77.46499999999999,152.6926103324626L77.555,152.7274563290871L77.59,152.75115066745153L77.755,152.77573007765736L77.85000000000001,152.79335883891397L78.265,152.82555558464418L78.56,152.8650567835008L79.105,152.93210773554597L79.72,153.00547535081273L79.735,153.05036600907022L80.14,153.09867743431067L80.715,153.1515526086438L80.855,153.19472160997083L80.905,153.22127442667863L81.095,153.2423223019783L81.225,153.26356214703532L81.295,153.28176981461888L81.645,153.31136066522453L81.66,153.329138193818L81.73500000000001,153.34590147285098L81.8,153.3589088428198L81.94,153.3732573476161L82.16499999999999,153.39133768490217L82.27,153.40509308973435L82.28999999999999,153.41559981735963L82.735,153.45464421714252L83.01,153.49708544961646L83.29,153.53516111009358L83.34,153.56239071193795L83.52499999999999,153.58776312835545L83.885,153.62275616875715L84.05,153.65327003114098L84.88499999999999,153.7256757929322L84.985,153.7747709927687L85.285,153.8248915778237L85.505,153.86850018269914L86.17,153.92952568782354L88.34,154.07806866926651L88.5,154.17768386558495L88.815,154.25135983072292L88.895,154.30110589778872L89.065,154.34238285654294L89.37,154.38283902470013L89.515,154.41591106040974L90.09,154.468519197822L90.16,154.50554400444705L90.20500000000001,154.52995559484714L90.36000000000001,154.55161236742435L91.32000000000001,154.6206734685531L91.645,154.6766576506481L92.255,154.74286345739603L92.515,154.79801299197774L92.695,154.8374849006568L92.845,154.87254212062672L93.095,154.9045285264862L93.21499999999999,154.92865471125916L93.32,154.94945736630072L93.46,154.9722795155571L93.525,154.99081277162477L93.53500000000001,155.00254040653982L93.68,155.01813976908286L94.15,155.05352303027573L94.30000000000001,155.08211498424905L94.41499999999999,155.10679174695255L94.53,155.12638713098238L94.89500000000001,155.1503348160567L95.30999999999999,155.18751065675022L95.475,155.21875183808783L95.585,155.244192550024L95.75999999999999,155.26861976731075L95.89,155.2916524316131L95.905,155.30639429394682L95.985,155.3182854904625L96.01,155.326873425965L96.27000000000001,155.3459276636931L97.13499999999999,155.39629554252957L97.69,155.44081059071829L98.35,155.49696991048484L98.46,155.53510955530106L98.485,155.55886266401393L98.49,155.57335468610896L98.69500000000001,155.5901914473493L99.015,155.61489473471485L99.41999999999999,155.64988067669427L99.575,155.6780508605731L100.22500000000001,155.71588574934557L100.30499999999999,155.74091689476865L100.545,155.7663896948557L100.725,155.7879366353158L100.73,155.80129217139722L100.75999999999999,155.81116920240913L100.98,155.8297071092834L101.17,155.843774652311L101.33,155.8558420839156L101.975,155.88562276105827L102.05,155.90630015868933L102.28999999999999,155.92909702633128L102.75500000000001,155.9703095537518L103.245,156.02021517755247L103.46,156.06136075714406L103.77,156.10211176040548L103.945,156.1352379332838L104.14500000000001,156.1632881777906L104.19,156.18266260619413L104.235,156.19623997642233L104.67,156.22618082608417L104.75500000000001,156.24644639161608L105.05000000000001,156.26450146693597L105.09,156.27733939996887L105.235,156.2912501764443L105.795,156.32810855666946L106.30499999999999,156.37384182342706L106.77499999999999,156.42526371013955L106.995,156.46800575800927L107.065,156.49680908789966L107.13,156.5156179617633L107.38499999999999,156.53896253682638L107.425,156.55512225365212L107.55499999999999,156.57216550279276L107.625,156.58542602227752L108.3,156.62916340537117L108.945,156.68270775793883L109.06,156.71927458606407L109.065,156.74139038876223L109.415,156.77225730728605L109.44,156.79192760263058L109.58500000000001,156.81003217123632L109.625,156.82192766365654L110.21000000000001,156.85178471948328L110.215,156.87014550664307L110.60499999999999,156.90331472357897L110.695,156.92863474510403L110.75,156.94694112455042L110.88499999999999,156.96443297313945L111.175,156.9879932296928L111.31,157.0067153823333L111.80499999999999,157.03475274915874L112.295,157.07103785007064L112.325,157.09349638842318L113.09,159.16107117742328L113.42999999999999,160.94211363343234L114.045,161.78048007868972L114.25,162.19953673157676L114.285,162.37913543083963L114.365,162.51914434166696L114.415,162.64011044385833L114.63,162.71963739065194L115.15,162.9569547199913L115.35000000000001,163.1936673026778L115.55499999999999,163.32189312152687L115.735,163.439736994992L115.935,163.587959510727L115.98,163.69264554593107L117.38499999999999,163.8985016561338L117.50999999999999,164.0505084383741L117.71,164.14207197574487L117.835,164.21733596261242L118.255,164.325850498511L118.635,164.39326065942208L119.10000000000001,164.3939857308486L119.23,164.4000303163778L119.455,164.40779766365162L120,164.51935856893226L120.15,164.58435390802958L120.30000000000001,164.66543994521018L120.32000000000001,164.71894572860765L120.41499999999999,164.77961942583562L120.495,164.82992281877597L120.53999999999999,164.8574665817345L120.65,164.88329987720996L120.67,164.90471553962874L120.8,164.92970168253288L120.88,164.93737855838947L121.175,164.93261166061018L121.35000000000001,164.91568277971072L121.39,164.89832458152412L121.59,164.8594230683253L121.925,164.89191326113L121.995,164.92007911136258L122.13000000000001,164.9535513635308L122.21499999999999,164.98221667828417L122.515,165.01847304346606L122.77,165.05953033396705L123.17,165.12324544295404L123.27,165.16274971829333L123.48,165.19362399671905L123.72999999999999,165.22489452505044L123.74499999999999,165.24368830029707L123.83,165.24366529993034L123.97,165.23068609797411L124.17,165.22784787990722L124.51499999999999,165.25655356556655L124.53500000000001,165.27787882556441L125.10499999999999,165.3479042070395L125.155,165.3989487203151L125.865,165.454126672496L126.42999999999999,165.50681044849728L126.63499999999999,165.55754617784388L127.07499999999999,165.61259065068506L127.33,165.64958299179736L127.46000000000001,165.6803020470676L128.885,165.67857488159L128.945,165.6790512636576L129.005,165.67393202883557L129.12,165.66032159129495L129.15,165.64147218454798L129.46,165.60640772704542L129.595,165.59551011744784L129.74,165.5848083211401L130.10999999999999,165.57472696113373L130.96,165.57632211570612L131.1,165.5773739668301L131.21,165.57584635115907L131.235,165.57847113645602L131.47,165.5682833084203L131.88,165.57567847629085L132.06,165.5798827092521L132.82,165.60536478263356L132.895,165.62339281240614L132.98,165.6403593340758L133.85,165.6565635015297L134.035,165.63471381397142L134.325,165.62059618659563L134.67000000000002,165.63264444411084L135.07999999999998,165.62949793140623L135.70999999999998,165.62341840408385L135.795,165.6221127926022L135.98999999999998,165.61504659980974L136.675,165.63510722964182L136.94,165.65791422103803L137.195,165.6831746674259L137.39000000000001,165.69588601558573L137.405,165.7043249843667L138.155,165.74011194824982L138.34,165.77474901964334L138.38,165.7961470001344L138.82999999999998,165.8476633204517L138.895,165.8841070787932L139.03,165.91382523571946L139.07500000000002,165.93310090745064L139.105,165.9449080019053L139.15,165.9529244968968L139.41,165.97262220147766L139.47,165.99003387050124L139.48,166.00077895799507L139.48999999999998,166.00713355393384L139.57,166.01459546824094L139.94,166.0345159310307L139.99,166.04858281677562L140.11,166.06274566386048L140.335,166.08237460454646L140.39,166.09728244825047L140.465,166.10822513684482L140.525,166.11887188219663L140.64,166.12847749433735L140.715,166.14062573501198L140.85,166.15129183740834L140.965,166.1597378195013L141.355,166.17675762473203L141.655,166.19779536511965L141.835,166.21671886620257L142.29,166.22744687099384L142.755,166.25785869505754L143.42,166.28197428725755L143.84,166.31772246174842L144.655,166.35743825020634L144.765,166.3885641185829L144.79500000000002,166.4084584548922L145.01,166.43571829244965L145.435,166.45724792583434L145.65,166.47138413751134L146.175,166.47739063750834L146.445,166.48190145577217L146.845,166.49682333780282L147.21,166.51924711890788L147.225,166.53312377209312L147.32,166.5423463240663L147.565,166.55376983669345L147.775,166.56343753926126L147.895,166.5709825590057L148.09,166.57630101433034L148.185,166.5770379605602L148.28,166.56999306532373L148.29,166.56574119176588L148.38,166.56747644571138L148.57000000000002,166.56857130728224L149.01,166.57928949259772L149.14,166.58260296815828L149.155,166.58459565714065L149.22,166.58743745761876L149.45999999999998,166.59501333749046L149.715,166.59890284585586L150.215,167.28614206906013L150.285,167.93315223875607L150.5,168.2629967690883L150.53,168.5281980502343L150.95499999999998,168.95440145267733L151.38000000000002,168.6421983476501L151.58499999999998,168.56374235476275L151.905,168.67372789750175L152.08,168.49317671519324L152.165,168.40453349800535L152.59500000000003,168.37103812898718L153.005,168.32422479882064L153.28,168.40984839192112L153.335,168.42440642329882L153.82500000000002,168.5242144040309L154.23,168.59300302750668L154.885,168.5165924311523L154.92499999999998,168.47636098693332L155.19,168.4370116739575L155.48,168.32009423776185L155.63000000000002,168.27380562426873L155.71,168.21507063487687L155.76,168.1780346029318L155.805,168.15451168649025L156.055,168.12283732888855L156.525,168.08662927279437L156.715,168.08682316510524L156.845,168.10770232767143L156.87,168.11645943912217L157.005,168.134358003419L157.13000000000002,168.16231401083118L157.19,168.17235861934842L157.385,168.20394252532927L158.095,168.23305810296335L158.115,168.2564450528631L158.195,168.2606227348637L158.29999999999998,168.22803997047546L158.47,168.23258771328807L158.5,168.24353079802097L158.62500000000003,168.2549024716666L158.85999999999999,168.22783573569038L159.285,168.24664325124184L160.1,168.17570971178347L160.155,168.13241492293133L161.02499999999998,167.9889246140829L161.095,167.90266853388886L161.15,167.85056654322372L161.245,167.793257536016L161.36,167.7561977969919L161.39000000000001,167.72750687458546L161.965,167.66384191645423L162.1,167.6150902339901L162.25000000000003,167.5687504904917L162.475,167.49349379578484L162.54999999999998,167.44361145086276L162.765,167.39326449018125L163.11499999999998,167.2912037576304L163.22,167.21313485370834L163.41,167.17231469670986L163.535,167.14328801118276L163.65,167.12072934362692L165,167.00329368883231L165.31,166.92343241806054L165.675,166.83084494373335L165.68,166.776118046323L166.605,166.74341426269982L166.945,166.69886938753154L167.21,166.65578072084443L167.37499999999997,166.62981626605338L167.395,166.6118490681696L167.625,166.59376314684548L167.655,166.57027612027946L167.785,166.5332635017263L167.89,166.48765099423744L168.20999999999998,166.43810695959968L168.615,166.3735850312993L169.3,166.32908547491127L169.365,166.30815295862783L169.42499999999998,166.29311054910525L169.555,166.28041484660363L169.79,166.27417238071345L170.14000000000001,166.2756182793393L170.145,166.27750667701935L170.22,166.27445423412243L170.39499999999998,166.2783477858452L170.48000000000002,166.2816660280294L170.555,166.29106423978337L170.83,166.3048796258014L170.84,166.3140458519787L170.865,166.3197443117382L171.15,166.32289675976202L171.29,166.31365584522973L171.455,166.29638159009295L171.5,166.28869022079883L171.85,166.26641888219353L171.92499999999998,166.24646404156934L172.01000000000002,166.23590560743395L172.37,166.23531090990036L172.48,166.2390824109471L173.14000000000001,166.2319312391049L173.255,166.2282301863271L173.495,166.23841062612217L173.52,166.2444686335302L173.98999999999998,166.25759769061338L174,166.264767314288L174.02499999999998,166.26920834878482L174.11,166.2715833234209L174.23499999999999,166.2695551900517L174.425,166.26707077282646L174.795,166.2867346432197L175.21499999999997,166.28651361297622L175.64000000000001,166.2939965762559L175.88000000000002,166.24361242823437L176.1,166.22218104151108L176.17000000000002,166.21006915104357L176.29500000000002,166.1995487735768L176.465,166.17804988615674L176.555,166.14836067303884L176.565,166.13103359709737L176.845,166.09827053735265L177.265,166.07522518531067L177.325,166.05804268341248L178.385,165.9803603573446L178.85999999999999,165.9245256387204L179.005,165.87923218463285L179.085,165.85083806417134L179.235,165.8329104027527L179.25,165.8220912730431L179.29,165.81472164973937L179.67499999999998,165.77857193103625L180.75500000000002,165.70476614142717L180.91,165.65396467217417L181.335,165.60602714855818L181.705,165.5719132795295L182.54000000000002,165.52593040096744L183.225,165.47572871549988L183.25,165.4430526806792L183.26,165.42280676935306L183.965,165.39038668367868L184.18,165.3788866634963L184.465,165.3807351133703L185.7,165.4060014321385L185.76999999999998,165.42096326662065L186.005,165.42572112573416L186.3,165.433629877256L186.39999999999998,165.4357779045405L186.41,165.4357780836632L186.665,165.44091701100476L186.975,165.4430823236662L187.25,165.440086309528L187.89,165.43221419012394L188.16,165.43384394998677L188.33,165.44434751679063L188.37,165.4494561616427L188.375,165.45207671307602L188.63500000000002,165.43979667306698L188.80499999999998,165.42546486718456L188.83499999999998,165.41474810648668L189.29,165.39836957102244L189.52,165.38704664842513L190.15,165.3588735627578L190.225,165.3369490517373L190.26,165.3231548219656L190.285,165.31363951968652L190.35,165.3063731550534L190.37500000000003,165.30140143499023L190.575,165.29143620649126L190.57999999999998,165.28493570648033L190.64,165.2811194230136L190.79,165.27425669788872L190.81,165.2689969749641L191.15,165.26569459181107L191.20999999999998,165.263819813052L191.575,165.2532486478042L191.725,165.24140267347784L192.79,165.2227798356416L192.83,165.21052926340874L192.9,165.20110574481214L193.115,165.18926510067993L193.17000000000002,165.18073933849246L193.185,165.1755559774012L193.295,165.1678707038786L193.47,165.15783682839267L193.92499999999998,165.15008131218937L194.415,165.13525701386433L194.97,165.11402274535445L195.24,165.09598990951335L195.38,165.08701320096466L195.995,165.08182052896822L196.325,165.0815277280539L196.625,165.08014282315116L197.03500000000003,165.08416680857297L197.12,165.08554307764896L197.215,165.08579223243075L197.395,165.07897180522812L197.60999999999999,165.0612155438871L197.845,165.0521803522951L197.985,165.0394636093124L198.075,165.03010604535442L198.135,165.02449265789113L198.58,165.01031411365074L198.76,164.99784785153076L198.9,164.98982908403747L199.135,164.9847581011786L199.25,164.9844278262424L199.355,164.9851292904401L199.385,164.98698957561376L199.455,164.9894611368332L200.06500000000003,164.98983190941425L200.155,164.99220542656494L200.4,164.99726488266114L200.45000000000002,165.00016052875245L200.505,165.00080071410622L200.555,165.00190989956636L200.63,165.00117513517856L201.63500000000002,164.99401563881935L201.69,164.98951162602148L201.94,164.99086157775037L202.125,164.99334382320384L202.635,164.99539903529902L202.995,165.00784779516817L203.175,165.02346166817034L203.29999999999998,165.036738103804L203.38000000000002,165.0468665279013L203.435,165.05538389838654L203.555,165.0659538612182L203.64499999999998,165.07535956534238L203.69000000000003,165.0834375492862L204.125,165.1028065410172L204.57,165.12817020305755L204.675,165.15003146148615L205.12,165.17812272612932L205.35,165.20124458169477L205.69,165.22413930668122L205.91,165.248434603816L206.295,165.2789561264441L206.325,165.29877443226889L207.025,165.3326865728551L207.27999999999997,165.36294780890722L207.435,165.39213335184962L207.51,165.41183716403128L207.58999999999997,165.4222914011985L207.71,165.43539882328733L207.89,165.45505398126778L207.91,165.4684265102775L207.995,165.48155623839196L208.20999999999998,165.49403848855326L208.51,165.50996670543873L208.515,165.5195804138709L208.645,165.5237154955052L209.865,165.54575551823166L210.115,165.56202177461128L210.19,165.57240263701436L210.4,165.57017080398612L210.425,165.5691877194612L210.875,165.57496279300375L211.825,165.59504277924643L212.135,165.61008659363844L212.14,165.61925290984004L212.22,165.62437136421582L212.39499999999998,165.6316839293728L212.51500000000001,165.63379381459944L212.575,165.6337009028857L212.59,165.63331024060963L213,165.64598983759961L213.02999999999997,165.65542063961684L213.13,165.66709531889876L213.64999999999998,165.68014509732708L213.715,165.69058753349944L213.79,165.6965729400701L214.31,165.71932877874946L214.38,165.73699666128502L214.475,165.75151240810771L214.66,165.76880612147679L215.16,165.7910079652077L215.59,165.81155449387197L215.78000000000003,165.8271437106373L215.805,165.83640094776732L216.10000000000002,165.85304508966618L216.16,165.86553173823063L216.345,165.8784046222903L216.395,165.88849539405388L216.805,165.90985084192812L217.265,165.93773030952187L217.5,165.9679716093276L217.59500000000003,165.9904748910789L217.71,166.00995776358175L217.785,166.02215887542866L217.81,166.02950754805008L218.33,166.04468276147387L219.175,166.06376936137013L219.845,166.0814442998131L220.21,166.1036523690308L220.33,166.11829768969437L221.80999999999997,166.12309850827782L221.99,166.12941945755222L222.035,166.13495105440026L222.045,166.13850710027904L222.315,166.13598874350484L222.355,166.13343883998886L222.615,166.1392014568094L223.095,166.151580509248L223.41,166.16127600364948L224.73499999999999,166.19080975002794L224.825,166.21044319641277L224.82999999999998,166.2223279971906L224.91,166.22851129385185L225.125,166.23210886615834L225.24,166.23935328748092L225.54000000000002,166.2531719419571L225.775,166.26760631661705L225.9,166.28013553861706L226.005,166.288020212587L226.82,166.3125459275733L227.16,166.29066543981702L227.755,166.26884738166655L227.80499999999998,166.25637803898874L227.83999999999997,166.24841803783335L227.94500000000002,166.24039186305117L228.23000000000002,166.23365298505774L228.57500000000002,166.2240035683229L228.715,166.21592897530826L228.97,166.2074235536406L229.10000000000002,166.200723602746L229.16500000000002,166.1946791788727L229.255,166.18989624212378L229.64999999999998,166.180919359994L230.305,166.16906817715778L230.445,166.15956625698672L230.58999999999997,166.15424145294608L230.615,166.15117969261905L230.975,166.14795578805985L231.35999999999999,166.1469007417138L231.875,166.14240870763135L232.065,166.1422481779521L232.07,166.14233332052513L232.24,166.1445231832816L232.345,166.14622917812136L232.39,166.14667923745878L232.76000000000002,166.14600475835314L232.95499999999998,166.14797708678387L233.705,166.1577815782859L233.85,166.15934183321312L233.97,166.16042837193936L234.09,166.16451730056494L234.345,166.17041648678497L234.42499999999998,166.17599387915442L234.505,166.1811407238064L234.60500000000002,166.1847509607835L235.11499999999998,166.19337218196173L235.16500000000002,166.19871985321737L235.725,166.2020968726876L235.92499999999998,166.2049713061486L236.115,166.20696221041993L236.52,166.2163616010988L236.745,166.21907024754117L236.78,166.2213994096102L237.06,166.23101863500312L237.155,166.23981630022158L237.665,166.24653008599884L237.7,166.25171579080163L237.83499999999998,166.25691189805525L238.51000000000002,166.26233790724842L238.915,166.27150305970315L239.06500000000003,166.2780283806009L239.225,166.28377313879463L239.26,166.28846719814467L239.38000000000002,166.29202558803797L239.48000000000002,166.29267978250473L239.95999999999998,166.29978710053962L240.035,166.30599461361746L240.04500000000002,166.3099393291987L240.125,166.31180743022878L240.58,166.3120470762715L241.05,166.3095598801977L241.1,166.3089913608544L241.345,166.31334136454106L241.645,166.31448050185023L242.265,166.32669688478586L242.735,166.34129817343313L242.825,166.3520477217014L243.345,166.35482757751146L243.415,166.35509790079377L243.565,166.35854441256L243.695,166.361928962381L243.785,166.36361326791072L243.85999999999999,166.36423100676834L244.095,166.36504858738382L244.53,166.36859557307213L244.7,166.37285755441457L244.70499999999998,166.3748565511403L244.93,166.3731464448922L245.195,166.3738360065595L245.225,166.37379743533856L245.285,166.37396918028745L245.41500000000002,166.3746760721595L245.425,166.37511478549513L245.595,166.37672841632855L245.81,166.37706244258956L245.96499999999997,166.37768677741704L246.195,166.34615197321207L246.56,166.32006858475899L246.64000000000001,166.3035941154127L247.24,166.2931984290969L247.365,166.2892164202192L247.54000000000002,166.28452961189228L247.88000000000002,166.28594213939226L251.9,166.33898042352723L252,166.37248449207925L252.315,166.39484348703374L252.685,166.41280805354685L252.71,166.42441314791498L252.76500000000001,166.43227621733246L253.365,166.4449810011875L253.575,166.45490224177513L253.80499999999998,166.4606393820392L254.73499999999999,166.48075185206704L255.54,166.50540071501456L255.6,166.52198507109304L255.89,166.53844293838696L255.96499999999997,166.54957867413518L256.075,166.55736000334528L256.4,166.5690800520227L256.43,166.57706235049477L256.705,166.58347106206494L256.775,166.58731283627253L256.815,166.58606004969928L256.84,166.58436654850743L257.185,166.5857048290935L257.68,166.58685613999387L258.15500000000003,166.58506402678154L258.195,166.5842922158542L258.375,166.5879137142275L258.47,166.59162269647294L258.52,166.59450717447515L259.06,166.59960005741848L259.095,166.60329569398104L259.27,166.60778574250293L259.66,166.6140648609528L260.38,166.62071574897885L260.465,166.62627075416637L260.52,166.63030236056215L260.73,166.63593236749736L260.835,166.64196475722522L261.14500000000004,166.65112582995644L261.195,166.6575654537546L261.26,166.66141656800693L261.3,166.663769820284L261.855,166.66911597081003L262.055,166.6726221308425L262.12,166.67663710723392L262.265,166.68269064616658L262.31,166.68713953305726L262.66,166.6951076617587L263.485,166.70642955269724L263.51,166.7139903452339L263.625,166.72210347007493L264.09,166.73494601079474L264.2,166.74185855719998L264.865,166.75901867415098L265.15500000000003,166.77087921669346L265.235,166.78009518844044L265.69,166.79654538711836L265.81,166.80755567598897L266.01,166.81558706139117L266.08,166.82200527598667L266.145,166.82597091225728L266.25,166.8287170511524L266.26,166.83052662937448L266.73,166.83412136338768L267.05,166.83763359391082L267.175,166.8400931111451L267.195,166.84087098547673L267.655,166.8419097130935L267.76,166.84304433800872L267.91,166.8448441825775L268.15500000000003,166.84743677067294L268.6,166.85213814830936L268.645,166.854823934608L269.485,166.86174993207814L269.505,166.86633942419743L269.53499999999997,166.86994786307974L269.83,166.87569494664854L270.09499999999997,166.8829036083124L270.11,166.8875537459922L270.295,166.89404209090142L270.58,166.898699303086L270.675,166.90280490223762L271.02,166.90430072879042L271.685,166.9133451436258L271.815,166.92049585796087L271.925,166.92638336809307L272.12,166.9296576863582L272.265,166.93005511948525L272.315,166.93053872351194L272.32,166.93097236622884L272.63,166.93100160228374L272.64000000000004,166.9302230967927L272.985,166.93385477300302L273,166.93634414119828L273.005,166.93799888972606L273.22999999999996,166.94193308501127L273.345,166.94623979353662L273.445,166.9501577250856L274.02,166.9618688472817L274.225,166.97050142578541L274.49,166.97599210263104L274.56,166.98017347787126L274.805,166.98548247070602L274.97499999999997,166.9919636933188L275,166.9963684188777" style="fill: none;" fill="none"></path></g></g></g></g><g opacity="0.2"><g><g><g><path stroke="rgb(255, 112, 67)" stroke-width="2px" d="M25.005,16.145001931623966L25.925,59.16826837713067L26.055,45.50458561290395L26.32,56.62717853892933L26.36,59.49010927026923L26.415000000000003,61.59966867620294L26.895,71.9004417332736L27.015,69.30381657860495L27.255,77.35173407467929L27.564999999999998,84.03793144226074L27.595,83.89972231604837L27.675,84.95270659706809L28.09,92.4339229410345L28.88,96.8237602927468L28.965,98.24360912496394L29.005,98.81349446556784L29.195,101.15425664728338L29.459999999999997,104.05188352411443L29.535,104.62973317232999L29.565,104.9969967061823L29.72,106.81898936358365L29.91,109.12271521308206L29.994999999999997,110.047541661696L30.455000000000002,113.0433949990706L30.995,113.46163240346041L31.155,113.77447700500488L31.495,116.23783811655912L31.535,116.49740702455694L31.654999999999998,117.22597237066789L31.915,118.38059748302805L32.18,119.66056069460782L32.285,120.21452509273183L32.559999999999995,121.53263334794478L32.585,121.64225383238359L32.589999999999996,121.64169372211802L32.754999999999995,122.17133552377874L33.01,123.14801820841703L33.1,123.39898213473234L33.95,125.01117513396524L34.25,126.00397441603921L34.525,126.88040119951421L35.425,128.60096786238933L36.17,130.22416357560593L36.195,130.2742128805681L36.535,130.7524933381514L36.93,131.38550617478109L36.965,131.4638947573575L37.550000000000004,132.625728412108L37.675,132.8183794888583L38.010000000000005,133.21659103306857L38.129999999999995,133.35493059591812L38.315000000000005,133.51460422169077L38.49,133.65121741728348L38.7,133.93319073590365L39.515,135.18590419942683L40.055,136.07193342122164L40.075,136.0980859669772L40.155,136.2375035502694L40.175,136.26756152239713L40.385,136.4811515157873L40.45,136.557426257567L41.144999999999996,137.14465199817312L41.535,137.578771981326L41.715,137.67283981496638L41.795,137.69230940125206L42.095,137.62425600398672L42.525,137.9423103982752L42.73,138.06085811961782L42.9,138.18226010149175L42.915000000000006,138.19360808892685L42.98500000000001,138.27450182221153L43.09,138.37095204266635L43.145,138.43290560895747L43.199999999999996,138.46634342453697L43.290000000000006,138.45593151179227L43.355,138.48220682144165L43.73,138.6606211228804L43.755,138.69536714120346L44.035,138.99377163973722L44.105,139.0578697377985L44.485,139.42714353041214L44.75,139.69354885274714L44.905,139.78610131957313L45.305,140.14351688731801L45.355000000000004,140.18845230882818L45.379999999999995,140.21331583369863L45.505,140.31844009052622L45.645,140.46339739452708L45.78,140.58890429410067L45.91,140.69772681322965L46.27,140.9486562121998L46.36,141.0519236651334L46.71,141.38832742517644L46.745,141.41197098385203L47.07,141.6245289932598L47.14,141.6834019530903L47.6,142.00132207436997L47.665,142.03459108959544L47.775,142.11764853650874L48,142.29857566139916L48.005,142.3038391633467L48.225,142.4465445171703L48.26,142.4731152274392L48.765,142.78108763694763L49.464999999999996,143.3384548967535L49.825,143.55955266952515L50.75,144.1500201442025L50.81,144.15903945402664L51.28,144.4222912788391L51.824999999999996,144.74422040852633L52.18,144.93921742656013L52.615,145.1918041380969L53.2,145.53113504973325L53.3,145.56774938106537L53.535,145.70786518400365L54.69,146.09535982392052L54.745,146.11852959069338L54.754999999999995,146.12081415002996L54.835,146.15413495627317L54.98,146.18887522003868L55.24,146.3100144104524L55.32,146.34167406775734L55.35,146.35788081992757L55.995000000000005,146.61656160788104L56.48,146.79999196529388L56.885,146.96125001257116L57.120000000000005,147.06093045798215L57.24,147.10401674834165L57.295,147.12682205980474L58.315,147.5143953453411L58.355000000000004,147.52861677516591L58.71,147.66611041805962L58.725,147.673378424211L58.935,147.76016866077077L59.095000000000006,147.82429553161967L59.24,147.89173510941592L59.410000000000004,147.94317318092692L60.199999999999996,148.19742679595947L60.73,148.3911328749223L60.795,148.422771432183L60.805,148.42748633298007L61.095,148.53659657998517L61.21,148.58723284981468L61.295,148.62277107889003L61.305,148.62496548349208L61.365,148.64003475145861L61.495,148.6724789467725L62.120000000000005,148.8188403628089L62.43,148.9163897037506L62.435,148.91782067038795L62.62,148.96839172189885L62.790000000000006,149.0247115763751L63.01,149.08573482253334L63.175000000000004,149.13255965709686L63.635000000000005,149.2348047169772L64.155,149.3723865964196L64.63,149.51085084134883L64.685,149.5282737233422L65.28500000000001,149.6809191161936L65.4,149.70264448902824L65.425,149.71044766902924L65.665,149.7910824472254L65.95,149.8653162392703L66.1,149.9098737781698L66.945,150.17190371860158L67.06,150.20840679515493L67.065,150.21088125488976L67.07,150.21249636736783L67.185,150.24642140215093L67.19500000000001,150.25018871914256L67.315,150.2875300429084L67.92,150.4215057329698L68.3,150.52151035178792L68.435,150.57153472033414L68.745,150.66013764251363L70.31,151.07734881747854L70.61,151.16776058890602L70.67,151.18760613961652L70.68,151.18956077098846L71.095,151.298738154498L71.205,151.3166674375534L71.23,151.32080880078402L72.94500000000001,151.76332468336278L73.52,151.90119237249547L73.965,152.01920108361676L74.09,152.04048911007968L74.16,152.0585603388873L74.24,152.08002100207588L74.56,152.15578742460772L74.615,152.17096986553886L74.845,152.227519902316L75.05999999999999,152.27593107657L75.615,152.39560669118708L76.085,152.5162951079282L76.89500000000001,152.67856595732948L77.02999999999999,152.70161296020854L77.26,152.73974457654086L77.46499999999999,152.76706529747355L77.555,152.77972532402384L77.59,152.7866921749982L77.755,152.8125991929661L77.85000000000001,152.8198019807989L78.265,152.87385070323944L78.56,152.9243085817857L79.105,153.03268416361377L79.72,153.11552677371284L79.735,153.1177019964565L80.14,153.1711445721713L80.715,153.23086537014353L80.855,153.25947511196136L80.905,153.26110365174034L81.095,153.2738941149278L81.225,153.29542191462085L81.295,153.30908131599426L81.645,153.355746941133L81.66,153.3558044867082L81.73500000000001,153.37104639140043L81.8,153.37841989777306L81.94,153.39478010481054L82.16499999999999,153.41845819083127L82.27,153.42572619698265L82.28999999999999,153.43135990879753L82.735,153.51321081681684L83.01,153.56074729832736L83.29,153.59227460080928L83.34,153.6032351147045L83.52499999999999,153.6258217529817L83.885,153.67524572935972L84.05,153.69904082471675L84.88499999999999,153.834284435619L84.985,153.84841379252347L85.285,153.9000724554062L85.505,153.93391309001228L86.17,154.02106394551018L88.34,154.30088314143094L88.5,154.3271066600626L88.815,154.3618737784299L88.895,154.37572499838743L89.065,154.40429829467428L89.37,154.44352327693593L89.515,154.46551911397412L90.09,154.54743140394038L90.16,154.5610812143846L90.20500000000001,154.56657298044726L90.36000000000001,154.5840975262902L91.32000000000001,154.7242651202462L91.645,154.76063392379066L92.255,154.84217216751793L92.515,154.8807372938503L92.695,154.89669276367533L92.845,154.92512795058164L93.095,154.95250813527542L93.21499999999999,154.96484398841858L93.32,154.98066134886307L93.46,155.0065127394416L93.525,155.01861265572634L93.53500000000001,155.02013185891238L93.68,155.04153881289741L94.15,155.10659792206505L94.30000000000001,155.125002915209L94.41499999999999,155.14380689100784L94.53,155.15578020702708L94.89500000000001,155.18625634366816L95.30999999999999,155.2432744177905L95.475,155.26561361009425L95.585,155.28235361792824L95.75999999999999,155.30526059324092L95.89,155.3262014280666L95.905,155.32850708744743L95.985,155.336122285236L96.01,155.33975532921878L96.27000000000001,155.3745090202852L97.13499999999999,155.47184736078435L97.69,155.50758316300133L98.35,155.58120889013463L98.46,155.59231902252543L98.485,155.59449232708323L98.49,155.59509271925145L98.69500000000001,155.61544658920982L99.015,155.65194966576317L99.41999999999999,155.70235958966342L99.575,155.72030613639137L100.22500000000001,155.77263808250427L100.30499999999999,155.77846361290324L100.545,155.80459889498624L100.725,155.82025704600593L100.73,155.82132547551936L100.75999999999999,155.82598474892703L100.98,155.85751396959478L101.17,155.86487596685237L101.33,155.87394323132256L101.975,155.93029377677223L102.05,155.93731625513595L102.28999999999999,155.96329232779416L102.75500000000001,156.0321283448826L103.245,156.0950736132535L103.46,156.12307912653142L103.77,156.16323826529762L103.945,156.1849271926013L104.14500000000001,156.2053635445508L104.19,156.2117242487994L104.235,156.21660603176463L104.67,156.27109210057694L104.75500000000001,156.27684473991394L105.05000000000001,156.29158407991582L105.09,156.29659629951823L105.235,156.31211634115738L105.795,156.38339612700722L106.30499999999999,156.44244172356346L106.77499999999999,156.50239654020828L106.995,156.53211882981387L107.065,156.54001408273524L107.13,156.54383127255875L107.38499999999999,156.573979399421L107.425,156.5793618288907L107.55499999999999,156.59773037650368L107.625,156.60531680150467L108.3,156.69476948001167L108.945,156.7630242867903L109.06,156.77412482825193L109.065,156.7745640928095L109.415,156.81855768507177L109.44,156.82143304564735L109.58500000000001,156.83718902414495L109.625,156.8397709022869L110.21000000000001,156.89657030322334L110.215,156.8976866873828L110.60499999999999,156.9530685489828L110.695,156.9666147773916L110.75,156.97440069372004L110.88499999999999,156.990670746023L111.175,157.02333361452276L111.31,157.03479861129415L111.80499999999999,157.07680879939687L112.295,157.1254655014385L112.325,157.127184195952L113.09,162.2624333609234L113.42999999999999,163.61367731744593L114.045,163.0380297465758L114.25,162.82812171090734L114.285,162.6485334797339L114.365,162.72915770790794L114.415,162.82155959714544L114.63,162.83892781084234L115.15,163.31293071400034L115.35000000000001,163.54873617670754L115.55499999999999,163.51423184980047L115.735,163.61650280518964L115.935,163.8102932843295L115.98,163.8496745987372L117.38499999999999,164.20728582143784L117.50999999999999,164.27851861173457L117.71,164.27941728180105L117.835,164.33023194291374L118.255,164.4886223023588L118.635,164.49437590078875L119.10000000000001,164.3950733379884L119.23,164.40909719467163L119.455,164.41944868456233L120,164.68669992685318L120.15,164.68184691667557L120.30000000000001,164.78706900098106L120.32000000000001,164.79920440370387L120.41499999999999,164.8706299716776L120.495,164.90537790818647L120.53999999999999,164.89878222617236L120.65,164.92204982042313L120.67,164.9368390332569L120.8,164.9671808968891L120.88,164.94889387217435L121.175,164.92546131394127L121.35000000000001,164.89028945836154L121.39,164.87228728424418L121.59,164.80107079852712L121.925,164.94064855033702L121.995,164.96232788671148L122.13000000000001,165.00375974178314L122.21499999999999,165.0252146504142L122.515,165.0728575912389L122.77,165.12111626971853L123.17,165.21881810643455L123.27,165.22200613130224L123.48,165.23993541435763L123.72999999999999,165.27180031754753L123.74499999999999,165.271878963167L123.83,165.2436307993802L123.97,165.21121729503977L124.17,165.22359055280685L124.51499999999999,165.29961209405553L124.53500000000001,165.30986671556127L125.10499999999999,165.45294227925214L125.155,165.47551549022847L125.865,165.5368936007673L126.42999999999999,165.58583611249924L126.63499999999999,165.63364977186376L127.07499999999999,165.69515735994685L127.33,165.70507150346583L127.46000000000001,165.72638062997297L128.885,165.67598413337362L128.945,165.67976583675906L129.005,165.66625317660245L129.12,165.63990593498403L129.15,165.61319807442752L129.46,165.5538110407916L129.595,165.57916370305148L129.74,165.56875562667847L130.10999999999999,165.5596049211242L130.96,165.5787148475647L131.1,165.57895174351606L131.21,165.57355492765254L131.235,165.58240831440145L131.47,165.5530015663667L131.88,165.5867712280967L132.06,165.58618905869398L132.82,165.64358789270574L132.895,165.65043485706502L132.98,165.66580911658028L133.85,165.68086975271052L134.035,165.60193928263405L134.325,165.59941974553195L134.67000000000002,165.65071683038366L135.07999999999998,165.62477816234934L135.70999999999998,165.61429911310023L135.795,165.62015437537974L135.98999999999998,165.60444731062108L136.675,165.66519817438993L136.94,165.6921247081323L137.195,165.7210653370077L137.39000000000001,165.7149530378255L137.405,165.71698343753815L138.155,165.79379239407453L138.34,165.8267046267336L138.38,165.82824397087097L138.82999999999998,165.9249378009276L138.895,165.93877271630546L139.03,165.95840247110888L139.07500000000002,165.96201441504738L139.105,165.9626186435873L139.15,165.96494923938405L139.41,166.00216875834897L139.47,166.0161513740366L139.48,166.0168965892358L139.48999999999998,166.016665447842L139.57,166.02578833970156L139.94,166.06439662521535L139.99,166.06968314539301L140.11,166.0839899344878L140.335,166.1118180155754L140.39,166.1196442138065L140.465,166.12463916973635L140.525,166.13484200022438L140.64,166.14288591254842L140.715,166.15884809602392L140.85,166.16729099100286L140.965,166.1724067926407L141.355,166.20228733257815L141.655,166.22935197570106L141.835,166.24510411782697L142.29,166.24353887818077L142.755,166.30347643115303L143.42,166.31814767555758L143.84,166.37134472348473L144.655,166.41701193289325L144.765,166.4352529211478L144.79500000000002,166.43829995935613L145.01,166.4766080487858L145.435,166.48954237591136L145.65,166.4925884550268L146.175,166.4864003875039L146.445,166.4886676831679L146.845,166.5192061608488L147.21,166.5528827905655L147.225,166.55393875187093L147.32,166.5561801520261L147.565,166.57090510563418L147.775,166.57793909311295L147.895,166.58230008862236L148.09,166.5842786973173L148.185,166.57814337990501L148.28,166.55942572246897L148.29,166.55936338142916L148.38,166.57007932662964L148.57000000000002,166.5702135996385L149.01,166.59536677057093L149.14,166.58757318149912L149.155,166.5875846906142L149.22,166.59170015833595L149.45999999999998,166.606377157298L149.715,166.60473710840398L150.215,168.3170009038665L150.285,168.9036674933L150.5,168.75776356458664L150.53,168.9259999719533L150.95499999999998,169.59370655634186L151.38000000000002,168.17389369010925L151.58499999999998,168.4460583654317L151.905,168.8387062116103L152.08,168.2223499417305L152.165,168.27156867222354L152.59500000000003,168.32079507545993L153.005,168.25400480357084L153.28,168.53828378157183L153.335,168.44624347036535L153.82500000000002,168.673926375129L154.23,168.69618596272036L154.885,168.40197653662074L154.92499999999998,168.41601382060483L155.19,168.3779877044938L155.48,168.14471808346835L155.63000000000002,168.20437270402908L155.71,168.12696815078908L155.76,168.12248055501416L155.805,168.11922731182793L156.055,168.075325792486L156.525,168.03231718865308L156.715,168.0871140035716L156.845,168.13902107152072L156.87,168.12959510629827L157.005,168.16120584986427L157.13000000000002,168.2042480219494L157.19,168.18742553212425L157.385,168.2513183843006L158.095,168.27673146941444L158.115,168.2915254777128L158.195,168.2668892578645L158.29999999999998,168.1791658238931L158.47,168.23940932750702L158.5,168.25994542512026L158.62500000000003,168.2719599821351L158.85999999999999,168.187235631726L159.285,168.27485452456907L160.1,168.06930940259588L160.155,168.06747273965314L161.02499999999998,167.77368915081024L161.095,167.7732844135978L161.15,167.772413557226L161.245,167.7072940252044L161.36,167.70060818845576L161.39000000000001,167.68447049097583L161.965,167.5683444792574L162.1,167.54196271029386L162.25000000000003,167.49924087524414L162.475,167.38060875372454L162.54999999999998,167.36878793347967L162.765,167.31774404915896L163.11499999999998,167.13811265880412L163.22,167.09603149782527L163.41,167.11108446121216L163.535,167.09974798289213L163.65,167.08689134229314L165,166.82714020664042L165.31,166.8036405119029L165.675,166.69196373224258L165.68,166.69402770020744L166.605,166.69435858726501L166.945,166.63205207477915L167.21,166.59114772081375L167.37499999999997,166.5908695838668L167.395,166.58489827134392L167.625,166.5666342648593L167.655,166.53504558043048L167.785,166.4777445738966L167.89,166.41923223300412L168.20999999999998,166.36379090764305L168.615,166.27680213884875L169.3,166.26233614032918L169.365,166.2767541842027L169.42499999999998,166.2705469348214L169.555,166.26137129285118L169.79,166.26480868187818L170.14000000000001,166.27778712727806L170.145,166.28033927353945L170.22,166.26987556977704L170.39499999999998,166.28418811342934L170.48000000000002,166.28664339130574L170.555,166.30516155741432L170.83,166.32560270482844L170.84,166.32779519124463L170.865,166.32829200137746L171.15,166.3276254317977L171.29,166.29979447343132L171.455,166.27047020738775L171.5,166.27715316685763L171.85,166.2330118742856L171.92499999999998,166.21653178063306L172.01000000000002,166.22006795623085L172.37,166.23441886359996L172.48,166.2447396625172L173.14000000000001,166.22120448134163L173.255,166.2226786071604L173.495,166.2536812858148L173.52,166.25355564464223L173.98999999999998,166.27729127623817L174,166.2755217497999L174.02499999999998,166.27586990053004L174.11,166.2751457853751L174.23499999999999,166.26651298999786L174.425,166.2633441469886L174.795,166.31623044880953L175.21499999999997,166.286182067611L175.64000000000001,166.30522102117538L175.88000000000002,166.16803620620206L176.1,166.19003396142614L176.17000000000002,166.1919013153423L176.29500000000002,166.18376820737666L176.465,166.14580155502665L176.555,166.103826853362L176.565,166.10504298318517L176.845,166.04912594773552L177.265,166.04065715724772L177.325,166.03226893056524L178.385,165.86383686824277L178.85999999999999,165.84077356078407L179.005,165.81129200350153L179.085,165.80824688347903L179.235,165.80601891062477L179.25,165.80586257847872L179.29,165.80366721478376L179.67499999999998,165.72434735298157L180.75500000000002,165.59405745701358L180.91,165.57776246829465L181.335,165.5341208631342L181.705,165.52074247598648L182.54000000000002,165.45695608312434L183.225,165.4004261872985L183.25,165.39403862844813L183.26,165.39243790236387L183.965,165.3417565551671L184.18,165.36163663322276L184.465,165.3835077881813L185.7,165.4439009102908L185.76999999999998,165.44340601834384L186.005,165.43285791440442L186.3,165.4454930045388L186.39999999999998,165.43899994546717L186.41,165.43577835234728L186.665,165.4486254020171L186.975,165.44633029265836L187.25,165.43559228832072L187.89,165.4204060110179L188.16,165.436288589781L188.33,165.4601028669964L188.37,165.45711912892082L188.375,165.45600754022598L188.63500000000002,165.4213766130534L188.80499999999998,165.40396715836093L188.83499999999998,165.39867296543989L189.29,165.37380176782608L189.52,165.37006226452914L190.15,165.31661393425682L190.225,165.30406228520653L190.26,165.3024634773081L190.285,165.29936656626788L190.35,165.29547360810366L190.37500000000003,165.2939438548955L190.575,165.27648836374283L190.57999999999998,165.2751849564639L190.64,165.2753949978135L190.79,165.2639626102014L190.81,165.26110739057714L191.15,165.26074101708153L191.20999999999998,165.2610076449134L191.575,165.2373918999325L191.725,165.22363371198827L192.79,165.19484557888725L192.83,165.19215340505946L192.9,165.18697046691722L193.115,165.1715041344816L193.17000000000002,165.16795069521123L193.185,165.1677809357643L193.295,165.15634279359472L193.47,165.14278601516378L193.92499999999998,165.13844803788444L194.415,165.11302056637678L194.97,165.08217134258965L195.24,165.06894065575167L195.38,165.07354813814163L195.995,165.07403152097356L196.325,165.0810885266824L196.625,165.07806546579707L197.03500000000003,165.0902027867057L197.12,165.0876074812629L197.215,165.08616596460342L197.395,165.0687411644242L197.60999999999999,165.03458115187559L197.845,165.03862756490707L197.985,165.02038849483836L198.075,165.01606969941747L198.135,165.01607257669622L198.58,164.98904629729012L198.76,164.97914845835078L198.9,164.97780093279752L199.135,164.97715162689036L199.25,164.98393241383812L199.355,164.98618148673665L199.385,164.98978000337428L199.455,164.9931684786623L200.06500000000003,164.99038806828585L200.155,164.99576570229098L200.4,165.0048540668054L200.45000000000002,165.00450399788943L200.505,165.00176099213687L200.555,165.00357367775658L200.63,165.00007298859683L201.63500000000002,164.98327639428052L201.69,164.9827556068247L201.94,164.9928865053437L202.125,164.99706719138405L202.635,164.99848185344175L202.995,165.0265209349719L203.175,165.04688247767362L203.29999999999998,165.0566527572545L203.38000000000002,165.06205916404724L203.435,165.0681599541144L203.555,165.0818088054657L203.64499999999998,165.08946812152863L203.69000000000003,165.09555452520198L204.125,165.1318600286137L204.57,165.1662156961181L204.675,165.18282334912908L205.12,165.22025962309405L205.35,165.23592736504295L205.69,165.25848139416087L205.91,165.28487754951823L206.295,165.32473841038617L206.325,165.3285018910061L207.025,165.3835547837344L207.27999999999997,165.40833966298536L207.435,165.43591166626322L207.51,165.44139288230375L207.58999999999997,165.43797275694934L207.71,165.45505995642054L207.89,165.48453671823847L207.91,165.4884853037921L207.995,165.50125083056363L208.20999999999998,165.5127618637952L208.51,165.53385903076693L208.515,165.53400097651914L208.645,165.52991811795667L209.865,165.57881555232134L210.115,165.58642115918073L210.19,165.58797393061897L210.4,165.56682305444372L210.425,165.5677130926739L210.875,165.58362540331754L211.825,165.62516275861046L212.135,165.63265231522647L212.14,165.63300238414243L212.22,165.6320490457795L212.39499999999998,165.64265277710828L212.51500000000001,165.6369586424394L212.575,165.63356153531507L212.59,165.6327242471955L213,165.6650092330846L213.02999999999997,165.6695668426427L213.13,165.6846073378216L213.64999999999998,165.69971976496956L213.715,165.706251187758L213.79,165.70555104992607L214.31,165.75346253676847L214.38,165.76349848508835L214.475,165.7732860283418L214.66,165.7947466915304L215.16,165.8243107308041L215.59,165.84237428686836L215.78000000000003,165.85052753578532L215.805,165.8502868034623L216.10000000000002,165.87801130251452L216.16,165.88426171107724L216.345,165.89771394837987L216.395,165.9036315516992L216.805,165.9418840137395L217.265,165.97954951091245L217.5,166.01333355903625L217.59500000000003,166.0242298137058L217.71,166.03918207233602L217.785,166.04046054319903L217.81,166.04053055698222L218.33,166.06744558160955L219.175,166.09239926121452L219.845,166.10795670747757L220.21,166.1369644728574L220.33,166.14026567068967L221.80999999999997,166.130299736153L221.99,166.13890088146383L222.035,166.14324844967234L222.045,166.14384116909721L222.315,166.1322112083435L222.355,166.12961398471487L222.615,166.1478453820402L223.095,166.17014908790588L223.41,166.17581924525174L224.73499999999999,166.23511036959562L224.825,166.23989336599004L224.82999999999998,166.24015519835731L224.91,166.23778623884374L225.125,166.23750522461805L225.24,166.2502199194648L225.54000000000002,166.27389992367137L225.775,166.28925787860697L225.9,166.29892937161705L226.005,166.29984722354195L226.82,166.34933450005272L227.16,166.2578447081826L227.755,166.23612029444087L227.80499999999998,166.23767402497205L227.83999999999997,166.2364780361002L227.94500000000002,166.22835260087794L228.23000000000002,166.22354466806758L228.57500000000002,166.20952944322065L228.715,166.2038170857863L228.97,166.19466542113912L229.10000000000002,166.1906736764041L229.16500000000002,166.18561254306272L229.255,166.1827218370004L229.64999999999998,166.16745403679934L230.305,166.15129140290347L230.445,166.14531337673014L230.58999999999997,166.14625424688512L230.615,166.14658705212852L230.975,166.143119931221L231.35999999999999,166.14531817219475L231.875,166.13567065650767L232.065,166.14200738343325L232.07,166.14246103438464L232.24,166.1478079774163L232.345,166.14878817038104L232.39,166.14735432646492L232.76000000000002,166.1449930396947L232.95499999999998,166.15093557942998L233.705,166.1724883155389L233.85,166.16168221560392L233.97,166.16205818002874L234.09,166.1706506935033L234.345,166.179265266115L234.42499999999998,166.1843599677086L234.505,166.18886099078438L234.60500000000002,166.19016631624916L235.11499999999998,166.2063040137291L235.16500000000002,166.20674136010084L235.725,166.20716240189293L235.92499999999998,166.2092829563401L236.115,166.2099485668269L236.52,166.23046068711713L236.745,166.2231332172047L236.78,166.22489315271378L237.06,166.24544747309253L237.155,166.25301279804924L237.665,166.25660076466474L237.7,166.2594943480058L237.83499999999998,166.26470605893567L238.51000000000002,166.27047692103818L238.915,166.2852507883852L239.06500000000003,166.2878163619475L239.225,166.29239027608526L239.26,166.29550828716972L239.38000000000002,166.2973631728779L239.48000000000002,166.2936610742049L239.95999999999998,166.31044807759199L240.035,166.3153058832342L240.04500000000002,166.31585640257055L240.125,166.31460958177394L240.58,166.3124065453356L241.05,166.30582908608696L241.1,166.30813858183947L241.345,166.31986637007105L241.645,166.31618920781395L242.265,166.34502145918933L242.735,166.36320010640404L242.825,166.3681720441038L243.345,166.35899736122653L243.415,166.3555033857172L243.565,166.36371418020943L243.695,166.3670057871125L243.785,166.36613972620532L243.85999999999999,166.36515761505473L244.095,166.3662749583071L244.53,166.37391605160454L244.7,166.37925052642822L244.70499999999998,166.37785504622892L244.93,166.37058128552005L245.195,166.37487034906042L245.225,166.37373957850716L245.285,166.37422679771078L245.41500000000002,166.3757364099676L245.425,166.37577285549858L245.595,166.37914886257866L245.81,166.3775634819811L245.96499999999997,166.37862327965823L246.195,166.29884976690465L246.56,166.28094350207937L246.64000000000001,166.27888241139325L247.24,166.27760489962319L247.365,166.28324340690267L247.54000000000002,166.27749939940193L247.88000000000002,166.28806093064222L251.9,166.41853784972972L252,166.42274059490725L252.315,166.42838197946548L252.685,166.4397549033165L252.71,166.44182078946722L252.76500000000001,166.44407082145864L253.365,166.46403817697004L253.575,166.46978410265663L253.80499999999998,166.46924509243533L254.73499999999999,166.5109205571088L255.54,166.54237400943583L255.6,166.54686160521075L255.89,166.56312973932788L255.96499999999997,166.56628227775747L256.075,166.56903199716047L256.4,166.58666012503883L256.43,166.58903579820287L256.705,166.5930841294202L256.775,166.5930754975839L256.815,166.5841808698394L256.84,166.58182629671964L257.185,166.5877122499726L257.68,166.5885831063444L258.15500000000003,166.58237585696307L258.195,166.58313449946317L258.375,166.5933459617875L258.47,166.59718616984108L258.52,166.59883389147845L259.06,166.60723938183352L259.095,166.60883914882487L259.27,166.61452081528577L259.66,166.62348353862762L260.38,166.63069208101794L260.465,166.63460326194763L260.52,166.63634977015582L260.73,166.6443773779002L260.835,166.651013341817L261.14500000000004,166.66486743905327L261.195,166.6672248894518L261.26,166.66719323938543L261.3,166.6672996986996L261.855,166.6771351965991L262.055,166.6778813708912L262.12,166.68265957182103L262.265,166.69177095456556L262.31,166.69381286339328L262.66,166.7070598548109L263.485,166.72341238910502L263.51,166.7253315340389L263.625,166.7342731573365L264.09,166.75420982187444L264.2,166.7522273768078L264.865,166.78475884957746L265.15500000000003,166.78867003050718L265.235,166.79391914606094L265.69,166.82122068513524L265.81,166.8240711092949L266.01,166.82763413949445L266.08,166.83163259787992L266.145,166.83191936666316L266.25,166.83283625949514L266.26,166.83324099670756L266.73,166.83951346440747L267.05,166.84290193969554L267.175,166.84378238699654L267.195,166.84203779697418L267.655,166.8434678045186L267.76,166.8447462753816L267.91,166.84754394943064L268.15500000000003,166.8513256528161L268.6,166.859190214764L268.645,166.858852614056L269.485,166.87213892828333L269.505,166.8732236623764L269.53499999999997,166.87536052140322L269.83,166.88431557200173L270.09499999999997,166.89371660080823L270.11,166.89452895251188L270.295,166.90377460826528L270.58,166.90568512136286L270.675,166.90896330096504L271.02,166.90654446861961L271.685,166.92691176587886L271.815,166.93122192946348L271.925,166.93521463329142L272.12,166.93456916375592L272.265,166.9306512691758L272.315,166.93126412955198L272.32,166.93162283030424L272.63,166.9310454563661L272.64000000000004,166.9290553385561L272.985,166.9393022873185L273,166.94007819349116L273.005,166.94048101251775L273.22999999999996,166.94783437793905L273.345,166.95269985632464L273.445,166.95603462240913L274.02,166.97943553057584L274.225,166.98345029354095L274.49,166.98422811789945L274.56,166.9864455407316L274.805,166.99344595995817L274.97499999999997,167.00168552723798L275,167.002975507216" style="fill: none;" fill="none"></path></g></g></g></g></g></g><g transform="translate(30, 177)" clip-path="url(#clip_1)"><clipPath id="clip_1"><rect width="300" height="23"></rect></clipPath><g><g><line x1="0" y1="0" x2="0" y2="5" style="visibility: inherit;" fill="rgb(0, 0, 0)" stroke="rgb(204, 204, 204)" stroke-width="1px"></line><line x1="25" y1="0" x2="25" y2="5" style="visibility: inherit;" fill="rgb(0, 0, 0)" stroke="rgb(204, 204, 204)" stroke-width="1px"></line><line x1="50" y1="0" x2="50" y2="5" style="visibility: inherit;" fill="rgb(0, 0, 0)" stroke="rgb(204, 204, 204)" stroke-width="1px"></line><line x1="75" y1="0" x2="75" y2="5" style="visibility: inherit;" fill="rgb(0, 0, 0)" stroke="rgb(204, 204, 204)" stroke-width="1px"></line><line x1="100" y1="0" x2="100" y2="5" style="visibility: inherit;" fill="rgb(0, 0, 0)" stroke="rgb(204, 204, 204)" stroke-width="1px"></line><line x1="125" y1="0" x2="125" y2="5" style="visibility: inherit;" fill="rgb(0, 0, 0)" stroke="rgb(204, 204, 204)" stroke-width="1px"></line><line x1="150" y1="0" x2="150" y2="5" style="visibility: inherit;" fill="rgb(0, 0, 0)" stroke="rgb(204, 204, 204)" stroke-width="1px"></line><line x1="175" y1="0" x2="175" y2="5" style="visibility: inherit;" fill="rgb(0, 0, 0)" stroke="rgb(204, 204, 204)" stroke-width="1px"></line><line x1="200" y1="0" x2="200" y2="5" style="visibility: inherit;" fill="rgb(0, 0, 0)" stroke="rgb(204, 204, 204)" stroke-width="1px"></line><line x1="225" y1="0" x2="225" y2="5" style="visibility: inherit;" fill="rgb(0, 0, 0)" stroke="rgb(204, 204, 204)" stroke-width="1px"></line><line x1="250" y1="0" x2="250" y2="5" style="visibility: inherit;" fill="rgb(0, 0, 0)" stroke="rgb(204, 204, 204)" stroke-width="1px"></line><line x1="275" y1="0" x2="275" y2="5" style="visibility: inherit;" fill="rgb(0, 0, 0)" stroke="rgb(204, 204, 204)" stroke-width="1px"></line><line x1="300" y1="0" x2="300" y2="5" style="visibility: inherit;" fill="rgb(0, 0, 0)" stroke="rgb(204, 204, 204)" stroke-width="1px"></line></g><g transform="translate(0, 8)"><text x="0" y="0" dx="0em" dy="0.95em" style="text-anchor: middle; visibility: hidden; font-family: &quot;Helvetica Neue&quot;, sans-serif; font-size: 12px; font-weight: 200;" fill="rgb(33, 33, 33)" stroke="none" stroke-width="1px">-5k</text><text x="25" y="0" dx="0em" dy="0.95em" style="text-anchor: middle; visibility: inherit; font-family: &quot;Helvetica Neue&quot;, sans-serif; font-size: 12px; font-weight: 200;" fill="rgb(33, 33, 33)" stroke="none" stroke-width="1px">0</text><text x="50" y="0" dx="0em" dy="0.95em" style="text-anchor: middle; visibility: inherit; font-family: &quot;Helvetica Neue&quot;, sans-serif; font-size: 12px; font-weight: 200;" fill="rgb(33, 33, 33)" stroke="none" stroke-width="1px">5k</text><text x="75" y="0" dx="0em" dy="0.95em" style="text-anchor: middle; visibility: inherit; font-family: &quot;Helvetica Neue&quot;, sans-serif; font-size: 12px; font-weight: 200;" fill="rgb(33, 33, 33)" stroke="none" stroke-width="1px">10k</text><text x="100" y="0" dx="0em" dy="0.95em" style="text-anchor: middle; visibility: inherit; font-family: &quot;Helvetica Neue&quot;, sans-serif; font-size: 12px; font-weight: 200;" fill="rgb(33, 33, 33)" stroke="none" stroke-width="1px">15k</text><text x="125" y="0" dx="0em" dy="0.95em" style="text-anchor: middle; visibility: inherit; font-family: &quot;Helvetica Neue&quot;, sans-serif; font-size: 12px; font-weight: 200;" fill="rgb(33, 33, 33)" stroke="none" stroke-width="1px">20k</text><text x="150" y="0" dx="0em" dy="0.95em" style="text-anchor: middle; visibility: inherit; font-family: &quot;Helvetica Neue&quot;, sans-serif; font-size: 12px; font-weight: 200;" fill="rgb(33, 33, 33)" stroke="none" stroke-width="1px">25k</text><text x="175" y="0" dx="0em" dy="0.95em" style="text-anchor: middle; visibility: inherit; font-family: &quot;Helvetica Neue&quot;, sans-serif; font-size: 12px; font-weight: 200;" fill="rgb(33, 33, 33)" stroke="none" stroke-width="1px">30k</text><text x="200" y="0" dx="0em" dy="0.95em" style="text-anchor: middle; visibility: inherit; font-family: &quot;Helvetica Neue&quot;, sans-serif; font-size: 12px; font-weight: 200;" fill="rgb(33, 33, 33)" stroke="none" stroke-width="1px">35k</text><text x="225" y="0" dx="0em" dy="0.95em" style="text-anchor: middle; visibility: inherit; font-family: &quot;Helvetica Neue&quot;, sans-serif; font-size: 12px; font-weight: 200;" fill="rgb(33, 33, 33)" stroke="none" stroke-width="1px">40k</text><text x="250" y="0" dx="0em" dy="0.95em" style="text-anchor: middle; visibility: inherit; font-family: &quot;Helvetica Neue&quot;, sans-serif; font-size: 12px; font-weight: 200;" fill="rgb(33, 33, 33)" stroke="none" stroke-width="1px">45k</text><text x="275" y="0" dx="0em" dy="0.95em" style="text-anchor: middle; visibility: inherit; font-family: &quot;Helvetica Neue&quot;, sans-serif; font-size: 12px; font-weight: 200;" fill="rgb(33, 33, 33)" stroke="none" stroke-width="1px">50k</text><text x="300" y="0" dx="0em" dy="0.95em" style="text-anchor: middle; visibility: hidden; font-family: &quot;Helvetica Neue&quot;, sans-serif; font-size: 12px; font-weight: 200;" fill="rgb(33, 33, 33)" stroke="none" stroke-width="1px">55k</text></g><line x1="0" y1="0" x2="300" y2="0" fill="rgb(0, 0, 0)" stroke="rgb(204, 204, 204)" stroke-width="1px"></line></g></g></g></g></svg>