<svg viewBox="0 0 330 200" xmlns="http://www.w3.org/2000/svg"><g><g><g><g><g><line x1="40" y1="177" x2="35" y2="177" style="visibility: inherit;" fill="rgb(0, 0, 0)" stroke="rgb(204, 204, 204)" stroke-width="1px"></line><line x1="40" y1="162.25" x2="35" y2="162.25" style="visibility: inherit;" fill="rgb(0, 0, 0)" stroke="rgb(204, 204, 204)" stroke-width="1px"></line><line x1="40" y1="147.5" x2="35" y2="147.5" style="visibility: inherit;" fill="rgb(0, 0, 0)" stroke="rgb(204, 204, 204)" stroke-width="1px"></line><line x1="40" y1="132.75" x2="35" y2="132.75" style="visibility: inherit;" fill="rgb(0, 0, 0)" stroke="rgb(204, 204, 204)" stroke-width="1px"></line><line x1="40" y1="118" x2="35" y2="118" style="visibility: inherit;" fill="rgb(0, 0, 0)" stroke="rgb(204, 204, 204)" stroke-width="1px"></line><line x1="40" y1="103.25" x2="35" y2="103.25" style="visibility: inherit;" fill="rgb(0, 0, 0)" stroke="rgb(204, 204, 204)" stroke-width="1px"></line><line x1="40" y1="88.5" x2="35" y2="88.5" style="visibility: inherit;" fill="rgb(0, 0, 0)" stroke="rgb(204, 204, 204)" stroke-width="1px"></line><line x1="40" y1="73.75" x2="35" y2="73.75" style="visibility: inherit;" fill="rgb(0, 0, 0)" stroke="rgb(204, 204, 204)" stroke-width="1px"></line><line x1="40" y1="58.999999999999986" x2="35" y2="58.999999999999986" style="visibility: inherit;" fill="rgb(0, 0, 0)" stroke="rgb(204, 204, 204)" stroke-width="1px"></line><line x1="40" y1="44.25" x2="35" y2="44.25" style="visibility: inherit;" fill="rgb(0, 0, 0)" stroke="rgb(204, 204, 204)" stroke-width="1px"></line><line x1="40" y1="29.5" x2="35" y2="29.5" style="visibility: inherit;" fill="rgb(0, 0, 0)" stroke="rgb(204, 204, 204)" stroke-width="1px"></line><line x1="40" y1="14.75" x2="35" y2="14.75" style="visibility: inherit;" fill="rgb(0, 0, 0)" stroke="rgb(204, 204, 204)" stroke-width="1px"></line><line x1="40" y1="0" x2="35" y2="0" style="visibility: inherit;" fill="rgb(0, 0, 0)" stroke="rgb(204, 204, 204)" stroke-width="1px"></line></g><g transform="translate(30, 0)"><text x="0" y="177" dx="0em" dy="0.3em" style="text-anchor: end; visibility: hidden; font-family: &quot;Helvetica Neue&quot;, sans-serif; font-size: 12px; font-weight: 200;" fill="rgb(33, 33, 33)" stroke="none" stroke-width="1px">0</text><text x="0" y="162.25" dx="0em" dy="0.3em" style="text-anchor: end; visibility: inherit; font-family: &quot;Helvetica Neue&quot;, sans-serif; font-size: 12px; font-weight: 200;" fill="rgb(33, 33, 33)" stroke="none" stroke-width="1px">0.2</text><text x="0" y="147.5" dx="0em" dy="0.3em" style="text-anchor: end; visibility: hidden; font-family: &quot;Helvetica Neue&quot;, sans-serif; font-size: 12px; font-weight: 200;" fill="rgb(33, 33, 33)" stroke="none" stroke-width="1px">0.4</text><text x="0" y="132.75" dx="0em" dy="0.3em" style="text-anchor: end; visibility: inherit; font-family: &quot;Helvetica Neue&quot;, sans-serif; font-size: 12px; font-weight: 200;" fill="rgb(33, 33, 33)" stroke="none" stroke-width="1px">0.6</text><text x="0" y="118" dx="0em" dy="0.3em" style="text-anchor: end; visibility: hidden; font-family: &quot;Helvetica Neue&quot;, sans-serif; font-size: 12px; font-weight: 200;" fill="rgb(33, 33, 33)" stroke="none" stroke-width="1px">0.8</text><text x="0" y="103.25" dx="0em" dy="0.3em" style="text-anchor: end; visibility: inherit; font-family: &quot;Helvetica Neue&quot;, sans-serif; font-size: 12px; font-weight: 200;" fill="rgb(33, 33, 33)" stroke="none" stroke-width="1px">1</text><text x="0" y="88.5" dx="0em" dy="0.3em" style="text-anchor: end; visibility: hidden; font-family: &quot;Helvetica Neue&quot;, sans-serif; font-size: 12px; font-weight: 200;" fill="rgb(33, 33, 33)" stroke="none" stroke-width="1px">1.2</text><text x="0" y="73.75" dx="0em" dy="0.3em" style="text-anchor: end; visibility: inherit; font-family: &quot;Helvetica Neue&quot;, sans-serif; font-size: 12px; font-weight: 200;" fill="rgb(33, 33, 33)" stroke="none" stroke-width="1px">1.4</text><text x="0" y="58.999999999999986" dx="0em" dy="0.3em" style="text-anchor: end; visibility: hidden; font-family: &quot;Helvetica Neue&quot;, sans-serif; font-size: 12px; font-weight: 200;" fill="rgb(33, 33, 33)" stroke="none" stroke-width="1px">1.6</text><text x="0" y="44.25" dx="0em" dy="0.3em" style="text-anchor: end; visibility: inherit; font-family: &quot;Helvetica Neue&quot;, sans-serif; font-size: 12px; font-weight: 200;" fill="rgb(33, 33, 33)" stroke="none" stroke-width="1px">1.8</text><text x="0" y="29.5" dx="0em" dy="0.3em" style="text-anchor: end; visibility: hidden; font-family: &quot;Helvetica Neue&quot;, sans-serif; font-size: 12px; font-weight: 200;" fill="rgb(33, 33, 33)" stroke="none" stroke-width="1px">2</text><text x="0" y="14.75" dx="0em" dy="0.3em" style="text-anchor: end; visibility: inherit; font-family: &quot;Helvetica Neue&quot;, sans-serif; font-size: 12px; font-weight: 200;" fill="rgb(33, 33, 33)" stroke="none" stroke-width="1px">2.2</text><text x="0" y="0" dx="0em" dy="0.3em" style="text-anchor: end; visibility: hidden; font-family: &quot;Helvetica Neue&quot;, sans-serif; font-size: 12px; font-weight: 200;" fill="rgb(33, 33, 33)" stroke="none" stroke-width="1px">2.4</text></g><line x1="40" y1="0" x2="40" y2="177" fill="rgb(0, 0, 0)" stroke="rgb(204, 204, 204)" stroke-width="1px"></line></g></g><g transform="translate(40, 0)" clip-path="url(#clip_0)"><clipPath id="clip_0"><rect width="290" height="177"></rect></clipPath><g><g><g><line x1="0" y1="0" x2="0" y2="177" fill="rgb(0, 0, 0)" stroke="rgb(66, 66, 66)" stroke-width="1px" opacity="0.25"></line><line x1="24.166666666666664" y1="0" x2="24.166666666666664" y2="177" fill="rgb(0, 0, 0)" stroke="rgb(66, 66, 66)" stroke-width="1px" opacity="0.25"></line><line x1="48.33333333333333" y1="0" x2="48.33333333333333" y2="177" fill="rgb(0, 0, 0)" stroke="rgb(66, 66, 66)" stroke-width="1px" opacity="0.25"></line><line x1="72.5" y1="0" x2="72.5" y2="177" fill="rgb(0, 0, 0)" stroke="rgb(66, 66, 66)" stroke-width="1px" opacity="0.25"></line><line x1="96.66666666666666" y1="0" x2="96.66666666666666" y2="177" fill="rgb(0, 0, 0)" stroke="rgb(66, 66, 66)" stroke-width="1px" opacity="0.25"></line><line x1="120.83333333333334" y1="0" x2="120.83333333333334" y2="177" fill="rgb(0, 0, 0)" stroke="rgb(66, 66, 66)" stroke-width="1px" opacity="0.25"></line><line x1="145" y1="0" x2="145" y2="177" fill="rgb(0, 0, 0)" stroke="rgb(66, 66, 66)" stroke-width="1px" opacity="0.25"></line><line x1="169.16666666666669" y1="0" x2="169.16666666666669" y2="177" fill="rgb(0, 0, 0)" stroke="rgb(66, 66, 66)" stroke-width="1px" opacity="0.25"></line><line x1="193.33333333333331" y1="0" x2="193.33333333333331" y2="177" fill="rgb(0, 0, 0)" stroke="rgb(66, 66, 66)" stroke-width="1px" opacity="0.25"></line><line x1="217.5" y1="0" x2="217.5" y2="177" fill="rgb(0, 0, 0)" stroke="rgb(66, 66, 66)" stroke-width="1px" opacity="0.25"></line><line x1="241.66666666666669" y1="0" x2="241.66666666666669" y2="177" fill="rgb(0, 0, 0)" stroke="rgb(66, 66, 66)" stroke-width="1px" opacity="0.25"></line><line x1="265.8333333333333" y1="0" x2="265.8333333333333" y2="177" fill="rgb(0, 0, 0)" stroke="rgb(66, 66, 66)" stroke-width="1px" opacity="0.25"></line><line x1="290" y1="0" x2="290" y2="177" fill="rgb(0, 0, 0)" stroke="rgb(66, 66, 66)" stroke-width="1px" opacity="0.25"></line></g><g><line x1="0" y1="177" x2="290" y2="177" fill="rgb(0, 0, 0)" stroke="rgb(66, 66, 66)" stroke-width="1px" opacity="0.25"></line><line x1="0" y1="162.25" x2="290" y2="162.25" fill="rgb(0, 0, 0)" stroke="rgb(66, 66, 66)" stroke-width="1px" opacity="0.25"></line><line x1="0" y1="147.5" x2="290" y2="147.5" fill="rgb(0, 0, 0)" stroke="rgb(66, 66, 66)" stroke-width="1px" opacity="0.25"></line><line x1="0" y1="132.75" x2="290" y2="132.75" fill="rgb(0, 0, 0)" stroke="rgb(66, 66, 66)" stroke-width="1px" opacity="0.25"></line><line x1="0" y1="118" x2="290" y2="118" fill="rgb(0, 0, 0)" stroke="rgb(66, 66, 66)" stroke-width="1px" opacity="0.25"></line><line x1="0" y1="103.25" x2="290" y2="103.25" fill="rgb(0, 0, 0)" stroke="rgb(66, 66, 66)" stroke-width="1px" opacity="0.25"></line><line x1="0" y1="88.5" x2="290" y2="88.5" fill="rgb(0, 0, 0)" stroke="rgb(66, 66, 66)" stroke-width="1px" opacity="0.25"></line><line x1="0" y1="73.75" x2="290" y2="73.75" fill="rgb(0, 0, 0)" stroke="rgb(66, 66, 66)" stroke-width="1px" opacity="0.25"></line><line x1="0" y1="58.999999999999986" x2="290" y2="58.999999999999986" fill="rgb(0, 0, 0)" stroke="rgb(66, 66, 66)" stroke-width="1px" opacity="0.25"></line><line x1="0" y1="44.25" x2="290" y2="44.25" fill="rgb(0, 0, 0)" stroke="rgb(66, 66, 66)" stroke-width="1px" opacity="0.25"></line><line x1="0" y1="29.5" x2="290" y2="29.5" fill="rgb(0, 0, 0)" stroke="rgb(66, 66, 66)" stroke-width="1px" opacity="0.25"></line><line x1="0" y1="14.75" x2="290" y2="14.75" fill="rgb(0, 0, 0)" stroke="rgb(66, 66, 66)" stroke-width="1px" opacity="0.25"></line><line x1="0" y1="0" x2="290" y2="0" fill="rgb(0, 0, 0)" stroke="rgb(66, 66, 66)" stroke-width="1px" opacity="0.25"></line></g></g></g><g><g><line x1="0" y1="177" x2="290" y2="177" fill="rgb(0, 0, 0)" stroke="rgb(153, 153, 153)" stroke-width="1.5px"></line></g></g><g><g><line x1="24.166666666666664" y1="0" x2="24.166666666666664" y2="177" fill="rgb(0, 0, 0)" stroke="rgb(153, 153, 153)" stroke-width="1.5px"></line></g></g><g><g><g><g><g><path stroke="rgb(255, 112, 67)" stroke-width="2px" d="M24.171499999999998,18.6243514418602L25.060833333333335,86.00231775827706L25.1865,107.70031574338067L25.442666666666664,115.93909641870243L25.481333333333332,119.9195207213669L25.5345,122.48297864268909L25.998499999999996,124.85022270347378L26.114500000000003,126.87155942983065L26.3465,126.13565783634407L26.646166666666666,126.03717912316755L26.675166666666666,126.09110710954918L26.7525,125.36403749935931L27.153666666666666,124.44867910333394L27.917333333333332,124.059726939097L27.999499999999998,123.62206732171727L28.038166666666665,123.33965108438053L28.221833333333333,122.98069614149036L28.477999999999998,122.46814479022393L28.5505,122.1294859073013L28.5795,121.77460826271385L28.729333333333333,120.996206939208L28.913,120.2226773134186L28.995166666666666,119.63943250503789L29.439833333333336,119.63301298274597L29.961833333333335,120.15443080044051L30.1165,120.51705914829003L30.445166666666665,120.79941472159626L30.483833333333333,121.00379770877333L30.599833333333333,121.11700800586144L30.851166666666664,121.27429286457361L31.107333333333333,121.52422033774349L31.208833333333335,121.59554220425971L31.474666666666664,121.45386817486806L31.498833333333334,121.35585382557261L31.503666666666668,121.29524116397818L31.663166666666665,121.27510653523254L31.909666666666666,121.22949954593356L31.99666666666667,121.31279805169146L32.818333333333335,121.37772126132194L33.108333333333334,121.51934800246778L33.37416666666667,121.5742037338424L34.244166666666665,121.86932566432898L34.964333333333336,122.28102779798917L34.988499999999995,122.52185797345764L35.317166666666665,122.85837703143355L35.699,123.23099661587892L35.73283333333333,123.47485781741588L36.29833333333334,123.41766812820575L36.41916666666666,123.41419730436405L36.743,123.49885885031054L36.858999999999995,123.60844753450823L37.03783333333333,123.75160449902262L37.207,123.92744113302288L37.410000000000004,123.9284627276424L38.197833333333335,123.71135663615235L38.719833333333334,123.5007615961227L38.73916666666667,123.37961979970888L38.8165,123.28569928565952L38.83583333333333,123.22552435254651L39.03883333333333,123.24310142192601L39.10166666666667,123.27017075653887L39.7735,123.43856829307089L40.150499999999994,123.6122859174109L40.3245,123.79989507520774L40.401833333333336,123.93660253718245L40.691833333333335,124.10680585762708L41.107499999999995,124.26666284597425L41.30566666666667,124.41723494527642L41.47,124.55212391494456L41.484500000000004,124.64105597185339L41.55216666666667,124.71027892260102L41.653666666666666,124.77263667838778L41.706833333333336,124.80972076449994L41.76,124.86053364273431L41.847,124.95283922431781L41.90983333333333,124.98419138120362L42.27233333333333,125.03990313605516L42.2965,125.06120821354418L42.567166666666665,125.051029136882L42.63483333333333,125.04711082047568L43.00216666666666,124.97533189336266L43.25833333333333,124.90998113202934L43.408166666666666,124.88711265950135L43.79483333333333,124.84065661566692L43.84316666666667,124.8216643496587L43.867333333333335,124.80546169663872L43.988166666666665,124.81320918312912L44.1235,124.78415035433318L44.254000000000005,124.73173645869937L44.379666666666665,124.67736292324093L44.727666666666664,124.6122078087427L44.81466666666667,124.5282736293374L45.153,124.39429012965553L45.18683333333333,124.3047443689787L45.501000000000005,124.21566554676792L45.56866666666667,124.1520796821791L46.013333333333335,124.11718284525145L46.076166666666666,124.10590153001348L46.1825,124.08983641304135L46.4,124.05276025198435L46.404833333333336,124.029995845929L46.6175,124.01689635346841L46.65133333333333,124.00046124834128L47.1395,123.93400459157411L47.81616666666667,123.91474006573549L48.16416666666667,123.91665724516028L49.05833333333333,123.82960233450004L49.11633333333333,123.75870112395327L49.57066666666667,123.7219717014792L50.0975,123.65239213162437L50.440666666666665,123.58884980233773L50.86116666666667,123.52137424321333L51.42666666666667,123.46336356265162L51.52333333333333,123.42977919854411L51.7505,123.41066248224789L52.867,123.52445462350019L52.92016666666667,123.60118047597389L52.929833333333335,123.64640011908043L53.00716666666666,123.6849997789945L53.14733333333333,123.7470909149221L53.39866666666667,123.80494803135224L53.476,123.85006638136285L53.505,123.883606313269L54.1285,123.95414882814923L54.59733333333333,124.04137171456838L54.98883333333333,124.12804225176347L55.216,124.1584504371272L55.332,124.17954385431923L55.38516666666667,124.19168471188735L56.37116666666667,124.24578319127197L56.40983333333333,124.278433937638L56.75300000000001,124.28177559304774L56.767500000000005,124.28174619036042L56.9705,124.26691455934717L57.12516666666667,124.24343720849916L57.26533333333334,124.22637569175103L57.42966666666667,124.22622987786494L58.19333333333333,124.25345288014151L58.705666666666666,124.27694487151943L58.768499999999996,124.29355097161199L58.778166666666664,124.30426368323842L59.0585,124.30468131427693L59.16966666666667,124.30916421010927L59.25183333333334,124.29776087638638L59.2615,124.2901328995043L59.319500000000005,124.28767842615926L59.445166666666665,124.29610342124273L60.04933333333334,124.3227033218096L60.349000000000004,124.36163945200147L60.353833333333334,124.38573083998025L60.532666666666664,124.41342243386066L60.697,124.43279622097467L60.909666666666666,124.43674359380992L61.06916666666667,124.46207238232967L61.51383333333334,124.51361096498893L62.0165,124.58743402121976L62.47566666666667,124.65454403614112L62.52883333333334,124.69588087233967L63.10883333333334,124.76134275932947L63.22,124.81775136911773L63.244166666666665,124.85336366369667L63.47616666666667,124.88135293766464L63.751666666666665,124.92338039663198L63.89666666666666,124.9620674919293L64.7135,125.03190733022726L64.82466666666667,125.07684963957807L64.8295,125.10507399449551L64.83433333333333,125.1226152337182L64.94550000000001,125.13169110754659L64.95516666666667,125.14018031322675L65.07116666666667,125.14881161072086L65.65599999999999,125.23420572410959L66.02333333333333,125.31755470115505L66.15383333333334,125.36300120281317L66.45349999999999,125.3962650330492L67.96633333333334,125.5404076416271L68.25633333333333,125.63327069514852L68.31433333333334,125.68823771735347L68.324,125.72187379038522L68.72516666666667,125.76275985262507L68.8315,125.79958578241893L68.85566666666666,125.81813301618712L70.51350000000001,125.92071246490369L71.06933333333333,126.03241845599108L71.4995,126.1130955376106L71.62033333333333,126.17726527797447L71.688,126.18166769234696L71.76533333333333,126.19462882094598L72.07466666666666,126.21761863000998L72.12783333333333,126.23453180532341L72.35016666666667,126.258959165458L72.55799999999999,126.29007009938007L73.0945,126.34490213557868L73.54883333333333,126.40399354556075L74.33183333333334,126.48403102671426L74.46233333333333,126.54863639185024L74.68466666666667,126.59964291160819L74.88283333333332,126.65568468514392L74.96983333333334,126.67884588565416L75.00366666666666,126.70070259765379L75.16316666666667,126.74235091802831L75.255,126.78893932221743L75.65616666666668,126.86054483961114L75.94133333333335,126.91861050671963L76.46816666666666,127.00963932482378L77.06266666666666,127.16621202950463L77.07716666666666,127.26475546195975L77.46866666666666,127.36592160126489L78.0245,127.49786382592274L78.15983333333334,127.59235306785436L78.20816666666667,127.65491418365198L78.39183333333332,127.72500470473503L78.5175,127.79159309383711L78.58516666666667,127.82490488837053L78.9235,127.9039527472847L78.938,127.94911320787628L79.01050000000001,127.99212243427016L79.07333333333334,128.0354779319118L79.20866666666667,128.06810257769527L79.42616666666666,128.13120148144304L79.52766666666666,128.17164733744943L79.547,128.198336081131L79.97716666666666,128.2586189785145L80.243,128.3332681643094L80.51366666666667,128.4206023983434L80.562,128.48305535151212L80.74083333333333,128.5424131443122L81.08883333333334,128.5685644501459L81.24833333333333,128.5988283308751L82.0555,128.6985207469706L82.15216666666666,128.77304996081853L82.44216666666667,128.85218341963687L82.65483333333333,128.92273287664176L83.29766666666667,129.0235325317998L85.39533333333333,129.29459604152555L85.55,129.4715786607773L85.85449999999999,129.6050294895L85.93183333333333,129.69711118692317L86.09616666666666,129.78416500541067L86.391,129.84711084397134L86.53116666666666,129.8997486032933L87.087,129.99445028292476L87.15466666666666,130.05981153361404L87.19816666666668,130.106223399117L87.34800000000001,130.15462547819283L88.276,130.26008229422845L88.59016666666666,130.3461813567178L89.17983333333333,130.44276454675773L89.43116666666667,130.52122370379317L89.60516666666666,130.59033995257107L89.75016666666667,130.6331970297473L89.99183333333333,130.68097313065394L90.10783333333333,130.72357712876237L90.20933333333333,130.7634137075629L90.34466666666667,130.79878001221934L90.40750000000001,130.82323865180564L90.41716666666667,130.83965283087105L90.55733333333335,130.8554163840485L91.01166666666667,130.8895861844464L91.15666666666667,130.92357978464625L91.26783333333333,130.9578509821979L91.37899999999999,130.98658469286488L91.73183333333334,131.05581542829827L92.133,131.1098363040695L92.29249999999999,131.15917985670623L92.39883333333333,131.2017959239057L92.568,131.2425699044449L92.69366666666666,131.2688787883033L92.70816666666666,131.2876005414432L92.7855,131.3038659538809L92.80966666666667,131.31754101788897L93.061,131.3643239705318L93.89716666666666,131.46905020287954L94.43366666666667,131.5898002887447L95.07166666666666,131.70845240382428L95.178,131.7816851021533L95.20216666666666,131.82702084074523L95.207,131.85499946886364L95.40516666666667,131.89416675933637L95.7145,131.94869474869034L96.106,132.00023981512226L96.25583333333334,132.04722750533006L96.88416666666667,132.15055913536776L96.9615,132.22404532914777L97.1935,132.27750546506297L97.36749999999999,132.32746910912545L97.37233333333333,132.35783764638154L97.40133333333333,132.38106299589663L97.614,132.40506820172422L97.79766666666667,132.44183385545227L97.95233333333333,132.48570893510706L98.57583333333332,132.54830144229248L98.64833333333334,132.59343713750076L98.88033333333333,132.64353518622892L99.32983333333334,132.6949859436618L99.8035,132.76784900285404L100.01133333333333,132.82442907367707L100.31099999999999,132.8717721275959L100.48016666666666,132.92020717695198L100.6735,132.9453664567163L100.717,132.96689402139725L100.7605,132.98133679673995L101.181,133.01742724446012L101.26316666666666,133.05003946940633L101.54833333333333,133.10522895407993L101.587,133.13962623090936L101.72716666666666,133.1551372862541L102.2685,133.20252246598503L102.7615,133.26018416845858L103.21583333333334,133.31372023799457L103.4285,133.3718916426804L103.49616666666667,133.41030412618554L103.559,133.44068915667674L103.8055,133.45665895356262L103.84416666666667,133.46820137747244L103.96983333333333,133.48111221103738L104.03750000000001,133.48976952975315L104.69,133.51929578867745L105.31349999999999,133.57733548693176L105.42466666666667,133.61327760822962L105.42949999999999,133.63554973249072L105.76783333333334,133.6665192356374L105.792,133.6854965633551L105.93216666666667,133.71113252320288L105.97083333333333,133.72855552839277L106.53633333333333,133.78983054642106L106.54116666666667,133.82495151212348L106.91816666666666,133.8567165389689L107.00516666666667,133.8737007173915L107.05833333333332,133.88506755191202L107.18883333333333,133.90267856692145L107.46916666666667,133.9221142278604L107.59966666666666,133.94314931908204L108.07816666666666,133.98152121948573L108.55183333333333,134.03422508864028L108.58083333333333,134.06719781296505L109.32033333333334,143.62321238420637L109.649,148.8568274450435L110.2435,152.16374573541486L110.44166666666668,154.35584907491685L110.4755,155.28263288891125L110.55283333333333,155.50592558774835L110.60116666666667,155.6469521385043L110.809,155.73269604215676L111.31166666666667,155.16713401120694L111.505,154.7749587651598L111.70316666666666,154.24332371690915L111.87716666666665,154.07322108351616L112.07050000000001,153.74731792571203L112.114,153.58343313075338L113.47216666666667,152.91661782823343L113.593,152.55590220846142L113.78633333333333,152.37651044760588L113.90716666666667,152.23069134434726L114.31316666666666,151.98499966311851L114.68050000000001,151.8264262476468L115.13000000000001,151.58479250364923L115.25566666666667,151.45410753723039L115.47316666666667,151.53453944883378L116,151.43541566587467L116.14500000000001,151.24557565186606L116.29,151.00617913028114L116.30933333333334,150.8394551314146L116.40116666666665,150.72886279745285L116.4785,150.7046688021623L116.52199999999999,150.7033364159705L116.62833333333333,150.762351213863L116.64766666666667,150.80079674063356L116.77333333333334,150.88000424109833L116.85066666666665,150.9724999690231L117.13583333333332,150.94091576481915L117.305,150.8895371117893L117.34366666666666,150.89049274079224L117.53699999999999,150.84953419776093L117.86083333333333,150.4818187231501L117.9285,150.27480072526217L118.05900000000001,150.07611995785282L118.14116666666666,149.9150340637496L118.43116666666667,149.83933047538585L118.67766666666667,149.72632312229624L119.06433333333334,149.57154081136792L119.161,149.5050587884832L119.364,149.41051606430105L119.60566666666666,149.33117909487183L119.62016666666666,149.297155670858L119.70233333333333,149.32201703640018L119.83766666666666,149.3323613003027L120.03099999999999,149.34318085581847L120.36449999999999,149.2970455620932L120.38383333333334,149.28083753491921L120.93483333333333,149.1968229794829L120.98316666666668,149.15099207665497L121.6695,149.03397044304594L122.21566666666666,148.88588247456303L122.41383333333333,148.78406987046094L122.83916666666666,148.71266966137225L123.08566666666667,148.62980978532394L123.21133333333333,148.54258237686014L124.58883333333333,148.60964053217324L124.64683333333333,148.6596368333325L124.70483333333333,148.69220530275257L124.816,148.74406989385932L124.845,148.76886039358527L125.14466666666667,148.7698675685057L125.27516666666666,148.7640372391301L125.41533333333334,148.7929856345509L125.773,148.868822015253L126.59466666666667,148.935658625917L126.73,148.9649116528966L126.83633333333334,148.9905755569302L126.8605,149.0155471652605L127.08766666666666,149.03462441801176L127.484,149.02448190772026L127.658,149.0102060677021L128.39266666666666,149.04120666333492L128.46516666666668,149.0403404715565L128.5473333333333,149.02322381334943L129.38833333333332,148.9805626129952L129.56716666666665,148.99685827230493L129.8475,149.01985572478222L130.181,148.9982509595218L130.5773333333333,149.00146919680017L131.18633333333332,149.00291659648644L131.2685,149.00688938030854L131.457,149.02347865539346L132.11916666666667,148.97797339163753L132.37533333333334,148.90392484368402L132.62183333333334,148.8538822239728L132.81033333333335,148.81491199172086L132.82483333333334,148.79052935860483L133.54983333333334,148.71943078530984L133.72866666666667,148.66518771703932L133.76733333333334,148.63199217054782L134.20233333333334,148.54149607380353L134.2651666666667,148.47633453047348L134.39566666666667,148.43852558634325L134.43916666666667,148.4271006101468L134.46816666666666,148.4212733724176L134.51166666666666,148.4314155708825L134.763,148.40287659651491L134.821,148.3751856063989L134.83066666666667,148.35687157959862L134.84033333333332,148.34862265259696L134.91766666666666,148.3520728723447L135.27533333333332,148.34689074315074L135.32366666666667,148.34249524210358L135.43966666666668,148.34017356297056L135.65716666666665,148.3498712662499L135.71033333333332,148.35234113536123L135.78283333333334,148.34621121586468L135.84083333333334,148.3457712417907L135.952,148.34253566778102L136.02450000000002,148.33927381227255L136.155,148.32385047489308L136.26616666666666,148.32829040118398L136.64316666666667,148.33716216581072L136.93316666666666,148.32614763615732L137.10716666666667,148.30421589039685L137.547,148.25192593170954L137.9965,148.23295878251645L138.63933333333333,148.29908774721773L139.04533333333333,148.34426256673424L139.83316666666667,148.3598784843498L139.93949999999998,148.36181554433188L139.9685,148.36429917059232L140.17633333333333,148.37689676130944L140.58716666666666,148.4490645304032L140.795,148.51525170652317L141.3025,148.6377693775192L141.5635,148.72447542028993L141.95016666666666,148.78194461570604L142.303,148.8313711184646L142.3175,148.86437841048152L142.40933333333334,148.89924382144397L142.64616666666666,148.95821172281615L142.84916666666666,149.02094603350469L142.96516666666668,149.0731456504506L143.15366666666665,149.10766119815364L143.2455,149.14727264974985L143.33733333333333,149.1881929775147L143.347,149.2130036497157L143.434,149.2204285498882L143.61766666666668,149.22011048414853L144.043,149.22144148539633L144.16866666666667,149.24269657904583L144.18316666666666,149.2523136411588L144.246,149.25179518607143L144.47799999999998,149.26077780334285L144.7245,149.29216702406484L145.20783333333335,153.13239220604228L145.2755,153.18546162143306L145.48333333333335,154.1559404974875L145.51233333333334,154.30052762601957L145.92316666666667,154.79705682917944L146.334,154.9478595675499L146.53216666666665,155.029272587387L146.8415,155.20869978147044L147.01066666666668,155.52613801286992L147.09283333333332,155.7341887177609L147.50850000000003,156.23837683627502L147.90483333333333,156.32249106186327L148.17066666666668,156.49151371251165L148.22383333333335,156.65198456842074L148.69750000000002,156.2870324230097L149.089,156.1868359223546L149.72216666666665,156.29341452571995L149.76083333333332,156.38843326123504L150.017,156.58897227854698L150.29733333333334,156.87797647602062L150.44233333333335,157.11686825684728L150.51966666666667,156.98579637069713L150.568,156.91032000398167L150.6115,156.8764853538008L150.85316666666665,157.00338110988923L151.3075,157.0321516017055L151.49116666666666,157.0856822353563L151.61683333333335,157.15978267025716L151.64100000000002,157.20305165786604L151.7715,157.2726154127065L151.89233333333334,157.3202001362052L151.95033333333333,157.3380128061179L152.1388333333333,157.35781474801325L152.82516666666666,157.35876345272317L152.8445,157.36005007705364L152.92183333333332,157.3964213429765L153.0233333333333,157.389962130718L153.18766666666667,157.40744512315547L153.21666666666667,157.4307523163316L153.3375,157.4886264826153L153.56466666666665,157.50702658148373L153.9755,157.46156511814456L154.76333333333332,157.30186875826752L154.81650000000002,157.20802555481575L155.6575,157.28380678892125L155.72516666666667,157.3658981728553L155.77833333333334,157.44781850922104L155.87016666666665,157.5482068934917L155.98133333333334,157.66590061955927L156.01033333333334,157.66068241699503L156.56616666666667,157.75258433642367L156.69666666666666,157.81078939033972L156.84166666666667,157.90816152032272L157.05916666666667,157.95933517477548L157.13166666666666,157.96750979519865L157.3395,158.01156042454826L157.67783333333333,158.12925201021545L157.77933333333334,158.19436336674042L157.963,158.23553930591194L158.08383333333333,158.3161204240957L158.195,158.30519819153778L159.5,158.4706018605437L159.79966666666667,158.64437733075656L160.1525,158.73177708376429L160.15733333333333,158.78499499970067L161.0515,158.95030308522814L161.38016666666667,159.1039168194415L161.63633333333334,159.21042913380157L161.79583333333332,159.30822671015795L161.81516666666667,159.36318945026238L162.0375,159.40181751034166L162.0665,159.4180810048074L162.19216666666668,159.4318709682757L162.29366666666667,159.4734342224201L162.60299999999998,159.59075959782604L162.99450000000002,159.6699548602748L163.65666666666667,159.766320378521L163.7195,159.83102401848964L163.7775,159.8527428582688L163.90316666666666,159.8848855272162L164.1303333333333,159.91699424089362L164.46866666666668,159.96250089079956L164.4735,159.97482604724658L164.546,159.98521031405028L164.71516666666665,159.99071863720116L164.79733333333334,159.9998621891695L164.86983333333333,159.99586253170716L165.13566666666668,160.06032086494295L165.14533333333333,160.10175601442293L165.1695,160.12839214533352L165.445,160.08188868033756L165.58033333333333,160.07275201361102L165.73983333333334,160.074235226099L165.78333333333333,160.07773012988827L166.12166666666667,160.14641353680526L166.19416666666666,160.20939135368965L166.27633333333333,160.19863123784245L166.62433333333334,160.19212681406606L166.73066666666665,160.2032196974985L167.36866666666668,160.24232289977266L167.47983333333335,160.26202154032822L167.71183333333335,160.32032060547135L167.73600000000002,160.35759599312223L168.1903333333333,160.40048585417316L168.2,160.42799920786885L168.22416666666666,160.44987366467396L168.30633333333336,160.47851390462924L168.42716666666666,160.4816423420418L168.61083333333335,160.49753642763545L168.9685,160.55550011805207L169.37449999999998,160.61400665081447L169.78533333333334,160.66266119472328L170.01733333333334,160.61972341979828L170.23,160.61487309661678L170.2976666666667,160.60989729629262L170.4185,160.60630694816294L170.58283333333335,160.63273143046965L170.66983333333334,160.65806179805915L170.67950000000002,160.67537573763323L170.95016666666666,160.67489757858868L171.35616666666667,160.72042283548805L171.41416666666666,160.75818822612698L172.43883333333335,160.80958572077952L172.898,160.8326580825341L173.03816666666668,160.85477447527003L173.1155,160.8756117538652L173.2605,160.88348310089356L173.275,160.89015106943992L173.31366666666668,160.88907948784677L173.68583333333333,160.93245474787145L174.72983333333335,160.99982412184232L174.87966666666665,161.04291314348552L175.2905,161.07948362061364L175.64816666666667,161.0883649794995L176.45533333333336,161.1924859603488L177.1175,161.28133096666596L177.14166666666668,161.33530657810843L177.15133333333333,161.36938038809822L177.83283333333333,161.06487739887075L178.04066666666665,160.89252122078082L178.31616666666667,160.80035207917535L179.51,160.79490999877598L179.57766666666666,160.7925080940136L179.80483333333333,160.78971830666117L180.09,160.77896482145817L180.18666666666667,160.76744300512095L180.1963333333333,160.76176646582854L180.44283333333334,160.7702596484576L180.74249999999998,160.79660725885358L181.00833333333333,160.78015429701642L181.62699999999998,160.79070472524307L181.888,160.7932523596629L182.05233333333334,160.8025092711058L182.091,160.8078067007665L182.09583333333333,160.81159574109338L182.34716666666668,160.84591002206815L182.51149999999998,160.86243375504503L182.54049999999998,160.87412962981753L182.98033333333333,160.86279890786824L183.2026666666667,160.84864095509778L183.81166666666667,160.84170231169898L183.88416666666666,160.83106009332204L183.918,160.8262212197057L183.94216666666665,160.82639718324373L184.005,160.82990426433344L184.02916666666667,160.824470961763L184.2225,160.79420116524312L184.22733333333332,160.77643007773406L184.2853333333333,160.7714297100201L184.43033333333335,160.7771112784323L184.44966666666667,160.78321355221135L184.77833333333334,160.77814960859692L184.83633333333333,160.77815008838462L185.18916666666667,160.77878909218006L185.33416666666668,160.78765427266177L186.36366666666666,160.82802143361934L186.40233333333333,160.84641723881225L186.47,160.85114932537115L186.67783333333335,160.86116786736272L186.731,160.8727542396666L186.7455,160.8799909136463L186.85183333333333,160.8835741956096L187.02100000000002,160.88825265342362L187.4608333333333,160.90548512503128L187.9345,160.92215198376547L188.471,160.92557372062666L188.732,160.92878638600865L188.86733333333333,160.92362832662795L189.46183333333332,160.8923469089707L189.78083333333333,160.88812653888704L190.07083333333333,160.87105638634824L190.46716666666669,160.8659991911153L190.54933333333335,160.86689168012737L190.64116666666666,160.87238084850668L190.81516666666667,160.8907793437121L191.023,160.89940995870097L191.25016666666667,160.90434172092716L191.3855,160.91300921940112L191.4725,160.90174992563308L191.5305,160.89630475003707L191.96066666666667,160.91371612762921L192.13466666666665,160.91295487442918L192.27,160.91245284533088L192.49716666666666,160.91473198745004L192.60833333333335,160.91622079797597L192.70983333333334,160.90400787972217L192.73883333333333,160.89810701926234L192.80650000000003,160.90085211825183L193.3961666666667,160.86911451179867L193.48316666666668,160.85164917623453L193.72,160.8353933981982L193.76833333333335,160.82756618958277L193.8215,160.82801300019958L193.86983333333333,160.82791579205357L193.94233333333332,160.83291708194352L194.91383333333334,160.85026412763082L194.967,160.8608117032521L195.2086666666667,160.86576039364772L195.3875,160.85708502096438L195.8805,160.84769583441317L196.2285,160.8420456182808L196.4025,160.83578280549347L196.5233333333333,160.82504232192696L196.60066666666668,160.81566820272602L196.65383333333335,160.8128759725618L196.76983333333334,160.80032795749472L196.85683333333333,160.79273057331065L196.90033333333335,160.79126198053015L197.32083333333333,160.77135957455428L197.75099999999998,160.76441488519782L197.85250000000002,160.76257259312555L198.28266666666667,160.7581940735178L198.505,160.76578114150746L198.83366666666666,160.7388345329093L199.04633333333334,160.72735253591102L199.4185,160.71786143850542L199.4475,160.71477307511125L200.12416666666667,160.6992797576353L200.37066666666666,160.68882853972704L200.5205,160.68327565007087L200.593,160.68472879089518L200.67033333333333,160.68565782134297L200.78633333333335,160.68610358521082L200.96033333333332,160.69880072793208L200.97966666666665,160.70799272519852L201.06183333333334,160.71100405164066L201.26966666666664,160.68617072288694L201.55966666666666,160.65467202415766L201.56449999999998,160.6350189179224L201.69016666666667,160.6278312596704L202.8695,160.6509271826163L203.11116666666666,160.6785182276854L203.18366666666665,160.70197872337633L203.38666666666668,160.71836020062528L203.41083333333333,160.7306639463315L203.84583333333333,160.74785287890492L204.76416666666665,160.77362553753647L205.06383333333332,160.814006087054L205.06866666666664,160.83871180526566L205.14600000000002,160.8532539022693L205.31516666666667,160.8572909943896L205.43116666666668,160.8644018553279L205.48916666666668,160.85471816555156L205.50366666666667,160.84888904956279L205.89999999999998,160.8609308833915L205.92899999999997,160.87035742163883L206.02566666666667,160.88500899678604L206.5283333333333,160.90839062247358L206.59116666666668,160.92810737856436L206.66366666666667,160.92541532676344L207.16633333333334,160.911256119376L207.234,160.9028713701758L207.32583333333332,160.89090124360283L207.50466666666668,160.89048656726814L207.98799999999997,160.90108450296484L208.40366666666668,160.92958292539691L208.58733333333336,160.95270384356843L208.6115,160.9687224448053L208.89666666666668,160.98121815743016L208.95466666666667,160.9824673344014L209.1335,160.98864043112505L209.18183333333334,160.98950501445478L209.57816666666668,160.9806975448939L210.02283333333332,160.97451587169246L210.25,160.965890117877L210.34183333333334,160.96336228155687L210.453,160.9598256901121L210.5255,160.95905985267257L210.54966666666667,160.9607222234088L211.05233333333334,160.9642503324078L211.86916666666667,160.97170111316004L212.51683333333332,160.99121899025178L212.86966666666666,161.02104498366435L212.98566666666667,161.04366611045552L214.4163333333333,161.13306838930816L214.59033333333332,161.20047709590895L214.6338333333333,161.24301078466596L214.6435,161.26931741415274L214.90449999999998,161.30031496333368L214.94316666666666,161.3179442095595L215.1945,161.33722904222233L215.6585,161.3703931996049L215.96300000000002,161.40483226202855L217.24383333333333,161.47109465344505L217.33083333333332,161.51263899829243L217.33566666666664,161.53787463293227L217.413,161.55715953490585L217.6208333333333,161.56407659758003L217.732,161.57512039547487L218.02200000000002,161.59672418895556L218.24916666666667,161.61281015076156L218.37,161.6314090257759L218.4715,161.6459535891339L219.25933333333333,161.66553410199433L219.588,161.67942494337052L220.16316666666665,161.71129347046787L220.2115,161.71560015774116L220.24533333333332,161.71905894277302L220.34683333333334,161.72547378955963L220.62233333333333,161.73436297070197L220.95583333333335,161.75680290067916L221.09116666666665,161.77261775526242L221.33766666666665,161.79687977607747L221.46333333333334,161.81134423628868L221.52616666666668,161.82344507584227L221.61316666666667,161.8309411967352L221.99499999999998,161.8468157493803L222.6281666666667,161.84849214367466L222.7635,161.85708080865382L222.90366666666665,161.8644987457242L222.92783333333335,161.87026342530527L223.27583333333334,161.87989927100824L223.648,161.8748428286176L224.14583333333334,161.87641492700942L224.3295,161.8831259710572L224.33433333333332,161.88745151477946L224.49866666666668,161.90088874708348L224.60016666666667,161.914853823845L224.64366666666666,161.92615346769358L225.00133333333335,161.9276186803571L225.18983333333333,161.9330356362219L225.91483333333335,161.96224809543818L226.05499999999998,161.9776765561493L226.17100000000002,161.98858471103858L226.287,161.99610416226596L226.5335,162.01184325446494L226.61083333333332,162.02485129850987L226.68816666666666,162.03225654284884L226.78483333333335,162.03526049060065L227.27783333333332,162.0428899881389L227.32616666666667,162.04910294009127L227.86749999999998,162.07604471619652L228.06083333333333,162.09652210340337L228.24450000000002,162.10736318269633L228.636,162.12260061108626L228.8535,162.13605319174263L228.88733333333334,162.14594857521138L229.15800000000002,162.15574887172747L229.24983333333333,162.16574575618725L229.74283333333335,162.18674338081968L229.77666666666667,162.20139877032932L229.90716666666665,162.2175431715351L230.5596666666667,162.2438623617233L230.95116666666667,162.25562772364265L231.09616666666668,162.26783359325435L231.25083333333333,162.2774126218349L231.28466666666665,162.2840264595503L231.4006666666667,162.2949538205239L231.49733333333333,162.29675613338785L231.96133333333333,162.31427225765606L232.03383333333335,162.3269416096629L232.0435,162.33498324470648L232.12083333333334,162.3435600773509L232.5606666666667,162.35938060140703L233.015,162.37526359174308L233.06333333333333,162.38677107550893L233.30016666666666,162.40505420421476L233.59016666666668,162.42418628188918L234.1895,162.45931823851436L234.64383333333333,162.48372066945893L234.73083333333332,162.50326964665092L235.23350000000002,162.5281795272746L235.30116666666666,162.54493698236456L235.44616666666664,162.55074199442333L235.57183333333333,162.5576418900744L235.65883333333332,162.56205788637732L235.7313333333333,162.56454176089488L235.9585,162.5641326420386L236.37900000000002,162.57696216481204L236.54333333333332,162.5913850779967L236.54816666666667,162.60031400565126L236.76566666666668,162.60120079036844L237.02183333333335,162.6077261529344L237.05083333333334,162.61236184906826L237.10883333333334,162.61761373026292L237.23450000000003,162.62646626676988L237.24416666666667,162.63210791644974L237.4085,162.6424392166586L237.61633333333333,162.65895416008541L237.76616666666666,162.67718313734L237.9885,162.48829431295553L238.34133333333332,162.3910335374484L238.4186666666667,162.33473696396408L238.99866666666668,162.32754067978655L239.1195,162.32979645223256L239.28866666666667,162.33486572140953L239.61733333333333,162.34651961764396L243.50333333333333,162.36928423846186L243.6,162.38553128304733L243.90449999999998,162.39196987994106L244.26216666666667,162.39810217200275L244.28633333333335,162.4025653259668L244.33950000000002,162.40711233059844L244.9195,162.3980464878099L245.12249999999997,162.39720986887318L245.34483333333333,162.40598796072305L246.24383333333333,162.39844357229887L247.022,162.39125921283733L247.07999999999998,162.38974743011337L247.36033333333333,162.38073354764427L247.43283333333332,162.37675518574503L247.5391666666667,162.37288896758668L247.85333333333335,162.374303944524L247.88233333333335,162.37664136297457L248.14816666666667,162.38279923651785L248.21583333333334,162.38739906462533L248.2545,162.3921028030664L248.27866666666665,162.39611763821543L248.61216666666667,162.40764615426363L249.09066666666666,162.42426269048394L249.54983333333334,162.43146674808227L249.5885,162.43679363266446L249.7625,162.44599316558728L249.85433333333336,162.45447788114245L249.90266666666668,162.461334960013L250.42466666666667,162.46259410759768L250.45850000000002,162.4624260296283L250.62766666666667,162.46778086303817L251.00466666666668,162.4742466865727L251.70066666666668,162.46886458002024L251.78283333333331,162.46798357518014L251.83599999999998,162.46906121314464L252.039,162.47305215293704L252.14049999999997,162.47688283857428L252.44016666666667,162.4711047684355L252.48850000000002,162.46829422564525L252.55133333333333,162.46953992695344L252.59,162.46724630386075L253.1265,162.47104667419455L253.31983333333335,162.47014342721857L253.38266666666667,162.4692753075156L253.52283333333332,162.47425934932193L253.56633333333332,162.47791486538387L253.90466666666669,162.48429961089454L254.70216666666667,162.4678713386307L254.72633333333332,162.4589594814211L254.8375,162.4571523391026L255.28699999999998,162.46008585380423L255.39333333333335,162.46608399442974L256.03616666666665,162.48315701539602L256.3165,162.48352908435635L256.3938333333333,162.48479282166466L256.83366666666666,162.4886444184536L256.94966666666664,162.48765541752303L257.14300000000003,162.48622812563255L257.21066666666667,162.4866711615567L257.2735,162.4873893153098L257.375,162.4877322907106L257.38466666666665,162.48765981911754L257.839,162.49742434006416L258.1483333333333,162.49042257566143L258.26916666666665,162.48770027845435L258.2885,162.4868669434746L258.73316666666665,162.4781955107665L258.83466666666664,162.47435096649028L258.9796666666667,162.46860317437466L259.2165,162.46426346182L259.64666666666665,162.46846571731072L259.69016666666664,162.47116202513874L260.50216666666665,162.45443376094403L260.5215,162.44364511335075L260.5505,162.43622901656735L260.83566666666667,162.4405327997715L261.09183333333334,162.44604929459754L261.10633333333334,162.44996581776536L261.28516666666667,162.4533891964173L261.5606666666667,162.46208929796313L261.6525,162.47003566044148L261.986,162.4703852165793L262.6288333333333,162.47169171297875L262.7545,162.47513377680974L262.86083333333335,162.47419533589243L263.0493333333333,162.46390339260552L263.1895,162.4605415658668L263.2378333333333,162.45786861011476L263.24266666666665,162.45642616408523L263.5423333333333,162.46299098913346L263.552,162.46737694134993L263.88550000000004,162.46773630166462L263.90000000000003,162.4659759866262L263.90483333333333,162.46451274258283L264.1223333333333,162.46772688598864L264.2335,162.47136711312194L264.3301666666667,162.4771523236207L264.886,162.4768795108182L265.08416666666665,162.48467801275152L265.3403333333333,162.4892265573877L265.408,162.4942586660825L265.64483333333334,162.48998215141552L265.80916666666667,162.48842420931254L265.8333333333333,162.48644411269186" style="fill: none;" fill="none"></path></g></g></g></g><g opacity="0.2"><g><g><g><path stroke="rgb(255, 112, 67)" stroke-width="2px" d="M24.171499999999998,18.6243514418602L25.060833333333335,126.42909754812717L25.1865,128.53039380908012L25.442666666666664,125.62790249288082L25.481333333333332,125.1163626909256L25.5345,126.02916379272938L25.998499999999996,128.23541958630085L26.114500000000003,129.81868778169155L26.3465,125.05034592747688L26.646166666666666,125.89094971120358L26.675166666666666,126.17150996625423L26.7525,124.27738976478577L27.153666666666666,123.07863031327724L27.917333333333332,123.4770606905222L27.999499999999998,122.96609234809875L28.038166666666665,122.91622591018677L28.221833333333333,122.44241562485695L28.477999999999998,121.69944790005684L28.5505,121.62154917418957L28.5795,121.24232423305511L28.729333333333333,119.82864764332771L28.913,119.06240832805634L28.995166666666666,118.76457680761814L29.439833333333336,119.62338377535343L29.961833333333335,120.93655382096767L30.1165,121.06100012362003L30.445166666666665,121.22294735908508L30.483833333333333,121.31037187576294L30.599833333333333,121.28682334721088L30.851166666666664,121.51022006571293L31.107333333333333,121.89911146461964L31.208833333333335,121.70252498984337L31.474666666666664,121.24135714769363L31.498833333333334,121.20883230865002L31.503666666666668,121.20432217419147L31.663166666666665,121.24490459263325L31.909666666666666,121.16108906269073L31.99666666666667,121.43774580955505L32.818333333333335,121.47510607540607L33.108333333333334,121.73178811371326L33.37416666666667,121.65648733079433L34.244166666666665,122.31200855970383L34.964333333333336,122.8985809981823L34.988499999999995,122.88310323655605L35.317166666666665,123.36315561830997L35.699,123.78992599248886L35.73283333333333,123.84064961969852L36.29833333333334,123.33188359439373L36.41916666666666,123.40899106860161L36.743,123.62585116922855L36.858999999999995,123.77283056080341L37.03783333333333,123.96633994579315L37.207,124.19119608402252L37.410000000000004,123.92999511957169L38.197833333333335,123.38569749891758L38.719833333333334,123.18486903607845L38.73916666666667,123.19790710508823L38.8165,123.1448185145855L38.83583333333333,123.13526195287704L39.03883333333333,123.26946702599525L39.10166666666667,123.31077475845814L39.7735,123.69116459786892L40.150499999999994,123.87286235392094L40.3245,124.081308811903L40.401833333333336,124.1416637301445L40.691833333333335,124.36211083829403L41.107499999999995,124.50644832849503L41.30566666666667,124.6430930942297L41.47,124.75445736944675L41.484500000000004,124.77445405721664L41.55216666666667,124.81411334872246L41.653666666666666,124.86617331206799L41.706833333333336,124.86534689366817L41.76,124.93675296008587L41.847,125.09129759669304L41.90983333333333,125.03121961653233L42.27233333333333,125.12347076833248L42.2965,125.09316582977772L42.567166666666665,125.03576052188873L42.63483333333333,125.0412333458662L43.00216666666666,124.86766350269318L43.25833333333333,124.81195499002934L43.408166666666666,124.85280995070934L43.79483333333333,124.77097254991531L43.84316666666667,124.7931759506464L43.867333333333335,124.78115771710873L43.988166666666665,124.82483041286469L44.1235,124.7405621111393L44.254000000000005,124.65311561524868L44.379666666666665,124.59580262005329L44.727666666666664,124.51447513699532L44.81466666666667,124.40237236022949L45.153,124.19331488013268L45.18683333333333,124.17042572796345L45.501000000000005,124.08204731345177L45.56866666666667,124.05670088529587L46.013333333333335,124.06483758985996L46.076166666666666,124.08897955715656L46.1825,124.06573873758316L46.4,123.99714601039886L46.404833333333336,123.99584923684597L46.6175,123.99724711477757L46.65133333333333,123.97580859065056L47.1395,123.83431960642338L47.81616666666667,123.88584327697754L48.16416666666667,123.91953301429749L49.05833333333333,123.69901996850967L49.11633333333333,123.65234930813313L49.57066666666667,123.6668775677681L50.0975,123.54802277684212L50.440666666666665,123.49353630840778L50.86116666666667,123.42016090452671L51.42666666666667,123.37634754180908L51.52333333333333,123.37940265238285L51.7505,123.38198740780354L52.867,123.69514283537865L52.92016666666667,123.71626925468445L52.929833333333335,123.71422958374023L53.00716666666666,123.74289926886559L53.14733333333333,123.84022761881351L53.39866666666667,123.89173370599747L53.476,123.91774390637875L53.505,123.93391621112823L54.1285,124.05996260046959L54.59733333333333,124.17220604419708L54.98883333333333,124.25804805755615L55.216,124.20406271517277L55.332,124.21118398010731L55.38516666666667,124.20989599823952L56.37116666666667,124.32693091034889L56.40983333333333,124.32741005718708L56.75300000000001,124.28678807616234L56.767500000000005,124.28170208632946L56.9705,124.2446671128273L57.12516666666667,124.20822118222713L57.26533333333334,124.20078341662884L57.42966666666667,124.22601115703583L58.19333333333333,124.29428738355637L58.705666666666666,124.31218285858631L58.768499999999996,124.31846012175083L58.778166666666664,124.32033275067806L59.0585,124.3053077608347L59.16966666666667,124.3158885538578L59.25183333333334,124.28065587580204L59.2615,124.27869093418121L59.319500000000005,124.2839967161417L59.445166666666665,124.30874091386795L60.04933333333334,124.36260317265987L60.349000000000004,124.42004364728928L60.353833333333334,124.42186792194843L60.532666666666664,124.45495982468128L60.697,124.46185690164566L60.909666666666666,124.44266465306282L61.06916666666667,124.50006556510925L61.51383333333334,124.59091883897781L62.0165,124.69816860556602L62.47566666666667,124.75520905852318L62.52883333333334,124.75788612663746L63.10883333333334,124.85953558981419L63.22,124.90236428380013L63.244166666666665,124.90678210556507L63.47616666666667,124.9233368486166L63.751666666666665,124.98642158508301L63.89666666666666,125.0200981348753L64.7135,125.13666708767414L64.82466666666667,125.14426310360432L64.8295,125.14741052687168L64.83433333333333,125.14892709255219L64.94550000000001,125.14530491828918L64.95516666666667,125.15291412174702L65.07116666666667,125.16175855696201L65.65599999999999,125.3622968941927L66.02333333333333,125.44257816672325L66.15383333333334,125.43117095530033L66.45349999999999,125.44616077840328L67.96633333333334,125.7566215544939L68.25633333333333,125.77256527543068L68.31433333333334,125.7706882506609L68.324,125.77232789993286L68.72516666666667,125.82408894598484L68.8315,125.85482467710972L68.85566666666666,125.84595386683941L70.51350000000001,126.07458163797855L71.06933333333333,126.19997744262218L71.4995,126.2341111600399L71.62033333333333,126.27351988852024L71.688,126.18827131390572L71.76533333333333,126.21407051384449L72.07466666666666,126.252103343606L72.12783333333333,126.25990156829357L72.35016666666667,126.29560020565987L72.55799999999999,126.33673650026321L73.0945,126.42715018987656L73.54883333333333,126.4926306605339L74.33183333333334,126.60408724844456L74.46233333333333,126.64554443955421L74.68466666666667,126.67615269124508L74.88283333333332,126.73974734544754L74.96983333333334,126.71358768641949L75.00366666666666,126.73348766565323L75.16316666666667,126.80482339859009L75.255,126.85882192850113L75.65616666666668,126.96795311570168L75.94133333333335,127.00570900738239L76.46816666666666,127.14618255198002L77.06266666666666,127.40107108652592L77.07716666666666,127.41257061064243L77.46866666666666,127.51767081022263L78.0245,127.69577716290951L78.15983333333334,127.7340869307518L78.20816666666667,127.74875585734844L78.39183333333332,127.8301404863596L78.5175,127.89147567749023L78.58516666666667,127.87487258017063L78.9235,128.02252453565598L78.938,128.01685389876366L79.01050000000001,128.05663627386093L79.07333333333334,128.1005111783743L79.20866666666667,128.1170395463705L79.42616666666666,128.22584983706474L79.52766666666666,128.232316121459L79.547,128.23836919665337L79.97716666666666,128.34904332458973L80.243,128.44524194300175L80.51366666666667,128.55160374939442L80.562,128.57673478126526L80.74083333333333,128.6314498335123L81.08883333333334,128.60779140889645L81.24833333333333,128.64422415196896L82.0555,128.84805937111378L82.15216666666666,128.88484378159046L82.44216666666667,128.97088360786438L82.65483333333333,129.02855706214905L83.29766666666667,129.17473201453686L85.39533333333333,129.7011913061142L85.55,129.73705258965492L85.85449999999999,129.805205732584L85.93183333333333,129.83523373305798L86.09616666666666,129.9147457331419L86.391,129.94152960181236L86.53116666666666,129.9787052422762L87.087,130.13650280237198L87.15466666666666,130.15785340964794L87.19816666666668,130.17584119737148L87.34800000000001,130.22722859680653L88.276,130.41826751828194L88.59016666666666,130.47532995045185L89.17983333333333,130.58763933181763L89.43116666666667,130.6389124393463L89.60516666666666,130.69401432573795L89.75016666666667,130.69748264551163L89.99183333333333,130.7526372820139L90.10783333333333,130.78748312592506L90.20933333333333,130.8231685757637L90.34466666666667,130.85182946920395L90.40750000000001,130.85992661118507L90.41716666666667,130.86427409946918L90.55733333333335,130.87906171381474L91.01166666666667,130.94084088504314L91.15666666666667,130.97457018494606L91.26783333333333,131.00925777852535L91.37899999999999,131.02968525886536L91.73183333333334,131.15966153144836L92.133,131.19086761772633L92.29249999999999,131.23319518566132L92.39883333333333,131.26572002470493L92.568,131.30373087525368L92.69366666666666,131.30834211409092L92.70816666666666,131.31568317115307L92.7855,131.32826407253742L92.80966666666667,131.33805361390114L93.061,131.43449839949608L93.89716666666666,131.62613955140114L94.43366666666667,131.77092541754246L95.07166666666666,131.88643057644367L95.178,131.89153414964676L95.20216666666666,131.8950244486332L95.207,131.89696741104126L95.40516666666667,131.95291769504547L95.7145,132.03048673272133L96.106,132.07755741477013L96.25583333333334,132.11770904064178L96.88416666666667,132.3055565804243L96.9615,132.33427461981773L97.1935,132.35769566893578L97.36749999999999,132.40241457521915L97.37233333333333,132.40339045226574L97.40133333333333,132.41590102016926L97.614,132.44107601046562L97.79766666666667,132.4969823360443L97.95233333333333,132.55152155458927L98.57583333333332,132.64219020307064L98.64833333333334,132.6611406803131L98.88033333333333,132.7186822593212L99.32983333333334,132.7721620798111L99.8035,132.87714359164238L100.01133333333333,132.9092991799116L100.31099999999999,132.94278670847416L100.48016666666666,132.9928597509861L100.6735,132.9831053763628L100.717,132.9991853684187L100.7605,133.003000959754L101.181,133.07156291604042L101.26316666666666,133.09895780682564L101.54833333333333,133.18801318109035L101.587,133.19122214615345L101.72716666666666,133.17840386927128L102.2685,133.2736002355814L102.7615,133.34667672216892L103.21583333333334,133.3940243422985L103.4285,133.45914874970913L103.49616666666667,133.4679228514433L103.559,133.48626670241356L103.8055,133.48061364889145L103.84416666666667,133.48551501333714L103.96983333333333,133.50047846138477L104.03750000000001,133.5027555078268L104.69,133.56358517706394L105.31349999999999,133.6643950343132L105.42466666666667,133.6671907901764L105.42949999999999,133.66895791888237L105.76783333333334,133.7129734903574L105.792,133.71396255493164L105.93216666666667,133.74958646297455L105.97083333333333,133.75469003617764L106.53633333333333,133.88174307346344L106.54116666666667,133.87763296067715L106.91816666666666,133.90436407923698L107.00516666666667,133.8991769850254L107.05833333333332,133.90211780369282L107.18883333333333,133.92909508943558L107.46916666666667,133.9512677192688L107.59966666666666,133.9747019559145L108.07816666666666,134.03907907009125L108.55183333333333,134.11328089237213L108.58083333333333,134.1166568994522L109.32033333333334,157.95723424106836L109.649,156.70725003629923L110.2435,157.12412317097187L110.44166666666668,157.64400408416986L110.4755,156.67280860990286L110.55283333333333,155.84086463600397L110.60116666666667,155.85849196463823L110.809,155.86131189763546L111.31166666666667,154.31879096478224L111.505,154.18669589608908L111.70316666666666,153.44587114453316L111.87716666666665,153.81806713342667L112.07050000000001,153.25846318900585L112.114,153.3376059383154L113.47216666666667,151.91639487445354L113.593,152.01482877880335L113.78633333333333,152.10742280632257L113.90716666666667,152.01196268945932L114.31316666666666,151.6164621412754L114.68050000000001,151.58856612443924L115.13000000000001,151.22234188765287L115.25566666666667,151.25808008760214L115.47316666666667,151.65518731623888L116,151.286729991436L116.14500000000001,150.96081563085318L116.29,150.64708434790373L116.30933333333334,150.58936913311481L116.40116666666665,150.56297429651022L116.4785,150.6683778092265L116.52199999999999,150.7013378366828L116.62833333333333,150.85087341070175L116.64766666666667,150.85846503078938L116.77333333333334,150.99881549179554L116.85066666666665,151.11124356091022L117.13583333333332,150.89353945851326L117.305,150.8124691322446L117.34366666666666,150.8919261842966L117.53699999999999,150.788096383214L117.86083333333333,149.9302455112338L117.9285,149.96427372843027L118.05900000000001,149.77809880673885L118.14116666666666,149.67340522259474L118.43116666666667,149.7257750928402L118.67766666666667,149.55681209266186L119.06433333333334,149.33936734497547L119.161,149.4053357541561L119.364,149.26870197802782L119.60566666666666,149.212173640728L119.62016666666666,149.24612053483725L119.70233333333333,149.35930908471346L119.83766666666666,149.3478776961565L120.03099999999999,149.35941018909216L120.36449999999999,149.22784262150526L120.38383333333334,149.25652549415827L120.93483333333333,149.07080114632845L120.98316666666668,149.08224572241306L121.6695,148.8584379926324L122.21566666666666,148.66375052183867L122.41383333333333,148.63135096430779L122.83916666666666,148.60556934773922L123.08566666666667,148.5055199712515L123.21133333333333,148.41174126416445L124.58883333333333,148.71022776514292L124.64683333333333,148.73463128507137L124.70483333333333,148.74105800688267L124.816,148.82186678051949L124.845,148.80604614317417L125.14466666666667,148.77137833088636L125.27516666666666,148.75529174506664L125.41533333333334,148.8364082276821L125.773,148.9825765863061L126.59466666666667,149.03591354191303L126.73,149.00879119336605L126.83633333333334,149.02907141298056L126.8605,149.05300457775593L127.08766666666666,149.0632402971387L127.484,149.00926814228296L127.658,148.98879230767488L128.39266666666666,149.08770755678415L128.46516666666668,149.0390411838889L128.5473333333333,148.99754882603884L129.38833333333332,148.91657081246376L129.56716666666665,149.02130176126957L129.8475,149.05435190349817L130.181,148.9658438116312L130.5773333333333,149.00629655271769L131.18633333333332,149.00508769601583L131.2685,149.01284855604172L131.457,149.04836256802082L132.11916666666667,148.90971549600363L132.37533333333334,148.7928520217538L132.62183333333334,148.77881829440594L132.81033333333335,148.75645664334297L132.82483333333334,148.75395540893078L133.54983333333334,148.61278292536736L133.72866666666667,148.58382311463356L133.76733333333334,148.58219885081053L134.20233333333334,148.4057519286871L134.2651666666667,148.37859221547842L134.39566666666667,148.3818121701479L134.43916666666667,148.4099631458521L134.46816666666666,148.41253251582384L134.51166666666666,148.44662886857986L134.763,148.3600681349635L134.821,148.33364912122488L134.83066666666667,148.3294005393982L134.84033333333332,148.3362492620945L134.91766666666666,148.35724820196629L135.27533333333332,148.3391175493598L135.32366666666667,148.33590199053288L135.43966666666668,148.336691044271L135.65716666666665,148.3644178211689L135.71033333333332,148.35604593902826L135.78283333333334,148.33701633661985L135.84083333333334,148.3451112806797L135.952,148.3376823067665L136.02450000000002,148.33438102900982L136.155,148.3007154688239L136.26616666666666,148.33495029062033L136.64316666666667,148.35046981275082L136.93316666666666,148.3096258416772L137.10716666666667,148.27131827175617L137.547,148.17349099367857L137.9965,148.2045080587268L138.63933333333333,148.39828119426966L139.04533333333333,148.41202479600906L139.83316666666667,148.3833023607731L139.93949999999998,148.364721134305L139.9685,148.36802460998297L140.17633333333333,148.39579314738512L140.58716666666666,148.55731618404388L140.795,148.61453247070312L141.3025,148.82154588401318L141.5635,148.85453448444605L141.95016666666666,148.86814840883017L142.303,148.90551087260246L142.3175,148.91388934850693L142.40933333333334,148.95154193788767L142.64616666666666,149.0466635748744L142.84916666666666,149.11504749953747L142.96516666666668,149.15144507586956L143.15366666666665,149.15943451970816L143.2455,149.20668982714415L143.33733333333333,149.249573469162L143.347,149.25021965801716L143.434,149.23156590014696L143.61766666666668,149.21963338553905L144.043,149.22343798726797L144.16866666666667,149.2745792195201L144.18316666666666,149.26673923432827L144.246,149.25101750344038L144.47799999999998,149.27425172924995L144.7245,149.33925085514784L145.20783333333335,158.89272997900844L145.2755,153.26506574451923L145.48333333333335,155.6116588115692L145.51233333333334,154.51740831881762L145.92316666666667,155.54185063391924L146.334,155.17406367510557L146.53216666666665,155.15139211714268L146.8415,155.4778405725956L147.01066666666668,156.00229535996914L147.09283333333332,156.04626477509737L147.50850000000003,156.9946590140462L147.90483333333333,156.44866240024567L148.17066666666668,156.7450476884842L148.22383333333335,156.89269085228443L148.69750000000002,155.7396042048931L149.089,156.03654117137194L149.72216666666665,156.453282430768L149.76083333333332,156.53096136450768L150.017,156.88978080451488L150.29733333333334,157.3114827722311L150.44233333333335,157.47520592808723L150.51966666666667,156.78918854147196L150.568,156.79710545390844L150.6115,156.82573337852955L150.85316666666665,157.1937247440219L151.3075,157.07530733942986L151.49116666666666,157.1659781858325L151.61683333333335,157.27093332260847L151.64100000000002,157.26795513927937L151.7715,157.37696104496717L151.89233333333334,157.3915772214532L151.95033333333333,157.364731810987L152.1388333333333,157.38751766085625L152.82516666666666,157.36018650978804L152.8445,157.36198001354933L152.92183333333332,157.45097824186087L153.0233333333333,157.38027331233025L153.18766666666667,157.43366961181164L153.21666666666667,157.4657131060958L153.3375,157.57543773204088L153.56466666666665,157.5346267297864L153.9755,157.39337292313576L154.76333333333332,157.06232421845198L154.81650000000002,157.06726074963808L155.6575,157.3974786400795L155.72516666666667,157.4890352487564L155.77833333333334,157.57069901376963L155.87016666666665,157.69878946989775L155.98133333333334,157.8424412086606L156.01033333333334,157.6528551131487L156.56616666666667,157.89043721556664L156.69666666666666,157.89809697121382L156.84166666666667,158.05421971529722L157.05916666666667,158.03609565645456L157.13166666666666,157.97977172583342L157.3395,158.0776363685727L157.67783333333333,158.30578938871622L157.77933333333334,158.29203040152788L157.963,158.29730321466923L158.08383333333333,158.4369921013713L158.195,158.28881484270096L159.5,158.71870736405253L159.79966666666667,158.90504053607583L160.1525,158.8628767132759L160.15733333333333,158.86482187360525L161.0515,159.19826521351933L161.38016666666667,159.33433742076159L161.63633333333334,159.37019760534167L161.79583333333332,159.4549230746925L161.81516666666667,159.44563356041908L162.0375,159.45975960046053L162.0665,159.44247624650598L162.19216666666668,159.45255591347814L162.29366666666667,159.53577910363674L162.60299999999998,159.76674766093493L162.99450000000002,159.78874775394797L163.65666666666667,159.91086865589023L163.7195,159.92807947844267L163.7775,159.88532111793756L163.90316666666666,159.93309953063726L164.1303333333333,159.9651573114097L164.46866666666668,160.03076086565852L164.4735,159.9933137819171L164.546,160.0007867142558L164.71516666666665,159.9989811219275L164.79733333333334,160.01357751712203L164.86983333333333,159.98986304551363L165.13566666666668,160.15700836479664L165.14533333333333,160.16390873864293L165.1695,160.16834634169936L165.445,160.01213348284364L165.58033333333333,160.0590470135212L165.73983333333334,160.07646004483104L165.78333333333333,160.0829724855721L166.12166666666667,160.2494386471808L166.19416666666666,160.3038580790162L166.27633333333333,160.18249106407166L166.62433333333334,160.18237017840147L166.73066666666665,160.21985902264714L167.36866666666668,160.3009777031839L167.47983333333335,160.29156950116158L167.71183333333335,160.40776920318604L167.73600000000002,160.41350907459855L168.1903333333333,160.46482064574957L168.2,160.46926923841238L168.22416666666666,160.48268534988165L168.30633333333336,160.52147426456213L168.42716666666666,160.4863349981606L168.61083333333335,160.52137755602598L168.9685,160.642445653677L169.37449999999998,160.7017664499581L169.78533333333334,160.7356430105865L170.01733333333334,160.55531675741076L170.23,160.60759761184454L170.2976666666667,160.60243359580636L170.4185,160.6009214259684L170.58283333333335,160.6723681539297L170.66983333333334,160.69605734944344L170.67950000000002,160.70134664699435L170.95016666666666,160.67418034002185L171.35616666666667,160.78871072083712L171.41416666666666,160.8148363120854L172.43883333333335,160.8866819627583L172.898,160.86726662516594L173.03816666666668,160.88794906437397L173.1155,160.90686767175794L173.2605,160.89529012143612L173.275,160.90015302225947L173.31366666666668,160.88747211545706L173.68583333333333,160.99751763790846L174.72983333333335,161.10087818279862L174.87966666666665,161.1075466759503L175.2905,161.13433933630586L175.64816666666667,161.10168701782823L176.45533333333336,161.34866743162274L177.1175,161.4145984761417L177.14166666666668,161.41626999527216L177.15133333333333,161.4204911030829L177.83283333333333,160.60812291502953L178.04066666666665,160.63398695364594L178.31616666666667,160.66209836676717L179.51,160.78674687817693L179.57766666666666,160.78890523687005L179.80483333333333,160.78553362563252L180.09,160.76283459365368L180.18666666666667,160.7501602806151L180.1963333333333,160.75325165688992L180.44283333333334,160.7829994224012L180.74249999999998,160.83612867444754L181.00833333333333,160.75547485426068L181.62699999999998,160.80653036758304L181.888,160.79707381129265L182.05233333333334,160.81639463827014L182.091,160.81575284525752L182.09583333333333,160.81727930158377L182.34716666666668,160.89738144353032L182.51149999999998,160.8872193545103L182.54049999999998,160.8916734419763L182.98033333333333,160.84580282494426L183.2026666666667,160.8274040259421L183.81166666666667,160.83129434660077L183.88416666666666,160.8150967657566L183.918,160.81896290928125L183.94216666666665,160.82666112855077L184.005,160.83516488596797L184.02916666666667,160.8163210079074L184.2225,160.74879647046328L184.22733333333332,160.7497734464705L184.2853333333333,160.76392915844917L184.43033333333335,160.7856336310506L184.44966666666667,160.7923669628799L184.77833333333334,160.77055369317532L184.83633333333333,160.77815080806613L185.18916666666667,160.7797475978732L185.33416666666668,160.8009520433843L186.36366666666666,160.88857217505574L186.40233333333333,160.87401094660163L186.47,160.8582474552095L186.67783333333335,160.87619568035007L186.731,160.8901337981224L186.7455,160.89084592461586L186.85183333333333,160.8889491185546L187.02100000000002,160.89527034014463L187.4608333333333,160.93133383244276L187.9345,160.9471522718668L188.471,160.93070632591844L188.732,160.9336053840816L188.86733333333333,160.91589123755693L189.46183333333332,160.84542478248477L189.78083333333333,160.88179598376155L190.07083333333333,160.84545115754008L190.46716666666669,160.85841339826584L190.54933333333335,160.8682304136455L190.64116666666666,160.88061460107565L190.81516666666667,160.9183770865202L191.023,160.91235588118434L191.25016666666667,160.9117393642664L191.3855,160.92601046711206L191.4725,160.88486098498106L191.5305,160.88813698664308L191.96066666666667,160.9398331940174L192.13466666666665,160.91181299462914L192.27,160.91169980168343L192.49716666666666,160.91815070062876L192.60833333333335,160.91845401376486L192.70983333333334,160.8856885023415L192.73883333333333,160.8892557285726L192.80650000000003,160.90496976673603L193.3961666666667,160.82150810211897L193.48316666666668,160.82545117288828L193.72,160.8110097311437L193.76833333333335,160.81582537665963L193.8215,160.82868321612477L193.86983333333333,160.82776997983456L193.94233333333332,160.84041901677847L194.91383333333334,160.87628469616175L194.967,160.876633066684L195.2086666666667,160.87318342924118L195.3875,160.84407196193933L195.8805,160.8336120545864L196.2285,160.83357029408216L196.4025,160.82638858631253L196.5233333333333,160.80893159657717L196.60066666666668,160.8016070239246L196.65383333333335,160.80868762731552L196.76983333333334,160.78150593489408L196.85683333333333,160.78133449703455L196.90033333333335,160.78905909135938L197.32083333333333,160.74150596559048L197.75099999999998,160.75399785116315L197.85250000000002,160.75980915501714L198.28266666666667,160.75162629410625L198.505,160.7771617434919L198.83366666666666,160.69841462001204L199.04633333333334,160.71012954041362L199.4185,160.70362479239702L199.4475,160.71014053002L200.12416666666667,160.67603978142142L200.37066666666666,160.67315171286464L200.5205,160.67494631558657L200.593,160.6869085021317L200.67033333333333,160.68705136701465L200.78633333333335,160.68677223101258L200.96033333333332,160.71784644201398L200.97966666666665,160.72178072109818L201.06183333333334,160.71552104130387L201.26966666666664,160.64892072975636L201.55966666666666,160.60742397606373L201.56449999999998,160.60553925856948L201.69016666666667,160.61704977229238L202.8695,160.6855710670352L203.11116666666666,160.71990479528904L203.18366666666665,160.73716946691275L203.38666666666668,160.74293241649866L203.41083333333333,160.74911956489086L203.84583333333333,160.77363627776504L204.76416666666665,160.81228452548385L205.06383333333332,160.87457691133022L205.06866666666664,160.87577038258314L205.14600000000002,160.8750670477748L205.31516666666667,160.86334663257003L205.43116666666668,160.87506814673543L205.48916666666668,160.84019263088703L205.50366666666667,160.8401453755796L205.89999999999998,160.87899363413453L205.92899999999997,160.88449722900987L206.02566666666667,160.90698635950685L206.5283333333333,160.94346306100488L206.59116666666668,160.95768251270056L206.66366666666667,160.92137724906206L207.16633333333334,160.89001730829477L207.234,160.89029424637556L207.32583333333332,160.87294605374336L207.50466666666668,160.88986455276608L207.98799999999997,160.91698140650988L208.40366666666668,160.97233055904508L208.58733333333336,160.98738522082567L208.6115,160.9927503466606L208.89666666666668,160.99996172636747L208.95466666666667,160.98434109985828L209.1335,160.9979000762105L209.18183333333334,160.99080188944936L209.57816666666668,160.96748634055257L210.02283333333332,160.96524336189032L210.25,160.95295148715377L210.34183333333334,160.95957052707672L210.453,160.9545208029449L210.5255,160.95791109651327L210.54966666666667,160.96321577951312L211.05233333333334,160.96954249590635L211.86916666666667,160.9828772842884L212.51683333333332,161.02049580588937L212.86966666666666,161.06578397378325L212.98566666666667,161.07759780064225L214.4163333333333,161.26717180758715L214.59033333333332,161.30159015581012L214.6338333333333,161.30681131780148L214.6435,161.30877735838294L214.90449999999998,161.34681128710508L214.94316666666666,161.3443880788982L215.1945,161.3661562912166L215.6585,161.42013943567872L215.96300000000002,161.45649085566401L217.24383333333333,161.57048824056983L217.33083333333332,161.5749555155635L217.33566666666664,161.57572808489203L217.413,161.58608688786626L217.6208333333333,161.57445219159126L217.732,161.5916860923171L218.02200000000002,161.62912987917662L218.24916666666667,161.63693909347057L218.37,161.65930733829737L218.4715,161.66777043417096L219.25933333333333,161.69490487128496L219.588,161.7002612054348L220.16316666666665,161.75909626111388L220.2115,161.72206018865108L220.24533333333332,161.7242471203208L220.34683333333334,161.7350960597396L220.62233333333333,161.74769674241543L220.95583333333335,161.790462795645L221.09116666666665,161.79634003713727L221.33766666666665,161.8332728073001L221.46333333333334,161.83304092660546L221.52616666666668,161.84159633517265L221.61316666666667,161.84218537807465L221.99499999999998,161.87062757834792L222.6281666666667,161.85100673511624L222.7635,161.86996380612254L222.90366666666665,161.87562565132976L222.92783333333335,161.87891044467688L223.27583333333334,161.8943530395627L223.648,161.86725816503167L224.14583333333334,161.87877307459712L224.3295,161.89319253712893L224.33433333333332,161.8939398303628L224.49866666666668,161.92104459553957L224.60016666666667,161.93580143898726L224.64366666666666,161.94310293346643L225.00133333333335,161.92981649935246L225.18983333333333,161.941161070019L225.91483333333335,162.00606678426266L226.05499999999998,162.000819247216L226.17100000000002,162.0049469433725L226.287,162.00738333910704L226.5335,162.03545189276338L226.61083333333332,162.0443633645773L226.68816666666666,162.0433644093573L226.78483333333335,162.03976641222835L227.27783333333332,162.0543342344463L227.32616666666667,162.05842236801982L227.86749999999998,162.1164573803544L228.06083333333333,162.12723818421364L228.24450000000002,162.12362480163574L228.636,162.14545675367117L228.8535,162.1562320627272L228.88733333333334,162.16079165041447L229.15800000000002,162.17044931650162L229.24983333333333,162.18074108287692L229.74283333333335,162.21823981776834L229.77666666666667,162.22338185459375L229.90716666666665,162.2417597733438L230.5596666666667,162.28334114700556L230.95116666666667,162.2732757665217L231.09616666666668,162.28614239767194L231.25083333333333,162.29178116470575L231.28466666666665,162.29394721612334L231.4006666666667,162.31134486198425L231.49733333333333,162.29945960268378L231.96133333333333,162.34054644405842L232.03383333333335,162.34594563767314L232.0435,162.34704569727182L232.12083333333334,162.35642532631755L232.5606666666667,162.38311138749123L233.015,162.39908807724714L233.06333333333333,162.4040323011577L233.30016666666666,162.43247889727354L233.59016666666668,162.45288439840078L234.1895,162.51201617345214L234.64383333333333,162.52032431587577L234.73083333333332,162.53259311243892L235.23350000000002,162.5655443482101L235.30116666666666,162.57007316499949L235.44616666666664,162.5594495125115L235.57183333333333,162.56799173355103L235.65883333333332,162.56868188083172L235.7313333333333,162.56826757267118L235.9585,162.56351896375418L236.37900000000002,162.59620644897223L236.54333333333332,162.6130194477737L236.54816666666667,162.6137073971331L236.76566666666668,162.60253096744418L237.02183333333335,162.6175141967833L237.05083333333334,162.61931539326906L237.10883333333334,162.62549155205488L237.23450000000003,162.63974507153034L237.24416666666667,162.64057039096951L237.4085,162.65793616697192L237.61633333333333,162.6837265752256L237.76616666666666,162.7045266032219L237.9885,162.20496107637882L238.34133333333332,162.2451423741877L238.4186666666667,162.2502921037376L238.99866666666668,162.31674625352025L239.1195,162.3331801109016L239.28866666666667,162.342469625175L239.61733333333333,162.3640004619956L243.50333333333333,162.4034311696887L243.6,162.40990184992552L243.90449999999998,162.40162777528167L244.26216666666667,162.40730061009526L244.28633333333335,162.4092600569129L244.33950000000002,162.41393283754587L244.9195,162.3844477236271L245.12249999999997,162.39595494046807L245.34483333333333,162.41915509849787L246.24383333333333,162.38712698966265L247.022,162.38048267364502L247.07999999999998,162.38747975602746L247.36033333333333,162.3672127239406L247.43283333333332,162.37078764289618L247.5391666666667,162.36708964034915L247.85333333333335,162.37642640993L247.88233333333335,162.38014749065042L248.14816666666667,162.3920360468328L248.21583333333334,162.39429880678654L248.2545,162.39915841072798L248.27866666666665,162.402139890939L248.61216666666667,162.4249389283359L249.09066666666666,162.4491874948144L249.54983333333334,162.4422728344798L249.5885,162.44478395953774L249.7625,162.45979246497154L249.85433333333336,162.46720495447516L249.90266666666668,162.47162057831883L250.42466666666667,162.46448282897472L250.45850000000002,162.4621739126742L250.62766666666667,162.47581311315298L251.00466666666668,162.48394542187452L251.70066666666668,162.46079142019153L251.78283333333331,162.46666206791997L251.83599999999998,162.4706776700914L252.039,162.47903856262565L252.14049999999997,162.48262886703014L252.44016666666667,162.46243766322732L252.48850000000002,162.46407841145992L252.55133333333333,162.4714084789157L252.59,162.4638058692217L253.1265,162.47674722969532L253.31983333333335,162.4687885567546L253.38266666666667,162.46797312796116L253.52283333333332,162.4817354120314L253.56633333333332,162.48339813947678L253.90466666666669,162.49387672916055L254.70216666666667,162.4432289302349L254.72633333333332,162.4455916956067L254.8375,162.4544416256249L255.28699999999998,162.46448612585664L255.39333333333335,162.47508120536804L256.03616666666665,162.50876654684544L256.3165,162.48408718779683L256.3938333333333,162.4866884276271L256.83366666666666,162.49442181363702L256.94966666666664,162.4861719161272L257.14300000000003,162.48408718779683L257.21066666666667,162.4873357154429L257.2735,162.48846654593945L257.375,162.48824675381184L257.38466666666665,162.48755111172795L257.839,162.51207112148404L258.1483333333333,162.47991992905736L258.26916666666665,162.48361683264375L258.2885,162.485616941005L258.73316666666665,162.46518836170435L258.83466666666664,162.4685841500759L258.9796666666667,162.4599814862013L259.2165,162.45775389298797L259.64666666666665,162.47476910054684L259.69016666666664,162.47520648688078L260.50216666666665,162.42934136465192L260.5215,162.42746214196086L260.5505,162.42510487139225L260.83566666666667,162.44698847457767L261.09183333333334,162.45432403683662L261.10633333333334,162.45584060251713L261.28516666666667,162.45852426439524L261.5606666666667,162.47513945028186L261.6525,162.48195520415902L261.986,162.47090955078602L262.6288333333333,162.47365145757794L262.7545,162.4802968725562L262.86083333333335,162.47278767451644L263.0493333333333,162.4484654776752L263.1895,162.4554988257587L263.2378333333333,162.45385917648673L263.24266666666665,162.4542624950409L263.5423333333333,162.4728382267058L263.552,162.47395586967468L263.88550000000004,162.46827534213662L263.90000000000003,162.4633355140686L263.90483333333333,162.46231787651777L264.1223333333333,162.47254810109735L264.2335,162.4768274538219L264.3301666666667,162.48583013936877L264.886,162.47647029161453L265.08416666666665,162.49637576565146L265.3403333333333,162.49604937434196L265.408,162.5018068291247L265.64483333333334,162.48356737941504L265.80916666666667,162.48608729615808L265.8333333333333,162.4834739677608" style="fill: none;" fill="none"></path></g></g></g></g></g></g><g transform="translate(40, 177)" clip-path="url(#clip_1)"><clipPath id="clip_1"><rect width="290" height="23"></rect></clipPath><g><g><line x1="0" y1="0" x2="0" y2="5" style="visibility: inherit;" fill="rgb(0, 0, 0)" stroke="rgb(204, 204, 204)" stroke-width="1px"></line><line x1="24.166666666666664" y1="0" x2="24.166666666666664" y2="5" style="visibility: inherit;" fill="rgb(0, 0, 0)" stroke="rgb(204, 204, 204)" stroke-width="1px"></line><line x1="48.33333333333333" y1="0" x2="48.33333333333333" y2="5" style="visibility: inherit;" fill="rgb(0, 0, 0)" stroke="rgb(204, 204, 204)" stroke-width="1px"></line><line x1="72.5" y1="0" x2="72.5" y2="5" style="visibility: inherit;" fill="rgb(0, 0, 0)" stroke="rgb(204, 204, 204)" stroke-width="1px"></line><line x1="96.66666666666666" y1="0" x2="96.66666666666666" y2="5" style="visibility: inherit;" fill="rgb(0, 0, 0)" stroke="rgb(204, 204, 204)" stroke-width="1px"></line><line x1="120.83333333333334" y1="0" x2="120.83333333333334" y2="5" style="visibility: inherit;" fill="rgb(0, 0, 0)" stroke="rgb(204, 204, 204)" stroke-width="1px"></line><line x1="145" y1="0" x2="145" y2="5" style="visibility: inherit;" fill="rgb(0, 0, 0)" stroke="rgb(204, 204, 204)" stroke-width="1px"></line><line x1="169.16666666666669" y1="0" x2="169.16666666666669" y2="5" style="visibility: inherit;" fill="rgb(0, 0, 0)" stroke="rgb(204, 204, 204)" stroke-width="1px"></line><line x1="193.33333333333331" y1="0" x2="193.33333333333331" y2="5" style="visibility: inherit;" fill="rgb(0, 0, 0)" stroke="rgb(204, 204, 204)" stroke-width="1px"></line><line x1="217.5" y1="0" x2="217.5" y2="5" style="visibility: inherit;" fill="rgb(0, 0, 0)" stroke="rgb(204, 204, 204)" stroke-width="1px"></line><line x1="241.66666666666669" y1="0" x2="241.66666666666669" y2="5" style="visibility: inherit;" fill="rgb(0, 0, 0)" stroke="rgb(204, 204, 204)" stroke-width="1px"></line><line x1="265.8333333333333" y1="0" x2="265.8333333333333" y2="5" style="visibility: inherit;" fill="rgb(0, 0, 0)" stroke="rgb(204, 204, 204)" stroke-width="1px"></line><line x1="290" y1="0" x2="290" y2="5" style="visibility: inherit;" fill="rgb(0, 0, 0)" stroke="rgb(204, 204, 204)" stroke-width="1px"></line></g><g transform="translate(0, 8)"><text x="0" y="0" dx="0em" dy="0.95em" style="text-anchor: middle; visibility: hidden; font-family: &quot;Helvetica Neue&quot;, sans-serif; font-size: 12px; font-weight: 200;" fill="rgb(33, 33, 33)" stroke="none" stroke-width="1px">-5k</text><text x="24.166666666666664" y="0" dx="0em" dy="0.95em" style="text-anchor: middle; visibility: inherit; font-family: &quot;Helvetica Neue&quot;, sans-serif; font-size: 12px; font-weight: 200;" fill="rgb(33, 33, 33)" stroke="none" stroke-width="1px">0</text><text x="48.33333333333333" y="0" dx="0em" dy="0.95em" style="text-anchor: middle; visibility: hidden; font-family: &quot;Helvetica Neue&quot;, sans-serif; font-size: 12px; font-weight: 200;" fill="rgb(33, 33, 33)" stroke="none" stroke-width="1px">5k</text><text x="72.5" y="0" dx="0em" dy="0.95em" style="text-anchor: middle; visibility: inherit; font-family: &quot;Helvetica Neue&quot;, sans-serif; font-size: 12px; font-weight: 200;" fill="rgb(33, 33, 33)" stroke="none" stroke-width="1px">10k</text><text x="96.66666666666666" y="0" dx="0em" dy="0.95em" style="text-anchor: middle; visibility: hidden; font-family: &quot;Helvetica Neue&quot;, sans-serif; font-size: 12px; font-weight: 200;" fill="rgb(33, 33, 33)" stroke="none" stroke-width="1px">15k</text><text x="120.83333333333334" y="0" dx="0em" dy="0.95em" style="text-anchor: middle; visibility: inherit; font-family: &quot;Helvetica Neue&quot;, sans-serif; font-size: 12px; font-weight: 200;" fill="rgb(33, 33, 33)" stroke="none" stroke-width="1px">20k</text><text x="145" y="0" dx="0em" dy="0.95em" style="text-anchor: middle; visibility: hidden; font-family: &quot;Helvetica Neue&quot;, sans-serif; font-size: 12px; font-weight: 200;" fill="rgb(33, 33, 33)" stroke="none" stroke-width="1px">25k</text><text x="169.16666666666669" y="0" dx="0em" dy="0.95em" style="text-anchor: middle; visibility: inherit; font-family: &quot;Helvetica Neue&quot;, sans-serif; font-size: 12px; font-weight: 200;" fill="rgb(33, 33, 33)" stroke="none" stroke-width="1px">30k</text><text x="193.33333333333331" y="0" dx="0em" dy="0.95em" style="text-anchor: middle; visibility: hidden; font-family: &quot;Helvetica Neue&quot;, sans-serif; font-size: 12px; font-weight: 200;" fill="rgb(33, 33, 33)" stroke="none" stroke-width="1px">35k</text><text x="217.5" y="0" dx="0em" dy="0.95em" style="text-anchor: middle; visibility: inherit; font-family: &quot;Helvetica Neue&quot;, sans-serif; font-size: 12px; font-weight: 200;" fill="rgb(33, 33, 33)" stroke="none" stroke-width="1px">40k</text><text x="241.66666666666669" y="0" dx="0em" dy="0.95em" style="text-anchor: middle; visibility: hidden; font-family: &quot;Helvetica Neue&quot;, sans-serif; font-size: 12px; font-weight: 200;" fill="rgb(33, 33, 33)" stroke="none" stroke-width="1px">45k</text><text x="265.8333333333333" y="0" dx="0em" dy="0.95em" style="text-anchor: middle; visibility: inherit; font-family: &quot;Helvetica Neue&quot;, sans-serif; font-size: 12px; font-weight: 200;" fill="rgb(33, 33, 33)" stroke="none" stroke-width="1px">50k</text><text x="290" y="0" dx="0em" dy="0.95em" style="text-anchor: middle; visibility: hidden; font-family: &quot;Helvetica Neue&quot;, sans-serif; font-size: 12px; font-weight: 200;" fill="rgb(33, 33, 33)" stroke="none" stroke-width="1px">55k</text></g><line x1="0" y1="0" x2="290" y2="0" fill="rgb(0, 0, 0)" stroke="rgb(204, 204, 204)" stroke-width="1px"></line></g></g></g></g></svg>