<svg viewBox="0 0 330 200" xmlns="http://www.w3.org/2000/svg"><g><g><g><g><g><line x1="40" y1="177" x2="35" y2="177" style="visibility: inherit;" fill="rgb(0, 0, 0)" stroke="rgb(204, 204, 204)" stroke-width="1px"></line><line x1="40" y1="162.25" x2="35" y2="162.25" style="visibility: inherit;" fill="rgb(0, 0, 0)" stroke="rgb(204, 204, 204)" stroke-width="1px"></line><line x1="40" y1="147.5" x2="35" y2="147.5" style="visibility: inherit;" fill="rgb(0, 0, 0)" stroke="rgb(204, 204, 204)" stroke-width="1px"></line><line x1="40" y1="132.75" x2="35" y2="132.75" style="visibility: inherit;" fill="rgb(0, 0, 0)" stroke="rgb(204, 204, 204)" stroke-width="1px"></line><line x1="40" y1="118" x2="35" y2="118" style="visibility: inherit;" fill="rgb(0, 0, 0)" stroke="rgb(204, 204, 204)" stroke-width="1px"></line><line x1="40" y1="103.25" x2="35" y2="103.25" style="visibility: inherit;" fill="rgb(0, 0, 0)" stroke="rgb(204, 204, 204)" stroke-width="1px"></line><line x1="40" y1="88.5" x2="35" y2="88.5" style="visibility: inherit;" fill="rgb(0, 0, 0)" stroke="rgb(204, 204, 204)" stroke-width="1px"></line><line x1="40" y1="73.75" x2="35" y2="73.75" style="visibility: inherit;" fill="rgb(0, 0, 0)" stroke="rgb(204, 204, 204)" stroke-width="1px"></line><line x1="40" y1="58.999999999999986" x2="35" y2="58.999999999999986" style="visibility: inherit;" fill="rgb(0, 0, 0)" stroke="rgb(204, 204, 204)" stroke-width="1px"></line><line x1="40" y1="44.25" x2="35" y2="44.25" style="visibility: inherit;" fill="rgb(0, 0, 0)" stroke="rgb(204, 204, 204)" stroke-width="1px"></line><line x1="40" y1="29.5" x2="35" y2="29.5" style="visibility: inherit;" fill="rgb(0, 0, 0)" stroke="rgb(204, 204, 204)" stroke-width="1px"></line><line x1="40" y1="14.75" x2="35" y2="14.75" style="visibility: inherit;" fill="rgb(0, 0, 0)" stroke="rgb(204, 204, 204)" stroke-width="1px"></line><line x1="40" y1="0" x2="35" y2="0" style="visibility: inherit;" fill="rgb(0, 0, 0)" stroke="rgb(204, 204, 204)" stroke-width="1px"></line></g><g transform="translate(30, 0)"><text x="0" y="177" dx="0em" dy="0.3em" style="text-anchor: end; visibility: hidden; font-family: &quot;Helvetica Neue&quot;, sans-serif; font-size: 12px; font-weight: 200;" fill="rgb(33, 33, 33)" stroke="none" stroke-width="1px">0</text><text x="0" y="162.25" dx="0em" dy="0.3em" style="text-anchor: end; visibility: inherit; font-family: &quot;Helvetica Neue&quot;, sans-serif; font-size: 12px; font-weight: 200;" fill="rgb(33, 33, 33)" stroke="none" stroke-width="1px">0.2</text><text x="0" y="147.5" dx="0em" dy="0.3em" style="text-anchor: end; visibility: hidden; font-family: &quot;Helvetica Neue&quot;, sans-serif; font-size: 12px; font-weight: 200;" fill="rgb(33, 33, 33)" stroke="none" stroke-width="1px">0.4</text><text x="0" y="132.75" dx="0em" dy="0.3em" style="text-anchor: end; visibility: inherit; font-family: &quot;Helvetica Neue&quot;, sans-serif; font-size: 12px; font-weight: 200;" fill="rgb(33, 33, 33)" stroke="none" stroke-width="1px">0.6</text><text x="0" y="118" dx="0em" dy="0.3em" style="text-anchor: end; visibility: hidden; font-family: &quot;Helvetica Neue&quot;, sans-serif; font-size: 12px; font-weight: 200;" fill="rgb(33, 33, 33)" stroke="none" stroke-width="1px">0.8</text><text x="0" y="103.25" dx="0em" dy="0.3em" style="text-anchor: end; visibility: inherit; font-family: &quot;Helvetica Neue&quot;, sans-serif; font-size: 12px; font-weight: 200;" fill="rgb(33, 33, 33)" stroke="none" stroke-width="1px">1</text><text x="0" y="88.5" dx="0em" dy="0.3em" style="text-anchor: end; visibility: hidden; font-family: &quot;Helvetica Neue&quot;, sans-serif; font-size: 12px; font-weight: 200;" fill="rgb(33, 33, 33)" stroke="none" stroke-width="1px">1.2</text><text x="0" y="73.75" dx="0em" dy="0.3em" style="text-anchor: end; visibility: inherit; font-family: &quot;Helvetica Neue&quot;, sans-serif; font-size: 12px; font-weight: 200;" fill="rgb(33, 33, 33)" stroke="none" stroke-width="1px">1.4</text><text x="0" y="58.999999999999986" dx="0em" dy="0.3em" style="text-anchor: end; visibility: hidden; font-family: &quot;Helvetica Neue&quot;, sans-serif; font-size: 12px; font-weight: 200;" fill="rgb(33, 33, 33)" stroke="none" stroke-width="1px">1.6</text><text x="0" y="44.25" dx="0em" dy="0.3em" style="text-anchor: end; visibility: inherit; font-family: &quot;Helvetica Neue&quot;, sans-serif; font-size: 12px; font-weight: 200;" fill="rgb(33, 33, 33)" stroke="none" stroke-width="1px">1.8</text><text x="0" y="29.5" dx="0em" dy="0.3em" style="text-anchor: end; visibility: hidden; font-family: &quot;Helvetica Neue&quot;, sans-serif; font-size: 12px; font-weight: 200;" fill="rgb(33, 33, 33)" stroke="none" stroke-width="1px">2</text><text x="0" y="14.75" dx="0em" dy="0.3em" style="text-anchor: end; visibility: inherit; font-family: &quot;Helvetica Neue&quot;, sans-serif; font-size: 12px; font-weight: 200;" fill="rgb(33, 33, 33)" stroke="none" stroke-width="1px">2.2</text><text x="0" y="0" dx="0em" dy="0.3em" style="text-anchor: end; visibility: hidden; font-family: &quot;Helvetica Neue&quot;, sans-serif; font-size: 12px; font-weight: 200;" fill="rgb(33, 33, 33)" stroke="none" stroke-width="1px">2.4</text></g><line x1="40" y1="0" x2="40" y2="177" fill="rgb(0, 0, 0)" stroke="rgb(204, 204, 204)" stroke-width="1px"></line></g></g><g transform="translate(40, 0)" clip-path="url(#clip_0)"><clipPath id="clip_0"><rect width="290" height="177"></rect></clipPath><g><g><g><line x1="0" y1="0" x2="0" y2="177" fill="rgb(0, 0, 0)" stroke="rgb(66, 66, 66)" stroke-width="1px" opacity="0.25"></line><line x1="24.166666666666664" y1="0" x2="24.166666666666664" y2="177" fill="rgb(0, 0, 0)" stroke="rgb(66, 66, 66)" stroke-width="1px" opacity="0.25"></line><line x1="48.33333333333333" y1="0" x2="48.33333333333333" y2="177" fill="rgb(0, 0, 0)" stroke="rgb(66, 66, 66)" stroke-width="1px" opacity="0.25"></line><line x1="72.5" y1="0" x2="72.5" y2="177" fill="rgb(0, 0, 0)" stroke="rgb(66, 66, 66)" stroke-width="1px" opacity="0.25"></line><line x1="96.66666666666666" y1="0" x2="96.66666666666666" y2="177" fill="rgb(0, 0, 0)" stroke="rgb(66, 66, 66)" stroke-width="1px" opacity="0.25"></line><line x1="120.83333333333334" y1="0" x2="120.83333333333334" y2="177" fill="rgb(0, 0, 0)" stroke="rgb(66, 66, 66)" stroke-width="1px" opacity="0.25"></line><line x1="145" y1="0" x2="145" y2="177" fill="rgb(0, 0, 0)" stroke="rgb(66, 66, 66)" stroke-width="1px" opacity="0.25"></line><line x1="169.16666666666669" y1="0" x2="169.16666666666669" y2="177" fill="rgb(0, 0, 0)" stroke="rgb(66, 66, 66)" stroke-width="1px" opacity="0.25"></line><line x1="193.33333333333331" y1="0" x2="193.33333333333331" y2="177" fill="rgb(0, 0, 0)" stroke="rgb(66, 66, 66)" stroke-width="1px" opacity="0.25"></line><line x1="217.5" y1="0" x2="217.5" y2="177" fill="rgb(0, 0, 0)" stroke="rgb(66, 66, 66)" stroke-width="1px" opacity="0.25"></line><line x1="241.66666666666669" y1="0" x2="241.66666666666669" y2="177" fill="rgb(0, 0, 0)" stroke="rgb(66, 66, 66)" stroke-width="1px" opacity="0.25"></line><line x1="265.8333333333333" y1="0" x2="265.8333333333333" y2="177" fill="rgb(0, 0, 0)" stroke="rgb(66, 66, 66)" stroke-width="1px" opacity="0.25"></line><line x1="290" y1="0" x2="290" y2="177" fill="rgb(0, 0, 0)" stroke="rgb(66, 66, 66)" stroke-width="1px" opacity="0.25"></line></g><g><line x1="0" y1="177" x2="290" y2="177" fill="rgb(0, 0, 0)" stroke="rgb(66, 66, 66)" stroke-width="1px" opacity="0.25"></line><line x1="0" y1="162.25" x2="290" y2="162.25" fill="rgb(0, 0, 0)" stroke="rgb(66, 66, 66)" stroke-width="1px" opacity="0.25"></line><line x1="0" y1="147.5" x2="290" y2="147.5" fill="rgb(0, 0, 0)" stroke="rgb(66, 66, 66)" stroke-width="1px" opacity="0.25"></line><line x1="0" y1="132.75" x2="290" y2="132.75" fill="rgb(0, 0, 0)" stroke="rgb(66, 66, 66)" stroke-width="1px" opacity="0.25"></line><line x1="0" y1="118" x2="290" y2="118" fill="rgb(0, 0, 0)" stroke="rgb(66, 66, 66)" stroke-width="1px" opacity="0.25"></line><line x1="0" y1="103.25" x2="290" y2="103.25" fill="rgb(0, 0, 0)" stroke="rgb(66, 66, 66)" stroke-width="1px" opacity="0.25"></line><line x1="0" y1="88.5" x2="290" y2="88.5" fill="rgb(0, 0, 0)" stroke="rgb(66, 66, 66)" stroke-width="1px" opacity="0.25"></line><line x1="0" y1="73.75" x2="290" y2="73.75" fill="rgb(0, 0, 0)" stroke="rgb(66, 66, 66)" stroke-width="1px" opacity="0.25"></line><line x1="0" y1="58.999999999999986" x2="290" y2="58.999999999999986" fill="rgb(0, 0, 0)" stroke="rgb(66, 66, 66)" stroke-width="1px" opacity="0.25"></line><line x1="0" y1="44.25" x2="290" y2="44.25" fill="rgb(0, 0, 0)" stroke="rgb(66, 66, 66)" stroke-width="1px" opacity="0.25"></line><line x1="0" y1="29.5" x2="290" y2="29.5" fill="rgb(0, 0, 0)" stroke="rgb(66, 66, 66)" stroke-width="1px" opacity="0.25"></line><line x1="0" y1="14.75" x2="290" y2="14.75" fill="rgb(0, 0, 0)" stroke="rgb(66, 66, 66)" stroke-width="1px" opacity="0.25"></line><line x1="0" y1="0" x2="290" y2="0" fill="rgb(0, 0, 0)" stroke="rgb(66, 66, 66)" stroke-width="1px" opacity="0.25"></line></g></g></g><g><g><line x1="0" y1="177" x2="290" y2="177" fill="rgb(0, 0, 0)" stroke="rgb(153, 153, 153)" stroke-width="1.5px"></line></g></g><g><g><line x1="24.166666666666664" y1="0" x2="24.166666666666664" y2="177" fill="rgb(0, 0, 0)" stroke="rgb(153, 153, 153)" stroke-width="1.5px"></line></g></g><g><g><g><g><g><path stroke="rgb(255, 112, 67)" stroke-width="2px" d="M24.171499999999998,18.6243514418602L25.060833333333335,85.67118443362415L25.1865,107.1444287081154L25.442666666666664,115.30665071275743L25.481333333333332,119.25262401590614L25.5345,121.80881832957178L25.998499999999996,123.9697362171181L26.114500000000003,125.8734279646037L26.3465,125.0772899084262L26.646166666666666,124.7570232996752L26.675166666666666,124.68621009855849L26.7525,123.90099363618612L27.153666666666666,122.90597778645935L27.917333333333332,121.53258159891611L27.999499999999998,120.5365235515963L28.038166666666665,119.89434356968988L28.221833333333333,119.35596742961499L28.477999999999998,118.76003097064566L28.5505,118.36189656434009L28.5795,117.96448343538678L28.729333333333333,117.20480254654055L28.913,116.4756359409386L28.995166666666666,115.93872495968405L29.439833333333336,115.97075052224741L29.961833333333335,116.43507597826483L30.1165,116.74634915629275L30.445166666666665,116.9528201847854L30.483833333333333,117.12136797106834L30.599833333333333,117.20066681443794L30.851166666666664,117.3455173272589L31.107333333333333,117.49064791927773L31.208833333333335,117.48931531138567L31.474666666666664,117.33335128890185L31.498833333333334,117.23222433913116L31.503666666666668,117.17083076960621L31.663166666666665,117.15461464702318L31.909666666666666,117.0304014077798L31.99666666666667,117.05854979710395L32.818333333333335,117.031993839423L33.108333333333334,117.02441939906069L33.37416666666667,116.72096974942062L34.244166666666665,116.7471345382636L34.964333333333336,116.97660850994686L34.988499999999995,117.11308315704386L35.317166666666665,117.34005712457942L35.699,117.6042748152686L35.73283333333333,117.78986975309783L36.29833333333334,117.72072111223504L36.41916666666666,117.6966939726729L36.743,117.77924821730076L36.858999999999995,117.87737592432319L37.03783333333333,118.02621786220962L37.207,118.2171971048364L37.410000000000004,118.17781059416822L38.197833333333335,117.84925843162927L38.719833333333334,117.57434885432467L38.73916666666667,117.41781499224984L38.8165,117.30738213204194L38.83583333333333,117.24046479787138L39.03883333333333,117.21050220206803L39.10166666666667,117.20645419046537L39.7735,117.3206611531094L40.150499999999994,117.45760222417803L40.3245,117.63511796678718L40.401833333333336,117.7589171402789L40.691833333333335,117.8632483823977L41.107499999999995,117.99343232774032L41.30566666666667,118.1176462916332L41.47,118.22148966478093L41.484500000000004,118.2939289849209L41.55216666666667,118.34937916047615L41.653666666666666,118.38700466661001L41.706833333333336,118.41703531925884L41.76,118.46121073237066L41.847,118.55758701843621L41.90983333333333,118.59568776537539L42.27233333333333,118.62020632534956L42.2965,118.62624358481011L42.567166666666665,118.61844554153586L42.63483333333333,118.61994199518864L43.00216666666666,118.55135214665236L43.25833333333333,118.46578967773141L43.408166666666666,118.43663010122312L43.79483333333333,118.3780490524884L43.84316666666667,118.35025027199484L43.867333333333335,118.3319463002914L43.988166666666665,118.30117031742535L44.1235,118.24522225743175L44.254000000000005,118.1888003151753L44.379666666666665,118.13330905444255L44.727666666666664,118.06405806426305L44.81466666666667,117.97619463136255L45.153,117.8528494485048L45.18683333333333,117.77388734506533L45.501000000000005,117.69114992551187L45.56866666666667,117.63400113303769L46.013333333333335,117.5653117520768L46.076166666666666,117.53392898578397L46.1825,117.49585608565181L46.4,117.45243804409128L46.404833333333336,117.42644348593964L46.6175,117.3863882830883L46.65133333333333,117.35779403514533L47.1395,117.27879325668137L47.81616666666667,117.21593876552654L48.16416666666667,117.17990528268857L49.05833333333333,117.0755571944907L49.11633333333333,116.98662603636947L49.57066666666667,116.94043608153085L50.0975,116.84372848060262L50.440666666666665,116.76866915098745L50.86116666666667,116.67205801172207L51.42666666666667,116.58968033530206L51.52333333333333,116.54206305824454L51.7505,116.50546588350971L52.867,116.57186401396774L52.92016666666667,116.62534758752454L52.929833333333335,116.65756433192414L53.00716666666666,116.6890849291296L53.14733333333333,116.7395699869997L53.39866666666667,116.77509383269589L53.476,116.80252187793518L53.505,116.82824514117877L54.1285,116.87728619460486L54.59733333333333,116.94956853320731L54.98883333333333,117.01047207314093L55.216,117.02958907722424L55.332,117.04337676786776L55.38516666666667,117.05600302471754L56.37116666666667,117.09149062069676L56.40983333333333,117.11641941924347L56.75300000000001,117.08948959386024L56.767500000000005,117.07258616373343L56.9705,117.04915986946466L57.12516666666667,117.01774578983333L57.26533333333334,116.99170574363913L57.42966666666667,116.97853987107783L58.19333333333333,116.99404205495185L58.705666666666666,117.0017485535983L58.768499999999996,117.00775978069566L58.778166666666664,117.01293143690265L59.0585,117.00746077931308L59.16966666666667,117.011480758407L59.25183333333334,117.00190088738101L59.2615,116.99617054813562L59.319500000000005,116.99513423295889L59.445166666666665,116.99786031754061L60.04933333333334,117.02041842050102L60.349000000000004,117.05984655324666L60.353833333333334,117.08462349357634L60.532666666666664,117.1048437940027L60.697,117.11873431127941L60.909666666666666,117.11796395255132L61.06916666666667,117.1405324356139L61.51383333333334,117.17442803480506L62.0165,117.24077404080796L62.47566666666667,117.2996508094011L62.52883333333334,117.33645035698046L63.10883333333334,117.39997057243603L63.22,117.4483179815079L63.244166666666665,117.48091870948463L63.47616666666667,117.5083477044391L63.751666666666665,117.5530510273151L63.89666666666666,117.58423545518949L64.7135,117.63927687143942L64.82466666666667,117.6752944107989L64.8295,117.69851732946273L64.83433333333333,117.71340937433742L64.94550000000001,117.7213071824199L64.95516666666667,117.72979288346087L65.07116666666667,117.7366039576919L65.65599999999999,117.81918980019039L66.02333333333333,117.89550671182121L66.15383333333334,117.94020493150977L66.45349999999999,117.97739981008309L67.96633333333334,118.12298671241246L68.25633333333333,118.215640239928L68.31433333333334,118.27437977970472L68.324,118.30599253762264L68.72516666666667,118.35000242822467L68.8315,118.39281364699065L68.85566666666666,118.4165521408311L70.51350000000001,118.53665943415115L71.06933333333333,118.65712555331677L71.4995,118.74734026242906L71.62033333333333,118.8182119730092L71.688,118.8296880425797L71.76533333333333,118.84813650857126L72.07466666666666,118.87105326301287L72.12783333333333,118.88805096415537L72.35016666666667,118.91626550595674L72.55799999999999,118.95430306697318L73.0945,119.02098732056874L73.54883333333333,119.08933171548043L74.33183333333334,119.18544463466164L74.46233333333333,119.26264575213526L74.68466666666667,119.32503938132723L74.88283333333332,119.3882246461761L74.96983333333334,119.41564908309292L75.00366666666666,119.44015341212457L75.16316666666667,119.48324436074559L75.255,119.52820501998701L75.65616666666668,119.60566502973818L75.94133333333335,119.67148098448148L76.46816666666666,119.77724755465525L77.06266666666666,119.94091688191614L77.07716666666666,120.04450953957868L77.46866666666666,120.15327689026256L78.0245,120.29394710048712L78.15983333333334,120.39473692765638L78.20816666666667,120.46365435833219L78.39183333333332,120.53474005409767L78.5175,120.60403379409723L78.58516666666667,120.63618535166509L78.9235,120.71429090121703L78.938,120.75964557778428L79.01050000000001,120.80260780842059L79.07333333333334,120.84528452391001L79.20866666666667,120.88217556020362L79.42616666666666,120.94392199838605L79.52766666666666,120.98557494595318L79.547,121.01161820003193L79.97716666666666,121.07019329255104L80.243,121.1458205412941L80.51366666666667,121.23557731694679L80.562,121.29983722082795L80.74083333333333,121.36305032320035L81.08883333333334,121.39506138054855L81.24833333333333,121.42635482363896L82.0555,121.5270658779919L82.15216666666666,121.60258783392786L82.44216666666667,121.67770481999324L82.65483333333333,121.74885818300012L83.29766666666667,121.84731234274723L85.39533333333333,122.125944865718L85.55,122.3094786721316L85.85449999999999,122.4492779265551L85.93183333333333,122.54665095750738L86.09616666666666,122.63913728084712L86.391,122.70811551980108L86.53116666666666,122.76555432183702L87.087,122.86289925159906L87.15466666666666,122.92399119008715L87.19816666666668,122.96578069728098L87.34800000000001,123.0117557537644L88.276,123.11082070422702L88.59016666666666,123.18994249911626L89.17983333333333,123.28677385456277L89.43116666666667,123.36591996197052L89.60516666666666,123.43239239122956L89.75016666666667,123.47595780650667L89.99183333333333,123.52689136600429L90.10783333333333,123.55485443792304L90.20933333333333,123.58489541722275L90.34466666666667,123.61438260384165L90.40750000000001,123.63513793890334L90.41716666666667,123.64974861946497L90.55733333333335,123.66474129919285L91.01166666666667,123.7039609620814L91.15666666666667,123.7416667145398L91.26783333333333,123.78194035303038L91.37899999999999,123.81476610428953L91.73183333333334,123.88595445470133L92.133,123.94905010769438L92.29249999999999,124.00058911984964L92.39883333333333,124.03861972538115L92.568,124.07784513144185L92.69366666666666,124.10590457623296L92.70816666666666,124.1262832922047L92.7855,124.14001917495165L92.80966666666667,124.15318580659527L93.061,124.20283925647914L93.89716666666666,124.31206771800147L94.43366666666667,124.43872634809749L95.07166666666666,124.56936009074172L95.178,124.64908370581223L95.20216666666666,124.69928107981056L95.207,124.73037186458214L95.40516666666667,124.77105653997958L95.7145,124.8288265151781L96.106,124.8824591984154L96.25583333333334,124.92753445206888L96.88416666666667,125.0369313186336L96.9615,125.11409533774426L97.1935,125.17280936691506L97.36749999999999,125.22622953923548L97.37233333333333,125.2588601355076L97.40133333333333,125.28279741074564L97.614,125.31161682287409L97.79766666666667,125.35303285407753L97.95233333333333,125.39743693880875L98.57583333333332,125.46912798412228L98.64833333333334,125.5166070290064L98.88033333333333,125.56041132972568L99.32983333333334,125.6168107066508L99.8035,125.6903025909636L100.01133333333333,125.75181404974302L100.31099999999999,125.80756502286337L100.48016666666666,125.85572761258926L100.6735,125.87980204797654L100.717,125.9022840677313L100.7605,125.91833869329761L101.181,125.96538360543056L101.26316666666666,126.00500457660559L101.54833333333333,126.0701139043343L101.587,126.11119807187151L101.72716666666666,126.1352876628842L102.2685,126.18859539064205L102.7615,126.2551629998233L103.21583333333334,126.31037823903239L103.4285,126.37299293606088L103.49616666666667,126.41582621531848L103.559,126.45063085196713L103.8055,126.46455413602769L103.84416666666667,126.47219597997056L103.96983333333333,126.48678602398508L104.03750000000001,126.49814238918466L104.69,126.5300388859072L105.31349999999999,126.60055363335363L105.42466666666667,126.64742009137959L105.42949999999999,126.67641210135753L105.76783333333334,126.71197444544394L105.792,126.73453213778829L105.93216666666667,126.75859040026484L105.97083333333333,126.7763820231236L106.53633333333333,126.83903168083889L106.54116666666667,126.87513919735946L106.91816666666666,126.90969407597183L107.00516666666667,126.92896055006383L107.05833333333332,126.94347619905113L107.18883333333333,126.96298001941466L107.46916666666667,126.98846415720237L107.59966666666666,127.01120998884353L108.07816666666666,127.05231567874617L108.55183333333333,127.10820364150445L108.58083333333333,127.14403632398273L109.32033333333334,136.8403387732257L109.649,141.5285390446752L110.2435,144.8247768211466L110.44166666666668,147.16400104928624L110.4755,148.04794875483879L110.55283333333333,148.29792152763108L110.60116666666667,148.5298182005924L110.809,148.69233857007276L111.31166666666667,148.33065492458016L111.505,148.07954882411283L111.70316666666666,147.78976114289833L111.87716666666665,147.73836725769564L112.07050000000001,147.51231947134806L112.114,147.42553564364238L113.47216666666667,146.87239292534903L113.593,146.57335390909145L113.78633333333333,146.43883227267042L113.90716666666667,146.2565216985832L114.31316666666666,145.97676480516736L114.68050000000001,145.77008131268587L115.13000000000001,145.5479041404901L115.25566666666667,145.4454874227868L115.47316666666667,145.51912251296204L116,145.44197655428982L116.14500000000001,145.12109300321063L116.29,144.82859174207283L116.30933333333334,144.63640612539908L116.40116666666665,144.50990557776248L116.4785,144.48545858625386L116.52199999999999,144.49439958252796L116.62833333333333,144.5651224465268L116.64766666666667,144.61664412981852L116.77333333333334,144.68837165872208L116.85066666666665,144.78303558850257L117.13583333333332,144.8077741874693L117.305,144.7844807752036L117.34366666666666,144.81319890904803L117.53699999999999,144.73357179455982L117.86083333333333,144.36911023672238L117.9285,144.1703262479056L118.05900000000001,143.96943297093802L118.14116666666666,143.82616874042566L118.43116666666667,143.74574193038592L118.67766666666667,143.58193584786682L119.06433333333334,143.43253030781048L119.161,143.38977655711233L119.364,143.30631282295263L119.60566666666666,143.2565141580431L119.62016666666666,143.2434305943208L119.70233333333333,143.29274047596198L119.83766666666666,143.3247871976074L120.03099999999999,143.3829272288666L120.36449999999999,143.36821559361135L120.38383333333334,143.37088901574322L120.93483333333333,143.3208603815729L120.98316666666668,143.30462680497732L121.6695,143.2312225505052L122.21566666666666,143.0994389804803L122.41383333333333,143.0107524932982L122.83916666666666,142.9734878385998L123.08566666666667,142.9213006165586L123.21133333333333,142.8418555657245L124.58883333333333,142.9515966236697L124.64683333333333,143.02994655132926L124.70483333333333,143.08689726627253L124.816,143.164744786837L124.845,143.20911822761195L125.14466666666667,143.2232062282866L125.27516666666666,143.22655809299386L125.41533333333334,143.25152781829973L125.773,143.3477755947455L126.59466666666667,143.43053836307195L126.73,143.47798491526405L126.83633333333334,143.52525914018605L126.8605,143.56609643879685L127.08766666666666,143.59996547927352L127.484,143.58928918021854L127.658,143.59052249597272L128.39266666666666,143.65351113263822L128.46516666666668,143.67153708984887L128.5473333333333,143.67128569096585L129.38833333333332,143.7019092661754L129.56716666666665,143.775742240108L129.8475,143.84318437716777L130.181,143.82153464580426L130.5773333333333,143.8457134141019L131.18633333333332,143.8369640304739L131.2685,143.84173428381052L131.457,143.83535022058825L132.11916666666667,143.77807249139988L132.37533333333334,143.70638778812435L132.62183333333334,143.67492572371214L132.81033333333335,143.65197705569295L132.82483333333334,143.63790454174537L133.54983333333334,143.5587117058364L133.72866666666667,143.5021036435561L133.76733333333334,143.4576520841954L134.20233333333334,143.38219784627188L134.2651666666667,143.31832825201647L134.39566666666667,143.2841992500895L134.43916666666667,143.2784699006959L134.46816666666666,143.27554924214388L134.51166666666666,143.2909081037313L134.763,143.27329295608223L134.821,143.25670683820738L134.83066666666667,143.2447453882676L134.84033333333332,143.24106409230123L134.91766666666666,143.25106608616287L135.27533333333332,143.25022119728908L135.32366666666667,143.25121324627509L135.43966666666668,143.24947867911405L135.65716666666665,143.25167855394687L135.71033333333332,143.25073725743775L135.78283333333334,143.24684131004622L135.84083333333334,143.2509304634226L135.952,143.25258391210394L136.02450000000002,143.24903068011378L136.155,143.23513898292407L136.26616666666666,143.24449635171428L136.64316666666667,143.2592479713174L136.93316666666666,143.26355452104877L137.10716666666667,143.2615861163406L137.547,143.2018638799112L137.9965,143.19045823511607L138.63933333333333,143.2492192816563L139.04533333333333,143.27864614318773L139.83316666666667,143.2991410952268L139.93949999999998,143.30836537250627L139.9685,143.31709571640937L140.17633333333333,143.33106142855434L140.58716666666666,143.40438679204433L140.795,143.4718716344002L141.3025,143.60002003614682L141.5635,143.68725776973116L141.95016666666666,143.7599320608541L142.303,143.82658140052348L142.3175,143.87078310065857L142.40933333333334,143.9161359102332L142.64616666666666,143.98837509040854L142.84916666666666,144.0624974088956L142.96516666666668,144.12407678169544L143.15366666666665,144.1726065713318L143.2455,144.2242276423068L143.33733333333333,144.27560490685053L143.347,144.3072365839323L143.434,144.32318157965187L143.61766666666668,144.33555839964296L144.043,144.34355683033792L144.16866666666667,144.3713777953692L144.18316666666666,144.38573090698168L144.246,144.3904357490888L144.47799999999998,144.40119754600232L144.7245,144.44050827221696L145.20783333333335,149.7245757525958L145.2755,150.0503531125663L145.48333333333335,151.4797949539112L145.51233333333334,151.7192173329882L145.92316666666667,151.88503811525655L146.334,151.80429664413543L146.53216666666665,151.64394591844328L146.8415,151.66571286378053L147.01066666666668,151.9048213217124L147.09283333333332,152.0137104572931L147.50850000000003,152.50330428672308L147.90483333333333,152.46181604798122L148.17066666666668,152.4809861513107L148.22383333333335,152.56270652306847L148.69750000000002,152.02525598283276L149.089,151.7876517950038L149.72216666666665,151.7603895949447L149.76083333333332,151.7831719778254L150.017,151.9801796920463L150.29733333333334,152.27773293837097L150.44233333333335,152.5609694599163L150.51966666666667,152.4770620154769L150.568,152.44176012202684L150.6115,152.41053536489358L150.85316666666665,152.51672244343013L151.3075,152.4850493030122L151.49116666666666,152.44421478547878L151.61683333333335,152.490242731203L151.64100000000002,152.5235257396873L151.7715,152.55139311550712L151.89233333333334,152.602984880797L151.95033333333333,152.60017107748504L152.1388333333333,152.6424632002325L152.82516666666666,152.68734986063308L152.8445,152.71954192207136L152.92183333333332,152.78645182541538L153.0233333333333,152.79448701674656L153.18766666666667,152.78409499964067L153.21666666666667,152.79726215923398L153.3375,152.8632772518669L153.56466666666665,152.92208646854604L153.9755,152.7987374700358L154.76333333333332,152.5043680004627L154.81650000000002,152.3234392721862L155.6575,152.4028640877849L155.72516666666667,152.49800638506687L155.77833333333334,152.5973235020034L155.87016666666665,152.71989916259005L155.98133333333334,152.86753296848508L156.01033333333334,152.8852865576528L156.56616666666667,152.97414514599933L156.69666666666666,153.05078376042064L156.84166666666667,153.1503038955165L157.05916666666667,153.2228193075915L157.13166666666666,153.2403086836016L157.3395,153.28900393932318L157.67783333333333,153.44773052686008L157.77933333333334,153.5500807109687L157.963,153.6352327670582L158.08383333333333,153.75672517752218L158.195,153.77899458429556L159.5,153.91928090704286L159.79966666666667,154.09743581445696L160.1525,154.15830604572108L160.15733333333333,154.19619441234474L161.0515,154.32688053371552L161.38016666666667,154.44862905992295L161.63633333333334,154.5232343039109L161.79583333333332,154.61178355879747L161.81516666666667,154.663364016814L162.0375,154.70836667943178L162.0665,154.7112904890071L162.19216666666668,154.72973842642847L162.29366666666667,154.78189688755361L162.60299999999998,154.88735861976915L162.99450000000002,154.99306784808618L163.65666666666667,155.09870929861057L163.7195,155.1736824890613L163.7775,155.20491093281743L163.90316666666666,155.25348170330426L164.1303333333333,155.30040534871995L164.46866666666668,155.33663557790626L164.4735,155.34385512663667L164.546,155.34430268939582L164.71516666666665,155.3455233665481L164.79733333333334,155.35897206617443L164.86983333333333,155.36248631389765L165.13566666666668,155.43141782350438L165.14533333333333,155.4744427535957L165.1695,155.50424913668786L165.445,155.47781496110053L165.58033333333333,155.48701339580114L165.73983333333334,155.49350393782552L165.78333333333333,155.5031884668499L166.12166666666667,155.59157948244987L166.19416666666666,155.67140851050246L166.27633333333333,155.6679053403713L166.62433333333334,155.66177245067223L166.73066666666665,155.67843755535284L167.36866666666668,155.74291781158448L167.47983333333335,155.77577444059372L167.71183333333335,155.8522088536186L167.73600000000002,155.90225346437472L168.1903333333333,155.90367824167834L168.2,155.90707214671866L168.22416666666666,155.9163721799761L168.30633333333336,155.94307158588825L168.42716666666666,155.93640692352926L168.61083333333335,155.93406887543009L168.9685,155.9947494101036L169.37449999999998,156.04073275515486L169.78533333333334,156.08648550444275L170.01733333333334,156.02902354260343L170.23,156.02726374244725L170.2976666666667,156.00843547091506L170.4185,155.99559205058586L170.58283333333335,156.02097526361567L170.66983333333334,156.0449423680903L170.67950000000002,156.06213333250292L170.95016666666666,156.05711960817104L171.35616666666667,156.1065643252416L171.41416666666666,156.14702294894954L172.43883333333335,156.22338885741772L172.898,156.243044347628L173.03816666666668,156.2575753724957L173.1155,156.27813550808335L173.2605,156.2936823128361L173.275,156.29516821257462L173.31366666666668,156.29350137205236L173.68583333333333,156.3424855142314L174.72983333333335,156.41371914562455L174.87966666666665,156.45261384139582L175.2905,156.4883706724055L175.64816666666667,156.49923870297715L176.45533333333336,156.61434298653867L177.1175,156.73481757282894L177.14166666666668,156.80828041040706L177.15133333333333,156.8545876842964L177.83283333333333,156.52973140491417L178.04066666666665,156.34882103331907L178.31616666666667,156.25632666902555L179.51,156.25262098823077L179.57766666666666,156.25402063318543L179.80483333333333,156.2560631226805L180.09,156.25522696622056L180.18666666666667,156.25378280370143L180.1963333333333,156.2546482681555L180.44283333333334,156.24681192930473L180.74249999999998,156.26923159537276L181.00833333333333,156.23492784069515L181.62699999999998,156.25131726125798L181.888,156.24593690252257L182.05233333333334,156.25568609366388L182.091,156.2622618015383L182.09583333333333,156.267054744707L182.34716666666668,156.3127715129533L182.51149999999998,156.3405558788108L182.54049999999998,156.36039941747947L182.98033333333333,156.32585906827427L183.2026666666667,156.29327223803983L183.81166666666667,156.2741166448974L183.88416666666666,156.25338322796722L183.918,156.24408708440245L183.94216666666665,156.2335667128979L184.005,156.23362670335882L184.02916666666667,156.22346170540877L184.2225,156.19870323417322L184.22733333333332,156.18446444855772L184.2853333333333,156.17739114693785L184.43033333333335,156.1866819651841L184.44966666666667,156.19584873866552L184.77833333333334,156.18031205863664L184.83633333333333,156.17640309113807L185.18916666666667,156.17999121891586L185.33416666666668,156.18778220323995L186.36366666666666,156.21843798165486L186.40233333333333,156.23273364427666L186.47,156.23467771543847L186.67783333333335,156.2350616981613L186.731,156.23843071937722L186.7455,156.24138317155936L186.85183333333333,156.24677066295206L187.02100000000002,156.2472680645517L187.4608333333333,156.26684667094537L187.9345,156.28154959931368L188.471,156.2912777790689L188.732,156.30451728577992L188.86733333333333,156.29840220615614L189.46183333333332,156.27349596384374L189.78083333333333,156.27643890180116L190.07083333333333,156.25608566402153L190.46716666666669,156.25227945148202L190.54933333333335,156.24724832236322L190.64116666666666,156.25247976219387L190.81516666666667,156.27691912076313L191.023,156.2803733373966L191.25016666666667,156.28559153230705L191.3855,156.29914411277602L191.4725,156.2837886743011L191.5305,156.277976914183L191.96066666666667,156.2967407339428L192.13466666666665,156.2831827362546L192.27,156.28001875639967L192.49716666666666,156.28417256451257L192.60833333333335,156.29015954420927L192.70983333333334,156.2779064779637L192.73883333333333,156.27310598523366L192.80650000000003,156.27684934515327L193.3961666666667,156.25133561538797L193.48316666666668,156.2381760653683L193.72,156.22636100213697L193.76833333333335,156.21756461895092L193.8215,156.21943882487167L193.86983333333333,156.22157702971666L193.94233333333332,156.2266957648347L194.91383333333334,156.25286276267468L194.967,156.24991755560936L195.2086666666667,156.25126884207666L195.3875,156.2387399901482L195.8805,156.22514410790995L196.2285,156.21782354698894L196.4025,156.2109458010573L196.5233333333333,156.19115940399044L196.60066666666668,156.17731822828694L196.65383333333335,156.17298208952096L196.76983333333334,156.16334529984084L196.85683333333333,156.15290187459044L196.90033333333335,156.15128310418638L197.32083333333333,156.13514970181294L197.75099999999998,156.1302162911767L197.85250000000002,156.13284423984732L198.28266666666667,156.13487114332705L198.505,156.15091094566935L198.83366666666666,156.13869628127546L199.04633333333334,156.13534132430632L199.4185,156.1253745126109L199.4475,156.12297879561072L200.12416666666667,156.11700749340227L200.37066666666666,156.11904523636443L200.5205,156.11352114299262L200.593,156.1167134131153L200.67033333333333,156.12097879261728L200.78633333333335,156.12696501917216L200.96033333333332,156.1476398784314L200.97966666666665,156.16224535276856L201.06183333333334,156.16235498172264L201.26966666666664,156.13252199639214L201.55966666666666,156.0818274614175L201.56449999999998,156.05081466418267L201.69016666666667,156.03773080159283L202.8695,156.07420112698708L203.11116666666666,156.10681005721946L203.18366666666665,156.134892799888L203.38666666666668,156.1580056419575L203.41083333333333,156.1751016539695L203.84583333333333,156.17534465267434L204.76416666666665,156.1974749396692L205.06383333333332,156.24293771269623L205.06866666666664,156.27083958615484L205.14600000000002,156.2890788133718L205.31516666666667,156.2993190148936L205.43116666666668,156.31336158570446L205.48916666666668,156.30876400504587L205.50366666666667,156.30642130335616L205.89999999999998,156.31474280274182L205.92899999999997,156.3228031213061L206.02566666666667,156.33489948600388L206.5283333333333,156.36179529184017L206.59116666666668,156.38547340365596L206.66366666666667,156.3861894299528L207.16633333333334,156.3853908473218L207.234,156.38673509323385L207.32583333333332,156.38300601043574L207.50466666666668,156.38688405691548L207.98799999999997,156.40390530728678L208.40366666666668,156.44550789000618L208.58733333333336,156.47497957409638L208.6115,156.4951655772997L208.89666666666668,156.50477946148354L208.95466666666667,156.5056411525371L209.1335,156.5137963831879L209.18183333333334,156.5142936790262L209.57816666666668,156.51180157567705L210.02283333333332,156.5083545595744L210.25,156.5006236255371L210.34183333333334,156.5007527959468L210.453,156.50112657798064L210.5255,156.50453607471425L210.54966666666667,156.50901706952834L211.05233333333334,156.52068109773984L211.86916666666667,156.53452647902603L212.51683333333332,156.5529555748584L212.86966666666666,156.57922176841987L212.98566666666667,156.6018521864658L214.4163333333333,156.70990588542494L214.59033333333332,156.78908085987968L214.6338333333333,156.83977283040286L214.6435,156.87094321846726L214.90449999999998,156.90473813712455L214.94316666666666,156.92501684665595L215.1945,156.94018643283792L215.6585,156.97731519749135L215.96300000000002,157.01760661906224L217.24383333333333,157.10769625190628L217.33083333333332,157.16547067274888L217.33566666666664,157.200559963645L217.413,157.22724021664945L217.6208333333333,157.2386248212557L217.732,157.2544424445332L218.02200000000002,157.28414422338608L218.24916666666667,157.30275742152574L218.37,157.32528507673288L218.4715,157.33713916220395L219.25933333333333,157.3608564691432L219.588,157.38346972505377L220.16316666666665,157.42729690039232L220.2115,157.43261448659942L220.24533333333332,157.43745084177522L220.34683333333334,157.44671255988519L220.62233333333333,157.4609733590045L220.95583333333335,157.49040129891387L221.09116666666665,157.51194838351816L221.33766666666665,157.54206437865977L221.46333333333334,157.54798122942498L221.52616666666668,157.55258106708558L221.61316666666667,157.5573331655266L221.99499999999998,157.57910940594684L222.6281666666667,157.57144523589142L222.7635,157.57028604107097L222.90366666666665,157.5713488611996L222.92783333333335,157.57357608994363L223.27583333333334,157.57924496960948L223.648,157.5708355476398L224.14583333333334,157.57191857814422L224.3295,157.57869620096463L224.33433333333332,157.58316631300318L224.49866666666668,157.59999420155924L224.60016666666667,157.61487185305262L224.64366666666666,157.62748040167037L225.00133333333335,157.6311613643619L225.18983333333333,157.6289723410876L225.91483333333335,157.66112447647282L226.05499999999998,157.68088611285702L226.17100000000002,157.6934974212695L226.287,157.70127872343355L226.5335,157.72002387175257L226.61083333333332,157.7353722818452L226.68816666666666,157.73191338883387L226.78483333333335,157.72940462295142L227.27783333333332,157.73900326170877L227.32616666666667,157.7471361999414L227.86749999999998,157.7678577002705L228.06083333333333,157.78665665965204L228.24450000000002,157.79830264854982L228.636,157.81659371142717L228.8535,157.83174176207262L228.88733333333334,157.84322456831384L229.15800000000002,157.85824919828562L229.24983333333333,157.87303659670823L229.74283333333335,157.89165725620552L229.77666666666667,157.90557265765645L229.90716666666665,157.92318569712148L230.5596666666667,157.95316644067947L230.95116666666667,157.96785360905756L231.09616666666668,157.9796040912463L231.25083333333333,157.98758014500103L231.28466666666665,157.99319571232775L231.4006666666667,158.0056574134587L231.49733333333333,158.00947973063938L231.96133333333333,158.02372893352123L232.03383333333335,158.03586897944695L232.0435,158.04364973721079L232.12083333333334,158.051678373916L232.5606666666667,158.0736736294645L233.015,158.09765290540565L233.06333333333333,158.11477204753226L233.30016666666666,158.1377369677619L233.59016666666668,158.1581202337501L234.1895,158.19644039805874L234.64383333333333,158.22958513460247L234.73083333333332,158.25591452337318L235.23350000000002,158.2817188526214L235.30116666666666,158.29790038913612L235.44616666666664,158.30207230776622L235.57183333333333,158.30914713519857L235.65883333333332,158.29659991310862L235.7313333333333,158.28608240691915L235.9585,158.28015258317052L236.37900000000002,158.28968199136767L236.54333333333332,158.3047926726515L236.54816666666667,158.31422481552212L236.76566666666668,158.317442650291L237.02183333333335,158.32791447323126L237.05083333333334,158.33545653630233L237.10883333333334,158.33967494433483L237.23450000000003,158.34991453865388L237.24416666666667,158.35656733381282L237.4085,158.3698606137486L237.61633333333333,158.39073046708415L237.76616666666666,158.41397559740727L237.9885,158.23050099073998L238.34133333333332,158.13683997368307L238.4186666666667,158.08102140590842L238.99866666666668,158.07602499583538L239.1195,158.08157442605005L239.28866666666667,158.0891451930732L239.61733333333333,158.1033760902721L243.50333333333333,158.11229003354538L243.6,158.12145223250764L243.90449999999998,158.12632006723152L244.26216666666667,158.13193454038182L244.28633333333335,158.13650416845726L244.33950000000002,158.14189048418194L244.9195,158.1377407748031L245.12249999999997,158.1370031320171L245.34483333333333,158.14716859359243L246.24383333333333,158.14214990555465L247.022,158.130633616562L247.07999999999998,158.1270734751912L247.36033333333333,158.11413328854394L247.43283333333332,158.10890206103414L247.5391666666667,158.0967852556997L247.85333333333335,158.098020248669L247.88233333333335,158.10073146108246L248.14816666666667,158.10219202568206L248.21583333333334,158.10494099336907L248.2545,158.10917600857044L248.27866666666665,158.11285026590124L248.61216666666667,158.12600222659168L249.09066666666666,158.15047452111278L249.54983333333334,158.1553560481026L249.5885,158.1599219760629L249.7625,158.17054943271472L249.85433333333336,158.18123207406995L249.90266666666668,158.18748516688822L250.42466666666667,158.18407619506166L250.45850000000002,158.18141803151397L250.62766666666667,158.18583928350228L251.00466666666668,158.1868620562769L251.70066666666668,158.18399421264036L251.78283333333331,158.18547631734194L251.83599999999998,158.1886584516381L252.039,158.19658564066975L252.14049999999997,158.20424936435276L252.44016666666667,158.20171490443738L252.48850000000002,158.2013846226513L252.55133333333333,158.2050169907796L252.59,158.20476814823078L253.1265,158.21452355514006L253.31983333333335,158.2177551187875L253.38266666666667,158.22017232464566L253.52283333333332,158.22316119305378L253.56633333333332,158.22323486049228L253.90466666666669,158.227293344374L254.70216666666667,158.2176504177067L254.72633333333332,158.21318341447193L254.8375,158.21567008586692L255.28699999999998,158.22668348367193L255.39333333333335,158.23896128007877L256.03616666666665,158.26584637802307L256.3165,158.2750337638942L256.3938333333333,158.28127502611207L256.83366666666666,158.282174794143L256.94966666666664,158.27997692422005L257.14300000000003,158.27668622729738L257.21066666666667,158.27593912838435L257.2735,158.2760113367947L257.375,158.26947848138286L257.38466666666665,158.26542601369067L257.839,158.2678660057917L258.1483333333333,158.2534434260687L258.26916666666665,158.24789246390824L258.2885,158.2456511763964L258.73316666666665,158.2352096473118L258.83466666666664,158.23171411066892L258.9796666666667,158.22610187297846L259.2165,158.22476804712883L259.64666666666665,158.23437183177157L259.69016666666664,158.2409508501034L260.50216666666665,158.2320281132782L260.5215,158.22620411603L260.5505,158.2221892499229L260.83566666666667,158.23054223199492L261.09183333333334,158.2414215918768L261.10633333333334,158.2487659553521L261.28516666666667,158.25315411089855L261.5606666666667,158.26594755470154L261.6525,158.27757196676373L261.986,158.280457601259L262.6288333333333,158.27999106068006L262.7545,158.28383619498365L262.86083333333335,158.28298793978186L263.0493333333333,158.27289077488598L263.1895,158.2712951353074L263.2378333333333,158.26906647389418L263.24266666666665,158.26795874002747L263.5423333333333,158.27827051856025L263.552,158.28504047440234L263.88550000000004,158.28922465233052L263.90000000000003,158.2895319628003L263.90483333333333,158.28937786920562L264.1223333333333,158.29237569036303L264.2335,158.2925444046391L264.3301666666667,158.2970959842046L264.886,158.29648784994123L265.08416666666665,158.3063134115877L265.3403333333333,158.31528935503616L265.408,158.32386190695556L265.64483333333334,158.31536953451032L265.80916666666667,158.31008333147642L265.8333333333333,158.3045721422498" style="fill: none;" fill="none"></path></g></g></g></g><g opacity="0.2"><g><g><g><path stroke="rgb(255, 112, 67)" stroke-width="2px" d="M24.171499999999998,18.6243514418602L25.060833333333335,125.89928422868252L25.1865,127.758743211627L25.442666666666664,124.90542379021645L25.481333333333332,124.4044867604971L25.5345,125.34495529532433L25.998499999999996,127.05988337099552L26.114500000000003,128.6490288078785L26.3465,123.90314091742039L26.646166666666666,124.28146471083164L26.675166666666666,124.5806325674057L26.7525,122.72744205594063L27.153666666666666,121.41670291125774L27.917333333333332,119.47517794370651L27.999499999999998,119.04360730946064L28.038166666666665,118.93152651190758L28.221833333333333,118.54863104224205L28.477999999999998,117.86627759039402L28.5505,117.7647556066513L28.5795,117.36840006709099L28.729333333333333,116.06532287597656L28.913,115.38191002607346L28.995166666666666,115.13336908817291L29.439833333333336,116.01878848671913L29.961833333333335,117.13156086206436L30.1165,117.21325759589672L30.445166666666665,117.26252619922161L30.483833333333333,117.37418939173222L30.599833333333333,117.31961500644684L30.851166666666664,117.56279301643372L31.107333333333333,117.70834375917912L31.208833333333335,117.4873163998127L31.474666666666664,117.09940527379513L31.498833333333334,117.0805339217186L31.503666666666668,117.0787404179573L31.663166666666665,117.13029046356678L31.909666666666666,116.84408155083656L31.99666666666667,117.10077238082886L32.818333333333335,116.99215990304947L33.108333333333334,117.01305773854256L33.37416666666667,116.26579527556896L34.244166666666665,116.78638172149658L34.964333333333336,117.32081946730614L34.988499999999995,117.31779512763023L35.317166666666665,117.68051807582378L35.699,118.00060135126114L35.73283333333333,118.06826215982437L36.29833333333334,117.61699815094471L36.41916666666666,117.66065326333046L36.743,117.90307958424091L36.858999999999995,118.02456748485565L37.03783333333333,118.2494807690382L37.207,118.50366596877575L37.410000000000004,118.11873082816601L38.197833333333335,117.35643018782139L38.719833333333334,117.16198448836803L38.73916666666667,117.18301419913769L38.8165,117.14173284173012L38.83583333333333,117.1400887966156L39.03883333333333,117.16555830836296L39.10166666666667,117.20038217306137L39.7735,117.49197159707546L40.150499999999994,117.66301383078098L40.3245,117.90139158070087L40.401833333333336,117.94461590051651L40.691833333333335,118.0197452455759L41.107499999999995,118.18870824575424L41.30566666666667,118.30396723747253L41.47,118.37725472450256L41.484500000000004,118.4025879651308L41.55216666666667,118.43255442380905L41.653666666666666,118.44344292581081L41.706833333333336,118.46208129823208L41.76,118.52747385203838L41.847,118.70215144753456L41.90983333333333,118.65283888578415L42.27233333333333,118.65698416531086L42.2965,118.63529947400093L42.567166666666665,118.60674847662449L42.63483333333333,118.62218667566776L43.00216666666666,118.44846737384796L43.25833333333333,118.33744597434998L43.408166666666666,118.39289073646069L43.79483333333333,118.29017747938633L43.84316666666667,118.30855210125446L43.867333333333335,118.30449034273624L43.988166666666665,118.2550063431263L44.1235,118.16130016744137L44.254000000000005,118.10416740179062L44.379666666666665,118.05007216334343L44.727666666666664,117.9601815789938L44.81466666666667,117.8443994820118L45.153,117.66783167421818L45.18683333333333,117.65544418990612L45.501000000000005,117.56704379618168L45.56866666666667,117.5482779443264L46.013333333333335,117.46227768063545L46.076166666666666,117.48685483634472L46.1825,117.4387467354536L46.4,117.38731098175049L46.404833333333336,117.38745164871216L46.6175,117.32630547881126L46.65133333333333,117.3149026632309L47.1395,117.16029208898544L47.81616666666667,117.12165702879429L48.16416666666667,117.12585505843163L49.05833333333333,116.91903506219387L49.11633333333333,116.85322929918766L49.57066666666667,116.87115114927292L50.0975,116.69866707921028L50.440666666666665,116.65608015656471L50.86116666666667,116.52714130282402L51.42666666666667,116.46611382067204L51.52333333333333,116.47063714265823L51.7505,116.45057012140751L52.867,116.67146120965481L52.92016666666667,116.70557294785976L52.929833333333335,116.70588944852352L53.00716666666666,116.73636582493782L53.14733333333333,116.81529757380486L53.39866666666667,116.82837960124016L53.476,116.8436639457941L53.505,116.86683003604412L54.1285,116.95084777474403L54.59733333333333,117.05799204111099L54.98883333333333,117.10182738304138L55.216,117.05826458334923L55.332,117.06405830383301L55.38516666666667,117.07494240999222L56.37116666666667,117.1447220146656L56.40983333333333,117.15381261706352L56.75300000000001,117.04909485578537L56.767500000000005,117.04723101854324L56.9705,117.01402042806149L57.12516666666667,116.97062467038631L57.26533333333334,116.95264567434788L57.42966666666667,116.95879106223583L58.19333333333333,117.01729533076286L58.705666666666666,117.01330830156803L58.768499999999996,117.0167766213417L58.778166666666664,117.02068892121315L59.0585,116.9992547929287L59.16966666666667,117.01751072704792L59.25183333333334,116.98753108084202L59.2615,116.98757503926754L59.319500000000005,116.99357976019382L59.445166666666665,117.00194944441319L60.04933333333334,117.05425557494164L60.349000000000004,117.11898875236511L60.353833333333334,117.12178890407085L60.532666666666664,117.13517424464226L60.697,117.13957008719444L60.909666666666666,117.11680841445923L61.06916666666667,117.17438516020775L61.51383333333334,117.22527143359184L62.0165,117.34029304981232L62.47566666666667,117.38796596229076L62.52883333333334,117.3916496783495L63.10883333333334,117.49525089561939L63.22,117.52083909511566L63.244166666666665,117.52981980144978L63.47616666666667,117.5494911968708L63.751666666666665,117.6201060116291L63.89666666666666,117.63101209700108L64.7135,117.72183899581432L64.82466666666667,117.72932071983814L64.8295,117.7333517074585L64.83433333333333,117.73574744164944L64.94550000000001,117.73315389454365L64.95516666666667,117.74252143502235L65.07116666666667,117.74682056903839L65.65599999999999,117.94306856393814L66.02333333333333,118.0099820792675L66.15383333333334,118.0072522610426L66.45349999999999,118.03319212794304L67.96633333333334,118.34136706590652L68.25633333333333,118.35462053120136L68.31433333333334,118.36248908936977L68.324,118.35341167449951L68.72516666666667,118.41601726412773L68.8315,118.45703047513962L68.85566666666666,118.4521598815918L70.51350000000001,118.7168203741312L71.06933333333333,118.8378247320652L71.4995,118.88266232609749L71.62033333333333,118.9245195388794L71.688,118.84690214693546L71.76533333333333,118.87580920755863L72.07466666666666,118.90542839467525L72.12783333333333,118.91354751586914L72.35016666666667,118.95858731865883L72.55799999999999,119.01135940849781L73.0945,119.12101370096207L73.54883333333333,119.19184830784798L74.33183333333334,119.32961401343346L74.46233333333333,119.37844742834568L74.68466666666667,119.4186298251152L74.88283333333332,119.4830025434494L74.96983333333334,119.45678573846817L75.00366666666666,119.47690990567207L75.16316666666667,119.5478807836771L75.255,119.59564600884914L75.65616666666668,119.72185504436493L75.94133333333335,119.77020491659641L76.46816666666666,119.93589740991592L77.06266666666666,120.1864208728075L77.07716666666666,120.1998985260725L77.46866666666666,120.31642791628838L78.0245,120.50495241582394L78.15983333333334,120.5459216684103L78.20816666666667,120.5670305043459L78.39183333333332,120.6413685977459L78.5175,120.7079744040966L78.58516666666667,120.68441268801689L78.9235,120.83144922554493L78.938,120.82767759263515L79.01050000000001,120.86705115437508L79.07333333333334,120.90929959714413L79.20866666666667,120.93751211464405L79.42616666666666,121.03654165565968L79.52766666666666,121.04805436730385L79.547,121.05068308115005L79.97716666666666,121.15805593132973L80.243,121.25926141440868L80.51366666666667,121.37021248042583L80.562,121.39622707664967L80.74083333333333,121.45786997675896L81.08883333333334,121.44307796657085L81.24833333333333,121.47329498827457L82.0555,121.6781324595213L82.15216666666666,121.7158707678318L82.44216666666667,121.79038029909134L82.65483333333333,121.85558822751045L83.29766666666667,121.9949935823679L85.39533333333333,122.54389365017414L85.55,122.58477938175201L85.85449999999999,122.65897680819035L85.93183333333333,122.69271050393581L86.09616666666666,122.77786676585674L86.391,122.811582878232L86.53116666666666,122.8517125248909L87.087,123.00891664624214L87.15466666666666,123.01562909781933L87.19816666666668,123.02846495807171L87.34800000000001,123.08071833848953L88.276,123.25941812992096L88.59016666666666,123.30862519145012L89.17983333333333,123.4320208877325L89.43116666666667,123.48463912308216L89.60516666666666,123.5321010351181L89.75016666666667,123.54130592942238L89.99183333333333,123.60329170525074L90.10783333333333,123.59679904580116L90.20933333333333,123.6299568861723L90.34466666666667,123.65861338376999L90.40750000000001,123.6662709414959L90.41716666666667,123.67166464030743L90.55733333333335,123.68723031878471L91.01166666666667,123.76279045641422L91.15666666666667,123.79822534322739L91.26783333333333,123.84235081076622L91.37899999999999,123.86400473117828L91.73183333333334,123.99273698031902L92.133,124.04369358718395L92.29249999999999,124.0778976380825L92.39883333333333,124.09566563367844L92.568,124.13668324053288L92.69366666666666,124.14799374341965L92.70816666666666,124.1568513661623L92.7855,124.16062299907207L92.80966666666667,124.17293575406075L93.061,124.27731943130493L93.89716666666666,124.475910410285L94.43366666666667,124.6287142932415L95.07166666666666,124.7653107047081L95.178,124.76866912841797L95.20216666666666,124.7745771408081L95.207,124.77700804173946L95.40516666666667,124.83208355307579L95.7145,124.91548147797585L96.106,124.96290822327137L96.25583333333334,124.9951473325491L96.88416666666667,125.20102661848068L96.9615,125.22984136641026L97.1935,125.26088041067123L97.36749999999999,125.30635979771614L97.37233333333333,125.30780602991581L97.40133333333333,125.31870332360268L97.614,125.35484594106674L97.79766666666667,125.41515690088272L97.95233333333333,125.46404306590557L98.57583333333332,125.57666455209255L98.64833333333334,125.58782559633255L98.88033333333333,125.62611778080463L99.32983333333334,125.70140977203846L99.8035,125.80054041743279L100.01133333333333,125.84408123791218L100.31099999999999,125.89119148254395L100.48016666666666,125.92797149717808L100.6735,125.91591370105743L100.717,125.93600709736347L100.7605,125.94242063164711L101.181,126.03595097362995L101.26316666666666,126.06443603336811L101.54833333333333,126.16777789592743L101.587,126.17282432317734L101.72716666666666,126.17142204940319L102.2685,126.26855698227882L102.7615,126.3550144135952L103.21583333333334,126.39320109784603L103.4285,126.46691498160362L103.49616666666667,126.48007613420486L103.559,126.50283780694008L103.8055,126.48543906211853L103.84416666666667,126.4836587458849L103.96983333333333,126.50867109000683L104.03750000000001,126.51517693698406L104.69,126.57788363099098L105.31349999999999,126.70632575452328L105.42466666666667,126.71771977841854L105.42949999999999,126.71990011632442L105.76783333333334,126.7653179615736L105.792,126.76836867630482L105.93216666666667,126.79467779397964L105.97083333333333,126.80306945741177L106.53633333333333,126.9330061674118L106.54116666666667,126.92930047214031L106.91816666666666,126.96152639389038L107.00516666666667,126.95786026120186L107.05833333333332,126.96524967253208L107.18883333333333,126.99223574995995L107.46916666666667,127.02669036388397L107.59966666666666,127.04532873630524L108.07816666666666,127.11397421360016L108.55183333333333,127.19203558564186L108.58083333333333,127.19778534770012L109.32033333333334,151.38479244709015L109.649,148.56083945184946L110.2435,149.76913348585367L110.44166666666668,150.6728373914957L110.4755,149.37387031316757L110.55283333333333,148.67288068681955L110.60116666666667,148.87766321003437L110.809,148.93611912429333L111.31166666666667,147.78812945634127L111.505,147.70288967341185L111.70316666666666,147.35507962107658L111.87716666666665,147.6612764298916L112.07050000000001,147.17324779182673L112.114,147.29535990208387L113.47216666666667,146.04267884790897L113.593,146.12479538470507L113.78633333333333,146.23704981803894L113.90716666666667,145.9830558374524L114.31316666666666,145.55712946504354L114.68050000000001,145.46005607396364L115.13000000000001,145.21463838219643L115.25566666666667,145.29186234623194L115.47316666666667,145.62957514822483L116,145.3262576162815L116.14500000000001,144.63976767659187L116.29,144.38983985036612L116.30933333333334,144.34812770038843L116.40116666666665,144.3201547563076L116.4785,144.44878809899092L116.52199999999999,144.5078110769391L116.62833333333333,144.6712067425251L116.64766666666667,144.69392665475607L116.77333333333334,144.7959629520774L116.85066666666665,144.92503148317337L117.13583333333332,144.84488208591938L117.305,144.74954065680504L117.34366666666666,144.85627610981464L117.53699999999999,144.61413112282753L117.86083333333333,143.82241789996624L117.9285,143.87215026468039L118.05900000000001,143.66809305548668L118.14116666666666,143.61127239465714L118.43116666666667,143.6251017153263L118.67766666666667,143.3362267240882L119.06433333333334,143.20842199772596L119.161,143.32564593106508L119.364,143.18111722171307L119.60566666666666,143.18181616067886L119.62016666666666,143.22380524873734L119.70233333333333,143.36670529842377L119.83766666666666,143.37285728007555L120.03099999999999,143.4701372757554L120.36449999999999,143.34614814072847L120.38383333333334,143.37489914894104L120.93483333333333,143.2458174303174L120.98316666666668,143.28027644008398L121.6695,143.12111616879702L122.21566666666666,142.90176362544298L122.41383333333333,142.87772276252508L122.83916666666666,142.91759085655212L123.08566666666667,142.84301978349686L123.21133333333333,142.72268798947334L124.58883333333333,143.1162082105875L124.64683333333333,143.14747144281864L124.70483333333333,143.17232333868742L124.816,143.2815160676837L124.845,143.2756783887744L125.14466666666667,143.2443382292986L125.27516666666666,143.2315858900547L125.41533333333334,143.28898240625858L125.773,143.4921472594142L126.59466666666667,143.55468251556158L126.73,143.5491547435522L126.83633333333334,143.5961704775691L126.8605,143.62735238671303L127.08766666666666,143.65076903998852L127.484,143.57327473163605L127.658,143.59237246960402L128.39266666666666,143.74799408763647L128.46516666666668,143.6985760256648L128.5473333333333,143.67090859264135L129.38833333333332,143.7478446289897L129.56716666666665,143.8864917010069L129.8475,143.94434758275747L130.181,143.78906004875898L130.5773333333333,143.88198156654835L131.18633333333332,143.82383995503187L131.2685,143.8488896638155L131.457,143.82577412575483L132.11916666666667,143.69215589761734L132.37533333333334,143.59886073321104L132.62183333333334,143.6277326270938L132.81033333333335,143.6175540536642L132.82483333333334,143.61679577082396L133.54983333333334,143.43992245197296L133.72866666666667,143.4171915501356L133.76733333333334,143.39097474515438L134.20233333333334,143.26901648938656L134.2651666666667,143.22252386063337L134.39566666666667,143.23300574719906L134.43916666666667,143.2698758766055L134.46816666666666,143.27116825431585L134.51166666666666,143.31394639611244L134.763,143.24687023460865L134.821,143.23182766139507L134.83066666666667,143.22680321335793L134.84033333333332,143.23554214835167L134.91766666666666,143.26606907695532L135.27533333333332,143.2489538639784L135.32366666666667,143.25270131975412L135.43966666666668,143.24687682837248L135.65716666666665,143.25497836619616L135.71033333333332,143.24932531267405L135.78283333333334,143.24099738895893L135.84083333333334,143.25706419348717L135.952,143.25506408512592L136.02450000000002,143.24370083212852L136.155,143.2143014371395L136.26616666666666,143.2585324048996L136.64316666666667,143.28137540072203L136.93316666666666,143.2700143456459L137.10716666666667,143.2586335092783L137.547,143.11228052526712L137.9965,143.17334976792336L138.63933333333333,143.33736085146666L139.04533333333333,143.3227864354849L139.83316666666667,143.3298835232854L139.93949999999998,143.32220178842545L139.9685,143.33019123226404L140.17633333333333,143.3520099967718L140.58716666666666,143.51437483727932L140.795,143.57309889793396L141.3025,143.79224263876677L141.5635,143.81811437010765L141.95016666666666,143.86894349753857L142.303,143.9265554100275L142.3175,143.93708565086126L142.40933333333334,143.98416512459517L142.64616666666666,144.09673386067152L142.84916666666666,144.17368088662624L142.96516666666668,144.21644584089518L143.15366666666665,144.24540125578642L143.2455,144.30165924876928L143.33733333333333,144.35267080366611L143.347,144.35468409955502L143.434,144.34709907323122L143.61766666666668,144.3541236296296L144.043,144.35555447638035L144.16866666666667,144.4131092429161L144.18316666666666,144.40726057440042L144.246,144.39749301224947L144.47799999999998,144.41734024137259L144.7245,144.4994743615389L145.20783333333335,157.65067697316408L145.2755,150.5390191525221L145.48333333333335,153.62395771592855L145.51233333333334,152.0783509016037L145.92316666666667,152.1337692886591L146.334,151.68318443745375L146.53216666666665,151.40341982990503L146.8415,151.69836328178644L147.01066666666668,152.26348400861025L147.09283333333332,152.17704416066408L147.50850000000003,153.23769503086805L147.90483333333333,152.39958368986845L148.17066666666668,152.50974130630493L148.22383333333335,152.68528708070517L148.69750000000002,151.21908017247915L149.089,151.43124551326036L149.72216666666665,151.71949629485607L149.76083333333332,151.81734555214643L150.017,152.27569126337767L150.29733333333334,152.724062807858L150.44233333333335,152.98582424223423L150.51966666666667,152.35120084881783L150.568,152.38880728185177L150.6115,152.3636982291937L150.85316666666665,152.67600306123495L151.3075,152.4375395923853L151.49116666666666,152.38296300917864L151.61683333333335,152.55928464978933L151.64100000000002,152.57345025241375L151.7715,152.5931941792369L151.89233333333334,152.68037252873182L151.95033333333333,152.5959503725171L152.1388333333333,152.70590138435364L152.82516666666666,152.75467985123396L152.8445,152.76783001422882L152.92183333333332,152.88681668043137L153.0233333333333,152.80653980374336L153.18766666666667,152.76850697398186L153.21666666666667,152.81701289862394L153.3375,152.9622998908162L153.56466666666665,153.0103002935648L153.9755,152.6137139722705L154.76333333333332,152.062813796103L154.81650000000002,152.05204617977142L155.6575,152.52200131118298L155.72516666666667,152.64071983098984L155.77833333333334,152.74629917740822L155.87016666666665,152.90376265347004L155.98133333333334,153.08898367732763L156.01033333333334,152.91191694140434L156.56616666666667,153.10743302851915L156.69666666666666,153.1657416820526L156.84166666666667,153.29958409816027L157.05916666666667,153.331592425704L157.13166666666666,153.26654274761677L157.3395,153.36204682290554L157.67783333333333,153.68582040816545L157.77933333333334,153.7036059871316L157.963,153.76296085119247L158.08383333333333,153.93896379321814L158.195,153.81239869445562L159.5,154.12971039116383L159.79966666666667,154.36466817557812L160.1525,154.24961139261723L160.15733333333333,154.25302696228027L161.0515,154.52290971577168L161.38016666666667,154.6312518492341L161.63633333333334,154.6351421698928L161.79583333333332,154.7446074411273L161.81516666666667,154.74073470383883L162.0375,154.77587067335844L162.0665,154.7156762033701L162.19216666666668,154.75741033256054L162.29366666666667,154.86013457924128L162.60299999999998,155.04555121809244L162.99450000000002,155.15163169056177L163.65666666666667,155.25717147439718L163.7195,155.28614227473736L163.7775,155.25175359845161L163.90316666666666,155.32633785903454L164.1303333333333,155.3707908168435L164.46866666666668,155.3909809216857L164.4735,155.3546844497323L164.546,155.34497403353453L164.71516666666665,155.34735438227654L164.79733333333334,155.37914511561394L164.86983333333333,155.3677576854825L165.13566666666668,155.53481508791447L165.14533333333333,155.53898014873266L165.1695,155.54895871132612L165.445,155.43816369771957L165.58033333333333,155.50081104785204L165.73983333333334,155.50323975086212L165.78333333333333,155.51771526038647L166.12166666666667,155.72416600584984L166.19416666666666,155.7911520525813L166.27633333333333,155.66265058517456L166.62433333333334,155.65257311612368L166.73066666666665,155.70343521237373L167.36866666666668,155.8396381959319L167.47983333333335,155.8250593841076L167.71183333333335,155.96686047315598L167.73600000000002,155.9773203805089L168.1903333333333,155.90581540763378L168.2,155.91216300427914L168.22416666666666,155.9303222298622L168.30633333333336,155.9831206947565L168.42716666666666,155.92640992999077L168.61083333333335,155.9305618032813L168.9685,156.08577021211386L169.37449999999998,156.10970777273178L169.78533333333334,156.15511462837458L170.01733333333334,155.94283059984446L170.23,156.02462404221296L170.2976666666667,155.98019306361675L170.4185,155.9763269200921L170.58283333333335,156.0590500831604L170.66983333333334,156.0808930248022L170.67950000000002,156.08791977912188L170.95016666666666,156.0495990216732L171.35616666666667,156.18073140084743L171.41416666666666,156.20771088451147L172.43883333333335,156.33793772011995L172.898,156.27252758294344L173.03816666666668,156.2793719097972L173.1155,156.30897571146488L173.2605,156.31700251996517L173.275,156.29739706218243L173.31366666666668,156.291001111269L173.68583333333333,156.41596172749996L174.72983333333335,156.5205695927143L174.87966666666665,156.51095588505268L175.2905,156.54200591892004L175.64816666666667,156.5155407488346L176.45533333333336,156.78699941188097L177.1175,156.9155294522643L177.14166666666668,156.91847466677427L177.15133333333333,156.92404859513044L177.83283333333333,156.0424469858408L178.04066666666665,156.0774554759264L178.31616666666667,156.1175851225853L179.51,156.24706246703863L179.57766666666666,156.2561201006174L179.80483333333333,156.2591268569231L180.09,156.25397273153067L180.18666666666667,156.2516165599227L180.1963333333333,156.2559464648366L180.44283333333334,156.2350574210286L180.74249999999998,156.3028610944748L181.00833333333333,156.18347220867872L181.62699999999998,156.27590139210224L181.888,156.23786636441946L182.05233333333334,156.27030988037586L182.091,156.27212536334991L182.09583333333333,156.27424415946007L182.34716666666668,156.38134666532278L182.51149999999998,156.38223242759705L182.54049999999998,156.39016472548246L182.98033333333333,156.2740485444665L183.2026666666667,156.24439199268818L183.81166666666667,156.2453832551837L183.88416666666666,156.22228310257196L183.918,156.23014286905527L183.94216666666665,156.21778615564108L184.005,156.2337166890502L184.02916666666667,156.2082142084837L184.2225,156.1615655273199L184.22733333333332,156.16310627013445L184.2853333333333,156.16678119450808L184.43033333333335,156.20061819255352L184.44966666666667,156.20959889888763L184.77833333333334,156.1570070385933L184.83633333333333,156.1705396398902L185.18916666666667,156.18537341058254L185.33416666666668,156.19946867972612L186.36366666666666,156.2644216492772L186.40233333333333,156.25417713820934L186.47,156.23759382218122L186.67783333333335,156.2356376722455L186.731,156.24348425120115L186.7455,156.24581184983253L186.85183333333333,156.2548519000411L187.02100000000002,156.24801416695118L187.4608333333333,156.2962145805359L187.9345,156.3036039918661L188.471,156.30587004870176L188.732,156.32437654584646L188.86733333333333,156.28922958672047L189.46183333333332,156.23613660037518L189.78083333333333,156.28085330873728L190.07083333333333,156.22555580735207L190.46716666666669,156.2465701326728L190.54933333333335,156.239701628685L190.64116666666666,156.26032692193985L190.81516666666667,156.31357815861702L191.023,156.28555466234684L191.25016666666667,156.2934188246727L191.3855,156.3194729834795L191.4725,156.2607555165887L191.5305,156.2692592740059L191.96066666666667,156.32488646358252L192.13466666666665,156.26284573972225L192.27,156.27527278661728L192.49716666666666,156.2904032766819L192.60833333333335,156.29914001375437L192.70983333333334,156.25952687859535L192.73883333333333,156.26590524613857L192.80650000000003,156.28246438503265L193.3961666666667,156.21306502074003L193.48316666666668,156.2184367403388L193.72,156.20863840728998L193.76833333333335,156.2043700441718L193.8215,156.22225013375282L193.86983333333333,156.22478433698416L193.94233333333332,156.23437386751175L194.91383333333334,156.2921132594347L194.967,156.24549974501133L195.2086666666667,156.25329577177763L195.3875,156.21994671225548L195.8805,156.20475028455257L196.2285,156.20684270560741L196.4025,156.2006291821599L196.5233333333333,156.16147980839014L196.60066666666668,156.1565564647317L196.65383333333335,156.16647788137197L196.76983333333334,156.14889011532068L196.85683333333333,156.13723673671484L196.90033333333335,156.14885494858027L197.32083333333333,156.11094959825277L197.75099999999998,156.1228161752224L197.85250000000002,156.13678616285324L198.28266666666667,156.1379114985466L198.505,156.1749706491828L198.83366666666666,156.12037428468466L199.04633333333334,156.1303088888526L199.4185,156.1104242950678L199.4475,156.11938522011042L200.12416666666667,156.1080505400896L200.37066666666666,156.12210185080767L200.5205,156.10523500293493L200.593,156.1215018182993L200.67033333333333,156.1273768618703L200.78633333333335,156.1359443590045L200.96033333333332,156.17865216732025L200.97966666666665,156.1841535642743L201.06183333333334,156.16251942515373L201.26966666666664,156.08777251839638L201.55966666666666,156.00578565895557L201.56449999999998,156.00429546833038L201.69016666666667,156.01810500770807L202.8695,156.12890661507845L203.11116666666666,156.15572345256805L203.18366666666665,156.17701691389084L203.38666666666668,156.19267490506172L203.41083333333333,156.20074567198753L203.84583333333333,156.17570915073156L204.76416666666665,156.23067037016153L205.06383333333332,156.31113187223673L205.06866666666664,156.31269239634275L205.14600000000002,156.31643765419722L205.31516666666667,156.31467931717634L205.43116666666668,156.33442544192076L205.48916666666668,156.301867634058L205.50366666666667,156.3029072508216L205.89999999999998,156.32722505182028L205.92899999999997,156.33489359915257L206.02566666666667,156.35304403305054L206.5283333333333,156.40213900059462L206.59116666666668,156.42099057137966L206.66366666666667,156.38726346939802L207.16633333333334,156.38419297337532L207.234,156.38875146210194L207.32583333333332,156.37741238623857L207.50466666666668,156.39270112663507L207.98799999999997,156.42943718284369L208.40366666666668,156.5079117640853L208.58733333333336,156.51918710023165L208.6115,156.52544458210468L208.89666666666668,156.5192002877593L208.95466666666667,156.50693368911743L209.1335,156.52602922916412L209.18183333333334,156.51503962278366L209.57816666666668,156.50806342065334L210.02283333333332,156.50318403542042L210.25,156.4890272244811L210.34183333333334,156.50094655156136L210.453,156.5016872510314L210.5255,156.50965031981468L210.54966666666667,156.51573856174946L211.05233333333334,156.5381771400571L211.86916666666667,156.5552945509553L212.51683333333332,156.58059921860695L212.86966666666666,156.61862105876207L212.98566666666667,156.63579781353474L214.4163333333333,156.87198643386364L214.59033333333332,156.9078433215618L214.6338333333333,156.91581078618765L214.6435,156.9176988005638L214.90449999999998,156.9554305151105L214.94316666666666,156.95543491095304L215.1945,156.9629408121109L215.6585,157.03300834447145L215.96300000000002,157.0780437514186L217.24383333333333,157.24283070117235L217.33083333333332,157.25213230401278L217.33566666666664,157.25319389998913L217.413,157.26726059615612L217.6208333333333,157.25570172816515L217.732,157.27816887944937L218.02200000000002,157.32869689166546L218.24916666666667,157.33067721873522L218.37,157.3590765595436L218.4715,157.35492029041052L219.25933333333333,157.39643242955208L219.588,157.41738960891962L220.16316666666665,157.49303766340017L220.2115,157.44059086591005L220.24533333333332,157.4447053745389L220.34683333333334,157.46060513705015L220.62233333333333,157.48236455768347L220.95583333333335,157.5345432087779L221.09116666666665,157.5442690104246L221.33766666666665,157.58723837137222L221.46333333333334,157.5568565055728L221.52616666666668,157.55948082357645L221.61316666666667,157.56446131318808L221.99499999999998,157.61177376657724L222.6281666666667,157.55994898080826L222.7635,157.56854724884033L222.90366666666665,157.57294309139252L222.92783333333335,157.5769169330597L223.27583333333334,157.58774828910828L223.648,157.55822141468525L224.14583333333334,157.5735431239009L224.3295,157.58886263519526L224.33433333333332,157.58987148106098L224.49866666666668,157.6252360343933L224.60016666666667,157.6371883302927L224.64366666666666,157.64639322459698L225.00133333333335,157.6366828083992L225.18983333333333,157.62568880617619L225.91483333333335,157.70935267955065L226.05499999999998,157.71052856743336L226.17100000000002,157.71241438388824L226.287,157.7129506766796L226.5335,157.74814159423113L226.61083333333332,157.7583948969841L226.68816666666666,157.72672504931688L226.78483333333335,157.72564147412777L227.27783333333332,157.75340121984482L227.32616666666667,157.75933560729027L227.86749999999998,157.79893995076418L228.06083333333333,157.81485509872437L228.24450000000002,157.8157716318965L228.636,157.84403030574322L228.8535,157.85446383804083L228.88733333333334,157.86044877767563L229.15800000000002,157.8807861432433L229.24983333333333,157.89521769434214L229.74283333333335,157.91958824545145L229.77666666666667,157.92644575983286L229.90716666666665,157.94960525631905L230.5596666666667,157.99813755601645L230.95116666666667,157.98988436162472L231.09616666666668,157.99722981452942L231.25083333333333,157.99954422563314L231.28466666666665,158.00161906331778L231.4006666666667,158.02434996515512L231.49733333333333,158.0152132064104L231.96133333333333,158.045102737844L232.03383333333335,158.05407904833555L232.0435,158.05532087385654L232.12083333333334,158.06372132897377L232.5606666666667,158.10666651278734L233.015,158.13362181931734L233.06333333333333,158.14045076072216L233.30016666666666,158.17218434810638L233.59016666666668,158.1886951327324L234.1895,158.2539206445217L234.64383333333333,158.27930223941803L234.73083333333332,158.29540860652924L235.23350000000002,158.32042534649372L235.30116666666666,158.32217269390821L235.44616666666664,158.30833018571138L235.57183333333333,158.31975937634706L235.65883333333332,158.2777790799737L235.7313333333333,158.27030614763498L235.9585,158.27125784754753L236.37900000000002,158.30397610366344L236.54333333333332,158.32745869457722L236.54816666666667,158.32837302982807L236.76566666666668,158.32226940244436L237.02183333333335,158.3436222076416L237.05083333333334,158.34676963090897L237.10883333333334,158.3460025563836L237.23450000000003,158.3652739301324L237.24416666666667,158.36654652655125L237.4085,158.3898005336523L237.61633333333333,158.42203524708748L237.76616666666666,158.44884329289198L237.9885,157.95528908073902L238.34133333333332,157.9963484480977L238.4186666666667,157.99729355424643L238.99866666666668,158.06853038072586L239.1195,158.08989857137203L239.28866666666667,158.1005013436079L239.61733333333333,158.12472243607044L243.50333333333333,158.12566094845533L243.6,158.13519553095102L243.90449999999998,158.13362181931734L244.26216666666667,158.1403562501073L244.28633333333335,158.14335861057043L244.33950000000002,158.14996995776892L244.9195,158.13151621073484L245.12249999999997,158.1358966678381L245.34483333333333,158.16241678595543L246.24383333333333,158.13462187349796L247.022,158.11335918307304L247.07999999999998,158.12173326313496L247.36033333333333,158.09472300857306L247.43283333333332,158.10105521976948L247.5391666666667,158.07861004769802L247.85333333333335,158.09987273812294L247.88233333333335,158.10479827970266L248.14816666666667,158.10438287258148L248.21583333333334,158.10906444489956L248.2545,158.11552853137255L248.27866666666665,158.11836165189743L248.61216666666667,158.14573016762733L249.09066666666666,158.18718296289444L249.54983333333334,158.16267833858728L249.5885,158.16677086800337L249.7625,158.18649061769247L249.85433333333336,158.19725603610277L249.90266666666668,158.19686480611563L250.42466666666667,158.17896273732185L250.45850000000002,158.17743078619242L250.62766666666667,158.19247116148472L251.00466666666668,158.18839621543884L251.70066666666668,158.17969244718552L251.78283333333331,158.18769947439432L251.83599999999998,158.19343165308237L252.039,158.20847642421722L252.14049999999997,158.21574494987726L252.44016666666667,158.19791321456432L252.48850000000002,158.20088919997215L252.55133333333333,158.2104655429721L252.59,158.20439488440752L253.1265,158.22915666550398L253.31983333333335,158.22260246425867L253.38266666666667,158.22379813343287L253.52283333333332,158.22764449566603L253.56633333333332,158.22334536165L253.90466666666669,158.23338107019663L254.70216666666667,158.20318602770567L254.72633333333332,158.2064829096198L254.8375,158.2194000929594L255.28699999999998,158.2432035803795L255.39333333333335,158.257377974689L256.03616666666665,158.30617402493954L256.3165,158.28881484270096L256.3938333333333,158.29063691943884L256.83366666666666,158.2835244461894L256.94966666666664,158.27668011933565L257.14300000000003,158.27175018191338L257.21066666666667,158.2748184800148L257.2735,158.27611964941025L257.375,158.25967919826508L257.38466666666665,158.25934731215239L257.839,158.27152599394321L258.1483333333333,158.23180955648422L258.26916666666665,158.23956602066755L258.2885,158.24228924512863L258.73316666666665,158.2195473536849L258.83466666666664,158.2264708057046L258.9796666666667,158.21768351644278L259.2165,158.22276730835438L259.64666666666665,158.24877750873566L259.69016666666664,158.25081937760115L260.50216666666665,158.21864400804043L260.5215,158.21746812015772L260.5505,158.21616695076227L260.83566666666667,158.24307170510292L261.09183333333334,158.25774063169956L261.10633333333334,158.25978250056505L261.28516666666667,158.25973634421825L261.5606666666667,158.28513772040606L261.6525,158.295008584857L261.986,158.28478605300188L262.6288333333333,158.27929124981165L262.7545,158.28960389643908L262.86083333333335,158.28171555697918L263.0493333333333,158.25774502754211L263.1895,158.26890167593956L263.2378333333333,158.26572348177433L263.24266666666665,158.2662971392274L263.5423333333333,158.2937381863594L263.552,158.29519540816545L263.88550000000004,158.29550091922283L263.90000000000003,158.28999292850494L263.90483333333333,158.28914672881365L264.1223333333333,158.2968724220991L264.2335,158.29279747605324L264.3301666666667,158.30392335355282L264.886,158.29557564854622L265.08416666666665,158.3210517540574L265.3403333333333,158.32875327020884L265.408,158.33672073483467L265.64483333333334,158.30263097584248L265.80916666666667,158.30215402692556L265.8333333333333,158.29630535840988" style="fill: none;" fill="none"></path></g></g></g></g></g></g><g transform="translate(40, 177)" clip-path="url(#clip_1)"><clipPath id="clip_1"><rect width="290" height="23"></rect></clipPath><g><g><line x1="0" y1="0" x2="0" y2="5" style="visibility: inherit;" fill="rgb(0, 0, 0)" stroke="rgb(204, 204, 204)" stroke-width="1px"></line><line x1="24.166666666666664" y1="0" x2="24.166666666666664" y2="5" style="visibility: inherit;" fill="rgb(0, 0, 0)" stroke="rgb(204, 204, 204)" stroke-width="1px"></line><line x1="48.33333333333333" y1="0" x2="48.33333333333333" y2="5" style="visibility: inherit;" fill="rgb(0, 0, 0)" stroke="rgb(204, 204, 204)" stroke-width="1px"></line><line x1="72.5" y1="0" x2="72.5" y2="5" style="visibility: inherit;" fill="rgb(0, 0, 0)" stroke="rgb(204, 204, 204)" stroke-width="1px"></line><line x1="96.66666666666666" y1="0" x2="96.66666666666666" y2="5" style="visibility: inherit;" fill="rgb(0, 0, 0)" stroke="rgb(204, 204, 204)" stroke-width="1px"></line><line x1="120.83333333333334" y1="0" x2="120.83333333333334" y2="5" style="visibility: inherit;" fill="rgb(0, 0, 0)" stroke="rgb(204, 204, 204)" stroke-width="1px"></line><line x1="145" y1="0" x2="145" y2="5" style="visibility: inherit;" fill="rgb(0, 0, 0)" stroke="rgb(204, 204, 204)" stroke-width="1px"></line><line x1="169.16666666666669" y1="0" x2="169.16666666666669" y2="5" style="visibility: inherit;" fill="rgb(0, 0, 0)" stroke="rgb(204, 204, 204)" stroke-width="1px"></line><line x1="193.33333333333331" y1="0" x2="193.33333333333331" y2="5" style="visibility: inherit;" fill="rgb(0, 0, 0)" stroke="rgb(204, 204, 204)" stroke-width="1px"></line><line x1="217.5" y1="0" x2="217.5" y2="5" style="visibility: inherit;" fill="rgb(0, 0, 0)" stroke="rgb(204, 204, 204)" stroke-width="1px"></line><line x1="241.66666666666669" y1="0" x2="241.66666666666669" y2="5" style="visibility: inherit;" fill="rgb(0, 0, 0)" stroke="rgb(204, 204, 204)" stroke-width="1px"></line><line x1="265.8333333333333" y1="0" x2="265.8333333333333" y2="5" style="visibility: inherit;" fill="rgb(0, 0, 0)" stroke="rgb(204, 204, 204)" stroke-width="1px"></line><line x1="290" y1="0" x2="290" y2="5" style="visibility: inherit;" fill="rgb(0, 0, 0)" stroke="rgb(204, 204, 204)" stroke-width="1px"></line></g><g transform="translate(0, 8)"><text x="0" y="0" dx="0em" dy="0.95em" style="text-anchor: middle; visibility: hidden; font-family: &quot;Helvetica Neue&quot;, sans-serif; font-size: 12px; font-weight: 200;" fill="rgb(33, 33, 33)" stroke="none" stroke-width="1px">-5k</text><text x="24.166666666666664" y="0" dx="0em" dy="0.95em" style="text-anchor: middle; visibility: inherit; font-family: &quot;Helvetica Neue&quot;, sans-serif; font-size: 12px; font-weight: 200;" fill="rgb(33, 33, 33)" stroke="none" stroke-width="1px">0</text><text x="48.33333333333333" y="0" dx="0em" dy="0.95em" style="text-anchor: middle; visibility: hidden; font-family: &quot;Helvetica Neue&quot;, sans-serif; font-size: 12px; font-weight: 200;" fill="rgb(33, 33, 33)" stroke="none" stroke-width="1px">5k</text><text x="72.5" y="0" dx="0em" dy="0.95em" style="text-anchor: middle; visibility: inherit; font-family: &quot;Helvetica Neue&quot;, sans-serif; font-size: 12px; font-weight: 200;" fill="rgb(33, 33, 33)" stroke="none" stroke-width="1px">10k</text><text x="96.66666666666666" y="0" dx="0em" dy="0.95em" style="text-anchor: middle; visibility: hidden; font-family: &quot;Helvetica Neue&quot;, sans-serif; font-size: 12px; font-weight: 200;" fill="rgb(33, 33, 33)" stroke="none" stroke-width="1px">15k</text><text x="120.83333333333334" y="0" dx="0em" dy="0.95em" style="text-anchor: middle; visibility: inherit; font-family: &quot;Helvetica Neue&quot;, sans-serif; font-size: 12px; font-weight: 200;" fill="rgb(33, 33, 33)" stroke="none" stroke-width="1px">20k</text><text x="145" y="0" dx="0em" dy="0.95em" style="text-anchor: middle; visibility: hidden; font-family: &quot;Helvetica Neue&quot;, sans-serif; font-size: 12px; font-weight: 200;" fill="rgb(33, 33, 33)" stroke="none" stroke-width="1px">25k</text><text x="169.16666666666669" y="0" dx="0em" dy="0.95em" style="text-anchor: middle; visibility: inherit; font-family: &quot;Helvetica Neue&quot;, sans-serif; font-size: 12px; font-weight: 200;" fill="rgb(33, 33, 33)" stroke="none" stroke-width="1px">30k</text><text x="193.33333333333331" y="0" dx="0em" dy="0.95em" style="text-anchor: middle; visibility: hidden; font-family: &quot;Helvetica Neue&quot;, sans-serif; font-size: 12px; font-weight: 200;" fill="rgb(33, 33, 33)" stroke="none" stroke-width="1px">35k</text><text x="217.5" y="0" dx="0em" dy="0.95em" style="text-anchor: middle; visibility: inherit; font-family: &quot;Helvetica Neue&quot;, sans-serif; font-size: 12px; font-weight: 200;" fill="rgb(33, 33, 33)" stroke="none" stroke-width="1px">40k</text><text x="241.66666666666669" y="0" dx="0em" dy="0.95em" style="text-anchor: middle; visibility: hidden; font-family: &quot;Helvetica Neue&quot;, sans-serif; font-size: 12px; font-weight: 200;" fill="rgb(33, 33, 33)" stroke="none" stroke-width="1px">45k</text><text x="265.8333333333333" y="0" dx="0em" dy="0.95em" style="text-anchor: middle; visibility: inherit; font-family: &quot;Helvetica Neue&quot;, sans-serif; font-size: 12px; font-weight: 200;" fill="rgb(33, 33, 33)" stroke="none" stroke-width="1px">50k</text><text x="290" y="0" dx="0em" dy="0.95em" style="text-anchor: middle; visibility: hidden; font-family: &quot;Helvetica Neue&quot;, sans-serif; font-size: 12px; font-weight: 200;" fill="rgb(33, 33, 33)" stroke="none" stroke-width="1px">55k</text></g><line x1="0" y1="0" x2="290" y2="0" fill="rgb(0, 0, 0)" stroke="rgb(204, 204, 204)" stroke-width="1px"></line></g></g></g></g></svg>