<svg viewBox="0 0 330 200" xmlns="http://www.w3.org/2000/svg"><g><g><g><g><g><line x1="50" y1="163.38461538461544" x2="45" y2="163.38461538461544" style="visibility: inherit;" fill="rgb(0, 0, 0)" stroke="rgb(204, 204, 204)" stroke-width="1px"></line><line x1="50" y1="149.7692307692308" x2="45" y2="149.7692307692308" style="visibility: inherit;" fill="rgb(0, 0, 0)" stroke="rgb(204, 204, 204)" stroke-width="1px"></line><line x1="50" y1="136.1538461538462" x2="45" y2="136.1538461538462" style="visibility: inherit;" fill="rgb(0, 0, 0)" stroke="rgb(204, 204, 204)" stroke-width="1px"></line><line x1="50" y1="122.53846153846155" x2="45" y2="122.53846153846155" style="visibility: inherit;" fill="rgb(0, 0, 0)" stroke="rgb(204, 204, 204)" stroke-width="1px"></line><line x1="50" y1="108.9230769230769" x2="45" y2="108.9230769230769" style="visibility: inherit;" fill="rgb(0, 0, 0)" stroke="rgb(204, 204, 204)" stroke-width="1px"></line><line x1="50" y1="95.30769230769228" x2="45" y2="95.30769230769228" style="visibility: inherit;" fill="rgb(0, 0, 0)" stroke="rgb(204, 204, 204)" stroke-width="1px"></line><line x1="50" y1="81.69230769230772" x2="45" y2="81.69230769230772" style="visibility: inherit;" fill="rgb(0, 0, 0)" stroke="rgb(204, 204, 204)" stroke-width="1px"></line><line x1="50" y1="68.0769230769231" x2="45" y2="68.0769230769231" style="visibility: inherit;" fill="rgb(0, 0, 0)" stroke="rgb(204, 204, 204)" stroke-width="1px"></line><line x1="50" y1="54.46153846153847" x2="45" y2="54.46153846153847" style="visibility: inherit;" fill="rgb(0, 0, 0)" stroke="rgb(204, 204, 204)" stroke-width="1px"></line><line x1="50" y1="40.84615384615381" x2="45" y2="40.84615384615381" style="visibility: inherit;" fill="rgb(0, 0, 0)" stroke="rgb(204, 204, 204)" stroke-width="1px"></line><line x1="50" y1="27.230769230769198" x2="45" y2="27.230769230769198" style="visibility: inherit;" fill="rgb(0, 0, 0)" stroke="rgb(204, 204, 204)" stroke-width="1px"></line><line x1="50" y1="13.615384615384556" x2="45" y2="13.615384615384556" style="visibility: inherit;" fill="rgb(0, 0, 0)" stroke="rgb(204, 204, 204)" stroke-width="1px"></line><line x1="50" y1="0" x2="45" y2="0" style="visibility: inherit;" fill="rgb(0, 0, 0)" stroke="rgb(204, 204, 204)" stroke-width="1px"></line></g><g transform="translate(40, 0)"><text x="0" y="163.38461538461544" dx="0em" dy="0.3em" style="text-anchor: end; visibility: inherit; font-family: &quot;Helvetica Neue&quot;, sans-serif; font-size: 12px; font-weight: 200;" fill="rgb(33, 33, 33)" stroke="none" stroke-width="1px">0.58</text><text x="0" y="149.7692307692308" dx="0em" dy="0.3em" style="text-anchor: end; visibility: hidden; font-family: &quot;Helvetica Neue&quot;, sans-serif; font-size: 12px; font-weight: 200;" fill="rgb(33, 33, 33)" stroke="none" stroke-width="1px">0.6</text><text x="0" y="136.1538461538462" dx="0em" dy="0.3em" style="text-anchor: end; visibility: inherit; font-family: &quot;Helvetica Neue&quot;, sans-serif; font-size: 12px; font-weight: 200;" fill="rgb(33, 33, 33)" stroke="none" stroke-width="1px">0.62</text><text x="0" y="122.53846153846155" dx="0em" dy="0.3em" style="text-anchor: end; visibility: hidden; font-family: &quot;Helvetica Neue&quot;, sans-serif; font-size: 12px; font-weight: 200;" fill="rgb(33, 33, 33)" stroke="none" stroke-width="1px">0.64</text><text x="0" y="108.9230769230769" dx="0em" dy="0.3em" style="text-anchor: end; visibility: inherit; font-family: &quot;Helvetica Neue&quot;, sans-serif; font-size: 12px; font-weight: 200;" fill="rgb(33, 33, 33)" stroke="none" stroke-width="1px">0.66</text><text x="0" y="95.30769230769228" dx="0em" dy="0.3em" style="text-anchor: end; visibility: hidden; font-family: &quot;Helvetica Neue&quot;, sans-serif; font-size: 12px; font-weight: 200;" fill="rgb(33, 33, 33)" stroke="none" stroke-width="1px">0.68</text><text x="0" y="81.69230769230772" dx="0em" dy="0.3em" style="text-anchor: end; visibility: inherit; font-family: &quot;Helvetica Neue&quot;, sans-serif; font-size: 12px; font-weight: 200;" fill="rgb(33, 33, 33)" stroke="none" stroke-width="1px">0.7</text><text x="0" y="68.0769230769231" dx="0em" dy="0.3em" style="text-anchor: end; visibility: hidden; font-family: &quot;Helvetica Neue&quot;, sans-serif; font-size: 12px; font-weight: 200;" fill="rgb(33, 33, 33)" stroke="none" stroke-width="1px">0.72</text><text x="0" y="54.46153846153847" dx="0em" dy="0.3em" style="text-anchor: end; visibility: inherit; font-family: &quot;Helvetica Neue&quot;, sans-serif; font-size: 12px; font-weight: 200;" fill="rgb(33, 33, 33)" stroke="none" stroke-width="1px">0.74</text><text x="0" y="40.84615384615381" dx="0em" dy="0.3em" style="text-anchor: end; visibility: hidden; font-family: &quot;Helvetica Neue&quot;, sans-serif; font-size: 12px; font-weight: 200;" fill="rgb(33, 33, 33)" stroke="none" stroke-width="1px">0.76</text><text x="0" y="27.230769230769198" dx="0em" dy="0.3em" style="text-anchor: end; visibility: inherit; font-family: &quot;Helvetica Neue&quot;, sans-serif; font-size: 12px; font-weight: 200;" fill="rgb(33, 33, 33)" stroke="none" stroke-width="1px">0.78</text><text x="0" y="13.615384615384556" dx="0em" dy="0.3em" style="text-anchor: end; visibility: hidden; font-family: &quot;Helvetica Neue&quot;, sans-serif; font-size: 12px; font-weight: 200;" fill="rgb(33, 33, 33)" stroke="none" stroke-width="1px">0.8</text><text x="0" y="0" dx="0em" dy="0.3em" style="text-anchor: end; visibility: hidden; font-family: &quot;Helvetica Neue&quot;, sans-serif; font-size: 12px; font-weight: 200;" fill="rgb(33, 33, 33)" stroke="none" stroke-width="1px">0.82</text></g><line x1="50" y1="0" x2="50" y2="177" fill="rgb(0, 0, 0)" stroke="rgb(204, 204, 204)" stroke-width="1px"></line></g></g><g transform="translate(50, 0)" clip-path="url(#clip_0)"><clipPath id="clip_0"><rect width="280" height="177"></rect></clipPath><g><g><g><line x1="0" y1="0" x2="0" y2="177" fill="rgb(0, 0, 0)" stroke="rgb(66, 66, 66)" stroke-width="1px" opacity="0.25"></line><line x1="35" y1="0" x2="35" y2="177" fill="rgb(0, 0, 0)" stroke="rgb(66, 66, 66)" stroke-width="1px" opacity="0.25"></line><line x1="70" y1="0" x2="70" y2="177" fill="rgb(0, 0, 0)" stroke="rgb(66, 66, 66)" stroke-width="1px" opacity="0.25"></line><line x1="105" y1="0" x2="105" y2="177" fill="rgb(0, 0, 0)" stroke="rgb(66, 66, 66)" stroke-width="1px" opacity="0.25"></line><line x1="140" y1="0" x2="140" y2="177" fill="rgb(0, 0, 0)" stroke="rgb(66, 66, 66)" stroke-width="1px" opacity="0.25"></line><line x1="175" y1="0" x2="175" y2="177" fill="rgb(0, 0, 0)" stroke="rgb(66, 66, 66)" stroke-width="1px" opacity="0.25"></line><line x1="210" y1="0" x2="210" y2="177" fill="rgb(0, 0, 0)" stroke="rgb(66, 66, 66)" stroke-width="1px" opacity="0.25"></line><line x1="245" y1="0" x2="245" y2="177" fill="rgb(0, 0, 0)" stroke="rgb(66, 66, 66)" stroke-width="1px" opacity="0.25"></line><line x1="280" y1="0" x2="280" y2="177" fill="rgb(0, 0, 0)" stroke="rgb(66, 66, 66)" stroke-width="1px" opacity="0.25"></line></g><g><line x1="0" y1="163.38461538461544" x2="280" y2="163.38461538461544" fill="rgb(0, 0, 0)" stroke="rgb(66, 66, 66)" stroke-width="1px" opacity="0.25"></line><line x1="0" y1="149.7692307692308" x2="280" y2="149.7692307692308" fill="rgb(0, 0, 0)" stroke="rgb(66, 66, 66)" stroke-width="1px" opacity="0.25"></line><line x1="0" y1="136.1538461538462" x2="280" y2="136.1538461538462" fill="rgb(0, 0, 0)" stroke="rgb(66, 66, 66)" stroke-width="1px" opacity="0.25"></line><line x1="0" y1="122.53846153846155" x2="280" y2="122.53846153846155" fill="rgb(0, 0, 0)" stroke="rgb(66, 66, 66)" stroke-width="1px" opacity="0.25"></line><line x1="0" y1="108.9230769230769" x2="280" y2="108.9230769230769" fill="rgb(0, 0, 0)" stroke="rgb(66, 66, 66)" stroke-width="1px" opacity="0.25"></line><line x1="0" y1="95.30769230769228" x2="280" y2="95.30769230769228" fill="rgb(0, 0, 0)" stroke="rgb(66, 66, 66)" stroke-width="1px" opacity="0.25"></line><line x1="0" y1="81.69230769230772" x2="280" y2="81.69230769230772" fill="rgb(0, 0, 0)" stroke="rgb(66, 66, 66)" stroke-width="1px" opacity="0.25"></line><line x1="0" y1="68.0769230769231" x2="280" y2="68.0769230769231" fill="rgb(0, 0, 0)" stroke="rgb(66, 66, 66)" stroke-width="1px" opacity="0.25"></line><line x1="0" y1="54.46153846153847" x2="280" y2="54.46153846153847" fill="rgb(0, 0, 0)" stroke="rgb(66, 66, 66)" stroke-width="1px" opacity="0.25"></line><line x1="0" y1="40.84615384615381" x2="280" y2="40.84615384615381" fill="rgb(0, 0, 0)" stroke="rgb(66, 66, 66)" stroke-width="1px" opacity="0.25"></line><line x1="0" y1="27.230769230769198" x2="280" y2="27.230769230769198" fill="rgb(0, 0, 0)" stroke="rgb(66, 66, 66)" stroke-width="1px" opacity="0.25"></line><line x1="0" y1="13.615384615384556" x2="280" y2="13.615384615384556" fill="rgb(0, 0, 0)" stroke="rgb(66, 66, 66)" stroke-width="1px" opacity="0.25"></line><line x1="0" y1="0" x2="280" y2="0" fill="rgb(0, 0, 0)" stroke="rgb(66, 66, 66)" stroke-width="1px" opacity="0.25"></line></g></g></g><g><g><line x1="0" y1="558.2307692307695" x2="280" y2="558.2307692307695" fill="rgb(0, 0, 0)" stroke="rgb(153, 153, 153)" stroke-width="1.5px"></line></g></g><g><g><line x1="-105" y1="0" x2="-105" y2="177" fill="rgb(0, 0, 0)" stroke="rgb(153, 153, 153)" stroke-width="1.5px"></line></g></g><g><g><g><g><g><path stroke="rgb(255, 112, 67)" stroke-width="2px" d="M21.21,19.66066090877237L21.49,68.50021309348253L21.776999999999997,63.87569184187258L22.029,55.87565785980199L22.308999999999997,55.14350081921921L22.372,54.24655274076646L23.855999999999998,51.65091130488423L24.122,49.22772945087681L24.339000000000002,46.76180534565219L24.514,44.79291817018006L24.709999999999997,42.8037114853679L24.794,41.63882521955L24.969,40.584883896444694L25.557,38.46786475652334L26.089,33.906599486815935L26.215,31.302849769929566L26.740000000000002,28.80192673273126L26.922,26.01656934991786L27.195,25.06723392729944L27.237000000000002,24.819976542809854L27.377,25.195456103034445L27.671,24.986347862069778L27.825000000000003,25.560681288463087L28,25.508709346065217L28.21,25.062876828245976L28.42,24.275618229047296L28.448,23.861354033353877L28.581,23.53586173255235L28.692999999999998,23.448955824167797L28.756,23.32815598662191L28.91,23.219676174758973L28.938,23.211282497183106L29.119999999999997,23.562155362156318L29.232000000000003,23.91320536915177L29.637999999999998,22.686289327413704L29.645,21.98706479368866L29.855,19.697335759754935L29.89,18.385711017627187L29.946,17.663529542264172L30.03,17.48553119384823L30.226000000000003,17.250849685887147L30.429,17.27916575138167L30.695,16.910024580774206L30.793,16.735381976722266L30.982,17.023203314639687L31.101,17.72180660494567L31.520999999999997,19.075635616219813L31.801,19.768312002852184L31.878,20.130632107686864L31.927,20.715879095889818L32.437999999999995,21.316592119883353L32.577999999999996,21.751973783776776L32.872,20.922768726048133L33.222,20.061123850861236L33.243,19.50557253718094L33.362,19.40340084913882L33.558,19.463390629147455L33.782,19.48282907781754L33.838,19.448072049668554L33.978,19.870205146416595L34.321,20.11478529391283L34.349000000000004,20.12365270863532L34.475,20.14351595719839L34.916000000000004,20.33556336102228L35.147,20.955261399739186L35.217,21.33952924907709L35.336,21.37618055201807L36.211,21.70928337085425L36.267,21.99425939450191L37.001999999999995,22.407733209538378L37.288999999999994,22.550495816143723L37.485,22.490400766745978L37.905,22.7475369673694L38.262,23.350340705295878L38.444,23.47279713866098L39.669,24.312543451841464L39.879,24.40102875327716L39.998000000000005,24.454217318958285L40.312999999999995,25.046628787676212L40.439,25.428450724220113L40.522999999999996,25.81652460417223L40.607,26.279213337244386L40.768,26.498135992464853L40.809999999999995,26.666365970625577L41.244,27.15892077881108L41.433,27.302760576364676L41.636,27.303625506485645L41.699,27.290315820172538L42.007,27.133672081238302L42.153999999999996,27.12975056522086L42.679,27.01821304201573L43.344,27.027510380246696L43.54,26.865505739426567L43.561,26.750270532501986L43.582,26.751765864176548L43.693999999999996,26.41059888427435L43.729,26.168129617124663L44.058,25.835166048267666L44.177,25.533474693223525L44.632,25.773843994682636L44.884,25.72746725276309L45.948,24.422861299211064L46.025,23.532893271484085L46.053000000000004,22.993945829047362L46.172,22.695426723391165L46.368,22.639523287616953L47.166,22.863888690106478L47.39,22.991122916112573L47.411,23.1121955455273L47.649,23.175214256837194L48.034,22.407312178516634L48.055,21.84146024955035L48.104,21.38161391672969L48.23,20.81790151346064L48.538000000000004,20.38516210406027L48.601,20.01367199308919L48.769,19.85936930112385L48.902,19.76337921725809L49.112,19.573682659127314L49.489999999999995,18.933873082690695L49.994,18.269064593838323L50.113,18.058505510864194L50.386,17.951663255806466L50.483999999999995,17.753670006600885L50.631,17.546091563192732L51.345000000000006,16.967974699778722L51.352000000000004,16.634559917640843L51.716,16.693132667656016L52.073,17.064546099804858L52.346000000000004,17.334284949740066L52.367,17.439336679060773L53.417,18.371316231298152L53.676,19.16797684527822L53.732,19.564981505350914L54.361999999999995,19.72685083361756L54.453,19.98506315302842L54.641999999999996,20.163817363874642L54.705,20.14518378022339L54.747,20.144764652600372L54.81,20.136462697604827L55.174,20.117101032910654L55.258,20.13179416619414L55.272,20.16010324089106L55.285999999999994,20.17877668924922L55.377,20.191214299312605L55.397999999999996,20.184702143735507L55.916,20.539479371844294L55.986,20.69670651510131L56.154,20.78394994002676L56.251999999999995,20.897340046078966L56.469,20.850070483283048L56.497,20.848375955377435L56.546,20.889932635610222L56.651,21.11551183376875L56.735,21.320603114313457L56.896,21.58110032472726L57.001000000000005,21.82011082443742L57.175999999999995,22.08232660419708L57.19,22.231913978893346L57.351,22.37660767277859L57.61,22.38525634056336L57.841,22.3694104201968L57.897,22.405251732312138L58.31699999999999,22.499113440557267L58.569,22.652896439138374L58.653,22.80416520817198L58.8,22.847013138340344L58.919,22.940193345633134L59.206,22.8721792870453L59.829,22.646599387471383L59.857,22.48950217134569L60.647999999999996,22.18234439518298L60.788,22.087903456385874L61.376000000000005,22.21076780807269L61.775,22.52082314549355L61.837999999999994,22.772802101630504L62.517,23.132360527687837L62.671,23.236443887630628L62.713,23.30868107796786L62.754999999999995,23.314627621437012L63.014,23.327154950923386L63.119,23.476999262486345L63.14,23.59761452921026L63.25899999999999,23.797817495795954L63.343,23.976256551895148L63.608999999999995,24.214383721956665L63.910000000000004,24.1838501218611L64.645,24.355170667205897L64.87599999999999,24.728254561261508L65.023,24.957071523495358L65.583,25.164933233451876L66.09400000000001,25.443680582454363L66.115,25.62479009784809L66.129,25.69815380997295L66.248,25.884418797102683L66.59100000000001,26.028736780739365L66.843,26.0946495275559L66.885,26.154550602945903L67.053,26.071000074509072L67.172,26.034373785767286L67.263,26.1031931260124L67.319,26.220623428297188L67.326,26.288468450341696L67.459,26.28609891169077L67.592,26.391784259276506L67.606,26.44889791615924L67.732,26.508810779454876L67.998,26.745647149500144L68.08200000000001,26.87017101158628L68.432,26.918916043606657L68.46,26.929254177009767L68.614,26.869689842203172L68.796,26.86909093039796L68.817,26.8201365583256L68.908,26.759828024050307L69.139,26.86029003621195L69.244,27.07876888297787L69.601,27.313132792241845L70.301,31.548928879951347L70.399,42.470224183445424L70.7,46.28369623612389L70.74199999999999,47.54266538642162L71.33699999999999,50.85219100231852L71.848,54.42360715888742L71.932,54.17827269054219L72.06500000000001,55.31479870173466L72.142,56.79066028118628L72.21900000000001,56.205698914237416L72.667,57.26704544057296L72.912,55.73613219489869L73.03099999999999,54.7224555095309L73.63300000000001,56.91287821367874L74.20700000000001,59.09281795935506L74.40299999999999,59.58888456560865L74.59200000000001,59.91479858865645L74.669,60.487924178946045L75.355,59.215601066745464L75.41799999999999,58.23002373346743L75.845,59.64443130914873L75.922,60.705764300602496L76.839,65.3234607518046L76.895,68.31311331264921L77.26599999999999,70.94355406529439L77.672,72.34748345896259L77.882,74.03444340490395L77.994,74.77871373370073L78.064,75.38857404267426L78.12700000000001,75.72152546661785L78.32300000000001,76.30840097896413L78.477,76.07592521420717L78.743,75.60479575214515L78.925,75.5848947798429L79.135,75.41046762492951L79.254,75.0931715783463L79.40100000000001,74.35503680165374L79.583,73.55848673239352L79.618,73.03699321486172L79.723,72.12706323687343L79.80699999999999,71.4773092631713L79.982,70.87976752031219L80.06599999999999,69.94821396516322L80.339,69.00629979812423L80.633,67.54175379632215L80.90599999999999,65.96657865774537L80.913,65.00951147258965L81.095,64.00776803417796L81.333,63.68236970305867L81.361,63.45840218259987L81.403,63.24945736010409L81.473,63.31595479205656L81.61999999999999,63.71127538122599L81.732,63.32819135697629L81.858,62.76074023441869L81.89999999999999,62.255429522878L82.075,61.69446547842571L82.215,60.92377798750549L82.404,59.87204125703721L82.558,59.33494310808064L82.81700000000001,58.36819148247724L82.999,57.57991553196938L83.573,57.36015049267051L83.95100000000001,57.09529626710008L83.965,56.997135628395995L84.14,56.88781013941481L84.16799999999999,56.80061164687429L84.21000000000001,56.67306277819529L84.217,56.62349282121876L84.511,56.39234280926033L85.43499999999999,55.590316103259696L85.533,55.432190449544024L85.61,55.300990519597335L85.74300000000001,55.43297884967528L85.90400000000001,55.317986517404506L85.946,55.304224541568445L86.751,55.38333777006717L86.94,55.72982579580243L87.15,55.469784552980826L87.465,55.287027674302834L87.57,55.521239345165824L87.87100000000001,55.20644362356133L88.10199999999999,54.94738419726089L88.361,54.34079713379866L88.508,53.93399557508954L88.774,53.667873209023995L88.893,53.42107283743336L88.949,53.21800265300158L89.11,53.34269021320456L89.558,53.56121028147548L89.831,53.918320027164L91,53.255749189543124L91.434,52.832740556640644L91.945,52.680166896891635L91.95200000000001,52.58341261319278L93.247,53.274379152259186L93.723,54.133472084843746L94.09400000000001,55.03815873760293L94.32499999999999,55.974924786218295L94.35300000000001,56.621352130782896L94.675,57.0608874151322L94.717,57.292163210005796L94.89899999999999,57.53276074664346L95.04599999999999,57.51197084535784L95.41,58.052821218850525L95.494,58.37338735775171L96.061,58.75872752277128L96.306,59.16929822871552L96.34100000000001,59.42901483417613L96.45299999999999,59.66564173612868L97.02,60.484409912036185L97.111,61.04719996758982L97.15299999999999,61.42754478271782L97.19500000000001,61.78277393818256L97.377,62.10379758079445L97.608,61.96195983418812L97.70599999999999,61.78880507848669L97.762,61.66600333925672L98.028,61.28083695017176L98.056,61.04395895075672L98.196,61.12836547234161L98.203,61.19066310204012L98.217,61.272611465637596L98.308,61.35716363492381L98.49000000000001,61.57648429005701L98.553,61.92626737149017L98.672,62.29419278258955L98.777,62.58905787697819L99.162,62.902981144010184L99.176,63.06275265967156L99.211,63.073760929574846L99.295,63.081940279433994L99.61,63.29151831857921L99.806,63.5179123531412L100.037,63.72644654172299L100.1,63.80133271875256L100.401,63.99995390113018L100.59,64.15403906838971L100.695,64.14663826703075L100.814,63.98561922707353L101.318,63.817478653090035L101.472,63.3423931393192L102.396,63.03786486713311L102.41000000000001,62.842861185746415L102.55000000000001,62.69195282888414L102.557,62.57654222415772L102.893,62.31741169387078L102.928,62.08108774461272L103.21499999999999,61.786058361389536L103.586,61.383448796811365L103.593,61.16222025456132L103.6,61.04938209401976L103.63499999999999,61.0176466577403L103.65599999999999,60.93580841812252L103.75399999999999,60.950151684332724L103.88,60.88716357083665L103.92899999999999,60.88097207670491L104.195,60.82220229553538L104.713,60.75639405508025L104.93,60.7758593882824L105.301,54.34468876872687L105.693,57.0624481889857L105.896,35.22436862309294L106.232,24.07661852220096L106.54,19.243798507512594L106.638,18.885428289834977L106.729,18.17228280688417L106.75,18.38870971450723L106.75699999999999,18.702233628879952L106.813,18.354325699524765L107.051,22.002328184032308L107.17699999999999,20.892884373123366L107.191,20.83527266946726L107.583,21.91559952386288L108.17099999999999,23.572069366411426L108.255,25.739422117529813L108.28999999999999,27.025664276946543L109.046,34.71514023413556L109.704,42.82563875726271L109.739,47.559153669590415L110.124,52.455397005984025L110.404,57.271826024670574L110.607,60.88119494482412L110.69099999999999,63.849835288680055L110.71900000000001,65.6386479725303L110.79599999999999,67.17798686792393L110.929,69.03473154673631L110.95,70.26805852725204L111.006,71.20319766327198L111.02000000000001,71.88862532873242L111.244,73.1214527279096L111.54499999999999,73.17034994945821L111.846,74.57458339655246L112.931,74.33965782055947L113.057,74.42117809538016L113.274,74.55695751937144L113.764,74.59249200051327L113.869,75.0478405994309L114.387,74.48889647514882L114.471,74.64706003559844L114.982,73.0361656714457L114.989,72.02731534883013L115.129,71.01540730255395L115.185,70.24592198048563L115.549,68.7063106805035L115.556,67.829726845619L115.696,67.15403115372287L115.899,66.74213764808069L116.515,68.70787680086693L116.55,69.74142160194816L116.56400000000001,70.42238153325142L116.683,70.84874645241688L117.551,73.8353169000111L117.691,76.04250803941723L117.852,77.76642509955865L118.251,79.4048046793219L118.874,83.29147443970253L119.44099999999999,85.3849321802775L119.98,85.88202200212918L120.078,86.5157990604295L120.407,87.72948458169745L120.82,88.02517744892975L120.96,88.31495902030463L120.974,88.44474510144924L121.32400000000001,88.48739590704095L121.331,88.30247287198922L121.765,87.99262678769243L121.996,87.70884739339863L122.15,87.38316981551587L123.046,85.76665905771257L123.424,84.75025135166315L123.452,84.12695139212305L123.66199999999999,83.16591949294047L123.718,82.58981973913562L123.72500000000001,82.21661621370414L124.089,81.30228441976611L124.152,80.72838152110597L124.327,80.03728490085803L124.369,79.70337517497549L125.006,79.36428843309739L125.328,79.48843892116429L125.335,79.59422220270817L126.21,80.3671081209425L126.315,80.95383669906018L126.36399999999999,81.26104436730013L126.399,81.42835908641757L126.406,81.54439441223994L126.49,81.77963472429634L126.525,81.97781395421963L126.805,82.3886974121905L126.81200000000001,82.6378568771027L126.861,82.68261518255129L126.896,82.66236837473201L127.10600000000001,82.41336417792715L127.134,82.30033488997144L127.61,81.64191084782357L127.694,81.15846346792848L127.869,80.8345700459776L128.023,80.64773262391762L128.20499999999998,80.01975031956052L128.415,79.42519224947799L129.017,79.05147998720838L129.493,78.86623901930021L129.808,78.76934508382608L129.906,78.59530455639332L129.962,78.52817862584718L130.06,78.47720696816482L130.36100000000002,78.66452250744986L130.438,78.94715672651576L130.459,79.18670825085064L130.613,79.60211035057822L130.641,79.81926331235074L130.858,80.16970970496325L131.173,80.69167388652028L131.495,81.30254155822237L132.181,82.61283467896139L132.594,84.51155096151999L132.629,85.67493216632027L132.853,87.12827755015483L132.958,88.20308866730929L133.336,89.4985708558609L133.532,90.43018264647928L133.868,91.28029786990051L134.078,92.0826350784291L134.393,93.5645365786913L134.85500000000002,93.46322517092739L134.96699999999998,93.34959083082326L135.1,93.01727013435114L135.275,92.58072944989571L135.84900000000002,91.96403214135536L135.968,91.80652366344006L136.101,91.68410159506725L136.353,91.97709119946148L136.654,92.58668564108477L136.983,93.64700707037498L137.179,94.55399464969923L137.305,95.09292841703447L137.38899999999998,95.54540471744525L138.012,97.00233967609401L138.15200000000002,98.19928263590592L138.264,99.06599272331644L138.46,99.73298869936902L138.495,100.08345510378253L138.789,100.418614746787L138.95000000000002,100.68800975274824L139.097,101.20367303724154L139.139,101.5001188269284L139.237,101.87733302649782L139.391,102.34266012438442L139.636,102.87220029274687L139.82500000000002,102.8927546167011L140.091,102.60689489340439L140.21699999999998,102.32401951819361L140.56,102.07555866640628L140.63,101.98411773774431L140.707,101.97512143058692L140.777,101.91270483440648L140.882,101.8300520895923L141.099,101.98029409255925L141.659,102.4072284621837L142.156,102.60602942520356L142.26100000000002,102.83316369074203L142.28900000000002,102.94571481568488L142.36599999999999,103.07878547425332L142.716,103.10620237483357L142.975,103.28233115774815L143.68900000000002,104.13550184127527L143.906,104.71534639387814L144.19299999999998,105.09409165165206L144.445,105.28931543146551L144.61999999999998,105.38875812378973L144.662,105.39952032893287L144.732,105.37091911695644L144.80900000000003,105.29518142077058L144.977,105.01320730701114L145.08900000000003,104.81969286465431L145.103,104.70238311979826L145.166,104.5932381146768L145.775,104.65753261454775L146.39800000000002,104.46006474252042L146.54500000000002,104.20052210808781L146.594,104.02509233225896L146.734,103.9949993167032L147.16799999999998,104.00193894440497L147.21699999999998,104.11741356984899L147.49,104.08975175718602L147.96599999999998,104.02908803871127L148.274,103.91617780101348L148.365,103.89931522664504L148.81300000000002,104.05622887847146L148.85500000000002,104.11103360244186L149.83499999999998,104.2230253719601L150.059,104.37825631060537L150.192,104.46704501851637L150.409,104.60207279933198L150.51399999999998,104.74723360234279L150.626,104.86328583718219L150.79399999999998,104.78783002765887L151.046,104.46905127604869L151.07399999999998,104.2367200928105L151.19299999999998,104.05296259753176L151.494,104.02233642120524L151.914,103.90824766852845L151.92100000000002,103.82697208233938L151.98399999999998,103.75634383862173L152.10299999999998,103.7878657396777L152.313,103.81468328150365L152.985,104.15944757280867L153.81099999999998,104.80989400095002L153.97899999999998,105.1045948881834L154.161,105.31259479360433L154.26600000000002,105.46714579925006L154.56,105.68707720786148L154.595,105.77909204618179L155.225,105.65219133648898L156.282,106.14724533933729L156.555,106.50076093642446L156.751,106.87767787107639L156.989,107.35237032233496L156.99599999999998,107.62843739012783L157.108,107.96230990669305L157.353,108.28548436657984L157.52100000000002,108.53366484864553L157.60500000000002,108.68559206729306L157.62599999999998,108.72424174990434L157.773,108.82543679998483L158.2,108.81460844922071L158.24200000000002,108.82478047372012L158.27,108.85886559325655L158.382,109.04319908559167L158.781,109.34816305014628L159.11,109.92228755687329L159.131,110.14629723904248L159.20100000000002,110.27502226719962L159.30599999999998,110.43777738652149L160.034,111.1629620049274L160.13199999999998,111.79651057674509L160.265,112.22299489397375L160.524,112.69056762055311L161.224,113.6695389519952L161.29399999999998,114.26469630562659L161.826,114.89112466726121L162.09199999999998,115.29139281235955L162.127,115.52681430486382L162.30900000000003,115.7100238268183L162.54,115.85340122552964L162.624,116.01705959679502L162.757,116.03096805817512L162.883,115.98815364309739L162.953,115.94225764398007L163.198,115.83057956036012L163.52700000000002,115.7174447672959L164.171,116.26375371798255L164.5,116.57185112402851L164.633,116.63217061416842L164.794,116.66019821420764L164.899,116.68287409421154L164.934,116.67924250914163L165.44500000000002,116.9994884650504L165.662,117.18887680203977L166.383,116.86892012568914L166.845,116.41678257427023L167.09,115.96890890384564L167.78300000000002,115.48179924359829L168.29399999999998,115.3483843190495L168.30100000000002,115.26429389430606L168.46200000000002,115.40211695738745L168.847,115.4448018651767L170.28900000000002,115.85206391793179L170.52700000000002,116.24569584725543L170.534,116.489000327485L170.786,116.85215116337005L170.84199999999998,117.10381796650515L170.84900000000002,117.26406960624982L170.863,117.37104653587755L171.045,117.54662469649338L171.24099999999999,117.79248165676793L171.297,118.01863407477393L171.48600000000002,118.34716369922371L171.661,118.54519039887663L171.759,118.69171239984962L172.333,118.78277437626772L172.55700000000002,118.75508892793513L172.774,118.78660199062993L172.844,118.8277460287262L174.601,119.36793899422992L174.629,119.70757142145787L174.75500000000002,119.91954743344581L174.762,120.05032004816115L174.87400000000002,119.98947463252739L175.17499999999998,120.05992837669382L175.33599999999998,120.05709522090746L175.756,119.90233885260324L176.08499999999998,119.70267011530333L176.26,119.60641976846765L176.40699999999998,119.61003822752866L176.95299999999997,119.62217501617275L177.03,119.62040030113477L177.387,119.3874135241926L177.527,119.1616144315016L177.548,119.02787167183683L177.56900000000002,118.96609667015883L178.024,118.81989574796722L178.857,119.14880368377982L178.927,119.28675993610382L178.948,119.38862111214323L178.976,119.47982972702877L179.123,119.64476205016081L179.284,119.82589800099396L179.522,119.9500150654033L180.005,119.91737823327271L180.201,119.8153923457946L180.55800000000002,119.75983290204235L180.73999999999998,119.71735929355015L180.831,119.71743864360444L180.95700000000002,119.7116918568698L181.251,119.74697048143027L181.51,119.96972423277506L181.91600000000003,120.31684400818385L182.091,120.74705587733767L182.26600000000002,121.14327467304774L182.427,121.41298063291492L182.62300000000002,121.6810185854316L182.82600000000002,121.92351475899423L182.861,122.0837824941072L182.952,122.22623338609984L183.365,122.63644983311369L183.4,122.9161450024836L183.90400000000002,123.66033415901255L184.625,124.58964912698757L184.842,125.34301405681066L184.89100000000002,125.72860033692194L184.898,125.971768129769L185.01,126.034096399442L185.136,126.08316330879668L185.28300000000002,126.25947599319619L185.346,126.39209312164058L185.479,126.60165590209341L185.598,126.8252490832776L185.64000000000001,126.98542296962931L185.71699999999998,127.1205461525005L185.86399999999998,127.30822397809789L186.137,127.53283944681988L186.70399999999998,128.05558984940976L187.04000000000002,128.53679067311583L187.15900000000002,128.79442917907815L187.187,128.96201315607456L187.39000000000001,129.17707185933946L187.551,129.43087326603185L187.558,129.58928935368323L187.726,129.75942270219923L188.083,130.13539751648347L188.10399999999998,130.38904546390717L188.195,130.46722176945192L188.258,130.48674618766302L188.30700000000002,130.49250413378968L188.447,130.4677497653831L188.538,130.48720906245111L189.112,130.82471801632929L189.161,131.0732377159255L189.231,131.26818532411664L189.574,131.5501562350701L190.01500000000001,131.8637280075286L190.29500000000002,132.2427940098641L190.561,132.52868073383925L190.56799999999998,132.70177092533828L191.128,132.9100215668677L191.443,133.1471754947882L191.492,133.32488346427476L191.562,133.51790481177085L191.88400000000001,133.77572091807423L191.912,133.96102187682274L191.954,134.08099954744398L192.017,134.19538100795694L192.731,134.72061484184525L192.78,135.01613210102533L192.969,135.09513248112938L193.35399999999998,135.2765017593791L193.368,135.38399240046087L193.809,135.3825410314255L193.914,135.30024027000064L194.48100000000002,135.0059856842172L194.593,134.82342753553738L194.691,134.69363660384903L194.754,134.62335806076612L194.915,134.56577167181035L194.964,134.51237587584075L195.13199999999998,134.5318711986401L195.272,134.53701114779872L195.65,134.4382630575804L195.944,134.3707851861917L196.049,134.3340315481105L196.063,134.3224482333707L196.175,134.32567495817688L196.81199999999998,134.42012657169732L197.32999999999998,134.49521950152064L197.47,134.5723797882818L197.477,134.62899875121806L197.54,134.71722970431009L197.687,134.78081568311018L197.883,134.8039213157593L198.303,134.94428757603208L198.345,135.06067678427615L198.471,135.2179131848294L198.94,135.2069171119416L199.171,135.2732120056927L199.57700000000003,135.33444606386576L199.71,135.42765346334463L199.82899999999998,135.3974085684736L199.955,135.37544739278255L200.116,135.2287885612787L200.249,135.09244169943622L200.683,134.9261197897059L200.781,134.8170426243975L200.991,134.7898685593222L201.173,134.79002215479244L201.299,134.78987085002552L201.334,134.82375113840868L201.40400000000002,134.86922082570317L201.733,134.98744382879946L202.069,135.0976399437664L202.223,135.21121648150688L202.342,135.33089520453217L202.58,135.51824952682372L202.587,135.62386141362862L202.90200000000002,135.65621148066336L203.007,135.68810300859855L203.27300000000002,135.83004018289748L203.315,135.92808974527293L203.399,136.0303368814444L203.58100000000002,136.13997180287436L203.595,136.20498990797867L203.833,136.35988870638622L204.134,136.4935510708342L204.351,136.6431189426773L204.673,136.88987645661334L205.184,137.2060820868481L205.296,137.44784142027135L206.136,137.87297576154558L206.31099999999998,138.23537443752875L206.556,138.52054478516274L206.626,138.6923124566772L207.03199999999998,138.87243691350994L207.04600000000002,138.99171084186563L207.522,139.26565708484767L207.99099999999999,139.63245540901548L208.089,139.87215744466909L208.46,140.2761746732764L208.81,140.53317650258015L209.41899999999998,140.85124378997224L209.447,141.05070271894374L209.461,141.1820967162873L209.958,141.35791216422933L210.014,141.4860271727524L210.168,141.5323498061128L210.651,141.71948118182678L210.756,141.88197811257137L210.86100000000002,142.02328320904277L211.099,142.09394546808102L211.19,142.10612106781602L211.197,142.11871766952288L211.40699999999998,142.23903102086098L211.498,142.3776030170365L211.70100000000002,142.42869037828436L212.05100000000002,142.60098901516693L212.079,142.6937370211548L212.268,142.83909347441863L212.282,142.9098006194518L212.66,143.10164568137168L212.8,143.24942532550534L213.241,143.53584921902242L213.75900000000001,143.67173609508717L213.79399999999998,143.75317083590647L213.87099999999998,143.78253848567124L213.934,143.77336201933198L214.26999999999998,143.85800202088785L214.71099999999998,144.13080717974626L215.005,144.3415271429366L215.152,144.48157676479403L215.327,144.52769138147067L216.006,144.6479568841298L216.013,144.71583125366206L216.629,144.8819063690326L217.175,145.18739048532007L217.693,145.45758067579806L217.75599999999997,145.5739076940613L217.84,145.65808439671608L218.24599999999998,145.74658672876308L218.351,145.80260967257982L218.50500000000002,145.92831701662163L218.85500000000002,145.99510663570726L218.96,146.02315338193594L219.002,146.03120056510426L219.149,146.06157615935157L219.387,146.1492206614841L219.48499999999999,146.23480458581076L219.541,146.29832804285897L219.576,146.36250878713884L219.77200000000002,146.424633052464L220.059,146.50100761673568L220.752,146.57234717803846L221.417,146.68257367160203L221.47299999999998,146.78078163500095L221.725,146.8981697664174L221.858,146.98587221994615L221.928,147.0853195594962L222.096,147.20603201432317L222.215,147.31848464808226L222.292,147.39183177912125L222.684,147.52889125288937L222.733,147.64168953970687L222.768,147.71829545359566L222.887,147.77032932235176L222.978,147.79470024462566L223.412,147.82386559771956L223.454,147.8722357973947L223.524,147.91794318296093L223.566,147.96510427107648L224.231,148.10346200091706L224.273,148.2003864372235L224.462,148.33192056058925L224.53199999999998,148.4563035145668L224.65099999999998,148.60419913291236L224.728,148.68957672764282L225.022,148.82119445307555L225.16899999999998,149.001834840016L225.38600000000002,149.1781774454701L225.603,149.36878895582623L225.673,149.4485842510757L225.764,149.55656409273269L225.82,149.66389293309652L225.96699999999998,149.66734357103746L226.59699999999998,149.92071548082535L226.87699999999998,150.10799193139968L226.968,150.24418462094405L227.171,150.38038704124676L227.234,150.47381090258577L227.72400000000002,150.48497081754536L227.969,150.48819337462146L228.879,150.55862089866488L228.914,150.61066458746248L229.075,150.71262464139002L229.089,150.76360772929323L229.726,150.92628385904317L229.88,151.0511897479926L230.81099999999998,151.0596843727765L230.95100000000002,151.01220957585662L231.182,150.96760751005795L231.217,150.94951351952471L231.329,150.9565434704079L231.686,151.05449432981976L231.966,151.16400233648767L232.134,151.26059435911046L232.414,151.3651157472646L232.505,151.47012605347777L232.512,151.53675170633477L232.603,151.6310029041825L232.75,151.7176293013498L232.764,151.77875931269418L232.785,151.83184666160636L232.911,151.89849791316374L233.422,152.0057653436506L233.793,152.20711378153825L233.87,152.3254395313706L234.01,152.32648021917802L234.04500000000002,152.31775568917925L234.073,152.3101025814927L234.619,152.41725979739206L234.633,152.48101851042375L234.71699999999998,152.560045516056L234.864,152.64670780174131L234.983,152.73171862700292L235.074,152.79260968135105L235.242,152.81676021106514L235.28400000000002,152.8187041179662L235.417,152.79987411247873L235.438,152.787180260105L235.837,152.8210174202314L236.04,152.8455721867639L236.103,152.8486350991325L236.35500000000002,152.84719422429322L236.971,152.93775781420732L237.279,153.12989548791472L237.307,153.24844048359637L237.349,153.32547549339552L237.622,153.45153582055812L237.67100000000002,153.557166541298L237.685,153.62512206026392L237.762,153.6562380436981L237.972,153.73173167600552L237.986,153.78218925082965L238.13299999999998,153.86730767997219L238.154,153.9148079607384L238.41299999999998,153.98946853369685L238.812,153.467046995609L238.945,153.21043434580645L239.4,153.18207694242835L239.428,153.16155664689526L240.359,153.22264016196056L240.541,153.29918558543642L240.695,153.32141586674834L240.96800000000002,153.22505003623627L241.171,153.18615565454138L241.24099999999999,153.15491462433215L241.24800000000002,153.13686793074714L241.682,153.13284062116617L241.696,153.1342871665957L242.179,153.24158047089227L242.2,153.31473731803905L242.20700000000002,153.3576413473277L242.522,153.39997164584236L242.683,153.41337526133498L242.823,153.48874280259287L242.88600000000002,153.53076585910347L243.628,153.56794179501955L243.91500000000002,153.58476134506412L244.28599999999997,153.63913070641027L244.38400000000001,153.6816693440157L244.65699999999998,153.7585305573207L244.727,153.83522611866368L244.96499999999997,153.98539652005053L245,154.03018235815395" style="fill: none;" fill="none"></path></g></g></g></g><g opacity="0.2"><g><g><g><path stroke="rgb(255, 112, 67)" stroke-width="2px" d="M21.21,19.66066090877237L21.49,97.80394440430862L21.776999999999997,59.43615144032697L22.029,46.46761789688696L22.308999999999997,54.18759658703435L22.372,53.00575064695798L23.855999999999998,47.93910252130948L24.122,45.694707045188295L24.339000000000002,43.12504627154422L24.514,41.86935017659113L24.709999999999997,39.83794341637537L24.794,39.89783508044019L24.969,39.00741321306958L25.557,35.296483507523135L26.089,27.070063178355838L26.215,27.39906156063077L26.740000000000002,25.05160048374762L26.922,21.839240477635286L27.195,23.64337541506839L27.237000000000002,24.449113066379795L27.377,25.75865485117984L27.671,24.672692381418642L27.825000000000003,26.42217008884134L28,25.430752048125612L28.21,24.39413122030402L28.42,23.094733687547517L28.448,23.23995879980231L28.581,23.047623781057496L28.692999999999998,23.318597041643557L28.756,23.146956297067476L28.91,23.056956492937502L28.938,23.19869198248935L29.119999999999997,24.08846461772916L29.232000000000003,24.43978035449979L29.637999999999998,20.845915317535372L29.645,20.938228011131258L29.855,16.262742244280275L29.89,16.41827391661127L29.946,16.580257333241946L30.03,17.218533671819216L30.226000000000003,16.89882742441614L30.429,17.321639849589417L30.695,16.356312825129578L30.793,16.473418070719788L30.982,17.45493532144104L31.101,18.769711540295503L31.520999999999997,21.106379133004367L31.801,20.807326582761903L31.878,20.674112264926578L31.927,21.593749578182468L32.437999999999995,22.217661655866152L32.577999999999996,22.405046279613742L32.872,19.678961139458835L33.222,18.76865653808298L33.243,18.672245566661502L33.362,19.250143317075867L33.558,19.55337529916025L33.782,19.511986750822786L33.838,19.3959365074451L33.978,20.503404791538486L34.321,20.48165551515723L34.349000000000004,20.136953830718966L34.475,20.173310830042908L34.916000000000004,20.62363446675812L35.147,21.8848084578147L35.217,21.91593102308417L35.336,21.4311575064292L36.211,22.208937599108765L36.267,22.42172342997327L37.001999999999995,23.02794393209308L37.288999999999994,22.764639726051882L37.485,22.400258192649233L37.905,23.13324126830466L38.262,24.254546312185425L38.444,23.65648178870859L39.669,25.572162921612062L39.879,24.533756705430818L39.998000000000005,24.53400016747986L40.312999999999995,25.935245990753145L40.439,26.00118362903592L40.522999999999996,26.398635424100405L40.607,26.973246436852662L40.768,26.82651997529541L40.809999999999995,26.918710937866763L41.244,27.89775299108942L41.433,27.51852027269507L41.636,27.304922901667055L41.699,27.27035129070279L42.007,26.898706472836977L42.153999999999996,27.123868291194583L42.679,26.85090675720801L43.344,27.041456387593172L43.54,26.622498778196473L43.561,26.577417722115115L43.582,26.754008861688447L43.693999999999996,25.898848414421053L43.729,25.804425716400118L44.058,25.335720694982058L44.177,25.080937660657412L44.632,26.134397946871218L44.884,25.65790213988376L45.948,22.465952368882967L46.025,22.197941229893587L46.053000000000004,22.185524665392336L46.172,22.24764806490674L46.368,22.55566813395572L47.166,23.200436793840822L47.39,23.181974255121645L47.411,23.293804489649233L47.649,23.269742323802063L48.034,21.255459061035708L48.055,20.9926823561008L48.104,20.691844417498658L48.23,19.972332908557007L48.538000000000004,19.73605298995969L48.601,19.45643682663257L48.769,19.627915263175936L48.902,19.619394091459412L49.112,19.289137821931064L49.489999999999995,17.974158718035767L49.994,17.271851860559877L50.113,17.742666886402986L50.386,17.791399873219973L50.483999999999995,17.456680132792542L50.631,17.23472389808066L51.345000000000006,16.100799404657778L51.352000000000004,16.134437744434024L51.716,16.780991792678805L52.073,17.62166624802805L52.346000000000004,17.738893224642823L52.367,17.596914273041904L53.417,19.769285559654207L53.676,20.362967766248232L53.732,20.1604884954599L54.361999999999995,19.969654826017518L54.453,20.372381632144595L54.641999999999996,20.431948680144075L54.705,20.1172334047464L54.747,20.144135961165773L54.81,20.124009765111452L55.174,20.088058535869266L55.258,20.153833866119356L55.272,20.202566852936343L55.285999999999994,20.20678686178644L55.377,20.209870714407685L55.397999999999996,20.174933910369845L55.916,21.071645214007447L55.986,20.93254722998691L56.154,20.914815077414858L56.251999999999995,21.06742520515735L56.469,20.779166139089114L56.497,20.845834163519044L56.546,20.952267655959474L56.651,21.453880631006655L56.735,21.628240035130403L56.896,21.971846140347964L57.001000000000005,22.17862657400275L57.175999999999995,22.47565027383655L57.19,22.45629504093756L57.351,22.5936482136066L57.61,22.39822934224054L57.841,22.345641539647005L57.897,22.4590137004852L58.31699999999999,22.639906002924988L58.569,22.88357093700995L58.653,23.031068361722475L58.8,22.911285033592776L58.919,23.079963656572176L59.206,22.770158199163575L59.829,22.308229538110567L59.857,22.25385634715738L60.647999999999996,21.721607730938814L60.788,21.946242048190186L61.376000000000005,22.395064335602967L61.775,22.985906151624818L61.837999999999994,23.150770535835818L62.517,23.671698166773865L62.671,23.3925689275448L62.713,23.417036863473726L62.754999999999995,23.32354743664081L63.014,23.345945945152835L63.119,23.70176572983081L63.14,23.778537429296023L63.25899999999999,24.098121945674563L63.343,24.243915136043796L63.608999999999995,24.571574477049012L63.910000000000004,24.138049721717806L64.645,24.612151485223023L64.87599999999999,25.28788040234491L65.023,25.300296966846133L65.583,25.47672579838678L66.09400000000001,25.861801605958192L66.115,25.896454370938784L66.129,25.80819937816031L66.248,26.163816277797366L66.59100000000001,26.24521375619446L66.843,26.193518647780763L66.885,26.244402216030977L67.053,25.945674281853883L67.172,25.979434352654664L67.263,26.206422136380098L67.319,26.396768881724427L67.326,26.390235983408388L67.459,26.28254460371454L67.592,26.55031228065488L67.606,26.53456840148337L67.732,26.598680074398317L67.998,27.100901704568116L68.08200000000001,27.05695680471564L68.432,26.99203359163721L68.46,26.944761377114503L68.614,26.78034333999338L68.796,26.868192562690126L68.817,26.746705000217105L68.908,26.669365222637452L69.139,27.01098305445447L69.244,27.40648715312662L69.601,27.66467865613788L70.301,37.902623011515686L70.399,58.85216713868654L70.7,52.003904315141526L70.74199999999999,49.43111911186803L71.33699999999999,55.81647942616388L71.848,59.78073139374071L71.932,53.810270988024186L72.06500000000001,57.019587718523454L72.142,59.00445265036362L72.21900000000001,55.32825686381413L72.667,58.85906523007611L72.912,53.43976232638725L73.03099999999999,53.20194048147934L73.63300000000001,60.19851226990038L74.20700000000001,62.36272757786969L74.40299999999999,60.33298447498906L74.59200000000001,60.4036696232282L74.669,61.34761256438034L75.355,57.307116398444535L75.41799999999999,56.75165773355043L75.845,61.76604267267079L75.922,62.2977637877831L76.839,72.25000542860764L76.895,72.79759215391599L77.26599999999999,74.88921519426198L77.672,74.45337754946488L77.882,76.56488332381615L77.994,75.89511922689584L78.064,76.30336450613461L78.12700000000001,76.22095260253319L78.32300000000001,77.18871424748347L78.477,75.72721156707176L78.743,74.8981015590521L78.925,75.55504332138942L79.135,75.14882689255936L79.254,74.61722750847156L79.40100000000001,73.24783463661487L79.583,72.36366162850307L79.618,72.254752938564L79.723,70.76216826989099L79.80699999999999,70.50267830261818L79.982,69.98345490602345L80.06599999999999,68.55088363243982L80.339,67.59342854756574L80.633,65.344934793619L80.90599999999999,63.60381594988016L80.913,63.5739106948559L81.095,62.50515287656049L81.333,63.19427220637982L81.361,63.12245090191179L81.403,62.93604012636037L81.473,63.4157009399854L81.61999999999999,64.30425626498001L81.732,62.75356532060182L81.858,61.90956355058229L81.89999999999999,61.49746345556699L82.075,60.853019411747255L82.215,59.76774675112503L82.404,58.29443616133469L82.558,58.52929588464589L82.81700000000001,56.91806404407208L82.999,56.397501606207626L83.573,57.030502933722275L83.95100000000001,56.69801492874437L83.965,56.84989467033971L84.14,56.72382190594304L84.16799999999999,56.669813908063446L84.21000000000001,56.481739475176866L84.217,56.54913788575391L84.511,56.045617791322556L85.43499999999999,54.3872760442587L85.533,55.19500196897066L85.61,55.104190624677216L85.74300000000001,55.63096134479227L85.90400000000001,55.14549801899835L85.946,55.28358157781453L86.751,55.50200761281526L86.94,56.24955783440515L87.15,55.07972268874826L87.465,55.012892356285676L87.57,55.87255685146039L87.87100000000001,54.73425004115471L88.10199999999999,54.55879505781026L88.361,53.43091653860532L88.508,53.32379323702591L88.774,53.268689659925585L88.893,53.05087228004747L88.949,52.91339737635391L89.11,53.529721553509034L89.558,53.888990383881776L89.831,54.453984645696764L91,52.26189293311192L91.434,52.19822760728688L91.945,52.45130640726822L91.95200000000001,52.438281187644364L93.247,54.310828960858856L93.723,55.42211148372063L94.09400000000001,56.395188716741686L94.32499999999999,57.380073859141405L94.35300000000001,57.590993147629945L94.675,57.72019034165601L94.717,57.63907690231615L94.89899999999999,57.89365705159993L95.04599999999999,57.48078599342931L95.41,58.86409677908971L95.494,58.85423656610341L96.061,59.336737770300644L96.306,59.785154287631684L96.34100000000001,59.81858974236707L96.45299999999999,60.02058208905733L97.02,61.712562175897446L97.111,61.891385050920334L97.15299999999999,61.99806200540982L97.19500000000001,62.31561767137967L97.377,62.58533304471234L97.608,61.74920321427858L97.70599999999999,61.52907294493454L97.762,61.481800730411805L98.028,60.70308736654428L98.056,60.68864195163434L98.196,61.25497525471906L98.203,61.284109546588L98.217,61.39553401103386L98.308,61.4839918888532L98.49000000000001,61.9054652727567L98.553,62.45094199364L98.672,62.846080899238586L98.777,63.03135551856114L99.162,63.373866044558L99.176,63.302409933163574L99.211,63.090273334429796L99.295,63.09420930422269L99.61,63.60588537729703L99.806,63.8575034049841L100.037,64.03924782459552L100.1,63.91366198429692L100.401,64.2978856746967L100.59,64.385166819279L100.695,64.13553706499246L100.814,63.744090667137726L101.318,63.56526779211484L101.472,62.62976486866289L102.396,62.58107245885408L102.41000000000001,62.55035566366635L102.55000000000001,62.46559029359082L102.557,62.403426317068224L102.893,61.928715898440416L102.928,61.72660182072565L103.21499999999999,61.343514286554765L103.586,60.77953444994412L103.593,60.83037744118616L103.6,60.88012485320752L103.63499999999999,60.97004350332112L103.65599999999999,60.81305105869585L103.75399999999999,60.97166658364809L103.88,60.7926814005925L103.92899999999999,60.871684835507324L104.195,60.73404762378105L104.713,60.65768169439755L104.93,60.80505738808557L105.301,44.69793283939359L105.693,61.139087319374084L105.896,2.467249274253817L106.232,7.35499337086307L106.54,11.994568485480073L106.638,18.347872963318423L106.729,17.102564582457887L106.75,18.713350075941804L106.75699999999999,19.172519500438938L106.813,17.83246380549207L107.051,27.47433191079358L107.17699999999999,19.22871865675998L107.191,20.748855113983126L107.583,23.5360898054563L108.17099999999999,26.056774130234317L108.255,28.99045124420752L108.28999999999999,28.955027516071596L109.046,46.24935416991892L109.704,54.991386541953446L109.739,54.65942603808182L110.124,59.79976201057434L110.404,64.49646955270032L110.607,66.29524832505444L110.69099999999999,68.3027958044639L110.71900000000001,68.32186699830568L110.79599999999999,69.48699521101437L110.929,71.81984856495491L110.95,72.11804899802574L111.006,72.60590636730194L111.02000000000001,72.91676682692307L111.244,74.97069382667542L111.54499999999999,73.24369578178113L111.846,76.68093356719383L112.931,73.98726945656995L113.057,74.5434585076112L113.274,74.76062665535854L113.764,74.64579372222607L113.869,75.73086349780743L114.387,73.65048028872563L114.471,74.88430537627293L114.982,70.61982412521655L114.989,70.51403986490689L115.129,69.49754523313962L115.185,69.09169399738312L115.549,66.39689373053037L115.556,66.51485109329224L115.696,66.14048761587875L115.899,66.12429738961733L116.515,71.65648553004631L116.55,71.29173880357007L116.56400000000001,71.4438214302063L116.683,71.48829383116501L117.551,78.31517257140233L117.691,79.35329474852635L117.852,80.35230068977063L118.251,81.86237404896663L118.874,89.12147908027356L119.44099999999999,88.52511879114005L119.98,86.62765673490672L120.078,87.46646464787997L120.407,89.55001286359933L120.82,88.46871674977817L120.96,88.74963137736687L120.974,88.63942422316624L121.32400000000001,88.55137211542863L121.331,88.02508831941165L121.765,87.52785766124725L121.996,87.28317830195793L122.15,86.89465344869174L123.046,83.3418929210076L123.424,83.22563979258904L123.452,83.19200145281278L123.66199999999999,81.7243716441668L123.718,81.72567010842837L123.72500000000001,81.65681092555707L124.089,79.93078672885895L124.152,79.86752717311566L124.327,79.00063997048599L124.369,79.2025105861517L125.006,78.85565832028023L125.328,79.67466465326456L125.335,79.75289712502406L126.21,81.52643699829395L126.315,81.83392956623665L126.36399999999999,81.72185586966L126.399,81.67933116509364L126.406,81.71844740097339L126.49,82.13249519238106L126.525,82.27508279910454L126.805,83.00502259914691L126.81200000000001,83.0115960744711L126.861,82.74975264072418L126.896,82.63199816300319L127.10600000000001,82.03985788271977L127.134,82.13079095803775L127.61,80.65427478460164L127.694,80.43329239808597L127.869,80.3487299130513L128.023,80.36747649082771L128.20499999999998,79.07777686302478L128.415,78.53335514435402L129.017,78.49091159380399L129.493,78.58837756743797L129.808,78.62400418061478L129.906,78.33424376524411L129.962,78.427489730028L130.06,78.40074948164133L130.36100000000002,78.94549581637749L130.438,79.37110805511475L130.459,79.54603553735294L130.613,80.2252135001696L130.641,80.14499275500958L130.858,80.69537929388193L131.173,81.47462015885574L131.495,82.21884306577535L132.181,84.57827436006986L132.594,87.35962538535779L132.629,87.42000397352072L132.853,89.30829562590672L132.958,89.81530534304106L133.336,91.44179413868831L133.532,91.82760033240686L133.868,92.55547070503235L134.078,93.28614089122186L134.393,95.78738882908455L134.85500000000002,93.31125805928157L134.96699999999998,93.17913932066698L135.1,92.51878908964304L135.275,91.9259184232125L135.84900000000002,91.03898617854486L135.968,91.57026094656725L136.101,91.50046849250793L136.353,92.4165756060527L136.654,93.50107730351962L136.983,95.23748921431029L137.179,95.91447601868556L137.305,95.90132906803719L137.38899999999998,96.22411916806148L138.012,99.18774211406709L138.15200000000002,99.99469707562373L138.264,100.36605785443233L138.46,100.73348266344804L138.495,100.60915471040286L138.789,100.92135421129375L138.95000000000002,101.09210226169L139.097,101.97716796398164L139.139,101.94478751145877L139.237,102.44315432585203L139.391,103.04065077121442L139.636,103.66651054529044L139.82500000000002,102.92358610263238L140.091,102.17810530845937L140.21699999999998,101.89970645537744L140.56,101.7028673887253L140.63,101.84695634475122L140.707,101.96162696985098L140.777,101.81907994013567L140.882,101.70607297237103L141.099,102.20565709700952L141.659,103.04763001662035L142.156,102.90423086973338L142.26100000000002,103.17386508904971L142.28900000000002,103.1145415030993L142.36599999999999,103.27839146210597L142.716,103.1473277257039L142.975,103.54652433211987L143.68900000000002,105.41525786656601L143.906,105.58511322278244L144.19299999999998,105.66220953831308L144.445,105.58215110118573L144.61999999999998,105.53792216227605L144.662,105.41566363664775L144.732,105.32801729899187L144.80900000000003,105.18157487649185L144.977,104.59024613637192L145.08900000000003,104.52942120111906L145.103,104.52641850251419L145.166,104.42952060699464L145.775,104.75397436435406L146.39800000000002,104.16386293447935L146.54500000000002,103.81120815643898L146.594,103.76194766851573L146.734,103.9498597933696L147.16799999999998,104.01234838595758L147.21699999999998,104.29062550801498L147.49,104.04825903819157L147.96599999999998,103.93809246099913L148.274,103.74681244446681L148.365,103.87402136509236L148.81300000000002,104.29159935621115L148.85500000000002,104.19324068839734L149.83499999999998,104.3910130262375L150.059,104.61110271857335L150.192,104.60022808038272L150.409,104.80461447055524L150.51399999999998,104.96497480685895L150.626,105.03736418944139L150.79399999999998,104.67464631337387L151.046,103.99088314863353L151.07399999999998,103.88822331795326L151.19299999999998,103.77732635461368L151.494,103.97639715671541L151.914,103.73711453951323L151.92100000000002,103.70505870305576L151.98399999999998,103.65040147304536L152.10299999999998,103.83514859126164L152.313,103.8549095942424L152.985,104.67659400976622L153.81099999999998,105.78556364316208L153.97899999999998,105.54664621903346L154.161,105.62459465173575L154.26600000000002,105.69897230771872L154.56,106.01697432077849L154.595,105.91711430366223L155.225,105.46184027194978L156.282,106.88982634360974L156.555,107.03103433205531L156.751,107.44305327305429L156.989,108.06440899922298L156.99599999999998,108.0425379918172L157.108,108.46311868154086L157.353,108.77024605641L157.52100000000002,108.9059355717439L157.60500000000002,108.91348289526427L157.62599999999998,108.78221627382132L157.773,108.97722937510564L158.2,108.79836592307458L158.24200000000002,108.8400385104693L158.27,108.90999327256131L158.382,109.31969932409434L158.781,109.80560899697818L159.11,110.78347431696379L159.131,110.48231176229625L159.20100000000002,110.46810980943533L159.30599999999998,110.68191006550424L160.034,112.25073893253621L160.13199999999998,112.74683343447172L160.265,112.86272136981671L160.524,113.39192671042224L161.224,115.13799594915832L161.29399999999998,115.15743233607367L161.826,115.83076720971329L162.09199999999998,115.89179503000702L162.127,115.87994654362019L162.30900000000003,115.98483810975003L162.54,116.06846732359668L162.624,116.26254715369299L162.757,116.05183075024533L162.883,115.92393202048083L162.953,115.87341364530417L163.198,115.66306243493008L163.52700000000002,115.54774257769952L164.171,117.08321714401245L164.5,117.03399723309738L164.633,116.72264984937816L164.794,116.70223961426663L164.899,116.71688791421744L164.934,116.67379513153665L165.44500000000002,117.47985739891347L165.662,117.4729593075239L166.383,116.38898511116322L166.845,115.73857624714192L167.09,115.29709839820862L167.78300000000002,114.75113475322723L168.29399999999998,115.14826193222635L168.30100000000002,115.13815825719101L168.46200000000002,115.60885155200958L168.847,115.50882922686066L170.28900000000002,116.46295699706445L170.52700000000002,116.83614374124089L170.534,116.85395704782928L170.786,117.39687741719762L170.84199999999998,117.48131817120773L170.84900000000002,117.50444706586691L170.863,117.531511930319L171.045,117.80999193741727L171.24099999999999,118.16126709717972L171.297,118.35786270178284L171.48600000000002,118.83995813589831L171.661,118.84223044835606L171.759,118.9114954013091L172.333,118.91936734089487L172.55700000000002,118.71356075543625L172.774,118.83387158467221L172.844,118.8894620858706L174.601,120.17822844248553L174.629,120.2170200622999L174.75500000000002,120.23751145142776L174.762,120.24647897023422L174.87400000000002,119.89820650907664L175.17499999999998,120.16560899294342L175.33599999999998,120.05284548722783L175.756,119.67020430014685L176.08499999999998,119.40316700935364L176.26,119.46204424821416L176.40699999999998,119.6154659161201L176.95299999999997,119.64038019913895L177.03,119.61773822857785L177.387,119.03793335877934L177.527,118.82291579246521L177.548,118.82725753233984L177.56900000000002,118.87343416764188L178.024,118.60059436467978L178.857,119.64216558749861L178.927,119.49369431458989L178.948,119.54141287620253L178.976,119.61664264935715L179.123,119.8921605348587L179.284,120.09760192724376L179.522,120.13619066201726L180.005,119.8684229850769L180.201,119.66241351457744L180.55800000000002,119.67649373641382L180.73999999999998,119.65364888081186L180.831,119.71755766868591L180.95700000000002,119.70307167676779L181.251,119.79988841827101L181.51,120.30385485979228L181.91600000000003,120.83752367129694L182.091,121.39237368106842L182.26600000000002,121.73760286661296L182.427,121.81753957271576L182.62300000000002,122.08307551420654L182.82600000000002,122.28725901933818L182.861,122.32418409677653L182.952,122.43990972408884L183.365,123.25177450363454L183.4,123.33568775653842L183.90400000000002,124.77661789380589L184.625,125.98362157895016L184.842,126.47306145154515L184.89100000000002,126.3069797570889L184.898,126.33651981903958L185.01,126.12758880395157L185.136,126.1567636728287L185.28300000000002,126.52394501979536L185.346,126.591018814307L185.479,126.9160000727727L185.598,127.16063885505385L185.64000000000001,127.2256837991568L185.71699999999998,127.32323092680713L185.86399999999998,127.58974071649406L186.137,127.86976264990295L186.70399999999998,128.83971545329462L187.04000000000002,129.258591908675L187.15900000000002,129.18088693802176L187.187,129.21338912156915L187.39000000000001,129.49965991423682L187.551,129.8115753760705L187.558,129.82691348516028L187.726,130.01462272497326L188.083,130.6993597379098L188.10399999999998,130.76951738504266L188.195,130.58448622776913L188.258,130.51603281497958L188.30700000000002,130.5011410529797L188.447,130.43061821277325L188.538,130.51639800805313L189.112,131.3309814471465L189.161,131.44601726531985L189.231,131.56060673640326L189.574,131.9731126015003L190.01500000000001,132.33408566621637L190.29500000000002,132.8113930133673L190.561,132.95751081980194L190.56799999999998,132.96140621258664L191.128,133.22239752916192L191.443,133.50290638666888L191.492,133.59144541850458L191.562,133.8074368330149L191.88400000000001,134.16244507752936L191.912,134.23897331494553L191.954,134.26096605337585L192.017,134.36695319872638L192.731,135.5084655926778L192.78,135.4594079897954L192.969,135.2136330512854L193.35399999999998,135.54855567675372L193.368,135.54522836208346L193.809,135.38036397787243L193.914,135.1767891278634L194.48100000000002,134.56460380554202L194.593,134.54959031251764L194.691,134.49895020631647L194.754,134.5179402461419L194.915,134.47939208837658L194.964,134.43228218188653L195.13199999999998,134.56111418283905L195.272,134.54472107153674L195.65,134.29014092225296L195.944,134.26956837910873L196.049,134.27890109098877L196.063,134.30507326126101L196.175,134.3305150453861L196.81199999999998,134.561803991978L197.32999999999998,134.60785889625552L197.47,134.6881202184237L197.477,134.71392719562238L197.54,134.84957613394812L197.687,134.87619465131027L197.883,134.83857976473297L198.303,135.15483696644125L198.345,135.23526059664215L198.471,135.45376778565924L198.94,135.19042300260986L199.171,135.37265434631937L199.57700000000003,135.42629715112542L199.71,135.5674645625628L199.82899999999998,135.35204122616696L199.955,135.34250562924606L200.116,135.00880031402295L200.249,134.88792140667258L200.683,134.67663692511047L200.781,134.65342687643493L200.991,134.74910746170926L201.173,134.7902525479977L201.299,134.78964389287512L201.334,134.87457157098333L201.40400000000002,134.93742535664487L201.733,135.16477833344388L202.069,135.26293411621683L202.223,135.38158128811764L202.342,135.51041328907016L202.58,135.79928101026098L202.587,135.78227924383606L202.90200000000002,135.7047365812155L203.007,135.73594030050134L203.27300000000002,136.04294594434595L203.315,136.07516408883612L203.399,136.1837075857016L203.58100000000002,136.3044241850193L203.595,136.30251706563513L203.833,136.5922369039976L204.134,136.6940446175062L204.351,136.86747075044195L204.673,137.26001272751736L205.184,137.68039053220016L205.296,137.81048042040607L206.136,138.51067727345688L206.31099999999998,138.77897245150348L206.556,138.94830030661365L206.626,138.9499639639488L207.03199999999998,139.142623598759L207.04600000000002,139.17062173439908L207.522,139.6765764493209L207.99099999999999,140.1826528952672L208.089,140.2317104981496L208.46,140.88220051618725L208.81,140.9186792465357L209.41899999999998,141.32834472106055L209.447,141.34989111240097L209.461,141.3791877123026L209.958,141.62163533614233L210.014,141.67819968553692L210.168,141.6018337561534L210.651,142.00017824539773L210.756,142.12572350868814L210.86100000000002,142.23524085374981L211.099,142.19993885663843L211.19,142.1243844674184L211.197,142.13761257208313L211.40699999999998,142.419501047868L211.498,142.58546101129974L211.70100000000002,142.50532142015606L212.05100000000002,142.8594369704907L212.079,142.83285903013672L212.268,143.0571281543145L212.282,143.01586133700152L212.66,143.38941327425152L212.8,143.4710947917058L213.241,143.96548505929803L213.75900000000001,143.87556640918442L213.79399999999998,143.87532294713537L213.87099999999998,143.82658996031836L213.934,143.75959731982306L214.26999999999998,143.98496202322156L214.71099999999998,144.54001491803393L215.005,144.65760708772223L215.152,144.6916511975802L215.327,144.59686330648572L216.006,144.82835513811847L216.013,144.81764280796054L216.629,145.13101904208847L217.175,145.64561665975134L217.693,145.862865961515L217.75599999999997,145.7483982214561L217.84,145.7843494506983L218.24599999999998,145.87934022683368L218.351,145.886644088305L218.50500000000002,146.11687803268435L218.85500000000002,146.09529106433578L218.96,146.06522350127884L219.002,146.0432713398567L219.149,146.1071395507226L219.387,146.28068741468286L219.48499999999999,146.36318047230063L219.541,146.39361322843115L219.576,146.45877990355862L219.77200000000002,146.5178194504518L220.059,146.615569463143L220.752,146.67935651999255L221.417,146.84791341194742L221.47299999999998,146.92809358009927L221.725,147.07425196354208L221.858,147.11742590023923L221.928,147.2344905688213L222.096,147.38710069656375L222.215,147.48716359872088L222.292,147.50185247567987L222.684,147.7344804635415L222.733,147.81088696993316L222.768,147.8332043244289L222.887,147.84838012548596L222.978,147.83125662803653L223.412,147.86761362736044L223.454,147.9447910969074L223.524,147.9865042613103L223.566,148.0358459032499L224.231,148.31099859567792L224.273,148.34577309168304L224.462,148.52922174563778L224.53199999999998,148.6428779455332L224.65099999999998,148.8260425604307L224.728,148.81764311973868L225.022,149.01862104122458L225.16899999999998,149.2727954204266L225.38600000000002,149.4426913536512L225.603,149.65470622136044L225.673,149.5682771939498L225.764,149.71853385521817L225.82,149.82488619364227L225.96699999999998,149.67251952794885L226.59699999999998,150.30077334550714L226.87699999999998,150.3889066072611L226.968,150.44847365526056L227.171,150.5846906717007L227.234,150.61394669459418L227.72400000000002,150.50171068998486L227.969,150.49302721023562L228.879,150.66426218472998L228.914,150.6887301206589L229.075,150.86556472228125L229.089,150.84008236114798L229.726,151.17029805366812L229.88,151.2385485814168L230.81099999999998,151.0724263099524L230.95100000000002,150.94099738047674L231.182,150.90070441135995L231.217,150.92237253372488L231.329,150.96708839673266L231.686,151.2014206189376L231.966,151.32826434648956L232.134,151.4054823930447L232.414,151.52189782949597L232.505,151.62764151279745L232.512,151.63669018562027L232.603,151.77237970095416L232.75,151.84756889710062L232.764,151.87045432971075L232.785,151.9114776849747L232.911,151.99847479049978L233.422,152.16666648938107L233.793,152.50913643836978L233.87,152.50292815611914L234.01,152.32804125088916L234.04500000000002,152.3046688941809L234.073,152.29862291996298L234.619,152.5779956212411L234.633,152.57665657997134L234.71699999999998,152.67858602450445L234.864,152.77670123026923L234.983,152.8592348648952L235.074,152.88394626287317L235.242,152.85298600563638L235.28400000000002,152.82161997831787L235.417,152.7716291042475L235.438,152.76813948154452L235.837,152.87177316042096L236.04,152.88240433656256L236.103,152.85322946768542L236.35500000000002,152.8450329120343L236.971,153.07360319907852L237.279,153.41810199847592L237.307,153.4262579771189L237.349,153.44102800809424L237.622,153.6406263113022L237.67100000000002,153.7156126224078L237.685,153.72705533871286L237.762,153.70291201884933L237.972,153.84497212446655L237.986,153.8578756130659L238.13299999999998,153.9949853236859L238.154,153.9860583818876L238.41299999999998,154.10145939313452L238.812,152.68341468847717L238.945,152.8255153711026L239.4,153.1395408373613L239.428,153.1307762035957L240.359,153.3142654345586L240.541,153.41400372065033L240.695,153.35476128871628L240.96800000000002,153.0805012904681L241.171,153.127814081999L241.24099999999999,153.10805307901825L241.24800000000002,153.10979789036975L241.682,153.12679965679465L241.696,153.13645698474005L242.179,153.4025204273371L242.2,153.42447258875922L242.20700000000002,153.42199739126062L242.522,153.46346709361447L242.683,153.43348068457385L242.823,153.60179411447967L242.88600000000002,153.59380044386938L243.628,153.62370569889364L243.91500000000002,153.60999067013083L244.28599999999997,153.72068474842956L244.38400000000001,153.7454773004239L244.65699999999998,153.8738223772783L244.727,153.95026946067813L244.96499999999997,154.2106521221308L245,154.09736111530893" style="fill: none;" fill="none"></path></g></g></g></g></g></g><g transform="translate(50, 177)" clip-path="url(#clip_1)"><clipPath id="clip_1"><rect width="280" height="23"></rect></clipPath><g><g><line x1="0" y1="0" x2="0" y2="5" style="visibility: inherit;" fill="rgb(0, 0, 0)" stroke="rgb(204, 204, 204)" stroke-width="1px"></line><line x1="35" y1="0" x2="35" y2="5" style="visibility: inherit;" fill="rgb(0, 0, 0)" stroke="rgb(204, 204, 204)" stroke-width="1px"></line><line x1="70" y1="0" x2="70" y2="5" style="visibility: inherit;" fill="rgb(0, 0, 0)" stroke="rgb(204, 204, 204)" stroke-width="1px"></line><line x1="105" y1="0" x2="105" y2="5" style="visibility: inherit;" fill="rgb(0, 0, 0)" stroke="rgb(204, 204, 204)" stroke-width="1px"></line><line x1="140" y1="0" x2="140" y2="5" style="visibility: inherit;" fill="rgb(0, 0, 0)" stroke="rgb(204, 204, 204)" stroke-width="1px"></line><line x1="175" y1="0" x2="175" y2="5" style="visibility: inherit;" fill="rgb(0, 0, 0)" stroke="rgb(204, 204, 204)" stroke-width="1px"></line><line x1="210" y1="0" x2="210" y2="5" style="visibility: inherit;" fill="rgb(0, 0, 0)" stroke="rgb(204, 204, 204)" stroke-width="1px"></line><line x1="245" y1="0" x2="245" y2="5" style="visibility: inherit;" fill="rgb(0, 0, 0)" stroke="rgb(204, 204, 204)" stroke-width="1px"></line><line x1="280" y1="0" x2="280" y2="5" style="visibility: inherit;" fill="rgb(0, 0, 0)" stroke="rgb(204, 204, 204)" stroke-width="1px"></line></g><g transform="translate(0, 8)"><text x="0" y="0" dx="0em" dy="0.95em" style="text-anchor: middle; visibility: hidden; font-family: &quot;Helvetica Neue&quot;, sans-serif; font-size: 12px; font-weight: 200;" fill="rgb(33, 33, 33)" stroke="none" stroke-width="1px">15k</text><text x="35" y="0" dx="0em" dy="0.95em" style="text-anchor: middle; visibility: inherit; font-family: &quot;Helvetica Neue&quot;, sans-serif; font-size: 12px; font-weight: 200;" fill="rgb(33, 33, 33)" stroke="none" stroke-width="1px">20k</text><text x="70" y="0" dx="0em" dy="0.95em" style="text-anchor: middle; visibility: inherit; font-family: &quot;Helvetica Neue&quot;, sans-serif; font-size: 12px; font-weight: 200;" fill="rgb(33, 33, 33)" stroke="none" stroke-width="1px">25k</text><text x="105" y="0" dx="0em" dy="0.95em" style="text-anchor: middle; visibility: inherit; font-family: &quot;Helvetica Neue&quot;, sans-serif; font-size: 12px; font-weight: 200;" fill="rgb(33, 33, 33)" stroke="none" stroke-width="1px">30k</text><text x="140" y="0" dx="0em" dy="0.95em" style="text-anchor: middle; visibility: inherit; font-family: &quot;Helvetica Neue&quot;, sans-serif; font-size: 12px; font-weight: 200;" fill="rgb(33, 33, 33)" stroke="none" stroke-width="1px">35k</text><text x="175" y="0" dx="0em" dy="0.95em" style="text-anchor: middle; visibility: inherit; font-family: &quot;Helvetica Neue&quot;, sans-serif; font-size: 12px; font-weight: 200;" fill="rgb(33, 33, 33)" stroke="none" stroke-width="1px">40k</text><text x="210" y="0" dx="0em" dy="0.95em" style="text-anchor: middle; visibility: inherit; font-family: &quot;Helvetica Neue&quot;, sans-serif; font-size: 12px; font-weight: 200;" fill="rgb(33, 33, 33)" stroke="none" stroke-width="1px">45k</text><text x="245" y="0" dx="0em" dy="0.95em" style="text-anchor: middle; visibility: inherit; font-family: &quot;Helvetica Neue&quot;, sans-serif; font-size: 12px; font-weight: 200;" fill="rgb(33, 33, 33)" stroke="none" stroke-width="1px">50k</text><text x="280" y="0" dx="0em" dy="0.95em" style="text-anchor: middle; visibility: hidden; font-family: &quot;Helvetica Neue&quot;, sans-serif; font-size: 12px; font-weight: 200;" fill="rgb(33, 33, 33)" stroke="none" stroke-width="1px">55k</text></g><line x1="0" y1="0" x2="280" y2="0" fill="rgb(0, 0, 0)" stroke="rgb(204, 204, 204)" stroke-width="1px"></line></g></g></g></g></svg>