<svg viewBox="0 0 330 200" xmlns="http://www.w3.org/2000/svg"><g><g><g><g><g><line x1="50" y1="177" x2="45" y2="177" style="visibility: inherit;" fill="rgb(0, 0, 0)" stroke="rgb(204, 204, 204)" stroke-width="1px"></line><line x1="50" y1="160.90909090909093" x2="45" y2="160.90909090909093" style="visibility: inherit;" fill="rgb(0, 0, 0)" stroke="rgb(204, 204, 204)" stroke-width="1px"></line><line x1="50" y1="144.8181818181818" x2="45" y2="144.8181818181818" style="visibility: inherit;" fill="rgb(0, 0, 0)" stroke="rgb(204, 204, 204)" stroke-width="1px"></line><line x1="50" y1="128.72727272727275" x2="45" y2="128.72727272727275" style="visibility: inherit;" fill="rgb(0, 0, 0)" stroke="rgb(204, 204, 204)" stroke-width="1px"></line><line x1="50" y1="112.63636363636365" x2="45" y2="112.63636363636365" style="visibility: inherit;" fill="rgb(0, 0, 0)" stroke="rgb(204, 204, 204)" stroke-width="1px"></line><line x1="50" y1="96.54545454545455" x2="45" y2="96.54545454545455" style="visibility: inherit;" fill="rgb(0, 0, 0)" stroke="rgb(204, 204, 204)" stroke-width="1px"></line><line x1="50" y1="80.45454545454544" x2="45" y2="80.45454545454544" style="visibility: inherit;" fill="rgb(0, 0, 0)" stroke="rgb(204, 204, 204)" stroke-width="1px"></line><line x1="50" y1="64.36363636363643" x2="45" y2="64.36363636363643" style="visibility: inherit;" fill="rgb(0, 0, 0)" stroke="rgb(204, 204, 204)" stroke-width="1px"></line><line x1="50" y1="48.27272727272731" x2="45" y2="48.27272727272731" style="visibility: inherit;" fill="rgb(0, 0, 0)" stroke="rgb(204, 204, 204)" stroke-width="1px"></line><line x1="50" y1="32.181818181818215" x2="45" y2="32.181818181818215" style="visibility: inherit;" fill="rgb(0, 0, 0)" stroke="rgb(204, 204, 204)" stroke-width="1px"></line><line x1="50" y1="16.090909090909093" x2="45" y2="16.090909090909093" style="visibility: inherit;" fill="rgb(0, 0, 0)" stroke="rgb(204, 204, 204)" stroke-width="1px"></line><line x1="50" y1="0" x2="45" y2="0" style="visibility: inherit;" fill="rgb(0, 0, 0)" stroke="rgb(204, 204, 204)" stroke-width="1px"></line></g><g transform="translate(40, 0)"><text x="0" y="177" dx="0em" dy="0.3em" style="text-anchor: end; visibility: hidden; font-family: &quot;Helvetica Neue&quot;, sans-serif; font-size: 12px; font-weight: 200;" fill="rgb(33, 33, 33)" stroke="none" stroke-width="1px">0.8</text><text x="0" y="160.90909090909093" dx="0em" dy="0.3em" style="text-anchor: end; visibility: inherit; font-family: &quot;Helvetica Neue&quot;, sans-serif; font-size: 12px; font-weight: 200;" fill="rgb(33, 33, 33)" stroke="none" stroke-width="1px">0.85</text><text x="0" y="144.8181818181818" dx="0em" dy="0.3em" style="text-anchor: end; visibility: hidden; font-family: &quot;Helvetica Neue&quot;, sans-serif; font-size: 12px; font-weight: 200;" fill="rgb(33, 33, 33)" stroke="none" stroke-width="1px">0.9</text><text x="0" y="128.72727272727275" dx="0em" dy="0.3em" style="text-anchor: end; visibility: inherit; font-family: &quot;Helvetica Neue&quot;, sans-serif; font-size: 12px; font-weight: 200;" fill="rgb(33, 33, 33)" stroke="none" stroke-width="1px">0.95</text><text x="0" y="112.63636363636365" dx="0em" dy="0.3em" style="text-anchor: end; visibility: hidden; font-family: &quot;Helvetica Neue&quot;, sans-serif; font-size: 12px; font-weight: 200;" fill="rgb(33, 33, 33)" stroke="none" stroke-width="1px">1</text><text x="0" y="96.54545454545455" dx="0em" dy="0.3em" style="text-anchor: end; visibility: inherit; font-family: &quot;Helvetica Neue&quot;, sans-serif; font-size: 12px; font-weight: 200;" fill="rgb(33, 33, 33)" stroke="none" stroke-width="1px">1.05</text><text x="0" y="80.45454545454544" dx="0em" dy="0.3em" style="text-anchor: end; visibility: hidden; font-family: &quot;Helvetica Neue&quot;, sans-serif; font-size: 12px; font-weight: 200;" fill="rgb(33, 33, 33)" stroke="none" stroke-width="1px">1.1</text><text x="0" y="64.36363636363643" dx="0em" dy="0.3em" style="text-anchor: end; visibility: inherit; font-family: &quot;Helvetica Neue&quot;, sans-serif; font-size: 12px; font-weight: 200;" fill="rgb(33, 33, 33)" stroke="none" stroke-width="1px">1.15</text><text x="0" y="48.27272727272731" dx="0em" dy="0.3em" style="text-anchor: end; visibility: hidden; font-family: &quot;Helvetica Neue&quot;, sans-serif; font-size: 12px; font-weight: 200;" fill="rgb(33, 33, 33)" stroke="none" stroke-width="1px">1.2</text><text x="0" y="32.181818181818215" dx="0em" dy="0.3em" style="text-anchor: end; visibility: inherit; font-family: &quot;Helvetica Neue&quot;, sans-serif; font-size: 12px; font-weight: 200;" fill="rgb(33, 33, 33)" stroke="none" stroke-width="1px">1.25</text><text x="0" y="16.090909090909093" dx="0em" dy="0.3em" style="text-anchor: end; visibility: hidden; font-family: &quot;Helvetica Neue&quot;, sans-serif; font-size: 12px; font-weight: 200;" fill="rgb(33, 33, 33)" stroke="none" stroke-width="1px">1.3</text><text x="0" y="0" dx="0em" dy="0.3em" style="text-anchor: end; visibility: hidden; font-family: &quot;Helvetica Neue&quot;, sans-serif; font-size: 12px; font-weight: 200;" fill="rgb(33, 33, 33)" stroke="none" stroke-width="1px">1.35</text></g><line x1="50" y1="0" x2="50" y2="177" fill="rgb(0, 0, 0)" stroke="rgb(204, 204, 204)" stroke-width="1px"></line></g></g><g transform="translate(50, 0)" clip-path="url(#clip_0)"><clipPath id="clip_0"><rect width="280" height="177"></rect></clipPath><g><g><g><line x1="0" y1="0" x2="0" y2="177" fill="rgb(0, 0, 0)" stroke="rgb(66, 66, 66)" stroke-width="1px" opacity="0.25"></line><line x1="35" y1="0" x2="35" y2="177" fill="rgb(0, 0, 0)" stroke="rgb(66, 66, 66)" stroke-width="1px" opacity="0.25"></line><line x1="70" y1="0" x2="70" y2="177" fill="rgb(0, 0, 0)" stroke="rgb(66, 66, 66)" stroke-width="1px" opacity="0.25"></line><line x1="105" y1="0" x2="105" y2="177" fill="rgb(0, 0, 0)" stroke="rgb(66, 66, 66)" stroke-width="1px" opacity="0.25"></line><line x1="140" y1="0" x2="140" y2="177" fill="rgb(0, 0, 0)" stroke="rgb(66, 66, 66)" stroke-width="1px" opacity="0.25"></line><line x1="175" y1="0" x2="175" y2="177" fill="rgb(0, 0, 0)" stroke="rgb(66, 66, 66)" stroke-width="1px" opacity="0.25"></line><line x1="210" y1="0" x2="210" y2="177" fill="rgb(0, 0, 0)" stroke="rgb(66, 66, 66)" stroke-width="1px" opacity="0.25"></line><line x1="245" y1="0" x2="245" y2="177" fill="rgb(0, 0, 0)" stroke="rgb(66, 66, 66)" stroke-width="1px" opacity="0.25"></line><line x1="280" y1="0" x2="280" y2="177" fill="rgb(0, 0, 0)" stroke="rgb(66, 66, 66)" stroke-width="1px" opacity="0.25"></line></g><g><line x1="0" y1="177" x2="280" y2="177" fill="rgb(0, 0, 0)" stroke="rgb(66, 66, 66)" stroke-width="1px" opacity="0.25"></line><line x1="0" y1="160.90909090909093" x2="280" y2="160.90909090909093" fill="rgb(0, 0, 0)" stroke="rgb(66, 66, 66)" stroke-width="1px" opacity="0.25"></line><line x1="0" y1="144.8181818181818" x2="280" y2="144.8181818181818" fill="rgb(0, 0, 0)" stroke="rgb(66, 66, 66)" stroke-width="1px" opacity="0.25"></line><line x1="0" y1="128.72727272727275" x2="280" y2="128.72727272727275" fill="rgb(0, 0, 0)" stroke="rgb(66, 66, 66)" stroke-width="1px" opacity="0.25"></line><line x1="0" y1="112.63636363636365" x2="280" y2="112.63636363636365" fill="rgb(0, 0, 0)" stroke="rgb(66, 66, 66)" stroke-width="1px" opacity="0.25"></line><line x1="0" y1="96.54545454545455" x2="280" y2="96.54545454545455" fill="rgb(0, 0, 0)" stroke="rgb(66, 66, 66)" stroke-width="1px" opacity="0.25"></line><line x1="0" y1="80.45454545454544" x2="280" y2="80.45454545454544" fill="rgb(0, 0, 0)" stroke="rgb(66, 66, 66)" stroke-width="1px" opacity="0.25"></line><line x1="0" y1="64.36363636363643" x2="280" y2="64.36363636363643" fill="rgb(0, 0, 0)" stroke="rgb(66, 66, 66)" stroke-width="1px" opacity="0.25"></line><line x1="0" y1="48.27272727272731" x2="280" y2="48.27272727272731" fill="rgb(0, 0, 0)" stroke="rgb(66, 66, 66)" stroke-width="1px" opacity="0.25"></line><line x1="0" y1="32.181818181818215" x2="280" y2="32.181818181818215" fill="rgb(0, 0, 0)" stroke="rgb(66, 66, 66)" stroke-width="1px" opacity="0.25"></line><line x1="0" y1="16.090909090909093" x2="280" y2="16.090909090909093" fill="rgb(0, 0, 0)" stroke="rgb(66, 66, 66)" stroke-width="1px" opacity="0.25"></line><line x1="0" y1="0" x2="280" y2="0" fill="rgb(0, 0, 0)" stroke="rgb(66, 66, 66)" stroke-width="1px" opacity="0.25"></line></g></g></g><g><g><line x1="0" y1="434.45454545454544" x2="280" y2="434.45454545454544" fill="rgb(0, 0, 0)" stroke="rgb(153, 153, 153)" stroke-width="1.5px"></line></g></g><g><g><line x1="-105" y1="0" x2="-105" y2="177" fill="rgb(0, 0, 0)" stroke="rgb(153, 153, 153)" stroke-width="1.5px"></line></g></g><g><g><g><g><g><path stroke="rgb(255, 112, 67)" stroke-width="2px" d="M21.21,111.86751638759269L21.49,85.91599650816487L21.776999999999997,52.27446176302459L22.029,34.98300730640247L22.308999999999997,19.72821135039922L22.372,11.239060781742552L23.855999999999998,13.333344623157245L24.122,17.639099257209466L24.339000000000002,21.559462926981155L24.514,24.155989442604096L24.709999999999997,25.806516919644764L24.794,27.642834200362586L24.969,29.050680151216255L25.557,32.939913670370146L26.089,39.16339774525605L26.215,42.95501869300193L26.740000000000002,45.09921619921363L26.922,46.62701885013476L27.195,48.679144270301606L27.237000000000002,50.256270098173786L27.377,51.063613642961855L27.671,52.57081393308917L27.825000000000003,53.21604151227335L28,53.56126607577909L28.21,54.31141670412056L28.42,54.952542006340494L28.448,55.44911589148619L28.581,55.73062487092281L28.692999999999998,55.598006568136526L28.756,55.62827863601754L28.91,55.41475568311748L28.938,55.213674134306785L29.119999999999997,55.293667463807296L29.232000000000003,54.97337176704785L29.637999999999998,55.28085875679331L29.645,55.535142221614706L29.855,56.35237136957598L29.89,56.85131767320202L29.946,57.503846486528445L30.03,57.64239342455083L30.226000000000003,57.525094184935455L30.429,57.22058855011025L30.695,57.0072862687652L30.793,56.641403819217985L30.982,56.04858003935517L31.101,54.81292952599962L31.520999999999997,52.07053378513827L31.801,51.26516966612324L31.878,50.96213789988413L31.927,50.72286533783448L32.437999999999995,51.47130425311387L32.577999999999996,51.50277087195899L32.872,52.078323719798334L33.222,52.11562547341737L33.243,52.14729054505891L33.362,52.38276836931058L33.558,52.82347620089118L33.782,52.99615023469485L33.838,53.04866952966084L33.978,52.27925411786531L34.321,51.61570430191263L34.349000000000004,51.11778271215124L34.475,51.15620079267376L34.916000000000004,51.00759702645209L35.147,50.82037710652955L35.217,50.674791484837186L35.336,50.51926011429103L36.211,51.846657144180554L36.267,52.74373106407403L37.001999999999995,54.11842720655959L37.288999999999994,55.44886333423962L37.485,56.499374121676354L37.905,56.52161568255616L38.262,56.5465924980236L38.444,56.70918682413712L39.669,56.98785085416468L39.879,57.133289372001386L39.998000000000005,57.33005787599184L40.312999999999995,57.43351007502139L40.439,57.59073875763718L40.522999999999996,57.68978703163201L40.607,57.86535063958361L40.768,58.35395768086377L40.809999999999995,58.54024059057396L41.244,58.871941852180456L41.433,59.126666725965606L41.636,59.64507718054902L41.699,60.10208972305216L42.007,60.77788863621615L42.153999999999996,61.44789348432536L42.679,62.66101278515312L43.344,64.36011556612803L43.54,65.64767823333142L43.561,66.48801219401606L43.582,66.87701400156257L43.693999999999996,67.04386171015278L43.729,67.19701968292426L44.058,67.60671949671637L44.177,68.03327852766961L44.632,68.71390029142869L44.884,69.53230475504634L45.948,71.74917759803958L46.025,73.2159375176583L46.053000000000004,74.08807519827813L46.172,74.63910244665354L46.368,74.9314931882403L47.166,75.87837594196368L47.39,76.40212644658136L47.411,76.72737946333574L47.649,77.23155868510925L48.034,78.06434485753331L48.055,78.5622364845273L48.104,78.99506032374974L48.23,79.4745019972228L48.538000000000004,80.16593744808404L48.601,80.49334478973998L48.769,80.50493746161253L48.902,80.62816581767134L49.112,80.55403422987172L49.489999999999995,80.36520028354512L49.994,80.02426496563157L50.113,79.76261856425666L50.386,79.61528303458337L50.483999999999995,79.436481454467L50.631,79.48759662039976L51.345000000000006,78.49042501894291L51.352000000000004,77.90459793877831L51.716,77.12763272566933L52.073,76.45128181158233L52.346000000000004,75.83485445779345L52.367,75.40082322002515L53.417,73.84188473595911L53.676,72.68876918885445L53.732,71.9372672991681L54.361999999999995,71.27152935116939L54.453,70.65430343473172L54.641999999999996,70.3005870469952L54.705,69.98479052442846L54.747,69.81859171425425L54.81,69.794863278425L55.174,69.68652769231356L55.258,69.65049861958848L55.272,69.62545913241313L55.285999999999994,69.60670648683316L55.377,69.53236960354786L55.397999999999996,69.4711636569374L55.916,69.17536223654865L55.986,69.0339125871518L56.154,69.02415895504544L56.251999999999995,69.03205633188955L56.469,69.1231591572991L56.497,69.15489469537381L56.546,69.23158901185433L56.651,69.35358110653107L56.735,69.43027513431106L56.896,69.46094606425146L57.001000000000005,69.43883653725476L57.175999999999995,69.44598031840447L57.19,69.44836374674L57.351,69.50483806463333L57.61,69.26330185958189L57.841,68.65571371171305L57.897,68.19531291289101L58.31699999999999,67.40148451176158L58.569,66.49368772978978L58.653,65.77465424040737L58.8,65.24292070003946L58.919,64.85031431244644L59.206,64.54258065581064L59.829,64.22279276021887L59.857,64.03917589472329L60.647999999999996,63.95073498463232L60.788,63.927962429378L61.376000000000005,63.76314585195833L61.775,63.574423426202955L61.837999999999994,63.483532999425194L62.517,63.45138780849413L62.671,63.51100718668897L62.713,63.57030344475936L62.754999999999995,63.63377929447236L63.014,63.477253341620425L63.119,63.32718863397284L63.14,63.21718533115161L63.25899999999999,63.118390044321956L63.343,62.999464965313905L63.608999999999995,63.11036826377307L63.910000000000004,63.193237840726795L64.645,63.51416037383639L64.87599999999999,63.727813937952675L65.023,63.78437334437781L65.583,64.06919235074287L66.09400000000001,64.32669368165267L66.115,64.4545547152394L66.129,64.54759893326961L66.248,64.61214170054905L66.59100000000001,64.88298319315884L66.843,65.08072132625128L66.885,65.24009112788193L67.053,65.52943443330987L67.172,65.84799388419583L67.263,66.12906945243806L67.319,66.26673225568032L67.326,66.335166053376L67.459,66.46903583572217L67.592,66.67175330726936L67.606,66.81747620436005L67.732,66.9456368643896L67.998,67.22912954822142L68.08200000000001,67.43593156277295L68.432,67.59918979911957L68.46,67.7212678460633L68.614,67.81417224272764L68.796,67.99401383189257L68.817,68.09406189618697L68.908,68.21303274928444L69.139,68.20959066785902L69.244,68.19561732130319L69.601,68.16763712681842L70.301,53.737631292176616L70.399,54.54384931224888L70.7,65.15055269939324L70.74199999999999,74.66983698518105L71.33699999999999,73.91273246343644L71.848,81.09140692163209L71.932,86.57947749121391L72.06500000000001,90.74167234705658L72.142,95.04611981406781L72.21900000000001,96.86880306408877L72.667,102.76656316197291L72.912,106.41581414354938L73.03099999999999,110.07681276383403L73.63300000000001,111.92766277454464L74.20700000000001,111.8056693234681L74.40299999999999,112.08233500472537L74.59200000000001,112.82706642718215L74.669,113.9531272141945L75.355,116.63686640683589L75.41799999999999,118.14823895143462L75.845,120.53307070510868L75.922,122.52935887030586L76.839,127.09412337604982L76.895,129.29694888261344L77.26599999999999,130.39375607855823L77.672,129.13894874809264L77.882,128.94402624722986L77.994,129.39550026607697L78.064,129.6555737819856L78.12700000000001,129.65291486779364L78.32300000000001,130.72511228030086L78.477,131.69782160041376L78.743,132.320770002221L78.925,132.5470382248794L79.135,131.645068291262L79.254,130.69588052997736L79.40100000000001,130.29586644685662L79.583,130.0687558785787L79.618,129.69739668094476L79.723,128.81246177378404L79.80699999999999,127.65157627206182L79.982,126.05896061905543L80.06599999999999,124.70638046737776L80.339,122.83283262189894L80.633,121.39630816855396L80.90599999999999,120.04267806533359L80.913,119.23611645154371L81.095,118.14844199894469L81.333,116.93153007120684L81.361,116.09146319313419L81.403,115.10011946251136L81.473,114.08220746408352L81.61999999999999,113.36683473651786L81.732,112.57367753674605L81.858,112.47953289020616L81.89999999999999,112.41426848387404L82.075,112.53591519549352L82.215,112.80395203151679L82.404,113.08944086730594L82.558,113.29134074205771L82.81700000000001,113.1205864911192L82.999,113.2331779188137L83.573,113.41135071650652L83.95100000000001,113.992959354298L83.965,114.38071792742035L84.14,114.38042858276836L84.16799999999999,114.04753413274872L84.21000000000001,113.6252111777527L84.217,113.27972146615926L84.511,112.09813501412275L85.43499999999999,109.81734493738992L85.533,108.60496518234365L85.61,108.09455320261797L85.74300000000001,107.67049871317461L85.90400000000001,107.54699371226867L85.946,107.49325417261267L86.751,108.01225102304895L86.94,108.77095472593433L87.15,109.65232111409173L87.465,110.89963198106048L87.57,111.53044138193458L87.87100000000001,111.93332634635603L88.10199999999999,112.20131345279988L88.361,112.46249589083827L88.508,112.81465314536781L88.774,113.39915740804477L88.893,113.81930596583683L88.949,114.19829460300619L89.11,114.80050129863011L89.558,115.57293857818098L89.831,116.36296057621881L91,117.69899881922261L91.434,118.91441281463537L91.945,119.78436397968866L91.95200000000001,120.34271882775184L93.247,120.37745892504688L93.723,120.94087335765266L94.09400000000001,121.52672093689385L94.32499999999999,121.69371535202555L94.35300000000001,121.92004422926234L94.675,122.23874441191099L94.717,122.31060732573269L94.89899999999999,122.77842676469953L95.04599999999999,123.34292553236374L95.41,124.51289748174125L95.494,125.30992292341534L96.061,126.11923241005508L96.306,126.81059340631307L96.34100000000001,127.20573709008303L96.45299999999999,127.43864165521171L97.02,127.9924286444304L97.111,128.1297594473172L97.15299999999999,128.3221543779129L97.19500000000001,128.5965398877951L97.377,128.73916576575698L97.608,128.82329881678174L97.70599999999999,128.78338605782753L97.762,128.6626237266904L98.028,128.50612676994422L98.056,128.41144597607345L98.196,128.31025067939134L98.203,128.23968937164625L98.217,128.21312007461182L98.308,128.18857735108034L98.49000000000001,128.42943847115345L98.553,128.75345897419376L98.672,129.15653920454022L98.777,129.5315094401103L99.162,129.50083577257004L99.176,129.47788930797452L99.211,129.4588425817829L99.295,129.45131229969678L99.61,129.56967311541655L99.806,129.8303981845187L100.037,130.04522280297863L100.1,130.22936132627402L100.401,130.40962804114517L100.59,130.6167587867177L100.695,130.76437004663057L100.814,130.94893049480294L101.318,131.09242170512655L101.472,131.07783469290072L102.396,131.5177998629678L102.41000000000001,131.77485815049388L102.55000000000001,132.09347397683587L102.557,132.30455424167013L102.893,132.66865078945065L102.928,132.9186743843177L103.21499999999999,133.4679550876607L103.586,134.0201174673941L103.593,134.36890107736033L103.6,134.59433004086424L103.63499999999999,134.83340730942234L103.65599999999999,134.92289893922282L103.75399999999999,135.01957662542725L103.88,135.0722353350253L103.92899999999999,135.08602212343672L104.195,135.13993934675491L104.713,135.33232776182825L104.93,135.55106662752263L105.301,94.10277758374124L105.693,82.95575373480399L105.896,83.1498828043756L106.232,87.87680431502727L106.54,100.94359373140034L106.638,108.07242708962866L106.729,112.03812165107445L106.75,115.06834048006064L106.75699999999999,116.98892591958938L106.813,117.61176581828308L107.051,121.45640401847452L107.17699999999999,125.52439612306257L107.191,128.17970594478095L107.583,131.08298974895308L108.17099999999999,135.5505946930442L108.255,138.01756382973699L108.28999999999999,140.08741865749187L109.046,140.04047946937803L109.704,136.4405541749906L109.739,133.99293250416204L110.124,134.45914148651434L110.404,133.87843776236426L110.607,133.6733116829368L110.69099999999999,133.2872297382555L110.71900000000001,133.19668999465065L110.79599999999999,133.3560367056832L110.929,133.84020012898964L110.95,134.20298309820402L111.006,133.6835170792843L111.02000000000001,132.95252971584338L111.244,132.03446756497414L111.54499999999999,129.88560499584096L111.846,126.97428485273753L112.931,123.41512172965233L113.057,121.82774162348198L113.274,121.61749035261815L113.764,122.20574872470455L113.869,122.80163814834148L114.387,123.96183283129892L114.471,125.18297245122909L114.982,123.77260529247039L114.989,122.80862373206739L115.129,121.87181026232838L115.185,121.21547020100388L115.549,120.98071446139767L115.556,120.86136771728272L115.696,121.1985327462643L115.899,121.62822118598325L116.515,122.43430547236267L116.55,123.0046964079182L116.56400000000001,123.35207170730529L116.683,123.96951549017575L117.551,125.01070996653257L117.691,126.49709107758969L117.852,127.42723742458287L118.251,128.3644738461016L118.874,131.15208774761624L119.44099999999999,134.64606561743068L119.98,137.17732808769364L120.078,138.84879618102138L120.407,139.98232851101704L120.82,140.21383795001898L120.96,140.4154299267025L120.974,140.55646468209574L121.32400000000001,139.55167106882055L121.331,138.9616237277597L121.765,138.42503774026798L121.996,138.76861223440682L122.15,138.78787192077772L123.046,139.94495297133096L123.424,140.76981471194512L123.452,141.1320316598364L123.66199999999999,141.52620321762038L123.718,141.8050827138891L123.72500000000001,141.99142346970586L124.089,142.43906390023005L124.152,142.65667045163536L124.327,142.94893744887096L124.369,143.14195262969247L125.006,143.31721782651155L125.328,143.47925499115894L125.335,143.59146983048026L126.21,144.68179793402703L126.315,145.48855962520113L126.36399999999999,146.0734288149628L126.399,146.47901862528693L126.406,146.75099951697183L126.49,147.0761136279327L126.525,147.3923193667371L126.805,147.11414357420765L126.81200000000001,146.97285738878173L126.861,146.83761437167902L126.896,146.8189170196555L127.10600000000001,147.05135424670263L127.134,147.24672019107967L127.61,147.15719001502455L127.694,147.13146974992608L127.869,147.15137824680068L128.023,146.73844518115425L128.20499999999998,146.07718585640376L128.415,145.4000221825795L129.017,145.16134272981077L129.493,144.72307203935077L129.808,144.5424995433154L129.906,144.31893445859973L129.962,144.05343036863852L130.06,143.62425451232636L130.36100000000002,143.52650318811703L130.438,143.46242776403324L130.459,143.46843071188954L130.613,143.31585378943288L130.641,143.11261551081185L130.858,142.92555397071052L131.173,142.84894926683128L131.495,143.246087373764L132.181,144.55357469841448L132.594,146.31430092235627L132.629,147.36470588043736L132.853,148.63235433749148L132.958,149.4971776303214L133.336,150.45274277634073L133.532,151.09197538396074L133.868,151.53294543261092L134.078,152.01860988908595L134.393,152.50184249255304L134.85500000000002,152.76122151781524L134.96699999999998,152.8966772906691L135.1,152.8632509138357L135.275,152.8018696919782L135.84900000000002,152.68908079956196L135.968,152.5788927931333L136.101,152.4141775643077L136.353,152.56457447695576L136.654,152.6324005411789L136.983,152.8881171397403L137.179,152.8743887119531L137.305,152.85329981014638L137.38899999999998,152.92691879544506L138.012,153.767559311505L138.15200000000002,154.4589590678906L138.264,154.830862249858L138.46,155.2898029080952L138.495,155.64352135826877L138.789,155.47383395469572L138.95000000000002,155.25849560174092L139.097,155.3650990117681L139.139,155.2589486646653L139.237,155.1473421740966L139.391,155.15148159250785L139.636,154.84193778917836L139.82500000000002,154.40910313440568L140.091,154.1393433749921L140.21699999999998,153.95781460535915L140.56,153.9210825131461L140.63,153.75075981956923L140.707,153.64956366006044L140.777,153.6514248592304L140.882,153.6522653599713L141.099,153.74759709564918L141.659,153.95734562061529L142.156,154.29583714517966L142.26100000000002,154.42282611849265L142.28900000000002,154.40360893875143L142.36599999999999,154.42006879869786L142.716,154.56773951273647L142.975,154.8252957500308L143.68900000000002,154.6070339105898L143.906,154.71264283031826L144.19299999999998,154.784394490652L144.445,155.06818548263527L144.61999999999998,155.21930891038912L144.662,155.37619106952783L144.732,155.54599663280834L144.80900000000003,155.66340193060168L144.977,155.73353052679974L145.08900000000003,155.79541870788393L145.103,155.82376632538285L145.166,155.90208778810245L145.775,156.37200227994765L146.39800000000002,156.5042480792834L146.54500000000002,156.60192574278096L146.594,156.7312520164638L146.734,156.8469966606784L147.16799999999998,156.7986284728558L147.21699999999998,156.85549624937676L147.49,156.7165274977451L147.96599999999998,156.80336605829228L148.274,156.8575715263023L148.365,156.92918743454692L148.81300000000002,156.69827840512238L148.85500000000002,156.58193023401918L149.83499999999998,156.8936024586627L150.059,157.10182860159313L150.192,157.39760559109004L150.409,157.71964928799255L150.51399999999998,157.57907280609135L150.626,157.30672935905042L150.79399999999998,156.87751644247325L151.046,156.50673900047707L151.07399999999998,156.31402743404422L151.19299999999998,156.1787505984298L151.494,156.28775344133325L151.914,156.30038201821904L151.92100000000002,156.31301550222727L151.98399999999998,156.27805790342322L152.10299999999998,156.23671988325324L152.313,156.20903211964645L152.985,155.67460903008865L153.81099999999998,155.23765173244527L153.97899999999998,154.8031091741912L154.161,154.4559194942719L154.26600000000002,154.1145449709051L154.56,153.3675181743377L154.595,152.86467216364693L155.225,151.7179269668588L156.282,150.15930736849754L156.555,149.07634322680696L156.751,148.5305687780891L156.989,148.32890640905154L156.99599999999998,148.21830555488694L157.108,148.22709956363673L157.353,148.1396585380783L157.52100000000002,147.92595889369605L157.60500000000002,147.7250935728981L157.62599999999998,147.58175564165535L157.773,147.43459344555674L158.2,147.3804475086099L158.24200000000002,147.373947528215L158.27,147.37455144033268L158.382,147.42652065946825L158.781,147.2065579551653L159.11,146.99444620089182L159.131,146.8264292083225L159.20100000000002,146.61101124515565L159.30599999999998,146.39452137520897L160.034,146.43112598423573L160.13199999999998,146.42850527991408L160.265,146.4288050067019L160.524,146.32915477886803L161.224,146.31959809297055L161.29399999999998,146.3476778614364L161.826,146.81255255301576L162.09199999999998,147.10409903079687L162.127,147.28694518861695L162.30900000000003,147.41011854791253L162.54,147.44842103428172L162.624,147.38108666396784L162.757,147.28953186177293L162.883,147.1098555188471L162.953,146.9225984555593L163.198,146.57739947472498L163.52700000000002,146.07366717326602L164.171,145.5863382042254L164.5,144.85339491708092L164.633,144.231746563355L164.794,143.71027462154294L164.899,143.1601425589032L164.934,142.76607264166518L165.44500000000002,141.72578806006902L165.662,140.91908274648623L166.383,139.83235022162222L166.845,138.94916931286895L167.09,138.16451801519497L167.78300000000002,137.17294745351506L168.29399999999998,136.22591826902843L168.30100000000002,135.65553704470787L168.46200000000002,135.2120280977132L168.847,134.32162996571964L170.28900000000002,132.5383375215849L170.52700000000002,131.39883165474117L170.534,130.71950927109566L170.786,130.32763729206084L170.84199999999998,130.05306853100657L170.84900000000002,129.8883042561439L170.863,129.7697113952945L171.045,129.443498343885L171.24099999999999,129.2007289234758L171.297,129.12304010469032L171.48600000000002,129.06398929642629L171.661,128.77990054453335L171.759,128.5310548744495L172.333,127.72007310293395L172.55700000000002,127.03260394601665L172.774,126.4594782240581L172.844,126.10150028858024L174.601,125.1120580117962L174.629,124.51796297209737L174.75500000000002,124.11830073039641L174.762,123.85124980094758L174.87400000000002,123.62601576150007L175.17499999999998,123.48678576561863L175.33599999999998,123.28709777904837L175.756,122.99270705734935L176.08499999999998,122.60603894748887L176.26,122.15953886809386L176.40699999999998,121.6273588480336L176.95299999999997,120.72353357379875L177.03,120.11523747084232L177.387,119.50710289912581L177.527,119.0358088783832L177.548,118.741377568768L177.56900000000002,118.54172357113751L178.024,117.98977157533574L178.857,117.23882458842044L178.927,116.79714910582993L178.948,116.54392147733908L178.976,116.40842758927319L179.123,116.35423905873803L179.284,116.25284005049663L179.522,115.99561677915497L180.005,115.64356389260782L180.201,115.45480562599214L180.55800000000002,115.22165637821982L180.73999999999998,115.12049883805692L180.831,115.07419070776635L180.95700000000002,115.04741863171603L181.251,114.928440879347L181.51,114.77130364809162L181.91600000000003,114.57853397552047L182.091,114.48000540790918L182.26600000000002,114.22986764855693L182.427,113.97120800160418L182.62300000000002,113.78043370245454L182.82600000000002,113.63457225712003L182.861,113.55296340230947L182.952,113.49530487119192L183.365,113.5147181930593L183.4,113.52909001007387L183.90400000000002,113.56501272117106L184.625,113.42404997064045L184.842,113.36793819820181L184.89100000000002,113.30917359119562L184.898,113.27035467407106L185.01,113.24048778273355L185.136,113.27764259979648L185.28300000000002,113.33122493747189L185.346,113.36488587051977L185.479,113.48311707230798L185.598,113.51568440381848L185.64000000000001,113.52380008785607L185.71699999999998,113.54167479828027L185.86399999999998,113.56657118152775L186.137,113.64679638475894L186.70399999999998,113.94530846814564L187.04000000000002,114.20342962933822L187.15900000000002,114.42026740145992L187.187,114.58408409907352L187.39000000000001,114.85029210615878L187.551,115.14860967379047L187.558,115.33573332233517L187.726,115.44232200862939L188.083,115.73527591884232L188.10399999999998,115.90807891328826L188.195,115.93708189879587L188.258,115.930728876646L188.30700000000002,115.92084025061197L188.447,115.89141313481156L188.538,115.9294993458694L189.112,116.1946716534201L189.161,116.38621539689271L189.231,116.51380934226991L189.574,116.67599352543643L190.01500000000001,116.80484668330496L190.29500000000002,117.00151577379357L190.561,117.14935652702863L190.56799999999998,117.23832952498739L191.128,117.33521010589212L191.443,117.50074151604161L191.492,117.65127592408477L191.562,117.8218457917528L191.88400000000001,117.80092509021392L191.912,117.81226559212553L191.954,117.79006692335727L192.017,117.83785345024575L192.731,117.93612482143195L192.78,117.95834287617438L192.969,117.85425771732343L193.35399999999998,117.65559240907504L193.368,117.50791967350287L193.809,117.16983678168518L193.914,116.88090653879593L194.48100000000002,116.47664485427178L194.593,116.22508771559151L194.691,116.07226593751585L194.754,115.99878029067281L194.915,115.90242984751603L194.964,115.84175764834728L195.13199999999998,115.78393970211759L195.272,115.70037355915233L195.65,115.68145426612051L195.944,115.76223699261408L196.049,115.83189874568106L196.063,115.87336586955664L196.175,115.95364335096875L196.81199999999998,115.92253505538106L197.32999999999998,116.03434507893009L197.47,116.18237853554777L197.477,116.2776590594307L197.54,116.39935514545014L197.687,116.56502117317984L197.883,116.73170307637497L198.303,117.1243046137277L198.345,117.40493523065844L198.471,117.60404293798894L198.94,117.85966039337809L199.171,118.15927335512586L199.57700000000003,118.47675153006827L199.71,118.66229718830743L199.82899999999998,118.7509362811241L199.955,118.79296356796313L200.116,118.74881834005768L200.249,118.75724985836314L200.683,118.90723154600212L200.781,119.00276027929414L200.991,119.10312928228375L201.173,119.21499591965932L201.299,119.30274023624659L201.334,119.38641540036224L201.40400000000002,119.44419349653168L201.733,119.51059482078611L202.069,119.66156763022028L202.223,119.67344431445474L202.342,119.7632057710237L202.58,119.89540902745298L202.587,119.97187672077922L202.90200000000002,119.91224944277913L203.007,119.85481292146306L203.27300000000002,119.98015123471154L203.315,120.06670988283909L203.399,120.1874158704855L203.58100000000002,120.32210377547068L203.595,120.40529506890456L203.833,120.60801252905527L204.134,120.7136069715153L204.351,120.82400522655487L204.673,121.08223156402798L205.184,121.46949036282476L205.296,121.77536586901488L206.136,122.346395403575L206.31099999999998,122.7829044848541L206.556,122.99184498618115L206.626,123.09960801370077L207.03199999999998,123.2744924613771L207.04600000000002,123.39423919741841L207.522,123.66603125836082L207.99099999999999,124.05048048645904L208.089,124.286022215354L208.46,124.5934237828007L208.81,124.95486723992855L209.41899999999998,125.37651883458545L209.447,125.65541297297585L209.461,125.83580079247193L209.958,126.15136635534655L210.014,126.39215911006906L210.168,126.53212318980465L210.651,126.81026808121067L210.756,127.05298473871886L210.86100000000002,127.22461766048374L211.099,127.3752528225753L211.19,127.48328122956703L211.197,127.55512650668328L211.40699999999998,127.71739905013649L211.498,127.89254117568737L211.70100000000002,128.08416732341837L212.05100000000002,128.44524625545125L212.079,128.66490900281298L212.268,128.913501150714L212.282,129.05852083078156L212.66,129.34739484398062L212.8,129.4882328564977L213.241,129.80795128456901L213.75900000000001,129.9731809401694L213.79399999999998,130.07462055653886L213.87099999999998,130.1512211229997L213.934,130.22187235102095L214.26999999999998,130.33797513332985L214.71099999999998,130.71757727089647L215.005,131.03201753521742L215.152,131.29002794833218L215.327,131.50941567709418L216.006,131.80135494145162L216.013,131.9821809846686L216.629,132.23127963274067L217.175,132.59899000656756L217.693,133.0191842857565L217.75599999999997,133.2843521897317L217.84,133.47008502433263L218.24599999999998,133.74792351042424L218.351,133.94043771075508L218.50500000000002,134.1174125780411L218.85500000000002,134.28333747824334L218.96,134.40779047058027L219.002,134.4817717190797L219.149,134.57710748411506L219.387,134.7868277357222L219.48499999999999,134.96572457979056L219.541,135.10785857738654L219.576,135.21512905842476L219.77200000000002,135.3707893203337L220.059,135.54286178793166L220.752,135.6803947585833L221.417,135.78800441177395L221.47299999999998,135.87758334705438L221.725,135.98171761389278L221.858,136.0786257734693L221.928,136.15230030178353L222.096,136.29836068692674L222.215,136.40368259146624L222.292,136.49597077702555L222.684,136.7690117448491L222.733,136.96726392501674L222.768,137.06733261169893L222.887,137.1322076520275L222.978,137.16936027250756L223.412,137.24100293011168L223.454,137.31180989211128L223.524,137.37376749196844L223.566,137.43824167277117L224.231,137.5710937605569L224.273,137.67499717305444L224.462,137.8414276570265L224.53199999999998,137.9893096481238L224.65099999999998,138.150899213765L224.728,138.21454557420736L225.022,138.32814111225238L225.16899999999998,138.50037919880947L225.38600000000002,138.65325728190055L225.603,138.85860211548658L225.673,138.9458622129787L225.764,139.0676105624563L225.82,139.18463206436093L225.96699999999998,139.25637951417644L226.59699999999998,139.50520328833983L226.87699999999998,139.71159043620804L226.968,139.88426740918297L227.171,140.080099968201L227.234,140.2129756813129L227.72400000000002,140.29838661201262L227.969,140.40194593468698L228.879,140.4328611355442L228.914,140.4613771496881L229.075,140.58354963305518L229.089,140.66544659564286L229.726,140.76998198028224L229.88,140.88044302027552L230.81099999999998,140.74341496336052L230.95100000000002,140.7073803715183L231.182,140.68802307570533L231.217,140.68533209874963L231.329,140.7118918262081L231.686,140.75096865666848L231.966,140.71206604237034L232.134,140.7454720837102L232.414,140.8344783258681L232.505,140.93604388125755L232.512,141.00203187962458L232.603,141.05468368785003L232.75,141.127331622525L232.764,141.18104073182687L232.785,141.1942531393525L232.911,141.24723493290017L233.422,141.43477302657084L233.793,141.60816375587837L233.87,141.74526771736092L234.01,141.8578834669977L234.04500000000002,141.93845054403806L234.073,141.98345314689902L234.619,142.15883789252842L234.633,142.2694626784908L234.71699999999998,142.3435563298922L234.864,142.44080099507607L234.983,142.55202834144984L235.074,142.6339491083911L235.242,142.73223014431437L235.28400000000002,142.7720475984322L235.417,142.82020695816271L235.438,142.83248341187493L235.837,142.91634653543952L236.04,142.9162391401913L236.103,142.9154381196794L236.35500000000002,142.97752872950417L236.971,143.21079099737105L237.279,143.49786553934894L237.307,143.68554015144028L237.349,143.8178638691401L237.622,143.99073513216132L237.67100000000002,144.1253867184736L237.685,144.20276329946407L237.762,144.2620104022193L237.972,144.3363597270632L237.986,144.39050654197078L238.13299999999998,144.47314368154125L238.154,144.54008171077248L238.41299999999998,144.6417108753987L238.812,144.2606462834984L238.945,144.09083445172857L239.4,144.13561951480935L239.428,144.17287177442904L240.359,144.4121929670428L240.541,144.57340997411777L240.695,144.67239596491163L240.96800000000002,144.770719059216L241.171,144.87957040217665L241.24099999999999,144.96843653007994L241.24800000000002,145.02306824593717L241.682,145.16210709829696L241.696,145.24878365289905L242.179,145.45106793718398L242.2,145.57485542191455L242.20700000000002,145.65168293629304L242.522,145.76368831041532L242.683,145.8292342223221L242.823,145.90117092876235L242.88600000000002,145.9386321043072L243.628,146.11452531319358L243.91500000000002,146.24380070649303L244.28599999999997,146.3673103297352L244.38400000000001,146.45026277677903L244.65699999999998,146.52504738837135L244.727,146.60354011674696L244.96499999999997,146.71052918847028L245,146.75826459698885" style="fill: none;" fill="none"></path></g></g></g></g><g opacity="0.2"><g><g><g><path stroke="rgb(255, 112, 67)" stroke-width="2px" d="M21.21,111.86751638759269L21.49,70.34508458050816L21.776999999999997,19.978588407689898L22.029,14.648256865414737L22.308999999999997,-0.1884502497586027L22.372,-0.5044905489141058L23.855999999999998,16.328204024921774L24.122,23.916930848901956L24.339000000000002,27.34123784845528L24.514,28.01152870871806L24.709999999999997,28.26733797246763L24.794,30.38731696388942L24.969,31.15785221620044L25.557,38.766144535758286L26.089,48.49130838567564L26.215,48.639775969765424L26.740000000000002,48.31460510600698L26.922,48.91833491758868L27.195,51.757019779898926L27.237000000000002,52.6218146844344L27.377,52.27458468350501L27.671,54.831564773212804L27.825000000000003,54.18387014215645L28,54.07909883152357L28.21,55.43663731488316L28.42,55.914227225563764L28.448,56.19397544860841L28.581,56.152887907895206L28.692999999999998,55.39907923611729L28.756,55.6736867211082L28.91,55.09447132457389L28.938,54.91205185109922L29.119999999999997,55.413657448508545L29.232000000000003,54.49292824485087L29.637999999999998,55.742089228196605L29.645,55.91656741228974L29.855,57.578215078874095L29.89,57.59973712400959L29.946,58.482639702883645L30.03,57.850213831121295L30.226000000000003,57.349145325747415L30.429,56.76383009823887L30.695,56.687332846901654L30.793,56.09258014505562L30.982,55.159344369714944L31.101,52.959453756159036L31.520999999999997,47.95694017410281L31.801,50.05712348764595L31.878,50.50759025053547L31.927,50.36395649476488L32.437999999999995,52.59396262602375L32.577999999999996,51.54997080022642L32.872,52.941652991554975L33.222,52.1715781038458L33.243,52.19478815252134L33.362,52.735985105687945L33.558,53.48453794826163L33.782,53.255161285400405L33.838,53.12744847210975L33.978,51.12513100017203L34.321,50.62037957798353L34.349000000000004,50.37090032750913L34.475,51.21382791345772L34.916000000000004,50.784691377119614L35.147,50.53954722664575L35.217,50.45641305229883L35.336,50.285963058471694L36.211,53.837752689014806L36.267,54.08934194391426L37.001999999999995,56.1804714202881L37.288999999999994,57.44451752575962L37.485,58.0751403028315L37.905,56.55497802387586L38.262,56.58405772122471L38.444,56.95307831330736L39.669,57.40584689920601L39.879,57.35144714875658L39.998000000000005,57.62521063197745L40.312999999999995,57.58868837356569L40.439,57.82658178156075L40.522999999999996,57.83835944262421L40.607,58.12869605151093L40.768,59.08686824278401L40.809999999999995,58.819664955139174L41.244,59.36949374459009L41.433,59.50875403664331L41.636,60.422692862424014L41.699,60.787608536806985L42.007,61.79158700596204L42.153999999999996,62.45290075648917L42.679,64.48069173639473L43.344,66.90876973759046L43.54,67.57902223413643L43.561,67.74851313504307L43.582,67.46051671288232L43.693999999999996,67.29413327303803L43.729,67.42675664208154L44.058,68.22126921740448L44.177,68.67311707409947L44.632,69.73483293706724L44.884,70.75991145047276L45.948,75.07448686252943L46.025,75.41607739708643L46.053000000000004,75.39628171920778L46.172,75.46564331921665L46.368,75.37007930062036L47.166,77.29870007254863L47.39,77.18775220350788L47.411,77.21525898846714L47.649,77.98782751776957L48.034,79.31352411616935L48.055,79.30907392501832L48.104,79.64429608258335L48.23,80.19366450743244L48.538000000000004,81.2030906243758L48.601,80.98445580222392L48.769,80.5223264694214L48.902,80.81300835175949L49.112,80.4428368481723L49.489999999999995,80.0819493640553L49.994,79.51286198876123L50.113,79.37014896219429L50.386,79.39427974007349L50.483999999999995,79.16827908429234L50.631,79.56426936929878L51.345000000000006,76.99466761675751L51.352000000000004,77.02585731853141L51.716,75.96218490600587L52.073,75.4367554404519L52.346000000000004,74.91021342711018L52.367,74.74977636337282L53.417,71.50347700985996L53.676,70.95909586819737L53.732,70.81001446463847L54.361999999999995,70.27292242917149L54.453,69.72846456007527L54.641999999999996,69.77001246539032L54.705,69.51109574057841L54.747,69.56929349899293L54.81,69.75927062468098L55.174,69.52402431314644L55.258,69.59645501050083L55.272,69.58789990165019L55.285999999999994,69.57857751846315L55.377,69.42086427861997L55.397999999999996,69.37935473702173L55.916,68.73166010596537L55.986,68.82173811305655L56.154,69.0095285068859L56.251999999999995,69.04390239715578L56.469,69.25981339541352L56.497,69.20249800248583L56.546,69.34663048657505L56.651,69.53656924854627L56.735,69.54531617598103L56.896,69.50695245916197L57.001000000000005,69.40567224675962L57.175999999999995,69.45669599012898L57.19,69.45193888924341L57.351,69.5895495414734L57.61,68.90099755200474L57.841,67.7443314899098L57.897,67.5047117146579L58.31699999999999,66.21074191006748L58.569,65.13199255683207L58.653,64.69610400633381L58.8,64.44532038948755L58.919,64.26140473105693L59.206,64.08098017085685L59.829,63.7431109168313L59.857,63.763750596479966L60.647999999999996,63.81807361949576L60.788,63.893803596496596L61.376000000000005,63.51592098582877L61.775,63.291339787569925L61.837999999999994,63.3471973592585L62.517,63.40317002209751L62.671,63.60043625398119L62.713,63.65924783186482L62.754999999999995,63.72899306904188L63.014,63.24246441234244L63.119,63.102091572501465L63.14,63.052180376919864L63.25899999999999,62.97019711407749L63.343,62.82107734680177L63.608999999999995,63.27672321146187L63.910000000000004,63.317542206157356L64.645,63.995544173500775L64.87599999999999,64.048294284127L65.023,63.86921245401558L65.583,64.49642086029054L66.09400000000001,64.71294567801738L66.115,64.64634626561948L66.129,64.68716526031496L66.248,64.7089558514682L66.59100000000001,65.28924543207344L66.843,65.37732852589002L66.885,65.47914583032784L67.053,65.96344939145176L67.172,66.3258330605247L67.263,66.55068280480127L67.319,66.47322646054356L67.326,66.43781674991956L67.459,66.66984050924131L67.592,66.97582951459019L67.606,67.03606054999614L67.732,67.13787785443394L67.998,67.6543685739691L68.08200000000001,67.7461345846003L68.432,67.84407715363939L68.46,67.90438491647896L68.614,67.95352883772419L68.796,68.26377621564L68.817,68.24413399262865L68.908,68.39148902893068L69.139,68.2044275457209L69.244,68.17465730146931L69.601,68.12566683509135L70.301,32.09262254021388L70.399,55.75317634235731L70.7,81.06060778010978L70.74199999999999,88.94876341386276L71.33699999999999,72.77707568081944L71.848,91.85941860892558L71.932,94.81158334558663L72.06500000000001,96.98496463082056L72.142,101.50279101458466L72.21900000000001,99.60282793912023L72.667,111.61320330879907L72.912,111.8896906159141L73.03099999999999,115.56831069426104L73.63300000000001,114.70393779061058L74.20700000000001,111.62267914685339L74.40299999999999,112.49733352661134L74.59200000000001,113.94416356086734L74.669,115.64221839471298L75.355,120.66247519579802L75.41799999999999,120.41529776833275L75.845,124.11031833561985L75.922,125.52379111810166L76.839,133.94127013466576L76.895,132.60118714245885L77.26599999999999,132.03896687247538L77.672,127.25673775239426L77.882,128.65164249593562L77.994,130.0727112943476L78.064,130.04568405584857L78.12700000000001,129.64892649650577L78.32300000000001,132.33340839906174L78.477,133.15688558058307L78.743,133.25519260493195L78.925,132.88644055886704L79.135,130.29211339083588L79.254,129.27209888805044L79.40100000000001,129.69584532217547L79.583,129.7280900261619L79.618,129.14035788449377L79.723,127.48505941304295L79.80699999999999,125.91024801947856L79.982,123.67003713954581L80.06599999999999,122.67751023986125L80.339,120.02251085368071L80.633,119.2415214885365L80.90599999999999,118.01223291050306L80.913,118.02627403085884L81.095,116.51693032004619L81.333,115.10616217960013L81.361,114.83136287602514L81.403,113.61310386657718L81.473,112.55533946644178L81.61999999999999,112.29377564516936L81.732,111.3839417370883L81.858,112.3383159203963L81.89999999999999,112.31637187437579L82.075,112.71838526292282L82.215,113.2060072855516L82.404,113.51767412098974L82.558,113.59419055418536L82.81700000000001,112.86445511471143L82.999,113.40206506035545L83.573,113.67860991304573L83.95100000000001,114.86537231098524L83.965,114.96235578710385L84.14,114.37999456579037L84.16799999999999,113.5481924577193L84.21000000000001,112.9917267452587L84.217,112.76148689876905L84.511,110.32575533606791L85.43499999999999,106.39615982229061L85.533,106.78639554977418L85.61,107.32893523302947L85.74300000000001,107.03441697900948L85.90400000000001,107.36173621090978L85.946,107.41264486312868L86.751,108.7907462987033L86.94,109.90901028026236L87.15,110.97437069632792L87.465,112.77059828151359L87.57,112.47665548324586L87.87100000000001,112.5376537929882L88.10199999999999,112.60329411246562L88.361,112.85426954789597L88.508,113.34288902716204L88.774,114.27591380206023L88.893,114.44952880252494L88.949,114.76677755876023L89.11,115.703811342066L89.558,116.73159449750729L89.831,117.54799357327549L91,119.70305618372832L91.434,120.73753380775455L91.945,121.08929072726859L91.95200000000001,121.1802510998466L93.247,120.42956907098946L93.723,121.78599500656131L94.09400000000001,122.40549230575564L94.32499999999999,121.94420697472313L94.35300000000001,122.25953754511748L94.675,122.71679468588397L94.717,122.41840169646525L94.89899999999999,123.48015592314982L95.04599999999999,124.1896736838601L95.41,126.26785540580752L95.494,126.50546108592643L96.061,127.33319664001468L96.306,127.84763490069999L96.34100000000001,127.79845261573794L96.45299999999999,127.78799850290474L97.02,128.82310912825847L97.111,128.33575565164742L97.15299999999999,128.6107467738065L97.19500000000001,129.00811815261844L97.377,128.9531045826999L97.608,128.9494983933189L97.70599999999999,128.72351691939616L97.762,128.48148022998464L98.028,128.271381334825L98.056,128.26942478526723L98.196,128.15845773436808L98.203,128.13384741002864L98.217,128.17326612906024L98.308,128.15176326578316L98.49000000000001,128.79073015126318L98.553,129.23948972875422L98.672,129.76115955005994L98.777,130.09396479346537L99.162,129.45482527125966L99.176,129.44346961108124L99.211,129.43027249249548L99.295,129.4400168765675L99.61,129.7472143389962L99.806,130.22148578817195L100.037,130.36745973066851L100.1,130.50556911121717L100.401,130.6800281134519L100.59,130.92745490507647L100.695,130.98578693649986L100.814,131.22577116706157L101.318,131.30765852061188L101.472,131.05595417456195L102.396,132.17774761806837L102.41000000000001,132.16044558178297L102.55000000000001,132.57139771634883L102.557,132.6211746389216L102.893,133.21479561112145L102.928,133.29370977661827L103.21499999999999,134.29187614267525L103.586,134.84836103699425L103.593,134.8920764923096L103.6,134.93247348612007L103.63499999999999,135.19202321225947L103.65599999999999,135.05713638392365L103.75399999999999,135.16459315473384L103.88,135.1512233994224L103.92899999999999,135.10670230605388L104.195,135.2208151817322L104.713,135.62091038443828L104.93,135.87917492606425L105.301,31.930344018069206L105.693,66.23521796139805L105.896,83.44107640873304L106.232,94.96718658100477L106.54,120.54377785595982L106.638,118.76567712697117L106.729,117.98666349324314L106.75,119.61366872353989L106.75699999999999,119.86980407888241L106.813,118.54602566632359L107.051,127.22336131876168L107.17699999999999,131.6263842799447L107.191,132.16267067735848L107.583,135.4379154552113L108.17099999999999,142.2520021091808L108.255,141.71801753477618L108.28999999999999,143.19220089912415L109.046,139.97007068720734L109.704,131.04066623340955L109.739,130.32149999791926L110.124,135.1584549600428L110.404,133.00738217613915L110.607,133.36562256379563L110.69099999999999,132.7081068212336L110.71900000000001,133.06088037924334L110.79599999999999,133.59505677223208L110.929,134.56644526394933L110.95,134.74715755202556L111.006,132.90431805090472L111.02000000000001,131.85604867068207L111.244,130.65737433867022L111.54499999999999,126.66231114214119L111.846,122.60730463808235L112.931,118.07637704502454L113.057,119.44667146422648L113.274,121.30211344632237L113.764,123.08813628283416L113.869,123.69547228379685L114.387,125.7021248557351L114.471,127.01468188112435L114.982,121.6570545543324L114.989,121.36265139146286L115.129,120.46659005771986L115.185,120.23096010901713L115.549,120.62858085198837L115.556,120.68234760111031L115.696,121.70428028973667L115.899,122.27275384556165L116.515,123.64343190193179L116.55,123.86028281125157L116.56400000000001,123.87313465638596L116.683,124.89568116448143L117.551,126.57250168106773L117.691,128.72666274417531L117.852,128.82245694507253L118.251,129.7703284783797L118.874,135.3335085998882L119.44099999999999,139.88703242215246L119.98,140.97422179308808L120.078,141.35599832101303L120.407,141.6826270060106L120.82,140.5611021085219L120.96,140.7178178917278L120.974,140.76801681518558L121.32400000000001,138.04448064890778L121.331,138.07655271616852L121.765,137.62015875903046L121.996,139.28397397561508L122.15,138.81676145033404L123.046,141.68057454716077L123.424,142.0071073228663L123.452,141.67535708167338L123.66199999999999,142.11746055429634L123.718,142.2234019582922L123.72500000000001,142.27093460343102L124.089,143.11052454601636L124.152,142.98308027874342L124.327,143.38733794472435L124.369,143.43147540092468L125.006,143.5801156217402L125.328,143.72231073813006L125.335,143.75979208946228L126.21,146.31729008934715L126.315,146.69870216196236L126.36399999999999,146.95073259960523L126.399,147.08740334077316L126.406,147.15897085449913L126.49,147.56378479437396L126.525,147.8666279749437L126.805,146.69687988541344L126.81200000000001,146.76092811064288L126.861,146.63474984602496L126.896,146.79087099162018L127.10600000000001,147.40001008727336L127.134,147.5397691076452L127.61,147.0228947509419L127.694,147.0928893522783L127.869,147.1812409921126L128.023,146.11904558268463L128.20499999999998,145.08529686927795L128.415,144.3842766718431L129.017,144.8033235506578L129.493,144.06566600366074L129.808,144.27164079926231L129.906,143.98358683152634L129.962,143.6551742336967L130.06,142.98049072785813L130.36100000000002,143.37987620180306L130.438,143.3663146279075L130.459,143.47743513367394L130.613,143.08698840574786L130.641,142.80775809288025L130.858,142.64496166055855L131.173,142.73404221101242L131.495,143.84179453416306L132.181,146.51480568539014L132.594,148.9553902582689L132.629,148.940313317559L132.853,150.5338270230727L132.958,150.79441256956622L133.336,151.88609049536967L133.532,152.05082429539075L133.868,152.19440050558612L134.078,152.74710657379845L134.393,153.22669139775365L134.85500000000002,153.15029005570847L134.96699999999998,153.0998609499498L135.1,152.81311134858566L135.275,152.7097978591919L135.84900000000002,152.5198974609375L135.968,152.4136107834903L136.101,152.16710472106934L136.353,152.79016984592786L136.654,152.7341396375136L136.983,153.2716920375824L137.179,152.8537960702723L137.305,152.82166645743632L137.38899999999998,153.03734727339312L138.012,155.0285200855949L138.15200000000002,155.4960587024689L138.264,155.38871702280915L138.46,155.97821389545095L138.495,156.17409903352913L138.789,155.21930284933612L138.95000000000002,154.93548807230866L139.097,155.52500412680888L139.139,155.09972314401108L139.237,154.97993243824354L139.391,155.1576907201247L139.636,154.37762208418414L139.82500000000002,153.75985115224665L140.091,153.73470373587176L140.21699999999998,153.68552145090973L140.56,153.8659843748266L140.63,153.49527577920395L140.707,153.4977694207972L140.777,153.65421665798536L140.882,153.6535261110826L141.099,153.89059469916606L141.659,154.27196840806442L142.156,154.80357443202627L142.26100000000002,154.6133095784621L142.28900000000002,154.37478316913953L142.36599999999999,154.4447585886175L142.716,154.78924558379435L142.975,155.21163010597232L143.68900000000002,154.27964115142822L143.906,154.87105620991102L144.19299999999998,154.89202198115265L144.445,155.4938719706102L144.61999999999998,155.44599405202L144.662,155.61151430823588L144.732,155.8007049777291L144.80900000000003,155.83950987729162L144.977,155.83872342109683L145.08900000000003,155.88825097951025L145.103,155.86628775163132L145.166,156.0195699821819L145.775,157.07687401771545L146.39800000000002,156.70261677828705L146.54500000000002,156.74844223802742L146.594,156.9252414269881L146.734,157.0206136270003L147.16799999999998,156.7260761911219L147.21699999999998,156.94079791415822L147.49,156.50807437029755L147.96599999999998,156.93362389911306L148.274,156.93887972831726L148.365,157.03661129691386L148.81300000000002,156.35191486098552L148.85500000000002,156.4074079773643L149.83499999999998,157.36111079562795L150.059,157.41416781598872L150.192,157.84127107533544L150.409,158.2027148333463L150.51399999999998,157.3682080832395L150.626,156.89821418848908L150.79399999999998,156.23369706760755L151.046,155.9505728374828L151.07399999999998,156.024960084395L151.19299999999998,155.97583534500816L151.494,156.45125770568848L151.914,156.31932488354772L151.92100000000002,156.3319657282396L151.98399999999998,156.22562150521713L152.10299999999998,156.17471285299823L152.313,156.16750047423625L152.985,154.87297439575195L153.81099999999998,154.58221578598022L153.97899999999998,154.15129533681005L154.161,153.935134974393L154.26600000000002,153.60248318585485L154.56,152.24697797948664L154.595,152.11040314761078L155.225,149.99780917167664L156.282,147.8213779709556L156.555,147.45189701427114L156.751,147.7119071050124L156.989,148.02641285549512L156.99599999999998,148.05240427364004L157.108,148.24029057676142L157.353,148.0084969997406L157.52100000000002,147.60540942712265L157.60500000000002,147.42379559170118L157.62599999999998,147.3667487447912L157.773,147.21385015140882L158.2,147.29922860318965L158.24200000000002,147.36419755762276L158.27,147.37545730850914L158.382,147.5044744881717L158.781,146.8766138987108L159.11,146.6762785694816L159.131,146.57440371946856L159.20100000000002,146.28788430040535L159.30599999999998,146.06978657028893L160.034,146.48603289777583L160.13199999999998,146.4245742234317L160.265,146.42925459688362L160.524,146.17967943711716L161.224,146.30526306412438L161.29399999999998,146.3897975141352L161.826,147.50986459038475L162.09199999999998,147.54141874746844L162.127,147.5612144253471L162.30900000000003,147.59487858685583L162.54,147.50587476383558L162.624,147.28008510849693L162.757,147.15219965848058L162.883,146.84034100445837L162.953,146.64171286062762L163.198,146.05960100347346L163.52700000000002,145.31806872107768L164.171,144.85534475066447L164.5,143.75397998636421L164.633,143.2992740327662L164.794,142.92806670882487L164.899,142.33494446494365L164.934,142.1749677658081L165.44500000000002,140.1653611876748L165.662,139.70902477611196L166.383,138.2022514343262L166.845,137.62439794973895L167.09,136.98754106868398L167.78300000000002,135.68559161099523L168.29399999999998,134.80537449229848L168.30100000000002,134.799965208227L168.46200000000002,134.54676467722115L168.847,132.98603276772934L170.28900000000002,129.86339885538277L170.52700000000002,129.68957285447556L170.534,129.7005256956274L170.786,129.73982932350853L170.84199999999998,129.64121538942513L170.84900000000002,129.6411578438499L170.863,129.59182210402057L171.045,128.9541787667708L171.24099999999999,128.83657479286197L171.297,129.00650687651202L171.48600000000002,128.97541308403018L171.661,128.35376741669396L171.759,128.15778636932376L172.333,126.5036004456607L172.55700000000002,126.00140021064067L172.774,125.59978964112022L172.844,125.5645333853635L174.601,123.62789459662005L174.629,123.62682041254912L174.75500000000002,123.51880736784503L174.762,123.45067340677437L174.87400000000002,123.28816470232879L175.17499999999998,123.2779407717965L175.33599999999998,122.98756579919296L175.756,122.55112097480082L176.08499999999998,122.02603678269821L176.26,121.48978874900126L176.40699999999998,120.82908881794324L176.95299999999997,119.36779566244647L177.03,119.20279331640765L177.387,118.59490104155108L177.527,118.32886784726925L177.548,118.29973060434517L177.56900000000002,118.2422425746918L178.024,117.16184358163315L178.857,116.11240410804751L178.927,116.13463588194415L178.948,116.16408003460279L178.976,116.20518675717442L179.123,116.27295626293531L179.284,116.10074153813451L179.522,115.60978187214246L180.005,115.11548456278716L180.201,115.17166822606869L180.55800000000002,114.87193250656131L180.73999999999998,114.96876252781263L180.831,115.0047285123305L180.95700000000002,115.00726051764056L181.251,114.74997425079349L181.51,114.53559780120852L181.91600000000003,114.28937946666373L182.091,114.33221255649222L182.26600000000002,113.85466100952843L182.427,113.5832185311751L182.62300000000002,113.49427225373009L182.82600000000002,113.41578008911827L182.861,113.43055012009361L182.952,113.40881707451561L183.365,113.54383817586034L183.4,113.55064773559573L183.90400000000002,113.61889678781685L184.625,113.21260584484449L184.842,113.28377053954387L184.89100000000002,113.22102668068626L184.898,113.21212629838425L185.01,113.19568744572729L185.136,113.33337482539092L185.28300000000002,113.41159844398501L185.346,113.41537727009168L185.479,113.66046387499031L185.598,113.56453540108421L185.64000000000001,113.53597361391243L185.71699999999998,113.56848686391659L185.86399999999998,113.603915756399L186.137,113.76713418960574L186.70399999999998,114.39307659322567L187.04000000000002,114.59061137112707L187.15900000000002,114.74552405964246L187.187,114.82980914549395L187.39000000000001,115.24960411678663L187.551,115.59608602523807L187.558,115.61641879515216L187.726,115.60220503807071L188.083,116.17470678416167L188.10399999999998,116.16728340495719L188.195,115.98058637705718L188.258,115.92119934342125L188.30700000000002,115.9060073115609L188.447,115.84727246111092L188.538,115.98662866245618L189.112,116.59243011474612L189.161,116.67353101210162L189.231,116.70520026033577L189.574,116.91926980018619L190.01500000000001,116.99812642010777L190.29500000000002,117.2965194095265L190.561,117.37111765688118L190.56799999999998,117.37178902192551L191.128,117.48053097724917L191.443,117.74903863126583L191.492,117.87707753614947L191.562,118.0777005932548L191.88400000000001,117.76954403790562L191.912,117.8292763449929L191.954,117.75676892020488L192.017,117.90953324057841L192.731,118.08353187821129L192.78,117.99166995828804L192.969,117.69812997904693L193.35399999999998,117.35759444670245L193.368,117.28641057014468L193.809,116.66271244395865L193.914,116.44751117446208L194.48100000000002,115.87025232748553L194.593,115.84775200757116L194.691,115.8430332704024L194.754,115.88855182040824L194.915,115.75790418278089L194.964,115.75074934959414L195.13199999999998,115.69721278277312L195.272,115.57502434470439L195.65,115.65307532657279L195.944,115.88341108235448L196.049,115.9363913752816L196.063,115.93556655537L196.175,116.07405957308684L196.81199999999998,115.87587261199954L197.32999999999998,116.20206011425367L197.47,116.40442872047427L197.477,116.42057984525509L197.54,116.58189927447928L197.687,116.8135202147744L197.883,116.98172593116763L198.303,117.71320691975681L198.345,117.82588115605442L198.471,117.9027044989846L198.94,118.24308657646182L199.171,118.60869279774754L199.57700000000003,118.95296879248187L199.71,118.94061567566612L199.82899999999998,118.88389492034915L199.955,118.85600449822167L200.116,118.68260049819949L200.249,118.76989713582127L200.683,119.13220407746056L200.781,119.14605337923226L200.991,119.25368278676815L201.173,119.38279587572273L201.299,119.43435671112755L201.334,119.51192814653572L201.40400000000002,119.53086064078593L201.733,119.61019680716777L202.069,119.88802684437147L202.223,119.69125934080645L202.342,119.89784795587715L202.58,120.0937139120969L202.587,120.08657826076856L202.90200000000002,119.82280852577904L203.007,119.76865813948893L203.27300000000002,120.16815870458431L203.315,120.19654785503043L203.399,120.36847485195509L203.58100000000002,120.52413563294846L203.595,120.5300820090554L203.833,120.9120887192813L204.134,120.87199863520537L204.351,120.98960260911423L204.673,121.4695710702376L205.184,122.05037856101993L205.296,122.23417912830008L206.136,123.20293970541522L206.31099999999998,123.43766810677269L206.556,123.30525573817168L206.626,123.2612525549802L207.03199999999998,123.53681913289158L207.04600000000002,123.5738593014804L207.522,124.07371934977446L207.99099999999999,124.62715432860637L208.089,124.63933480869642L208.46,125.0545261339708L208.81,125.49703242562035L209.41899999999998,126.00899622657084L209.447,126.07375418056144L209.461,126.10638252171604L209.958,126.6247146996585L210.014,126.75334824215284L210.168,126.74206930940804L210.651,127.22748541831973L210.756,127.41705972498116L210.86100000000002,127.48206704313107L211.099,127.60120556571269L211.19,127.64532384005462L211.197,127.66289442235775L211.40699999999998,127.96080786531624L211.498,128.1552543640137L211.70100000000002,128.37160654501483L212.05100000000002,128.98686465350067L212.079,128.99440312385562L212.268,129.28638937256554L212.282,129.2760503508828L212.66,129.78070586377925L212.8,129.6994898752733L213.241,130.28752892667598L213.75900000000001,130.22102542357013L213.79399999999998,130.226779981093L213.87099999999998,130.26612197269094L213.934,130.32784919305283L214.26999999999998,130.51212930679324L214.71099999999998,131.2869804772464L215.005,131.50367793169892L215.152,131.67704356800428L215.327,131.83849727023733L216.006,132.23926383798775L216.013,132.25342004949397L216.629,132.6049276048487L217.175,133.15055556730792L217.693,133.64947570453992L217.75599999999997,133.68210404569453L217.84,133.74868427623403L218.24599999999998,134.16468123956162L218.351,134.2292090112513L218.50500000000002,134.38287487897009L218.85500000000002,134.5322248285467L218.96,134.59446995908564L219.002,134.5927435918288L219.149,134.72011113166812L219.387,135.10140811313283L219.48499999999999,135.23406984589317L219.541,135.32105957378042L219.576,135.37603477998215L219.77200000000002,135.6042797131972L220.059,135.80097048932856L220.752,135.88669421456078L221.417,135.94941889155996L221.47299999999998,136.01195174997505L221.725,136.13791901415047L221.858,136.22398801283404L221.928,136.26281209425494L222.096,136.51745126464152L222.215,136.5616654482755L222.292,136.63440305536446L222.684,137.17857319658455L222.733,137.26464219526812L222.768,137.21743564172226L222.887,137.22952021252027L222.978,137.22508920322767L223.412,137.3484669165178L223.454,137.41802033511078L223.524,137.46670389175418L223.566,137.5349529439753L224.231,137.77037189223552L224.273,137.83085229180077L224.462,138.09107338298452L224.53199999999998,138.2111326347698L224.65099999999998,138.39328356222674L224.728,138.31001511487096L225.022,138.49853441931987L225.16899999999998,138.7587363286452L225.38600000000002,138.88257440653717L225.603,139.16661936586556L225.673,139.07675235921687L225.764,139.25023308667272L225.82,139.36016431721777L225.96699999999998,139.36400068889967L226.59699999999998,139.878438949585L226.87699999999998,140.02117115801033L226.968,140.14328286864543L227.171,140.37384880672803L227.234,140.41228925098073L227.72400000000002,140.4265030080622L227.969,140.55728491869843L228.879,140.47923393683L228.914,140.504151170904L229.075,140.76680835810578L229.089,140.78829203952444L229.726,140.9267850572413L229.88,141.0461345802654L230.81099999999998,140.53787287798798L230.95100000000002,140.65332848375496L231.182,140.65898713198578L231.217,140.68129563331607L231.329,140.75173141739586L231.686,140.80958390235904L231.966,140.65371212092316L232.134,140.79558114572006L232.414,140.96798768910497L232.505,141.0883922143416L232.512,141.1010138771751L232.603,141.13366140018812L232.75,141.23630352453753L232.764,141.26160439577973L232.785,141.21407175064087L232.911,141.32670762322167L233.422,141.71608016707683L233.793,141.86824984983966L233.87,141.95092365958476L234.01,142.02680709145287L234.04500000000002,142.05930115959862L234.073,142.0509570511905L234.619,142.42191501097247L234.633,142.4353998574344L234.71699999999998,142.45469680699438L234.864,142.58666799285197L234.983,142.7188693610105L235.074,142.75683025880295L235.242,142.8796516981992L235.28400000000002,142.831773779609L235.417,142.89244599775836L235.438,142.85089809244332L235.837,143.04214122078636L236.04,142.9160780473189L236.103,142.9142365889116L236.35500000000002,143.07066464424133L236.971,143.56068439917132L237.279,143.92847735231575L237.307,143.96705206957733L237.349,144.01634944568983L237.622,144.2500420266932L237.67100000000002,144.32736409794202L237.685,144.31882817094979L237.762,144.3508810563521L237.972,144.44788371432912L237.986,144.47172676433217L238.13299999999998,144.59709939089691L238.154,144.64048875461927L238.41299999999998,144.79415462233806L238.812,143.68904939564794L238.945,143.83611670407385L239.4,144.2027971094305L239.428,144.2287501638586L240.359,144.77117475596344L240.541,144.81523548473012L240.695,144.82087495110252L240.96800000000002,144.9182037006725L241.171,145.04284741661766L241.24099999999999,145.10173572193494L241.24800000000002,145.10501581972298L241.682,145.37066537683663L241.696,145.37879848480225L242.179,145.7544943636114L242.2,145.76053664901042L242.20700000000002,145.7669242078608L242.522,145.9316963715987L242.683,145.92755309018224L242.823,146.00907598842275L242.88600000000002,145.99482386762446L243.628,146.37836512652314L243.91500000000002,146.4377137964422L244.28599999999997,146.55257476459852L244.38400000000001,146.57469144734472L244.65699999999998,146.6372243057598L244.727,146.72127920931038L244.96499999999997,146.8710127960552L245,146.82986770976675" style="fill: none;" fill="none"></path></g></g></g></g></g></g><g transform="translate(50, 177)" clip-path="url(#clip_1)"><clipPath id="clip_1"><rect width="280" height="23"></rect></clipPath><g><g><line x1="0" y1="0" x2="0" y2="5" style="visibility: inherit;" fill="rgb(0, 0, 0)" stroke="rgb(204, 204, 204)" stroke-width="1px"></line><line x1="35" y1="0" x2="35" y2="5" style="visibility: inherit;" fill="rgb(0, 0, 0)" stroke="rgb(204, 204, 204)" stroke-width="1px"></line><line x1="70" y1="0" x2="70" y2="5" style="visibility: inherit;" fill="rgb(0, 0, 0)" stroke="rgb(204, 204, 204)" stroke-width="1px"></line><line x1="105" y1="0" x2="105" y2="5" style="visibility: inherit;" fill="rgb(0, 0, 0)" stroke="rgb(204, 204, 204)" stroke-width="1px"></line><line x1="140" y1="0" x2="140" y2="5" style="visibility: inherit;" fill="rgb(0, 0, 0)" stroke="rgb(204, 204, 204)" stroke-width="1px"></line><line x1="175" y1="0" x2="175" y2="5" style="visibility: inherit;" fill="rgb(0, 0, 0)" stroke="rgb(204, 204, 204)" stroke-width="1px"></line><line x1="210" y1="0" x2="210" y2="5" style="visibility: inherit;" fill="rgb(0, 0, 0)" stroke="rgb(204, 204, 204)" stroke-width="1px"></line><line x1="245" y1="0" x2="245" y2="5" style="visibility: inherit;" fill="rgb(0, 0, 0)" stroke="rgb(204, 204, 204)" stroke-width="1px"></line><line x1="280" y1="0" x2="280" y2="5" style="visibility: inherit;" fill="rgb(0, 0, 0)" stroke="rgb(204, 204, 204)" stroke-width="1px"></line></g><g transform="translate(0, 8)"><text x="0" y="0" dx="0em" dy="0.95em" style="text-anchor: middle; visibility: hidden; font-family: &quot;Helvetica Neue&quot;, sans-serif; font-size: 12px; font-weight: 200;" fill="rgb(33, 33, 33)" stroke="none" stroke-width="1px">15k</text><text x="35" y="0" dx="0em" dy="0.95em" style="text-anchor: middle; visibility: inherit; font-family: &quot;Helvetica Neue&quot;, sans-serif; font-size: 12px; font-weight: 200;" fill="rgb(33, 33, 33)" stroke="none" stroke-width="1px">20k</text><text x="70" y="0" dx="0em" dy="0.95em" style="text-anchor: middle; visibility: inherit; font-family: &quot;Helvetica Neue&quot;, sans-serif; font-size: 12px; font-weight: 200;" fill="rgb(33, 33, 33)" stroke="none" stroke-width="1px">25k</text><text x="105" y="0" dx="0em" dy="0.95em" style="text-anchor: middle; visibility: inherit; font-family: &quot;Helvetica Neue&quot;, sans-serif; font-size: 12px; font-weight: 200;" fill="rgb(33, 33, 33)" stroke="none" stroke-width="1px">30k</text><text x="140" y="0" dx="0em" dy="0.95em" style="text-anchor: middle; visibility: inherit; font-family: &quot;Helvetica Neue&quot;, sans-serif; font-size: 12px; font-weight: 200;" fill="rgb(33, 33, 33)" stroke="none" stroke-width="1px">35k</text><text x="175" y="0" dx="0em" dy="0.95em" style="text-anchor: middle; visibility: inherit; font-family: &quot;Helvetica Neue&quot;, sans-serif; font-size: 12px; font-weight: 200;" fill="rgb(33, 33, 33)" stroke="none" stroke-width="1px">40k</text><text x="210" y="0" dx="0em" dy="0.95em" style="text-anchor: middle; visibility: inherit; font-family: &quot;Helvetica Neue&quot;, sans-serif; font-size: 12px; font-weight: 200;" fill="rgb(33, 33, 33)" stroke="none" stroke-width="1px">45k</text><text x="245" y="0" dx="0em" dy="0.95em" style="text-anchor: middle; visibility: inherit; font-family: &quot;Helvetica Neue&quot;, sans-serif; font-size: 12px; font-weight: 200;" fill="rgb(33, 33, 33)" stroke="none" stroke-width="1px">50k</text><text x="280" y="0" dx="0em" dy="0.95em" style="text-anchor: middle; visibility: hidden; font-family: &quot;Helvetica Neue&quot;, sans-serif; font-size: 12px; font-weight: 200;" fill="rgb(33, 33, 33)" stroke="none" stroke-width="1px">55k</text></g><line x1="0" y1="0" x2="280" y2="0" fill="rgb(0, 0, 0)" stroke="rgb(204, 204, 204)" stroke-width="1px"></line></g></g></g></g></svg>