<svg viewBox="0 0 330 200" xmlns="http://www.w3.org/2000/svg"><g><g><g><g><g><line x1="40" y1="177" x2="35" y2="177" style="visibility: inherit;" fill="rgb(0, 0, 0)" stroke="rgb(204, 204, 204)" stroke-width="1px"></line><line x1="40" y1="163.3846153846154" x2="35" y2="163.3846153846154" style="visibility: inherit;" fill="rgb(0, 0, 0)" stroke="rgb(204, 204, 204)" stroke-width="1px"></line><line x1="40" y1="149.76923076923077" x2="35" y2="149.76923076923077" style="visibility: inherit;" fill="rgb(0, 0, 0)" stroke="rgb(204, 204, 204)" stroke-width="1px"></line><line x1="40" y1="136.15384615384616" x2="35" y2="136.15384615384616" style="visibility: inherit;" fill="rgb(0, 0, 0)" stroke="rgb(204, 204, 204)" stroke-width="1px"></line><line x1="40" y1="122.53846153846152" x2="35" y2="122.53846153846152" style="visibility: inherit;" fill="rgb(0, 0, 0)" stroke="rgb(204, 204, 204)" stroke-width="1px"></line><line x1="40" y1="108.9230769230769" x2="35" y2="108.9230769230769" style="visibility: inherit;" fill="rgb(0, 0, 0)" stroke="rgb(204, 204, 204)" stroke-width="1px"></line><line x1="40" y1="95.3076923076923" x2="35" y2="95.3076923076923" style="visibility: inherit;" fill="rgb(0, 0, 0)" stroke="rgb(204, 204, 204)" stroke-width="1px"></line><line x1="40" y1="81.69230769230768" x2="35" y2="81.69230769230768" style="visibility: inherit;" fill="rgb(0, 0, 0)" stroke="rgb(204, 204, 204)" stroke-width="1px"></line><line x1="40" y1="68.07692307692307" x2="35" y2="68.07692307692307" style="visibility: inherit;" fill="rgb(0, 0, 0)" stroke="rgb(204, 204, 204)" stroke-width="1px"></line><line x1="40" y1="54.46153846153844" x2="35" y2="54.46153846153844" style="visibility: inherit;" fill="rgb(0, 0, 0)" stroke="rgb(204, 204, 204)" stroke-width="1px"></line><line x1="40" y1="40.84615384615384" x2="35" y2="40.84615384615384" style="visibility: inherit;" fill="rgb(0, 0, 0)" stroke="rgb(204, 204, 204)" stroke-width="1px"></line><line x1="40" y1="27.230769230769198" x2="35" y2="27.230769230769198" style="visibility: inherit;" fill="rgb(0, 0, 0)" stroke="rgb(204, 204, 204)" stroke-width="1px"></line><line x1="40" y1="13.615384615384556" x2="35" y2="13.615384615384556" style="visibility: inherit;" fill="rgb(0, 0, 0)" stroke="rgb(204, 204, 204)" stroke-width="1px"></line><line x1="40" y1="0" x2="35" y2="0" style="visibility: inherit;" fill="rgb(0, 0, 0)" stroke="rgb(204, 204, 204)" stroke-width="1px"></line></g><g transform="translate(30, 0)"><text x="0" y="177" dx="0em" dy="0.3em" style="text-anchor: end; visibility: hidden; font-family: &quot;Helvetica Neue&quot;, sans-serif; font-size: 12px; font-weight: 200;" fill="rgb(33, 33, 33)" stroke="none" stroke-width="1px">0.4</text><text x="0" y="163.3846153846154" dx="0em" dy="0.3em" style="text-anchor: end; visibility: inherit; font-family: &quot;Helvetica Neue&quot;, sans-serif; font-size: 12px; font-weight: 200;" fill="rgb(33, 33, 33)" stroke="none" stroke-width="1px">0.5</text><text x="0" y="149.76923076923077" dx="0em" dy="0.3em" style="text-anchor: end; visibility: hidden; font-family: &quot;Helvetica Neue&quot;, sans-serif; font-size: 12px; font-weight: 200;" fill="rgb(33, 33, 33)" stroke="none" stroke-width="1px">0.6</text><text x="0" y="136.15384615384616" dx="0em" dy="0.3em" style="text-anchor: end; visibility: inherit; font-family: &quot;Helvetica Neue&quot;, sans-serif; font-size: 12px; font-weight: 200;" fill="rgb(33, 33, 33)" stroke="none" stroke-width="1px">0.7</text><text x="0" y="122.53846153846152" dx="0em" dy="0.3em" style="text-anchor: end; visibility: hidden; font-family: &quot;Helvetica Neue&quot;, sans-serif; font-size: 12px; font-weight: 200;" fill="rgb(33, 33, 33)" stroke="none" stroke-width="1px">0.8</text><text x="0" y="108.9230769230769" dx="0em" dy="0.3em" style="text-anchor: end; visibility: inherit; font-family: &quot;Helvetica Neue&quot;, sans-serif; font-size: 12px; font-weight: 200;" fill="rgb(33, 33, 33)" stroke="none" stroke-width="1px">0.9</text><text x="0" y="95.3076923076923" dx="0em" dy="0.3em" style="text-anchor: end; visibility: hidden; font-family: &quot;Helvetica Neue&quot;, sans-serif; font-size: 12px; font-weight: 200;" fill="rgb(33, 33, 33)" stroke="none" stroke-width="1px">1</text><text x="0" y="81.69230769230768" dx="0em" dy="0.3em" style="text-anchor: end; visibility: inherit; font-family: &quot;Helvetica Neue&quot;, sans-serif; font-size: 12px; font-weight: 200;" fill="rgb(33, 33, 33)" stroke="none" stroke-width="1px">1.1</text><text x="0" y="68.07692307692307" dx="0em" dy="0.3em" style="text-anchor: end; visibility: hidden; font-family: &quot;Helvetica Neue&quot;, sans-serif; font-size: 12px; font-weight: 200;" fill="rgb(33, 33, 33)" stroke="none" stroke-width="1px">1.2</text><text x="0" y="54.46153846153844" dx="0em" dy="0.3em" style="text-anchor: end; visibility: inherit; font-family: &quot;Helvetica Neue&quot;, sans-serif; font-size: 12px; font-weight: 200;" fill="rgb(33, 33, 33)" stroke="none" stroke-width="1px">1.3</text><text x="0" y="40.84615384615384" dx="0em" dy="0.3em" style="text-anchor: end; visibility: hidden; font-family: &quot;Helvetica Neue&quot;, sans-serif; font-size: 12px; font-weight: 200;" fill="rgb(33, 33, 33)" stroke="none" stroke-width="1px">1.4</text><text x="0" y="27.230769230769198" dx="0em" dy="0.3em" style="text-anchor: end; visibility: inherit; font-family: &quot;Helvetica Neue&quot;, sans-serif; font-size: 12px; font-weight: 200;" fill="rgb(33, 33, 33)" stroke="none" stroke-width="1px">1.5</text><text x="0" y="13.615384615384556" dx="0em" dy="0.3em" style="text-anchor: end; visibility: hidden; font-family: &quot;Helvetica Neue&quot;, sans-serif; font-size: 12px; font-weight: 200;" fill="rgb(33, 33, 33)" stroke="none" stroke-width="1px">1.6</text><text x="0" y="0" dx="0em" dy="0.3em" style="text-anchor: end; visibility: hidden; font-family: &quot;Helvetica Neue&quot;, sans-serif; font-size: 12px; font-weight: 200;" fill="rgb(33, 33, 33)" stroke="none" stroke-width="1px">1.7</text></g><line x1="40" y1="0" x2="40" y2="177" fill="rgb(0, 0, 0)" stroke="rgb(204, 204, 204)" stroke-width="1px"></line></g></g><g transform="translate(40, 0)" clip-path="url(#clip_0)"><clipPath id="clip_0"><rect width="290" height="177"></rect></clipPath><g><g><g><line x1="0" y1="0" x2="0" y2="177" fill="rgb(0, 0, 0)" stroke="rgb(66, 66, 66)" stroke-width="1px" opacity="0.25"></line><line x1="32.22222222222222" y1="0" x2="32.22222222222222" y2="177" fill="rgb(0, 0, 0)" stroke="rgb(66, 66, 66)" stroke-width="1px" opacity="0.25"></line><line x1="64.44444444444444" y1="0" x2="64.44444444444444" y2="177" fill="rgb(0, 0, 0)" stroke="rgb(66, 66, 66)" stroke-width="1px" opacity="0.25"></line><line x1="96.66666666666666" y1="0" x2="96.66666666666666" y2="177" fill="rgb(0, 0, 0)" stroke="rgb(66, 66, 66)" stroke-width="1px" opacity="0.25"></line><line x1="128.88888888888889" y1="0" x2="128.88888888888889" y2="177" fill="rgb(0, 0, 0)" stroke="rgb(66, 66, 66)" stroke-width="1px" opacity="0.25"></line><line x1="161.11111111111111" y1="0" x2="161.11111111111111" y2="177" fill="rgb(0, 0, 0)" stroke="rgb(66, 66, 66)" stroke-width="1px" opacity="0.25"></line><line x1="193.33333333333331" y1="0" x2="193.33333333333331" y2="177" fill="rgb(0, 0, 0)" stroke="rgb(66, 66, 66)" stroke-width="1px" opacity="0.25"></line><line x1="225.55555555555557" y1="0" x2="225.55555555555557" y2="177" fill="rgb(0, 0, 0)" stroke="rgb(66, 66, 66)" stroke-width="1px" opacity="0.25"></line><line x1="257.77777777777777" y1="0" x2="257.77777777777777" y2="177" fill="rgb(0, 0, 0)" stroke="rgb(66, 66, 66)" stroke-width="1px" opacity="0.25"></line><line x1="290" y1="0" x2="290" y2="177" fill="rgb(0, 0, 0)" stroke="rgb(66, 66, 66)" stroke-width="1px" opacity="0.25"></line></g><g><line x1="0" y1="177" x2="290" y2="177" fill="rgb(0, 0, 0)" stroke="rgb(66, 66, 66)" stroke-width="1px" opacity="0.25"></line><line x1="0" y1="163.3846153846154" x2="290" y2="163.3846153846154" fill="rgb(0, 0, 0)" stroke="rgb(66, 66, 66)" stroke-width="1px" opacity="0.25"></line><line x1="0" y1="149.76923076923077" x2="290" y2="149.76923076923077" fill="rgb(0, 0, 0)" stroke="rgb(66, 66, 66)" stroke-width="1px" opacity="0.25"></line><line x1="0" y1="136.15384615384616" x2="290" y2="136.15384615384616" fill="rgb(0, 0, 0)" stroke="rgb(66, 66, 66)" stroke-width="1px" opacity="0.25"></line><line x1="0" y1="122.53846153846152" x2="290" y2="122.53846153846152" fill="rgb(0, 0, 0)" stroke="rgb(66, 66, 66)" stroke-width="1px" opacity="0.25"></line><line x1="0" y1="108.9230769230769" x2="290" y2="108.9230769230769" fill="rgb(0, 0, 0)" stroke="rgb(66, 66, 66)" stroke-width="1px" opacity="0.25"></line><line x1="0" y1="95.3076923076923" x2="290" y2="95.3076923076923" fill="rgb(0, 0, 0)" stroke="rgb(66, 66, 66)" stroke-width="1px" opacity="0.25"></line><line x1="0" y1="81.69230769230768" x2="290" y2="81.69230769230768" fill="rgb(0, 0, 0)" stroke="rgb(66, 66, 66)" stroke-width="1px" opacity="0.25"></line><line x1="0" y1="68.07692307692307" x2="290" y2="68.07692307692307" fill="rgb(0, 0, 0)" stroke="rgb(66, 66, 66)" stroke-width="1px" opacity="0.25"></line><line x1="0" y1="54.46153846153844" x2="290" y2="54.46153846153844" fill="rgb(0, 0, 0)" stroke="rgb(66, 66, 66)" stroke-width="1px" opacity="0.25"></line><line x1="0" y1="40.84615384615384" x2="290" y2="40.84615384615384" fill="rgb(0, 0, 0)" stroke="rgb(66, 66, 66)" stroke-width="1px" opacity="0.25"></line><line x1="0" y1="27.230769230769198" x2="290" y2="27.230769230769198" fill="rgb(0, 0, 0)" stroke="rgb(66, 66, 66)" stroke-width="1px" opacity="0.25"></line><line x1="0" y1="13.615384615384556" x2="290" y2="13.615384615384556" fill="rgb(0, 0, 0)" stroke="rgb(66, 66, 66)" stroke-width="1px" opacity="0.25"></line><line x1="0" y1="0" x2="290" y2="0" fill="rgb(0, 0, 0)" stroke="rgb(66, 66, 66)" stroke-width="1px" opacity="0.25"></line></g></g></g><g><g><line x1="0" y1="231.46153846153848" x2="290" y2="231.46153846153848" fill="rgb(0, 0, 0)" stroke="rgb(153, 153, 153)" stroke-width="1.5px"></line></g></g><g><g><line x1="32.22222222222222" y1="0" x2="32.22222222222222" y2="177" fill="rgb(0, 0, 0)" stroke="rgb(153, 153, 153)" stroke-width="1.5px"></line></g></g><g><g><g><g><g><path stroke="rgb(255, 112, 67)" stroke-width="2px" d="M32.22544444444444,10.106070701892605L90.31888888888889,93.35987736507685L90.44777777777777,124.07375287187287L90.57988888888889,129.0056153998292L90.82477777777778,130.05846434085825L90.85377777777778,130.2863779712981L91.75922222222222,129.1131654928888L91.83977777777778,128.5262972308224L91.96866666666666,128.06183937021342L92.31988888888888,127.30796236688693L92.56477777777778,125.98805329906185L92.86444444444444,125.24995781943448L92.94822222222223,124.57258599312044L93.09322222222222,124.65680054042016L93.44444444444446,124.81220698038798L93.5411111111111,124.73727943615367L93.65066666666667,124.5633509862401L93.76344444444445,124.50985416432829L93.79244444444444,124.46852945027722L93.86333333333333,124.44201595467678L93.87622222222222,124.45033893600774L93.96000000000001,124.5663779488909L94.01155555555556,124.65334928714333L94.20166666666665,124.2403966779773L94.31444444444445,123.51563480563229L94.34022222222222,123.27166861614575L94.685,123.1541800044537L94.7301111111111,123.12616902737622L94.81711111111112,123.24059771158458L94.87188888888889,123.44934076111514L95.06522222222222,123.82228875846783L95.22955555555555,123.90351688525567L95.48733333333332,124.12919592418255L95.55177777777777,124.23536662060681L95.84822222222222,123.81229742762726L95.85788888888888,123.64563297881918L95.91266666666667,123.65819346930685L96.13177777777777,123.68129378351176L96.35411111111112,123.82761171217598L96.36699999999999,123.83724064221477L96.73433333333334,124.0627327393201L96.76655555555556,124.14898992055276L97.2241111111111,124.21768562685781L97.58822222222221,124.34677336394813L98.00388888888888,124.407263149685L98.252,124.49579346757025L99.17033333333333,124.82588416731994L99.209,124.99684365070175L99.32177777777778,125.11358520013789L99.5408888888889,125.29224245868792L99.62788888888889,125.30928980282259L99.72133333333333,125.2883852173112L99.95977777777777,125.25776110806953L100.59777777777778,125.18290938004557L100.66866666666667,125.06368490311733L100.68477777777778,125.00817628638987L101.10044444444445,125.02982211455418L101.21644444444445,124.97720787434675L101.75455555555556,124.51701173741061L101.80933333333334,124.35692981916726L102.36999999999999,124.41715934516573L102.48922222222222,124.45028966687758L102.67611111111111,124.17319561840434L102.89844444444444,123.9124643612117L103.16266666666667,123.76053922599675L103.56866666666667,123.44889123454915L103.62344444444444,123.39493322595285L103.7491111111111,123.38142764214096L104.19055555555555,123.1617918445422L104.36133333333333,123.16800921169735L104.52566666666667,123.27704420653832L104.65133333333334,123.33172980568536L105.14433333333332,123.60954987592046L105.26355555555556,123.78635184179373L105.28933333333333,123.82516969194734L105.57933333333332,123.81510233123423L105.62122222222222,123.8625740489521L105.70822222222222,123.88746624101503L105.73722222222221,123.85658305114251L105.75655555555555,123.84872731150429L105.78555555555555,123.84330393963745L105.95311111111111,123.83675860279229L105.99177777777777,123.84272302178559L105.99822222222222,123.85108912404388L106.00466666666667,123.85467869249212L106.05622222222222,123.85194356014583L106.29466666666666,123.96482757240142L106.32688888888889,123.9883647929041L106.40422222222223,123.9947038950109L106.54922222222223,123.97979025211254L106.58466666666666,123.99633066509716L106.63300000000001,124.06607276366753L106.74577777777779,124.15731024933207L106.7941111111111,124.2168730466738L106.88111111111112,124.27387736300425L106.95522222222222,124.31212779139383L107.20655555555555,124.30899061458959L107.39988888888888,124.3308188674659L107.51588888888888,124.36973162639455L107.80911111111111,124.36953136569701L108.10877777777777,124.30388793533763L108.53733333333334,124.24086106728763L108.80799999999999,124.27485669095078L109.33322222222223,124.44939759014653L109.40411111111112,124.4776556049709L109.42344444444444,124.49107720824477L109.56200000000001,124.486947546813L109.83588888888889,124.64109504394119L110.48677777777777,124.78990663659724L110.74455555555555,124.86662932952234L110.97977777777778,124.94353774000157L111.05066666666667,125.00996517315006L111.20855555555555,125.04454866600571L111.34388888888888,125.05706857529724L111.54688888888889,125.08015923064559L111.60811111111111,125.07491051462662L111.66933333333333,125.10700122825111L111.67577777777777,125.11671486606927L111.73377777777779,125.1284025263331L111.85622222222223,125.19645066936096L112.13977777777778,125.18057732926513L112.22355555555555,125.18594041141267L112.23322222222221,125.17246901596243L112.2751111111111,125.15772980487048L112.59411111111112,125.27875479887646L112.91633333333334,126.62314785482164L112.96144444444444,129.7744434243923L113.10000000000001,130.05493692869538L113.11933333333333,129.8305733369503L113.39322222222222,130.5596213858789L113.66711111111111,130.5709354520941L113.79922222222221,130.76784929248797L114.00544444444444,131.28813550674698L114.173,130.75958513187976L114.45011111111111,131.4552288621827L114.71433333333334,131.98399416785537L114.89155555555556,131.92819314418642L114.92699999999999,132.02770652407355L115.24277777777777,131.55088589465853L115.50377777777778,132.01065858336804L115.92588888888889,133.44241030313174L115.95166666666667,134.03454319495964L116.12244444444445,134.51630782660078L116.30933333333334,134.63680053626055L116.40599999999999,134.94894160862899L116.45755555555554,134.9778130597346L116.48977777777777,135.04019828985145L116.51877777777777,135.05250258708674L116.6798888888889,134.994288544074L116.98277777777778,134.8995855647113L117.10522222222222,134.62359296073893L117.18900000000001,134.41056568825883L117.20511111111111,134.31897933018135L117.29211111111111,134.06303683071792L117.41133333333333,133.7217398953011L117.53699999999999,133.475569718095L117.99455555555555,132.82702474808414L118.00744444444445,132.58118452836277L118.05900000000001,132.52869560299976L118.12666666666667,132.62238367151662L118.23622222222222,132.35245384179672L118.25555555555556,132.20159274188205L118.33611111111111,132.06468404684807L118.48755555555555,131.6897723003583L119.28666666666666,131.35346150245476L119.32211111111111,131.20852319065597L119.88277777777778,130.8810642529795L119.96333333333334,130.85258989244073L120.02455555555557,130.9090966322987L120.11800000000001,130.8856043619407L120.48855555555555,130.9047697897051L120.57555555555557,131.00670404898105L120.67222222222222,130.89534099011837L120.81722222222221,130.8462060214107L120.86555555555556,130.93744914871962L121.00411111111111,130.82618792527853L121.22966666666666,130.6200542238988L121.29733333333334,130.53121076359457L121.41977777777778,130.4917847462918L121.50033333333333,130.43227212996268L121.57444444444444,130.48882319550125L122.44444444444444,130.3484500996324L122.87944444444445,130.3212694308581L122.88266666666667,130.30969428386328L123.47877777777778,130.5432829224084L123.69788888888888,130.7696756558808L123.86866666666666,130.97588981219192L123.975,131.17623839233025L123.98788888888889,131.2761523737188L124.13611111111112,131.32902902056688L124.15544444444446,131.33802758987028L124.23922222222222,131.37364374662508L124.51311111111112,131.50863724218252L125.21555555555555,131.92091722050483L125.25744444444445,132.09410991772037L125.29611111111112,132.2112027950024L125.37988888888889,132.28819554762356L125.53133333333334,132.18215286965852L125.7568888888889,132.10863688554392L125.76011111111112,132.08550360640945L125.80844444444445,132.10244501699304L125.92122222222223,132.231431295164L125.976,132.32869392770738L126.02433333333333,132.3877246652397L126.20155555555556,132.4527697212406L126.208,132.4674362405338L126.22411111111111,132.44584817203665L126.40777777777778,132.5034512564793L126.49799999999999,132.55643187181715L126.63333333333333,132.58290193598822L126.90722222222223,132.62074164465895L126.962,132.58483944579626L127.76433333333333,132.40147077075252L127.919,132.27425298119584L127.93511111111111,132.20215000013786L128.238,132.05555485596244L128.24444444444444,132.01482260955288L128.26055555555556,132.01137500817782L128.31533333333334,132.01032276487746L128.3958888888889,131.99724101405894L128.75677777777778,131.96528777608924L129.02744444444446,129.9267367396448L129.30133333333333,123.81936879856981L129.45600000000002,128.98356460433936L129.59777777777776,124.68508050900907L129.6428888888889,123.92300348289899L129.72344444444445,123.57938840532486L129.833,124.6784861513836L129.89100000000002,124.03246394543275L129.89744444444443,123.98972317032803L130.0778888888889,124.32810159323192L130.34855555555555,124.77173662683865L130.38722222222222,125.30624040757968L131.07033333333334,128.7612940863722L131.37644444444445,131.27169320548805L131.46988888888887,132.4164337880543L131.52144444444446,133.09164467219387L131.61811111111112,133.78234030386926L131.6277777777778,134.0723156644308L131.65355555555556,134.2401145569338L131.90166666666667,134.38236040833627L132.59766666666667,134.59935001027858L132.69755555555557,134.70613156975145L132.97144444444444,134.86832691795004L133.20988888888888,134.66331955248916L133.748,133.68226695627587L134.20555555555555,133.93084749786334L134.212,134.04089388912553L134.66633333333334,134.95372241686815L134.80488888888888,135.54562010052697L134.98855555555556,135.95344207168034L135.78444444444443,136.7074879922657L135.82955555555554,137.08924335822695L135.981,137.49319469019918L136.17111111111112,137.50331231991376L136.23555555555555,137.54268141246334L136.242,137.54305482266045L136.40633333333332,137.46517045760558L136.60611111111112,137.37359437077367L136.78333333333333,137.25975216408548L137.19577777777778,136.76699917162838L137.36977777777778,136.5723801820724L137.47933333333333,136.31068319603486L137.50511111111112,136.21532870109235L137.50833333333333,136.17177919421368L137.6758888888889,135.93667855122231L137.78544444444444,135.7327381782171L137.8047777777778,135.68393751025974L138.098,135.6220750286896L138.2462222222222,135.70350902720554L138.6522222222222,135.9684075244826L138.70055555555555,136.10414703211742L138.7231111111111,136.13945859293892L138.7811111111111,136.20449850662433L138.79722222222222,136.2463467011734L138.9261111111111,136.35432364678917L138.92933333333332,136.39457006330514L138.96800000000002,136.36105107057702L139.07755555555556,136.28516332320063L139.29666666666668,136.06994674138187L139.57055555555556,135.79117745297776L139.66722222222222,135.62028510443906L140.35355555555554,135.5326222520755L140.37933333333334,135.51246754849035L140.42444444444445,135.50171507013664L140.56300000000002,135.56697320004906L140.59844444444445,135.6448451717867L140.6081111111111,135.6954842317152L140.679,135.80022308986682L140.79177777777778,135.89816382889364L141.085,136.12739209766886L141.93244444444443,137.3823752020318L142.02266666666668,137.88944142172653L142.41899999999998,138.57741373099316L142.63166666666666,138.5140550161105L142.825,138.31499095139753L143.08922222222222,138.12969217270452L143.144,138.12953001402042L143.2052222222222,138.1206071844352L143.32122222222222,138.23369595505676L143.4597777777778,138.41270507191194L143.6112222222222,138.69856771223448L143.70144444444443,138.88888490010788L143.75944444444445,138.95668101094932L144.08488888888888,139.39880104825224L144.2008888888889,139.7098209608942L144.2911111111111,139.87000617975352L144.44255555555557,139.95233347121356L144.51666666666668,140.0040679349968L144.60366666666667,140.13124204099833L144.64877777777778,140.24095317511683L145.04188888888888,140.24733651386123L145.0998888888889,140.21430977816152L145.2577777777778,140.1772564581663L145.29,140.18203129378333L145.32544444444446,140.1983372781712L145.35766666666666,140.18618548969897L145.40599999999998,140.16739820200047L146.0536666666667,140.33941634539303L146.0891111111111,140.42301191252514L146.25022222222225,140.4368792000053L146.36944444444444,140.4926387289504L146.6981111111111,140.75032011589L146.9301111111111,140.87573668443483L147.04611111111112,140.91134631043852L147.12666666666667,140.91872674868836L147.17822222222222,140.89476269101246L147.21366666666668,140.86741762230324L147.291,140.78233792222915L147.349,140.74317772220218L147.378,140.71657821646136L147.65833333333333,140.7480750240506L147.94511111111112,140.68462720722658L148.01277777777779,140.61668159727466L148.29955555555557,140.61742625879108L148.44777777777776,140.6222587130783L148.80866666666665,140.5857388414901L149.0567777777778,140.64159702615194L149.07611111111112,140.64949371274116L149.69155555555554,140.70406340212836L149.79144444444444,140.74993841030658L149.83977777777778,140.78704855100221L149.89133333333334,140.8097872039441L149.96866666666668,140.7720216420073L150.09755555555557,140.65836149148197L150.15233333333333,140.6027916221961L150.29088888888887,140.60779061177365L150.48422222222223,140.5792263505848L150.48744444444444,140.56472930402077L150.57122222222222,140.57595929782704L151.56688888888888,140.81676385755637L151.70222222222222,140.94504377751616L152.00833333333333,140.92136392410026L152.62055555555554,141.11200842323686L152.82033333333334,141.312832248152L152.82355555555554,141.3833553263055L152.87511111111112,141.46250999742642L152.9878888888889,141.53040662899394L153.06522222222222,141.5724214679635L153.1038888888889,141.58871539427446L153.11355555555556,141.57799181645473L153.37777777777777,141.57612871600566L153.3971111111111,141.58074110294092L153.46155555555555,141.64334154750264L153.79666666666665,141.8520901338621L153.83855555555556,141.88823207542717L153.8868888888889,141.9285765166192L154.2671111111111,142.20554750551315L154.32833333333335,142.32135968424825L154.44755555555557,142.43084020774347L154.76977777777776,142.6925513921387L155.0468888888889,142.87605792453346L155.18544444444447,142.9492835842637L155.37555555555556,142.99995308912224L155.53344444444446,143.00009147489993L155.56566666666666,142.99372615206136L155.8298888888889,142.95004258363946L156.12633333333332,143.12910335108722L156.27777777777777,143.1882096025194L156.339,143.17024226655985L156.4131111111111,143.16109208907542L156.46144444444445,143.15961260838736L156.47755555555557,143.15359981453577L156.81266666666664,143.25289899513032L157.35722222222225,143.0688765473788L158.02422222222222,142.92673843595523L158.10155555555556,142.9333529069981L159.05533333333332,143.09389558689784L159.20033333333333,143.23510589735204L159.20677777777777,143.29008489845324L159.38077777777778,143.3901311400465L159.40655555555557,143.4516156600126L159.57411111111114,143.53557221361504L160.08644444444442,143.5651547799921L160.94033333333334,143.75161227337844L160.99833333333333,143.8222716648837L161.26577777777777,143.8246097653297L161.4591111111111,143.77686774123322L161.61055555555555,143.72552816650727L161.75877777777777,143.73375118289164L162.284,143.63665011913184L162.50311111111114,143.5724220085667L162.9187777777778,143.66240244184897L162.94133333333332,143.71085973851245L163.00900000000001,143.76353742325335L163.19266666666667,143.8137566043329L163.50522222222224,143.77191690770206L163.66955555555555,143.75843360660502L163.75333333333333,143.75061090504317L163.79522222222224,143.75587203503312L163.85322222222223,143.75595262650583L164.52988888888888,144.02451946517877L164.62011111111113,144.1562694258637L164.71355555555556,144.23028946666543L164.72966666666665,144.2619962663927L164.96166666666664,144.39137322996416L165.2097777777778,144.6322509322195L165.6641111111111,144.91452725017962L165.66733333333335,145.02130969410283L165.84455555555556,145.08408828663076L165.87355555555555,145.11552084480647L166.112,145.25383141011832L166.23766666666668,145.33987755200008L166.721,145.54192495568853L166.81444444444443,145.65202864870363L166.96911111111112,145.75761677361766L167.13344444444442,145.8831180398542L167.185,145.9143370662427L167.23655555555555,145.91514717367625L167.301,145.90648646218327L167.62966666666665,146.03228098216175L167.66188888888888,146.09274884478148L168.02277777777778,146.21305143872394L168.15166666666667,146.3175799186011L168.2741111111111,146.37428977517348L168.5351111111111,146.4286294849111L168.68011111111113,146.48408810386874L168.70266666666666,146.51557495683141L168.8831111111111,146.5995846148589L168.94433333333333,146.65622067143096L169.273,146.8218649061116L169.29555555555555,146.87609473620398L169.38255555555557,146.86467520699694L169.81755555555554,146.85582790056176L170.07855555555554,146.7748510977781L170.1752222222222,146.73695655766042L170.2783333333333,146.7206411695391L170.3008888888889,146.7087030947506L170.3782222222222,146.72070736157374L170.44266666666667,146.72300699382882L170.752,146.68890196766355L170.80033333333333,146.677638887522L170.80677777777777,146.6768517288949L170.85833333333332,146.6797955225799L171.15155555555557,146.7102437034921L171.45444444444445,146.73739945028365L171.48666666666668,146.7678161991342L171.64455555555554,146.77752177357428L172.54033333333334,146.84627391384706L172.93344444444443,146.78559209881243L173.159,146.77787242043146L173.217,146.77497743862185L173.26533333333333,146.7926890161601L173.41677777777778,146.82802757001502L173.80666666666667,146.92150798212785L173.8098888888889,146.95346910821306L173.9548888888889,146.95528700108136L174.1256666666667,146.99890312109585L174.145,147.01891470925142L174.18366666666668,147.04000396303007L174.26744444444446,147.06303254877267L174.27388888888888,147.07119577840692L174.38344444444445,147.11096977669544L174.522,147.13841686568634L174.6218888888889,147.17046017205087L174.77011111111113,147.2320088099625L175.00533333333334,147.30786204399496L175.0568888888889,147.35206989021896L175.5241111111111,147.4912042420401L175.63688888888888,147.56349291805378L175.85600000000002,147.61455734290126L176.08155555555555,147.70100786999194L176.29744444444447,147.79683402101523L176.34255555555558,147.83804088170479L176.51333333333335,147.93569361814724L176.9547777777778,148.02799718096767L176.96766666666664,148.06442437309735L176.9741111111111,148.08144096641217L177.20288888888888,148.11844287119976L177.5218888888889,148.18002351592264L177.57022222222224,148.21844469968437L177.72811111111113,148.2418937809471L177.77,148.24085728817707L177.77322222222222,148.24215893760842L177.8698888888889,148.27843387607555L178.1663333333333,148.34754609078914L178.44666666666666,148.4400790397372L178.71411111111112,148.54701468280416L178.96866666666665,148.57459560427893L179.00411111111111,148.57847355129147L179.39077777777777,148.67049397158092L179.5261111111111,148.71901563053697L179.67433333333335,148.7290115758389L180.27366666666668,148.80049787429567L180.79244444444444,148.90499752901206L180.8311111111111,148.9477057090973L181.018,148.97535802339763L181.06633333333332,148.98637870852411L181.13722222222222,149.01964096953142L181.34666666666666,149.02522156931062L181.36599999999999,149.0244705637294L181.5432222222222,149.05434828819517L181.58833333333334,149.07573027594265L181.6141111111111,149.08739966149903L181.85255555555554,149.11984742903553L182.17155555555553,149.13979182040626L182.47766666666666,149.16847824853483L182.50344444444445,149.18913167615705L182.61944444444444,149.2152322919364L182.71288888888887,149.24510931956632L183.0608888888889,149.3195131512807L183.19622222222222,149.35896112274733L183.44755555555557,149.3930760817584L183.91155555555554,149.48888749969376L184.00177777777776,149.54605384436425L184.13711111111112,149.5924437561977L184.2047777777778,149.64165622017558L184.40455555555556,149.70812144124608L184.4367777777778,149.72140476045567L184.47866666666667,149.74533576794826L184.50444444444446,149.7675773326629L184.86211111111112,149.8361331720706L185.0328888888889,149.8799139927931L185.12633333333332,149.9131935534447L185.38088888888888,149.9148021354046L185.91255555555554,149.93603330765262L185.92866666666666,149.9468901133861L186.30244444444443,150.01201197497102L186.37333333333333,150.04444927147358L186.80188888888887,150.03519135622105L186.98877777777776,150.01275538757295L187.04033333333334,150.01024517361842L187.33355555555556,150.0551982911441L187.41088888888888,150.08141287095353L187.58488888888888,150.12034458224105L187.69444444444446,150.161336253219L187.70088888888887,150.17920466306742L188.0037777777778,150.22334557694023L188.21,150.28216224217957L188.29055555555553,150.27845139872574L188.30344444444444,150.2763291021394L188.59988888888887,150.3238097781622L188.66755555555557,150.35360085604262L188.76422222222223,150.37809471860967L188.92211111111112,150.37277069930119L189.2088888888889,150.3848958867576L189.2378888888889,150.38561637183182L189.77922222222224,150.45761816029426L189.79211111111113,150.48493462237073L189.81144444444445,150.4967809249625L190.00155555555554,150.53436409477442L190.17233333333334,150.58517526147L190.18200000000002,150.6025876157055L190.3012222222222,150.6235990534298L190.5461111111111,150.46922333740113L190.76844444444444,150.45164432677728L191.197,150.4685311202319L191.28077777777779,150.48736156217643L191.3516666666667,150.48671088463058L191.47733333333332,150.45164236754883L191.60299999999998,150.4423414359599L191.60622222222224,150.43916818697153L191.80599999999998,150.44016917542677L192.0347777777778,150.4755510740718L192.04444444444445,150.49125339157786L192.04766666666666,150.49667038738525L192.19266666666664,150.50391424305388L192.26677777777778,150.50274997642478L192.3312222222222,150.52370082470318L192.83388888888888,150.53238884689253L193.00466666666665,150.54961812293556L193.04977777777776,150.55905546279453L193.31722222222223,150.62157729419982L193.546,160.38158481065324L193.72322222222223,162.8873847815469L193.77477777777779,164.3329931694089L193.80055555555555,164.44387643781724L194.24844444444443,167.50597973440628L194.4933333333333,164.99163112664849L194.89288888888888,160.9377287557101L194.90577777777776,159.50778354268527L194.94766666666666,158.6976769669206L195.05722222222224,157.99857384554392L195.402,155.96014472201722L195.4438888888889,155.07345984063522L195.66944444444445,155.28863135987442L195.73388888888888,155.5720633787116L195.81444444444443,155.23188564694723L195.82088888888887,155.14889548235766L196.06577777777775,154.54158615313636L196.1237777777778,154.2431292221229L196.13666666666666,153.9623666259926L196.2301111111111,153.93040576244638L196.2848888888889,154.06219705695264L196.30744444444443,154.24790891630482L196.36544444444442,154.41172511847836L196.43633333333332,154.5224272857681L196.4782222222222,154.6048637288196L196.58455555555557,154.92764387685736L196.6038888888889,155.19456878879356L196.73277777777778,155.16374670134206L196.81655555555557,155.06038691202127L197.0678888888889,156.04580311424365L197.14844444444444,156.09752516625798L197.287,155.76087377213466L197.38044444444444,155.48134145340146L198.03133333333332,156.7283017324774L198.06355555555555,157.25375358717994L198.07966666666667,157.30050960075408L198.0828888888889,157.26500178275995L198.15055555555554,157.02124662940574L198.16666666666666,156.81997056656115L198.83044444444445,156.5381731515226L198.84333333333333,156.46427337556761L199.1558888888889,156.14284153596702L199.1881111111111,155.9901880265716L199.62311111111111,156.02143624956523L199.6682222222222,156.1263326574091L199.74233333333333,156.15045863272744L200.06777777777776,156.1088243087057L200.4608888888889,156.13584345050987L200.58977777777778,156.29957722592601L200.66066666666666,156.3858330666288L201.3051111111111,156.36916935308932L201.67566666666667,156.3135795363214L201.97533333333334,156.55791018315753L202.53277777777777,156.8112331450263L202.61655555555555,156.78132108504366L203.5928888888889,157.39292456503247L203.66055555555556,157.63882911411602L203.84744444444445,157.60086022878718L203.93444444444444,157.59904995437125L204.0021111111111,157.69661587501565L204.24055555555555,157.9262329696452L204.247,158.0250134876957L204.35333333333332,158.06944245684602L204.45322222222222,157.97060690045527L204.45966666666666,157.94392119860208L204.5402222222222,157.8275904731176L204.61433333333335,157.70230108826337L204.97522222222221,157.50106508436187L205.03,157.35943604803376L205.25233333333333,157.39341988368744L205.35544444444443,157.4330178424621L205.63899999999998,157.59364388569557L205.79688888888887,157.67222073850326L205.93222222222224,157.7960566056816L205.94833333333332,157.84496190554907L206.24155555555555,157.98938720429652L206.2898888888889,157.9820564193354L206.30922222222222,157.9622202602977L206.33177777777777,157.96402406871582L206.60888888888888,157.62961103743112L206.683,157.44518528599113L207.25011111111112,157.49335489236935L207.35322222222223,157.44662901710194L207.437,157.4458275178695L207.5562222222222,157.53946895918415L207.58844444444446,157.53191682351547L207.9138888888889,157.55833816557214L207.92033333333333,157.56883224662909L208.04922222222223,157.63470292459357L208.20711111111112,157.56760481129677L208.76133333333334,157.2933602828969L208.7871111111111,157.16342869189043L208.84833333333333,157.0347776612125L208.88055555555556,156.98125475624653L208.89022222222223,156.95776633014472L208.90633333333335,156.94170018544216L209.18344444444443,156.74491732377422L209.35744444444444,156.61990457599217L209.67322222222225,156.60415879399267L209.786,156.63326321646053L210.00833333333333,156.73285771051908L210.2048888888889,156.69006562602533L210.20811111111112,156.68045523970952L210.49488888888888,156.67329892643727L210.86544444444445,156.7025135296082L210.91377777777777,156.78388501516838L211.50666666666666,157.04497818766862L211.6162222222222,157.17267586723074L211.87722222222223,157.3413512645334L211.99322222222222,157.5296575538059L212.49266666666668,157.68446973914675L212.50233333333333,157.74927296765753L212.541,157.81118925034684L212.65699999999998,157.80422432594986L212.88255555555557,157.8010946546206L212.89544444444445,157.81717973975282L213.07911111111113,157.82001551388362L213.72677777777778,157.93490198732312L213.95233333333334,158.04430744566739L214.36155555555555,158.17685518680776L214.69344444444445,158.19007428262404L215.09622222222222,158.0498911056049L215.47,157.87830755134263L216.28844444444445,157.6695892182368L216.4978888888889,157.58933593542307L216.84588888888888,157.65436912501346L216.86522222222223,157.6798995806672L217.34533333333331,157.84197687715022L218.06066666666666,157.98506656234704L218.718,158.1517074208498L218.74377777777778,158.21552538990542L218.93388888888887,158.23081075143153L218.99511111111113,158.24174931962818L219.18200000000002,158.24585526918077L219.443,158.28222103350527L219.7201111111111,158.34976888284498L219.97788888888888,158.3864773698631L219.98433333333332,158.39147612116258L220.4257777777778,158.41362004857714L220.69644444444447,158.45378690360067L221.16366666666667,158.42983427835875L221.18300000000002,158.38988845951476L221.20555555555555,158.37773543053467L221.23133333333334,158.3864713587343L221.44077777777778,158.38677928898588L221.5148888888889,158.38446964190982L221.78233333333336,158.40415728839884L221.792,158.41977919878968L221.821,158.4232034463055L222.05944444444444,158.48869408560375L222.34622222222222,158.510624462693L222.50088888888888,158.48360735919167L222.5621111111111,158.48933994180896L222.62977777777778,158.5158898015251L222.69744444444444,158.53610865143932L222.80055555555555,158.55931425465502L222.83922222222225,158.57237071906266L223.25166666666667,158.5558842016943L223.32255555555554,158.52452794490753L223.36766666666665,158.4883471669975L223.37088888888889,158.47264184224184L223.43855555555558,158.4412872903566L223.4901111111111,158.43348624790542L223.96377777777778,158.32545526855307L224.0088888888889,158.26315370428037L224.2118888888889,158.29597629869164L224.31822222222223,158.28682294421552L224.4728888888889,158.2967207462496L224.518,158.31190255767757L224.6178888888889,158.30815255494008L224.6468888888889,158.31643589745227L224.77255555555556,158.34368488692832L224.9691111111111,158.3720434376632L225.156,158.38491941590013L225.40411111111112,158.44069845969423L225.417,158.45529129031647L225.504,158.4183298575009L225.90033333333335,158.38048968634322L226.46744444444442,158.44397207116214L226.519,158.48573102271845L226.68977777777778,158.52042667218035L226.9121111111111,158.55870753930333L227.01200000000003,158.57360764621006L227.03777777777776,158.58320488222176L227.2858888888889,158.55363927536158L227.3148888888889,158.54423406118784L227.45988888888888,158.53775556951192L227.679,158.49722057480798L228.7358888888889,158.55832796342224L229.187,158.63959083718234L229.25466666666665,158.70133095434196L229.35133333333334,158.72520079663508L229.39322222222222,158.73483057291884L229.4447777777778,158.74736883460912L229.46733333333333,158.7591701987395L229.74444444444447,158.86115296648924L229.88944444444445,158.9218859402517L229.95066666666668,158.93202572006606L230.06344444444446,158.90387431578282L230.463,158.6625878156715L230.90444444444447,158.55376083113737L230.97533333333334,158.52746842956174L231.00755555555557,158.5292346854706L231.12033333333335,158.51969648752208L231.26533333333333,158.54394999843592L231.3007777777778,158.5610168583002L231.83244444444446,158.67632574071712L231.83888888888887,158.7165067691852L232.02577777777776,158.7214125321839L232.08055555555555,158.7063879829141L232.15788888888886,158.71440561613045L232.19011111111112,158.72468062958876L232.30933333333334,158.73407385114274L232.38022222222222,158.72391833082952L232.551,158.7217266302464L232.78944444444446,158.71051703385658L232.81199999999998,158.69974172696487L232.93444444444444,158.7129433960761L233.58533333333332,158.65472193059563L233.8012222222222,158.6545892372914L234.00422222222224,158.69808086727727L234.05255555555556,158.70524111567767L234.37800000000001,158.75449694396866L234.38766666666666,158.7709808700838L234.60677777777778,158.76210452380573L234.99022222222223,158.81598876663656L235.13522222222224,158.8468752059128L235.86666666666667,158.7849206469072L236.09222222222223,158.74480669386077L236.37577777777776,158.75120079011435L236.53044444444444,158.78186736889637L236.73344444444442,158.8205018863547L236.76888888888888,158.82663136100803L237.76455555555557,158.6940021273794L238.15122222222223,158.68695268269073L238.17700000000002,158.67962831118425L238.293,158.68074772969243L238.54111111111112,158.7195431004517L238.57011111111112,158.73491958486784L239.25644444444444,158.83064225642593L239.81066666666666,158.922169199643L239.8912222222222,158.9402146061237L239.94277777777776,158.94695577789028L240.39711111111112,158.892060298761L240.44544444444443,158.86302582193233L240.54533333333333,158.8544637835049L240.8772222222222,158.8658142031059L241.0318888888889,158.86218080668277L241.19622222222222,158.90298268129982L241.31544444444444,158.93947791545475L241.49266666666665,158.92479059891423L241.49911111111112,158.92073866150662L241.55066666666667,158.92550032647895L241.72788888888888,158.946058112893L242.4367777777778,159.00966031142892L242.46255555555555,159.0353641481529L242.47544444444443,159.043102152225L242.64944444444444,159.05008006742204L242.97166666666666,159.07272479861754L243.53233333333333,159.2125533648766L243.7772222222222,159.24104519139445L243.88355555555557,159.2412206004779L243.95444444444445,159.24032611470625L244.04144444444444,159.24057164148385L245.04999999999998,159.40142298282623L245.46566666666666,159.53564988809453L245.543,159.60764695060752L245.75566666666668,159.6500144187037L245.8587777777778,159.686194730312L246.01666666666668,159.74212123556487L246.02955555555556,159.7615501334949L247.35711111111112,159.90157569310216L247.5246666666667,159.9713192829766L248.14655555555555,160.11079201412372L248.36566666666667,160.20489435427177L248.42366666666666,160.2529133603669L248.80066666666667,160.31748974433947L248.8167777777778,160.3471925277348L248.88444444444445,160.36412522067914L248.88766666666666,160.37257825010062L248.90055555555557,160.37841545737982L249.03266666666667,160.40292157996214L249.09388888888887,160.43124264764793L249.57722222222222,160.48789236505567L249.5836666666667,160.50871380375054L249.78666666666666,160.542260393866L249.7963333333333,160.55569015366692L250.10244444444444,160.6136038077462L250.22488888888887,160.6167470375921L250.54711111111112,160.6372448830289L250.68244444444443,160.6336161248512L251.00788888888889,160.62255708212436L251.17866666666666,160.60239591828986L251.30433333333335,160.59959774632398L251.372,160.58140053118944L251.6877777777778,160.60637392069907L251.69744444444444,160.61941600725913L251.77477777777779,160.6342767977282L251.86822222222222,160.64226216642837L252.08733333333333,160.65858050738302L252.11633333333333,160.66138289444817L252.98633333333333,160.70593552220876L253.30855555555556,160.6814863190404L253.32466666666667,160.67104729555274L253.40200000000002,160.66527880556526L253.924,160.62264275922018L253.9401111111111,160.60349907267775L254.0142222222222,160.60600912219996L254.27844444444443,160.61738129547288L254.417,160.627551169802L254.56844444444442,160.62974295632088L254.8068888888889,160.64733749804446L254.89711111111112,160.66749815035513L254.99377777777778,160.69455777803418L255.19033333333334,160.75079344935978L255.21611111111113,160.76027083699194L255.22577777777778,160.76219955930637L255.4191111111111,160.75968789620737L255.46744444444445,160.75945652542129L255.58344444444444,160.7860866788019L255.72522222222221,160.817749351188L255.79288888888888,160.85169207509446L255.85733333333332,160.8637513593979L256.10544444444446,160.87474919661742L256.28266666666667,160.8782326193586L256.3052222222222,160.8699911137088L256.58233333333334,160.78838513700552L256.5855555555556,160.75836190462707L256.87555555555554,160.72015803324751L257.056,160.69352624474018L257.1591111111111,160.6935041149667L257.6166666666667,160.69515539377164L257.73266666666666,160.6982007652735L257.89377777777776,160.72917043041247L257.984,160.74781778224244L258.0323333333333,160.72684788625503L258.2031111111111,160.7146589877861L258.83144444444446,160.68958145985243L259.11822222222224,160.68764275420997L259.31155555555557,160.68656409048774L259.3502222222222,160.68332061436806L259.521,160.64161135136476L259.73044444444446,160.59261802627887L260.13,160.54628935681222L260.47155555555554,160.5306780190265L260.53922222222224,160.53231299822895L260.739,160.5132190826122L260.7937777777778,160.49394377068114L260.8453333333333,160.47477746061662L260.87111111111113,160.46299436028767L260.9871111111111,160.43972430484737L261.1127777777778,160.41863611819852L261.22555555555556,160.41160370319662L261.4801111111111,160.41112395013636L261.6702222222222,160.38464134567485L261.82166666666666,160.36154574726712L261.8571111111111,160.3608560804655L261.93122222222223,160.36256775177745L262.03755555555557,160.36028090858477L262.0407777777778,160.3597090281014L262.0762222222222,160.36172650870142L262.2308888888889,160.35234184712562L262.23411111111113,160.34746837395974L262.42744444444446,160.34584415465534L262.5402222222222,160.34233455810767L262.86244444444446,160.34180593425333L263.0042222222222,160.33442931417338L263.11055555555555,160.33048975407496L263.16211111111113,160.32311008275514L263.18466666666666,160.31891174495226L263.90644444444445,160.3243723526659L264.0127777777778,160.3098234455591L264.074,160.30652802696L264.132,160.29367878628523L264.2286666666667,160.29013284160737L264.3833333333333,160.29406915103866L264.5702222222222,160.29192437435458L264.89566666666667,160.30292708231204L264.9987777777778,160.30302142460752L265.18244444444446,160.3081730666232L265.3532222222222,160.28977010572896L265.6335555555556,160.27550862302678L265.8623333333333,160.21699249984636L265.8848888888889,160.19861786402754L266.829,160.2403210346316L266.8998888888889,160.26932771600397L267.04166666666663,160.27443206474436L267.438,160.25938724022961L267.61522222222226,160.26852088802985L267.6313333333333,160.2715506259547L267.8665555555556,160.2721926850938L267.91166666666663,160.26812920112783L267.98577777777774,160.28188427855292L268.2564444444444,160.3185614810871L268.6044444444444,160.3316136968096L269.0523333333333,160.35018854605045L269.6258888888889,160.3145723311499L269.87399999999997,160.28088714663826L269.9577777777778,160.26190309680206L270.1672222222222,160.26769221374587L270.61188888888887,160.3102481831694L270.6376666666667,160.32778573794377L270.657,160.33953605011598L271.23055555555555,160.39092589360706L271.3755555555556,160.43397059530088L271.72355555555555,160.47350037175522L271.962,160.50457898796418L271.9781111111111,160.51659776256543L271.9942222222222,160.5247362031626L272.5097777777778,160.5594406324552L272.6934444444444,160.55934822777266L273.08011111111114,160.58158182310817L273.4281111111111,160.59975113475994L273.70844444444447,160.63860124031106L273.72777777777776,160.65954263224722L273.76,160.66696464926227L273.88888888888886,160.70144881018769" style="fill: none;" fill="none"></path></g></g></g></g><g opacity="0.2"><g><g><g><path stroke="rgb(255, 112, 67)" stroke-width="2px" d="M32.22544444444444,10.10607070189252L90.31888888888889,123.7475167971391L90.44777777777777,139.37617349624634L90.57988888888889,131.70261490345L90.82477777777778,130.6529039327915L90.85377777777778,130.41653474477621L91.75922222222222,128.44039386969345L91.83977777777778,128.18925465070285L91.96866666666666,127.79495163147266L92.31988888888888,126.87468131688925L92.56477777777778,125.22939725105579L92.86444444444444,124.82570471213414L92.94822222222223,124.18323271091168L93.09322222222222,124.70520722866058L93.44444444444446,124.90153502500974L93.5411111111111,124.69421085944542L93.65066666666667,124.46337637534508L93.76344444444445,124.47910402371332L93.79244444444444,124.44477587479811L93.86333333333333,124.42677591397211L93.87622222222222,124.45512301188248L93.96000000000001,124.63307753893045L94.01155555555556,124.70334068628458L94.20166666666665,124.00303021761087L94.31444444444445,123.09903939870688L94.34022222222222,123.131436082033L94.685,123.08664718041052L94.7301111111111,123.11006822952857L94.81711111111112,123.30637167967282L94.87188888888889,123.56932692344373L95.06522222222222,124.0366604419855L95.22955555555555,123.95020706836993L95.48733333333332,124.25891694655785L95.55177777777777,124.29639387130737L95.84822222222222,123.56911592300122L95.85788888888888,123.54983372871692L95.91266666666667,123.66541327879979L96.13177777777777,123.69457191687363L96.35411111111112,123.91171571841606L96.36699999999999,123.84277538152841L96.73433333333334,124.19234630694756L96.76655555555556,124.19857082000145L97.2241111111111,124.25717213520636L97.58822222222221,124.42097340180322L98.00388888888888,124.44203286904555L98.252,124.54668097312634L99.17033333333333,125.0156213411918L99.209,125.0951117002047L99.32177777777778,125.1806886104437L99.5408888888889,125.39493521360251L99.62788888888889,125.31908866992363L99.72133333333333,125.27636919571802L99.95977777777777,125.24015827362354L100.59777777777778,125.13988437102391L100.66866666666667,124.99515429826883L100.68477777777778,124.97626975866464L101.10044444444445,125.04226420475885L101.21644444444445,124.94696504336136L101.75455555555556,124.25248954846307L101.80933333333334,124.26491422836597L102.36999999999999,124.45177946640894L102.48922222222222,124.46933308014502L102.67611111111111,124.01392108660477L102.89844444444444,123.76259521337656L103.16266666666667,123.67321217977084L103.56866666666667,123.26975498749658L103.62344444444444,123.36391799266522L103.7491111111111,123.37366459002861L104.19055555555555,123.03554449631616L104.36133333333333,123.17158297392038L104.52566666666667,123.33971786499023L104.65133333333334,123.36316326031317L105.14433333333332,123.76924172731546L105.26355555555556,123.88797816863426L105.28933333333333,123.8474823144766L105.57933333333332,123.80931558058812L105.62122222222222,123.88986094181354L105.70822222222222,123.90177435141342L105.73722222222221,123.8388312963339L105.75655555555555,123.84421180761777L105.78555555555555,123.8401865684069L105.95311111111111,123.83299632255847L105.99177777777777,123.84615138860849L105.99822222222222,123.8558979859719L106.00466666666667,123.85674198774191L106.05622222222222,123.85037139745859L106.29466666666666,124.0297136581861L106.32688888888889,124.00189406138199L106.40422222222223,123.99834763086758L106.54922222222223,123.97121784320244L106.58466666666666,124.00583814657651L106.63300000000001,124.10616074158594L106.74577777777779,124.20975384345421L106.7941111111111,124.25110993018517L106.88111111111112,124.30664362357213L106.95522222222222,124.33411425810593L107.20655555555555,124.30718735548166L107.39988888888888,124.3433658159696L107.51588888888888,124.3920988027866L107.80911111111111,124.36941625521733L108.10877777777777,124.2661558848161L108.53733333333334,124.20463302502264L108.80799999999999,124.29439748250522L109.33322222222223,124.54972424873938L109.40411111111112,124.49389840089358L109.42344444444444,124.49879198807936L109.56200000000001,124.48457380441519L109.83588888888889,124.72969951079442L110.48677777777777,124.87544400875385L110.74455555555555,124.91072977506198L110.97977777777778,124.98774493657626L111.05066666666667,125.04814787094409L111.20855555555555,125.0644273666235L111.34388888888888,125.06426505859082L111.54688888888889,125.09343181206629L111.60811111111111,125.07189353612753L111.66933333333333,125.1254470715156L111.67577777777777,125.12229829568129L111.73377777777779,125.13512063026428L111.85622222222223,125.23556495629825L112.13977777777778,125.1714532833833L112.22355555555555,125.18902312792264L112.23322222222221,125.16472561542804L112.2751111111111,125.14925765991211L112.59411111111112,125.34832034661218L112.91633333333334,127.39590921768774L112.96144444444444,131.58581804312192L113.10000000000001,130.2161654784129L113.11933333333333,129.70160843775824L113.39322222222222,130.9786805006174L113.66711111111111,130.57743881298944L113.79922222222221,130.88103598814743L114.00544444444444,131.58719766139984L114.173,130.45577271168048L114.45011111111111,131.85508706936469L114.71433333333334,132.28793013095856L114.89155555555556,131.89611854003027L114.92699999999999,132.08490712826068L115.24277777777777,131.27680789507352L115.50377777777778,132.27493737294122L115.92588888888889,134.26538570110614L115.95166666666667,134.37490304616782L116.12244444444445,134.793227654237L116.30933333333334,134.7060601252776L116.40599999999999,135.12836128014783L116.45755555555554,134.9944084607638L116.48977777777777,135.07605751661154L116.51877777777777,135.05957513589124L116.6798888888889,134.96082692879895L116.98277777777778,134.84514999389648L117.10522222222222,134.46495154270758L117.18900000000001,134.28811694108524L117.20511111111111,134.2663352030974L117.29211111111111,133.91592027590826L117.41133333333333,133.5255613418726L117.53699999999999,133.33407032489777L117.99455555555555,132.45423905666058L118.00744444444445,132.43987479576697L118.05900000000001,132.4985248033817L118.12666666666667,132.67623586838062L118.23622222222222,132.19729732550107L118.25555555555556,132.11487730649802L118.33611111111111,131.98598849773407L118.48755555555555,131.47427184765155L119.28666666666666,131.16014899657324L119.32211111111111,131.1252121925354L119.88277777777778,130.69283982423636L119.96333333333334,130.83622274032007L120.02455555555557,130.94157688434308L120.11800000000001,130.8721009309475L120.48855555555555,130.91578613794766L120.57555555555557,131.06529618226566L120.67222222222222,130.83132915313428L120.81722222222221,130.81796308664175L120.86555555555556,130.9898959856767L121.00411111111111,130.76223462361554L121.22966666666666,130.50156792310568L121.29733333333334,130.4801432627898L121.41977777777778,130.46912254736975L121.50033333333333,130.3980640906554L121.57444444444444,130.52132892608643L122.44444444444444,130.267763202007L122.87944444444445,130.30564589683826L122.88266666666667,130.30304085291348L123.47877777777778,130.6775504075564L123.69788888888888,130.89980691212872L123.86866666666666,131.09442235873297L123.975,131.2913993872129L123.98788888888889,131.3335832449106L124.13611111111112,131.35942268371582L124.15544444444446,131.34319999584784L124.23922222222222,131.3941160257046L124.51311111111112,131.5862319286053L125.21555555555555,132.1578970505641L125.25744444444445,132.19366162556867L125.29611111111112,132.27850814966055L125.37988888888889,132.3324512243271L125.53133333333334,132.12119920437152L125.7568888888889,132.06637966632843L125.76011111111112,132.0722065247022L125.80844444444445,132.11218299315527L125.92122222222223,132.3055730141126L125.976,132.38460079523233L126.02433333333333,132.42165571909683L126.20155555555556,132.4901578242962L126.208,132.47586660201733L126.22411111111111,132.43343928227057L126.40777777777778,132.53656169084402L126.49799999999999,132.58688529638144L126.63333333333333,132.59811701224402L126.90722222222223,132.64249202838312L126.962,132.56420274881216L127.76433333333333,132.29606987879828L127.919,132.2011277950727L127.93511111111111,132.16070497952975L128.238,131.97129150537344L128.24444444444444,131.99140958602612L128.26055555555556,132.00939331604883L128.31533333333334,132.00971793211423L128.3958888888889,131.98972158248608L128.75677777777778,131.94692095426413L129.02744444444446,128.75497118326334L129.30133333333333,120.30883447023538L129.45600000000002,131.95196061867932L129.59777777777776,122.21429831248062L129.6428888888889,123.48495920804831L129.72344444444445,123.38187737648303L129.833,125.31025099754333L129.89100000000002,123.6611283467366L129.89744444444443,123.96515563818124L130.0778888888889,124.52260257647588L130.34855555555555,125.02673944143149L130.38722222222222,125.61347486422612L131.07033333333334,130.74726982300098L131.37644444444445,132.71467852592468L131.46988888888887,133.0744342803955L131.52144444444446,133.47975801504575L131.61811111111112,134.1793543283756L131.6277777777778,134.23899441498975L131.65355555555556,134.336565888845L131.90166666666667,134.46412377174084L132.59766666666667,134.72407631690686L132.69755555555557,134.76750994645633L132.97144444444444,134.9615573149461L133.20988888888888,134.54548067312973L133.748,133.11835483404306L134.20555555555555,134.07373237609863L134.212,134.10414890142587L134.66633333333334,135.47841912966507L134.80488888888888,135.88584475333874L134.98855555555556,136.18785942517795L135.78444444444443,137.14091596236597L135.82955555555554,137.3086775449606L135.981,137.7253871881045L136.17111111111112,137.50912796534024L136.23555555555555,137.56531089085797L136.242,137.54326946001785L136.40633333333332,137.42040227926694L136.60611111111112,137.32095614763406L136.78333333333333,137.19431530512296L137.19577777777778,136.48376319958612L137.36977777777778,136.4605125739024L137.47933333333333,136.16025894421796L137.50511111111112,136.16051863707028L137.50833333333333,136.14674680049603L137.6758888888889,135.8015419611564L137.78544444444444,135.6155126094818L137.8047777777778,135.65588673261496L138.098,135.58651627944067L138.2462222222222,135.75031754603754L138.6522222222222,136.1206720150434L138.70055555555555,136.18217052863196L138.7231111111111,136.15975578931662L138.7811111111111,136.24188365386084L138.79722222222222,136.2704011752055L138.9261111111111,136.416389135214L138.92933333333332,136.41770383027884L138.96800000000002,136.34178424798526L139.07755555555556,136.24154280699216L139.29666666666668,135.94623957230493L139.57055555555556,135.63093998798956L139.66722222222222,135.52205564425543L140.35355555555554,135.48223336843344L140.37933333333334,135.5008825613902L140.42444444444445,135.4955345117129L140.56300000000002,135.6044837786601L140.59844444444445,135.68960622640756L140.6081111111111,135.7245917228552L140.679,135.86042731541852L140.79177777777778,135.954460474161L141.085,136.25915322853967L141.93244444444443,138.10374344312228L142.02266666666668,138.18090468186597L142.41899999999998,138.97286238120154L142.63166666666666,138.47763622724094L142.825,138.2005683000271L143.08922222222222,138.02318185109357L143.144,138.12943680469806L143.2052222222222,138.1154783138862L143.32122222222222,138.29869973659515L143.4597777777778,138.51560007608853L143.6112222222222,138.86288245824667L143.70144444444443,138.99827981912173L143.75944444444445,138.99565042899206L144.08488888888888,139.65293303819803L144.2008888888889,139.8885961862711L144.2911111111111,139.96208114807422L144.44255555555557,139.99965545764337L144.51666666666668,140.0338050677226L144.60366666666667,140.20434211767636L144.64877777777778,140.30401548055502L145.04188888888888,140.25100567707648L145.0998888888889,140.19532590646008L145.2577777777778,140.15595809312967L145.29,140.18477588433484L145.32544444444446,140.2077100093548L145.35766666666666,140.17920060341174L145.40599999999998,140.15659920985883L146.0536666666667,140.43829291600446L146.0891111111111,140.47106290780582L146.25022222222225,140.4448501605254L146.36944444444444,140.5246894818086L146.6981111111111,140.89843618869781L146.9301111111111,140.94782652304724L147.04611111111112,140.93181483562176L147.12666666666667,140.9229690478398L147.17822222222222,140.88098807518298L147.21366666666668,140.85169959068298L147.291,140.733433842659L147.349,140.72066831588745L147.378,140.70128873678354L147.65833333333333,140.76617948825543L147.94511111111112,140.6481572022805L148.01277777777779,140.57762624667242L148.29955555555557,140.6178542925761L148.44777777777776,140.62503642302292L148.80866666666665,140.56474710427798L149.0567777777778,140.67370448662683L149.07611111111112,140.6540327530641L149.69155555555554,140.73543023146115L149.79144444444444,140.77630750949567L149.83977777777778,140.8083795767564L149.89133333333334,140.8228574532729L149.96866666666668,140.7503138780594L150.09755555555557,140.59302927897528L150.15233333333333,140.57084988630734L150.29088888888887,140.6106640467277L150.48422222222223,140.56280752328726L150.48744444444444,140.55639635599576L150.57122222222222,140.58241433363693L151.56688888888888,140.95517907692835L151.70222222222222,141.0187794795403L152.00833333333333,140.90775266977457L152.62055555555554,141.22159148179568L152.82033333333334,141.42826641522922L152.82355555555554,141.42389221374805L152.87511111111112,141.50800835169278L152.9878888888889,141.56943382666663L153.06522222222222,141.5965717297334L153.1038888888889,141.59808119443747L153.11355555555556,141.57182787014887L153.37777777777777,141.5750577999995L153.3971111111111,141.58339231747846L153.46155555555555,141.6793244802035L153.79666666666665,141.97207947877737L153.83855555555556,141.90900657727167L153.8868888888889,141.95176662848547L154.2671111111111,142.36475130227896L154.32833333333335,142.38792888934796L154.44755555555557,142.49376995746906L154.76977777777776,142.84298380521628L155.0468888888889,142.98153805732727L155.18544444444447,142.99137392410864L155.37555555555556,143.02907808010394L155.53344444444446,143.00017101948077L155.56566666666666,142.99006734444544L155.8298888888889,142.9249331309245L156.12633333333332,143.2320280441871L156.27777777777777,143.2221840620041L156.339,143.15991458526025L156.4131111111111,143.15583253823795L156.46144444444445,143.1587621982281L156.47755555555557,143.15014364169195L156.81266666666664,143.3099764768894L157.35722222222225,142.963099864813L158.02422222222222,142.8450370018299L158.10155555555556,142.93715492578653L159.05533333333332,143.18617602495047L159.20033333333333,143.31627402855798L159.20677777777777,143.32168700144842L159.38077777777778,143.44763803482056L159.40655555555557,143.48695715574118L159.57411111111114,143.58383070505582L160.08644444444442,143.58215893231906L160.94033333333334,143.8587886278446L160.99833333333333,143.86288690567017L161.26577777777777,143.82595371283017L161.4591111111111,143.74942547541397L161.61055555555555,143.69601801725534L161.75877777777777,143.73847779860864L162.284,143.58083612185257L162.50311111111114,143.53550348832056L162.9187777777778,143.71412347830258L162.94133333333332,143.73871314525604L163.00900000000001,143.79381672235635L163.19266666666667,143.84262274778806L163.50522222222224,143.7478673183001L163.66955555555555,143.75068336266736L163.75333333333333,143.746114391547L163.79522222222224,143.7588961491218L163.85322222222223,143.75599895073816L164.52988888888888,144.17889252992777L164.62011111111113,144.23199971822592L164.71355555555556,144.27283641925226L164.72966666666665,144.28022143473993L164.96166666666664,144.4657395161115L165.2097777777778,144.77070819414578L165.6641111111111,145.0767805668024L165.66733333333335,145.08268857919253L165.84455555555556,145.1201736193437L165.87355555555555,145.133588378246L166.112,145.3333327586834L166.23766666666668,145.3893371453652L166.721,145.65806243969843L166.81444444444443,145.71531659823196L166.96911111111112,145.81830916037927L167.13344444444442,145.95525656296655L167.185,145.93228186093845L167.23655555555555,145.91561282598056L167.301,145.90150825793927L167.62966666666665,146.10458806844858L167.66188888888888,146.12750596266525L168.02277777777778,146.28220174862787L168.15166666666667,146.37766321805807L168.2741111111111,146.406886779345L168.5351111111111,146.45986412121698L168.68011111111113,146.51596589271838L168.70266666666666,146.53367369908554L168.8831111111111,146.64787363089047L168.94433333333333,146.68877525512988L169.273,146.91707773392017L169.29555555555555,146.9072662133437L169.38255555555557,146.8581112256417L169.81755555555554,146.85074244095728L170.07855555555554,146.728305376493L170.1752222222222,146.7151746566479L170.2783333333333,146.71126303305994L170.3008888888889,146.70184105176193L170.3782222222222,146.72760745195242L170.44266666666667,146.72432882969196L170.752,146.66929829120636L170.80033333333333,146.67116483358237L170.80677777777777,146.6763992676368L170.85833333333332,146.68148762446182L171.15155555555557,146.7277454137802L171.45444444444445,146.75300865906937L171.48666666666668,146.78529984217423L171.64455555555554,146.7831005683312L172.54033333333334,146.885792860618L172.93344444444443,146.7507120004067L173.159,146.77343512498416L173.217,146.77331339395963L173.26533333333333,146.8028696867136L173.41677777777778,146.8483402820734L173.80666666666667,146.9752408174368L173.8098888888889,146.97184046415182L173.9548888888889,146.95633193162772L174.1256666666667,147.02397380425379L174.145,147.03041743315183L174.18366666666668,147.05212613252493L174.26744444444446,147.07626945238846L174.27388888888888,147.07588802851163L174.38344444444445,147.13383199618414L174.522,147.15419353888586L174.6218888888889,147.188878765473L174.77011111111113,147.2673871608881L175.00533333333334,147.35146272182465L175.0568888888889,147.37748069946582L175.5241111111111,147.5711791056853L175.63688888888888,147.60504467670734L175.85600000000002,147.6439093351364L176.08155555555555,147.75069990524878L176.29744444444447,147.85191519443805L176.34255555555558,147.86172671501453L176.51333333333335,147.99182471862207L176.9547777777778,148.0810535595967L176.96766666666664,148.0853628378648L176.9741111111111,148.09122215784512L177.20288888888888,148.13971168261307L177.5218888888889,148.21542026446417L177.57022222222224,148.24052931712225L177.72811111111113,148.25537238671228L177.77,148.2402615088683L177.77322222222222,148.24290712980124L177.8698888888889,148.29928482495822L178.1663333333333,148.38727200948276L178.44666666666666,148.49326727023492L178.71411111111112,148.6084816272442L178.96866666666665,148.59044920481168L179.00411111111111,148.58070260744827L179.39077777777777,148.7233875989914L179.5261111111111,148.74690603292905L179.67433333333335,148.73475727668176L180.27366666666668,148.8415884238023L180.79244444444444,148.96506425967584L180.8311111111111,148.97225450552426L181.018,148.99125266075134L181.06633333333332,148.9927134330456L181.13722222222222,149.03876022192148L181.34666666666666,149.02842931564038L181.36599999999999,149.02403888335596L181.5432222222222,149.07152209832117L181.58833333333334,149.08802070984473L181.6141111111111,149.09410726107083L181.85255555555554,149.1384985080132L182.17155555555553,149.15125591938312L182.47766666666666,149.1849672977741L182.50344444444445,149.20100333140448L182.61944444444444,149.23023500809302L182.71288888888887,149.26228272914886L183.0608888888889,149.3622807080929L183.19622222222222,149.3816359409919L183.44755555555557,149.41268546764667L183.91155555555554,149.54396020449124L184.00177777777776,149.57891323933234L184.13711111111112,149.61910882362952L184.2047777777778,149.66994369946994L184.40455555555556,149.7463258596567L184.4367777777778,149.72904005417456L184.47866666666667,149.75909138642825L184.50444444444446,149.78036185411307L184.86211111111112,149.87553928448602L185.0328888888889,149.9050793464367L185.12633333333332,149.93232274972476L185.38088888888888,149.9157267533816L185.91255555555554,149.9482370523306L185.92866666666666,149.9531306395164L186.30244444444443,150.04944422611823L186.37333333333333,150.06309433166797L186.80188888888887,150.0298698773751L186.98877777777776,149.99985912212958L187.04033333333334,150.00880229473114L187.33355555555556,150.08103748468253L187.41088888888888,150.09648109399356L187.58488888888888,150.14272265250867L187.69444444444446,150.18489839480475L187.70088888888887,150.18947548132675L188.0037777777778,150.24871791326083L188.21,150.31597024660843L188.29055555555553,150.2763183942208L188.30344444444444,150.2751091993772L188.59988888888887,150.3511018202855L188.66755555555557,150.37072486143845L188.76422222222223,150.39217386795923L188.92211111111112,150.3697104362341L189.2088888888889,150.3918654826971L189.2378888888889,150.3860305089217L189.77922222222224,150.4990050150798L189.79211111111113,150.50063621080838L189.81144444444445,150.50359021700345L190.00155555555554,150.55596701915448L190.17233333333334,150.6143816801218L190.18200000000002,150.61259629176215L190.3012222222222,150.6356764940115L190.5461111111111,150.38048768960513L190.76844444444444,150.44153985610376L191.197,150.47823770229633L191.28077777777779,150.49818535951468L191.3516666666667,150.48633687312787L191.47733333333332,150.43148487347824L191.60299999999998,150.43699523118826L191.60622222222224,150.43734419345856L191.80599999999998,150.44074454674353L192.0347777777778,150.49588870085202L192.04444444444445,150.50027913313644L192.04766666666666,150.49978409363672L192.19266666666664,150.5080780341075L192.26677777777778,150.50208075229938L192.3312222222222,150.53574343828055L192.83388888888888,150.53738274941077L193.00466666666665,150.55952156507053L193.04977777777776,150.5644800754694L193.31722222222223,150.65751503981076L193.546,165.9916678712918L193.72322222222223,164.32772649709995L193.77477777777779,165.16393342384924L193.80055555555555,164.507612489737L194.24844444444443,169.26608635370548L194.4933333333333,163.5463756277011L194.89288888888888,158.6075329046983L194.90577777777776,158.68584653047415L194.94766666666666,158.23202515565433L195.05722222222224,157.59672716947702L195.402,154.78844924156482L195.4438888888889,154.56379057810858L195.66944444444445,155.41231262683868L195.73388888888888,155.73498099583847L195.81444444444443,155.03635041530316L195.82088888888887,155.10119247436523L196.06577777777775,154.19250283791467L196.1237777777778,154.07157523815448L196.13666666666666,153.80098340144525L196.2301111111111,153.9120345574159L196.2848888888889,154.13795110812555L196.30744444444443,154.35465667797968L196.36544444444442,154.50588718744424L196.43633333333332,154.58605924019446L196.4782222222222,154.65224845592792L196.58455555555557,155.11317892257983L196.6038888888889,155.34799806888287L196.73277777777778,155.14603006839752L196.81655555555557,155.00097537957706L197.0678888888889,156.61222345095413L197.14844444444444,156.12725516465994L197.287,155.56736549047324L197.38044444444444,155.32066539617685L198.03133333333332,157.4450584283242L198.06355555555555,157.55578496822943L198.07966666666667,157.32738510461954L198.0828888888889,157.24459177714127L198.15055555555554,156.881135399525L198.16666666666666,156.70427645169772L198.83044444444445,156.37619510980753L198.84333333333333,156.42179555159348L199.1558888888889,155.95808150218085L199.1881111111111,155.90244230857263L199.62311111111111,156.03939782656155L199.6682222222222,156.18662744302017L199.74233333333333,156.16432631932773L200.06777777777776,156.08489276812628L200.4608888888889,156.15137413831857L200.58977777777778,156.39369191573218L200.66066666666666,156.43541319553668L201.3051111111111,156.3595909980627L201.67566666666667,156.28162633455716L201.97533333333334,156.6983522085043L202.53277777777777,156.95684398137607L202.61655555555555,156.7641275387544L203.5928888888889,157.74447617164026L203.66055555555556,157.78017582343176L203.84744444444445,157.57903559391315L203.93444444444444,157.59800940293533L204.0021111111111,157.7526970734963L204.24055555555555,158.05821759884174L204.247,158.08179284059085L204.35333333333332,158.0949803682474L204.45322222222222,157.91379591134879L204.45966666666666,157.92858217312738L204.5402222222222,157.76072320571313L204.61433333333335,157.63028435523694L204.97522222222221,157.38539399550513L205.03,157.27802723187668L205.25233333333333,157.4129538994569L205.35544444444443,157.45577887388376L205.63899999999998,157.68597224125494L205.79688888888887,157.71738696098328L205.93222222222224,157.86723785216992L205.94833333333332,157.87307282594534L206.24155555555555,158.07240332089938L206.2898888888889,157.97784266105066L206.30922222222222,157.95081837360675L206.33177777777777,157.96506090347583L206.60888888888888,157.4373893737793L206.683,157.33917678319492L207.25011111111112,157.52104293383084L207.35322222222223,157.41977083683014L207.437,157.4453668135863L207.5562222222222,157.5932943545855L207.58844444444446,157.52757583214685L207.9138888888889,157.57352523620312L207.92033333333333,157.57486427747287L208.04922222222223,157.67256559775427L208.20711111111112,157.52903660444113L208.76133333333334,157.1357236642104L208.7871111111111,157.08874360414652L208.84833333333333,156.96082864357874L208.88055555555556,156.950489621896L208.89022222222223,156.9442651088421L208.90633333333335,156.9324653148651L209.18344444444443,156.63180591509894L209.35744444444444,156.5480468548261L209.67322222222225,156.59510806890634L209.786,156.6499925301625L210.00833333333333,156.7901049393874L210.2048888888889,156.66546860108008L210.20811111111112,156.67493115938626L210.49488888888888,156.66918545502884L210.86544444444445,156.71930617552536L210.91377777777777,156.8306576013565L211.50666666666666,157.19505536556244L211.6162222222222,157.24607689564044L211.87722222222223,157.43830641416403L211.99322222222222,157.63789660197037L212.49266666666668,157.77345627087814L212.50233333333333,157.78652206751016L212.541,157.8467789246486L212.65699999999998,157.80022086546973L212.88255555555557,157.79929570968335L212.89544444444445,157.82642549734848L213.07911111111113,157.82164552578558L213.72677777777778,158.0009390941033L213.95233333333334,158.10719404770776L214.36155555555555,158.25304404588846L214.69344444444445,158.1976726605342L215.09622222222222,157.96931337393247L215.47,157.77968078393204L216.28844444444445,157.549617262987L216.4978888888889,157.5432060956955L216.84588888888888,157.69175040721893L216.86522222222223,157.69457456698785L217.34533333333331,157.93513941764832L218.06066666666666,158.06731496407434L218.718,158.24749311117026L218.74377777777778,158.25220815952008L218.93388888888887,158.23959682537958L218.99511111111113,158.24803684307977L219.18200000000002,158.24821538191574L219.443,158.30312418937683L219.7201111111111,158.3885955993946L219.97788888888888,158.4075775238184L219.98433333333332,158.39434941915366L220.4257777777778,158.42634844779968L220.69644444444447,158.47687493837796L221.16366666666667,158.41606623392838L221.18300000000002,158.36692747702966L221.20555555555555,158.37074983119965L221.23133333333334,158.3914927977782L221.44077777777778,158.38695628826434L221.5148888888889,158.383142049496L221.78233333333336,158.41547380960904L221.792,158.4287587220852L221.821,158.42517171456262L222.05944444444444,158.5263383113421L222.34622222222222,158.52323011251596L222.50088888888888,158.46807784300583L222.5621111111111,158.49263504835275L222.62977777777778,158.53115074451154L222.69744444444444,158.54773051005142L222.80055555555555,158.57265290847192L222.83922222222225,158.57987561592688L223.25166666666667,158.54640769958496L223.32255555555554,158.50650426974664L223.36766666666665,158.46755034189957L223.37088888888889,158.4636143721067L223.43855555555558,158.42326459517847L223.4901111111111,158.42900218413428L223.96377777777778,158.2633587213663L224.0088888888889,158.22734256891104L224.2118888888889,158.3148428293375L224.31822222222223,158.28156156723315L224.4728888888889,158.30241003403296L224.518,158.3206291107031L224.6178888888889,158.30599704155554L224.6468888888889,158.32119718881754L224.77255555555556,158.35934769190274L224.9691111111111,158.3883440219439L225.156,158.39232056874496L225.40411111111112,158.47276042974912L225.417,158.46367929531976L225.504,158.39708430950458L225.90033333333335,158.35873903678015L226.46744444444442,158.48046194590054L226.519,158.5097341995973L226.68977777777778,158.54036984076868L226.9121111111111,158.5807115022953L227.01200000000003,158.58217227458954L227.03777777777776,158.58872140370883L227.2858888888889,158.5366448714183L227.3148888888889,158.53882791445807L227.45988888888888,158.5340317120919L227.679,158.4739209321829L228.7358888888889,158.5934526828619L229.187,158.6863009929657L229.25466666666665,158.73681936814233L229.35133333333334,158.73892125716577L229.39322222222222,158.74036579865677L229.4447777777778,158.7545758669193L229.46733333333333,158.7659536600113L229.74444444444447,158.91977298259735L229.88944444444445,158.95679544485532L229.95066666666668,158.9378540974397L230.06344444444446,158.88769279993497L230.463,158.52389557545L230.90444444444447,158.49120673766504L230.97533333333334,158.51235547432532L231.00755555555557,158.53024993493005L231.12033333333335,158.51421390129968L231.26533333333333,158.5578909928982L231.3007777777778,158.5708269431041L231.83244444444446,158.74260564950796L231.83888888888887,158.73960295090308L232.02577777777776,158.72423238020676L232.08055555555555,158.6977518246724L232.15788888888886,158.7190141769556L232.19011111111112,158.73058673968683L232.30933333333334,158.73947310447693L232.38022222222222,158.71808090576758L232.551,158.7204668338482L232.78944444444446,158.70407372254593L232.81199999999998,158.69354804662558L232.93444444444444,158.7205317570613L233.58533333333332,158.62125604886276L233.8012222222222,158.65451296476218L234.00422222222224,158.72307999317462L234.05255555555556,158.70935684901016L234.37800000000001,158.7828093492068L234.38766666666666,158.7804558827327L234.60677777777778,158.75700237200812L234.99022222222223,158.84696159912988L235.13522222222224,158.86462882848886L235.86666666666667,158.7493089712583L236.09222222222223,158.72174906730652L236.37577777777776,158.75487613677979L236.53044444444444,158.79949461496793L236.73344444444442,158.84270912867325L236.76888888888888,158.8301546023442L237.76455555555557,158.6177664261598L238.15122222222223,158.68290063968072L238.17700000000002,158.6754182393734L238.293,158.68139117497665L238.54111111111112,158.7418428017543L238.57011111111112,158.7437580365401L239.25644444444444,158.88566394952628L239.81066666666666,158.97477917487805L239.8912222222222,158.9505871626047L239.94277777777776,158.95083062465375L240.39711111111112,158.86050620445837L240.44544444444443,158.846336713204L240.54533333333333,158.84954229684976L240.8772222222222,158.87233846004193L241.0318888888889,158.860092318975L241.19622222222222,158.92643572733954L241.31544444444444,158.96045549099262L241.49266666666665,158.91634828310745L241.49911111111112,158.9184095951227L241.55066666666667,158.92823734650244L241.72788888888888,158.95787479327277L242.4367777777778,159.0462190554692L242.46255555555555,159.05013879445883L242.47544444444443,159.04754998133734L242.64944444444444,159.054090995055L242.97166666666666,159.08574106143072L243.53233333333333,159.29292726516724L243.7772222222222,159.25742238301498L243.88355555555557,159.2413214261715L243.95444444444445,159.23981196146744L244.04144444444444,159.24071277104892L245.04999999999998,159.49388084044824L245.46566666666666,159.61280393600464L245.543,159.6490310889024L245.75566666666668,159.67436737280624L245.8587777777778,159.70699128737817L246.01666666666668,159.7742679669307L246.02955555555556,159.77271792521844L247.35711111111112,159.98206282578982L247.5246666666667,160.01140811810126L248.14655555555555,160.1909613792713L248.36566666666667,160.2589846757742L248.42366666666666,160.28051483631134L248.80066666666667,160.3546084532371L248.8167777777778,160.3642657811825L248.88444444444445,160.37385818591486L248.88766666666666,160.3774370780358L248.90055555555557,160.3817707025088L249.03266666666667,160.4170077764071L249.09388888888887,160.44752168655396L249.57722222222222,160.52045480104593L249.5836666666667,160.52068203229172L249.78666666666666,160.56154307952295L249.7963333333333,160.56340962189896L250.10244444444444,160.64689275851617L250.22488888888887,160.61855377600745L250.54711111111112,160.64902710914612L250.68244444444443,160.6315303032215L251.00788888888889,160.61620030953333L251.17866666666666,160.59080721781805L251.30433333333335,160.59798934826483L251.372,160.57094071461603L251.6877777777778,160.62072870364557L251.69744444444444,160.62691263969128L251.77477777777779,160.6428188268955L251.86822222222222,160.646852181508L252.08733333333333,160.66796034116012L252.11633333333333,160.66299371535962L252.98633333333333,160.7315445129688L253.30855555555556,160.66743284005386L253.32466666666667,160.6650469119732L253.40200000000002,160.661963059352L253.924,160.59813542549426L253.9401111111111,160.5924952213581L254.0142222222222,160.60745190657101L254.27844444444443,160.62391805648804L254.417,160.63339684559747L254.56844444444442,160.63100280211523L254.8068888888889,160.65745089604303L254.89711111111112,160.67908655680142L254.99377777777778,160.71011173725128L255.19033333333334,160.78311789035797L255.21611111111113,160.76571846925296L255.22577777777778,160.7633081949674L255.4191111111111,160.7582441843473L255.46744444444445,160.75932353276474L255.58344444444444,160.80139377483954L255.72522222222221,160.83594915500055L255.79288888888888,160.87120245970212L255.85733333333332,160.8706830739975L256.10544444444446,160.88107078809006L256.28266666666667,160.88023490172165L256.3052222222222,160.8652538703038L256.58233333333334,160.7414777645698L256.5855555555556,160.7411044560946L256.87555555555554,160.6981983276514L257.056,160.6782182088265L257.1591111111111,160.69349139470322L257.6166666666667,160.6961045540296L257.73266666666666,160.6999512544045L257.89377777777776,160.74697189147656L257.984,160.75853633880615L258.0323333333333,160.71479432399457L258.2031111111111,160.70765277055594L258.83144444444446,160.67516681781183L259.11822222222224,160.68652838010055L259.31155555555557,160.68594407118283L259.3502222222222,160.6814562540788L259.521,160.6176367356227L259.73044444444446,160.56445650870984L260.13,160.51965949168573L260.47155555555554,160.5217045728977L260.53922222222224,160.533252789424L260.739,160.50224383977744L260.7937777777778,160.48286426067352L260.8453333333333,160.4637606052252L260.87111111111113,160.45622139710648L260.9871111111111,160.42634860368875L261.1127777777778,160.4065145620933L261.22555555555556,160.40756144890418L261.4801111111111,160.41084818656628L261.6702222222222,160.3694190612206L261.82166666666666,160.3482703245603L261.8571111111111,160.3604596578158L261.93122222222223,160.36355162583865L262.03755555555557,160.35896642391498L262.0407777777778,160.35938030939835L262.0762222222222,160.3628861629046L262.2308888888889,160.34694751409384L262.23411111111113,160.34466708623447L262.42744444444446,160.3449105482835L262.5402222222222,160.3403172309582L262.86244444444446,160.3415020795969L263.0042222222222,160.33018920971796L263.11055555555555,160.32822528252234L263.16211111111113,160.3188682244374L263.18466666666666,160.31649852716006L263.90644444444445,160.3275111271785L264.0127777777778,160.30146068793076L264.074,160.30463380996997L264.132,160.28629300227533L264.2286666666667,160.28809462143823L264.3833333333333,160.29633175409757L264.5702222222222,160.2906915499614L264.89566666666667,160.30925147350018L264.9987777777778,160.30307565285608L265.18244444444446,160.31113424667944L265.3532222222222,160.27919202584488L265.6335555555556,160.2673110778515L265.8623333333333,160.18335724793948L265.8848888888889,160.18805606548602L266.829,160.26429214844336L266.8998888888889,160.28600084781647L267.04166666666663,160.27736606047705L267.438,160.25073942771326L267.61522222222226,160.27377093755283L267.6313333333333,160.27329212885635L267.8665555555556,160.27256174270923L267.91166666666663,160.26579349774582L267.98577777777774,160.2897907403799L268.2564444444444,160.33964365262253L268.6044444444444,160.33911615151627L269.0523333333333,160.36086542789752L269.6258888888889,160.294100018648L269.87399999999997,160.2615247964859L269.9577777777778,160.25099100516394L270.1672222222222,160.27101981639862L270.61188888888887,160.33470948842856L270.6376666666667,160.3378663796645L270.657,160.34629016656143L271.23055555555555,160.4204649375035L271.3755555555556,160.45871282540836L271.72355555555555,160.4962222117644L271.962,160.52244307444647L271.9781111111111,160.5235061920606L271.9942222222222,160.52941420445075L272.5097777777778,160.57938884771787L272.6934444444444,160.5592951132701L273.08011111111114,160.59436176373407L273.4281111111111,160.61019491232358L273.70844444444447,160.66093240334436L273.72777777777776,160.67157981028924L273.76,160.67123084801895L273.88888888888886,160.72127041449914" style="fill: none;" fill="none"></path></g></g></g></g></g></g><g transform="translate(40, 177)" clip-path="url(#clip_1)"><clipPath id="clip_1"><rect width="290" height="23"></rect></clipPath><g><g><line x1="0" y1="0" x2="0" y2="5" style="visibility: inherit;" fill="rgb(0, 0, 0)" stroke="rgb(204, 204, 204)" stroke-width="1px"></line><line x1="32.22222222222222" y1="0" x2="32.22222222222222" y2="5" style="visibility: inherit;" fill="rgb(0, 0, 0)" stroke="rgb(204, 204, 204)" stroke-width="1px"></line><line x1="64.44444444444444" y1="0" x2="64.44444444444444" y2="5" style="visibility: inherit;" fill="rgb(0, 0, 0)" stroke="rgb(204, 204, 204)" stroke-width="1px"></line><line x1="96.66666666666666" y1="0" x2="96.66666666666666" y2="5" style="visibility: inherit;" fill="rgb(0, 0, 0)" stroke="rgb(204, 204, 204)" stroke-width="1px"></line><line x1="128.88888888888889" y1="0" x2="128.88888888888889" y2="5" style="visibility: inherit;" fill="rgb(0, 0, 0)" stroke="rgb(204, 204, 204)" stroke-width="1px"></line><line x1="161.11111111111111" y1="0" x2="161.11111111111111" y2="5" style="visibility: inherit;" fill="rgb(0, 0, 0)" stroke="rgb(204, 204, 204)" stroke-width="1px"></line><line x1="193.33333333333331" y1="0" x2="193.33333333333331" y2="5" style="visibility: inherit;" fill="rgb(0, 0, 0)" stroke="rgb(204, 204, 204)" stroke-width="1px"></line><line x1="225.55555555555557" y1="0" x2="225.55555555555557" y2="5" style="visibility: inherit;" fill="rgb(0, 0, 0)" stroke="rgb(204, 204, 204)" stroke-width="1px"></line><line x1="257.77777777777777" y1="0" x2="257.77777777777777" y2="5" style="visibility: inherit;" fill="rgb(0, 0, 0)" stroke="rgb(204, 204, 204)" stroke-width="1px"></line><line x1="290" y1="0" x2="290" y2="5" style="visibility: inherit;" fill="rgb(0, 0, 0)" stroke="rgb(204, 204, 204)" stroke-width="1px"></line></g><g transform="translate(0, 8)"><text x="0" y="0" dx="0em" dy="0.95em" style="text-anchor: middle; visibility: hidden; font-family: &quot;Helvetica Neue&quot;, sans-serif; font-size: 12px; font-weight: 200;" fill="rgb(33, 33, 33)" stroke="none" stroke-width="1px">-10k</text><text x="32.22222222222222" y="0" dx="0em" dy="0.95em" style="text-anchor: middle; visibility: inherit; font-family: &quot;Helvetica Neue&quot;, sans-serif; font-size: 12px; font-weight: 200;" fill="rgb(33, 33, 33)" stroke="none" stroke-width="1px">0</text><text x="64.44444444444444" y="0" dx="0em" dy="0.95em" style="text-anchor: middle; visibility: inherit; font-family: &quot;Helvetica Neue&quot;, sans-serif; font-size: 12px; font-weight: 200;" fill="rgb(33, 33, 33)" stroke="none" stroke-width="1px">10k</text><text x="96.66666666666666" y="0" dx="0em" dy="0.95em" style="text-anchor: middle; visibility: inherit; font-family: &quot;Helvetica Neue&quot;, sans-serif; font-size: 12px; font-weight: 200;" fill="rgb(33, 33, 33)" stroke="none" stroke-width="1px">20k</text><text x="128.88888888888889" y="0" dx="0em" dy="0.95em" style="text-anchor: middle; visibility: inherit; font-family: &quot;Helvetica Neue&quot;, sans-serif; font-size: 12px; font-weight: 200;" fill="rgb(33, 33, 33)" stroke="none" stroke-width="1px">30k</text><text x="161.11111111111111" y="0" dx="0em" dy="0.95em" style="text-anchor: middle; visibility: inherit; font-family: &quot;Helvetica Neue&quot;, sans-serif; font-size: 12px; font-weight: 200;" fill="rgb(33, 33, 33)" stroke="none" stroke-width="1px">40k</text><text x="193.33333333333331" y="0" dx="0em" dy="0.95em" style="text-anchor: middle; visibility: inherit; font-family: &quot;Helvetica Neue&quot;, sans-serif; font-size: 12px; font-weight: 200;" fill="rgb(33, 33, 33)" stroke="none" stroke-width="1px">50k</text><text x="225.55555555555557" y="0" dx="0em" dy="0.95em" style="text-anchor: middle; visibility: inherit; font-family: &quot;Helvetica Neue&quot;, sans-serif; font-size: 12px; font-weight: 200;" fill="rgb(33, 33, 33)" stroke="none" stroke-width="1px">60k</text><text x="257.77777777777777" y="0" dx="0em" dy="0.95em" style="text-anchor: middle; visibility: inherit; font-family: &quot;Helvetica Neue&quot;, sans-serif; font-size: 12px; font-weight: 200;" fill="rgb(33, 33, 33)" stroke="none" stroke-width="1px">70k</text><text x="290" y="0" dx="0em" dy="0.95em" style="text-anchor: middle; visibility: hidden; font-family: &quot;Helvetica Neue&quot;, sans-serif; font-size: 12px; font-weight: 200;" fill="rgb(33, 33, 33)" stroke="none" stroke-width="1px">80k</text></g><line x1="0" y1="0" x2="290" y2="0" fill="rgb(0, 0, 0)" stroke="rgb(204, 204, 204)" stroke-width="1px"></line></g></g></g></g></svg>