<svg viewBox="0 0 330 200" xmlns="http://www.w3.org/2000/svg"><g><g><g><g><g><line x1="40" y1="177" x2="35" y2="177" style="visibility: inherit;" fill="rgb(0, 0, 0)" stroke="rgb(204, 204, 204)" stroke-width="1px"></line><line x1="40" y1="154.875" x2="35" y2="154.875" style="visibility: inherit;" fill="rgb(0, 0, 0)" stroke="rgb(204, 204, 204)" stroke-width="1px"></line><line x1="40" y1="132.75" x2="35" y2="132.75" style="visibility: inherit;" fill="rgb(0, 0, 0)" stroke="rgb(204, 204, 204)" stroke-width="1px"></line><line x1="40" y1="110.62500000000001" x2="35" y2="110.62500000000001" style="visibility: inherit;" fill="rgb(0, 0, 0)" stroke="rgb(204, 204, 204)" stroke-width="1px"></line><line x1="40" y1="88.50000000000001" x2="35" y2="88.50000000000001" style="visibility: inherit;" fill="rgb(0, 0, 0)" stroke="rgb(204, 204, 204)" stroke-width="1px"></line><line x1="40" y1="66.37500000000001" x2="35" y2="66.37500000000001" style="visibility: inherit;" fill="rgb(0, 0, 0)" stroke="rgb(204, 204, 204)" stroke-width="1px"></line><line x1="40" y1="44.24999999999997" x2="35" y2="44.24999999999997" style="visibility: inherit;" fill="rgb(0, 0, 0)" stroke="rgb(204, 204, 204)" stroke-width="1px"></line><line x1="40" y1="22.12500000000003" x2="35" y2="22.12500000000003" style="visibility: inherit;" fill="rgb(0, 0, 0)" stroke="rgb(204, 204, 204)" stroke-width="1px"></line><line x1="40" y1="0" x2="35" y2="0" style="visibility: inherit;" fill="rgb(0, 0, 0)" stroke="rgb(204, 204, 204)" stroke-width="1px"></line></g><g transform="translate(30, 0)"><text x="0" y="177" dx="0em" dy="0.3em" style="text-anchor: end; visibility: hidden; font-family: &quot;Helvetica Neue&quot;, sans-serif; font-size: 12px; font-weight: 200;" fill="rgb(33, 33, 33)" stroke="none" stroke-width="1px">0.4</text><text x="0" y="154.875" dx="0em" dy="0.3em" style="text-anchor: end; visibility: inherit; font-family: &quot;Helvetica Neue&quot;, sans-serif; font-size: 12px; font-weight: 200;" fill="rgb(33, 33, 33)" stroke="none" stroke-width="1px">0.6</text><text x="0" y="132.75" dx="0em" dy="0.3em" style="text-anchor: end; visibility: hidden; font-family: &quot;Helvetica Neue&quot;, sans-serif; font-size: 12px; font-weight: 200;" fill="rgb(33, 33, 33)" stroke="none" stroke-width="1px">0.8</text><text x="0" y="110.62500000000001" dx="0em" dy="0.3em" style="text-anchor: end; visibility: inherit; font-family: &quot;Helvetica Neue&quot;, sans-serif; font-size: 12px; font-weight: 200;" fill="rgb(33, 33, 33)" stroke="none" stroke-width="1px">1</text><text x="0" y="88.50000000000001" dx="0em" dy="0.3em" style="text-anchor: end; visibility: hidden; font-family: &quot;Helvetica Neue&quot;, sans-serif; font-size: 12px; font-weight: 200;" fill="rgb(33, 33, 33)" stroke="none" stroke-width="1px">1.2</text><text x="0" y="66.37500000000001" dx="0em" dy="0.3em" style="text-anchor: end; visibility: inherit; font-family: &quot;Helvetica Neue&quot;, sans-serif; font-size: 12px; font-weight: 200;" fill="rgb(33, 33, 33)" stroke="none" stroke-width="1px">1.4</text><text x="0" y="44.24999999999997" dx="0em" dy="0.3em" style="text-anchor: end; visibility: hidden; font-family: &quot;Helvetica Neue&quot;, sans-serif; font-size: 12px; font-weight: 200;" fill="rgb(33, 33, 33)" stroke="none" stroke-width="1px">1.6</text><text x="0" y="22.12500000000003" dx="0em" dy="0.3em" style="text-anchor: end; visibility: inherit; font-family: &quot;Helvetica Neue&quot;, sans-serif; font-size: 12px; font-weight: 200;" fill="rgb(33, 33, 33)" stroke="none" stroke-width="1px">1.8</text><text x="0" y="0" dx="0em" dy="0.3em" style="text-anchor: end; visibility: hidden; font-family: &quot;Helvetica Neue&quot;, sans-serif; font-size: 12px; font-weight: 200;" fill="rgb(33, 33, 33)" stroke="none" stroke-width="1px">2</text></g><line x1="40" y1="0" x2="40" y2="177" fill="rgb(0, 0, 0)" stroke="rgb(204, 204, 204)" stroke-width="1px"></line></g></g><g transform="translate(40, 0)" clip-path="url(#clip_0)"><clipPath id="clip_0"><rect width="290" height="177"></rect></clipPath><g><g><g><line x1="0" y1="0" x2="0" y2="177" fill="rgb(0, 0, 0)" stroke="rgb(66, 66, 66)" stroke-width="1px" opacity="0.25"></line><line x1="32.22222222222222" y1="0" x2="32.22222222222222" y2="177" fill="rgb(0, 0, 0)" stroke="rgb(66, 66, 66)" stroke-width="1px" opacity="0.25"></line><line x1="64.44444444444444" y1="0" x2="64.44444444444444" y2="177" fill="rgb(0, 0, 0)" stroke="rgb(66, 66, 66)" stroke-width="1px" opacity="0.25"></line><line x1="96.66666666666666" y1="0" x2="96.66666666666666" y2="177" fill="rgb(0, 0, 0)" stroke="rgb(66, 66, 66)" stroke-width="1px" opacity="0.25"></line><line x1="128.88888888888889" y1="0" x2="128.88888888888889" y2="177" fill="rgb(0, 0, 0)" stroke="rgb(66, 66, 66)" stroke-width="1px" opacity="0.25"></line><line x1="161.11111111111111" y1="0" x2="161.11111111111111" y2="177" fill="rgb(0, 0, 0)" stroke="rgb(66, 66, 66)" stroke-width="1px" opacity="0.25"></line><line x1="193.33333333333331" y1="0" x2="193.33333333333331" y2="177" fill="rgb(0, 0, 0)" stroke="rgb(66, 66, 66)" stroke-width="1px" opacity="0.25"></line><line x1="225.55555555555557" y1="0" x2="225.55555555555557" y2="177" fill="rgb(0, 0, 0)" stroke="rgb(66, 66, 66)" stroke-width="1px" opacity="0.25"></line><line x1="257.77777777777777" y1="0" x2="257.77777777777777" y2="177" fill="rgb(0, 0, 0)" stroke="rgb(66, 66, 66)" stroke-width="1px" opacity="0.25"></line><line x1="290" y1="0" x2="290" y2="177" fill="rgb(0, 0, 0)" stroke="rgb(66, 66, 66)" stroke-width="1px" opacity="0.25"></line></g><g><line x1="0" y1="177" x2="290" y2="177" fill="rgb(0, 0, 0)" stroke="rgb(66, 66, 66)" stroke-width="1px" opacity="0.25"></line><line x1="0" y1="154.875" x2="290" y2="154.875" fill="rgb(0, 0, 0)" stroke="rgb(66, 66, 66)" stroke-width="1px" opacity="0.25"></line><line x1="0" y1="132.75" x2="290" y2="132.75" fill="rgb(0, 0, 0)" stroke="rgb(66, 66, 66)" stroke-width="1px" opacity="0.25"></line><line x1="0" y1="110.62500000000001" x2="290" y2="110.62500000000001" fill="rgb(0, 0, 0)" stroke="rgb(66, 66, 66)" stroke-width="1px" opacity="0.25"></line><line x1="0" y1="88.50000000000001" x2="290" y2="88.50000000000001" fill="rgb(0, 0, 0)" stroke="rgb(66, 66, 66)" stroke-width="1px" opacity="0.25"></line><line x1="0" y1="66.37500000000001" x2="290" y2="66.37500000000001" fill="rgb(0, 0, 0)" stroke="rgb(66, 66, 66)" stroke-width="1px" opacity="0.25"></line><line x1="0" y1="44.24999999999997" x2="290" y2="44.24999999999997" fill="rgb(0, 0, 0)" stroke="rgb(66, 66, 66)" stroke-width="1px" opacity="0.25"></line><line x1="0" y1="22.12500000000003" x2="290" y2="22.12500000000003" fill="rgb(0, 0, 0)" stroke="rgb(66, 66, 66)" stroke-width="1px" opacity="0.25"></line><line x1="0" y1="0" x2="290" y2="0" fill="rgb(0, 0, 0)" stroke="rgb(66, 66, 66)" stroke-width="1px" opacity="0.25"></line></g></g></g><g><g><line x1="0" y1="221.25" x2="290" y2="221.25" fill="rgb(0, 0, 0)" stroke="rgb(153, 153, 153)" stroke-width="1.5px"></line></g></g><g><g><line x1="32.22222222222222" y1="0" x2="32.22222222222222" y2="177" fill="rgb(0, 0, 0)" stroke="rgb(153, 153, 153)" stroke-width="1.5px"></line></g></g><g><g><g><g><g><path stroke="rgb(255, 112, 67)" stroke-width="2px" d="M32.22544444444444,10.699621438980103L90.31888888888889,97.06637763387556L90.44777777777777,123.13803618367187L90.57988888888889,128.34098049747374L90.82477777777778,129.27315022689876L90.85377777777778,128.58674700619156L91.75922222222222,126.58825330317674L91.83977777777778,125.49664432440329L91.96866666666666,124.94449229589429L92.31988888888888,124.32766934466426L92.56477777777778,123.27455993061534L92.86444444444444,122.65602326753184L92.94822222222223,122.15698847083647L93.09322222222222,122.29016368538278L93.44444444444446,122.23433518481812L93.5411111111111,122.09410376248856L93.65066666666667,122.0033099052732L93.76344444444445,121.94949035925393L93.79244444444444,121.86445722109465L93.86333333333333,121.87715375922258L93.87622222222222,121.92418596300058L93.96000000000001,122.00220297013752L94.01155555555556,122.0909767412176L94.20166666666665,121.74807383446873L94.31444444444445,121.18667075972442L94.34022222222222,121.04753703633489L94.685,120.88501787703194L94.7301111111111,120.82916944007225L94.81711111111112,120.89740346283719L94.87188888888889,121.07538706467815L95.06522222222222,121.46684808688403L95.22955555555555,121.55195439460198L95.48733333333332,121.57909912745006L95.55177777777777,121.630852233009L95.84822222222222,121.32452215621353L95.85788888888888,121.21631253260979L95.91266666666667,121.2494444163714L96.13177777777777,121.22861067114097L96.35411111111112,121.38780546784506L96.36699999999999,121.33587196958848L96.73433333333334,121.4928766000258L96.76655555555556,121.59251007780833L97.2241111111111,121.62363831012024L97.58822222222221,121.66102675574649L98.00388888888888,121.68589899272308L98.252,121.67716150388782L99.17033333333333,121.96294507523942L99.209,122.07503559916029L99.32177777777778,122.14451262748257L99.5408888888889,122.25201728118753L99.62788888888889,122.23205592079216L99.72133333333333,122.21986700037161L99.95977777777777,122.24843285506218L100.59777777777778,122.19200073680994L100.66866666666667,122.12749352484323L100.68477777777778,122.10657785361482L101.10044444444445,122.04648839610863L101.21644444444445,121.98887378897507L101.75455555555556,121.62925527822802L101.80933333333334,121.50703015419214L102.36999999999999,121.53562837886031L102.48922222222222,121.58887921518073L102.67611111111111,121.35806476186747L102.89844444444444,121.18313457341769L103.16266666666667,121.05222123445768L103.56866666666667,120.87963476353457L103.62344444444444,120.86581329977119L103.7491111111111,120.83737965988462L104.19055555555555,120.6770509166974L104.36133333333333,120.64421422898394L104.52566666666667,120.72470799113228L104.65133333333334,120.77691595656518L105.14433333333332,120.95303192254937L105.26355555555556,121.0853201543164L105.28933333333333,121.09278171860956L105.57933333333332,121.1223189939348L105.62122222222222,121.16847221361004L105.70822222222222,121.16395167351354L105.73722222222221,121.14490452504967L105.75655555555555,121.12623279081373L105.78555555555555,121.13234718743317L105.95311111111111,121.10606519958847L105.99177777777777,121.12305579118171L105.99822222222222,121.10812955311704L106.00466666666667,121.10642050297108L106.05622222222222,121.10160547259682L106.29466666666666,121.20086032725703L106.32688888888889,121.23361310598231L106.40422222222223,121.26202712457872L106.54922222222223,121.24912667287437L106.58466666666666,121.25743970249856L106.63300000000001,121.28812098363578L106.74577777777779,121.3690924863267L106.7941111111111,121.4076282856753L106.88111111111112,121.43989910249215L106.95522222222222,121.46724117842535L107.20655555555555,121.47297537754957L107.39988888888888,121.49778723943791L107.51588888888888,121.52459243171836L107.80911111111111,121.50631897165329L108.10877777777777,121.48604127862893L108.53733333333334,121.43804238053488L108.80799999999999,121.4674092569972L109.33322222222223,121.57842452380748L109.40411111111112,121.59191775279342L109.42344444444444,121.60751135937215L109.56200000000001,121.59880798214695L109.83588888888889,121.7180435518048L110.48677777777777,121.81071619765332L110.74455555555555,121.8368961782915L110.97977777777778,121.91324353379825L111.05066666666667,121.96123741998701L111.20855555555555,121.98066029166L111.34388888888888,121.97605523701418L111.54688888888889,121.9898538790629L111.60811111111111,121.99019671153599L111.66933333333333,122.01138265674436L111.67577777777777,122.01994037363153L111.73377777777779,122.03277787316716L111.85622222222223,122.05600796079477L112.13977777777778,122.04069199428292L112.22355555555555,122.0544709136893L112.23322222222221,122.05054414064642L112.2751111111111,122.04518761197676L112.59411111111112,122.13300680431605L112.91633333333334,122.06250345100166L112.96144444444444,123.21421981526721L113.10000000000001,124.5316403055763L113.11933333333333,124.38027667506488L113.39322222222222,125.43472016933255L113.66711111111111,125.40548541159862L113.79922222222221,125.26429212614073L114.00544444444444,125.5809523161508L114.173,124.98043220309009L114.45011111111111,125.40685462531616L114.71433333333334,125.6733297590481L114.89155555555556,125.75305785921063L114.92699999999999,125.88827495831448L115.24277777777777,125.67166422968103L115.50377777777778,126.0806050163778L115.92588888888889,127.52680405311082L115.95166666666667,128.14779903292694L116.12244444444445,128.66320885517462L116.30933333333334,128.73828335945922L116.40599999999999,128.9448071260474L116.45755555555554,128.91932250650635L116.48977777777777,128.96500064302035L116.51877777777777,128.91579846204093L116.6798888888889,128.91824729909433L116.98277777777778,128.8986623118274L117.10522222222222,128.77492984885302L117.18900000000001,128.61515984014005L117.20511111111111,128.57743146279202L117.29211111111111,128.39202546011103L117.41133333333333,128.213512945433L117.53699999999999,128.1066027143868L117.99455555555555,127.67994850102906L118.00744444444445,127.53773129133336L118.05900000000001,127.52852144403013L118.12666666666667,127.56477762253738L118.23622222222222,127.36403663395052L118.25555555555556,127.27815899558311L118.33611111111111,127.10587789013704L118.48755555555555,126.79099828238608L119.28666666666666,126.51113971873764L119.32211111111111,126.34645371310359L119.88277777777778,126.07356632075401L119.96333333333334,126.12763097872255L120.02455555555557,126.09411380376736L120.11800000000001,126.10774756821996L120.48855555555555,126.08401754579293L120.57555555555557,126.15936485878817L120.67222222222222,126.07974539587946L120.81722222222221,126.02531082933018L120.86555555555556,126.10081042332476L121.00411111111111,126.01094642450467L121.22966666666666,125.88857271755307L121.29733333333334,125.83259293235213L121.41977777777778,125.8004784690674L121.50033333333333,125.7705556269539L121.57444444444444,125.81845751497737L122.44444444444444,125.6517035686638L122.87944444444445,125.68334265366329L122.88266666666667,125.69625170769814L123.47877777777778,125.85615615116826L123.69788888888888,126.04357003382896L123.86866666666666,126.2149186672012L123.975,126.3605108573961L123.98788888888889,126.44521391457056L124.13611111111112,126.52828430106486L124.15544444444446,126.52593770581375L124.23922222222222,126.57308979954203L124.51311111111112,126.64150362629141L125.21555555555555,126.94253878341598L125.25744444444445,127.06805939732212L125.29611111111112,127.16409796656916L125.37988888888889,127.26104905712197L125.53133333333334,127.17649006940692L125.7568888888889,127.07431656012372L125.76011111111112,127.04215235327328L125.80844444444445,127.06922627885982L125.92122222222223,127.17382329423918L125.976,127.24569431598175L126.02433333333333,127.28919877904548L126.20155555555556,127.36249897504828L126.208,127.3462400843513L126.22411111111111,127.32868236612094L126.40777777777778,127.37634104688661L126.49799999999999,127.37257935208967L126.63333333333333,127.35034650005454L126.90722222222223,127.37728540820089L126.962,127.35871741714433L127.76433333333333,127.17011788706442L127.919,127.06329423142441L127.93511111111111,127.01262175542942L128.238,126.87411736032401L128.24444444444444,126.83755215685395L128.26055555555556,126.84248228732251L128.31533333333334,126.85645351031353L128.3958888888889,126.83951661502232L128.75677777777778,126.8239179952114L129.02744444444446,127.63288850372354L129.30133333333333,121.56972374832026L129.45600000000002,124.85686069918293L129.59777777777776,121.7396389975305L129.6428888888889,121.04036596590944L129.72344444444445,120.57242967579518L129.833,121.08157892165056L129.89100000000002,120.68866478810884L129.89744444444443,120.75566245204176L130.0778888888889,120.36634911647815L130.34855555555555,120.41046835437419L130.38722222222222,120.61460765695648L131.07033333333334,123.35055187951593L131.37644444444445,125.29213061908176L131.46988888888887,126.18587821543159L131.52144444444446,126.71708519393482L131.61811111111112,127.4003192965464L131.6277777777778,127.57262889814982L131.65355555555556,127.7722161986257L131.90166666666667,127.85166852542821L132.59766666666667,127.88732183132029L132.69755555555557,127.9424904070026L132.97144444444444,127.84059146838437L133.20988888888888,127.78326288027986L133.748,127.15046066365787L134.20555555555555,127.27528576826143L134.212,127.3478993970817L134.66633333333334,128.11933641166866L134.80488888888888,128.62993363760614L134.98855555555556,129.01046304538883L135.78444444444443,129.6906400662714L135.82955555555554,130.0412861817305L135.981,130.3054136204796L136.17111111111112,130.29652863996458L136.23555555555555,130.3620661286651L136.242,130.38271723377662L136.40633333333332,130.30044287847832L136.60611111111112,130.28246722704355L136.78333333333333,130.13902340157784L137.19577777777778,129.76259369392687L137.36977777777778,129.6184096587441L137.47933333333333,129.43216985147453L137.50511111111112,129.29264418177218L137.50833333333333,129.2380787745439L137.6758888888889,129.0564002963496L137.78544444444444,128.88866916817886L137.8047777777778,128.86835050045897L138.098,128.75266989266078L138.2462222222222,128.8039598228658L138.6522222222222,128.97428917987153L138.70055555555555,129.07436466857888L138.7231111111111,129.12074014010986L138.7811111111111,129.1770169894296L138.79722222222222,129.18040792346451L138.9261111111111,129.26019029832796L138.92933333333332,129.29299127334033L138.96800000000002,129.27395022371053L139.07755555555556,129.21858549671774L139.29666666666668,129.05287773028962L139.57055555555556,128.8316999861953L139.66722222222222,128.7010103479515L140.35355555555554,128.6940234072535L140.37933333333334,128.72185852340343L140.42444444444445,128.72589688827287L140.56300000000002,128.77008288680602L140.59844444444445,128.79936226900784L140.6081111111111,128.83575348226157L140.679,128.94358382603818L140.79177777777778,128.99930904099764L141.085,129.15195502239604L141.93244444444443,130.12163046468368L142.02266666666668,130.56915071989062L142.41899999999998,131.1037939489063L142.63166666666666,131.0111802143295L142.825,130.85713278559996L143.08922222222222,130.73333920913416L143.144,130.74590220983106L143.2052222222222,130.7705143175535L143.32122222222222,130.84899422730604L143.4597777777778,130.96294196091634L143.6112222222222,131.1939127042843L143.70144444444443,131.34466953794487L143.75944444444445,131.39403490410913L144.08488888888888,131.75181481311108L144.2008888888889,131.98261709599768L144.2911111111111,132.13261739293748L144.44255555555557,132.2164464943355L144.51666666666668,132.24433928848578L144.60366666666667,132.3525806358756L144.64877777777778,132.43297936061524L145.04188888888888,132.4842398626672L145.0998888888889,132.47420172906362L145.2577777777778,132.47435220376653L145.29,132.4732221947043L145.32544444444446,132.50465218083204L145.35766666666666,132.47988948134076L145.40599999999998,132.4464867100863L146.0536666666667,132.59408470727985L146.0891111111111,132.6633286002091L146.25022222222225,132.67934926265985L146.36944444444444,132.70251440202242L146.6981111111111,132.93718288964226L146.9301111111111,133.06772195675532L147.04611111111112,133.03764469215696L147.12666666666667,133.04346489518275L147.17822222222222,133.03621029961784L147.21366666666668,133.01820012236306L147.291,132.968202615504L147.349,132.92966312951043L147.378,132.92015171667646L147.65833333333333,132.93959153404145L147.94511111111112,132.89350747194652L148.01277777777779,132.85242289230246L148.29955555555557,132.8639812286087L148.44777777777776,132.89106125992953L148.80866666666665,132.8648322510946L149.0567777777778,132.8805400105768L149.07611111111112,132.8850046696584L149.69155555555554,132.91411381394633L149.79144444444444,132.95260759005748L149.83977777777778,132.97264528558233L149.89133333333334,132.98287741135047L149.96866666666668,132.96425334349055L150.09755555555557,132.89369531313025L150.15233333333333,132.85453891690966L150.29088888888887,132.8546586240757L150.48422222222223,132.83957454155947L150.48744444444444,132.83213862598677L150.57122222222222,132.83168133137943L151.56688888888888,133.0073701001479L151.70222222222222,133.08612183157652L152.00833333333333,133.07204535515137L152.62055555555554,133.1900566626467L152.82033333333334,133.30405506096685L152.82355555555554,133.3446637737863L152.87511111111112,133.3972237457644L152.9878888888889,133.4529944913269L153.06522222222222,133.50431397448614L153.1038888888889,133.50973498558088L153.11355555555556,133.50189923279788L153.37777777777777,133.4822156561877L153.3971111111111,133.48671717945138L153.46155555555555,133.54369615649176L153.79666666666665,133.7052743300723L153.83855555555556,133.74742683658485L153.8868888888889,133.78092982367588L154.2671111111111,134.01000103012728L154.32833333333335,134.1074794970646L154.44755555555557,134.20343206770303L154.76977777777776,134.40000332150046L155.0468888888889,134.55306414653774L155.18544444444447,134.602399565228L155.37555555555556,134.66421180585382L155.53344444444446,134.6850105298292L155.56566666666666,134.68442477489978L155.8298888888889,134.66219551786776L156.12633333333332,134.8051921137683L156.27777777777777,134.87170554817789L156.339,134.87361159685196L156.4131111111111,134.8805166849839L156.46144444444445,134.88607683321453L156.47755555555557,134.88365546376582L156.81266666666664,134.95210485978964L157.35722222222225,134.79370072302248L158.02422222222222,134.6783490960371L158.10155555555556,134.68975193674302L159.05533333333332,134.7892821843858L159.20033333333333,134.90671787721504L159.20677777777777,134.93712964804564L159.38077777777778,135.0340852002336L159.40655555555557,135.09761925987027L159.57411111111114,135.1763377165282L160.08644444444442,135.19567423537887L160.94033333333334,135.35707054734044L160.99833333333333,135.42253291885487L161.26577777777777,135.3832819337508L161.4591111111111,135.3544681656807L161.61055555555555,135.31544577180435L161.75877777777777,135.304924876627L162.284,135.25807128764927L162.50311111111114,135.20888025287513L162.9187777777778,135.29901396358173L162.94133333333332,135.3507502610889L163.00900000000001,135.39416169018034L163.19266666666667,135.4172001965719L163.50522222222224,135.38001238546775L163.66955555555555,135.3593250534021L163.75333333333333,135.3525236573637L163.79522222222224,135.35154010814074L163.85322222222223,135.34264373805127L164.52988888888888,135.5903803035442L164.62011111111113,135.68445524885612L164.71355555555556,135.74594555849572L164.72966666666665,135.76231831346928L164.96166666666664,135.86478889358807L165.2097777777778,136.05043699466745L165.6641111111111,136.2820834854131L165.66733333333335,136.37049909248384L165.84455555555556,136.4388923834117L165.87355555555555,136.46168704786433L166.112,136.5506118080255L166.23766666666668,136.61404925467335L166.721,136.80088787863L166.81444444444443,136.90031929500512L166.96911111111112,136.9733572252937L167.13344444444442,137.06545531849287L167.185,137.08110034669767L167.23655555555555,137.08253581412083L167.301,137.06785243033787L167.62966666666665,137.16586682658135L167.66188888888888,137.2079017060565L168.02277777777778,137.30238786773006L168.15166666666667,137.3872663435135L168.2741111111111,137.44447460592832L168.5351111111111,137.4761581849896L168.68011111111113,137.5267291562754L168.70266666666666,137.5469503046477L168.8831111111111,137.62869285475338L168.94433333333333,137.68725616719436L169.273,137.8116832054772L169.29555555555555,137.85724562085153L169.38255555555557,137.85201536646153L169.81755555555554,137.8564496892561L170.07855555555554,137.8065759987754L170.1752222222222,137.76955973089085L170.2783333333333,137.7570871790407L170.3008888888889,137.74083610776887L170.3782222222222,137.76066732406514L170.44266666666667,137.74177021414005L170.752,137.7169522376849L170.80033333333333,137.7195880790852L170.80677777777777,137.71252779249704L170.85833333333332,137.7120861783081L171.15155555555557,137.74326498376087L171.45444444444445,137.77229362148162L171.48666666666668,137.7934529762478L171.64455555555554,137.78975389553298L172.54033333333334,137.84281431627437L172.93344444444443,137.7980024202505L173.159,137.79888830904923L173.217,137.79730236820666L173.26533333333333,137.81829931707864L173.41677777777778,137.85333807113932L173.80666666666667,137.8817825590472L173.8098888888889,137.89108035376557L173.9548888888889,137.8865396079791L174.1256666666667,137.92487265510272L174.145,137.94617060215683L174.18366666666668,137.96540009435628L174.26744444444446,137.97246910348946L174.27388888888888,137.9761756055914L174.38344444444445,138.01136394934878L174.522,138.02540518826908L174.6218888888889,138.04429722809675L174.77011111111113,138.1068427716853L175.00533333333334,138.15591626200916L175.0568888888889,138.17845476521157L175.5241111111111,138.289954661244L175.63688888888888,138.35589578764245L175.85600000000002,138.3977089744291L176.08155555555555,138.470157380349L176.29744444444447,138.55596908910871L176.34255555555558,138.59168675483852L176.51333333333335,138.6755474849535L176.9547777777778,138.72812186344788L176.96766666666664,138.7520428668333L176.9741111111111,138.76504900094056L177.20288888888888,138.77912077803867L177.5218888888889,138.8245111795371L177.57022222222224,138.85107732767796L177.72811111111113,138.86874609596828L177.77,138.86858804722544L177.77322222222222,138.87051501640894L177.8698888888889,138.90200147846855L178.1663333333333,138.9471913352894L178.44666666666666,139.0138212503597L178.71411111111112,139.10870116796204L178.96866666666665,139.13417109429915L179.00411111111111,139.1343524312648L179.39077777777777,139.20022214038377L179.5261111111111,139.23520950685312L179.67433333333335,139.25597714207356L180.27366666666668,139.32284581576738L180.79244444444444,139.39978348589398L180.8311111111111,139.4307087356712L181.018,139.44383874945353L181.06633333333332,139.4568294288647L181.13722222222222,139.49010989170074L181.34666666666666,139.50323702800316L181.36599999999999,139.5092133650823L181.5432222222222,139.52323986436375L181.58833333333334,139.54240286886534L181.6141111111111,139.55712664140555L181.85255555555554,139.58533693471156L182.17155555555553,139.60147879965146L182.47766666666666,139.60513051393798L182.50344444444445,139.61925479694713L182.61944444444444,139.62967745660438L182.71288888888887,139.64881048093264L183.0608888888889,139.71061494993776L183.19622222222222,139.73042269582427L183.44755555555557,139.75795129314292L183.91155555555554,139.82852289481173L184.00177777777776,139.87136465274713L184.13711111111112,139.91639072837086L184.2047777777778,139.96550090637507L184.40455555555556,140.04124077009405L184.4367777777778,140.05977900828418L184.47866666666667,140.08305915110566L184.50444444444446,140.10687678270875L184.86211111111112,140.157109842391L185.0328888888889,140.17446095476777L185.12633333333332,140.20164557013942L185.38088888888888,140.21076404306416L185.91255555555554,140.21666312826068L185.92866666666666,140.22399984991574L186.30244444444443,140.2819257465283L186.37333333333333,140.30705894794136L186.80188888888887,140.3102492862529L186.98877777777776,140.2997361050903L187.04033333333334,140.2956768808443L187.33355555555556,140.31132863180116L187.41088888888888,140.320089686043L187.58488888888888,140.35445998387172L187.69444444444446,140.39024321475102L187.70088888888887,140.406695596447L188.0037777777778,140.43682225338438L188.21,140.47786049538865L188.29055555555553,140.47612897695666L188.30344444444444,140.47691219225945L188.59988888888887,140.52683961245197L188.66755555555557,140.55950422188903L188.76422222222223,140.57656430245152L188.92211111111112,140.57001657272238L189.2088888888889,140.56845987233743L189.2378888888889,140.56939901110803L189.77922222222224,140.6171181547096L189.79211111111113,140.63737026822514L189.81144444444445,140.6492675447316L190.00155555555554,140.67016560693887L190.17233333333334,140.71619693080845L190.18200000000002,140.733559427385L190.3012222222222,140.73739707573694L190.5461111111111,140.63819999360166L190.76844444444444,140.6177530772988L191.197,140.6272432779336L191.28077777777779,140.63176652229313L191.3516666666667,140.60876002774205L191.47733333333332,140.5770575924186L191.60299999999998,140.56775557922234L191.60622222222224,140.56502608377062L191.80599999999998,140.56826710244206L192.0347777777778,140.5986211821528L192.04444444444445,140.60639265962277L192.04766666666666,140.609455349061L192.19266666666664,140.6193450795708L192.26677777777778,140.61613833003648L192.3312222222222,140.6356811534896L192.83388888888888,140.63323014941912L193.00466666666665,140.650406797707L193.04977777777776,140.65979561915515L193.31722222222223,140.70180192582893L193.546,147.5282801739621L193.72322222222223,150.8241955707168L193.77477777777779,152.43768953404714L193.80055555555555,152.0138117175747L194.24844444444443,154.85037633123784L194.4933333333333,151.13587302442758L194.89288888888888,147.77437409253292L194.90577777777776,146.67222589755409L194.94766666666666,145.913838238794L195.05722222222224,145.4995871543304L195.402,144.4902181578365L195.4438888888889,144.19547781754093L195.66944444444445,144.07040832712374L195.73388888888888,144.092864356265L195.81444444444443,143.698321987444L195.82088888888887,143.61357320038243L196.06577777777775,143.21249718028838L196.1237777777778,143.15585782305763L196.13666666666666,143.04009259152537L196.2301111111111,142.96237405295386L196.2848888888889,143.08742412014956L196.30744444444443,143.3183857864461L196.36544444444442,143.46790831720654L196.43633333333332,143.46679640852238L196.4782222222222,143.42047966791324L196.58455555555557,143.63117736663366L196.6038888888889,143.88728733999153L196.73277777777778,143.97427338117913L196.81655555555557,143.8866549619701L197.0678888888889,144.7530371739207L197.14844444444444,144.53523484757437L197.287,144.2599426325304L197.38044444444444,144.00021109350195L198.03133333333332,144.95469806167435L198.06355555555555,145.42772979973878L198.07966666666667,145.14225721210522L198.0828888888889,145.0022521512742L198.15055555555554,144.82646025194902L198.16666666666666,144.70476627866998L198.83044444444445,144.48232341038693L198.84333333333333,144.448252711972L199.1558888888889,144.32438721070673L199.1881111111111,144.17851148632064L199.62311111111111,144.23916689688184L199.6682222222222,144.40824191754302L199.74233333333333,144.4021828701433L200.06777777777776,144.3818749308286L200.4608888888889,144.29855987129756L200.58977777777778,144.41240596475527L200.66066666666666,144.42658910818494L201.3051111111111,144.45581212643458L201.67566666666667,144.47375979070952L201.97533333333334,144.6729605870342L202.53277777777777,144.90140583164413L202.61655555555555,144.94911057782298L203.5928888888889,145.2785619684853L203.66055555555556,145.4276729930104L203.84744444444445,145.38849723707003L203.93444444444444,145.40964138001385L204.0021111111111,145.49570688524759L204.24055555555555,145.6470501822646L204.247,145.7204036208497L204.35333333333332,145.8290593807787L204.45322222222222,145.6762446899697L204.45966666666666,145.6339454096841L204.5402222222222,145.53200192534027L204.61433333333335,145.43770644977272L204.97522222222221,145.25011411573809L205.03,145.133023004976L205.25233333333333,145.1725307768759L205.35544444444443,145.19081575156792L205.63899999999998,145.36330911367648L205.79688888888887,145.4339105389026L205.93222222222224,145.51253725246096L205.94833333333332,145.55713838094732L206.24155555555555,145.749411646466L206.2898888888889,145.77088773874024L206.30922222222222,145.7796937186675L206.33177777777777,145.7526690982374L206.60888888888888,145.45533550437503L206.683,145.30223770148572L207.25011111111112,145.3229463396774L207.35322222222223,145.28389905003277L207.437,145.2582873497085L207.5562222222222,145.3391488565571L207.58844444444446,145.3091026621165L207.9138888888889,145.29993622835897L207.92033333333333,145.30174472631558L208.04922222222223,145.36814973063582L208.20711111111112,145.37538817468703L208.76133333333334,145.13624120609808L208.7871111111111,145.04151219242812L208.84833333333333,144.95286466747882L208.88055555555556,144.90615096060617L208.89022222222223,144.89213187458006L208.90633333333335,144.852316907444L209.18344444444443,144.6937460803344L209.35744444444444,144.6028947881956L209.67322222222225,144.64812801706455L209.786,144.64218723695575L210.00833333333333,144.69671137423515L210.2048888888889,144.6391859400897L210.20811111111112,144.62499728371694L210.49488888888888,144.6705276659558L210.86544444444445,144.68712113323278L210.91377777777777,144.74999169496897L211.50666666666666,144.95937578146103L211.6162222222222,145.06839707967166L211.87722222222223,145.18807439026912L211.99322222222222,145.35958275374227L212.49266666666668,145.43578281243052L212.50233333333333,145.4754242219392L212.541,145.51564781964024L212.65699999999998,145.53188701169267L212.88255555555557,145.52912620872758L212.89544444444445,145.54876062299792L213.07911111111113,145.5551316466007L213.72677777777778,145.68026714136371L213.95233333333334,145.7703451564805L214.36155555555555,145.87698671622346L214.69344444444445,145.89317107112154L215.09622222222222,145.74562334352478L215.47,145.63218684331144L216.28844444444445,145.45763883478924L216.4978888888889,145.38131744710537L216.84588888888888,145.41902081340547L216.86522222222223,145.44252159721702L217.34533333333331,145.58296602204317L218.06066666666666,145.68260111058234L218.718,145.8045803254121L218.74377777777778,145.86177272195863L218.93388888888887,145.85858921468025L218.99511111111113,145.86181525247608L219.18200000000002,145.86480574460495L219.443,145.90367693643134L219.7201111111111,145.9172243043232L219.97788888888888,145.93717963211472L219.98433333333332,145.9400878699263L220.4257777777778,145.93121771777408L220.69644444444447,145.95482322587696L221.16366666666667,145.9458369200444L221.18300000000002,145.92111089937694L221.20555555555555,145.9222562220685L221.23133333333334,145.91078725820307L221.44077777777778,145.90005674282378L221.5148888888889,145.90137390474905L221.78233333333336,145.9164046329593L221.792,145.92515673998025L221.821,145.93683001510556L222.05944444444444,145.99815174206816L222.34622222222222,146.02796616846447L222.50088888888888,146.01541775808587L222.5621111111111,146.0280714450651L222.62977777777778,146.04866359853062L222.69744444444444,146.0460554717507L222.80055555555555,146.05484674762806L222.83922222222225,146.07352667623766L223.25166666666667,146.06231964284692L223.32255555555554,146.04382147091277L223.36766666666665,146.0222475164472L223.37088888888889,146.01343093906033L223.43855555555558,145.98872499887526L223.4901111111111,145.98130259295948L223.96377777777778,145.88363553393816L224.0088888888889,145.8246819925831L224.2118888888889,145.86835197623046L224.31822222222223,145.8449124087706L224.4728888888889,145.84200109660947L224.518,145.8650055737686L224.6178888888889,145.86199252384733L224.6468888888889,145.8575263804412L224.77255555555556,145.89018390891144L224.9691111111111,145.91965179157282L225.156,145.91703416288533L225.40411111111112,145.94271249005132L225.417,145.95147795866242L225.504,145.92293121719075L225.90033333333335,145.89847669836985L226.46744444444442,145.94744081446822L226.519,145.98884806885812L226.68977777777778,146.0151955451135L226.9121111111111,146.02338878033618L227.01200000000003,146.04500745229018L227.03777777777776,146.06403579403573L227.2858888888889,146.0602874385338L227.3148888888889,146.04850193317858L227.45988888888888,146.04940890152244L227.679,146.0101724166754L228.7358888888889,146.06609707030557L229.187,146.17553860105883L229.25466666666665,146.24433346559704L229.35133333333334,146.25256981982875L229.39322222222222,146.26351052998197L229.4447777777778,146.2715904402581L229.46733333333333,146.28670714583888L229.74444444444447,146.36401991878665L229.88944444444445,146.40746315846513L229.95066666666668,146.4150547239267L230.06344444444446,146.37448978099974L230.463,146.18192279231718L230.90444444444447,146.11548373123648L230.97533333333334,146.07629830215163L231.00755555555557,146.0798826555479L231.12033333333335,146.0899544193223L231.26533333333333,146.10455460054075L231.3007777777778,146.11124445469554L231.83244444444446,146.19234398548357L231.83888888888887,146.2220918606223L232.02577777777776,146.2474076842748L232.08055555555555,146.25133460610868L232.15788888888886,146.2635244384176L232.19011111111112,146.2823059652363L232.30933333333334,146.27042003134656L232.38022222222222,146.25967549422944L232.551,146.25752066907478L232.78944444444446,146.24881646519478L232.81199999999998,146.24596183286096L232.93444444444444,146.2527789661972L233.58533333333332,146.19434997445458L233.8012222222222,146.17906529123317L234.00422222222224,146.1984871978822L234.05255555555556,146.20097044977504L234.37800000000001,146.25906761649875L234.38766666666666,146.2814328924415L234.60677777777778,146.2795305739262L234.99022222222223,146.32804650915193L235.13522222222224,146.33998927138668L235.86666666666667,146.2927389241808L236.09222222222223,146.26216519903213L236.37577777777776,146.25771342748246L236.53044444444444,146.28298188898566L236.73344444444442,146.30378204311992L236.76888888888888,146.27531949767237L237.76455555555557,146.18132385324586L238.15122222222223,146.1614356088968L238.17700000000002,146.15614430852395L238.293,146.16257868986972L238.54111111111112,146.19609556505134L238.57011111111112,146.20392027134005L239.25644444444444,146.28802580093614L239.81066666666666,146.36102179763142L239.8912222222222,146.36672176219037L239.94277777777776,146.3629110839308L240.39711111111112,146.33734421722733L240.44544444444443,146.30541904287352L240.54533333333333,146.31333239229906L240.8772222222222,146.32593051067116L241.0318888888889,146.31602491720975L241.19622222222222,146.34446954111337L241.31544444444444,146.37980658742268L241.49266666666665,146.35694310042118L241.49911111111112,146.3510138497635L241.55066666666667,146.35453986067552L241.72788888888888,146.38686538240788L242.4367777777778,146.42776831309536L242.46255555555555,146.45003776397056L242.47544444444443,146.45014374484072L242.64944444444444,146.4676047014271L242.97166666666666,146.48890893533155L243.53233333333333,146.5927063697366L243.7772222222222,146.62093711898302L243.88355555555557,146.627590243551L243.95444444444445,146.64113103826045L244.04144444444444,146.6363092509772L245.04999999999998,146.75671037856202L245.46566666666666,146.86890135559503L245.543,146.9294924669973L245.75566666666668,146.9762363921212L245.8587777777778,147.00826240586207L246.01666666666668,147.0595822347705L246.02955555555556,147.07233069211782L247.35711111111112,147.21695244024443L247.5246666666667,147.28115743647507L248.14655555555555,147.41816990797895L248.36566666666667,147.49226331433596L248.42366666666666,147.52629976450794L248.80066666666667,147.5861915416517L248.8167777777778,147.6069927191813L248.88444444444445,147.62226418039637L248.88766666666666,147.63026674695786L248.90055555555557,147.63776411850662L249.03266666666667,147.6547826526675L249.09388888888887,147.68155278418826L249.57722222222222,147.72967716887686L249.5836666666667,147.73673728585055L249.78666666666666,147.75724313395847L249.7963333333333,147.76742003525777L250.10244444444444,147.81085286596567L250.22488888888887,147.82537855748424L250.54711111111112,147.84736160237188L250.68244444444443,147.8405800402064L251.00788888888889,147.83455416006973L251.17866666666666,147.82105389277632L251.30433333333335,147.8229427963846L251.372,147.8104011997038L251.6877777777778,147.84088997717458L251.69744444444444,147.84658779003126L251.77477777777779,147.8582934967551L251.86822222222222,147.86303921523282L252.08733333333333,147.87219083741203L252.11633333333333,147.87036855914928L252.98633333333333,147.90785992338547L253.30855555555556,147.8894757317346L253.32466666666667,147.88423933987292L253.40200000000002,147.88405311733615L253.924,147.8477421276023L253.9401111111111,147.83425832914773L254.0142222222222,147.8292948723115L254.27844444444443,147.83681612279528L254.417,147.85865009472298L254.56844444444442,147.8643208094996L254.8068888888889,147.87395241468897L254.89711111111112,147.88251752086043L254.99377777777778,147.90761737069545L255.19033333333334,147.9504928622145L255.21611111111113,147.95461968245377L255.22577777777778,147.95645674800355L255.4191111111111,147.9603554847931L255.46744444444445,147.96181620708154L255.58344444444444,147.97674022730322L255.72522222222221,147.99637318630903L255.79288888888888,148.02709969060035L255.85733333333332,148.0382101886659L256.10544444444446,148.0645028900642L256.28266666666667,148.04783861100046L256.3052222222222,148.03763191471168L256.58233333333334,147.97900181464036L256.5855555555556,147.95792004315666L256.87555555555554,147.91855023873094L257.056,147.88999038145064L257.1591111111111,147.89077473970622L257.6166666666667,147.89709036811405L257.73266666666666,147.89394823340265L257.89377777777776,147.91279865742084L257.984,147.92402939677964L258.0323333333333,147.91309295589443L258.2031111111111,147.9051778984623L258.83144444444446,147.88338022971982L259.11822222222224,147.89870821024095L259.31155555555557,147.9074473901944L259.3502222222222,147.90864415982267L259.521,147.87624202577422L259.73044444444446,147.83395871766135L260.13,147.78087125920177L260.47155555555554,147.76604564937767L260.53922222222224,147.76825052760816L260.739,147.75182982547497L260.7937777777778,147.73634006240613L260.8453333333333,147.72226197434372L260.87111111111113,147.7114919033593L260.9871111111111,147.68368632519346L261.1127777777778,147.66905715632984L261.22555555555556,147.67029534958323L261.4801111111111,147.6562015130532L261.6702222222222,147.63695531189546L261.82166666666666,147.61903158327232L261.8571111111111,147.6139465122556L261.93122222222223,147.6104491416424L262.03755555555557,147.60684042007134L262.0407777777778,147.60620991126297L262.0762222222222,147.60278087696426L262.2308888888889,147.5992934000687L262.23411111111113,147.59731704827664L262.42744444444446,147.58003174951006L262.5402222222222,147.57279727961344L262.86244444444446,147.58005486073432L263.0042222222222,147.57815256532982L263.11055555555555,147.5696033404091L263.16211111111113,147.56005157982548L263.18466666666666,147.5586000886675L263.90644444444445,147.55674718974504L264.0127777777778,147.53815872438594L264.074,147.52859792698933L264.132,147.5204061899848L264.2286666666667,147.51496678756004L264.3833333333333,147.51693815850427L264.5702222222222,147.52067656476123L264.89566666666667,147.52510599634766L264.9987777777778,147.5155600901542L265.18244444444446,147.51969624724993L265.3532222222222,147.50666854160238L265.6335555555556,147.49857217109633L265.8623333333333,147.4490864199976L265.8848888888889,147.42973869955705L266.829,147.4633664366171L266.8998888888889,147.48875018298094L267.04166666666663,147.4861910493563L267.438,147.47488985446668L267.61522222222226,147.49578666955696L267.6313333333333,147.49465890636017L267.8665555555556,147.49166386909422L267.91166666666663,147.4907758454537L267.98577777777774,147.49733102359576L268.2564444444444,147.53384385282988L268.6044444444444,147.55025269696313L269.0523333333333,147.56341432464478L269.6258888888889,147.52708483748447L269.87399999999997,147.49636461774188L269.9577777777778,147.48048737494133L270.1672222222222,147.48532307595772L270.61188888888887,147.51939112066756L270.6376666666667,147.52717415551223L270.657,147.53689008296138L271.23055555555555,147.58103393662046L271.3755555555556,147.62299304131713L271.72355555555555,147.65168989447034L271.962,147.6693366454443L271.9781111111111,147.67839460956912L271.9942222222222,147.68682151643256L272.5097777777778,147.71409005473657L272.6934444444444,147.6940387423557L273.08011111111114,147.71717654252188L273.4281111111111,147.73605594333966L273.70844444444447,147.76008447948485L273.72777777777776,147.7767893360365L273.76,147.78101500178403L273.88888888888886,147.81200063527956" style="fill: none;" fill="none"></path></g></g></g></g><g opacity="0.2"><g><g><g><path stroke="rgb(255, 112, 67)" stroke-width="2px" d="M32.22544444444444,10.699621438980103L90.31888888888889,128.59024364501238L90.44777777777777,136.12758826464415L90.57988888888889,131.18622165173292L90.82477777777778,129.79945421218872L90.85377777777778,128.19475628435612L91.75922222222222,125.44222913682461L91.83977777777778,124.8697255924344L91.96866666666666,124.62721355259418L92.31988888888888,123.97315833717585L92.56477777777778,122.66925472766161L92.86444444444444,122.30049189180136L92.94822222222223,121.87014330178499L93.09322222222222,122.36671306192875L93.44444444444446,122.20224481076002L93.5411111111111,122.01349832117558L93.65066666666667,121.95112131536007L93.76344444444445,121.9185547158122L93.79244444444444,121.815579906106L93.86333333333333,121.88445176929235L93.87622222222222,121.9512202218175L93.96000000000001,122.04704739153385L94.01155555555556,122.14200418442488L94.20166666666665,121.55097216367722L94.31444444444445,120.8639745041728L94.34022222222222,120.96756253391504L94.685,120.79160135239363L94.7301111111111,120.79706758260727L94.81711111111112,120.93662459403276L94.87188888888889,121.1776925995946L95.06522222222222,121.69186111539602L95.22955555555555,121.60087376832962L95.48733333333332,121.59470200538635L95.55177777777777,121.66060008108616L95.84822222222222,121.14844266325235L95.85788888888888,121.15411330014467L95.91266666666667,121.26848872750998L96.13177777777777,121.2166353687644L96.35411111111112,121.4793111383915L96.36699999999999,121.30602043122053L96.73433333333334,121.5831233561039L96.76655555555556,121.64977971464396L97.2241111111111,121.64153091609478L97.58822222222221,121.68251775205135L98.00388888888888,121.70019563287497L98.252,121.67213916778564L99.17033333333333,122.12721437215805L99.209,122.13946558535099L99.32177777777778,122.1844482421875L99.5408888888889,122.31381129473448L99.62788888888889,122.22058206796646L99.72133333333333,122.21286077052355L99.95977777777777,122.26485259830952L100.59777777777778,122.15956337749958L100.66866666666667,122.09041457623243L100.68477777777778,122.09455545991659L101.10044444444445,122.01194878667593L101.21644444444445,121.95575673133135L101.75455555555556,121.42254542559385L101.80933333333334,121.43677476793528L102.36999999999999,121.55206672847271L102.48922222222222,121.61948796361685L102.67611111111111,121.22539188712835L102.89844444444444,121.08258415013552L103.16266666666667,120.976971834898L103.56866666666667,120.78043151646852L103.62344444444444,120.85786867886782L103.7491111111111,120.82103591412306L104.19055555555555,120.58489345014095L104.36133333333333,120.62533959746361L104.52566666666667,120.77097605913877L104.65133333333334,120.80692525953054L105.14433333333332,121.05426393449306L105.26355555555556,121.16135984659195L105.28933333333333,121.09707064926624L105.57933333333332,121.13929711282253L105.62122222222222,121.19500122964382L105.70822222222222,121.16135325282812L105.73722222222221,121.13395616412163L105.75655555555555,121.11550021916628L105.78555555555555,121.135861761868L105.95311111111111,121.09095823019743L105.99177777777777,121.13282203674316L105.99822222222222,121.09954990446568L106.00466666666667,121.10543813556433L106.05622222222222,121.09883777797222L106.29466666666666,121.25791233032942L106.32688888888889,121.25243950635195L106.40422222222223,121.2783595919609L106.54922222222223,121.24171145260334L106.58466666666666,121.26221805810928L106.63300000000001,121.3057566806674L106.74577777777779,121.41563516110182L106.7941111111111,121.42977878451347L106.88111111111112,121.45844846963882L106.95522222222222,121.48295748978853L107.20655555555555,121.47627141326666L107.39988888888888,121.5120491757989L107.51588888888888,121.54000014066696L107.80911111111111,121.49581532925367L108.10877777777777,121.47438559681177L108.53733333333334,121.41045246273279L108.80799999999999,121.48428943008184L109.33322222222223,121.6422364488244L109.40411111111112,121.59967370331287L109.42344444444444,121.61647461354733L109.56200000000001,121.5938052535057L109.83588888888889,121.78658053278923L110.48677777777777,121.86398472636938L110.74455555555555,121.85194451361895L110.97977777777778,121.95712823420763L111.05066666666667,121.98882445693016L111.20855555555555,121.99182461947203L111.34388888888888,121.97340823709965L111.54688888888889,121.99778538197279L111.60811111111111,121.99039377272129L111.66933333333333,122.02356040477753L111.67577777777777,122.0248593762517L111.73377777777779,122.0401569083333L111.85622222222223,122.06936068832874L112.13977777777778,122.03188832849264L112.22355555555555,122.06239107996225L112.23322222222221,122.04828701913357L112.2751111111111,122.04210866242647L112.59411111111112,122.18348555266857L112.91633333333334,122.02197790145874L112.96144444444444,123.87623000890017L113.10000000000001,125.28889775276184L113.11933333333333,124.29327238351107L113.39322222222222,126.04081761091948L113.66711111111111,125.38868118077517L113.79922222222221,125.18313378095627L114.00544444444444,125.76296959072351L114.173,124.63525135070086L114.45011111111111,125.65196357667446L114.71433333333334,125.82650050520897L114.89155555555556,125.79888582229614L114.92699999999999,125.96599817276001L115.24277777777777,125.54715570062399L115.50377777777778,126.31566546857357L115.92588888888889,128.35808381438255L115.95166666666667,128.50474890321493L116.12244444444445,128.9594680443406L116.30933333333334,128.78143642097712L116.40599999999999,129.06351763755083L116.45755555555554,128.90467386692762L116.48977777777777,128.99125657975674L116.51877777777777,128.88751689344645L116.6798888888889,128.91965489834547L116.98277777777778,128.88740479946136L117.10522222222222,128.7038080394268L117.18900000000001,128.5233235359192L117.20511111111111,128.55574507266283L117.29211111111111,128.28545350581408L117.41133333333333,128.1109033897519L117.53699999999999,128.04515037685633L117.99455555555555,127.43470631539822L118.00744444444445,127.45598439127207L118.05900000000001,127.52322759479284L118.12666666666667,127.585617788136L118.23622222222222,127.24865008145571L118.25555555555556,127.22879625856876L118.33611111111111,127.00685016810894L118.48755555555555,126.61000449210405L119.28666666666666,126.3502761349082L119.32211111111111,126.25179167836905L119.88277777777778,125.91670978814363L119.96333333333334,126.15870751440525L120.02455555555557,126.07484802603722L120.11800000000001,126.11558429896832L120.48855555555555,126.07037745416164L120.57555555555557,126.2026747316122L120.67222222222222,126.03397987782955L120.81722222222221,125.99402166903019L120.86555555555556,126.14420782774687L121.00411111111111,125.95929231494665L121.22966666666666,125.81823192536831L121.29733333333334,125.8004155755043L121.41977777777778,125.78201897442341L121.50033333333333,125.75335588306189L121.57444444444444,125.84599167108536L122.44444444444444,125.55585287511349L122.87944444444445,125.70152889937162L122.88266666666667,125.70367187261581L123.47877777777778,125.94806972891092L123.69788888888888,126.15129612386227L123.86866666666666,126.3134104013443L123.975,126.44419770687819L123.98788888888889,126.49390149861574L124.13611111111112,126.57603342086077L124.15544444444446,126.52458887547255L124.23922222222222,126.60019297152758L124.51311111111112,126.68082810938358L125.21555555555555,127.11557473987341L125.25744444444445,127.14020904153585L125.29611111111112,127.21930123865604L125.37988888888889,127.31677684932947L125.53133333333334,127.1278852969408L125.7568888888889,127.01558690518141L125.76011111111112,127.02366426587105L125.80844444444445,127.08478845655918L125.92122222222223,127.23394598811865L125.976,127.2870060056448L126.02433333333333,127.31420528143644L126.20155555555556,127.40463215857744L126.208,127.33689442276955L126.22411111111111,127.31859013438225L126.40777777777778,127.4037354066968L126.49799999999999,127.37041711807251L126.63333333333333,127.33756698668003L126.90722222222223,127.39276997745037L126.962,127.34804447740316L127.76433333333333,127.06171028316021L127.919,127.00189165771008L127.93511111111111,126.98349505662918L128.238,126.79450459778309L128.24444444444444,126.81653436273336L128.26055555555556,126.8453161418438L128.31533333333334,126.8644842132926L128.3958888888889,126.82978123426437L128.75677777777778,126.81495185941458L129.02744444444446,128.0978872999549L129.30133333333333,118.08459755033255L129.45600000000002,126.74631737172604L129.59777777777776,119.94785014539957L129.6428888888889,120.63842162489891L129.72344444444445,120.30345842242241L129.833,121.37423951178789L129.89100000000002,120.46281650662422L129.89744444444443,120.79417292028666L130.0778888888889,120.14257058501244L130.34855555555555,120.43582823127508L130.38722222222222,120.7319475710392L131.07033333333334,124.92318123579025L131.37644444444445,126.40815619379282L131.46988888888887,126.69960714876652L131.52144444444446,127.02242463827133L131.61811111111112,127.79304441064596L131.6277777777778,127.67167299985886L131.65355555555556,127.88693960756063L131.90166666666667,127.89733797311783L132.59766666666667,127.90781546384096L132.69755555555557,127.97420147806406L132.97144444444444,127.78201963752508L133.20988888888888,127.7503102272749L133.748,126.78672395646572L134.20555555555555,127.34703563153744L134.212,127.38963793963194L134.66633333333334,128.56276083737612L134.80488888888888,128.92342653125525L134.98855555555556,129.22919254750013L135.78444444444443,130.08160796016455L135.82955555555554,130.2428386732936L135.981,130.45723490417004L136.17111111111112,130.29142152518034L136.23555555555555,130.39973728358746L136.242,130.39458755403757L136.40633333333332,130.25315131992102L136.60611111111112,130.27213476598263L136.78333333333333,130.05657143890858L137.19577777777778,129.54622071236372L137.36977777777778,129.53553222119808L137.47933333333333,129.32511862367392L137.50511111111112,129.2124443873763L137.50833333333333,129.20671440660954L137.6758888888889,128.95197093486786L137.78544444444444,128.79225678741932L137.8047777777778,128.85667126625776L138.098,128.68617631495L138.2462222222222,128.83344143629074L138.6522222222222,129.07219503074884L138.70055555555555,129.13188837468624L138.7231111111111,129.14739690721035L138.7811111111111,129.2093650996685L138.79722222222222,129.18235704302788L138.9261111111111,129.30604945868254L138.92933333333332,129.3118453770876L138.96800000000002,129.26300536841154L139.07755555555556,129.18676167726517L139.29666666666668,128.95762838423252L139.57055555555556,128.70456632226706L139.66722222222222,128.62588953226805L140.35355555555554,128.69000729173422L140.37933333333334,128.73785823583603L140.42444444444445,128.7282181531191L140.56300000000002,128.79548113793135L140.59844444444445,128.81619215011597L140.6081111111111,128.85667126625776L140.679,129.0055650472641L140.79177777777778,129.03134007006884L141.085,129.23969641327858L141.93244444444443,130.6790029630065L142.02266666666668,130.82638677209616L142.41899999999998,131.41110856086016L142.63166666666666,130.95794554799795L142.825,130.76858583837748L143.08922222222222,130.66218227148056L143.144,130.75312346220016L143.2052222222222,130.78466143459082L143.32122222222222,130.89410472661257L143.4597777777778,131.02843947708607L143.6112222222222,131.32667541503906L143.70144444444443,131.43132504075766L143.75944444444445,131.42241027206182L144.08488888888888,131.95746783167124L144.2008888888889,132.11528297513723L144.2911111111111,132.21883803606033L144.44255555555557,132.26463172584772L144.51666666666668,132.26037215441465L144.60366666666667,132.41479810327291L144.64877777777778,132.47919280081987L145.04188888888888,132.51370456069708L145.0998888888889,132.46843177825212L145.2577777777778,132.47443869709969L145.29,132.47257266193628L145.32544444444446,132.52271823585033L145.35766666666666,132.46565580368042L145.40599999999998,132.42728669196367L146.0536666666667,132.67892450094223L146.0891111111111,132.70313020795584L146.25022222222225,132.68855798989534L146.36944444444444,132.7158297970891L146.6981111111111,133.07207107543945L146.9301111111111,133.1427562236786L147.04611111111112,133.02035618573427L147.12666666666667,133.04681036621332L147.17822222222222,133.03204033523798L147.21366666666668,133.00784781575203L147.291,132.93946389108896L147.349,132.90751051157713L147.378,132.9146845266223L147.65833333333333,132.95076560229063L147.94511111111112,132.86701820790768L148.01277777777779,132.8288073465228L148.29955555555557,132.87062499672174L148.44777777777776,132.90662694722414L148.80866666666665,132.84975573420525L149.0567777777778,132.8895688802004L149.07611111111112,132.88757096976042L149.69155555555554,132.9308458417654L149.79144444444444,132.97473393380642L149.83977777777778,132.98416301608086L149.89133333333334,132.98875886946917L149.96866666666668,132.95354817062616L150.09755555555557,132.85313833504915L150.15233333333333,132.83203169703484L150.29088888888887,132.85472743213177L150.48422222222223,132.8309041634202L150.48744444444444,132.82786443829536L150.57122222222222,132.8314184769988L151.56688888888888,133.10835655778646L151.70222222222222,133.13138857483864L152.00833333333333,133.06395415216684L152.62055555555554,133.25788993388414L152.82033333333334,133.36958169937134L152.82355555555554,133.36800578981638L152.87511111111112,133.42743538320065L152.9878888888889,133.48505169153214L153.06522222222222,133.53381257504225L153.1038888888889,133.51285099983215L153.11355555555556,133.49739521741867L153.37777777777777,133.47090147435665L153.3971111111111,133.48930466920137L153.46155555555555,133.5764478519559L153.79666666666665,133.79814997315407L153.83855555555556,133.77165623009205L153.8868888888889,133.800187446177L154.2671111111111,134.14167188107967L154.32833333333335,134.16351042687893L154.44755555555557,134.25858590751886L154.76977777777776,134.5129930973053L155.0468888888889,134.64104399085045L155.18544444444447,134.63075771927834L155.37555555555556,134.69974167644978L155.53344444444446,134.69696570187807L155.56566666666666,134.68408808112144L155.8298888888889,134.64941807091236L156.12633333333332,134.8873870074749L156.27777777777777,134.9099376797676L156.339,134.87470719963312L156.4131111111111,134.88448575139046L156.46144444444445,134.8892728239298L156.47755555555557,134.88226365298033L156.81266666666664,134.99144978821278L157.35722222222225,134.70264952629805L158.02422222222222,134.61204461753368L158.10155555555556,134.69630632549524L159.05533333333332,134.84649248421192L159.20033333333333,134.9742202833295L159.20677777777777,134.9546104297042L159.38077777777778,135.08981555700302L159.40655555555557,135.1341388374567L159.57411111111114,135.22158533334732L160.08644444444442,135.20678892731667L160.94033333333334,135.4498416557908L160.99833333333333,135.46016089618206L161.26577777777777,135.3607203438878L161.4591111111111,135.33790592104197L161.61055555555555,135.29301557689905L161.75877777777777,135.2988774329424L162.284,135.2311396971345L162.50311111111114,135.18060509115458L162.9187777777778,135.35082310438156L162.94133333333332,135.38048844784498L163.00900000000001,135.41911471635103L163.19266666666667,135.430442802608L163.50522222222224,135.35863671451807L163.66955555555555,135.34743390977383L163.75333333333333,135.3486141934991L163.79522222222224,135.3509747609496L163.85322222222223,135.33753007650375L164.52988888888888,135.7327800616622L164.62011111111113,135.73852982372046L164.71355555555556,135.78129038214684L164.72966666666665,135.77172942459583L164.96166666666664,135.92368930578232L165.2097777777778,136.15714810788631L165.6641111111111,136.41523461788893L165.66733333333335,136.42132066190243L165.84455555555556,136.47820506244898L165.87355555555555,136.47478949278593L166.112,136.6017260402441L166.23766666666668,136.65051329880953L166.721,136.90828330814838L166.81444444444443,136.95747278630733L166.96911111111112,137.0153396576643L167.13344444444442,137.11839359253645L167.185,137.09009315818548L167.23655555555555,137.0833609253168L167.301,137.0594123750925L167.62966666666665,137.22220581024885L167.66188888888888,137.23206348717213L168.02277777777778,137.35669881105423L168.15166666666667,137.43605475872755L168.2741111111111,137.47735809534788L168.5351111111111,137.49437000602484L168.68011111111113,137.55579750984907L168.70266666666666,137.55857348442078L168.8831111111111,137.675678730011L168.94433333333333,137.7209185436368L169.273,137.88320425897837L169.29555555555555,137.88343504071236L169.38255555555557,137.84900899976492L169.81755555555554,137.85899855196476L170.07855555555554,137.7779084444046L170.1752222222222,137.74828266352415L170.2783333333333,137.74991791695356L170.3008888888889,137.73149494081736L170.3782222222222,137.77206636965275L170.44266666666667,137.73090809583664L170.752,137.7026867866516L170.80033333333333,137.721103169024L170.80677777777777,137.708469517529L170.85833333333332,137.71183233708143L171.15155555555557,137.7611866593361L171.45444444444445,137.78897937387228L171.48666666666668,137.80561544001102L171.64455555555554,137.78762765228748L172.54033333333334,137.87331361323595L172.93344444444443,137.7722444012761L173.159,137.79939752072096L173.217,137.79639076441526L173.26533333333333,137.83036842942238L173.41677777777778,137.87347845733166L173.80666666666667,137.8981325402856L173.8098888888889,137.89642475545406L173.9548888888889,137.88392957299948L174.1256666666667,137.94690661132336L174.145,137.9584127292037L174.18366666666668,137.97645326703787L174.26744444444446,137.9765323922038L174.27388888888888,137.97830611467361L174.38344444444445,138.03159032016993L174.522,138.0334761366248L174.6218888888889,138.0551564320922L174.77011111111113,138.14279414713383L175.00533333333334,138.18412385880947L175.0568888888889,138.19140996783972L175.5241111111111,138.35404515266418L175.63688888888888,138.39379895478487L175.85600000000002,138.4217433258891L176.08155555555555,138.51180095225573L176.29744444444447,138.60529392957687L176.34255555555558,138.61221738159657L176.51333333333335,138.72375089675188L176.9547777777778,138.75834178179502L176.96766666666664,138.76579273492098L176.9741111111111,138.77252496778965L177.20288888888888,138.78720927983522L177.5218888888889,138.85060172528028L177.57022222222224,138.8663476333022L177.72811111111113,138.87890215963125L177.77,138.86849720031023L177.77322222222222,138.87162264436483L177.8698888888889,138.92009999603033L178.1663333333333,138.9731666073203L178.44666666666666,139.0521203354001L178.71411111111112,139.16323844343424L178.96866666666665,139.14881128817797L179.00411111111111,139.1344566643238L179.39077777777777,139.23808425664902L179.5261111111111,139.25532035529613L179.67433333333335,139.26791444420815L180.27366666666668,139.36128214001656L180.79244444444444,139.44400750100613L180.8311111111111,139.44848466664553L181.018,139.45138592272997L181.06633333333332,139.46429651230574L181.13722222222222,139.50923960655928L181.34666666666666,139.5107825472951L181.36599999999999,139.5126485824585L181.5432222222222,139.5313023403287L181.58833333333334,139.55341782420874L181.6141111111111,139.56558991223574L181.85255555555554,139.60155230015516L182.17155555555553,139.61075719445944L182.47766666666666,139.6072295308113L182.50344444444445,139.6273734793067L182.61944444444444,139.63566843420267L182.71288888888887,139.659808203578L183.0608888888889,139.74614035338163L183.19622222222222,139.74180825054646L183.44755555555557,139.77377481758595L183.91155555555554,139.8690876737237L184.00177777777776,139.89599023014307L184.13711111111112,139.94227185845375L184.2047777777778,139.99372959136963L184.40455555555556,140.0847762823105L184.4367777777778,140.07043484598398L184.47866666666667,140.0964406505227L184.50444444444446,140.12056723237038L184.86211111111112,140.18598396331072L185.0328888888889,140.18443442881107L185.12633333333332,140.2172713726759L185.38088888888888,140.21600537002087L185.91255555555554,140.22005394101143L185.92866666666666,140.22821702063084L186.30244444444443,140.31522173434496L186.37333333333333,140.3215055912733L186.80188888888887,140.3120831027627L186.98877777777776,140.29369309544563L187.04033333333334,140.29334362596273L187.33355555555556,140.32032530754805L187.41088888888888,140.32512556761503L187.58488888888888,140.37421613931656L187.69444444444446,140.4108115285635L187.70088888888887,140.4161524772644L188.0037777777778,140.4541391506791L188.21,140.501449406147L188.29055555555553,140.47513369470835L188.30344444444444,140.4773623868823L188.59988888888887,140.55553805083036L188.66755555555557,140.5782799422741L188.76422222222223,140.5863704904914L188.92211111111112,140.56625291705132L189.2088888888889,140.56756507605314L189.2378888888889,140.56993883103132L189.77922222222224,140.64454726874828L189.79211111111113,140.64901124686003L189.81144444444445,140.65610613673925L190.00155555555554,140.68217787891626L190.17233333333334,140.74265588074923L190.18200000000002,140.74353944510221L190.3012222222222,140.73960296809673L190.5461111111111,140.58118119835854L190.76844444444444,140.60600012540817L191.197,140.63269827514887L191.28077777777779,140.63436649739742L191.3516666666667,140.5955358222127L191.47733333333332,140.5588349327445L191.60299999999998,140.56240875273943L191.60622222222224,140.56345716118813L191.80599999999998,140.57013005018234L192.0347777777778,140.61606880277395L192.04444444444445,140.6108597293496L192.04766666666666,140.61121579259634L192.19266666666664,140.62502972781658L192.26677777777778,140.61429508030415L192.3312222222222,140.64691442996264L192.83388888888888,140.6318213045597L193.00466666666665,140.66027998924255L193.04977777777776,140.66519234329462L193.31722222222223,140.72594728320837L193.546,151.45216137170792L193.72322222222223,152.7186981216073L193.77477777777779,153.36513094604015L193.80055555555555,151.7701654136181L194.24844444444443,156.4808426052332L194.4933333333333,149.00076482445002L194.89288888888888,145.8421739190817L194.90577777777776,146.03870764374733L194.94766666666666,145.47791462391615L195.05722222222224,145.26147432625294L195.402,143.91002967953682L195.4438888888889,144.02606014162302L195.66944444444445,143.9985179901123L195.73388888888888,144.10577215254307L195.81444444444443,143.47153779119253L195.82088888888887,143.56485933065414L196.06577777777775,142.98195742070675L196.1237777777778,143.1233013421297L196.13666666666666,142.9735503718257L196.2301111111111,142.91770119220018L196.2848888888889,143.1593032926321L196.30744444444443,143.45114327967167L196.36544444444442,143.55385433882475L196.43633333333332,143.46615727990866L196.4782222222222,143.3938566595316L196.58455555555557,143.75228706747293L196.6038888888889,144.03450015932322L196.73277777777778,144.02427323162556L196.81655555555557,143.8362916186452L197.0678888888889,145.25103639811277L197.14844444444444,144.41004138439894L197.287,144.10170380026102L197.38044444444444,143.8509165868163L198.03133333333332,145.503340177238L198.06355555555555,145.69962993264198L198.07966666666667,144.97816666960716L198.0828888888889,144.92177680134773L198.15055555555554,144.72541451454163L198.16666666666666,144.6348161995411L198.83044444444445,144.35446254909039L198.84333333333333,144.42866876721382L199.1558888888889,144.25318893045187L199.1881111111111,144.09466166049242L199.62311111111111,144.27403181791306L199.6682222222222,144.5054267719388L199.74233333333333,144.3987001106143L200.06777777777776,144.37020186334848L200.4608888888889,144.25067011266947L200.58977777777778,144.47784505784512L200.66066666666666,144.43474162369967L201.3051111111111,144.47260960936546L201.67566666666667,144.48407616466284L201.97533333333334,144.78746183216572L202.53277777777777,145.0327168777585L202.61655555555555,144.97653141617775L203.5928888888889,145.46793166548014L203.66055555555556,145.51338247954845L203.84744444444445,145.3659788891673L203.93444444444444,145.42179509997368L204.0021111111111,145.5451776087284L204.24055555555555,145.73404278606176L204.247,145.7625674083829L204.35333333333332,145.8915150538087L204.45322222222222,145.5884063243866L204.45966666666666,145.60963165014982L204.5402222222222,145.4734044894576L204.61433333333335,145.38350511342287L204.97522222222221,145.142285451293L205.03,145.06571866571903L205.25233333333333,145.1952399685979L205.35544444444443,145.2013260126114L205.63899999999998,145.46245884150267L205.79688888888887,145.47449246048927L205.93222222222224,145.55773213505745L205.94833333333332,145.58277525007725L206.24155555555555,145.85993092507124L206.2898888888889,145.78323226422071L206.30922222222222,145.78475542366505L206.33177777777777,145.73713526129723L206.60888888888888,145.28442721813917L206.683,145.21423660218716L207.25011111111112,145.334849730134L207.35322222222223,145.26145454496145L207.437,145.24356566369534L207.5562222222222,145.38562830537558L207.58844444444446,145.29183201491833L207.9138888888889,145.2946673333645L207.92033333333333,145.3027842566371L208.04922222222223,145.4063195362687L208.20711111111112,145.3795488551259L208.76133333333334,144.99877877533436L208.7871111111111,144.9870616570115L208.84833333333333,144.90190979093313L208.88055555555556,144.87929977476597L208.89022222222223,144.88407365977764L208.90633333333335,144.8294311389327L209.18344444444443,144.60259906947613L209.35744444444444,144.55067317932844L209.67322222222225,144.67412821948528L209.786,144.63877245783806L210.00833333333333,144.72805202007294L210.2048888888889,144.60612013936043L210.20811111111112,144.6168415993452L210.49488888888888,144.69669867306948L210.86544444444445,144.6966591104865L210.91377777777777,144.7861298918724L211.50666666666666,145.07973041385412L211.6162222222222,145.13106286525726L211.87722222222223,145.25686528533697L211.99322222222222,145.45816630125046L212.49266666666668,145.4795828461647L212.50233333333333,145.4982102289796L212.541,145.53876847028732L212.65699999999998,145.54122135043144L212.88255555555557,145.52753929048777L212.89544444444445,145.56004654616117L213.07911111111113,145.5587937310338L213.72677777777778,145.752195417881L213.95233333333334,145.8221222832799L214.36155555555555,145.93828462064266L214.69344444444445,145.9024738892913L215.09622222222222,145.6608124449849L215.47,145.56698318570852L216.28844444444445,145.35730808973312L216.4978888888889,145.33744767308235L216.84588888888888,145.44069282710552L216.86522222222223,145.4560299217701L217.34533333333331,145.66369391977787L218.06066666666666,145.73987167328596L218.718,145.87469436228275L218.74377777777778,145.89464709162712L218.93388888888887,145.85675932466984L218.99511111111113,145.86366958916187L219.18200000000002,145.86652468889952L219.443,145.92602021992207L219.7201111111111,145.92501137405634L219.97788888888888,145.94865001738071L219.98433333333332,145.94175953418016L220.4257777777778,145.9261191263795L220.69644444444447,145.96839174628258L221.16366666666667,145.9406715631485L221.18300000000002,145.90689830482006L221.20555555555555,145.92291455715895L221.23133333333334,145.90419486165047L221.44077777777778,145.89388880878687L221.5148888888889,145.90213101357222L221.78233333333336,145.92504434287548L221.792,145.93018747866154L221.821,145.9435398504138L222.05944444444444,146.03339966386557L222.34622222222222,146.04510359466076L222.50088888888888,146.00820489227772L222.5621111111111,146.0353448241949L222.62977777777778,146.0605000331998L222.69744444444444,146.044556312263L222.80055555555555,146.0599000006914L222.83922222222225,146.0842639580369L223.25166666666667,146.05587780475616L223.32255555555554,146.03318866342306L223.36766666666665,146.00984673947096L223.37088888888889,146.0083631426096L223.43855555555558,145.97452394664288L223.4901111111111,145.97703617066145L223.96377777777778,145.82749620079994L224.0088888888889,145.79079531133175L224.2118888888889,145.8934536203742L224.31822222222223,145.83143927156925L224.4728888888889,145.84032766520977L224.518,145.8782286196947L224.6178888888889,145.86026061326265L224.6468888888889,145.85495922714472L224.77255555555556,145.90895555913448L224.9691111111111,145.9365900233388L225.156,145.91552954167128L225.40411111111112,145.95747247338295L225.417,145.95651637762785L225.504,145.90652246028185L225.90033333333335,145.88442016392946L226.46744444444442,145.97558554261923L226.519,146.01264908909798L226.68977777777778,146.03034015744925L226.9121111111111,146.02809827774763L227.01200000000003,146.05743393301964L227.03777777777776,146.07497334480286L227.2858888888889,146.05813287198544L227.3148888888889,146.04172758758068L227.45988888888888,146.04993022978306L227.679,145.98761916160583L228.7358888888889,146.09824273735285L229.187,146.23844593763351L229.25466666666665,146.28387697041035L229.35133333333334,146.2573041021824L229.39322222222222,146.26979928463697L229.4447777777778,146.27623479813337L229.46733333333333,146.29539627581835L229.74444444444447,146.40845954418182L229.88944444444445,146.43243446946144L229.95066666666668,146.41941837966442L230.06344444444446,146.35117292404175L230.463,146.07123468071222L230.90444444444447,146.0772943496704L230.97533333333334,146.05377439409494L231.00755555555557,146.08194295316935L231.12033333333335,146.09574370086193L231.26533333333333,146.1129468306899L231.3007777777778,146.1150898039341L231.83244444444446,146.23896025121212L231.83888888888887,146.2391910329461L232.02577777777776,146.26195929944515L232.08055555555555,146.25359181314707L232.15788888888886,146.2705311924219L232.19011111111112,146.2931016460061L232.30933333333334,146.26358795911074L232.38022222222222,146.25349950045347L232.551,146.256282068789L232.78944444444446,146.24381326138973L232.81199999999998,146.2443209812045L232.93444444444444,146.2566974759102L233.58533333333332,146.16076480597258L233.8012222222222,146.17027960717678L234.00422222222224,146.20965097099543L234.05255555555556,146.20239783078432L234.37800000000001,146.29246205091476L234.38766666666666,146.2942885234952L234.60677777777778,146.27843711525202L234.99022222222223,146.35593362152576L235.13522222222224,146.34685400873423L235.86666666666667,146.26557927578688L236.09222222222223,146.24459132552147L236.37577777777776,146.25515453517437L236.53044444444444,146.2975062802434L236.73344444444442,146.31573803722858L236.76888888888888,146.2589591369033L237.76455555555557,146.12729486078024L238.15122222222223,146.15000378340483L238.17700000000002,146.15310285240412L238.293,146.16627719253302L238.54111111111112,146.21536117047071L238.57011111111112,146.20841793715954L239.25644444444444,146.33636992424726L239.81066666666666,146.40298012644053L239.8912222222222,146.36999811977148L239.94277777777776,146.3607206940651L240.39711111111112,146.32264830172062L240.44544444444443,146.28706835210323L240.54533333333333,146.31788101047277L240.8772222222222,146.33317194879055L241.0318888888889,146.3103311508894L241.19622222222222,146.36081960052252L241.31544444444444,146.40011843293905L241.49266666666665,146.34380109608173L241.49911111111112,146.34760569781065L241.55066666666667,146.35656662285328L241.72788888888888,146.4054461941123L242.4367777777778,146.45127944648266L242.46255555555555,146.46283831447363L242.47544444444443,146.45020466297865L242.64944444444444,146.4776413142681L242.97166666666666,146.50115467607975L243.53233333333333,146.65236946195364L243.7772222222222,146.63716424256563L243.88355555555557,146.63141448050737L243.95444444444445,146.64891432970762L244.04144444444444,146.63353767246008L245.04999999999998,146.8259173259139L245.46566666666666,146.933389082551L245.543,146.96432042866945L245.75566666666668,147.00310494750738L245.8587777777778,147.02667105942965L246.01666666666668,147.0890810340643L246.02955555555556,147.07965854555368L247.35711111111112,147.30008147656918L247.5246666666667,147.3180626705289L248.14655555555555,147.49692510813475L248.36566666666667,147.534852437675L248.42366666666666,147.54586402326822L248.80066666666667,147.6206175237894L248.8167777777778,147.61894930154085L248.88444444444445,147.6310422644019L248.88766666666666,147.6348666474223L248.90055555555557,147.64207363128662L249.03266666666667,147.66456495970488L249.09388888888887,147.69694034010172L249.57722222222222,147.75733921676874L249.5836666666667,147.7407954633236L249.78666666666666,147.76902996003628L249.7963333333333,147.77326975017786L250.10244444444444,147.8358181938529L250.22488888888887,147.83372797071934L250.54711111111112,147.8599975258112L250.68244444444443,147.8366819769144L251.00788888888889,147.83109046518803L251.17866666666666,147.8132938966155L251.30433333333335,147.82402854412794L251.372,147.80319225043058L251.6877777777778,147.8584150224924L251.69744444444444,147.84986291080713L251.77477777777779,147.86502197384834L251.86822222222222,147.86576706916094L252.08733333333333,147.87745121866465L252.11633333333333,147.86932110786438L252.98633333333333,147.92941007763147L253.30855555555556,147.8789084404707L253.32466666666667,147.88122944533825L253.40200000000002,147.8839460760355L253.924,147.82687045633793L253.9401111111111,147.82650779932737L254.0142222222222,147.8264418616891L254.27844444444443,147.84113936126232L254.417,147.87120033055544L254.56844444444442,147.86758035421371L254.8068888888889,147.87948869168758L254.89711111111112,147.8874407708645L254.99377777777778,147.9220448434353L255.19033333333334,147.97513782978058L255.21611111111113,147.95699179172516L255.22577777777778,147.9575126990676L255.4191111111111,147.9625964909792L255.46744444444445,147.96265583485365L255.58344444444444,147.98531860113144L255.72522222222221,148.00765827298164L255.79288888888888,148.04476138204336L255.85733333333332,148.04459653794765L256.10544444444446,148.07961601763964L256.28266666666667,148.03825993090868L256.3052222222222,148.03176507353783L256.58233333333334,147.94530104845762L256.5855555555556,147.94580217450857L256.87555555555554,147.89592035114765L257.056,147.87357408553362L257.1591111111111,147.89122559130192L257.6166666666667,147.90072061121464L257.73266666666666,147.89214212447405L257.89377777777776,147.9236339405179L257.984,147.93048486113548L258.0323333333333,147.90680665522814L258.2031111111111,147.90062829852104L258.83144444444446,147.87085086107254L259.11822222222224,147.9075187817216L259.31155555555557,147.91247069835663L259.3502222222222,147.90933206677437L259.521,147.8576171770692L259.73044444444446,147.8096541389823L260.13,147.7503564208746L260.47155555555554,147.75752384215593L260.53922222222224,147.76951789855957L260.739,147.74239115417004L260.7937777777778,147.7274364978075L260.8453333333333,147.714169844985L260.87111111111113,147.70530123263597L260.9871111111111,147.66770359128714L261.1127777777778,147.66064826399088L261.22555555555556,147.6710070669651L261.4801111111111,147.64810033142567L261.6702222222222,147.62589253485203L261.82166666666666,147.60872896760702L261.8571111111111,147.61102359741926L261.93122222222223,147.60843884199858L262.03755555555557,147.60476611554623L262.0407777777778,147.60584749281406L262.0762222222222,147.60080985724926L262.2308888888889,147.59728878736496L262.23411111111113,147.5961810350418L262.42744444444446,147.57009610533714L262.5402222222222,147.5686388835311L262.86244444444446,147.58422654122114L263.0042222222222,147.5770591199398L263.11055555555555,147.56468921899796L263.16211111111113,147.55456119775772L263.18466666666666,147.55776576697826L263.90644444444445,147.55568213760853L264.0127777777778,147.52747401595116L264.074,147.523102350533L264.132,147.51569755375385L264.2286666666667,147.5118402019143L264.3833333333333,147.51807130873203L264.5702222222222,147.52282541245222L264.89566666666667,147.52765204757452L264.9987777777778,147.51007307320833L265.18244444444446,147.5220737233758L265.3532222222222,147.49918017536402L265.6335555555556,147.49391835182905L265.8623333333333,147.4206418544054L265.8848888888889,147.41861756891012L266.829,147.48269576579332L266.8998888888889,147.50334084033966L267.04166666666663,147.4847200512886L267.438,147.4683938920498L267.61522222222226,147.50779822468758L267.6313333333333,147.49401066452265L267.8665555555556,147.4899423122406L267.91166666666663,147.4902654066682L267.98577777777774,147.50109896063805L268.2564444444444,147.55483154207468L268.6044444444444,147.5596845522523L269.0523333333333,147.57097966969013L269.6258888888889,147.50620253384113L269.87399999999997,147.47870653867722L269.9577777777778,147.47136108577251L270.1672222222222,147.4881026521325L270.61188888888887,147.53897354006767L270.6376666666667,147.53164786845446L270.657,147.5424748286605L271.23055555555555,147.60640796273947L271.3755555555556,147.64711126685143L271.72355555555555,147.6681849360466L271.962,147.67948005348444L271.9781111111111,147.6836011558771L271.9942222222222,147.6916653290391L272.5097777777778,147.72976409643888L272.6934444444444,147.68251318484545L273.08011111111114,147.73047622293234L273.4281111111111,147.7469078823924L273.70844444444447,147.77389615774155L273.72777777777776,147.78639134019613L273.76,147.7834439277649L273.88888888888886,147.82981127500534" style="fill: none;" fill="none"></path></g></g></g></g></g></g><g transform="translate(40, 177)" clip-path="url(#clip_1)"><clipPath id="clip_1"><rect width="290" height="23"></rect></clipPath><g><g><line x1="0" y1="0" x2="0" y2="5" style="visibility: inherit;" fill="rgb(0, 0, 0)" stroke="rgb(204, 204, 204)" stroke-width="1px"></line><line x1="32.22222222222222" y1="0" x2="32.22222222222222" y2="5" style="visibility: inherit;" fill="rgb(0, 0, 0)" stroke="rgb(204, 204, 204)" stroke-width="1px"></line><line x1="64.44444444444444" y1="0" x2="64.44444444444444" y2="5" style="visibility: inherit;" fill="rgb(0, 0, 0)" stroke="rgb(204, 204, 204)" stroke-width="1px"></line><line x1="96.66666666666666" y1="0" x2="96.66666666666666" y2="5" style="visibility: inherit;" fill="rgb(0, 0, 0)" stroke="rgb(204, 204, 204)" stroke-width="1px"></line><line x1="128.88888888888889" y1="0" x2="128.88888888888889" y2="5" style="visibility: inherit;" fill="rgb(0, 0, 0)" stroke="rgb(204, 204, 204)" stroke-width="1px"></line><line x1="161.11111111111111" y1="0" x2="161.11111111111111" y2="5" style="visibility: inherit;" fill="rgb(0, 0, 0)" stroke="rgb(204, 204, 204)" stroke-width="1px"></line><line x1="193.33333333333331" y1="0" x2="193.33333333333331" y2="5" style="visibility: inherit;" fill="rgb(0, 0, 0)" stroke="rgb(204, 204, 204)" stroke-width="1px"></line><line x1="225.55555555555557" y1="0" x2="225.55555555555557" y2="5" style="visibility: inherit;" fill="rgb(0, 0, 0)" stroke="rgb(204, 204, 204)" stroke-width="1px"></line><line x1="257.77777777777777" y1="0" x2="257.77777777777777" y2="5" style="visibility: inherit;" fill="rgb(0, 0, 0)" stroke="rgb(204, 204, 204)" stroke-width="1px"></line><line x1="290" y1="0" x2="290" y2="5" style="visibility: inherit;" fill="rgb(0, 0, 0)" stroke="rgb(204, 204, 204)" stroke-width="1px"></line></g><g transform="translate(0, 8)"><text x="0" y="0" dx="0em" dy="0.95em" style="text-anchor: middle; visibility: hidden; font-family: &quot;Helvetica Neue&quot;, sans-serif; font-size: 12px; font-weight: 200;" fill="rgb(33, 33, 33)" stroke="none" stroke-width="1px">-10k</text><text x="32.22222222222222" y="0" dx="0em" dy="0.95em" style="text-anchor: middle; visibility: inherit; font-family: &quot;Helvetica Neue&quot;, sans-serif; font-size: 12px; font-weight: 200;" fill="rgb(33, 33, 33)" stroke="none" stroke-width="1px">0</text><text x="64.44444444444444" y="0" dx="0em" dy="0.95em" style="text-anchor: middle; visibility: inherit; font-family: &quot;Helvetica Neue&quot;, sans-serif; font-size: 12px; font-weight: 200;" fill="rgb(33, 33, 33)" stroke="none" stroke-width="1px">10k</text><text x="96.66666666666666" y="0" dx="0em" dy="0.95em" style="text-anchor: middle; visibility: inherit; font-family: &quot;Helvetica Neue&quot;, sans-serif; font-size: 12px; font-weight: 200;" fill="rgb(33, 33, 33)" stroke="none" stroke-width="1px">20k</text><text x="128.88888888888889" y="0" dx="0em" dy="0.95em" style="text-anchor: middle; visibility: inherit; font-family: &quot;Helvetica Neue&quot;, sans-serif; font-size: 12px; font-weight: 200;" fill="rgb(33, 33, 33)" stroke="none" stroke-width="1px">30k</text><text x="161.11111111111111" y="0" dx="0em" dy="0.95em" style="text-anchor: middle; visibility: inherit; font-family: &quot;Helvetica Neue&quot;, sans-serif; font-size: 12px; font-weight: 200;" fill="rgb(33, 33, 33)" stroke="none" stroke-width="1px">40k</text><text x="193.33333333333331" y="0" dx="0em" dy="0.95em" style="text-anchor: middle; visibility: inherit; font-family: &quot;Helvetica Neue&quot;, sans-serif; font-size: 12px; font-weight: 200;" fill="rgb(33, 33, 33)" stroke="none" stroke-width="1px">50k</text><text x="225.55555555555557" y="0" dx="0em" dy="0.95em" style="text-anchor: middle; visibility: inherit; font-family: &quot;Helvetica Neue&quot;, sans-serif; font-size: 12px; font-weight: 200;" fill="rgb(33, 33, 33)" stroke="none" stroke-width="1px">60k</text><text x="257.77777777777777" y="0" dx="0em" dy="0.95em" style="text-anchor: middle; visibility: inherit; font-family: &quot;Helvetica Neue&quot;, sans-serif; font-size: 12px; font-weight: 200;" fill="rgb(33, 33, 33)" stroke="none" stroke-width="1px">70k</text><text x="290" y="0" dx="0em" dy="0.95em" style="text-anchor: middle; visibility: hidden; font-family: &quot;Helvetica Neue&quot;, sans-serif; font-size: 12px; font-weight: 200;" fill="rgb(33, 33, 33)" stroke="none" stroke-width="1px">80k</text></g><line x1="0" y1="0" x2="290" y2="0" fill="rgb(0, 0, 0)" stroke="rgb(204, 204, 204)" stroke-width="1px"></line></g></g></g></g></svg>