<svg viewBox="0 0 330 200" xmlns="http://www.w3.org/2000/svg"><g><g><g><g><g><line x1="30" y1="177" x2="25" y2="177" style="visibility: inherit;" fill="rgb(0, 0, 0)" stroke="rgb(204, 204, 204)" stroke-width="1px"></line><line x1="30" y1="157.33333333333334" x2="25" y2="157.33333333333334" style="visibility: inherit;" fill="rgb(0, 0, 0)" stroke="rgb(204, 204, 204)" stroke-width="1px"></line><line x1="30" y1="137.66666666666669" x2="25" y2="137.66666666666669" style="visibility: inherit;" fill="rgb(0, 0, 0)" stroke="rgb(204, 204, 204)" stroke-width="1px"></line><line x1="30" y1="118" x2="25" y2="118" style="visibility: inherit;" fill="rgb(0, 0, 0)" stroke="rgb(204, 204, 204)" stroke-width="1px"></line><line x1="30" y1="98.33333333333334" x2="25" y2="98.33333333333334" style="visibility: inherit;" fill="rgb(0, 0, 0)" stroke="rgb(204, 204, 204)" stroke-width="1px"></line><line x1="30" y1="78.66666666666666" x2="25" y2="78.66666666666666" style="visibility: inherit;" fill="rgb(0, 0, 0)" stroke="rgb(204, 204, 204)" stroke-width="1px"></line><line x1="30" y1="59" x2="25" y2="59" style="visibility: inherit;" fill="rgb(0, 0, 0)" stroke="rgb(204, 204, 204)" stroke-width="1px"></line><line x1="30" y1="39.33333333333334" x2="25" y2="39.33333333333334" style="visibility: inherit;" fill="rgb(0, 0, 0)" stroke="rgb(204, 204, 204)" stroke-width="1px"></line><line x1="30" y1="19.666666666666686" x2="25" y2="19.666666666666686" style="visibility: inherit;" fill="rgb(0, 0, 0)" stroke="rgb(204, 204, 204)" stroke-width="1px"></line><line x1="30" y1="0" x2="25" y2="0" style="visibility: inherit;" fill="rgb(0, 0, 0)" stroke="rgb(204, 204, 204)" stroke-width="1px"></line></g><g transform="translate(20, 0)"><text x="0" y="177" dx="0em" dy="0.3em" style="text-anchor: end; visibility: hidden; font-family: &quot;Helvetica Neue&quot;, sans-serif; font-size: 12px; font-weight: 200;" fill="rgb(33, 33, 33)" stroke="none" stroke-width="1px">-2</text><text x="0" y="157.33333333333334" dx="0em" dy="0.3em" style="text-anchor: end; visibility: inherit; font-family: &quot;Helvetica Neue&quot;, sans-serif; font-size: 12px; font-weight: 200;" fill="rgb(33, 33, 33)" stroke="none" stroke-width="1px">0</text><text x="0" y="137.66666666666669" dx="0em" dy="0.3em" style="text-anchor: end; visibility: hidden; font-family: &quot;Helvetica Neue&quot;, sans-serif; font-size: 12px; font-weight: 200;" fill="rgb(33, 33, 33)" stroke="none" stroke-width="1px">2</text><text x="0" y="118" dx="0em" dy="0.3em" style="text-anchor: end; visibility: inherit; font-family: &quot;Helvetica Neue&quot;, sans-serif; font-size: 12px; font-weight: 200;" fill="rgb(33, 33, 33)" stroke="none" stroke-width="1px">4</text><text x="0" y="98.33333333333334" dx="0em" dy="0.3em" style="text-anchor: end; visibility: hidden; font-family: &quot;Helvetica Neue&quot;, sans-serif; font-size: 12px; font-weight: 200;" fill="rgb(33, 33, 33)" stroke="none" stroke-width="1px">6</text><text x="0" y="78.66666666666666" dx="0em" dy="0.3em" style="text-anchor: end; visibility: inherit; font-family: &quot;Helvetica Neue&quot;, sans-serif; font-size: 12px; font-weight: 200;" fill="rgb(33, 33, 33)" stroke="none" stroke-width="1px">8</text><text x="0" y="59" dx="0em" dy="0.3em" style="text-anchor: end; visibility: hidden; font-family: &quot;Helvetica Neue&quot;, sans-serif; font-size: 12px; font-weight: 200;" fill="rgb(33, 33, 33)" stroke="none" stroke-width="1px">10</text><text x="0" y="39.33333333333334" dx="0em" dy="0.3em" style="text-anchor: end; visibility: inherit; font-family: &quot;Helvetica Neue&quot;, sans-serif; font-size: 12px; font-weight: 200;" fill="rgb(33, 33, 33)" stroke="none" stroke-width="1px">12</text><text x="0" y="19.666666666666686" dx="0em" dy="0.3em" style="text-anchor: end; visibility: hidden; font-family: &quot;Helvetica Neue&quot;, sans-serif; font-size: 12px; font-weight: 200;" fill="rgb(33, 33, 33)" stroke="none" stroke-width="1px">14</text><text x="0" y="0" dx="0em" dy="0.3em" style="text-anchor: end; visibility: hidden; font-family: &quot;Helvetica Neue&quot;, sans-serif; font-size: 12px; font-weight: 200;" fill="rgb(33, 33, 33)" stroke="none" stroke-width="1px">16</text></g><line x1="30" y1="0" x2="30" y2="177" fill="rgb(0, 0, 0)" stroke="rgb(204, 204, 204)" stroke-width="1px"></line></g></g><g transform="translate(30, 0)" clip-path="url(#clip_0)"><clipPath id="clip_0"><rect width="300" height="177"></rect></clipPath><g><g><g><line x1="0" y1="0" x2="0" y2="177" fill="rgb(0, 0, 0)" stroke="rgb(66, 66, 66)" stroke-width="1px" opacity="0.25"></line><line x1="33.33333333333333" y1="0" x2="33.33333333333333" y2="177" fill="rgb(0, 0, 0)" stroke="rgb(66, 66, 66)" stroke-width="1px" opacity="0.25"></line><line x1="66.66666666666666" y1="0" x2="66.66666666666666" y2="177" fill="rgb(0, 0, 0)" stroke="rgb(66, 66, 66)" stroke-width="1px" opacity="0.25"></line><line x1="100" y1="0" x2="100" y2="177" fill="rgb(0, 0, 0)" stroke="rgb(66, 66, 66)" stroke-width="1px" opacity="0.25"></line><line x1="133.33333333333331" y1="0" x2="133.33333333333331" y2="177" fill="rgb(0, 0, 0)" stroke="rgb(66, 66, 66)" stroke-width="1px" opacity="0.25"></line><line x1="166.66666666666669" y1="0" x2="166.66666666666669" y2="177" fill="rgb(0, 0, 0)" stroke="rgb(66, 66, 66)" stroke-width="1px" opacity="0.25"></line><line x1="200" y1="0" x2="200" y2="177" fill="rgb(0, 0, 0)" stroke="rgb(66, 66, 66)" stroke-width="1px" opacity="0.25"></line><line x1="233.33333333333334" y1="0" x2="233.33333333333334" y2="177" fill="rgb(0, 0, 0)" stroke="rgb(66, 66, 66)" stroke-width="1px" opacity="0.25"></line><line x1="266.66666666666663" y1="0" x2="266.66666666666663" y2="177" fill="rgb(0, 0, 0)" stroke="rgb(66, 66, 66)" stroke-width="1px" opacity="0.25"></line><line x1="300" y1="0" x2="300" y2="177" fill="rgb(0, 0, 0)" stroke="rgb(66, 66, 66)" stroke-width="1px" opacity="0.25"></line></g><g><line x1="0" y1="177" x2="300" y2="177" fill="rgb(0, 0, 0)" stroke="rgb(66, 66, 66)" stroke-width="1px" opacity="0.25"></line><line x1="0" y1="157.33333333333334" x2="300" y2="157.33333333333334" fill="rgb(0, 0, 0)" stroke="rgb(66, 66, 66)" stroke-width="1px" opacity="0.25"></line><line x1="0" y1="137.66666666666669" x2="300" y2="137.66666666666669" fill="rgb(0, 0, 0)" stroke="rgb(66, 66, 66)" stroke-width="1px" opacity="0.25"></line><line x1="0" y1="118" x2="300" y2="118" fill="rgb(0, 0, 0)" stroke="rgb(66, 66, 66)" stroke-width="1px" opacity="0.25"></line><line x1="0" y1="98.33333333333334" x2="300" y2="98.33333333333334" fill="rgb(0, 0, 0)" stroke="rgb(66, 66, 66)" stroke-width="1px" opacity="0.25"></line><line x1="0" y1="78.66666666666666" x2="300" y2="78.66666666666666" fill="rgb(0, 0, 0)" stroke="rgb(66, 66, 66)" stroke-width="1px" opacity="0.25"></line><line x1="0" y1="59" x2="300" y2="59" fill="rgb(0, 0, 0)" stroke="rgb(66, 66, 66)" stroke-width="1px" opacity="0.25"></line><line x1="0" y1="39.33333333333334" x2="300" y2="39.33333333333334" fill="rgb(0, 0, 0)" stroke="rgb(66, 66, 66)" stroke-width="1px" opacity="0.25"></line><line x1="0" y1="19.666666666666686" x2="300" y2="19.666666666666686" fill="rgb(0, 0, 0)" stroke="rgb(66, 66, 66)" stroke-width="1px" opacity="0.25"></line><line x1="0" y1="0" x2="300" y2="0" fill="rgb(0, 0, 0)" stroke="rgb(66, 66, 66)" stroke-width="1px" opacity="0.25"></line></g></g></g><g><g><line x1="0" y1="157.33333333333334" x2="300" y2="157.33333333333334" fill="rgb(0, 0, 0)" stroke="rgb(153, 153, 153)" stroke-width="1.5px"></line></g></g><g><g><line x1="33.33333333333333" y1="0" x2="33.33333333333333" y2="177" fill="rgb(0, 0, 0)" stroke="rgb(153, 153, 153)" stroke-width="1.5px"></line></g></g><g><g><g><g><g><path stroke="rgb(255, 112, 67)" stroke-width="2px" d="M33.336666666666666,25.14603869120279L93.43333333333334,114.76542971975492L93.56666666666666,135.75182145233072L93.70333333333333,141.5164117482618L93.95666666666668,143.1373766725194L93.98666666666666,143.71375854513622L94.92333333333333,144.46370676159808L95.00666666666667,144.74988625465897L95.14,144.90036581060667L95.50333333333333,145.11785520307944L95.75666666666667,145.38592900308993L96.06666666666668,145.48034382699097L96.15333333333334,145.52651883941869L96.30333333333334,145.6152304857216L96.66666666666667,145.67588554749707L96.76666666666667,145.72436465088208L96.88000000000001,145.7567539834911L96.99666666666667,145.7531528941052L97.02666666666667,145.7571666445537L97.1,145.74739327580642L97.11333333333333,145.74028655172012L97.2,145.7474251393735L97.25333333333333,145.73216601973192L97.44999999999999,145.7542189954663L97.56666666666668,145.7949264994879L97.59333333333333,145.82691550099278L97.95,145.80375754657234L97.99666666666666,145.78376503870226L98.08666666666667,145.7583604069665L98.14333333333335,145.7064037276727L98.34333333333333,145.5903768803675L98.51333333333334,145.597516777723L98.78,145.64060425982106L98.84666666666666,145.63607484938908L99.15333333333332,145.6464825229586L99.16333333333333,145.6507316632281L99.22,145.66278332364277L99.44666666666667,145.67477765640098L99.67666666666668,145.6305114872314L99.69,145.60951374502739L100.07000000000001,145.60512178742977L100.10333333333334,145.60190568899606L100.57666666666665,145.66633919463015L100.95333333333333,145.7353126751253L101.38333333333333,145.76775446391179L101.64,145.78731996826795L102.58999999999999,145.8114097710406L102.63000000000001,145.82043106839296L102.74666666666667,145.84794838072966L102.97333333333334,145.86347591953844L103.06333333333333,145.87184550770363L103.16,145.892633359323L103.40666666666667,145.93961259777535L104.06666666666668,146.0562210157031L104.14,146.09325545104323L104.15666666666667,146.10934628170006L104.58666666666667,146.16000252633555L104.70666666666666,146.1983814262279L105.26333333333334,146.30234818670837L105.32000000000001,146.34164186199502L105.89999999999999,146.3893977494657L106.02333333333334,146.4223523319206L106.21666666666667,146.46001660494616L106.44666666666666,146.51051324972553L106.72,146.51419348999562L107.14,146.4974926821581L107.19666666666666,146.48862785815695L107.32666666666667,146.48586040151733L107.78333333333333,146.4382911390623L107.96,146.4008953256701L108.13,146.3770510626239L108.26,146.35813152893653L108.77,146.28512574948925L108.89333333333333,146.2479161336729L108.91999999999999,146.23144203055588L109.22,146.2150079055078L109.26333333333334,146.1984454548218L109.35333333333334,146.19320630509537L109.38333333333333,146.18627031177076L109.40333333333334,146.18486787238095L109.43333333333332,146.18804206595627L109.60666666666667,146.1846362147055L109.64666666666666,146.18479843572402L109.65333333333334,146.1846916535199L109.66,146.18447179788606L109.71333333333332,146.18052607522313L109.96,146.1665188114569L109.99333333333333,146.1631539237365L110.07333333333334,146.1655693949988L110.22333333333334,146.1713072640828L110.25999999999999,146.17508607902556L110.31,146.1801506860696L110.42666666666668,146.18142461965775L110.47666666666667,146.1799244879629L110.56666666666668,146.18027464127692L110.64333333333333,146.1830724761416L110.90333333333334,146.14364204081082L111.10333333333332,146.10414332334545L111.22333333333333,146.06879555749185L111.52666666666667,146.03550106318852L111.83666666666667,146.01719343783162L112.28,146.013034544035L112.55999999999999,146.00418457547838L113.10333333333334,145.9987666550617L113.17666666666668,146.0006166269699L113.19666666666667,146.00243297469282L113.34,145.99500918554125L113.62333333333333,145.99296421836718L114.29666666666667,146.00371374245762L114.56333333333333,146.01980690407794L114.80666666666667,146.0298820909911L114.88000000000001,146.03348212049647L115.04333333333332,146.0460553610452L115.18333333333332,146.05432918907272L115.39333333333333,146.07595001511763L115.45666666666666,146.0883435220653L115.52,146.09880418877444L115.52666666666666,146.10379098151856L115.58666666666667,146.1075866994021L115.71333333333334,146.11899349108504L116.00666666666667,146.12896151016687L116.09333333333332,146.1386194980616L116.10333333333332,146.14176354995502L116.14666666666666,146.1457702259199L116.47666666666667,146.14207497369165L116.81,145.44158505551798L116.85666666666667,145.64498670290675L117,146.2102627725167L117.02,146.56964066876256L117.30333333333333,146.38703793751645L117.58666666666667,146.74791859627385L117.72333333333333,146.9726034908476L117.93666666666667,147.2876481216926L118.11,147.47937948163838L118.39666666666666,147.53259019265195L118.67,147.4922271254312L118.85333333333334,147.52253785209533L118.89,147.56654824792332L119.21666666666667,147.68001896949937L119.48666666666668,147.81575881542267L119.92333333333333,148.02862633399215L119.94999999999999,148.08032164576846L120.12666666666667,148.08828179960616L120.32000000000001,147.99839872685754L120.41999999999999,147.99265643206442L120.47333333333333,148.01813317656746L120.50666666666666,148.02690778480851L120.53666666666666,148.02241231806093L120.70333333333333,148.08883562325994L121.01666666666667,148.05749559147597L121.14333333333333,148.0344872230426L121.23,148.02671480539038L121.24666666666667,148.01247423680968L121.33666666666667,147.94460332536903L121.46,147.85710634994143L121.59,147.77365559082017L122.06333333333333,147.64780524293965L122.07666666666667,147.59653799614253L122.13000000000001,147.5336642746284L122.2,147.50564030157688L122.31333333333335,147.49627575647548L122.33333333333334,147.49243192206498L122.41666666666667,147.49882909894683L122.57333333333332,147.51667249260203L123.4,147.53991674324988L123.43666666666667,147.51699735014148L124.01666666666665,147.38512674490914L124.10000000000001,147.35509240801048L124.16333333333334,147.3384154028082L124.26,147.3396669674943L124.64333333333333,147.36686278451444L124.73333333333333,147.39848668525786L124.83333333333333,147.43070036043537L124.98333333333333,147.47731015654884L125.03333333333335,147.48861942533608L125.17666666666666,147.49393084509217L125.41,147.50201273843658L125.48,147.51444320468136L125.60666666666667,147.53708359722924L125.69,147.55487146089962L125.76666666666667,147.57954508940705L126.66666666666667,147.66614742275397L127.11666666666666,147.7246540752218L127.12,147.74777388726824L127.73666666666666,147.74164730207752L127.96333333333334,147.76572952948283L128.14,147.78653951091596L128.25,147.78518493736888L128.26333333333332,147.7908088070081L128.41666666666669,147.801733578116L128.43666666666667,147.79993146670625L128.52333333333334,147.81987467735667L128.80666666666667,147.8858532730274L129.53333333333333,147.95490427037967L129.57666666666665,147.97065187320734L129.61666666666667,147.9894454484319L129.70333333333332,147.99523768731697L129.86,147.9928972160984L130.09333333333333,147.98107922630527L130.09666666666666,147.97628815137656L130.14666666666668,147.9748870263955L130.26333333333332,147.99548053062142L130.32,148.01311900328005L130.37,148.02601439198153L130.55333333333334,148.01832012673924L130.56,148.01529138857484L130.57666666666668,148.0139298383856L130.76666666666665,148.01958242478264L130.85999999999999,148.0308478023523L131,148.04047167075262L131.28333333333333,148.0533019424676L131.34,148.06264135233937L132.17,148.0931249404174L132.32999999999998,148.1157693458737L132.34666666666666,148.1255657078819L132.66,148.1593059329419L132.66666666666669,148.17325313024753L132.68333333333334,148.18337984292265L132.74,148.1865438737385L132.82333333333332,148.18657550171395L133.19666666666666,148.19656411100144L133.47666666666666,146.18832493653278L133.76000000000002,146.45476893159835L133.92000000000002,146.77565954411205L134.06666666666666,147.38904153450056L134.11333333333334,147.5784258676813L134.19666666666666,147.64328930081277L134.31,147.83532886927318L134.37,147.99085418782752L134.37666666666667,148.05802637489413L134.56333333333333,148.14609306976593L134.84333333333333,148.31044962249965L134.88333333333333,148.3600789802135L135.59,148.1570695985709L135.90666666666667,148.13508474931263L136.00333333333333,148.13401113796607L136.05666666666667,148.12770642493822L136.15666666666667,148.154617345571L136.16666666666666,148.16794615196926L136.19333333333333,148.13705496098424L136.45,148.00466740333664L137.17,147.81634249160015L137.27333333333334,147.7836046272745L137.55666666666667,147.81809311646165L137.80333333333334,147.86961604894546L138.36,147.79102429673665L138.83333333333334,147.82399907785495L138.84,147.83628423445833L139.31,147.89314353513913L139.45333333333335,147.95755256188502L139.64333333333332,147.99945319736995L140.46666666666667,148.23213358155314L140.51333333333332,148.3244694469121L140.67,148.364509541559L140.86666666666667,148.35736347774687L140.93333333333334,148.35779588597126L140.94,148.3589277135297L141.10999999999999,148.30711895077843L141.31666666666666,148.27935344184476L141.5,148.29243644719162L141.92666666666668,148.35277767325806L142.10666666666665,148.38113786365648L142.22,148.39363049237838L142.24666666666667,148.40024585938107L142.25,148.4035827336879L142.42333333333335,148.4210910698903L142.53666666666666,148.43285256146524L142.55666666666667,148.43800189514442L142.86,148.44276543511063L143.01333333333332,148.44726310744272L143.43333333333334,148.4992545655335L143.48333333333335,148.52563190142337L143.50666666666666,148.540149719598L143.56666666666666,148.557343638733L143.58333333333334,148.56949541815138L143.71666666666667,148.55123445540195L143.72,148.5458119174796L143.76,148.54441366620358L143.87333333333333,148.55843400821126L144.1,148.55352263476192L144.38333333333335,148.51413520233228L144.48333333333332,148.4861570503869L145.19333333333333,148.46817052899735L145.22,148.45523333203508L145.26666666666668,148.43742052100973L145.41,148.43866803258408L145.44666666666666,148.4388602421041L145.45666666666665,148.4410864450589L145.53,148.43432325804133L145.64666666666668,148.4232781480712L145.95,148.4424685652158L146.82666666666665,148.60555475438753L146.92000000000002,148.66827750674952L147.32999999999998,148.713986399445L147.55,148.72918774701722L147.75,148.72618946667922L148.02333333333334,148.7214104991286L148.07999999999998,148.71760391918937L148.14333333333332,148.71143161516153L148.26333333333332,148.7212679183501L148.40666666666667,148.7237710273312L148.56333333333333,148.73511467187177L148.65666666666667,148.7311467595411L148.71666666666667,148.72907506780248L149.0533333333333,148.77113799085313L149.17333333333332,148.79347977889563L149.26666666666665,148.8130724083517L149.42333333333335,148.8054987357223L149.5,148.79722755016385L149.59,148.79739518403457L149.63666666666666,148.79513209795354L150.04333333333332,148.77014517573934L150.10333333333335,148.76007067618542L150.26666666666668,148.75989496585814L150.3,148.7526380550875L150.33666666666667,148.7500376662299L150.37,148.752124035274L150.42,148.752872161447L151.09,148.76713961791825L151.12666666666667,148.77370495704432L151.29333333333335,148.78278531044006L151.41666666666666,148.79429507245013L151.75666666666666,148.7804129610074L151.99666666666667,148.78722787948536L152.11666666666667,148.8013928863308L152.2,148.8056341492145L152.25333333333333,148.81406458743396L152.29000000000002,148.81789462022695L152.37,148.81927732276162L152.43,148.82031683376673L152.46,148.82367035634024L152.75,148.8454090273246L153.04666666666668,148.84608201218552L153.11666666666667,148.84721679287165L153.41333333333336,148.84719702438423L153.56666666666666,148.8429599680017L153.94,148.84977226304923L154.1966666666667,148.84087000185735L154.21666666666667,148.83869739712765L154.85333333333332,148.86572532345497L154.95666666666668,148.8826035294803L155.00666666666666,148.87257232565315L155.06,148.8597917491595L155.14,148.84223336071332L155.27333333333334,148.8317744716312L155.33,148.8270038207145L155.47333333333333,148.83448704754477L155.67333333333332,148.83465856210825L155.67666666666665,148.83496643242438L155.76333333333332,148.83202766249656L156.79333333333335,148.78104661084788L156.93333333333334,148.73613796070035L157.25,148.67610618083387L157.88333333333333,148.6047968133507L158.09,148.58991609741642L158.09333333333333,148.58498894181082L158.14666666666668,148.5868360462017L158.26333333333335,148.58301280003914L158.34333333333333,148.57379629659331L158.38333333333333,148.56690845994555L158.39333333333332,148.56328753227558L158.66666666666666,148.56065581537302L158.68666666666667,148.56095581688894L158.75333333333333,148.563787079553L159.1,148.5487511890586L159.14333333333335,148.53572716133507L159.19333333333333,148.5267416894247L159.58666666666664,148.53034585816965L159.65,148.53175219200756L159.77333333333334,148.5274230524946L160.10666666666665,148.5282795877797L160.39333333333335,148.5519648388836L160.5366666666667,148.5616062849732L160.73333333333335,148.56405166964132L160.89666666666668,148.55203103140835L160.93,148.54378956071818L161.20333333333332,148.5150990508197L161.51,148.4956488843364L161.66666666666666,148.467180037796L161.73000000000002,148.44796635023684L161.80666666666667,148.43375090106184L161.85666666666668,148.41705404301987L161.87333333333333,148.4078556974916L162.22,148.35665215753204L162.78333333333336,148.29751531438512L163.47333333333333,148.2212334809414L163.55333333333334,148.18837286296136L164.54,148.0823482393808L164.69000000000003,148.04249735053867L164.69666666666666,148.0269945257149L164.87666666666667,148.00668209890856L164.90333333333334,148.0025652175806L165.07666666666668,147.98839759721028L165.60666666666665,147.9297915969907L166.49,147.87011932340621L166.55,147.84624319044437L166.82666666666665,147.82722083981042L167.02666666666667,147.8118094398891L167.18333333333334,147.7959961870238L167.33666666666667,147.7670002343563L167.88,147.7073401362938L168.10666666666668,147.6634860314631L168.53666666666666,147.6275486004712L168.55999999999997,147.61580032111328L168.63000000000002,147.61282711580802L168.82,147.59887447053913L169.14333333333335,147.58528113329982L169.31333333333333,147.57450385964978L169.4,147.57244892615208L169.44333333333336,147.57239671543059L169.50333333333333,147.5724267864536L170.20333333333332,147.5448073921674L170.29666666666668,147.5330005083975L170.39333333333335,147.52716802979424L170.41,147.52532575473282L170.64999999999998,147.52685142730633L170.90666666666667,147.52886464336376L171.37666666666667,147.52187968195165L171.38000000000002,147.51915747889626L171.56333333333333,147.522034188495L171.59333333333333,147.52315750722175L171.84,147.5272256889094L171.97,147.53187746621415L172.47,147.55419421094948L172.56666666666666,147.5704850113181L172.72666666666666,147.58327259077257L172.89666666666665,147.59904818143022L172.95000000000002,147.6010397968991L173.00333333333333,147.60031969551054L173.07,147.59891723925261L173.41,147.61443705377033L173.44333333333333,147.6207162574552L173.81666666666666,147.6286917479835L173.95,147.6373924548905L174.07666666666665,147.64201562612757L174.34666666666666,147.64582600597012L174.49666666666667,147.6524265889552L174.52,147.6573201121631L174.70666666666665,147.6570197995639L174.77,147.65962636485594L175.10999999999999,147.66395381808715L175.13333333333333,147.66375096209805L175.22333333333333,147.6579814286759L175.67333333333332,147.63161007022674L175.94333333333333,147.61078409926466L176.04333333333332,147.6026544945476L176.14999999999998,147.59803544805635L176.17333333333335,147.59621067244865L176.25333333333333,147.59450587124286L176.32,147.59151282369186L176.64,147.59640392067598L176.69,147.59921713592547L176.69666666666666,147.60022795569407L176.74999999999997,147.60328405415615L177.05333333333334,147.60055415253038L177.36666666666667,147.60981319515278L177.4,147.61663616743144L177.5633333333333,147.62688430008248L178.48999999999998,147.66753223069298L178.89666666666665,147.68718661276145L179.13,147.69922263919105L179.19000000000003,147.70461621226926L179.24,147.70845731074462L179.39666666666668,147.7113986536942L179.8,147.72185381880948L179.80333333333334,147.72553150261953L179.95333333333332,147.72175599165772L180.13000000000002,147.7270786829315L180.15,147.72957229362385L180.19,147.7338183228419L180.27666666666667,147.7383883750488L180.28333333333333,147.74017182031852L180.39666666666665,147.7482347691501L180.54,147.7503998864812L180.64333333333335,147.7534719980786L180.79666666666668,147.76390604020315L181.04000000000002,147.77898374425394L181.09333333333333,147.78805334779486L181.57666666666665,147.81471478229457L181.69333333333333,147.821877038124L181.92000000000002,147.82898423459093L182.15333333333334,147.8419957168984L182.37666666666667,147.85748308384933L182.42333333333335,147.86337230793487L182.6,147.87357773974563L183.05666666666667,147.8958220934588L183.07,147.90519776675475L183.07666666666665,147.90925296796044L183.3133333333333,147.9207902004642L183.64333333333335,147.93669671663324L183.69333333333333,147.94618086317945L183.85666666666668,147.95321551749524L183.9,147.9566391833935L183.9033333333333,147.9582297395502L184.00333333333333,147.96459064087813L184.30999999999997,147.98682072171135L184.6,148.01033742580935L184.87666666666667,148.02875479806715L185.14,148.03429844064988L185.17666666666668,148.0370852141129L185.57666666666665,148.05790987713334L185.71666666666667,148.06971541168954L185.87,148.08052085702394L186.49,148.0993357220356L187.02666666666667,148.12710336287404L187.06666666666666,148.1385303931976L187.26,148.15077275590141L187.30999999999997,148.15649323630288L187.38333333333333,148.16156275633278L187.6,148.16751866346206L187.61999999999998,148.169659073244L187.8033333333333,148.1803098274847L187.85,148.18677135890292L187.87666666666667,148.19081766022973L188.1233333333333,148.20160616506152L188.45333333333332,148.2072072477161L188.76999999999998,148.210468675854L188.79666666666668,148.21287240827996L188.91666666666666,148.2161938854495L189.01333333333332,148.21982949729565L189.37333333333333,148.23892480478554L189.51333333333332,148.24679713175937L189.77333333333334,148.2543585272141L190.25333333333333,148.27156242202722L190.34666666666666,148.27976043842153L190.48666666666668,148.28641051257648L190.55666666666667,148.29388642946705L190.76333333333332,148.3045292030626L190.79666666666668,148.30667014586544L190.84,148.310817597992L190.86666666666667,148.31446438925533L191.23666666666668,148.32585143558612L191.41333333333333,148.33514641520418L191.51,148.34301270242452L191.7733333333333,148.34690553502747L192.32333333333332,148.34934954542047L192.34,148.35072507276948L192.72666666666666,148.35942741162984L192.8,148.364919477587L193.2433333333333,148.3570623927991L193.43666666666667,148.35697735670144L193.49,148.35831296839189L193.79333333333332,148.3568986200315L193.8733333333333,148.35913503604164L194.05333333333334,148.36587757129985L194.16666666666669,148.3709635916325L194.17333333333332,148.3733108962362L194.48666666666668,148.3829857548124L194.70000000000002,148.3910736942904L194.78333333333333,148.39612861674877L194.79666666666668,148.39781176456486L195.10333333333332,148.40625978627966L195.17333333333335,148.41190392179783L195.27333333333334,148.41726565189435L195.43666666666667,148.42185400542573L195.73333333333335,148.42398728187072L195.76333333333335,148.4247301983649L196.32333333333335,148.44468045103076L196.33666666666667,148.45271074992067L196.35666666666665,148.4565983150492L196.5533333333333,148.46450811882247L196.73000000000002,148.4721725168297L196.74,148.47581189628454L196.86333333333332,148.48012181446893L197.11666666666665,148.46310633777549L197.34666666666666,148.46451386855068L197.79,148.47555216110547L197.87666666666667,148.48043603841694L197.95000000000002,148.48232807494844L198.08,148.48490711638172L198.20999999999998,148.48940949752853L198.21333333333334,148.4911165096556L198.42,148.4968939084054L198.6566666666667,148.50645000748415L198.66666666666669,148.51005522076878L198.67000000000002,148.51149506000257L198.82,148.51521763899987L198.89666666666665,148.5164959891653L198.96333333333334,148.51854435765404L199.48333333333335,148.5276087762886L199.66,148.53314591093067L199.70666666666668,148.53559609015554L199.98333333333335,148.54223986285245L200.22,150.7548421177101L200.40333333333334,151.32331952629326L200.45666666666668,151.18518609394542L200.48333333333332,151.1496498062245L200.94666666666666,150.8493003590923L201.2,150.40152857453305L201.61333333333334,149.9370604431033L201.62666666666667,149.77498808910656L201.67000000000002,149.68697683309244L201.78333333333336,149.66046224174474L202.14,149.73386533901308L202.18333333333334,149.7739655575504L202.41666666666666,149.94182435502537L202.48333333333335,150.06758663110855L202.56666666666666,150.12593523357626L202.57333333333332,150.14651006950365L202.82666666666665,150.19429288263223L202.88666666666668,150.2478426426511L202.9,150.2653997401793L202.99666666666667,150.2782471900727L203.05333333333334,150.285170341663L203.07666666666665,150.292147464229L203.13666666666666,150.26544884893872L203.21,150.21933317765152L203.25333333333333,150.20540359987183L203.36333333333334,150.21162542860984L203.38333333333333,150.22157151961193L203.51666666666668,150.20206146825663L203.60333333333335,150.2015159993579L203.86333333333332,150.1595797438186L203.94666666666666,150.07891759574892L204.09,149.93808427090124L204.18666666666667,149.81875180295762L204.85999999999999,149.9511895849154L204.89333333333335,149.99282378419772L204.91000000000003,149.9853596341069L204.91333333333333,149.98428323827994L204.98333333333332,149.9637501329822L205,149.9539357432807L205.68666666666667,149.91737934120653L205.7,149.90981734714288L206.02333333333334,149.93760400246882L206.05666666666667,149.95370587139752L206.5066666666667,150.0357328436448L206.5533333333333,150.0756091858259L206.63,150.08491517733916L206.96666666666667,150.10998956616177L207.37333333333333,150.19340454879642L207.50666666666666,150.26381473278286L207.57999999999998,150.30333577603477L208.24666666666667,150.39123401874093L208.63,150.43758593757286L208.94,150.50082458831028L209.51666666666665,150.58519863479995L209.60333333333332,150.58956842599994L210.61333333333334,150.55012705785256L210.68333333333334,150.54314667160025L210.87666666666667,150.50687696848084L210.96666666666667,150.49337762772566L211.03666666666666,150.49299321373826L211.28333333333333,150.51330501141342L211.29000000000002,150.51993202622037L211.4,150.50640291637364L211.50333333333333,150.44614078003323L211.51,150.42423070197628L211.59333333333333,150.39754592641935L211.67000000000002,150.38604630998404L212.04333333333332,150.36956882680104L212.1,150.36276068264937L212.32999999999998,150.36302501356369L212.43666666666667,150.36982150275958L212.73,150.364308882761L212.89333333333332,150.34923321156492L213.03333333333333,150.3457924761803L213.04999999999998,150.34208877111746L213.35333333333335,150.33038543926898L213.40333333333334,150.30876188489336L213.42333333333332,150.29449307689643L213.44666666666666,150.2790324827124L213.73333333333332,150.2019365042083L213.81,150.16975607146978L214.39666666666668,150.0843916286986L214.50333333333336,150.04757980041063L214.59,150.0257682864796L214.7133333333333,150.0237132295171L214.74666666666667,150.01991347985793L215.08333333333334,150.01306220485594L215.09,150.01081085097536L215.22333333333333,150.01618183206008L215.38666666666668,149.98763267513044L215.96,149.82364574740643L215.98666666666668,149.76357390924954L216.04999999999998,149.7356812493235L216.08333333333334,149.71774640249453L216.09333333333333,149.71116854798836L216.11,149.7081818176706L216.39666666666665,149.67321422716884L216.57666666666668,149.6212071400149L216.90333333333334,149.57153187496075L217.02,149.53121430159064L217.25,149.51621850694582L217.45333333333332,149.48887082823472L217.45666666666668,149.4782186269189L217.75333333333333,149.4517529370477L218.13666666666666,149.39865530432888L218.18666666666667,149.37336480095084L218.79999999999998,149.36418550042356L218.91333333333333,149.36354416367647L219.18333333333334,149.36936807137124L219.3033333333333,149.37794556114085L219.82,149.38789024080782L219.83,149.38972650702766L219.87,149.38565478179484L219.98999999999998,149.3807210863687L220.22333333333336,149.37683458333075L220.23666666666668,149.37551054378125L220.42666666666668,149.37823770555076L221.09666666666666,149.39015887489876L221.33,149.401173636352L221.75333333333336,149.40429855598785L222.09666666666666,149.41231966801513L222.51333333333332,149.40790870232016L222.9,149.39091756176512L223.74666666666667,149.40509942287724L223.96333333333334,149.40604633347988L224.32333333333332,149.40929757554065L224.34333333333333,149.410910798704L224.83999999999997,149.42049152623844L225.58,149.4471951146374L226.26,149.49264341906698L226.28666666666666,149.50918106134074L226.48333333333332,149.52321547768312L226.54666666666668,149.52888291312414L226.74,149.53414930909975L227.01000000000002,149.54733337867944L227.29666666666665,149.55434217832158L227.56333333333333,149.56365250399023L227.57,149.5670786864595L228.02666666666667,149.5943960794775L228.30666666666667,149.62133504722252L228.79000000000002,149.64065765015695L228.81,149.6467944619599L228.83333333333334,149.64807305387689L228.86,149.65025698461127L229.07666666666665,149.65846685500014L229.15333333333334,149.66893946419L229.43,149.68524976691396L229.44,149.6913619488387L229.47,149.6934056880292L229.71666666666667,149.70329019335995L230.01333333333335,149.6817266696836L230.17333333333332,149.67887522104016L230.23666666666668,149.68183688037357L230.30666666666667,149.68851623768765L230.37666666666667,149.6864295946045L230.48333333333332,149.6893268845942L230.52333333333334,149.69182436502976L230.95000000000002,149.6983692820917L231.0233333333333,149.70072654140577L231.07,149.70249804096613L231.07333333333332,149.70219632026132L231.14333333333335,149.70083008019478L231.19666666666666,149.70288977707474L231.68666666666667,149.70297461748166L231.73333333333335,149.70590859865163L231.94333333333333,149.71226484893242L232.05333333333334,149.7111760714277L232.21333333333334,149.71218216345687L232.26,149.71415758260073L232.36333333333334,149.7088585774771L232.39333333333335,149.70770527705005L232.5233333333333,149.70500136207863L232.72666666666666,149.71241047187482L232.92,149.72395819767712L233.17666666666668,149.73805676515605L233.19,149.74016760349008L233.28,149.73746709634167L233.69,149.74592588481698L234.27666666666664,149.7713218918954L234.33,149.78210546815424L234.50666666666666,149.7766595263687L234.73666666666668,149.7874491150661L234.84,149.79271935194248L234.86666666666665,149.7968347642906L235.12333333333333,149.80354370668945L235.15333333333334,149.8076308129065L235.3033333333333,149.8133706844458L235.53,149.80893469947202L236.62333333333333,149.83310438191526L237.09,149.84491344341046L237.16,149.85307657204737L237.26000000000002,149.85776517069513L237.30333333333334,149.859939874965L237.35666666666668,149.86358306233257L237.38,149.86693749219L237.66666666666669,149.87411192210797L237.81666666666666,149.88213280112132L237.88000000000002,149.8826780892289L237.99666666666667,149.88065705771842L238.41,149.86700766630562L238.86666666666667,149.8706896477627L238.94,149.87229000393506L238.97333333333336,149.87552927558963L239.09,149.87214680565646L239.24,149.87540294413205L239.27666666666667,149.87710616146344L239.82666666666668,149.8996943504265L239.83333333333331,149.9077626254447L240.02666666666664,149.91151220187496L240.08333333333331,149.9153036977699L240.16333333333333,149.91735752017652L240.19666666666666,149.91570808446252L240.32000000000002,149.91734322243812L240.39333333333332,149.91838145486383L240.57,149.92509977439673L240.81666666666666,149.9293637397703L240.83999999999997,149.93215461262346L240.96666666666664,149.93837265447996L241.64,149.95624594227294L241.86333333333334,149.96415011289292L242.07333333333335,149.9706944220656L242.12333333333333,149.97450966597486L242.46,149.97633023853822L242.47,149.97660358493962L242.69666666666666,149.9705400334506L243.09333333333333,149.9633641712217L243.24333333333334,149.96352108209405L244,149.97572598119092L244.23333333333335,149.96960672542176L244.52666666666667,149.97247357009573L244.68666666666667,149.97600911717745L244.89666666666665,149.97539290687754L244.93333333333334,149.97396100604513L245.96333333333334,149.95357206688377L246.36333333333334,149.9477364387364L246.39000000000001,149.94654991414959L246.51,149.95068945257054L246.76666666666668,149.95967415750414L246.79666666666668,149.96319698139868L247.50666666666666,149.96534552845725L248.07999999999998,149.9720243561345L248.16333333333333,149.97439476341492L248.21666666666664,149.97312215247777L248.68666666666667,149.9697695223177L248.73666666666665,149.96891613273868L248.84,149.96968173832897L249.18333333333334,149.97443257094113L249.34333333333333,149.9752406376804L249.51333333333332,149.98063744379527L249.63666666666666,149.98774673009723L249.82,149.99395996654684L249.82666666666668,149.99637927565473L249.88,149.99916565883186L250.06333333333333,150.0026364802403L250.79666666666668,150.00258171412997L250.82333333333335,150.00320150421643L250.83666666666667,150.0035486865322L251.01666666666668,150.00706784095587L251.35,150.01267521853916L251.93,150.0221733538868L252.18333333333334,150.02932476851595L252.29333333333335,150.03254020170806L252.36666666666667,150.03476338619092L252.45666666666665,150.03707585585562L253.5,150.06180613325182L253.93,150.06798810254975L254.01,150.07220815007267L254.23000000000002,150.068221946759L254.33666666666667,150.0611146645984L254.50000000000003,150.058369028806L254.51333333333335,150.0566422346804L255.88666666666668,150.07873176448587L256.06,150.08801073147117L256.7033333333333,150.0975340802902L256.93,150.10064164308642L256.99,150.10379387071129L257.38,150.1109972188631L257.39666666666665,150.1142699424686L257.46666666666664,150.1112056155558L257.46999999999997,150.11024903511384L257.48333333333335,150.1095809238475L257.62,150.11016702761475L257.68333333333334,150.1123665429178L258.18333333333334,150.1187357100659L258.19,150.12119220826793L258.4,150.12909477158215L258.40999999999997,150.1315787400742L258.7266666666667,150.141257330484L258.8533333333333,150.1434617007951L259.18666666666667,150.14396259598837L259.32666666666665,150.14683033889244L259.66333333333336,150.14934271515392L259.84,150.15297330661076L259.97,150.1534897224492L260.04,150.15394060207217L260.3666666666667,150.16347707135853L260.37666666666667,150.16744209056628L260.45666666666665,150.17134162540057L260.55333333333334,150.17114075626444L260.78,150.16936917559318L260.81,150.16867825906917L261.71,150.18616981973577L262.04333333333335,150.18784651765893L262.06,150.18848084328104L262.14,150.1903696956227L262.68,150.18257115917666L262.69666666666666,150.17823187403482L262.7733333333333,150.17576410428484L263.0466666666666,150.17669040650495L263.19,150.17714462739212L263.34666666666664,150.17870981983964L263.59333333333336,150.18429923603742L263.68666666666667,150.18897106717705L263.7866666666667,150.19414650432068L263.99,150.19358509696133L264.01666666666665,150.1932826717651L264.0266666666667,150.19288198512635L264.22666666666663,150.19407707603844L264.2766666666667,150.196631368205L264.39666666666665,150.2010249712714L264.54333333333335,150.20368600356645L264.61333333333334,150.20765036265894L264.68,150.2110725200783L264.93666666666667,150.2171614536308L265.12,150.22014241994043L265.1433333333333,150.22042135041877L265.43,150.21151004462743L265.43333333333334,150.20813050417797L265.73333333333335,150.2051629790691L265.92,150.20557116301805L266.02666666666664,150.20771355339548L266.5,150.20747649338506L266.62,150.20842872459025L266.7866666666667,150.21161342730514L266.88,150.21475063796532L266.93,150.2151078119678L267.1066666666667,150.220327015887L267.75666666666666,150.23193516493058L268.05333333333334,150.23966952734668L268.25333333333333,150.24329052641312L268.2933333333333,150.24498623331513L268.47,150.24448378396875L268.68666666666667,150.2430468832174L269.1,150.24537853401625L269.4533333333333,150.2480930985076L269.52333333333337,150.25199325605115L269.73,150.2528473761103L269.7866666666667,150.25366901836236L269.84,150.2536611238194L269.8666666666667,150.2543787853779L269.9866666666667,150.25776482198182L270.1166666666667,150.26111248224322L270.23333333333335,150.26191492987286L270.49666666666667,150.26666208948794L270.6933333333333,150.26754064658112L270.85,150.2699887084372L270.88666666666666,150.27016021922267L270.9633333333333,150.27106022866556L271.0733333333333,150.27424820131733L271.07666666666665,150.27559939072864L271.11333333333334,150.276305462588L271.2733333333333,150.27975649468027L271.2766666666667,150.28115568939498L271.47666666666663,150.28202108427917L271.5933333333333,150.28489756100413L271.9266666666667,150.28160523536064L272.0733333333333,150.28096962431295L272.18333333333334,150.28058652065812L272.2366666666667,150.27937592212015L272.26,150.27858085356587L273.00666666666666,150.2856840357849L273.1166666666667,150.29110601981174L273.18,150.29413831716266L273.24,150.29378243304495L273.34000000000003,150.2957456831761L273.5,150.29956440091027L273.6933333333333,150.3016419299976L274.03,150.30293095869976L274.13666666666666,150.30396828635088L274.32666666666665,150.30497403649485L274.50333333333333,150.3066664730352L274.79333333333335,150.30976926715346L275.03,150.31029066525278L275.05333333333334,150.31108837549954L276.03000000000003,150.30776417024086L276.1033333333333,150.30616525545724L276.25,150.30571749774893L276.66,150.308302253171L276.84333333333336,150.31264370449856L276.85999999999996,150.31388518304124L277.10333333333335,150.31479275612065L277.15,150.31547275420658L277.22666666666663,150.31640204535296L277.50666666666666,150.32069715204264L277.8666666666667,150.32617202565058L278.33,150.3326517899853L278.92333333333335,150.33966507667384L279.18,150.34226809935012L279.26666666666665,150.34456661560762L279.4833333333333,150.35155140444436L279.9433333333333,150.3608678534225L279.97,150.3652989274191L279.99,150.3672754244172L280.5833333333333,150.37495217063025L280.73333333333335,150.37821233822274L281.09333333333336,150.378635978023L281.34,150.37958707460933L281.3566666666667,150.38014599604355L281.37333333333333,150.38072739424183L281.9066666666667,150.3858177853563L282.09666666666664,150.38974064016566L282.49666666666667,150.39485782176098L282.8566666666667,150.39748409860624L283.14666666666665,150.3980626925106L283.1666666666667,150.3990774187903L283.2,150.39961899729698L283.3333333333333,150.40149558345902" style="fill: none;" fill="none"></path></g></g></g></g><g opacity="0.2"><g><g><g><path stroke="rgb(255, 112, 67)" stroke-width="2px" d="M33.336666666666666,25.14603869120279L93.43333333333334,147.47650744517645L93.56666666666666,146.2077664732933L93.70333333333333,144.6687902013461L93.95666666666668,144.05257513125738L93.98666666666666,144.04291834433874L94.92333333333333,144.89376004536948L95.00666666666667,144.9142411549886L95.14,144.98683468500772L95.50333333333333,145.2428544163704L95.75666666666667,145.54001220067343L96.06666666666668,145.53461293379465L96.15333333333334,145.553060233593L96.30333333333334,145.66622211535773L96.66666666666667,145.71075024207434L96.76666666666667,145.75223058462143L96.88000000000001,145.7753714720408L96.99666666666667,145.75108297665915L97.02666666666667,145.75947376092276L97.1,145.7417755126953L97.11333333333333,145.73620158433914L97.2,145.75152842203775L97.25333333333333,145.72339502970377L97.44999999999999,145.76689511537552L97.56666666666668,145.8183253010114L97.59333333333333,145.84530287981033L97.95,145.7904462814331L97.99666666666666,145.77227328221002L98.08666666666667,145.7437577446302L98.14333333333335,145.67653886477152L98.34333333333333,145.5236842830976L98.51333333333334,145.60162081321081L98.78,145.66537108023962L98.84666666666666,145.63347133000693L99.15333333333332,145.6524648865064L99.16333333333333,145.65317408243814L99.22,145.66971065600714L99.44666666666667,145.6816720366478L99.67666666666668,145.60506715377173L99.69,145.5974441766739L100.07000000000001,145.60259727636972L100.10333333333334,145.6000570654869L100.57666666666665,145.7033757766088L100.95333333333333,145.77495884895325L101.38333333333333,145.7864021062851L101.64,145.7985662817955L102.58999999999999,145.8252566655477L102.63000000000001,145.82561653852463L102.74666666666667,145.8637654185295L102.97333333333334,145.87240119775137L103.06333333333333,145.8766563733419L103.16,145.9045822819074L103.40666666666667,145.96661641200384L104.06666666666668,146.1232479015986L104.14,146.1145429611206L104.15666666666667,146.11859534184137L104.58666666666667,146.18911989529929L104.70666666666666,146.22044173876444L105.26333333333334,146.3621086080869L105.32000000000001,146.3642279903094L105.89999999999999,146.41684798399606L106.02333333333334,146.44129472970963L106.21666666666667,146.4816661477089L106.44666666666666,146.53953888018927L106.72,146.51630890369415L107.14,146.48789300521216L107.19666666666666,146.4835323294004L107.32666666666667,146.48426965872446L107.78333333333333,146.4109481771787L107.96,146.3794000943502L108.13,146.3633453051249L108.26,146.3472565213839L108.77,146.2431617975235L108.89333333333333,146.22652792930603L108.91999999999999,146.2219726641973L109.22,146.20556151866913L109.26333333333334,146.1889253060023L109.35333333333334,146.19019482533136L109.38333333333333,146.18228348096213L109.40333333333334,146.18406174580255L109.43333333333332,146.1898666024208L109.60666666666667,146.18267852067947L109.64666666666666,146.1848916808764L109.65333333333334,146.18463027477264L109.66,146.18434542417526L109.71333333333332,146.178258061409L109.96,146.1584673921267L109.99333333333333,146.16121977567673L110.07333333333334,146.1669578154882L110.22333333333334,146.1746054093043L110.25999999999999,146.17725815375647L110.31,146.18306183815002L110.42666666666668,146.18215688069662L110.47666666666667,146.17906220753989L110.56666666666668,146.18047591050467L110.64333333333333,146.1846806804339L110.90333333333334,146.12097730239233L111.10333333333332,146.08143933614096L111.22333333333333,146.04847755034766L111.52666666666667,146.0163632829984L111.83666666666667,146.00667015711466L112.28,146.01064399878183L112.55999999999999,145.9990975856781L113.10333333333334,145.99565241734186L113.17666666666668,146.00167999664941L113.19666666666667,146.00347701708475L113.34,145.9907419681549L113.62333333333333,145.99178876479468L114.29666666666667,146.0098926027616L114.56333333333333,146.02905730406442L114.80666666666667,146.03567334016165L114.88000000000001,146.03555142879486L115.04333333333332,146.05328249931335L115.18333333333332,146.05908501148224L115.39333333333333,146.08837773402533L115.45666666666666,146.0954673488935L115.52,146.1048170129458L115.52666666666666,146.10665740569434L115.58666666666667,146.10976848999658L115.71333333333334,146.12555015087128L116.00666666666667,146.13469115893045L116.09333333333332,146.14417093992233L116.10333333333332,146.14357076088586L116.14666666666666,146.148073275884L116.47666666666667,146.13995093107224L116.81,145.0389412442843L116.85666666666667,145.7619026104609L117,146.53518523772559L117.02,146.77621221542358L117.30333333333333,146.28207731246948L117.58666666666667,146.9553539355596L117.72333333333333,147.10175307591757L117.93666666666667,147.46873676776886L118.11,147.58958727121353L118.39666666666666,147.56317587693533L118.67,147.46902630726495L118.85333333333334,147.53996055324873L118.89,147.59184556206068L119.21666666666667,147.74524229764938L119.48666666666668,147.89378250638643L119.92333333333333,148.15098325411478L119.94999999999999,148.11003627379736L120.12666666666667,148.09285732110342L120.32000000000001,147.94673365354538L120.41999999999999,147.98935574293137L120.47333333333333,148.0327772895495L120.50666666666666,148.03195145726204L120.53666666666666,148.01982830961546L120.70333333333333,148.1270159482956L121.01666666666667,148.03948124249777L121.14333333333333,148.0212619403998L121.23,148.02224719524384L121.24666666666667,148.0042887131373L121.33666666666667,147.9055909117063L121.46,147.80681281288466L121.59,147.72568783164024L122.06333333333333,147.5754660665989L122.07666666666667,147.56706942121187L122.13000000000001,147.4975242614746L122.2,147.4895320336024L122.31333333333335,147.49089298645654L122.33333333333334,147.49022247393927L122.41666666666667,147.5025062163671L122.57333333333332,147.52692893147469L123.4,147.55327761173248L123.43666666666667,147.50382321079573L124.01666666666665,147.3093271056811L124.10000000000001,147.3378285765648L124.16333333333334,147.32882940769196L124.26,147.3403863708178L124.64333333333333,147.3824950257937L124.73333333333333,147.41666420300803L124.83333333333333,147.4492168823878L124.98333333333333,147.50410161415735L125.03333333333335,147.49512002865472L125.17666666666666,147.49698386589685L125.41,147.5066582361857L125.48,147.52158827582994L125.60666666666667,147.55009736617407L125.69,147.56509598096213L125.76666666666667,147.59372756878534L126.66666666666667,147.71592671672502L127.11666666666666,147.7582838833332L127.12,147.76106322805086L127.73666666666666,147.73812572161356L127.96333333333334,147.77957206964493L128.14,147.798501153787L128.25,147.78440632422766L128.26333333333332,147.7940414249897L128.41666666666669,147.80801317095757L128.43666666666667,147.79889560739198L128.52333333333334,147.8313380976518L128.80666666666667,147.92377797762552L129.53333333333333,147.99459500114122L129.57666666666665,147.97970364491144L129.61666666666667,148.00024805466333L129.70333333333332,147.99856708447138L129.86,147.99155190587044L130.09333333333333,147.97428620855013L130.09666666666666,147.97353422641754L130.14666666666668,147.97408165534338L130.26333333333332,148.00731774171194L130.32,148.0232576529185L130.37,148.03342670202255L130.55333333333334,148.01389743884405L130.56,148.0135504603386L130.57666666666668,148.01314721504846L130.76666666666665,148.02283154924712L130.85999999999999,148.0373231768608L131,148.04600350062051L131.28333333333333,148.0606768230597L131.34,148.0680096745491L132.17,148.11064700285593L132.32999999999998,148.12878542145094L132.34666666666666,148.13119668761888L132.66,148.17869992057481L132.66666666666669,148.181270023187L132.68333333333334,148.18920070926347L132.74,148.18836256861687L132.82333333333332,148.18659368157387L133.19666666666666,148.20230559508005L133.47666666666666,145.03398273388544L133.76000000000002,146.60792177915573L133.92000000000002,146.96010847886404L134.06666666666666,147.74161543448767L134.11333333333334,147.68728457887968L134.19666666666666,147.680573006471L134.31,147.94571381807327L134.37,148.08025063077608L134.37666666666667,148.09663715958595L134.56333333333333,148.19671408335367L134.84333333333333,148.4049222866694L134.88333333333333,148.3886060913404L135.59,148.0403791666031L135.90666666666667,148.12244778871536L136.00333333333333,148.13339402278265L136.05666666666667,148.12408245603243L136.15666666666667,148.17008582750955L136.16666666666666,148.17560759186745L136.19333333333333,148.11929860711098L136.45,147.9285706182321L137.17,147.7080927391847L137.27333333333334,147.76478679974875L137.55666666666667,147.83791720867157L137.80333333333334,147.89923159281412L138.36,147.74584951003393L138.83333333333334,147.84295308589935L138.84,147.84334578116736L139.31,147.92582644025484L139.45333333333335,147.99457507332167L139.64333333333332,148.02353781461716L140.46666666666667,148.36587899923325L140.51333333333332,148.37754439314207L140.67,148.38752471407255L140.86666666666667,148.3532558977604L140.93333333333334,148.35804443558058L140.94,148.3595782915751L141.10999999999999,148.2773391107718L141.31666666666666,148.26339373985925L141.5,148.2999565998713L141.92666666666668,148.38746200005212L142.10666666666665,148.3974393904209L142.22,148.4008112947146L142.24666666666667,148.40404839317003L142.25,148.40550077954927L142.42333333333335,148.43115491668382L142.53666666666666,148.43961310386658L142.55666666666667,148.4409617483616L142.86,148.4455035328865L143.01333333333332,148.44984838366508L143.43333333333334,148.52913941939673L143.48333333333335,148.54079367717108L143.50666666666666,148.54849460721016L143.56666666666666,148.56722675760588L143.58333333333334,148.5764802992344L143.71666666666667,148.54073799649873L143.72,148.54269502560297L143.76,148.54360994696617L143.87333333333333,148.56649294495583L144.1,148.55069956183434L144.38333333333335,148.49149518211684L144.48333333333332,148.47007512052855L145.19333333333333,148.4578318198522L145.22,148.44779699047407L145.26666666666668,148.427181661129L145.41,148.4393851061662L145.44666666666666,148.4389707247416L145.45666666666665,148.44236607352892L145.53,148.4304357568423L145.64666666666668,148.41692938407263L145.95,148.45349927743277L146.82666666666665,148.69929720958075L146.92000000000002,148.70433074235916L147.32999999999998,148.74026001493135L147.55,148.73792552947998L147.75,148.72446604569754L148.02333333333334,148.71866353352866L148.07999999999998,148.7154158850511L148.14333333333332,148.707883755366L148.26333333333332,148.72692185640335L148.40666666666667,148.72520982225737L148.56333333333333,148.74163503448167L148.65666666666667,148.7288659910361L148.71666666666667,148.72788425286612L149.0533333333333,148.7953158915043L149.17333333333332,148.8063219090303L149.26666666666665,148.82433431347212L149.42333333333335,148.80114536484083L149.5,148.79247324665388L149.59,148.79749154051146L149.63666666666666,148.79383126894632L150.04333333333332,148.75578261415163L150.10333333333335,148.75427982211113L150.26666666666668,148.7597939670086L150.3,148.74846675992012L150.33666666666667,148.74854295452437L150.37,148.75332328677177L150.42,148.75330218672752L151.09,148.7753405968348L151.12666666666667,148.7774787346522L151.29333333333335,148.7880047261715L151.41666666666666,148.8009109199047L151.75666666666666,148.77243347962698L151.99666666666667,148.79114511609077L152.11666666666667,148.80953497687975L152.2,148.80807204047838L152.25333333333333,148.81891042987505L152.29000000000002,148.82009613513947L152.37,148.82007210453352L152.43,148.82091434796652L152.46,148.82559797167778L152.75,148.85790448387465L153.04666666666668,148.8464688460032L153.11666666666667,148.84786906838417L153.41333333333336,148.8471856613954L153.56666666666666,148.84052449464798L153.94,148.8536879916986L154.1966666666667,148.83575295408568L154.21666666666667,148.83744857708612L154.85333333333332,148.88126106063524L154.95666666666668,148.89230517546335L155.00666666666666,148.86680635809898L155.06,148.85244543353716L155.14,148.83214074373245L155.27333333333334,148.8257626692454L155.33,148.82426163554192L155.47333333333333,148.83878842989603L155.67333333333332,148.8347571492195L155.67666666666665,148.83514339725176L155.76333333333332,148.83033844828606L156.79333333333335,148.75174254179L156.93333333333334,148.71032432715097L157.25,148.6415997246901L157.88333333333333,148.56380796432495L158.09,148.581362615029L158.09333333333333,148.58215679725012L158.14666666666668,148.58789776762328L158.26333333333335,148.5808151861032L158.34333333333333,148.5684986213843L158.38333333333333,148.56294930974641L158.39333333333332,148.5612062116464L158.66666666666666,148.55914309620857L158.68666666666667,148.56112825870514L158.75333333333333,148.56541449824968L159.1,148.54010851184526L159.14333333333335,148.52824090917906L159.19333333333333,148.52157681186995L159.58666666666664,148.53241754571596L159.65,148.532560557127L159.77333333333334,148.52493464946747L160.10666666666665,148.52877192695937L160.39333333333335,148.56557919581732L160.5366666666667,148.56714821855226L160.73333333333335,148.56545728445053L160.89666666666668,148.54512153069177L160.93,148.53905233740807L161.20333333333332,148.49860765536627L161.51,148.48446886738142L161.66666666666666,148.45081605513892L161.73000000000002,148.4369222621123L161.80666666666667,148.42557981610298L161.85666666666668,148.40745663642883L161.87333333333333,148.4025684595108L162.22,148.3272202014923L162.78333333333336,148.26352327068648L163.47333333333333,148.17738644282022L163.55333333333334,148.1694844762484L164.54,148.02140495181084L164.69000000000003,148.01959093411764L164.69666666666666,148.0180834531784L164.87666666666667,147.9950064520041L164.90333333333334,148.00019882122675L165.07666666666668,147.98025400439897L165.60666666666665,147.89610468347868L166.49,147.83581951260567L166.55,147.8325191140175L166.82666666666665,147.81628673275313L167.02666666666667,147.80295091867447L167.18333333333334,147.78690667947134L167.33666666666667,147.75033326943716L167.88,147.67304732402167L168.10666666666668,147.63827855388323L168.53666666666666,147.6068916519483L168.55999999999997,147.6090473731359L168.63000000000002,147.61111810803413L168.82,147.59085444609323L169.14333333333335,147.577467640241L169.31333333333333,147.56830904881159L169.4,147.5712677439054L169.44333333333336,147.57236670454344L169.50333333333333,147.57244407137236L170.20333333333332,147.52893167734146L170.29666666666668,147.52621387441954L170.39333333333335,147.52381550272307L170.41,147.52426680922508L170.64999999999998,147.52772838870683L170.90666666666667,147.5300218462944L171.37666666666667,147.51786470413208L171.38000000000002,147.5175927480062L171.56333333333333,147.52368773023287L171.59333333333333,147.52380319436392L171.84,147.52956409255663L171.97,147.53455132246017L172.47,147.5670219461123L172.56666666666666,147.57984901467958L172.72666666666666,147.59062293171883L172.89666666666665,147.60811604062715L172.95000000000002,147.60218458374342L173.00333333333333,147.59990577896437L173.07,147.59811110297838L173.41,147.62335789203644L173.44333333333333,147.62432556351027L173.81666666666666,147.63327608505884L173.95,147.64239364862442L174.07666666666665,147.64467303951582L174.34666666666666,147.64801622430483L174.49666666666667,147.65622062484422L174.52,147.66013292471567L174.70666666666665,147.656847178936L174.77,147.66112462679544L175.10999999999999,147.66644125183424L175.13333333333333,147.66363435983658L175.22333333333333,147.6546650826931L175.67333333333332,147.6164517303308L175.94333333333333,147.59881326556206L176.04333333333332,147.59798157215118L176.14999999999998,147.59538040558496L176.17333333333335,147.59516178568205L176.25333333333333,147.5935259461403L176.32,147.58979241053262L176.64,147.5992153386275L176.69,147.6008341809114L176.69666666666666,147.60080897808075L176.74999999999997,147.60504070917764L177.05333333333334,147.59898499647775L177.36666666666667,147.61513532201448L177.4,147.62055803338686L177.5633333333333,147.6327749590079L178.48999999999998,147.69089678923288L178.89666666666665,147.69848401347795L179.13,147.70614098509154L179.19000000000003,147.70771645506224L179.24,147.71066518624625L179.39666666666668,147.71308934688568L179.8,147.72786348064741L179.80333333333334,147.72764544685683L179.95333333333332,147.71958581606546L180.13000000000002,147.73013818264008L180.15,147.73100562890372L180.19,147.73625895380974L180.27666666666667,147.7410152554512L180.28333333333333,147.7411969502767L180.39666666666665,147.75286937753359L180.54,147.7516444027424L180.64333333333335,147.7552378575007L180.79666666666668,147.7699035604795L181.04000000000002,147.78765045603117L181.09333333333333,147.79326658447584L181.57666666666665,147.83003985881805L181.69333333333333,147.82599392533302L181.92000000000002,147.83306947350502L182.15333333333334,147.84947475790977L182.37666666666667,147.86638527115187L182.42333333333335,147.86675745248795L182.6,147.87944385409355L183.05666666666667,147.90860821803412L183.07,147.91058693329492L183.07666666666665,147.91158391038576L183.3133333333333,147.92742183804512L183.64333333333335,147.94583983222643L183.69333333333333,147.95163238048553L183.85666666666668,147.95725905895233L183.9,147.958607117335L183.9033333333333,147.9591439962387L184.00333333333333,147.96824690699577L184.30999999999997,147.9995986421903L184.6,148.02385490139326L184.87666666666667,148.03934116164842L185.14,148.03748494386673L185.17666666666668,148.03868706027666L185.57666666666665,148.06987995902696L185.71666666666667,148.07650127013525L185.87,148.08673186103502L186.49,148.11015056570372L187.02666666666667,148.1430642902851L187.06666666666666,148.14509868621826L187.26,148.15780970454216L187.30999999999997,148.1597813864549L187.38333333333333,148.16447673241296L187.6,148.17094213763872L187.61999999999998,148.1708893875281L187.8033333333333,148.18643191456795L187.85,148.1904854675134L187.87666666666667,148.19314348697662L188.1233333333333,148.20780743161836L188.45333333333332,148.21042676766714L188.76999999999998,148.2123433550199L188.79666666666668,148.21425408124924L188.91666666666666,148.21810308098793L189.01333333333332,148.22191925843558L189.37333333333333,148.24990084767342L189.51333333333332,148.25132217009863L189.77333333333334,148.25870484113693L190.25333333333333,148.2814512749513L190.34666666666666,148.2844726840655L190.48666666666668,148.29023299614587L190.55666666666667,148.29818361004195L190.76333333333332,148.3106467028459L190.79666666666668,148.30790076653162L190.84,148.31320156653723L190.86666666666667,148.31656057635942L191.23666666666668,148.33239674568176L191.41333333333333,148.34048919876417L191.51,148.34753426909447L191.7733333333333,148.34914314746857L192.32333333333332,148.35075437029204L192.34,148.35151573022208L192.72666666666666,148.3644295434157L192.8,148.368076334397L193.2433333333333,148.3525461157163L193.43666666666667,148.35692847768465L193.49,148.3590806821982L193.79333333333332,148.35608564813933L193.8733333333333,148.3604205350081L194.05333333333334,148.36975320180258L194.16666666666669,148.37388705213866L194.17333333333332,148.3746601343155L194.48666666666668,148.388546893994L194.70000000000002,148.3957226673762L194.78333333333333,148.39903420209885L194.79666666666668,148.39877924323082L195.10333333333332,148.41111573576927L195.17333333333335,148.41514818867049L195.27333333333334,148.4203475912412L195.43666666666667,148.42449140548706L195.73333333333335,148.4252134958903L195.76333333333335,148.42515722910562L196.32333333333335,148.45614791909853L196.33666666666667,148.45732659101486L196.35666666666665,148.4588328997294L196.5533333333333,148.4690546989441L196.73000000000002,148.47657803694406L196.74,148.4779038230578L196.86333333333332,148.48259916901588L197.11666666666665,148.45332578818002L197.34666666666666,148.46532292167345L197.79,148.4818970064322L197.87666666666667,148.48324330647787L197.95000000000002,148.48341562350592L198.08,148.48638955752054L198.20999999999998,148.49199748039246L198.21333333333334,148.49209770560265L198.42,148.50021477540335L198.6566666666667,148.51194288333258L198.66666666666669,148.51212750871977L198.67000000000002,148.5123226841291L198.82,148.51735738913217L198.89666666666665,148.51723078886667L198.96333333333334,148.51972176631293L199.48333333333335,148.53281903266907L199.66,148.53632867336273L199.70666666666668,148.5370044608911L199.98333333333335,148.5460587243239L200.22,152.0266528626283L200.40333333333334,151.65008213122687L200.45666666666668,151.10578656196594L200.48333333333332,151.12922343611717L200.94666666666666,150.67665855089822L201.2,150.14414794246355L201.61333333333334,149.6700826982657L201.62666666666667,149.68182838956514L201.67000000000002,149.6363876859347L201.78333333333336,149.64522157112756L202.14,149.77605767051378L202.18333333333334,149.79701528946558L202.41666666666666,150.0383101205031L202.48333333333335,150.13987518350282L202.56666666666666,150.15947419404984L202.57333333333332,150.15833654999733L202.82666666666665,150.22175859411558L202.88666666666668,150.27862321337065L202.9,150.27549161513647L202.99666666666667,150.28563194473585L203.05333333333334,150.28914979100227L203.07666666666665,150.29615793625513L203.13666666666666,150.25010240077972L203.21,150.19282574454942L203.25333333333333,150.19739683469138L203.36333333333334,150.21520175536475L203.38333333333333,150.22728856404623L203.51666666666668,150.19084702928862L203.60333333333335,150.20120246211687L203.86333333333332,150.13547465205193L203.94666666666666,150.03255273898444L204.09,149.85713283220926L204.18666666666667,149.75015912453333L204.85999999999999,150.02731523911157L204.89333333333335,150.01675525307655L204.91000000000003,149.98106921712557L204.91333333333333,149.98366452256838L204.98333333333332,149.95194763938585L205,149.94829440116882L205.68666666666667,149.89636660615602L205.7,149.9054706891378L206.02333333333334,149.95357585946718L206.05666666666667,149.96296127637228L206.5066666666667,150.08288220564523L206.5533333333333,150.09853023290634L206.63,150.0902642905712L206.96666666666667,150.12440240383148L207.37333333333333,150.24135174353918L207.50666666666666,150.30428672830263L207.57999999999998,150.3260525961717L208.24666666666667,150.4417582054933L208.63,150.46422916650772L208.94,150.53717436393103L209.51666666666665,150.6336971024672L209.60333333333332,150.59208019574484L210.61333333333334,150.52745603521666L210.68333333333334,150.53913432359695L210.87666666666667,150.48602902889252L210.96666666666667,150.48561816414198L211.03666666666666,150.49277225136757L211.28333333333333,150.52498029669127L211.29000000000002,150.52374125520387L211.4,150.4986263414224L211.50333333333333,150.41150191426277L211.51,150.41163672010103L211.59333333333333,150.38220743338266L211.67000000000002,150.37943629423776L212.04333333333332,150.36009751756987L212.1,150.35884733994803L212.32999999999998,150.36317695180574L212.43666666666667,150.37372814615568L212.73,150.36114021142325L212.89333333333332,150.34056766827902L213.03333333333333,150.34381473064423L213.04999999999998,150.33995986978212L213.35333333333335,150.3236583272616L213.40333333333334,150.29633259773254L213.42333333333332,150.28629132111868L213.44666666666666,150.27014568448067L213.73333333333332,150.15762149294218L213.81,150.15125865737596L214.39666666666668,150.03532387812933L214.50333333333336,150.02642024556795L214.59,150.01323095957437L214.7133333333333,150.02253197630247L214.74666666666667,150.01772937178612L215.08333333333334,150.00912407040596L215.09,150.00951676567396L215.22333333333333,150.01926908890405L215.38666666666668,149.97122252980867L215.96,149.7293855448564L215.98666666666668,149.72904442747435L216.04999999999998,149.71964846054712L216.08333333333334,149.7074373960495L216.09333333333333,149.70738757650057L216.11,149.70646503567696L216.39666666666665,149.65311474601427L216.57666666666668,149.59131330251694L216.90333333333334,149.54297837615013L217.02,149.50803963343301L217.25,149.50759887695312L217.45333333333332,149.47315129637718L217.45666666666668,149.4720957080523L217.75333333333333,149.4365403751532L218.13666666666666,149.36813461780548L218.18666666666667,149.358827739954L218.79999999999998,149.3589092095693L218.91333333333333,149.36317552129427L219.18333333333334,149.3727156718572L219.3033333333333,149.38287592927614L219.82,149.3936064740022L219.83,149.39078199863434L219.87,149.3833143413067L219.98999999999998,149.37788518269858L220.22333333333336,149.37460060914358L220.23666666666668,149.374749481678L220.42666666666668,149.37980528672537L221.09666666666666,149.39701120058695L221.33,149.40750495592752L221.75333333333336,149.40609476963678L222.09666666666666,149.41693022847176L222.51333333333332,149.4053732653459L222.9,149.38115100065866L223.74666666666667,149.41325120131174L223.96333333333334,149.40659062067667L224.32333333333332,149.41116639971733L224.34333333333333,149.4118380844593L224.83999999999997,149.42599855860075L225.58,149.46254442135492L226.26,149.51876724759737L226.28666666666666,149.51868695020676L226.48333333333332,149.53128250439963L226.54666666666668,149.5321405728658L226.74,149.5371764500936L227.01000000000002,149.55491162339845L227.29666666666665,149.55837085843086L227.56333333333333,149.56900410850844L227.57,149.56904806693396L228.02666666666667,149.61009820302328L228.30666666666667,149.6368196507295L228.79000000000002,149.65176434318224L228.81,149.6503219207128L228.83333333333334,149.64880799253783L228.86,149.65151231487593L229.07666666666665,149.6631859143575L229.15333333333334,149.67495915293694L229.43,149.69462498029074L229.44,149.69487525026003L229.47,149.69458043575287L229.71666666666667,149.70897183815637L230.01333333333335,149.6693318883578L230.17333333333332,149.67723619937897L230.23666666666668,149.68353925148645L230.30666666666667,149.6923555533091L230.37666666666667,149.6852301855882L230.48333333333332,149.69099225600561L230.52333333333334,149.6932599246502L230.95000000000002,149.70213132103285L231.0233333333333,149.70208150148392L231.07,149.70351630449295L231.07333333333332,149.70202289024988L231.14333333333335,149.7000447611014L231.19666666666666,149.70407369732857L231.68666666666667,149.70302338401476L231.73333333333335,149.70759506026903L231.94333333333333,149.71591844161352L232.05333333333334,149.7105502386888L232.21333333333334,149.71276046832403L232.26,149.71529305974641L232.36333333333334,149.7058126926422L232.39333333333335,149.70704235633215L232.5233333333333,149.7034471432368L232.72666666666666,149.71666925152144L232.92,149.73059586683908L233.17666666666668,149.74616066614786L233.19,149.7413809200128L233.28,149.73591483632723L233.69,149.75078802307448L234.27666666666664,149.78591959675154L234.33,149.78830390175185L234.50666666666666,149.77352918187776L234.73666666666668,149.79365100463232L234.84,149.79574870069823L234.86666666666665,149.7992003162702L235.12333333333333,149.80740002791086L235.15333333333334,149.80998009443283L235.3033333333333,149.8166699806849L235.53,149.8063848813375L236.62333333333333,149.84699719150862L237.09,149.85170132915178L237.16,149.8577687640985L237.26000000000002,149.8604601919651L237.30333333333334,149.86118990182877L237.35666666666668,149.86567717790604L237.38,149.86886562903723L237.66666666666669,149.87823580702147L237.81666666666666,149.88674322764078L237.88000000000002,149.88299152255058L237.99666666666667,149.87949536244074L238.41,149.85916195313135L238.86666666666667,149.872806062301L238.94,149.87320989370346L238.97333333333336,149.8773912191391L239.09,149.87020255128542L239.24,149.87727458278337L239.27666666666667,149.87808517615L239.82666666666668,149.91267811258635L239.83333333333331,149.91240029533705L240.02666666666664,149.91366747021675L240.08333333333331,149.91748306155205L240.16333333333333,149.91853806376457L240.19666666666666,149.91475998361906L240.32000000000002,149.91828310489655L240.39333333333332,149.91897823413214L240.57,149.9289614856243L240.81666666666666,149.93181468049684L240.83999999999997,149.9337588151296L240.96666666666664,149.94194680452347L241.64,149.96651956439018L241.86333333333334,149.96869345506033L242.07333333333335,149.97445611159006L242.12333333333333,149.9767026801904L242.46,149.97737670938173L242.47,149.9767607053121L242.69666666666666,149.96705468495688L243.09333333333333,149.95923946301141L243.24333333333334,149.96361127495766L244,149.98274139563242L244.23333333333335,149.96608935793242L244.52666666666667,149.97412144144377L244.68666666666667,149.97804136077562L244.89666666666665,149.97503870725632L244.93333333333334,149.97313794493675L245.96333333333334,149.9418524404367L246.36333333333334,149.94438210129738L246.39000000000001,149.94586789608002L246.51,149.95306887229285L246.76666666666668,149.96483859419823L246.79666666666668,149.96522191166878L247.50666666666666,149.96658052007356L248.07999999999998,149.9758633673191L248.16333333333333,149.9757572809855L248.21666666666664,149.97239065170288L248.68666666666667,149.96784241994223L248.73666666666665,149.9684256017208L248.84,149.9701218108336L249.18333333333334,149.97716336448988L249.34333333333333,149.97570511698723L249.51333333333332,149.98373954494795L249.63666666666666,149.99183317025503L249.82,149.99753135442734L249.82666666666668,149.99776990214983L249.88,150.0007672806581L250.06333333333333,150.00463151931763L250.79666666666668,150.00255023439726L250.82333333333335,150.00355776151022L250.83666666666667,150.0037482480208L251.01666666666668,150.00909066200256L251.35,150.01589835683504L251.93,150.02763291200003L252.18333333333334,150.0334354241689L252.29333333333335,150.03438844283423L252.36666666666667,150.03604127963385L252.45666666666665,150.03840507070223L253.5,150.07602117458978L253.93,150.07154151797295L254.01,150.0746338466803L254.23000000000002,150.06593066453934L254.33666666666667,150.05702937642732L254.50000000000003,150.05679082870483L254.51333333333335,150.0556496679783L255.88666666666668,150.09142889579138L256.06,150.09334431091943L256.7033333333333,150.10300813118616L256.93,150.10242787996927L256.99,150.10560578107834L257.38,150.1151377260685L257.39666666666665,150.11615111430487L257.46666666666664,150.1094442307949L257.46999999999997,150.10969918966293L257.48333333333335,150.1091968913873L257.62,150.11050392190614L257.68333333333334,150.1136308312416L258.18333333333334,150.12239672740301L258.19,150.12260421117148L258.4,150.1336371898651L258.40999999999997,150.13300653298697L258.7266666666667,150.14682061473528L258.8533333333333,150.14472877979279L259.18666666666667,150.1442505121231L259.32666666666665,150.14847872654596L259.66333333333336,150.15078683694205L259.84,150.1550601820151L259.97,150.15378655989966L260.04,150.15419976909956L260.3666666666667,150.16895866394043L260.37666666666667,150.16972119609514L260.45666666666665,150.17358309030533L260.55333333333334,150.1710252960523L260.78,150.16835086544356L260.81,150.16828111807504L261.71,150.19622402389845L262.04333333333335,150.1888102889061L262.06,150.18884545564651L262.14,150.19145541389784L262.68,150.17808853586516L262.69666666666666,150.17573763926825L262.7733333333333,150.17434562246004L263.0466666666666,150.17722284793854L263.19,150.1774057149887L263.34666666666664,150.1796094973882L263.59333333333336,150.18751205007234L263.68666666666667,150.19165645043054L263.7866666666667,150.19712136189142L263.99,150.19326239824295L264.01666666666665,150.19310883680978L264.0266666666667,150.19265166918436L264.22666666666663,150.19476401805878L264.2766666666667,150.19809958338737L264.39666666666665,150.20355042815208L264.54333333333335,150.20521557331085L264.61333333333334,150.20992908875147L264.68,150.2130395869414L264.93666666666667,150.22066139181456L265.12,150.22185588876405L265.1433333333333,150.22058168053627L265.43,150.20638779799143L265.43333333333334,150.2061879336834L265.73333333333335,150.20345723628998L265.92,150.20580578843752L266.02666666666664,150.20894500613213L266.5,150.20734023054442L266.62,150.20897607008615L266.7866666666667,150.2134440044562L266.88,150.2165539165338L266.93,150.21531311670938L267.1066666666667,150.2233270307382L267.75666666666666,150.23860756556192L268.05333333333334,150.24411526322365L268.25333333333333,150.24537188808122L268.2933333333333,150.24596093098322L268.47,150.24419497450194L268.68666666666667,150.24222094813982L269.1,150.2467187742392L269.4533333333333,150.24965343872705L269.52333333333337,150.25423507889113L269.73,150.25333832701048L269.7866666666667,150.25414130091667L269.84,150.25365658601126L269.8666666666667,150.25479129950205L269.9866666666667,150.25971112648645L270.1166666666667,150.26303672790527L270.23333333333335,150.26237617929777L270.49666666666667,150.26939077178636L270.6933333333333,150.2680456439654L270.85,150.2713958621025L270.88666666666666,150.27025880416235L270.9633333333333,150.271577556928L271.0733333333333,150.27608065803847L271.07666666666665,150.27637605865797L271.11333333333334,150.2767113149166L271.2733333333333,150.2817401587963L271.2766666666667,150.28195995092392L271.47666666666663,150.2825185159842L271.5933333333333,150.28655096888542L271.9266666666667,150.27971279621124L272.0733333333333,150.28060427308083L272.18333333333334,150.28036631147066L272.2366666666667,150.27868006626764L272.26,150.27812384565672L273.00666666666666,150.2897669672966L273.1166666666667,150.2942225933075L273.18,150.29588129123053L273.24,150.29357786973318L273.34000000000003,150.29687416553497L273.5,150.3017594118913L273.6933333333333,150.3028361002604L274.03,150.30367189645767L274.13666666666666,150.30456454555193L274.32666666666665,150.30555214484534L274.50333333333333,150.3076392908891L274.79333333333335,150.31155276298523L275.03,150.31059036652246L275.05333333333334,150.31154690186182L276.03000000000003,150.30585340658823L276.1033333333333,150.3052461942037L276.25,150.3054601252079L276.66,150.30978797872862L276.84333333333336,150.31513918439546L276.85999999999996,150.31459878881773L277.10333333333335,150.31531443198523L277.15,150.31586361924806L277.22666666666663,150.3169362048308L277.50666666666666,150.32316599289575L277.8666666666667,150.32931900024414L278.33,150.33637637893358L278.92333333333335,150.34369633595148L279.18,150.34376432498297L279.26666666666665,150.34588780999184L279.4833333333333,150.35556628306708L279.9433333333333,150.36622297763824L279.97,150.3678459227085L279.99,150.36841152111688L280.5833333333333,150.37936478853226L280.73333333333335,150.38008629282317L281.09333333333336,150.3788794875145L281.34,150.38013376792273L281.3566666666667,150.38046726584435L281.37333333333333,150.3810615837574L281.9066666666667,150.3887437582016L282.09666666666664,150.39199550946554L282.49666666666667,150.3977991938591L282.8566666666667,150.39899369080862L283.14666666666665,150.39839527010918L283.1666666666667,150.39966068665186L283.2,150.3999302983284L283.3333333333333,150.40257425109544" style="fill: none;" fill="none"></path></g></g></g></g></g><g><g><span fill="rgb(0, 0, 0)" stroke="none" stroke-width="1px">Alt + Scroll to Zoom</span></g></g></g><g transform="translate(30, 177)" clip-path="url(#clip_1)"><clipPath id="clip_1"><rect width="300" height="23"></rect></clipPath><g><g><line x1="0" y1="0" x2="0" y2="5" style="visibility: inherit;" fill="rgb(0, 0, 0)" stroke="rgb(204, 204, 204)" stroke-width="1px"></line><line x1="33.33333333333333" y1="0" x2="33.33333333333333" y2="5" style="visibility: inherit;" fill="rgb(0, 0, 0)" stroke="rgb(204, 204, 204)" stroke-width="1px"></line><line x1="66.66666666666666" y1="0" x2="66.66666666666666" y2="5" style="visibility: inherit;" fill="rgb(0, 0, 0)" stroke="rgb(204, 204, 204)" stroke-width="1px"></line><line x1="100" y1="0" x2="100" y2="5" style="visibility: inherit;" fill="rgb(0, 0, 0)" stroke="rgb(204, 204, 204)" stroke-width="1px"></line><line x1="133.33333333333331" y1="0" x2="133.33333333333331" y2="5" style="visibility: inherit;" fill="rgb(0, 0, 0)" stroke="rgb(204, 204, 204)" stroke-width="1px"></line><line x1="166.66666666666669" y1="0" x2="166.66666666666669" y2="5" style="visibility: inherit;" fill="rgb(0, 0, 0)" stroke="rgb(204, 204, 204)" stroke-width="1px"></line><line x1="200" y1="0" x2="200" y2="5" style="visibility: inherit;" fill="rgb(0, 0, 0)" stroke="rgb(204, 204, 204)" stroke-width="1px"></line><line x1="233.33333333333334" y1="0" x2="233.33333333333334" y2="5" style="visibility: inherit;" fill="rgb(0, 0, 0)" stroke="rgb(204, 204, 204)" stroke-width="1px"></line><line x1="266.66666666666663" y1="0" x2="266.66666666666663" y2="5" style="visibility: inherit;" fill="rgb(0, 0, 0)" stroke="rgb(204, 204, 204)" stroke-width="1px"></line><line x1="300" y1="0" x2="300" y2="5" style="visibility: inherit;" fill="rgb(0, 0, 0)" stroke="rgb(204, 204, 204)" stroke-width="1px"></line></g><g transform="translate(0, 8)"><text x="0" y="0" dx="0em" dy="0.95em" style="text-anchor: middle; visibility: hidden; font-family: &quot;Helvetica Neue&quot;, sans-serif; font-size: 12px; font-weight: 200;" fill="rgb(33, 33, 33)" stroke="none" stroke-width="1px">-10k</text><text x="33.33333333333333" y="0" dx="0em" dy="0.95em" style="text-anchor: middle; visibility: inherit; font-family: &quot;Helvetica Neue&quot;, sans-serif; font-size: 12px; font-weight: 200;" fill="rgb(33, 33, 33)" stroke="none" stroke-width="1px">0</text><text x="66.66666666666666" y="0" dx="0em" dy="0.95em" style="text-anchor: middle; visibility: inherit; font-family: &quot;Helvetica Neue&quot;, sans-serif; font-size: 12px; font-weight: 200;" fill="rgb(33, 33, 33)" stroke="none" stroke-width="1px">10k</text><text x="100" y="0" dx="0em" dy="0.95em" style="text-anchor: middle; visibility: inherit; font-family: &quot;Helvetica Neue&quot;, sans-serif; font-size: 12px; font-weight: 200;" fill="rgb(33, 33, 33)" stroke="none" stroke-width="1px">20k</text><text x="133.33333333333331" y="0" dx="0em" dy="0.95em" style="text-anchor: middle; visibility: inherit; font-family: &quot;Helvetica Neue&quot;, sans-serif; font-size: 12px; font-weight: 200;" fill="rgb(33, 33, 33)" stroke="none" stroke-width="1px">30k</text><text x="166.66666666666669" y="0" dx="0em" dy="0.95em" style="text-anchor: middle; visibility: inherit; font-family: &quot;Helvetica Neue&quot;, sans-serif; font-size: 12px; font-weight: 200;" fill="rgb(33, 33, 33)" stroke="none" stroke-width="1px">40k</text><text x="200" y="0" dx="0em" dy="0.95em" style="text-anchor: middle; visibility: inherit; font-family: &quot;Helvetica Neue&quot;, sans-serif; font-size: 12px; font-weight: 200;" fill="rgb(33, 33, 33)" stroke="none" stroke-width="1px">50k</text><text x="233.33333333333334" y="0" dx="0em" dy="0.95em" style="text-anchor: middle; visibility: inherit; font-family: &quot;Helvetica Neue&quot;, sans-serif; font-size: 12px; font-weight: 200;" fill="rgb(33, 33, 33)" stroke="none" stroke-width="1px">60k</text><text x="266.66666666666663" y="0" dx="0em" dy="0.95em" style="text-anchor: middle; visibility: inherit; font-family: &quot;Helvetica Neue&quot;, sans-serif; font-size: 12px; font-weight: 200;" fill="rgb(33, 33, 33)" stroke="none" stroke-width="1px">70k</text><text x="300" y="0" dx="0em" dy="0.95em" style="text-anchor: middle; visibility: hidden; font-family: &quot;Helvetica Neue&quot;, sans-serif; font-size: 12px; font-weight: 200;" fill="rgb(33, 33, 33)" stroke="none" stroke-width="1px">80k</text></g><line x1="0" y1="0" x2="300" y2="0" fill="rgb(0, 0, 0)" stroke="rgb(204, 204, 204)" stroke-width="1px"></line></g></g></g></g></svg>