<svg viewBox="0 0 330 200" xmlns="http://www.w3.org/2000/svg"><g><g><g><g><g><line x1="30" y1="177" x2="25" y2="177" style="visibility: inherit;" fill="rgb(0, 0, 0)" stroke="rgb(204, 204, 204)" stroke-width="1px"></line><line x1="30" y1="154.875" x2="25" y2="154.875" style="visibility: inherit;" fill="rgb(0, 0, 0)" stroke="rgb(204, 204, 204)" stroke-width="1px"></line><line x1="30" y1="132.75" x2="25" y2="132.75" style="visibility: inherit;" fill="rgb(0, 0, 0)" stroke="rgb(204, 204, 204)" stroke-width="1px"></line><line x1="30" y1="110.625" x2="25" y2="110.625" style="visibility: inherit;" fill="rgb(0, 0, 0)" stroke="rgb(204, 204, 204)" stroke-width="1px"></line><line x1="30" y1="88.5" x2="25" y2="88.5" style="visibility: inherit;" fill="rgb(0, 0, 0)" stroke="rgb(204, 204, 204)" stroke-width="1px"></line><line x1="30" y1="66.375" x2="25" y2="66.375" style="visibility: inherit;" fill="rgb(0, 0, 0)" stroke="rgb(204, 204, 204)" stroke-width="1px"></line><line x1="30" y1="44.25" x2="25" y2="44.25" style="visibility: inherit;" fill="rgb(0, 0, 0)" stroke="rgb(204, 204, 204)" stroke-width="1px"></line><line x1="30" y1="22.125" x2="25" y2="22.125" style="visibility: inherit;" fill="rgb(0, 0, 0)" stroke="rgb(204, 204, 204)" stroke-width="1px"></line><line x1="30" y1="0" x2="25" y2="0" style="visibility: inherit;" fill="rgb(0, 0, 0)" stroke="rgb(204, 204, 204)" stroke-width="1px"></line></g><g transform="translate(20, 0)"><text x="0" y="177" dx="0em" dy="0.3em" style="text-anchor: end; visibility: hidden; font-family: &quot;Helvetica Neue&quot;, sans-serif; font-size: 12px; font-weight: 200;" fill="rgb(33, 33, 33)" stroke="none" stroke-width="1px">0</text><text x="0" y="154.875" dx="0em" dy="0.3em" style="text-anchor: end; visibility: inherit; font-family: &quot;Helvetica Neue&quot;, sans-serif; font-size: 12px; font-weight: 200;" fill="rgb(33, 33, 33)" stroke="none" stroke-width="1px">2</text><text x="0" y="132.75" dx="0em" dy="0.3em" style="text-anchor: end; visibility: hidden; font-family: &quot;Helvetica Neue&quot;, sans-serif; font-size: 12px; font-weight: 200;" fill="rgb(33, 33, 33)" stroke="none" stroke-width="1px">4</text><text x="0" y="110.625" dx="0em" dy="0.3em" style="text-anchor: end; visibility: inherit; font-family: &quot;Helvetica Neue&quot;, sans-serif; font-size: 12px; font-weight: 200;" fill="rgb(33, 33, 33)" stroke="none" stroke-width="1px">6</text><text x="0" y="88.5" dx="0em" dy="0.3em" style="text-anchor: end; visibility: hidden; font-family: &quot;Helvetica Neue&quot;, sans-serif; font-size: 12px; font-weight: 200;" fill="rgb(33, 33, 33)" stroke="none" stroke-width="1px">8</text><text x="0" y="66.375" dx="0em" dy="0.3em" style="text-anchor: end; visibility: inherit; font-family: &quot;Helvetica Neue&quot;, sans-serif; font-size: 12px; font-weight: 200;" fill="rgb(33, 33, 33)" stroke="none" stroke-width="1px">10</text><text x="0" y="44.25" dx="0em" dy="0.3em" style="text-anchor: end; visibility: hidden; font-family: &quot;Helvetica Neue&quot;, sans-serif; font-size: 12px; font-weight: 200;" fill="rgb(33, 33, 33)" stroke="none" stroke-width="1px">12</text><text x="0" y="22.125" dx="0em" dy="0.3em" style="text-anchor: end; visibility: inherit; font-family: &quot;Helvetica Neue&quot;, sans-serif; font-size: 12px; font-weight: 200;" fill="rgb(33, 33, 33)" stroke="none" stroke-width="1px">14</text><text x="0" y="0" dx="0em" dy="0.3em" style="text-anchor: end; visibility: hidden; font-family: &quot;Helvetica Neue&quot;, sans-serif; font-size: 12px; font-weight: 200;" fill="rgb(33, 33, 33)" stroke="none" stroke-width="1px">16</text></g><line x1="30" y1="0" x2="30" y2="177" fill="rgb(0, 0, 0)" stroke="rgb(204, 204, 204)" stroke-width="1px"></line></g></g><g transform="translate(30, 0)" clip-path="url(#clip_0)"><clipPath id="clip_0"><rect width="300" height="177"></rect></clipPath><g><g><g><line x1="0" y1="0" x2="0" y2="177" fill="rgb(0, 0, 0)" stroke="rgb(66, 66, 66)" stroke-width="1px" opacity="0.25"></line><line x1="33.33333333333333" y1="0" x2="33.33333333333333" y2="177" fill="rgb(0, 0, 0)" stroke="rgb(66, 66, 66)" stroke-width="1px" opacity="0.25"></line><line x1="66.66666666666666" y1="0" x2="66.66666666666666" y2="177" fill="rgb(0, 0, 0)" stroke="rgb(66, 66, 66)" stroke-width="1px" opacity="0.25"></line><line x1="100" y1="0" x2="100" y2="177" fill="rgb(0, 0, 0)" stroke="rgb(66, 66, 66)" stroke-width="1px" opacity="0.25"></line><line x1="133.33333333333331" y1="0" x2="133.33333333333331" y2="177" fill="rgb(0, 0, 0)" stroke="rgb(66, 66, 66)" stroke-width="1px" opacity="0.25"></line><line x1="166.66666666666669" y1="0" x2="166.66666666666669" y2="177" fill="rgb(0, 0, 0)" stroke="rgb(66, 66, 66)" stroke-width="1px" opacity="0.25"></line><line x1="200" y1="0" x2="200" y2="177" fill="rgb(0, 0, 0)" stroke="rgb(66, 66, 66)" stroke-width="1px" opacity="0.25"></line><line x1="233.33333333333334" y1="0" x2="233.33333333333334" y2="177" fill="rgb(0, 0, 0)" stroke="rgb(66, 66, 66)" stroke-width="1px" opacity="0.25"></line><line x1="266.66666666666663" y1="0" x2="266.66666666666663" y2="177" fill="rgb(0, 0, 0)" stroke="rgb(66, 66, 66)" stroke-width="1px" opacity="0.25"></line><line x1="300" y1="0" x2="300" y2="177" fill="rgb(0, 0, 0)" stroke="rgb(66, 66, 66)" stroke-width="1px" opacity="0.25"></line></g><g><line x1="0" y1="177" x2="300" y2="177" fill="rgb(0, 0, 0)" stroke="rgb(66, 66, 66)" stroke-width="1px" opacity="0.25"></line><line x1="0" y1="154.875" x2="300" y2="154.875" fill="rgb(0, 0, 0)" stroke="rgb(66, 66, 66)" stroke-width="1px" opacity="0.25"></line><line x1="0" y1="132.75" x2="300" y2="132.75" fill="rgb(0, 0, 0)" stroke="rgb(66, 66, 66)" stroke-width="1px" opacity="0.25"></line><line x1="0" y1="110.625" x2="300" y2="110.625" fill="rgb(0, 0, 0)" stroke="rgb(66, 66, 66)" stroke-width="1px" opacity="0.25"></line><line x1="0" y1="88.5" x2="300" y2="88.5" fill="rgb(0, 0, 0)" stroke="rgb(66, 66, 66)" stroke-width="1px" opacity="0.25"></line><line x1="0" y1="66.375" x2="300" y2="66.375" fill="rgb(0, 0, 0)" stroke="rgb(66, 66, 66)" stroke-width="1px" opacity="0.25"></line><line x1="0" y1="44.25" x2="300" y2="44.25" fill="rgb(0, 0, 0)" stroke="rgb(66, 66, 66)" stroke-width="1px" opacity="0.25"></line><line x1="0" y1="22.125" x2="300" y2="22.125" fill="rgb(0, 0, 0)" stroke="rgb(66, 66, 66)" stroke-width="1px" opacity="0.25"></line><line x1="0" y1="0" x2="300" y2="0" fill="rgb(0, 0, 0)" stroke="rgb(66, 66, 66)" stroke-width="1px" opacity="0.25"></line></g></g></g><g><g><line x1="0" y1="177" x2="300" y2="177" fill="rgb(0, 0, 0)" stroke="rgb(153, 153, 153)" stroke-width="1.5px"></line></g></g><g><g><line x1="33.33333333333333" y1="0" x2="33.33333333333333" y2="177" fill="rgb(0, 0, 0)" stroke="rgb(153, 153, 153)" stroke-width="1.5px"></line></g></g><g><g><g><g><g><path stroke="rgb(255, 112, 67)" stroke-width="2px" d="M33.336666666666666,28.28929352760315L93.43333333333334,128.43725861952856L93.56666666666666,152.16303150626467L93.70333333333333,158.6962608098982L93.95666666666668,160.5580404122997L93.98666666666666,161.23260629653245L94.92333333333333,162.0647386879247L95.00666666666667,162.3651478351761L95.14,162.4965212360294L95.50333333333333,162.7378016090604L95.75666666666667,163.05502707855578L96.06666666666668,163.1647581813253L96.15333333333334,163.2237592464778L96.30333333333334,163.32804222725176L96.66666666666667,163.39454885597425L96.76666666666667,163.4449383310492L96.88000000000001,163.48450267250456L96.99666666666667,163.48571177181282L97.02666666666667,163.49413107915996L97.1,163.4890938297522L97.11333333333333,163.48433435459856L97.2,163.48647853227976L97.25333333333333,163.47068047860895L97.44999999999999,163.50077786170255L97.56666666666668,163.5163800368691L97.59333333333333,163.5429195908949L97.95,163.5228391857181L97.99666666666666,163.50469136379664L98.08666666666667,163.48000535550975L98.14333333333335,163.42515608563414L98.34333333333333,163.30033197793068L98.51333333333334,163.31299950692144L98.78,163.36066173948126L98.84666666666666,163.358498278157L99.15333333333332,163.37110211842463L99.16333333333333,163.37673336937794L99.22,163.39215883220277L99.44666666666667,163.37567066846628L99.67666666666668,163.3185789744049L99.69,163.29223287361575L100.07000000000001,163.28983416643305L100.10333333333334,163.28798975724823L100.57666666666665,163.347807552631L100.95333333333333,163.4288826399357L101.38333333333333,163.4672628064189L101.64,163.48111580929609L102.58999999999999,163.5173245705846L102.63000000000001,163.53199534616166L102.74666666666667,163.56400738830837L102.97333333333334,163.58202426303473L103.06333333333333,163.59402347655796L103.16,163.6200267390298L103.40666666666667,163.67234883712467L104.06666666666668,163.8111965852227L104.14,163.85652162648685L104.15666666666667,163.8764458826693L104.58666666666667,163.9357011755682L104.70666666666666,163.98195585212235L105.26333333333334,164.10641894080402L105.32000000000001,164.13343252870865L105.89999999999999,164.18706799181751L106.02333333333334,164.22653923785532L106.21666666666667,164.27284646324696L106.44666666666666,164.3314464947752L106.72,164.33896300525245L107.14,164.32336813364907L107.19666666666666,164.31538988165693L107.32666666666667,164.30877563888444L107.78333333333333,164.25658004652843L107.96,164.21769799632386L108.13,164.1919397686177L108.26,164.17253517687095L108.77,164.07721398186305L108.89333333333333,164.03176070435833L108.91999999999999,164.0120852469743L109.22,163.99701364679478L109.26333333333334,163.9801446990452L109.35333333333334,163.97535167075873L109.38333333333333,163.96846220509215L109.40333333333334,163.9674691204711L109.43333333333332,163.97176765754688L109.60666666666667,163.9696788254085L109.64666666666666,163.97094209164496L109.65333333333334,163.9711519614194L109.66,163.9711515223505L109.71333333333332,163.96079011282976L109.96,163.9454586671333L109.99333333333333,163.94244106870514L110.07333333333334,163.94656842086954L110.22333333333334,163.95490396670002L110.25999999999999,163.9601287261923L110.31,163.96668589006535L110.42666666666668,163.96623960433L110.47666666666667,163.96375876467548L110.56666666666668,163.9650489419938L110.64333333333333,163.9696214811293L110.90333333333334,163.9281589211469L111.10333333333332,163.88527506024414L111.22333333333333,163.84698312556725L111.52666666666667,163.81160744521998L111.83666666666667,163.7933484717737L112.28,163.78535330514399L112.55999999999999,163.77383572650854L113.10333333333334,163.76814624850363L113.17666666666668,163.77083695281107L113.19666666666667,163.77340929768707L113.34,163.76632164782745L113.62333333333333,163.76316354336848L114.29666666666667,163.78075453864352L114.56333333333333,163.80078648165156L114.80666666666667,163.81223158676804L114.88000000000001,163.81499131838106L115.04333333333332,163.82923385395767L115.18333333333332,163.83911935205379L115.39333333333333,163.86563485486823L115.45666666666666,163.88031903845652L115.52,163.89224153201076L115.52666666666666,163.89799757538444L115.58666666666667,163.9029197587887L115.71333333333334,163.91530872960158L116.00666666666667,163.9280046434967L116.09333333333332,163.9396971641526L116.10333333333332,163.9436659795338L116.14666666666666,163.94776499348754L116.47666666666667,163.9436965573795L116.81,163.1755561744519L116.85666666666667,163.39026808461568L117,164.08290601364695L117.02,164.49173885560086L117.30333333333333,164.10807490854222L117.58666666666667,164.46011944750396L117.72333333333333,164.6581917484194L117.93666666666667,165.03584394326313L118.11,165.27614972579462L118.39666666666666,165.2873013094526L118.67,165.27240518355552L118.85333333333334,165.32694660863854L118.89,165.38855798491016L119.21666666666667,165.55369105443194L119.48666666666668,165.73564921959505L119.92333333333333,165.9816481903273L119.94999999999999,166.0440118650338L120.12666666666667,166.0657764159583L120.32000000000001,165.97809727552277L120.41999999999999,165.98232024090763L120.47333333333333,166.00711728101305L120.50666666666666,166.0081868649445L120.53666666666666,166.00231177637716L120.70333333333333,166.07861072662206L121.01666666666667,166.04444224393092L121.14333333333333,166.02376456799198L121.23,166.0070513669425L121.24666666666667,165.9893408052576L121.33666666666667,165.91642058827927L121.46,165.80800920726145L121.59,165.71645695120563L122.06333333333333,165.57607825311445L122.07666666666667,165.5196656842409L122.13000000000001,165.44756445532522L122.2,165.41286421522102L122.31333333333335,165.40479432272096L122.33333333333334,165.4018705845666L122.41666666666667,165.41203306150328L122.57333333333332,165.4255802348419L123.4,165.44726473915426L123.43666666666667,165.4205862584925L124.01666666666665,165.24783039648574L124.10000000000001,165.20250997101638L124.16333333333334,165.17937007803928L124.26,165.18140836534016L124.64333333333333,165.21133600922073L124.73333333333333,165.2477762585938L124.83333333333333,165.28682389617333L124.98333333333333,165.33316157164708L125.03333333333335,165.34405888407852L125.17666666666666,165.3521330030823L125.41,165.3689500453252L125.48,165.38403848251403L125.60666666666667,165.41175633463618L125.69,165.43286098111L125.76666666666667,165.4631892665842L126.66666666666667,165.57215124929803L127.11666666666666,165.63845480825677L127.12,165.66466036204352L127.73666666666666,165.66174968469943L127.96333333333334,165.69344585126305L128.14,165.7219682771441L128.25,165.72427117827476L128.26333333333332,165.7323829509052L128.41666666666669,165.74826327863482L128.43666666666667,165.74787031568238L128.52333333333334,165.7715126212126L128.80666666666667,165.8466272339747L129.53333333333333,165.9298208839972L129.57666666666665,165.94920814729426L129.61666666666667,165.96861784351287L129.70333333333332,165.97606749252338L129.86,165.97511792993708L130.09333333333333,165.9567607868999L130.09666666666666,165.94960571714398L130.14666666666668,165.94789726121775L130.26333333333332,165.97292892518635L130.32,165.99354132185175L130.37,166.0091893791107L130.55333333333334,166.00241139830186L130.56,165.99863233492897L130.57666666666668,165.9973610024307L130.76666666666665,166.0037913461838L130.85999999999999,166.01603784039884L131,166.02713463904433L131.28333333333333,166.03948828963533L131.34,166.04855622128676L132.17,166.0810262379311L132.32999999999998,166.10514707740901L132.34666666666666,166.1153530048208L132.66,166.1554589404511L132.66666666666669,166.17028644246153L132.68333333333334,166.1817106514758L132.74,166.18598055802275L132.82333333333332,166.18726231056635L133.19666666666666,166.19508887309917L133.47666666666666,164.04753121559685L133.76000000000002,164.3608697625605L133.92000000000002,164.62216156688848L134.06666666666666,165.24888185392464L134.11333333333334,165.44801312528983L134.19666666666666,165.4989418541533L134.31,165.70837528739142L134.37,165.8890272176298L134.37666666666667,165.93983195338294L134.56333333333333,166.05721159927154L134.84333333333333,166.26667131008475L134.88333333333333,166.33520892405704L135.59,166.09848155710978L135.90666666666667,166.0748205378539L136.00333333333333,166.07321095640546L136.05666666666667,166.06946852451347L136.15666666666667,166.10614263296213L136.16666666666666,166.1185459842506L136.19333333333333,166.07806671417816L136.45,165.94384474000663L137.17,165.73163201272322L137.27333333333334,165.69635712076067L137.55666666666667,165.7428523380173L137.80333333333334,165.81108753563896L138.36,165.70875091104614L138.83333333333334,165.72582537643214L138.84,165.73279028830348L139.31,165.7941980769317L139.45333333333335,165.8647059363926L139.64333333333332,165.90948647538062L140.46666666666667,166.18703358388242L140.51333333333332,166.28843416170227L140.67,166.32255505887315L140.86666666666667,166.3160439885203L140.93333333333334,166.31536529257409L140.94,166.31654074346022L141.10999999999999,166.25802170254985L141.31666666666666,166.2278238298162L141.5,166.24474214309902L141.92666666666668,166.30894132819623L142.10666666666665,166.33833553835277L142.22,166.35136562226094L142.24666666666667,166.35938833151957L142.25,166.36349443475967L142.42333333333335,166.3845483142029L142.53666666666666,166.39936434678037L142.55666666666667,166.40654331660426L142.86,166.41906933989523L143.01333333333332,166.4289559483077L143.43333333333334,166.49508921045654L143.48333333333335,166.52899160978905L143.50666666666666,166.54377688319525L143.56666666666666,166.56357566958297L143.58333333333334,166.57703128606855L143.71666666666667,166.55824854525463L143.72,166.5529052037167L143.76,166.55116967920895L143.87333333333333,166.5682377619025L144.1,166.5656136972362L144.38333333333335,166.5175211478925L144.48333333333332,166.48417301497727L145.19333333333333,166.46475192405762L145.22,166.45127505889673L145.26666666666668,166.43101343232757L145.41,166.43530061772418L145.44666666666666,166.4367243371449L145.45666666666665,166.43996096500956L145.53,166.43341850143506L145.64666666666668,166.42319403810842L145.95,166.44549126205067L146.82666666666665,166.6297793602999L146.92000000000002,166.70149073396976L147.32999999999998,166.74828111435966L147.55,166.7580716413241L147.75,166.75272343876816L148.02333333333334,166.74950602133788L148.07999999999998,166.7466652220435L148.14333333333332,166.74059383336785L148.26333333333332,166.7521820287793L148.40666666666667,166.75569699237118L148.56333333333333,166.77093954554542L148.65666666666667,166.76888978256574L148.71666666666667,166.76815292408625L149.0533333333333,166.81695607990403L149.17333333333332,166.83990044933546L149.26666666666665,166.86215685669657L149.42333333333335,166.85356954991582L149.5,166.84543376362387L149.59,166.84677057229914L149.63666666666666,166.84354041591814L150.04333333333332,166.81465618365823L150.10333333333335,166.80223890106151L150.26666666666668,166.8028625140078L150.3,166.79567949058244L150.33666666666667,166.79385322463804L150.37,166.7942082753359L150.42,166.79514010571054L151.09,166.81408031172683L151.12666666666667,166.82153068415872L151.29333333333335,166.8338434162153L151.41666666666666,166.8473279757704L151.75666666666666,166.8330263018179L151.99666666666667,166.84240346848517L152.11666666666667,166.8579317044562L152.2,166.86327668979925L152.25333333333333,166.8736326736076L152.29000000000002,166.8788537868763L152.37,166.8800158749099L152.43,166.88041156516994L152.46,166.88415307820546L152.75,166.9066318798195L153.04666666666668,166.90524538980972L153.11666666666667,166.9063123918958L153.41333333333336,166.90793953669035L153.56666666666666,166.90422832998055L153.94,166.90766957518292L154.1966666666667,166.89755907210974L154.21666666666667,166.89512820012936L154.85333333333332,166.92489550803515L154.95666666666668,166.94510102432181L155.00666666666666,166.93406729756634L155.06,166.9200585025708L155.14,166.9003584823376L155.27333333333334,166.88894953212127L155.33,166.88410068424727L155.47333333333333,166.89420697511704L155.67333333333332,166.89515660969627L155.67666666666665,166.8958306528481L155.76333333333332,166.89296947619155L156.79333333333335,166.83930870816292L156.93333333333334,166.79026628251066L157.25,166.723455726434L157.88333333333333,166.6485364873324L158.09,166.6335008627513L158.09333333333333,166.62862542373574L158.14666666666668,166.63115435268693L158.26333333333335,166.6273427068871L158.34333333333333,166.61638239488343L158.38333333333333,166.608718220975L158.39333333333332,166.6048091383702L158.66666666666666,166.59748445863184L158.68666666666667,166.5964979089558L158.75333333333333,166.5997005706864L159.1,166.5817506800287L159.14333333333335,166.5667650152043L159.19333333333333,166.55683856213443L159.58666666666664,166.56229207214304L159.65,166.56473647843555L159.77333333333334,166.55970486249652L160.10666666666665,166.56231077215162L160.39333333333335,166.58898082256587L160.5366666666667,166.60029264894672L160.73333333333335,166.60474051802612L160.89666666666668,166.59088994639768L160.93,166.58148917760917L161.20333333333332,166.55017179169118L161.51,166.52796224867944L161.66666666666666,166.4959737265516L161.73000000000002,166.47484860403304L161.80666666666667,166.45965318155444L161.85666666666668,166.4390611427025L161.87333333333333,166.42823268115308L162.22,166.36884095174966L162.78333333333336,166.3024344966827L163.47333333333333,166.2183059760925L163.55333333333334,166.1818833377308L164.54,166.05871318894043L164.69000000000003,166.01316989902762L164.69666666666666,165.99553207840992L164.87666666666667,165.9729490475251L164.90333333333334,165.96769788135427L165.07666666666668,165.950644218582L165.60666666666665,165.88540832688182L166.49,165.8195124496521L166.55,165.79361564462562L166.82666666666665,165.77136604164036L167.02666666666667,165.75307796594757L167.18333333333334,165.73467491919297L167.33666666666667,165.70231637397796L167.88,165.6354425789354L168.10666666666668,165.58304746817797L168.53666666666666,165.5421523194065L168.55999999999997,165.52875302230825L168.63000000000002,165.52527749839783L168.82,165.50984836278585L169.14333333333335,165.49460998364043L169.31333333333333,165.481155404794L169.4,165.478803602382L169.44333333333336,165.47879097658785L169.50333333333333,165.47923605627233L170.20333333333332,165.4502709476778L170.29666666666668,165.43788401989138L170.39333333333335,165.43230598234553L170.41,165.42890837322324L170.64999999999998,165.4270058561607L170.90666666666667,165.4280465468217L171.37666666666667,165.41932461129366L171.38000000000002,165.41597697285673L171.56333333333333,165.419457130782L171.59333333333333,165.4209685619305L171.84,165.4253605874161L171.97,165.4312587423821L172.47,165.4554596843397L172.56666666666666,165.4739047972493L172.72666666666666,165.48838328751856L172.89666666666665,165.50658328014634L172.95000000000002,165.5092820857463L173.00333333333333,165.50895828107662L173.07,165.50632033168156L173.41,165.52488918448876L173.44333333333333,165.53248161375342L173.81666666666666,165.54106781163L173.95,165.55116398401844L174.07666666666665,165.55666877453766L174.34666666666666,165.56049017400258L174.49666666666667,165.5686629652094L174.52,165.57456272608545L174.70666666666665,165.57376511299137L174.77,165.57680184362866L175.10999999999999,165.58247161172096L175.13333333333333,165.5826376486766L175.22333333333333,165.57650645736763L175.67333333333332,165.5456442920722L175.94333333333333,165.52249510731554L176.04333333333332,165.5132568165375L176.14999999999998,165.50627561189685L176.17333333333335,165.50303577318988L176.25333333333333,165.5008609035745L176.32,165.49776001710785L176.64,165.50399570918597L176.69,165.5077581360055L176.69666666666666,165.50840455164524L176.74999999999997,165.5117606755848L177.05333333333334,165.509503718333L177.36666666666667,165.52126198422914L177.4,165.52966542459163L177.5633333333333,165.5408170172157L178.48999999999998,165.58888392776078L178.89666666666665,165.61312845156726L179.13,165.6282750109632L179.19000000000003,165.63505710492797L179.24,165.63958505624828L179.39666666666668,165.64314202428628L179.8,165.6555929174466L179.80333333333334,165.66000602039315L179.95333333333332,165.65579765473362L180.13000000000002,165.66223791252685L180.15,165.66516558073766L180.19,165.66988527854159L180.27666666666667,165.67519458673053L180.28333333333333,165.67731001471682L180.39666666666665,165.6865491782824L180.54,165.68943158930023L180.64333333333335,165.6918846529161L180.79666666666668,165.70390833613016L181.04000000000002,165.72143926175247L181.09333333333333,165.73214818861246L181.57666666666665,165.76277109972187L181.69333333333333,165.77120008920048L181.92000000000002,165.77969637497625L182.15333333333334,165.79510071771136L182.37666666666667,165.8121011653898L182.42333333333335,165.81884561954843L182.6,165.83019475648604L183.05666666666667,165.85609975073316L183.07,165.86705654618845L183.07666666666665,165.87181279336724L183.3133333333333,165.88479102607062L183.64333333333335,165.90327832046898L183.69333333333333,165.91433046007623L183.85666666666668,165.92251635992756L183.9,165.92653924966896L183.9033333333333,165.92841290989958L184.00333333333333,165.9359493055984L184.30999999999997,165.96092071147277L184.6,165.98821289020728L184.87666666666667,166.0080098924781L185.14,166.01459978692625L185.17666666666668,166.0179329464707L185.57666666666665,166.04231392997167L185.71666666666667,166.0558999615602L185.87,166.06836580716148L186.49,166.091988226851L187.02666666666667,166.1236789070882L187.06666666666666,166.1368697394988L187.26,166.1509151417809L187.30999999999997,166.15707130675747L187.38333333333333,166.16293423474465L187.6,166.17052028642826L187.61999999999998,166.17337251738937L187.8033333333333,166.18539283805936L187.85,166.19286610360672L187.87666666666667,166.19763921458662L188.1233333333333,166.21012492610973L188.45333333333332,166.21617070354665L188.76999999999998,166.2181261899093L188.79666666666668,166.2202966136584L188.91666666666666,166.22138191112901L189.01333333333332,166.22479480704808L189.37333333333333,166.24654863613017L189.51333333333332,166.25551544596073L189.77333333333334,166.26390824409873L190.25333333333333,166.28254237988622L190.34666666666666,166.291283695095L190.48666666666668,166.2988715045867L190.55666666666667,166.3076322906315L190.76333333333332,166.32011432010248L190.79666666666668,166.32283382510178L190.84,166.32761780917457L190.86666666666667,166.3318196623393L191.23666666666668,166.34294082300732L191.41333333333333,166.35320817090505L191.51,166.36230302171123L191.7733333333333,166.36752062750153L192.32333333333332,166.3693065603821L192.34,166.37059653078424L192.72666666666666,166.38057655659532L192.8,166.38649952801723L193.2433333333333,166.37788732117858L193.43666666666667,166.37846823779L193.49,166.3804019832139L193.79333333333332,166.37816472985585L193.8733333333333,166.38064793862856L194.05333333333334,166.38882008039633L194.16666666666669,166.39480208891572L194.17333333333332,166.39757421985368L194.48666666666668,166.40890919484235L194.70000000000002,166.41895939864492L194.78333333333333,166.42519102893982L194.79666666666668,166.42735503614063L195.10333333333332,166.43754982808647L195.17333333333335,166.4441909688643L195.27333333333334,166.450782346191L195.43666666666667,166.45546385517207L195.73333333333335,166.45838433533513L195.76333333333335,166.4592966462255L196.32333333333335,166.48169324714362L196.33666666666667,166.49077994379746L196.35666666666665,166.4952568168687L196.5533333333333,166.50449663375593L196.73000000000002,166.5134592840651L196.74,166.51772967917933L196.86333333333332,166.5228808537426L197.11666666666665,166.50445849405207L197.34666666666666,166.50684993761644L197.79,166.52010682281698L197.87666666666667,166.5255694548798L197.95000000000002,166.5278555709769L198.08,166.52904925138697L198.20999999999998,166.53403793206633L198.21333333333334,166.53581651140996L198.42,166.5427521147729L198.6566666666667,166.5542195908344L198.66666666666669,166.5582607667158L198.67000000000002,166.55989197250565L198.82,166.56445751397632L198.89666666666665,166.56601758579632L198.96333333333334,166.56852268061692L199.48333333333335,166.5797488824147L199.66,166.58682091930888L199.70666666666668,166.58987995404277L199.98333333333335,166.59816136462163L200.22,169.12294617524717L200.40333333333334,169.82521943822434L200.45666666666668,169.71019138737742L200.48333333333332,169.69197848729806L200.94666666666666,169.3065447592166L201.2,168.76961128494523L201.61333333333334,168.20545994987418L201.62666666666667,168.00677698681872L201.67000000000002,167.9094808959203L201.78333333333336,167.89436540695718L202.14,167.9943327716895L202.18333333333334,168.0502395140724L202.41666666666666,168.24010754621503L202.48333333333335,168.38223330909352L202.56666666666666,168.4534558497112L202.57333333333332,168.4793549377079L202.82666666666665,168.5409987214046L202.88666666666668,168.6070945819602L202.9,168.6302037951515L202.99666666666667,168.64556067254549L203.05333333333334,168.65676986717173L203.07666666666665,168.66651917040414L203.13666666666666,168.63799154091873L203.21,168.58974276891684L203.25333333333333,168.56575133683296L203.36333333333334,168.56466595886707L203.38333333333333,168.57451129582523L203.51666666666668,168.5569820642668L203.60333333333335,168.55053783730762L203.86333333333332,168.50608165732424L203.94666666666666,168.4000984118947L204.09,168.24038855392212L204.18666666666667,168.10966578119465L204.85999999999999,168.24387467145414L204.89333333333335,168.2868738678586L204.91000000000003,168.27764647487396L204.91333333333333,168.27632928864173L204.98333333333332,168.256374173779L205,168.2457233392612L205.68666666666667,168.20599639681322L205.7,168.19866888109675L206.02333333333334,168.235729766458L206.05666666666667,168.25616602436995L206.5066666666667,168.34805901425204L206.5533333333333,168.39265667216875L206.63,168.40432153660225L206.96666666666667,168.41964681503433L207.37333333333333,168.5151455026147L207.50666666666666,168.59069678434642L207.57999999999998,168.6348963885094L208.24666666666667,168.7319412804031L208.63,168.78512827679566L208.94,168.8536638841221L209.51666666666665,168.95373458557518L209.60333333333332,168.96146025545661L210.61333333333334,168.88991913142155L210.68333333333334,168.87392460338359L210.87666666666667,168.82990037686338L210.96666666666667,168.8152647579861L211.03666666666666,168.81470351940325L211.28333333333333,168.83618125412082L211.29000000000002,168.84331971679154L211.4,168.82652921142696L211.50333333333333,168.75995279874599L211.51,168.73593000887146L211.59333333333333,168.70789711938485L211.67000000000002,168.69560969677102L212.04333333333332,168.67382184458904L212.1,168.66529230442637L212.32999999999998,168.66279786678356L212.43666666666667,168.67015052054504L212.73,168.664453459842L212.89333333333332,168.6498903728331L213.03333333333333,168.6441038040714L213.04999999999998,168.63896447653096L213.35333333333335,168.62495290515298L213.40333333333334,168.60071898200266L213.42333333333332,168.5846509559994L213.44666666666666,168.5677356904585L213.73333333333332,168.47863435979497L213.81,168.44251947505222L214.39666666666668,168.34278221319317L214.50333333333336,168.30161033013138L214.59,168.27229683093222L214.7133333333333,168.26899171641918L214.74666666666667,168.26447675058947L215.08333333333334,168.25867608175892L215.09,168.25698089127087L215.22333333333333,168.2649284119421L215.38666666666668,168.23144304171007L215.96,168.04830758232774L215.98666666666668,167.98169970741495L216.04999999999998,167.9494919129814L216.08333333333334,167.92888801501974L216.09333333333333,167.92153088682494L216.11,167.9181793769649L216.39666666666665,167.87981703079143L216.57666666666668,167.82138902359765L216.90333333333334,167.76379382281576L217.02,167.71674995814598L217.25,167.69806826349836L217.45333333333332,167.6669629379564L217.45666666666668,167.65491737641648L217.75333333333333,167.62805811409632L218.13666666666666,167.56419854043781L218.18666666666667,167.5330612873066L218.79999999999998,167.5261336149385L218.91333333333333,167.52750440490496L219.18333333333334,167.53459681906747L219.3033333333333,167.5454411370658L219.82,167.55087817567414L219.83,167.5510099295525L219.87,167.5461395037937L219.98999999999998,167.54165738923578L220.22333333333336,167.53854464840322L220.23666666666668,167.53772796915368L220.42666666666668,167.54118314391135L221.09666666666666,167.55222730173023L221.33,167.5657357844442L221.75333333333336,167.57063539653856L222.09666666666666,167.5828494846301L222.51333333333332,167.57925050565194L222.9,167.56297574688628L223.74666666666667,167.5839895301361L223.96333333333334,167.58494773585267L224.32333333333332,167.58702965940003L224.34333333333333,167.58852983017226L224.83999999999997,167.6017431885978L225.58,167.629139234638L226.26,167.68110674978496L226.28666666666666,167.70033030225548L226.48333333333332,167.7140227155326L226.54666666666668,167.7197598776482L226.74,167.7264379132463L227.01000000000002,167.73950001031812L227.29666666666665,167.74857111549318L227.56333333333333,167.76112914679044L227.57,167.76582085384672L228.02666666666667,167.79865517676836L228.30666666666667,167.8311633187545L228.79000000000002,167.8553575299506L228.81,167.86326433730235L228.83333333333334,167.86495952780092L228.86,167.86761108026795L229.07666666666665,167.87830162257427L229.15333333333334,167.89054132332973L229.43,167.9100256331765L229.44,167.91738192940838L229.47,167.9199832367324L229.71666666666667,167.9314982907198L230.01333333333335,167.90899592540373L230.17333333333332,167.90575383469212L230.23666666666668,167.90941655171423L230.30666666666667,167.9175439849495L230.37666666666667,167.91593615684656L230.48333333333332,167.91666151793467L230.52333333333334,167.91890381373847L230.95000000000002,167.92454069737448L231.0233333333333,167.92710688526537L231.07,167.92915687778978L231.07333333333332,167.92887134487756L231.14333333333335,167.9278338341417L231.19666666666666,167.93060714645839L231.68666666666667,167.93148960721305L231.73333333333335,167.9335585384894L231.94333333333333,167.9406599949802L232.05333333333334,167.9400828559999L232.21333333333334,167.94050067498074L232.26,167.9428802655012L232.36333333333334,167.93729491253745L232.39333333333335,167.93623309514493L232.5233333333333,167.9333802026264L232.72666666666666,167.94091144261654L232.92,167.95470952515063L233.17666666666668,167.97001286613548L233.19,167.97230799083462L233.28,167.9697345298366L233.69,167.97955884037987L234.27666666666664,168.00760288936502L234.33,168.01998063822043L234.50666666666666,168.0146891191681L234.73666666666668,168.02785492495366L234.84,168.03475061444882L234.86666666666665,168.03984717647762L235.12333333333333,168.04752991948519L235.15333333333334,168.05222624407295L235.3033333333333,168.05936178197956L235.53,168.0533120602755L236.62333333333333,168.07956364164792L237.09,168.08995314887082L237.16,168.09704428784758L237.26000000000002,168.10184875386247L237.30333333333334,168.10433051021928L237.35666666666668,168.1086680492989L237.38,168.11167316985748L237.66666666666669,168.12100804012226L237.81666666666666,168.13066819335114L237.88000000000002,168.13150900050783L237.99666666666667,168.12989823078584L238.41,168.1154428232548L238.86666666666667,168.11998353356253L238.94,168.1222689488295L238.97333333333336,168.12629071897751L239.09,168.12227782968102L239.24,168.1258857240853L239.27666666666667,168.128033314285L239.82666666666668,168.154394137441L239.83333333333331,168.16386887278784L240.02666666666664,168.1689973614578L240.08333333333331,168.17365866589094L240.16333333333333,168.1761124531026L240.19666666666666,168.17453270736857L240.32000000000002,168.1766592532196L240.39333333333332,168.17840892926245L240.57,168.18620698076703L240.81666666666666,168.19234386432652L240.83999999999997,168.19511725572568L240.96666666666664,168.20063814829172L241.64,168.22132161076033L241.86333333333334,168.22936723880505L242.07333333333335,168.23699630880407L242.12333333333333,168.24166341255162L242.46,168.2450325099438L242.47,168.2458933522652L242.69666666666666,168.23882915776997L243.09333333333333,168.23124888875822L243.24333333333334,168.23229229699712L244,168.24612191358375L244.23333333333335,168.23768619862616L244.52666666666667,168.2395796914074L244.68666666666667,168.24125770160788L244.89666666666665,168.23999396269318L244.93333333333334,168.2382502076278L245.96333333333334,168.2167082648584L246.36333333333334,168.21172739540089L246.39000000000001,168.21097204880874L246.51,168.2157953246523L246.76666666666668,168.22679075582747L246.79666666666668,168.2312227922095L247.50666666666666,168.23285555883308L248.07999999999998,168.24176991108015L248.16333333333333,168.24426579540474L248.21666666666664,168.2430372157274L248.68666666666667,168.24018793539142L248.73666666666665,168.23980824428168L248.84,168.24092032588385L249.18333333333334,168.24741419187367L249.34333333333333,168.24856728042295L249.51333333333332,168.25478092762626L249.63666666666666,168.26285842689842L249.82,168.2705866390321L249.82666666666668,168.27361804457445L249.88,168.27709604707096L250.06333333333333,168.281591632326L250.79666666666668,168.28205847491944L250.82333333333335,168.28290926647108L250.83666666666667,168.283299777852L251.01666666666668,168.28766117604124L251.35,168.29448437419498L251.93,168.30596190424356L252.18333333333334,168.31461081904826L252.29333333333335,168.31870138287886L252.36666666666667,168.32172689532837L252.45666666666665,168.32389597165232L253.5,168.3499175316251L253.93,168.35749396834495L254.01,168.3626401187093L254.23000000000002,168.35825590781798L254.33666666666667,168.3507092365907L254.50000000000003,168.3480891055777L254.51333333333335,168.34585529184454L255.88666666666668,168.37173233002926L256.06,168.38231757996712L256.7033333333333,168.39398709492417L256.93,168.39864758631845L256.99,168.402466889229L257.38,168.41095043097178L257.39666666666665,168.4146938213927L257.46666666666664,168.41097751100273L257.46999999999997,168.40982036081587L257.48333333333335,168.40910742041953L257.62,168.41018579387276L257.68333333333334,168.4126004844061L258.18333333333334,168.4205537570631L258.19,168.42342781100666L258.4,168.43299328011904L258.40999999999997,168.4360843953181L258.7266666666667,168.44760279220256L258.8533333333333,168.45041481625512L259.18666666666667,168.45140729001002L259.32666666666665,168.45471680040836L259.66333333333336,168.4581610697843L259.84,168.46244922638493L259.97,168.4630337987689L260.04,168.46335728684187L260.3666666666667,168.47487834480881L260.37666666666667,168.4795650405703L260.45666666666665,168.4837594366696L260.55333333333334,168.48377845109067L260.78,168.48224414191895L260.81,168.4817109161275L261.71,168.5012904226678L262.04333333333335,168.50277522702515L262.06,168.50335528267988L262.14,168.50539673948737L262.68,168.49618299650848L262.69666666666666,168.49113888374876L262.7733333333333,168.48851020036165L263.0466666666666,168.48749588070092L263.19,168.48728894858598L263.34666666666664,168.48943380569244L263.59333333333336,168.49616185667625L263.68666666666667,168.50182570535705L263.7866666666667,168.50591660657253L263.99,168.50506546180281L264.01666666666665,168.50446211986372L264.0266666666667,168.5039090303735L264.22666666666663,168.50566250040401L264.2766666666667,168.50872471962307L264.39666666666665,168.51248068356153L264.54333333333335,168.51506962034406L264.61333333333334,168.5195869648241L264.68,168.5235901681687L264.93666666666667,168.53095255160915L265.12,168.53502321959112L265.1433333333333,168.53570384560658L265.43,168.52506345779773L265.43333333333334,168.52105201152656L265.73333333333335,168.51837066110056L265.92,168.51940802797L266.02666666666664,168.52201500958182L266.5,168.5222455495768L266.62,168.5236360531646L266.7866666666667,168.5276908472884L266.88,168.53166757911404L266.93,168.53239054126502L267.1066666666667,168.53856568556583L267.75666666666666,168.5524189702334L268.05333333333334,168.56039922919064L268.25333333333333,168.5637642240334L268.2933333333333,168.56553048179498L268.47,168.56530593636754L268.68666666666667,168.56357135258628L269.1,168.5661249856737L269.4533333333333,168.56913383360597L269.52333333333337,168.573717773927L269.73,168.5752682318713L269.7866666666667,168.5763035162084L269.84,168.57640170071738L269.8666666666667,168.57725777920524L269.9866666666667,168.58140641392967L270.1166666666667,168.58541488535053L270.23333333333335,168.58656353071282L270.49666666666667,168.5924401742464L270.6933333333333,168.5936573010653L270.85,168.59661545118877L270.88666666666666,168.59690717505003L270.9633333333333,168.59795155122632L271.0733333333333,168.60176612135604L271.07666666666665,168.60338328350306L271.11333333333334,168.60431939719328L271.2733333333333,168.60833562502137L271.2766666666667,168.6099723794119L271.47666666666663,168.61128787212974L271.5933333333333,168.61484257046646L271.9266666666667,168.6112575279793L272.0733333333333,168.6110384552875L272.18333333333334,168.60930838127882L272.2366666666667,168.6075849242256L272.26,168.60662341142267L273.00666666666666,168.61379028962523L273.1166666666667,168.61946273939174L273.18,168.62268252604503L273.24,168.62220386736124L273.34000000000003,168.62454389318424L273.5,168.62894275069985L273.6933333333333,168.6315017227081L274.03,168.63348585713086L274.13666666666666,168.63438006002045L274.32666666666665,168.63583275784345L274.50333333333333,168.63810731342576L274.79333333333335,168.64222309652558L275.03,168.64329451093784L275.05333333333334,168.64445724867602L276.03000000000003,168.63966543347988L276.1033333333333,168.63766436112343L276.25,168.6372283186275L276.66,168.63971579112007L276.84333333333336,168.64441885166391L276.85999999999996,168.6456489347108L277.10333333333335,168.6469353230291L277.15,168.64781685950436L277.22666666666663,168.64907609858074L277.50666666666666,168.65453714016058L277.8666666666667,168.6611771973636L278.33,168.66896651004237L278.92333333333335,168.6775437604925L279.18,168.68071716471513L279.26666666666665,168.68312528870564L279.4833333333333,168.69100665970993L279.9433333333333,168.70170391349632L279.97,168.7067673838089L279.99,168.70889231381906L280.5833333333333,168.71784687726924L280.73333333333335,168.7217286942931L281.09333333333336,168.72230396246056L281.34,168.72292384656072L281.3566666666667,168.7234478028035L281.37333333333333,168.7241138571716L281.9066666666667,168.73001198328177L282.09666666666664,168.7347616015392L282.49666666666667,168.74090290924374L282.8566666666667,168.74379933961674L283.14666666666665,168.74283587118396L283.1666666666667,168.74345852942116L283.2,168.74397763636793L283.3333333333333,168.74618777592244" style="fill: none;" fill="none"></path></g></g></g></g><g opacity="0.2"><g><g><g><path stroke="rgb(255, 112, 67)" stroke-width="2px" d="M33.336666666666666,28.28929352760315L93.43333333333334,164.99126587808132L93.56666666666666,163.9838047027588L93.70333333333333,162.26897113770247L93.95666666666668,161.6092030853033L93.98666666666666,161.61783695966005L94.92333333333333,162.54191999137402L95.00666666666667,162.53767492622137L95.14,162.57201129198074L95.50333333333333,162.87647438049316L95.75666666666667,163.23736162483692L96.06666666666668,163.22783099859953L96.15333333333334,163.25767305493355L96.30333333333334,163.38798429071903L96.66666666666667,163.4327770471573L96.76666666666667,163.47390235215425L96.88000000000001,163.50724437832832L96.99666666666667,163.4864067658782L97.02666666666667,163.4989705234766L97.1,163.48619840294123L97.11333333333333,163.48159859329462L97.2,163.48771101236343L97.25333333333333,163.46159970760345L97.44999999999999,163.51807793229818L97.56666666666668,163.52534821629524L97.59333333333333,163.55817461013794L97.95,163.51129690557718L97.99666666666666,163.49425993859768L98.08666666666667,163.46581576019526L98.14333333333335,163.39362855255604L98.34333333333333,163.22858268767595L98.51333333333334,163.32028084248304L98.78,163.3880581408739L98.84666666666666,163.35725471377373L99.15333333333332,163.37834684550762L99.16333333333333,163.37997023016214L99.22,163.4010254368186L99.44666666666667,163.36619322001934L99.67666666666668,163.285762488842L99.69,163.2770890519023L100.07000000000001,163.28845538198948L100.10333333333334,163.28692958503962L100.57666666666665,163.3821910098195L100.95333333333333,163.47548485547304L101.38333333333333,163.48932384699583L101.64,163.48907855898142L102.58999999999999,163.53813748061657L102.63000000000001,163.5404281541705L102.74666666666667,163.58240801095963L102.97333333333334,163.5923804193735L103.06333333333333,163.6009206622839L103.16,163.63497349619865L103.40666666666667,163.70242374390364L104.06666666666668,163.89100670814514L104.14,163.88257460296154L104.15666666666667,163.8878984078765L104.58666666666667,163.96976130455732L104.70666666666666,164.00854318588972L105.26333333333334,164.17796071618795L105.32000000000001,164.14896002411842L105.89999999999999,164.21789782494307L106.02333333333334,164.24922743439674L106.21666666666667,164.29946400225163L106.44666666666666,164.36512997746468L106.72,164.34328351914883L107.14,164.31440415233374L107.19666666666666,164.3108039572835L107.32666666666667,164.30497375130653L107.78333333333333,164.2265778556466L107.96,164.19534847140312L108.13,164.1771338582039L108.26,164.16138135641813L108.77,164.02242305874825L108.89333333333333,164.00563401728868L108.91999999999999,164.0007757321L109.22,163.988350443542L109.26333333333334,163.97044837474823L109.35333333333334,163.97259662300348L109.38333333333333,163.9645021185279L109.40333333333334,163.96689829230309L109.43333333333332,163.97423847019672L109.60666666666667,163.96847815811634L109.64666666666666,163.97166822105646L109.65333333333334,163.97127259522676L109.66,163.97115126997232L109.71333333333332,163.95483434200287L109.96,163.93664610385895L109.99333333333333,163.9407065436244L110.07333333333334,163.94894083589315L110.22333333333334,163.95969526469707L110.25999999999999,163.96313193440437L110.31,163.97045496851206L110.42666666666668,163.96598307788372L110.47666666666667,163.9623327702284L110.56666666666668,163.96579053997993L110.64333333333333,163.97224979102612L110.90333333333334,163.90432611107826L111.10333333333332,163.86062528192997L111.22333333333333,163.82497280091047L111.52666666666667,163.7912733927369L111.83666666666667,163.7828531563282L112.28,163.78075765818357L112.55999999999999,163.76721538603306L113.10333333333334,163.76487591862679L113.17666666666668,163.77238357812166L113.19666666666667,163.77488788962364L113.34,163.76224764436483L113.62333333333333,163.76134825497866L114.29666666666667,163.79086589813232L114.56333333333333,163.8123009055853L114.80666666666667,163.81881026923656L114.88000000000001,163.8165776208043L115.04333333333332,163.8374205082655L115.18333333333332,163.84480156749487L115.39333333333333,163.88087604939938L115.45666666666666,163.88875955343246L115.52,163.8990946188569L115.52666666666666,163.9013061672449L115.58666666666667,163.9057490453124L115.71333333333334,163.92242994904518L116.00666666666667,163.93530229479074L116.09333333333332,163.94641806185246L116.10333333333332,163.94594726711512L116.14666666666666,163.95012111961842L116.47666666666667,163.94135800749063L116.81,162.73402666300535L116.85666666666667,163.51368516683578L117,164.4810364767909L117.02,164.72673726081848L117.30333333333333,163.88754366338253L117.58666666666667,164.66247575730085L117.72333333333333,164.77204433083534L117.93666666666667,165.25291961431503L118.11,165.41427824646235L118.39666666666666,165.2937112748623L118.67,165.26384284347296L118.85333333333334,165.35829719156027L118.89,165.42397239804268L119.21666666666667,165.6486100628972L119.48666666666668,165.84023934602737L119.92333333333333,166.1230491735041L119.94999999999999,166.07985870167613L120.12666666666667,166.07828674837947L120.32000000000001,165.92769902944565L120.41999999999999,165.98474761471152L120.47333333333333,166.02137069776654L120.50666666666666,166.00880166515708L120.53666666666666,165.99893475696445L120.70333333333333,166.12246760353446L121.01666666666667,166.02480209246278L121.14333333333333,166.01187897473574L121.23,165.99744456633925L121.24666666666667,165.97916071861982L121.33666666666667,165.87450581789017L121.46,165.74569400399923L121.59,165.66383242607117L122.06333333333333,165.495388135314L122.07666666666667,165.487239561975L122.13000000000001,165.406120441854L122.2,165.39291840791702L122.31333333333335,165.40015572309494L122.33333333333334,165.40019001066685L122.41666666666667,165.4178744852543L122.57333333333332,165.4333671927452L123.4,165.45972906053066L123.43666666666667,165.40525138378143L124.01666666666665,165.14852978289127L124.10000000000001,165.1764596477151L124.16333333333334,165.1660691946745L124.26,165.1825799793005L124.64333333333333,165.2285385131836L124.73333333333333,165.26872222870588L124.83333333333333,165.30926860123873L124.98333333333333,165.35979661345482L125.03333333333335,165.35032269358635L125.17666666666666,165.35677403211594L125.41,165.3786165341735L125.48,165.39271136373281L125.60666666666667,165.4276886433363L125.69,165.44499199837446L125.76666666666667,165.48062206059694L126.66666666666667,165.6347829401493L127.11666666666666,165.67656630277634L127.12,165.67972339689732L127.73666666666666,165.66007661819458L127.96333333333334,165.71166490763426L128.14,165.73836305737495L128.25,165.72559489309788L128.26333333333332,165.73704562336206L128.41666666666669,165.7573913410306L128.43666666666667,165.74764443933964L128.52333333333334,165.78510229289532L128.80666666666667,165.88980334997177L129.53333333333333,165.9776408560574L129.57666666666665,165.96035200729966L129.61666666666667,165.97977459803224L129.70333333333332,165.98034957423806L129.86,165.97457211837173L130.09333333333333,165.9462090432644L130.09666666666666,165.94549296051264L130.14666666666668,165.9469152353704L130.26333333333332,165.9873172044754L130.32,166.00538939237595L130.37,166.01818393170834L130.55333333333334,165.99851539358497L130.56,165.9964601173997L130.57666666666668,165.99663023650646L130.76666666666665,166.0074875280261L130.85999999999999,166.0230771638453L131,166.03351311385632L131.28333333333333,166.04658920690417L131.34,166.0537684969604L132.17,166.09969010576606L132.32999999999998,166.11901181191206L132.34666666666666,166.12121940404177L132.66,166.1785119585693L132.66666666666669,166.17880933731794L132.68333333333334,166.18827732279897L132.74,166.18843491375446L132.82333333333332,166.1879990659654L133.19666666666666,166.1995876058936L133.47666666666666,162.81310831010342L133.76000000000002,164.54097774624825L133.92000000000002,164.7723529189825L134.06666666666666,165.60912264883518L134.11333333333334,165.56247440725565L134.19666666666666,165.52821584790945L134.31,165.82875828444958L134.37,165.99286651611328L134.37666666666667,165.96903467550874L134.56333333333333,166.124681789428L134.84333333333333,166.3870694115758L134.88333333333333,166.37460456043482L135.59,165.96240992099047L135.90666666666667,166.06122010946274L136.00333333333333,166.07228576391935L136.05666666666667,166.06731736287475L136.15666666666667,166.1272230260074L136.16666666666666,166.12567546963692L136.19333333333333,166.05479910224676L136.45,165.86669352650642L137.17,165.6096514686942L137.27333333333334,165.67608100175858L137.55666666666667,165.76957793533802L137.80333333333334,165.85030934214592L138.36,165.6499274969101L138.83333333333334,165.73563983291388L138.84,165.73679374158382L139.31,165.82949546724558L139.45333333333335,165.9052340760827L139.64333333333332,165.935226470232L140.46666666666667,166.34656853601336L140.51333333333332,166.34671953320503L140.67,166.34216785803437L140.86666666666667,166.3123014047742L140.93333333333334,166.31497517600656L140.94,166.3172163963318L141.10999999999999,166.22438477352262L141.31666666666666,166.2104659974575L141.5,166.25446684285998L141.92666666666668,166.34584322199225L142.10666666666665,166.35523142293096L142.22,166.35885535553098L142.24666666666667,166.3639998100698L142.25,166.3658546358347L142.42333333333335,166.39665015041828L142.53666666666666,166.4078806489706L142.55666666666667,166.41066981106997L142.86,166.4262693375349L143.01333333333332,166.43463880196214L143.43333333333334,166.53310281783342L143.48333333333335,166.54847881570458L143.50666666666666,166.5522755049169L143.56666666666666,166.57495607435703L143.58333333333334,166.58476561680436L143.71666666666667,166.54745216667652L143.72,166.5498338341713L143.76,166.5501720942557L143.87333333333333,166.5780485495925L144.1,166.56410537660122L144.38333333333335,166.48987739905715L144.48333333333332,166.46500440314412L145.19333333333333,166.45358861982822L145.22,166.44352851435542L145.26666666666668,166.41936698555946L145.41,166.43776490539312L145.44666666666666,166.4375426955521L145.45666666666665,166.44182138890028L145.53,166.42965787276626L145.64666666666668,166.41731698438525L145.95,166.45830777660012L146.82666666666665,166.73570873960853L146.92000000000002,166.74271065741777L147.32999999999998,166.77517637237906L147.55,166.76369926705956L147.75,166.74964927509427L148.02333333333334,166.74765663966537L148.07999999999998,166.7450323216617L148.14333333333332,166.7371039800346L148.26333333333332,166.75884296000004L148.40666666666667,166.75771740451455L148.56333333333333,166.77970101311803L148.65666666666667,166.76771157234907L148.71666666666667,166.7677293755114L149.0533333333333,166.84500828757882L149.17333333333332,166.85308894515038L149.26666666666665,166.87494990974665L149.42333333333335,166.8486335389316L149.5,166.84075728803873L149.59,166.8475389741361L149.63666666666666,166.8416837118566L150.04333333333332,166.79805343598127L150.10333333333335,166.79510140791535L150.26666666666668,166.8032209686935L150.3,166.79155066609383L150.33666666666667,166.7928034812212L150.37,166.7944123595953L150.42,166.7956757247448L151.09,166.82496720179915L151.12666666666667,166.82581318169832L151.29333333333335,166.84092081338167L151.41666666666666,166.85507894307375L151.75666666666666,166.82480565458536L151.99666666666667,166.84779349341989L152.11666666666667,166.8668573834002L152.2,166.86634900420904L152.25333333333333,166.87958532571793L152.29000000000002,166.88185489922762L152.37,166.88068384677172L152.43,166.88063900917768L152.46,166.88630371168256L152.75,166.91955276578665L153.04666666666668,166.9044484309852L153.11666666666667,166.9069257080555L153.41333333333336,166.90887482464314L153.56666666666666,166.9020951166749L153.94,166.9096476137638L154.1966666666667,166.89174752309918L154.21666666666667,166.89373092725873L154.85333333333332,166.9420058503747L154.95666666666668,166.95671521872282L155.00666666666666,166.92772507667542L155.06,166.91200620308518L155.14,166.88903484866023L155.27333333333334,166.88239163160324L155.33,166.88131355121732L155.47333333333333,166.90001610293984L155.67333333333332,166.89570246264338L155.67666666666665,166.89621809497476L155.76333333333332,166.8913248628378L156.79333333333335,166.80846432968974L156.93333333333334,166.76207654178143L157.25,166.68505280837417L157.88333333333333,166.60547267273068L158.09,166.62485833838582L158.09333333333333,166.6258230060339L158.14666666666668,166.6326079890132L158.26333333333335,166.62515176087618L158.34333333333333,166.61008237302303L158.38333333333333,166.6043128296733L158.39333333333332,166.60256218537688L158.66666666666666,166.59327420964837L158.68666666666667,166.59593083709478L158.75333333333333,166.60154147073627L159.1,166.57143302634358L159.14333333333335,166.55815120786428L159.19333333333333,166.55113280564547L159.58666666666664,166.5654267668724L159.65,166.5661415308714L159.77333333333334,166.55681267380714L160.10666666666665,166.56380865722895L160.39333333333335,166.60431085154414L160.5366666666667,166.60679472237825L160.73333333333335,166.60729716718197L160.89666666666668,166.5829285942018L160.93,166.57608558610082L161.20333333333332,166.5321704596281L161.51,166.51519613340497L161.66666666666666,166.47758662328124L161.73000000000002,166.46270581707358L161.80666666666667,166.45091880485415L161.85666666666668,166.42722477391362L161.87333333333333,166.42200844734907L162.22,166.334702398628L162.78333333333336,166.26426385715604L163.47333333333333,166.1699486374855L163.55333333333334,166.16094749048352L164.54,165.98791459947824L164.69000000000003,165.9869914725423L164.69666666666666,165.9853938035667L164.87666666666667,165.95996825024486L164.90333333333334,165.96467949450016L165.07666666666668,165.94084171950817L165.60666666666665,165.8479105308652L166.49,165.7816352918744L166.55,165.77873007953167L166.82666666666665,165.75857689976692L167.02666666666667,165.7425659224391L167.18333333333334,165.7240967899561L167.33666666666667,165.68371658027172L167.88,165.5970033109188L168.10666666666668,165.5529305934906L168.53666666666666,165.5186456590891L168.55999999999997,165.52105106413364L168.63000000000002,165.5232797563076L168.82,165.50097964704037L169.14333333333335,165.48585091531277L169.31333333333333,165.47342167049646L169.4,165.4774517789483L169.44333333333336,165.47878371924162L169.50333333333333,165.47949188947678L170.20333333333332,165.43362171202898L170.29666666666668,165.4307639747858L170.39333333333335,165.42909970879555L170.41,165.4269554167986L170.64999999999998,165.42591228336096L170.90666666666667,165.4286447390914L171.37666666666667,165.4143112152815L171.38000000000002,165.41405273973942L171.56333333333333,165.42145753651857L171.59333333333333,165.42183733731508L171.84,165.42788513749838L171.97,165.43464902043343L172.47,165.46937046200037L172.56666666666666,165.48450710624456L172.72666666666666,165.49670556932688L172.89666666666665,165.51704469323158L172.95000000000002,165.51083336770535L173.00333333333333,165.50877215713263L173.07,165.50480403006077L173.41,165.53556261956692L173.44333333333333,165.5368457660079L173.81666666666666,165.5460031852126L173.95,165.55696729570627L174.07666666666665,165.55983294546604L174.34666666666666,165.56268672645092L174.49666666666667,165.57336071133614L174.52,165.5779539272189L174.70666666666665,165.57330664247274L174.77,165.57854736596346L175.10999999999999,165.58573061227798L175.13333333333333,165.58273308724165L175.22333333333333,165.5729822292924L175.67333333333332,165.52790462225676L175.94333333333333,165.50918888300657L176.04333333333332,165.50794661790133L176.14999999999998,165.50226279348135L176.17333333333335,165.50117350369692L176.25333333333333,165.49961078166962L176.32,165.49597761780024L176.64,165.50758000463247L176.69,165.5099207907915L176.69666666666666,165.50877611339092L176.74999999999997,165.51368978619576L177.05333333333334,165.50820641219616L177.36666666666667,165.52802067250013L177.4,165.5344957485795L177.5633333333333,165.54722698777914L178.48999999999998,165.61651293933392L178.89666666666665,165.62706428021193L179.13,165.63698130100965L179.19000000000003,165.63895547389984L179.24,165.64218773692846L179.39666666666668,165.64518658071756L179.8,165.66274973005056L179.80333333333334,165.66254268586636L179.95333333333332,165.65337867289782L180.13000000000002,165.66593979299068L180.15,165.66684841364622L180.19,165.67259817570448L180.27666666666667,165.67824639379978L180.28333333333333,165.6785259693861L180.39666666666665,165.69185987859964L180.54,165.69108840823174L180.64333333333335,165.69329468160868L180.79666666666668,165.71081958711147L181.04000000000002,165.73151609301567L181.09333333333333,165.7383037135005L181.57666666666665,165.78037324547768L181.69333333333333,165.7760450989008L181.92000000000002,165.78458006680012L182.15333333333334,165.80395518243313L182.37666666666667,165.8218730762601L182.42333333333335,165.82272235304117L182.6,165.83671827614307L183.05666666666667,165.87099002301693L183.07,165.87335454672575L183.07666666666665,165.8745466992259L183.3133333333333,165.89225095510483L183.64333333333335,165.9139048755169L183.69333333333333,165.92068326473236L183.85666666666668,165.92722164094448L183.9,165.92885161936283L183.9033333333333,165.9294898957014L184.00333333333333,165.94028124958277L184.30999999999997,165.97527435421944L184.6,166.00390052050352L184.87666666666667,166.01938927173615L185.14,166.01838767901063L185.17666666666668,166.01984885707498L185.57666666666665,166.05632819607854L185.71666666666667,166.0637092553079L185.87,166.07553121447563L186.49,166.10556646808982L187.02666666666667,166.14189480990171L187.06666666666666,166.14445187151432L187.26,166.15898848325014L187.30999999999997,166.16060988977551L187.38333333333333,166.16630426421762L187.6,166.17488077282906L187.61999999999998,166.17501198872924L187.8033333333333,166.19230215623975L187.85,166.1971617601812L187.87666666666667,166.2003828138113L188.1233333333333,166.21730175241828L188.45333333333332,166.21964583545923L188.76999999999998,166.21925020962954L188.79666666666668,166.2215441800654L188.91666666666666,166.22200574353337L189.01333333333332,166.22675655037165L189.37333333333333,166.25905280560255L189.51333333333332,166.26066959649324L189.77333333333334,166.26873245090246L190.25333333333333,166.29325333982706L190.34666666666666,166.2963082306087L190.48666666666668,166.30323300138116L190.55666666666667,166.31266801804304L190.76333333333332,166.32728902995586L190.79666666666668,166.32439700514078L190.84,166.3303676582873L190.86666666666667,166.33423490077257L191.23666666666668,166.34933330118656L191.41333333333333,166.35910987481475L191.51,166.36753077059984L191.7733333333333,166.3705197237432L192.32333333333332,166.37033312022686L192.34,166.3713380098343L192.72666666666666,166.3863131068647L192.8,166.38990407064557L193.2433333333333,166.37293699756265L193.43666666666667,166.3788021504879L193.49,166.3815135061741L193.79333333333332,166.3768787495792L193.8733333333333,166.38207529485226L194.05333333333334,166.39351745322347L194.16666666666669,166.39824056625366L194.17333333333332,166.39916764944792L194.48666666666668,166.41542457416654L194.70000000000002,166.42473628744483L194.78333333333333,166.4287729896605L194.79666666666668,166.42859891429543L195.10333333333332,166.4434098266065L195.17333333333335,166.44800831750035L195.27333333333334,166.45457109063864L195.43666666666667,166.4581548012793L195.73333333333335,166.4600630365312L195.76333333333335,166.4598210453987L196.32333333333335,166.49456688389182L196.33666666666667,166.49600300565362L196.35666666666665,166.49783013761044L196.5533333333333,166.5098077096045L196.73000000000002,166.51861104369164L196.74,166.52018431574106L196.86333333333332,166.52584176510572L197.11666666666665,166.4938692636788L197.34666666666666,166.50822454690933L197.79,166.52772692218423L197.87666666666667,166.52870939299464L197.95000000000002,166.52916963770986L198.08,166.52973538264632L198.20999999999998,166.5369054414332L198.21333333333334,166.53683884441853L198.42,166.5467387214303L198.6566666666667,166.5608111321926L198.66666666666669,166.56058364734054L198.67000000000002,166.56082959473133L198.82,166.5670818015933L198.89666666666665,166.56691431999207L198.96333333333334,166.56996261700988L199.48333333333335,166.58620173856616L199.66,166.59088594838977L199.70666666666668,166.59163829684258L199.98333333333335,166.60292154550552L200.22,170.5742004364729L200.40333333333334,170.2288883216679L200.45666666666668,169.64407290145755L200.48333333333332,169.68150965496898L200.94666666666666,169.08499623835087L201.2,168.460980232805L201.61333333333334,167.88118398562074L201.62666666666667,167.89257339388132L201.67000000000002,167.8535547964275L201.78333333333336,167.88567697629333L202.14,168.0517943277955L202.18333333333334,168.0823748856783L202.41666666666666,168.34924428910017L202.48333333333335,168.46392764523625L202.56666666666666,168.4943947903812L202.57333333333332,168.49424181506038L202.82666666666665,168.5764317624271L202.88666666666668,168.6450866907835L202.9,168.64348704367876L202.99666666666667,168.65438785403967L203.05333333333334,168.66321294754744L203.07666666666665,168.6721231006086L203.13666666666666,168.62159376963973L203.21,168.5620092228055L203.25333333333333,168.5519609861076L203.36333333333334,168.56404208019376L203.38333333333333,168.58017042651772L203.51666666666668,168.54690620675683L203.60333333333335,168.54683367535472L203.86333333333332,168.48052810505033L203.94666666666666,168.3391789086163L204.09,168.14858682453632L204.18666666666667,168.03452591970563L204.85999999999999,168.32101836428046L204.89333333333335,168.3115899413824L204.91000000000003,168.27234254032373L204.91333333333333,168.27557216584682L204.98333333333332,168.24490391090512L205,168.23960120603442L205.68666666666667,168.1831612251699L205.7,168.19445700198412L206.02333333333334,168.25703248009086L206.05666666666667,168.2679128497839L206.5066666666667,168.40087939426303L206.5533333333333,168.41829154640436L206.63,168.41102653741837L206.96666666666667,168.42845583334565L207.37333333333333,168.5700384490192L207.50666666666666,168.6341238990426L207.57999999999998,168.66030246019363L208.24666666666667,168.7877229899168L208.63,168.81570032984018L208.94,168.89305836707354L209.51666666666665,169.0112555399537L209.60333333333332,168.96590099483728L210.61333333333334,168.84879706799984L210.68333333333334,168.86473089829087L210.87666666666667,168.8045951128006L210.96666666666667,168.80685215815902L211.03666666666666,168.81438091769814L211.28333333333333,168.84852672368288L211.29000000000002,168.84742292761803L211.4,168.8168779760599L211.50333333333333,168.72168446704745L211.51,168.72212163358927L211.59333333333333,168.69178372621536L211.67000000000002,168.68854684755206L212.04333333333332,168.6612981185317L212.1,168.66038949787617L212.32999999999998,168.66136405617L212.43666666666667,168.6743768490851L212.73,168.6611787714064L212.89333333333332,168.6415194645524L213.03333333333333,168.64077766612172L213.04999999999998,168.63601037487388L213.35333333333335,168.616899009794L213.40333333333334,168.58678924664855L213.42333333333332,168.57541500404477L213.44666666666666,168.55801274254918L213.73333333333332,168.42741863429546L213.81,168.42176052555442L214.39666666666668,168.2854529209435L214.50333333333336,168.27794460207224L214.59,168.25544733926654L214.7133333333333,168.26709192618728L214.74666666666667,168.26188153401017L215.08333333333334,168.2553418390453L215.09,168.25600649043918L215.22333333333333,168.26949667185545L215.38666666666668,168.21219554543495L215.96,167.9430407434702L215.98666666666668,167.9434132911265L216.04999999999998,167.93097877129912L216.08333333333334,167.9170448295772L216.09333333333333,167.9173019863665L216.11,167.91625291854143L216.39666666666665,167.8577662333846L216.57666666666668,167.78780442103744L216.90333333333334,167.73068792000413L217.02,167.68970899656415L217.25,167.6873299665749L217.45333333333332,167.64908349886537L217.45666666666668,167.64799354970455L217.75333333333333,167.6126193255186L218.13666666666666,167.5274918563664L218.18666666666667,167.51516349613667L218.79999999999998,167.52215156704187L218.91333333333333,167.52829233929515L219.18333333333334,167.5386735610664L219.3033333333333,167.5516744852066L219.82,167.55400340259075L219.83,167.55108566209674L219.87,167.54333996772766L219.98999999999998,167.53908105567098L220.22333333333336,167.53675543516874L220.23666666666668,167.53725853934884L220.42666666666668,167.5431691892445L221.09666666666666,167.55857551842928L221.33,167.57350050285459L221.75333333333336,167.57345170900226L222.09666666666666,167.58987018093467L222.51333333333332,167.5771818011999L222.9,167.5536209642887L223.74666666666667,167.59606831893325L223.96333333333334,167.58549851551652L224.32333333333332,167.58822635561228L224.34333333333333,167.58939213305712L224.83999999999997,167.60933826863766L225.58,167.64488656818867L226.26,167.71097784116864L226.28666666666666,167.71138006076217L226.48333333333332,167.72189315780997L226.54666666666668,167.72305761650205L226.74,167.73027646914124L227.01000000000002,167.7470081448555L227.29666666666665,167.7537852153182L227.56333333333333,167.76834754273295L227.57,167.76851766183972L228.02666666666667,167.81752844899893L228.30666666666667,167.849849101156L228.79000000000002,167.86926443874836L228.81,167.86780919507146L228.83333333333334,167.8659339286387L228.86,167.86913520097733L229.07666666666665,167.88444657996297L229.15333333333334,167.89757674187422L229.43,167.92122527584434L229.44,167.9216103516519L229.47,167.92147847637534L229.71666666666667,167.93811718001962L230.01333333333335,167.89606149494648L230.17333333333332,167.9038902707398L230.23666666666668,167.91152189299464L230.30666666666667,167.92221565917134L230.37666666666667,167.91501197218895L230.48333333333332,167.91707845777273L230.52333333333334,167.92019269242883L230.95000000000002,167.9277807958424L231.0233333333333,167.92858193814754L231.07,167.93033521994948L231.07333333333332,167.92870721966028L231.14333333333335,167.92723746970296L231.19666666666666,167.9322012551129L231.68666666666667,167.9319968484342L231.73333333333335,167.93474776670337L231.94333333333333,167.9447419345379L232.05333333333334,167.93975111469626L232.21333333333334,167.9407408386469L232.26,167.94424806162715L232.36333333333334,167.93408443406224L232.39333333333335,167.93562275916338L232.5233333333333,167.9317403510213L232.72666666666666,167.9452404230833L232.92,167.96264070644975L233.17666666666668,167.97880927473307L233.19,167.97362723574042L233.28,167.96825529634953L233.69,167.98520588502288L234.27666666666664,168.02372269704938L234.33,168.02709540724754L234.50666666666666,168.01164753735065L234.73666666666668,168.03542267158628L234.84,168.03871427848935L234.86666666666665,168.04277669638395L235.12333333333333,168.05194598436356L235.15333333333334,168.05492570623755L235.3033333333333,168.0634633116424L235.53,168.04983466118574L236.62333333333333,168.09465313330293L237.09,168.0959250703454L237.16,168.1011202968657L237.26000000000002,168.10461037606L237.30333333333334,168.10575703158975L237.35666666666668,168.1111612804234L237.38,168.1134005226195L237.66666666666669,168.12637375295162L237.81666666666666,168.13622087985277L237.88000000000002,168.1319922991097L237.99666666666667,168.12897235527635L238.41,168.1071338094771L238.86666666666667,168.12259354814887L238.94,168.1235826127231L238.97333333333336,168.12860244512558L239.09,168.11997120827436L239.24,168.12795955315232L239.27666666666667,168.12926775589585L239.82666666666668,168.16954642161727L239.83333333333331,168.1693149805069L240.02666666666664,168.171945232898L240.08333333333331,168.1763379983604L240.16333333333333,168.17752289772034L240.19666666666666,168.17362466454506L240.32000000000002,168.1778815984726L240.39333333333332,168.17941464856267L240.57,168.19068932533264L240.81666666666666,168.19587136432528L240.83999999999997,168.196711409837L240.96666666666664,168.2038115747273L241.64,168.23321053013206L241.86333333333334,168.2339918911457L242.07333333333335,168.24138152226806L242.12333333333333,168.24434607848525L242.46,168.24696907773614L242.47,168.24638816714287L242.69666666666666,168.23476863652468L243.09333333333333,168.22689172625542L243.24333333333334,168.23289205133915L244,168.25407122075558L244.23333333333335,168.23283732309937L244.52666666666667,168.24066807702184L244.68666666666667,168.24222222715616L244.89666666666665,168.2392675615847L244.93333333333334,168.2372478917241L245.96333333333334,168.2043258883059L246.36333333333334,168.2088643759489L246.39000000000001,168.21053787320852L246.51,168.2185677587986L246.76666666666668,168.23311096429825L246.79666666666668,168.23377034068108L247.50666666666666,168.23379407823086L248.07999999999998,168.2468939088285L248.16333333333333,168.24570043757558L248.21666666666664,168.24233102425933L248.68666666666667,168.2385501600802L248.73666666666665,168.2395899966359L248.84,168.24155955389142L249.18333333333334,168.25114688649774L249.34333333333333,168.24923007935286L249.51333333333332,168.25835255160928L249.63666666666666,168.267501398921L249.82,168.27502883970737L249.82666666666668,168.27536050602794L249.88,168.27909521386027L250.06333333333333,168.28417570888996L250.79666666666668,168.2823268175125L250.82333333333335,168.2833983041346L250.83666666666667,168.28352424502373L251.01666666666668,168.2901681214571L251.35,168.29840636998415L251.93,168.31255922466516L252.18333333333334,168.31958224251866L252.29333333333335,168.32105265185237L252.36666666666667,168.32346596941352L252.45666666666665,168.32514276355505L253.5,168.3648748062551L253.93,168.3618489280343L254.01,168.36559814214706L254.23000000000002,168.3557358495891L254.33666666666667,168.3463713862002L254.50000000000003,168.34658304601908L254.51333333333335,168.34457128867507L255.88666666666668,168.38660653308034L256.06,168.38840201497078L256.7033333333333,168.40069476887584L256.93,168.4013264514506L256.99,168.4046622365713L257.38,168.41582679748535L257.39666666666665,168.41684553399682L257.46666666666664,168.40884136408567L257.46999999999997,168.4091552272439L257.48333333333335,168.40869762003422L257.62,168.41080564633012L257.68333333333334,168.41398845613003L258.18333333333334,168.425125323236L258.19,168.42507982626557L258.4,168.4384915418923L258.40999999999997,168.4378611780703L258.7266666666667,168.45422360301018L258.8533333333333,168.45203117653728L259.18666666666667,168.45197776705027L259.32666666666665,168.456619117409L259.66333333333336,168.46014084666967L259.84,168.46491407230496L259.97,168.46336981281638L260.04,168.46354322880507L260.3666666666667,168.481500685215L260.37666666666667,168.48225896805525L260.45666666666665,168.48617038875818L260.55333333333334,168.4837893806398L260.78,168.4813622161746L260.81,168.4814044162631L261.71,168.5125447846949L262.04333333333335,168.5036286972463L262.06,168.50368870049715L262.14,168.5065701752901L262.68,168.49088690802455L262.69666666666666,168.4882395118475L262.7733333333333,168.4869992248714L263.0466666666666,168.48691284656525L263.19,168.48717000335455L263.34666666666664,168.49066667631269L263.59333333333336,168.50002916157246L263.68666666666667,168.50508130341768L263.7866666666667,168.5082680694759L263.99,168.50457622110844L264.01666666666665,168.50411531701684L264.0266666666667,168.5035911127925L264.22666666666663,168.5066704005003L264.2766666666667,168.51048489287496L264.39666666666665,168.51463962346315L264.54333333333335,168.5165577493608L264.61333333333334,168.5221835486591L264.68,168.52589122205973L264.93666666666667,168.5351844727993L265.12,168.53736305236816L265.1433333333333,168.536095071584L265.43,168.51894732937217L265.43333333333334,168.5187462195754L265.73333333333335,168.51682941243052L265.92,168.52000430971384L266.02666666666664,168.52351351082325L266.5,168.52237806469202L266.62,168.52443531900644L266.7866666666667,168.53002155572176L266.88,168.53395341709256L266.93,168.53280610218644L267.1066666666667,168.5421151779592L267.75666666666666,168.56038188189268L268.05333333333334,168.56498630717397L268.25333333333333,168.56569843366742L268.2933333333333,168.56654573231936L268.47,168.5651768669486L268.68666666666667,168.56257430836558L269.1,168.56759282201529L269.4533333333333,168.5708633288741L269.52333333333337,168.57635263726115L269.73,168.57615943998098L269.7866666666667,168.57689860090613L269.84,168.5764581374824L269.8666666666667,168.57774985581636L269.9866666666667,168.58379106223583L270.1166666666667,168.58771896734834L270.23333333333335,168.58722377568483L270.49666666666667,168.5958180874586L270.6933333333333,168.59435690939426L270.85,168.59831580519676L270.88666666666666,168.59707485884428L270.9633333333333,168.59855186194181L271.0733333333333,168.603958748281L271.07666666666665,168.60431283339858L271.11333333333334,168.6048574782908L271.2733333333333,168.6106441654265L271.2766666666667,168.6109131909907L271.47666666666663,168.61204402148724L271.5933333333333,168.61688582226634L271.9266666666667,168.60919683426619L272.0733333333333,168.6109125316143L272.18333333333334,168.60831392928958L272.2366666666667,168.60659427568316L272.26,168.6060707308352L273.00666666666666,168.61790983378887L273.1166666666667,168.62272328138351L273.18,168.62453326955438L273.24,168.6219287328422L273.34000000000003,168.62588894739747L273.5,168.6314712278545L273.6933333333333,168.6329726278782L274.03,168.63462634384632L274.13666666666666,168.63489405065775L274.32666666666665,168.63666777312756L274.50333333333333,168.63941473513842L274.79333333333335,168.64458886161447L275.03,168.64391036331654L275.05333333333334,168.6451255939901L276.03000000000003,168.63691108301282L276.1033333333333,168.63651413843036L276.25,168.63697768002748L276.66,168.64114559814334L276.84333333333336,168.6471221856773L276.85999999999996,168.64635599032044L277.10333333333335,168.6476747430861L277.15,168.6483235694468L277.22666666666663,168.64979991316795L277.50666666666666,168.65767616406083L277.8666666666667,168.66499392315745L278.33,168.6734438315034L278.92333333333335,168.68247399106622L279.18,168.68254124745727L279.26666666666665,168.68450948596L279.4833333333333,168.69553689658642L279.9433333333333,168.70785272866488L279.97,168.70967788249254L279.99,168.7101137302816L280.5833333333333,168.72299398854375L280.73333333333335,168.7239599749446L281.09333333333336,168.7226346284151L281.34,168.7232801578939L281.3566666666667,168.7237489745021L281.37333333333333,168.7244967073202L281.9066666666667,168.73340224474669L282.09666666666664,168.73749169707298L282.49666666666667,168.744432952255L282.8566666666667,168.74546421691775L283.14666666666665,168.74228206649423L283.1666666666667,168.74381643533707L283.2,168.7442760206759L283.3333333333333,168.74745817109942" style="fill: none;" fill="none"></path></g></g></g></g></g></g><g transform="translate(30, 177)" clip-path="url(#clip_1)"><clipPath id="clip_1"><rect width="300" height="23"></rect></clipPath><g><g><line x1="0" y1="0" x2="0" y2="5" style="visibility: inherit;" fill="rgb(0, 0, 0)" stroke="rgb(204, 204, 204)" stroke-width="1px"></line><line x1="33.33333333333333" y1="0" x2="33.33333333333333" y2="5" style="visibility: inherit;" fill="rgb(0, 0, 0)" stroke="rgb(204, 204, 204)" stroke-width="1px"></line><line x1="66.66666666666666" y1="0" x2="66.66666666666666" y2="5" style="visibility: inherit;" fill="rgb(0, 0, 0)" stroke="rgb(204, 204, 204)" stroke-width="1px"></line><line x1="100" y1="0" x2="100" y2="5" style="visibility: inherit;" fill="rgb(0, 0, 0)" stroke="rgb(204, 204, 204)" stroke-width="1px"></line><line x1="133.33333333333331" y1="0" x2="133.33333333333331" y2="5" style="visibility: inherit;" fill="rgb(0, 0, 0)" stroke="rgb(204, 204, 204)" stroke-width="1px"></line><line x1="166.66666666666669" y1="0" x2="166.66666666666669" y2="5" style="visibility: inherit;" fill="rgb(0, 0, 0)" stroke="rgb(204, 204, 204)" stroke-width="1px"></line><line x1="200" y1="0" x2="200" y2="5" style="visibility: inherit;" fill="rgb(0, 0, 0)" stroke="rgb(204, 204, 204)" stroke-width="1px"></line><line x1="233.33333333333334" y1="0" x2="233.33333333333334" y2="5" style="visibility: inherit;" fill="rgb(0, 0, 0)" stroke="rgb(204, 204, 204)" stroke-width="1px"></line><line x1="266.66666666666663" y1="0" x2="266.66666666666663" y2="5" style="visibility: inherit;" fill="rgb(0, 0, 0)" stroke="rgb(204, 204, 204)" stroke-width="1px"></line><line x1="300" y1="0" x2="300" y2="5" style="visibility: inherit;" fill="rgb(0, 0, 0)" stroke="rgb(204, 204, 204)" stroke-width="1px"></line></g><g transform="translate(0, 8)"><text x="0" y="0" dx="0em" dy="0.95em" style="text-anchor: middle; visibility: hidden; font-family: &quot;Helvetica Neue&quot;, sans-serif; font-size: 12px; font-weight: 200;" fill="rgb(33, 33, 33)" stroke="none" stroke-width="1px">-10k</text><text x="33.33333333333333" y="0" dx="0em" dy="0.95em" style="text-anchor: middle; visibility: inherit; font-family: &quot;Helvetica Neue&quot;, sans-serif; font-size: 12px; font-weight: 200;" fill="rgb(33, 33, 33)" stroke="none" stroke-width="1px">0</text><text x="66.66666666666666" y="0" dx="0em" dy="0.95em" style="text-anchor: middle; visibility: inherit; font-family: &quot;Helvetica Neue&quot;, sans-serif; font-size: 12px; font-weight: 200;" fill="rgb(33, 33, 33)" stroke="none" stroke-width="1px">10k</text><text x="100" y="0" dx="0em" dy="0.95em" style="text-anchor: middle; visibility: inherit; font-family: &quot;Helvetica Neue&quot;, sans-serif; font-size: 12px; font-weight: 200;" fill="rgb(33, 33, 33)" stroke="none" stroke-width="1px">20k</text><text x="133.33333333333331" y="0" dx="0em" dy="0.95em" style="text-anchor: middle; visibility: inherit; font-family: &quot;Helvetica Neue&quot;, sans-serif; font-size: 12px; font-weight: 200;" fill="rgb(33, 33, 33)" stroke="none" stroke-width="1px">30k</text><text x="166.66666666666669" y="0" dx="0em" dy="0.95em" style="text-anchor: middle; visibility: inherit; font-family: &quot;Helvetica Neue&quot;, sans-serif; font-size: 12px; font-weight: 200;" fill="rgb(33, 33, 33)" stroke="none" stroke-width="1px">40k</text><text x="200" y="0" dx="0em" dy="0.95em" style="text-anchor: middle; visibility: inherit; font-family: &quot;Helvetica Neue&quot;, sans-serif; font-size: 12px; font-weight: 200;" fill="rgb(33, 33, 33)" stroke="none" stroke-width="1px">50k</text><text x="233.33333333333334" y="0" dx="0em" dy="0.95em" style="text-anchor: middle; visibility: inherit; font-family: &quot;Helvetica Neue&quot;, sans-serif; font-size: 12px; font-weight: 200;" fill="rgb(33, 33, 33)" stroke="none" stroke-width="1px">60k</text><text x="266.66666666666663" y="0" dx="0em" dy="0.95em" style="text-anchor: middle; visibility: inherit; font-family: &quot;Helvetica Neue&quot;, sans-serif; font-size: 12px; font-weight: 200;" fill="rgb(33, 33, 33)" stroke="none" stroke-width="1px">70k</text><text x="300" y="0" dx="0em" dy="0.95em" style="text-anchor: middle; visibility: hidden; font-family: &quot;Helvetica Neue&quot;, sans-serif; font-size: 12px; font-weight: 200;" fill="rgb(33, 33, 33)" stroke="none" stroke-width="1px">80k</text></g><line x1="0" y1="0" x2="300" y2="0" fill="rgb(0, 0, 0)" stroke="rgb(204, 204, 204)" stroke-width="1px"></line></g></g></g></g></svg>